<?xml version="1.0" encoding="utf-8"?>
<!-- Generator: Adobe Illustrator 21.0.2, SVG Export Plug-In . SVG Version: 6.00 Build 0)  -->
<svg version="1.1" id="teile" xmlns="http://www.w3.org/2000/svg" xmlns:xlink="http://www.w3.org/1999/xlink" x="0px" y="0px"
	 viewBox="0 0 2201.2 895.7" style="enable-background:new 0 0 2201.2 895.7;" xml:space="preserve">
<style type="text/css">
	.st0{fill:#1B11EA;}
	.st1{fill:#421212;}
	.st2{fill:#595914;}
	.st3{fill:#E83713;}
	.st4{fill:#FCEF06;}
	.st5{fill:#90E288;}
	.st6{fill:#EA0C47;}
	.st7{fill:#10C67C;}
	.st8{fill:#2CFF00;}
	.st9{fill:#11D316;}
	.st10{fill:#F9420B;}
	.st11{fill:#5F10DD;}
	.st12{fill:#E411EA;}
</style>
<path id="bike" class="st0" d="M1491,270.4c-32.5,0-63.7,5-93.1,14.2c-4.1-9.3-11.1-21.7-20.3-31.3c-7.8-8.2-13.2-7-17.9-4.9
	l-7.4-16.3c3.2-3.4,4.1-6.1,4.1-6.1s-2.8-5.3-9.8-23.6c22.2-16.8,76.6-58.6,99.8-87.1c16.7-6.8,29.5-13,34.4-18.2
	c10.9-11.3,3.2-20.9-10.6-25.8s-87.7-4.9-99-4.5c-2.5,0.1-5.2,0.9-7.7,2h-12.1c-3.3-2-7.3-3.3-11.7-3.3c-4.9,0-9.4,1.6-12.9,4.1
	l-0.1-0.8L1290.4,79l-0.1-0.4l-4.9,1.9l-22.8,8.7L1277,124c-7.2,2.1-14,5-19.3,9c-2.7,2-4.8,4.1-6.4,6.1l-330.5,72.6
	c-2-2.9-3.6-4.9-3.6-4.9s-24.4,4.9-30.9,3.3s-19.5-22.3-19.5-22.3l-2.8,0.7l-6.9-26.1l3.7-1.5l-4.4-16.3l-3.7,1.2l-22.4-84.4
	l30.5-25c0,0,1.1,2.1,13.5,0.5c12.5-1.6,27.6-3.3,39.5-5.4s13-3.8,15.1-7.6c2.1-3.7,1.1-7-13.5-17.9S864,2.7,845.6,3.9
	c-18.4,1.1-40,11.4-70.9,9.1c-30.9-2.1-61.7-4.9-70.9-2.6c-9.1,2.1-14,6.5-16.3,12.5s-1.6,10.9,0,12.5c1.6,1.6,13.5,7,13.5,7
	s-3.3,3.3-4.9,9.1c-1.6,6,8.6,6,20,13.8s24.4,2.9,24.4,2.9s6,8.6,15.6,9.4c9.8,0.8,33-6.8,33-6.8s1.6,2.6,8.1,9.1
	c5.2,5.2,11,5.2,16.4,2.5l17.8,70.2l-4.9,1.6c-0.1,0-0.1,0-0.3,0c-5.6,0-10.1,4.5-10.1,10.2s4.5,10.2,10.1,10.2c3.2,0,6.1-1.6,8-4
	l1.7-0.7l5.6,21.9c-3,9.7,4.1,23.5,0,28.2c-2.3,2.8-7.6,10.5-11.8,16.8c-23.8,3.4-56.2,20-56.2,20s-4.4,1.6-11.4,4.9
	s-8.6,10.3-13,16.3s1.1,4.9,1.1,4.9s-11.4,14.6-11.9,12.5s-8.6-3.3-13,4.9c-4.4,8.2,6.5,8.6,6.5,8.6l17.9-13.5l3.3,5.4l-31.8,29.3
	c-51.7-37.9-115.5-60.3-184.6-60.3c-172.2,0.3-312,140.1-312,312.4s139.8,312.3,312.3,312.3c130.5,0,242.2-80,288.8-193.6l91.3-11.1
	c13.5,10.6,30.6,17,49.3,17c21.5,0,40.8-8.5,55.3-22.1l28.9,18v22.8h36.6l6.5,4.1c0,0,5.7-1.5,11.1-4.1h35.1v-24.6h-40.3
	c-14.8-11.7-39.5-30.6-58.6-45.2c3.4-9,5.4-18.7,5.4-28.9c0-20.3-7.6-38.7-19.9-52.7l263.7-315.6c4-4.8,17.1-7.7,30.3-11.4
	l26.2,58.2c-100,52.1-168.3,156.6-168.3,277.2c0,172.5,139.8,312.3,312.3,312.3s312.3-139.8,312.3-312.3S1663.6,270.4,1491,270.4z
	 M1345.2,198.8c-2.4-6.4-5.3-14.2-8.7-23.6c-2.9-8.1-5.6-15.2-7.9-21.6c32.5-9.3,77.8-22.9,110.9-35.8
	C1415.8,143.5,1365.9,182.8,1345.2,198.8z M1474.1,96.8c-2.4,3.3-11.1,7.8-23.7,13c2-2.8,3.3-5.4,4.1-7.7
	c4.6-13.8-3.8-22.3-15.1-24.4c-11.3-2.1-64.9,13-73.1,15.6c-8.1,2.6-14.3,10.2-19.5,6.5c-1.2-0.8-2.3-1.6-3.3-2.3
	c9-1.5,15.8-8.1,15.8-15.9l0,0h49.6V70.7c25.7,0.8,55.7,2.6,60.6,4.4C1477.1,77.8,1485.6,81.2,1474.1,96.8z M1329.1,95.5
	c2.5,1.3,5.4,2.3,8.5,2.5c1.7,2,4,4.1,6.4,5.3c5.4,2.6,13-1.1,24.9-6s64.4-16.3,70.9-15.1c6.5,1.1,13.5,2.6,9.8,21.1
	c-0.4,2.3-2.3,5.3-5.3,9c-31.9,12.5-82.3,28-117.1,38.2c-8.7-22.5-13.5-31.9-13.5-31.9s-2.9,0-7.4,0.4l-6.4-15.8L1329.1,95.5z
	 M776.6,262.3c13.6-11.5,36-16.7,49.6-19.1c-1.3,2-2.3,3.3-2.3,3.3s-5.2,2.3-5.4,12.1L781,296.5l-6.1-7.2l-8.6,1.6l1.1-5.7
	c0,0-1.6-3.6,0-9.4S756.1,279.6,776.6,262.3z M748.5,313.2l8.9,7.3L736.2,342c-3.3-2.8-6.8-5.4-10.2-8.1L748.5,313.2z M722.9,387.1
	c47.7,45.3,78.8,108,83.3,177.9H587.4c-3.6-10.2-10.2-19.1-18.8-25.3L722.9,387.1z M537,852.3c-148.9,0-269.7-120.7-269.7-269.8
	c0-148.9,120.7-269.8,269.8-269.8c64,0,122.7,22.3,168.9,59.5L549.2,530.7c-4-0.9-8-1.5-12.2-1.5c-29.4,0-53.3,23.8-53.3,53.3
	c0,10.9,3.2,20.9,8.7,29.3c-0.5,7.2-1.2,11.9-3.2,12.3c-3.3,0.8-8.1,0-8.1,0l-14.6,11.5c0,0,16.3,24.1,31.9,44.4h-44.1l-8.9,10.6
	l8.9,10.6c0,0-5.7,11.4-0.8,21.9c4.9,10.6,18,21.1,30.1,19.5l292.6-35.5C731.3,793.5,641.1,852.3,537,852.3z M534.1,642.8
	c-2.8,0.1-5.3,1.1-7.3,3.3c-6.5,7.3-13,10.6-13,10.6l-14.6-20.9l6.6-10.1c7.4,5.4,16.3,8.9,26,9.8L534.1,642.8z M779.4,701.4
	l-281.8,36l0,0c4.5-3.4,7.7-8.3,9-14.2c2.4-10.6,1.6-26-7.3-29.3c-4.5-1.6-0.8-5,3.8-8.1c9.3,11.7,17.6,21.1,21.3,21.9
	c10.6,2.4,12.2,1.6,16.3-4.1c4.1-5.7,9.8-11.4,14.6-20.3c4.9-8.9,9.8-23.1,0-31c-3.6-2.9-7.6-5.6-11.4-7.3l-3.6-9.4
	c18.9-1.2,35.1-12.1,43.6-27.8l220.3,11.1C800.5,648.3,791.8,675.9,779.4,701.4z M806.4,597.5l-216.1-13.6c0-0.4,0-0.8,0-1.2
	c0-4.1-0.5-8.1-1.3-11.8c29.9,0.3,140.1,1.1,217.6,1.1c0.1,3.6,0.3,7.2,0.3,10.9C806.8,587.6,806.7,592.6,806.4,597.5z M828.4,695
	c9-23.5,15.4-48.2,18.5-73.9l39.6,2c0,1.3-0.1,2.7-0.1,4c0,22.5,9.3,42.9,24.4,57.4L828.4,695z M875,588.5l5-6h6.5l2.3-3l9,6.6
	c-3,5.2-5.6,10.7-7.4,16.6l-41.5-2.6c0.3-5.8,0.5-11.7,0.5-17.6c0-3.7-0.1-7.3-0.3-11c10.6-0.1,19.5-0.1,25.8-0.3l-10.3,11.3
	L875,588.5z M848.8,564.9c-0.3-5.4-0.8-10.7-1.3-16l21.6,16H848.8z M898.9,545.4l-58.7-37.9l0,0c-14.4-58.3-45.2-110.1-87.1-150.4
	l83.1-82.1c0.8-0.3,1.5-0.4,2.4-0.8c8.9-3.3,6.8-6.9,10.7,1.5c3.8,8.3,6.4,12.9,10.5,22.9c0.4,0.9,1.1,1.7,2,2.3L911.4,483
	c-3.4-2-6.6-2.9-8.5-1.6c-6.8,4.6,5.7,14.6,5.7,26.2c0,11.5,5.3,21.7,5.3,21.7L898.9,545.4z M1287.8,192.2
	c-2.4,5.7-12.2,21.9-17.9,28.5c-3.4,4-4.8,9.4-4.9,14.2L990.3,550.7c-7.6-2.4-15.5-3.6-23.9-3.6c-0.8,0-1.6,0-2.4,0l-73.5-252
	c3-1.3,5-2.3,5-2.3s0.8-4.9,0-17.1s0-14,8.1-17.2s24.6-2.5,26.8-8c0.7-1.9,0.9-3.4,0.9-5.2L1250,173c0.7,2.1,2.3,3.7,5.2,3.7
	c8.9,0,17.1-6.5,21.9-3.3C1282.1,176.8,1290.2,186.5,1287.8,192.2z M1382.5,272.9c4,4.1,6.6,9.3,8.3,13.9c-4,1.3-7.8,2.8-11.7,4.2
	l-12.2-26.9C1371.8,262.7,1374.2,264.4,1382.5,272.9z M1491,852.3c-148.9,0-269.8-120.7-269.8-269.8c0-103.3,58-193.1,143.4-238.4
	l101.1,224.1c-2.4,4.2-3.7,9.1-3.7,14.3c0,16,13,29.2,29.2,29.2c16,0,29.2-13,29.2-29.2c0-13.4-9-24.5-21.2-28l-102.4-224.9
	c29.4-11,61.1-17,94.3-17c148.9,0,269.8,120.7,269.8,269.8S1640,852.3,1491,852.3z"/>
<path class="st1" d="M1592.2,279c-30.6-9.3-74.1-18.4-118.5-16.5c-80.7,3.4-147.6,44.8-166,57.9c-1.4,1-2.7,2.2-7.1,5.2
	c-3.6,2.5-7.5,5.7-16.5,13c-16.6,13.4-33.8,30.4-56.9,61.4c-5.6,7.5-11.3,15.7-17.5,26.2c-6.4,10.8-12.7,22.4-18,34.3
	c-8.6,19.3-30.1,55.5-33.8,76.9c-0.6,3.7-10.2,22.6-13.5,25.2c-0.8,0.6-1.5,1.2-2.1,1.7c-5.2,3.9-4-0.3-3.9-1.1
	c19.6-143.4,129.9-280.7,279.1-310.8c34.9-7,70.4-8.3,104.1-5c15.5,1.5,31.2,5.5,46.1,9.4c16.2,4.2,21,5.6,30.6,9.1
	c5.7,2.1,15.2,5.8,17.8,7.9C1625.6,281.6,1599.2,281.1,1592.2,279z M749.3,319.5c-9.6-6.5-28.8-19.2-39-24.9
	c-10.7-6-21.5-12.2-32.7-17.2c-89-39.7-195.1-45.8-285.6-2.7c-32.1,15.3-61.3,35.6-86.3,58.5c-11.5,10.5-21.6,23.1-31.2,35.2
	c-5.3,6.7-8.7,11-11.5,14.7c-0.5,0.7-0.1,1.7,0.7,1.9c8.2,1.6,15.8-3.9,23.4-8.7c0.8-0.5,1.4-1.1,2-1.7c17.2-19.8,38.9-40.8,63.9-58
	c66.6-45.7,145-52.7,167.6-53.3c1.7,0,3.5,0.1,8.8-0.1c4.4-0.1,9.4,0.1,21,0.5c21.3,0.8,45.3,4,82.3,15c9,2.7,18.4,5.8,29.7,10.4
	c7.3,3,14.4,5.8,21.8,9.6c2.2,1.1,3.6,1.9,5.6,3c3.2,1.8,5.1,3.1,8.3,5c18.2,11.4,52.9,35.2,68.7,50.1c2.5,2.3,15.8,7.9,21.7,9.2
	c0.1-0.2,0.3-0.5,0.6-0.7C772.2,347.6,770.1,333.5,749.3,319.5z M856,526.4c-0.2-3.6-0.4-8.1-0.2-14c-0.1-1.5-0.3-3.1-0.4-4.6
	c-3.7-18-6.1-32.5-11.6-48.5c-3.7-11.1-7.1-21.5-12.1-33.2c-3.1-7.3-7.4-14.8-11.1-22.8c-0.4-0.9-2-4-3.1-6c-0.9-1.8-2.9-5-4.3-7.5
	c-0.6-1.1-1.6-2.3-2.1-3.2c-0.3-0.6-0.9-1.3-1.3-2.1c-3.3-5.5-9.3-12.5-11.1-14.8c-14.7-18.9-34.6-33.4-53.6-49.7
	c-1-0.8-2.5-0.8-3.3,0.2l-4.7,5c-0.6,0.6-0.8,1.5-0.6,2.3c0.3,1.7,0.1,4.8,3.2,7.6c3.3,2.9,7.6,5.4,15.8,13.6
	c15.1,15.1,32.6,32.1,52.3,65.3c4.8,8.1,9.6,16.8,14.7,27.8c5.2,11.4,10.3,23.6,14.4,36c2.4,7.3,7.4,26.3,12.1,42.8
	c0,0.1,1.4,1.8,1.5,1.8c1.8,2.3,2.5,2.6,4.7,4.6C855.4,527.3,856.1,527,856,526.4z"/>
<path id="bremsen" class="st2" d="M1399.1,283.5c-0.8,0.6-6.9,3-8,3c-0.7-1.4-1.8-3.3-3.2-5.6c-2.1-3.6-3.2-5.4-4.3-7l0,0
	c-1.1-1.5-4.8-6.4-9.4-9.3c-0.6-0.4-1.8-1.1-3.3-1.3c-0.8-0.1-1.6,0-1.8,0c-0.8,0.1-1.4,0.3-1.9,0.5c-0.4-0.9-0.8-1.8-1.2-2.7
	c-2-4.3-4-8.7-6-13c1.8-0.8,4.8-1.9,8.3-1.5c4.4,0.5,7.8,2.9,11.1,6.4C1388.8,263,1396.8,278.9,1399.1,283.5z M778.3,262.1
	c10.9-9.3,27.6-14.5,40.7-17.4c0.2,0,6.6-1.4,6.8-1.5c0.1-0.5,0.5-0.9,0.8-1.4c1-1.6,2.3-3.4,2.8-4.9c-0.3,0.1-8.6,1.8-8.9,1.9
	c-21.8,5.6-45.4,17.8-45.4,17.8s-4.4,1.6-11.4,4.9s-8.6,10.3-13,16.3s1.1,4.9,1.1,4.9s-11.4,14.6-11.9,12.5s-8.6-3.3-13,4.9
	c-4.4,8.2,6.5,8.6,6.5,8.6l17.9-13.5l3.3,5.4l-30.5,28.1c1.9,1,3.7,2.1,5.5,3.2l20.5-18.8l8.9,7.3l-18.7,19
	c6,4.7,11.5,9.8,16.7,15.4l54.3-53.6c0.3-12.6,1.6-25.3,3.9-37.7l-32.6,32.9l-6.1-7.2l-8.6,1.6l1.1-5.7c0,0-1.6-3.6,0-9.4
	C770.7,269.8,757.8,279.4,778.3,262.1z"/>
<path class="st3" d="M865.1,600.3c9.4,1.5,18,2,25.6,2.1c-1.3,6.8-2.6,13.6-3.9,20.4c-13.2-0.7-26.4-1.3-39.6-2
	c0.4-3.1,0.7-6.2,0.9-9.5c0.4-5,0.6-9.7,0.8-14.3C853.9,598.3,859.3,599.4,865.1,600.3z M861.9,299.8c0,0,65.6,244.3,68.2,252
	c7.2-3.7,34-5.8,34-5.8l-73.4-250.1c-3.1,0.5-31,1-30.8,1.6C860.3,298.4,861,299.2,861.9,299.8z M819,258.4l-269.2,272
	c2.5,1.8,15.5,8.2,19.7,8.7l267.2-264.3C837.3,274.6,819,256.9,819,258.4z M1251.6,139l-330.3,72.6c0.6,1.4,12,32.5,12.1,33.2
	l316.9-71.9C1250.1,161.1,1252,138.5,1251.6,139z M1352.7,232L1352.7,232c0-0.1-12.5,2.8-32.9,13.7c8.3,18.9,19,40.4,27.3,59.4l0,0
	c0,0,10.8-4.8,32.3-14.4C1370.5,271.1,1361.6,251.6,1352.7,232z M1499.5,554.2c-33.5-74.7-67-149.5-100.4-224.2
	c-2.7,1.3-4.9,2.4-6.3,3c-7.5,3.4-11.8,4.8-26.1,10.5c-0.7,0.3-1.2,0.5-1.5,0.6L1466,567.5c4.8-2.6,10.3-5.2,16.4-7.6
	C1488.5,557.6,1494.3,555.7,1499.5,554.2z M1267.1,235c-0.3-0.3-0.6-0.6-0.9-0.9c-91.9,105.4-183.8,210.9-275.6,316.3
	c5.5,1.6,13.2,4.6,21.3,10.1c6.6,4.5,11.5,9.4,14.8,13.3c88.6-105.8,177.1-211.6,265.7-317.4c0.1-0.1,0.2-0.2,0.3-0.3
	C1288.2,254.1,1271.5,239.3,1267.1,235z M806.9,597.3l-216.1-13.6v-0.2c-0.1,0.1-0.7,1.6-0.9,2.4c-0.8,3.1-1.6,6.3-2.4,9.5
	c-1.1,4.1-2.2,8.1-3.7,12.1c0,0.1-0.1,0.1-0.1,0.2c0.1,0.1,0.5,0.1,0.6-0.1l220.3,11.1C804.5,619.6,806.9,597.2,806.9,597.3z
	 M1277.5,123.4c-7.2,2.1-14,5-19.3,9c-2.7,2-4.8,4.1-6.4,6.1l-1.2,33.9c0.7,2.1,2.3,3.7,5.2,3.7c8.9,0,17.1-6.5,21.9-3.3
	c5,3.4,13.1,13.1,10.7,18.8s-12.2,21.9-17.9,28.5c-3.4,4-4.8,9.4-4.9,14.2l25,23.7c3.5-2.1,7.4-4.1,11.7-6.1
	c12-1.6,40.2-15.9,50.5-20.3c3.2-3.4,4.1-6.1,4.1-6.1L1314.3,118L1277.5,123.4z M930.6,231.8c0-0.2-0.1-0.4-0.3-0.5
	c-8.5-10.3-2.1-12-7.2-16.3c-2.4-2.1,0.9-2.6-0.9-3.6c-0.1-0.1-1,0.3-1.2,0.3c-0.1,0-0.2-0.2-0.2-0.2l-2.9-3.9
	c-0.3-0.4-0.8-0.6-1.3-0.5c-4.1,0.8-21.5,3.8-28.6,3.3c-1.3-0.1-1.6-0.1-2.2-0.4c-0.3-0.1-1.6-0.8-1.9-1.1c-1.1-1.1-2.9-2.2-4.1-3.8
	c-1.2-1.6-3.1-3.2-4.3-4.9c-1.4-2.2-3.2-4.1-4.4-5.9c-1.8-2.9-3.1-4.9-3.2-4.9c-0.1,0-0.9-1.4-0.9-1.4c-0.2-0.1-2.5,0.8-2.7,0.6
	c-0.1-0.1-0.2-0.2-0.3-0.2c-2.3-0.1-5.6,0.9-5.8,0.9c-2.2,0.1-15.8,2.2-16.1,2.4c-1.1,0.8-1.5,4.3-1,8c0.2,1.3,0.4,3.9,0.6,5.3
	c0.3,2.2,0.7,3.5,0.9,5.6c0.3,2.6,0.5,4.7,0.5,6.2c0,0.2,0,0.3,0,0.5c0,0.3,0,0.6-0.1,0.8c0,0.1-0.1,0.4-0.1,0.5c0,0,0.1,0,0,0
	l-7.7,11.4l-6.9,10.4c0,0,0,0,0,0.1l-3.9,6.7c-0.1,0.1-0.1,0.2-0.2,0.3l-2.6,2.4l-0.5,0.8l-0.3,0.5l-0.4,0.7l-0.5,1.3
	c0,0,0,0.1,0,0.1l-0.3,1.1c0,0,0,0.1,0,0.1l-0.3,1.7l-0.1,1l-0.1,1.2c0,0.4,0.1,0.8,0.4,1c2.7,2.7,5.7,4.4,8.4,8
	c1.2,1.6,3.9,4.2,7.7,6.2c0.2,0.1,0.7,1.9,1.6,1.9c0.6,0,2.4-1.1,3.1-1.1c0.5,0,1.3-0.8,1.8-0.8c1.5,0,1.6,0,1.9,0.2
	c4.7,2.5,4.8,5.8,8.9,9.7c1.1,1.1,1.6,3.2,2.4,4.5c0.9,1.5,1.6,3.1,2.2,4.7c0.5,1.2,1.1,2.2,1.5,3.4c0.8,2.4,1.7,3.7,2.7,5
	c0.1,0.1,0.2,0.2,0.3,0.3c0.4,0.3,0.4,1.2,0.6,1.6c0.3,0.6,0.4,1.3,0.6,2.1c0.2,1,0.5,1.5,0.7,2.5c0.4,2,1.4,3.7,1.9,5
	c0.3,0.9,1,1.3,1.7,0.6l21.2-15.9l2.6-0.4l-0.5-1.6l5-2.3l0.4-8.2l32.1-31.7l1-0.6l0.4-0.3l0.5-0.5l0.5-0.8l-0.1,0.1
	c0.2-0.2,0.6-1.8,0.6-1.8l0.2-0.6l0.1-0.8l0.1-1.1c0-0.1,0-0.6,0-0.7c0.2-0.4,0.5-0.6,0.9-0.7l0,0c0.3-0.1,1.5-0.2,1.7-0.4
	c0.3-0.3-0.6-0.7-0.7-1.2L930.6,231.8z"/>
<path id="bowdenzüge_zubehör" class="st4" d="M1482.2,103.2c-4.9,5.2-17.7,11.4-34.4,18.2c-23.2,28.5-77.6,70.3-99.8,87.1
	c0.6,1.5,1.1,2.9,1.6,4.2c-0.6,0-3.6-9.3-3-7.8c20.7-16,70.7-55.3,94.3-81c-33.1,12.9-78.4,26.5-110.9,35.8c0.2,0.6-2.5-5.9-1.4-3.1
	c34.8-10.2,85.2-25.7,117.1-38.2c3-3.7,4.9-6.7,5.3-9c3.7-18.5-3.3-20-9.8-21.1c-6.5-1.2-59,10.2-70.9,15.1s-19.5,8.6-24.9,6
	c-2.4-1.2-4.7-3.3-6.4-5.3c-0.9-0.1,8.7,1.4,9.2,1.8c5.2,3.7,11.4-3.9,19.5-6.5c8.2-2.6,61.8-17.7,73.1-15.6
	c11.3,2.1,19.7,10.6,15.1,24.4c-0.8,2.3-2.1,4.9-4.1,7.7c12.6-5.2,21.3-9.7,23.7-13c11.5-15.6,3-19-4.6-21.7
	c-4.9-1.8-34.9-3.6-60.6-4.4c0,0-14.6,1.3-13.7-4c26.5,0.2,65.4,1.2,75,4.6C1485.4,82.3,1493.1,91.9,1482.2,103.2z M1274.5,251.8
	c-69.5,81.7-139.1,163.5-208.6,245.2c-19.6,23-39.1,46-58.7,69c-1.2,1.5,0.9,3.6,2.1,2.1c69.4-81.5,138.8-163.1,208.2-244.6
	c19.7-23.2,39.4-46.3,59.1-69.5C1277.9,252.5,1275.8,250.3,1274.5,251.8z M894.1,596.2c-15-1.6-30-3.2-45-4.8c-1.9-0.2-1.9,2.8,0,3
	c15,1.6,30,3.2,45,4.8C896,599.4,896,596.4,894.1,596.2z M806.1,589.7c-71.7-3.2-143.3-6.3-215-9.5c-1.9-0.1-1.9,2.9,0,3
	c71.7,3.2,143.3,6.3,215,9.5C808,592.8,808,589.8,806.1,589.7z M872.6,579.5c-4,8.8-13.7,13.6-23.1,11.1c-1.9-0.5-2.7,2.4-0.8,2.9
	c10.6,2.8,21.9-2.5,26.5-12.5C876,579.2,873.4,577.7,872.6,579.5z M67.4,290.7L67.4,290.7c24.8-7.8,51.7,5.7,59.5,31.2
	c8.5,24.8-5.7,51.7-30.5,59.5c-25.5,8.5-52.4-5.7-60.2-30.5C27.8,325.4,41.9,298.5,67.4,290.7L67.4,290.7z M18.5,293.5L18.5,293.5
	c3.5,2.8,2.8,11.3,1.4,13.5c-0.7,2.1-5,3.5-9.2,2.8c-5-1.4-9.2,2.8-10.6,9.2c-0.7,5.7,1.4,10.6,5.7,12s7.8,8.5,7.8,10.6
	c0,2.9-2.8,5.7-7.1,7.1c-3.5,1.4-6.4,7.1-3.5,12.7c1.4,5.7,6.4,9.2,10.6,8.5c3.5-1.4,8.5-1.4,9.2,1.4c1.4,2.1,2.8,9.9,0,12.7
	c-2.8,3.5-1.4,9.9,2.8,13.5c5,4.3,10.6,5,13.5,1.4c2.8-2.8,11.3-2.1,13.5-1.4c2.1,0.7,3.5,5.7,2.1,9.9c-0.7,4.2,3.5,8.5,9.2,9.9
	c6.4,0.7,11.3-0.7,12.7-5.7c0.7-4.2,7.8-7.8,10.6-7.8c2.8,0,5.7,2.8,7.1,7.1c0.7,4.3,7.1,6.4,12.8,4.3c5.7-2.1,9.2-7.1,7.8-11.3
	c-0.7-3.5,3.5-9.9,5.7-12.1c1.4-1.4,5.7,0,9.2,2.9c3.6,2.8,9.2,2.1,13.5-2.9c4.2-4.9,5-10.6,1.4-13.5c-3.6-2.8-2.1-11.3-1.4-13.5
	c1.4-2.1,5.7-3.5,9.2-2.1c4.2,0.7,9.2-3.5,10.6-9.2c0.7-6.4-1.4-11.3-5.7-12c-4.2-1.4-7.8-9.2-7.8-11.3c0-2.8,2.8-5.7,7.1-7.1
	c4.3-0.7,5.7-7.1,4.3-12.8c-1.4-5.7-7.1-9.2-11.3-7.8c-4.2,1.4-10.6-3.5-12-4.9c-1.4-2.8-0.7-6.4,2.1-9.9c3.6-3.5,2.1-9.2-2.1-13.4
	c-5-3.5-10.6-5-13.5-1.4c-2.8,3.5-11.3,2.1-13.5,1.4c-2.1-0.7-3.5-5-2.1-9.2c0.7-4.3-3.5-9.2-9.2-10.6c-6.4-0.7-11.3,1.4-12,5.7
	c-1.4,4.3-9.2,7.8-11.3,7.8c-2.1,0-5.7-2.8-7.1-7.1c-1.4-3.5-7.1-5.7-12.8-3.5c-5.7,1.4-9.2,6.4-7.8,10.6c1.4,4.3-3.5,10.6-5.7,12
	c-2.1,1.4-6.4,0.7-9.2-2.1c-3.5-3.5-9.2-2.1-13.5,2.1C16.4,284.3,15,290.7,18.5,293.5L18.5,293.5z M267.3,166.2L267.3,166.2
	c-11.2-1.1-19.5-10.2-18.7-20.5c1.2-10.2,11.2-17.9,22.4-17.1c11.5,1.1,19.8,10.2,18.7,20.5C288.8,159.3,278.8,167,267.3,166.2
	L267.3,166.2z M314,134.4v-0.1c-1-2.9-0.3-6.1,2-8.3l1.9-1.8c1.7-1.8,1.7-4.5,0-6.3l-8-8.7c-1.4-1.8-4.6-2.4-6.9-1.1l-2,1.2
	c-2.8,1.7-6.3,1.8-9.2,0.4c-0.3-0.2-0.6-0.3-0.9-0.5c-2.8-1.3-4.6-4-4.7-6.9l-0.1-2.6c0-2.4-2.3-4.5-4.6-4.7l-12.6-0.8
	c-2.6-0.3-4.9,1.3-5.5,3.7l-0.5,2.2c-0.7,2.9-3,5.2-6,6c-0.6,0.2-1.2,0.3-1.8,0.5c-3.2,1-6.7,0.1-9-2l-1.6-1.4c-2-1.6-5.2-1.6-6.9,0
	l-9.8,7.4c-2,1.3-2.6,4.2-0.9,6.3l1.1,1.5c1.8,2.5,1.8,5.7,0.3,8.3c-0.2,0.4-0.4,0.8-0.7,1.2c-1.5,2.7-4.4,4.6-7.7,4.7l-1.9,0.1
	c-2.9,0-4.9,1.8-5.2,4.2l-1.1,11.3c0,2.6,1.7,4.7,4,5.3l1.7,0.3c3.4,0.6,6,2.9,6.9,6c0.1,0.3,0.2,0.5,0.3,0.8c1,2.9,0.4,6.1-1.9,8.3
	l-1.2,1.2c-1.7,1.8-1.7,4.5,0,6.3l7.8,8.7c1.7,2.1,4.6,2.4,7.2,1.1l0.8-0.5c2.9-1.8,6.6-1.9,9.7-0.3c0.5,0.3,1,0.5,1.5,0.7
	c2.9,1.4,4.8,4,4.9,7l0.1,1.5c0,2.4,2,4.5,4.6,4.5l12.3,1.1c2.9,0.3,5.2-1.3,5.7-3.7l0.3-1.3c0.7-2.9,3-5.2,6.2-6.1
	c0.7-0.2,1.3-0.4,1.9-0.6c3.2-1,6.8-0.4,9.3,1.7l1.3,1.1c2,1.6,4.9,1.6,6.9,0l9.8-7.4c2-1.3,2.3-4.2,0.9-6.3l-1.1-1.5
	c-1.9-2.5-2-5.8-0.4-8.5c0.2-0.3,0.4-0.7,0.6-1c1.5-2.7,4.4-4.6,7.7-4.7l2.2-0.1c2.6,0,4.9-1.8,5.2-4.2l1.1-11.3
	c0-2.6-1.7-4.7-4.3-5.3l-2.5-0.5C317.4,139.5,314.9,137.3,314,134.4z M90.7,33.9c-0.9-1.7-2.6-3-4.3-3H50.3c-1.7,0-3.4,1.3-4.7,3
	L28,64.8c-1.3,1.7-1.3,3.9,0,5.2l17.6,31.4c1.3,1.7,3,2.6,4.7,2.6h36.1c1.7,0,3.5-0.9,4.3-2.6l18-31.4c1.3-1.3,1.3-3.4,0-5.2
	L90.7,33.9z M2080.3,189.5c-0.8-0.6-2-0.8-2.8-0.7c-1.5,0.2-2.5,0.8-3.2,1.6l-3.1,4.3c-23.9-17.6-34.6-25.4-75.7-55.5l0,0l-9.8-11.8
	l-0.4-0.3l-14-7c-0.9-0.6-1.9-0.1-2.2,0.3l-8.8,12c-0.6,0.9-0.5,1.6,0.3,2.2l10.5,11.7l0.4,0.3l14.5,5.4l0,0
	c39.8,29.2,53,38.9,75.7,55.5l-2.8,3.8c-0.9,1.3-1.2,2.5-0.6,3.5c-0.2,1.2,0.7,1.8,1.5,2.4l46.2,33.9c0.9,0.6,1.7,1.3,2.8,0.7
	c1.2,0.2,1.8-0.7,2.7-1.9l15.4-20.9c0.6-0.9,1.3-1.7,1-3.2c-0.1-0.7-0.7-1.8-1.5-2.4L2080.3,189.5z M2060.3,103.8L2060.3,103.8
	l-9-6.6c-9.7,6.1-23.1,5.4-32.5-1.4c-9-6.6-13.2-16.9-11.9-27.8l0.3-3.1l23.1,16.9l14.1-19.3l-23.1-16.9l2.8-1.2
	c9.6-4.1,20.8-3.2,29.7,3.4c9.4,6.9,14.3,19,11.1,30.5l9,6.6l50.9,37.3l9,6.6c10.4-6.2,23.1-5.5,32.9,1.8
	c8.6,6.3,13.2,16.9,12.2,27.3l-0.7,2.7l-23.1-16.9L2141,163l23.1,16.9l-2.4,1.5c-9.9,4.6-21.5,3.3-30-3c-9.8-7.2-14-19.5-11.6-30.9
	l-9-6.6l0,0l0,0L2060.3,103.8L2060.3,103.8z M2104.3,241.9l-35.5-26l2.5-3.4l35.5,26L2104.3,241.9z M2114.4,228.2l-35.5-26l2.8-3.8
	l35.5,26L2114.4,228.2z M2200.3,762.3c-0.9,0-2.1,0-3.4,0h-2.6c-0.4,0-1.3,0-1.3-0.4v-57.4c-7.2,8.1-15.7,14.5-25.9,19.1
	c3.4-0.4,1.7,3,1.7,4.2c1.3,9.4,0,25.5-0.4,34.4h-58.7c10.2-12.8,18.7-27.2,29.8-39.5c31.9,5.9,57-19.6,53.6-46.8
	c-0.4-2.5-0.9-5.5-3.4-7.7c-12.3,4.3-14.5,18.7-24.7,24.7c-6.8-2.1-15.3-3-22.5-4.7c-2.5-8.1-6.4-14.9-9.8-22.1
	c3.8-3.8,7.7-8.1,11-12.8c3.4-4.3,8.9-8.9,7.7-14.9c-33.2-5.5-54.8,30.2-41.2,61.2c-12.3,15.7-25.9,30.2-37.8,46.3
	c3.4,5.5,11.9,9.8,12.3,16.2c-3.8-0.4-5.5-4.3-7.7-6.4c-13.6-14.9-29.3-29.3-42.9-43.4c-2.1-1.7-4.2-6.8-7.6-4.7
	c-2.1,5.5,3.8,4.2,5.5,5.5c6.4,5.1,3.8,9.4,2.1,16.2c-1.7,6.8-2.1,14.9-4.7,20.8c1.7,5.1,8.9,8.1,10.2,11.9h-18.7
	c3-11.9,9.8-23.4,8.9-36.6c8.1-6.8-3-12.3-8.9-13.6c7.7-23.8,14.9-47.2,21.3-71.9c7.2-5.5,8.1-16.6,8.9-28.5
	c-3.4-0.8-6.4-2.1-10.2-2.6c-1.3,5.5-5.5,10.2-6.8,15.7c-1.3,4.7-0.4,10.2-1.7,15.3c-4.2,23.8-15.7,46.8-20.8,69.7
	c-6.4-4.2-17.4-3-14.9,6.4c-8.9,11.9-9.8,31.9-16.6,45.9c-1.7,0-3.4,0-5.1,0h-2.5c-0.9,0-2.1,0-2.6-0.4c0.4-12.3-0.9-26.8,0.4-38.3
	h14.5c1.7-5.1,2.5-10.6,5.5-14c-8.5-8.5-16.2-17.9-25.1-25.5c-2.5,9.4-16.6,12.8-19.1,22.5c-2.1,7.6,0,19.1,0,28.1v27.6h-6.8h-1.3
	v127.5h263.2v-127H2200.3z"/>
<path id="lenker_griffe" class="st5" d="M1377.7,63.9c-2.7,0.1-5.6,1-8.3,2.1h-13c-3.5-2.1-7.8-3.5-12.6-3.5
	c-5.3,0-10.1,1.7-13.9,4.4l-0.1-0.9l-5.4,1.7l2.4,21c2.7,4.1,5.8,5.8,5.8,5.8c2.7,1.4,5.8,2.5,9.1,2.7c1.8,2.1,7.3,0.2,6.2-0.5
	c9.7-1.6,17-8.7,17-17.1h53.3V68.1C1418.6,68.1,1384.3,63.6,1377.7,63.9z"/>
<path id="Räder" class="st6" d="M848.6,565.7c-0.3-5.4-0.8-10.7-1.3-16l-7.3-41.4c-14.4-58.3-45.2-110.1-87.1-150.4L736,342.8
	c-3.3-2.8-6.8-5.4-10.2-8.1l-4.8-3.8c-51.7-37.9-115.5-60.3-184.6-60.3c-172.2,0.3-312,140.1-312,312.4s139.8,312.3,312.3,312.3
	c130.5,0,242.2-80,288.8-193.6l2.7-5.9c9-23.5,15.4-48.2,18.5-73.9l2-21c0.3-5.8,0.5-11.7,0.5-17.6
	C849.2,579.6,848.6,565.7,848.6,565.7z M806.2,598.3l-2.2,21.4c-3.7,29.4-12.4,57-24.8,82.5l-3.2,5.7
	c-44.9,86.4-135.1,145.2-239.2,145.2c-148.9,0-269.7-120.7-269.7-269.8c0-148.9,120.7-269.8,269.8-269.8c64,0,122.7,22.3,168.9,59.5
	l16.9,14.9c47.7,45.3,78.8,108,83.3,177.9c0,0,0.7,14.2,0.7,17.9C806.6,588.4,806.5,593.4,806.2,598.3z M1802.2,566.1
	c-0.3-5.4-0.8-10.7-1.3-16l-7.3-41.4c-14.4-58.3-45.2-110.1-87.1-150.4l-16.9-15.1c-3.3-2.8-6.8-5.4-10.2-8.1l-4.8-3.8
	c-51.7-37.9-115.5-60.3-184.6-60.3c-172.2,0.3-312,140.1-312,312.4s139.8,312.3,312.3,312.3c130.5,0,242.2-80,288.8-193.6l2.7-5.9
	c9-23.5,15.4-48.2,18.5-73.9l2-21c0.3-5.8,0.5-11.7,0.5-17.6C1802.8,580,1802.2,566.1,1802.2,566.1z M1759.8,598.7l-2.2,21.4
	c-3.7,29.4-12.4,57-24.8,82.5l-3.2,5.7c-44.9,86.4-135.1,145.2-239.2,145.2c-148.9,0-269.7-120.7-269.7-269.8
	c0-148.9,120.7-269.8,269.8-269.8c64,0,122.7,22.3,168.9,59.5l16.9,14.9c47.7,45.3,78.8,108,83.3,177.9c0,0,0.7,14.2,0.7,17.9
	C1760.2,588.8,1760.1,593.8,1759.8,598.7z"/>
<path class="st7" d="M407.8,225c0.1,0,0.3,0,0.4,0.1c15.8,10.8,36.5,27.3,56.8,50.9c8.3,9.7,30.7,36.8,48.5,78
	c40.8,94.2,18.7,171.1,20.1,203.2c0,0.7,0.1,3.1-0.6,3.3c-1.4,0.4-5.9-8-6-10.5c-1.1-19.6,1.6-48.3,1.7-55
	c0.3-20.4,0.5-36.9-4.2-68.5c-4.7-31.9-13.7-53.1-32.5-91.8c-7.2-14.8-12.8-22.3-18-30.2c-10.9-16.6-26.4-38.6-56.5-60.5
	c-9.7-7-17.6-12.7-16.4-17.3C401.7,224.4,404.7,225.6,407.8,225z M687.9,214.2c0,2-0.5,3.4-1.5,5.1c-0.7,1.1-1.6,1.6-3.4,3.3
	c-1.3,1.3-2.6,2.2-4.2,3.7c-2.2,2.1-4.4,4.5-6.5,4.5c-92.1,0-184.2,0-276.3,0c-4.9,0-9.8,0-14.7,0c-3.8,0-6.4-4.5-9.7-6.4l0,0
	c-2.1-1.3-2.4-4.2-0.8-6c0.3-0.4,0.6-0.7,0.9-1c0.5-0.4,1.2-1.1,2.1-1.2s0.8,0,1.6,0c0.6,0.1,2.1,0.7,2.2,0.7l1.9,0.6
	c1.4,0.2,3.7,0.6,5.2,0.8H671c1,0,2.1-0.2,3-0.6l3.1-1.3c1.2-0.5,2.2-1.4,3.1-2.4c0.7-0.9,1.6-1.4,2.7-1.7
	C685.2,211.7,687.8,212.5,687.9,214.2z M632.3,227.9l-2.7,10.6l-80.2,321.3c-1.7,6.8-11.4,4.4-9.7-2.4l82.9-331.9
	C624.3,218.8,634,221.2,632.3,227.9z"/>
<path id="antrieb" class="st8" d="M911.5,565.6c-35.8-0.8-71.5-1.3-107.3-1.7c-70.5-0.7-140.9-0.7-211.4,0c-0.7-0.1-1.8-0.2-3.2-0.3
	c-0.2-0.6-0.4-1.1-0.6-1.7c0.1,0.6,0.3,1.1,0.5,1.7c-0.4,0-0.8-0.1-1.3-0.1c0.6,1.7,1.2,3.4,1.6,5.2c0.3,0.4,0.7,0.8,1,1.2
	c0.1,0,0.1,0,0.2,0c0,0.1,0,0.1,0,0.2c0.1,0.2,0.2,0.3,0.3,0.4c0-0.2-0.1-0.4-0.1-0.6c35.9,0,71.8,0.2,107.7,0.5
	c68.2,0.5,136.4,1.4,204.6,2.6C906.2,570.5,908.8,568,911.5,565.6z M1046.5,625c0,45.4-35.9,82.2-80.2,82.2
	c-19.2,0-36.8-6.9-50.6-18.4l-89.9,10.9c-0.2,0.5-342.1,41.7-342.1,41.7c-12.1,1.6-25.2-8.9-30.1-19.5c-4.9-10.5,0.8-21.9,0.8-21.9
	l-8.9-10.6l8.9-10.6h44.1c-15.6-20.3-31.9-44.4-31.9-44.4l14.6-11.5c0,0,4.8,0.8,8.1,0c1.6-0.4,2.4-3.5,2.9-8.5
	c0.8,1.2,1.6,2.2,2.4,3.3c0.5,0.8,1.2,1.5,1.9,2.2c1.4,1.6,2.9,3.1,4.5,4.5c0.5,0.4,0.9,0.9,1.3,1.3c0.4,0.4,0.8,0.8,1.2,1.2
	c-0.6,0.6-0.9,1.5-0.5,2.4l-3.5,5.4l14.6,20.9c0,0,6.5-3.3,13-10.6c2-2.2,4.5-3.2,7.3-3.3l-1.1-3.6c1.2,0,2.4,0.1,3.6,0.1
	c1.7,0,3.3-0.1,4.9-0.2l2.2,5.9c3.8,1.7,7.8,4.4,11.4,7.3c9.8,7.9,4.9,22.1,0,31c-4.8,8.9-10.5,14.6-14.6,20.3s-5.7,6.5-16.3,4.1
	c-3.7-0.8-12-10.2-21.3-21.9c-4.6,3.1-8.3,6.5-3.8,8.1c8.9,3.3,9.7,18.7,7.3,29.3c-1.3,5.9-4.5,10.8-9,14.2L910,683.4
	c-14.8-14.9-23.9-35.6-23.9-58.5c0-45.4,35.9-82.2,80.2-82.2S1046.5,579.6,1046.5,625z M592.8,584.4c0,30.2-24.5,54.7-54.7,54.7
	s-54.7-24.5-54.7-54.7s24.5-54.7,54.7-54.7S592.7,554.1,592.8,584.4z"/>
<path id="pedale" class="st0" d="M1050,700.7c0,8.5,0,17,0,25.5c30,0,60.1,0,90.1,0c-0.1-8.2-0.2-16.4-0.3-24.6
	C1109.9,701.3,1080,701,1050,700.7z"/>
<path id="sättelstütze" class="st9" d="M864.3,188.2c-2.3-8.7-4.6-17.3-6.9-26l3.7-1.5l-4.4-16.3l-3.7,1.2l-22.4-84.4l2.2-1.8
	c-5.8,0-11.6,0.2-17.4,0.6c-11.2,2.1-26,10.6-26,10.6s1.6,2.6,8.1,9.1c5.2,5.2,11,5.2,16.4,2.5l17.8,70.2l-4.9,1.6
	c-0.1,0-0.1,0-0.3,0c-5.6,0-10.1,4.5-10.1,10.2s4.5,10.2,10.1,10.2c3.2,0,6.1-1.6,8-4l1.7-0.7c1.9,7.3,3.7,14.5,5.6,21.8
	C849.3,190.4,856.8,189.3,864.3,188.2z"/>
<path id="sättel" class="st10" d="M701.3,42.2c0,0-3.3,3.3-4.9,9.1c-1.6,6,8.6,6,20,13.8s24.4,2.9,24.4,2.9s6,8.6,15.6,9.4
	c9.8,0.8,33-6.8,33-6.8l41.2-9.4l30.5-25c0,0,1.1,2.1,13.5,0.5c12.5-1.6,27.6-3.3,39.5-5.4s13-3.8,15.1-7.6c2.1-3.7,1.1-7-13.5-17.9
	s-51.4-3.3-69.8-2.1c-18.4,1.1-40,11.4-70.9,9.1c-30.9-2.1-61.7-4.9-70.9-2.6c-9.1,2.1-14,6.5-16.3,12.5s-1.6,10.9,0,12.5
	C689.4,36.8,701.3,42.2,701.3,42.2z"/>
<path class="st11" d="M343.8,230c3.2,1.8,7,0.9,14.5-1.1c11.1-2.9,23.1-5.9,24.7-14.2c1.1-5.7-3-12.4-7.8-15.1
	c-0.7-0.4-2.7-0.8-6.9-1.7c-8.3-1.8-12.8-2.6-17.7-3.4c-4.1-0.6-6-0.9-6.8-0.6C335.4,197.2,333.4,224.2,343.8,230z M1334,61.5
	l-57.3,5c-4.1,0.4-7.8-2.7-8.1-6.8l-0.5-5.5c-0.2-2.8,1.7-5.2,3.1-7.3c1.9-3,4-5.4,7.8-5.7l62.8-5.5c4.1-0.4,7.8,2.7,8.1,6.8l0,0
	C1350.7,52.1,1343.6,60.7,1334,61.5z M1297.8,65.7L1271,85.2c-0.1,0.1-0.1,0.1-0.2,0.1c-0.8,0.6-9.2,3.4-10.1,3.2
	c-0.3-0.1-0.4-0.4-0.5-0.7c0,0-0.7-4.4-0.3-5.2c0.8-1.2,2.3-2.5,3.5-3.4c0.4-0.3,0.7-0.6,1.1-1l22.2-24.5c1.5-1.6,3.5-2.7,5.7-2.8
	c2.6-0.1,5.2,1,6.9,3.2l0,0C1302,57.7,1301.4,62.9,1297.8,65.7z"/>
<path class="st12" d="M1331.7,94.8l-30.5,8.1l6.9,17l-31.6,5.4l-6.6-16l-9.2-20.8l69.1-22.5l-0.9,4.3c-0.8,3.6-1.1,7.3-0.9,10.9
	l0,0.7c0.2,4.1,1.2,8.1,3.2,11.8L1331.7,94.8z M1356,235.7l-36.3,11.8l9.2,20.8l4.1,9.9l34.3-17.7L1356,235.7z"/>
</svg>
