<?xml version="1.0" encoding="utf-8"?>
<!-- Generator: Adobe Illustrator 21.0.2, SVG Export Plug-In . SVG Version: 6.00 Build 0)  -->
<svg version="1.1" id="Слой_1" xmlns="http://www.w3.org/2000/svg" xmlns:xlink="http://www.w3.org/1999/xlink" x="0px" y="0px"
	 viewBox="0 0 38.2 43.4" style="enable-background:new 0 0 38.2 43.4;" xml:space="preserve">
<style type="text/css">
	.st0{fill:#FFFFFF;}
</style>
<path class="st0" d="M2.2,0C0.7,14.3-0.1,28.7,0,43.1c3,0.4,6,0.5,8.9,0.1c1.2-14.5,3.6-28.8,7.2-43C11.5,0.2,6.8,0.1,2.2,0z"/>
<path class="st0" d="M22.1,0.4c3.5,14.1,5.9,28.4,7.2,42.8c3,0.3,6,0.3,8.9-0.1c0.1-14.1-0.6-28.2-2.1-42.3
	C31.5,0.6,26.8,0.5,22.1,0.4z"/>
<rect x="0.4" y="42.8" transform="matrix(3.579853e-02 -0.9994 0.9994 3.579853e-02 -42.2087 42.0687)" class="st0" width="0.5" height="0.3"/>
<polygon class="st0" points="37.4,43.2 37.4,42.7 37.7,42.7 37.7,43.1 "/>
<path class="st0" d="M0.5,42.5c-0.2,0-0.3,0-0.5-0.1l0-0.3c0.2,0,0.3,0,0.5,0.1L0.5,42.5z"/>
<path class="st0" d="M5,42.8c-0.3,0-0.7,0-1,0l0-0.3c0.3,0,0.7,0,1,0L5,42.8z M5.5,42.8l0-0.3c0.3,0,0.7,0,1,0l0,0.3
	C6.2,42.8,5.8,42.8,5.5,42.8z M3.5,42.8c-0.3,0-0.7,0-1-0.1l0-0.3c0.3,0,0.7,0,1,0.1L3.5,42.8z M7,42.7l0-0.3c0.3,0,0.7,0,1-0.1
	l0,0.3C7.7,42.7,7.3,42.7,7,42.7z M2,42.7c-0.3,0-0.7-0.1-1-0.1l0-0.3c0.3,0,0.7,0.1,1,0.1L2,42.7z"/>
<path class="st0" d="M8.5,42.6l0-0.3c0.2,0,0.3,0,0.5-0.1l0,0.3C8.8,42.6,8.7,42.6,8.5,42.6z"/>
<path class="st0" d="M29.7,42.6c-0.2,0-0.3,0-0.5-0.1l0-0.3c0.2,0,0.3,0,0.5,0.1L29.7,42.6z"/>
<path class="st0" d="M33.2,42.8l0-0.3c0.3,0,0.7,0,1,0l0,0.3C33.9,42.8,33.6,42.8,33.2,42.8z M32.7,42.8c-0.3,0-0.7,0-1,0l0-0.3
	c0.3,0,0.7,0,1,0L32.7,42.8z M34.7,42.8l0-0.3c0.3,0,0.7,0,1-0.1l0,0.3C35.4,42.7,35.1,42.7,34.7,42.8z M31.2,42.7
	c-0.3,0-0.7,0-1-0.1l0-0.3c0.3,0,0.7,0.1,1,0.1L31.2,42.7z M36.2,42.7l0-0.3c0.3,0,0.7-0.1,1-0.1l0,0.3
	C36.9,42.6,36.6,42.6,36.2,42.7z"/>
<path class="st0" d="M37.7,42.5l0-0.3c0.2,0,0.3,0,0.5-0.1l0,0.3C38.1,42.4,37.9,42.5,37.7,42.5z"/>
</svg>
