<?xml version="1.0" encoding="utf-8"?>
<!-- Generator: Adobe Illustrator 21.0.2, SVG Export Plug-In . SVG Version: 6.00 Build 0)  -->
<svg version="1.1" id="bmx" xmlns="http://www.w3.org/2000/svg" xmlns:xlink="http://www.w3.org/1999/xlink" x="0px" y="0px"
	 viewBox="0 0 988.5 658.9" style="enable-background:new 0 0 988.5 658.9;" xml:space="preserve">
<g>
	<path style="fill:#fff" d="M676.8,168.7c-4.5,0-6.5-2.3-7.5-5.9c-0.4-1.6-0.9-3.2-1.4-4.8c-2.4-8.3-2.4-8.8,4.6-13.7c4.7-3.3,5.5-7.8,4.9-12.8
		c-1.2-9.6-2.6-19.1-1.5-28.8c1.1-9.4,3.2-18.6,8.9-26.2c3.5-4.6,5-10.1,7.3-15c2.3-5-1-11.2-2.7-16.8c0-0.1-0.2-0.4-0.3-0.4
		c-7.3,0.7-12.6-5.5-19.5-5.8c-6.8-0.4-11.5-4.2-12.1-10.8c-0.5-6.2,3.3-10.6,10.2-11.8c1.1-0.2,2.7-0.2,3.3-0.9
		c5.2-6.1,13.5-6.9,19.7-11.4c6.1-4.4,13.1-4.8,19.9-1.1c6.5,3.6,10.1,9,9.9,16.7c0,1.8-0.2,3.8,0.4,5.4c1,2.6,2.4,5.6,6.1,2.4
		c1.2-1,2.8-1.5,4.1-0.3c1.4,1.2,1,3.1,0.1,4.1c-3.6,4.1-1.9,7.4,1.1,10.9c1.8,2.1,2.9,4.5,3,7.7c0.1,3.5,2.6,6.4,4.8,9.1
		c2.8,3.4,2.4,5.6-1.3,8c-3.9,2.6-5.4,0.8-7.4-2.3c-3.1-5-6.7-9.8-10.2-15c-2.4,2.2-1.9,4.8-1.5,7.1c2.7,20.1,5.4,40.3,8.2,60.4
		c0.5,3.8,1.5,7.4,3.6,10.8c3.6,5.9,3.4,12.8,3.9,19.4c0.3,3.1-2.8,5.6-6.4,6.5c-8,2.1-15.9,4.6-24,6.9c1.6,1.2,3.9-0.8,4.6,1.5
		c0.5,1.8-1.3,2.5-2.5,3.3c-3,1.9-1.5,4.4-0.9,6.7c0.9,3.9,4.3,4.2,7.3,5c1.6,0.4,3.8-1.2,4.5,1.6c0.7,2.6-0.9,4-3,5.1
		c-2.9,1.5-2.8,4-2,6.5c6.1,19.4,9.9,39.6,18.2,58.1c2.9,6.6,0.5,12.8,3.1,18.8c1.1,2.6,1.6,5.4,2.4,8.1c0.8,2.9,2.5,3.2,4.9,1.9
		c-5.1-3.9-5.1-5.5,0-9.2c2.5-1.8,3.7-3.4,1.5-6.4c-1.2-1.6-1.4-4-1.9-6.1c-0.2-0.8-0.2-1.8,0.9-2c1-0.2,1.6,0.6,1.7,1.4
		c1.3,5.9,4.5,11.1,6.3,16.8c0.6,2,0.9,2.9,3.2,2.2c3.6-1.1,7.4,0.9,11.3-0.8c1.7-0.8,4.7-0.1,5.3,2.5c0.7,3.2-1.6,5.3-4.2,5.9
		c-4.3,1-5,3.9-5,7.4c0.1,6.7,1.1,7.2,7.6,5.8c24.9-5.4,49.7-5.6,74.6,0c20.5,4.5,40.1,11.3,57.8,22.5c13.3,8.4,25.5,18.3,36.5,29.7
		c11.5,11.9,20.9,25.1,28.9,39.4c6.8,12.2,12.3,25,15.9,38.4c4,14.9,6.1,30.2,6.6,45.8c0.4,11.2-0.9,22.3-2.1,33.4
		c-0.7,6.2-2.2,12.6-4.3,18.8c-1.9,5.6-3.5,11.3-5.6,16.9c-2.9,7.6-6.3,14.9-10,22.2c-3,5.8-7,11.1-9.6,17.1
		c-2.3,5.2-6.8,9.3-10.5,13.3c-4.4,4.9-8.8,9.9-13.8,14.5c-14.2,13.1-29.7,24.2-47,32.8c-71.4,35.5-167.3,12.7-218.3-46.9
		c-10.5-12.3-19.3-25.9-26.2-40.4c-6.5-13.4-11-27.7-13.8-42.6c-3.4-18.1-4.4-36.3-2.6-54.5c2.2-22.5,8.9-43.6,18.9-64
		c10.5-21.2,24.5-39.4,42-55c7.8-6.9,16.1-13.3,25.3-18.2c2.6-1.4,4.5-3.9,7.4-5c1.9-0.7,1.7-2.7,1.3-4.4c-0.5-1.9-1.3-3.8-1.6-5.8
		c-0.7-4.3-2.9-6.1-7.3-5.3c-2.4,0.4-4.3-0.4-5.2-2.8c-0.9-2.5,0.3-4.4,2.4-5.4c4.1-2,4.3-4.9,2.7-8.7c-2.1-5.3-2-11.4-7.5-15.2
		c-2.5-1.7,0.3-5.5-1.6-8.3c-1.7,0.4-2.3,2.1-3.3,3.3c-5.5,7.1-12.8,11.8-21.4,13.9c-5.6,1.4-10,4.2-14.4,7.6
		c-32.5,25.3-65,50.5-97.5,75.8c-25.9,20.2-51.7,40.4-77.7,60.5c-3.6,2.8-4.2,4.9-2.2,9.6c1.7,4,3.5,8.8,2.7,13.8
		c-0.6,3.7,0.2,7.4-0.1,11.1c-0.8,11.9-5.7,21.9-12.6,30.8c-4.6,5.9-10.4,11.4-17.8,14.4c-2.1,0.8-2.2,2.2-1.7,4
		c4.8,16,10.5,31.6,16.9,47c1.6,4,6.4,2.5,9.6,3.2c4.8,1,9.9,0.6,14.9-0.1c6.1-0.9,7.3,0.6,5.9,6.4c-1.5,6.3-5,11.6-8.1,17
		c-1.5,2.6-4,3.3-6.8,3.4c-12,0.3-24,1.6-35.9,0.7c-7.7-0.5-15.2-0.5-22.9-0.6c-4.1-0.1-5-2.1-3.8-5.5c2.3-6.9,6.1-12.9,10-19
		c1.2-1.9,3.1-2.2,5.2-2.3c3.5-0.1,7-0.3,10.5-0.6c3.2-0.2,4.8-1.5,3.7-5.2c-4-13.3-8.6-26.3-13.2-39.3c-0.9-2.5-2.4-3.7-4.9-2.9
		c-8.1,2.3-16.3,0.3-24.4,0.9c-5,0.4-10.2,0.2-15.1-0.2c-4.5-0.3-9.1,0.3-13.6-0.2c-4-0.5-8.4-0.2-12.6,0c-0.8,0-1.8,0.7-2.4,0.4
		c-7-3.1-7.3,1.6-8.3,6.5c-4.6,22.3-13,43.1-24.9,62.7c-15.1,25-36.5,43.1-60.3,59c-71,47.6-185.8,27.9-235.8-42.8
		c-4.2-5.9-8.6-11.7-12.3-17.9c-3.5-5.7-6.7-11.8-9.8-17.6c-3-5.6-4.1-11.8-7.3-17.4c-2.9-5-3.8-11.5-5.1-17.4
		c-1.7-7.7-3.1-15.6-3.9-23.4c-0.7-6.3-1.6-12.7-1.1-19.2c0.4-5.4,0.3-10.8,0.8-16.3c1.2-13.4,4.3-26.4,7.6-39.4
		c4.1-16,11.7-30.4,20.1-44.3c8.2-13.4,18.7-25.2,30.3-36c11.4-10.7,24.3-18.9,37.6-26.5c15.8-9,33-14.6,50.9-18.2
		c14.2-2.8,28.5-3.9,43-3.2c16,0.7,31.4,4,46.8,8.5c14.6,4.3,28.2,10.7,41,18.7c10,6.3,19.6,13.3,28.1,21.9c5.2,5.3,10,11,15.4,16.2
		c1.8,1.7,3.1,1.8,5.1,0.4c16-10.8,32-21.6,48.1-32.4c2.2-1.5,3.3-3.1,2-5.8c-0.9-1.9-1.6-4-2-6.2c-0.9-4.5-2.4-6.7-7.7-4.7
		c-4.4,1.6-4.1-3.2-5.4-5.6c-1.3-2.4-0.2-4,2.2-5.1c6.3-2.9,6.1-2.9,3.8-9.7c-4.4-12.8-9.6-25.2-13-38.3c-0.5-2.2-1.5-2.7-3.6-1.9
		c-7.3,2.8-13,0.7-17.2-5.8c-1.4-2.2-3.6-2.6-6.1-2.6c-7.8-0.2-15.5,0.6-23.3-0.3c-10.1-1.3-19.5-4.5-28.1-9.7
		c-8-4.8-11.2-12.8-9.3-21.9c1-4.9,4.4-6.7,9-7c8.5-0.5,16.9-1.5,25.4-1.6c18.6-0.2,36.6-5,54.8-7.7c17.9-2.7,34.7-9.2,52.5-12.4
		c6.5-1.2,12.8-2,19.3-0.3c4.5,1.2,8.3,3.4,11.2,7c4.6,5.7,2.5,12.4-4.7,12.9c-11.4,0.7-22.5,4.8-34.1,3.7c-2.3-0.2-4.2,0.9-5.8,2.5
		c-2.8,2.9-5.6,5.8-8.2,8.7c-4.6,5.2-9.3,10.1-16.2,12.1c-2.8,0.8-3.4,2.4-2.5,5.3c5.4,18.5,12.8,36.3,18.9,54.7
		c0.4,1.4,0.8,2.7,2.6,3.3c3.5,1.1,6.3,6,5.1,9.6c-0.8,2.4-0.8,4.3,0.9,5.9c1.9,1.8,3.8,0.2,5.5-0.5c31.9-12.3,63.7-24.7,95.6-36.9
		c47.2-18,94.4-35.7,141.6-53.7c14.2-5.4,28.2-11,42.3-16.6c1.6-0.6,3.4-1.2,3-3.3c-0.4-2.6-2.5-2.1-4.3-1.8
		c-1.9,0.3-3.2-0.5-3.8-2.4c-0.6-1.8,0.6-2.6,1.8-3.6c2.3-1.9,4.5-3.9,3.9-7.4c-0.6-3.6-2.3-5.8-6.2-5.8c-1,0-2.2-0.3-2.2-1.5
		C672.9,170.1,675.5,170.6,676.8,168.7z M623.8,275.8c-2.2-0.2-2.9-0.3-3.5-0.3c-6.9,0-13.5,0.7-20.3,2.7c-8.2,2.4-17.1,2.1-25.7,3
		c-2,0.2-4,0.3-5.9-0.7c-2.2-1.1-4.5-0.6-6.8-0.5c-12.3,0.4-22.9,6.9-34.5,9.8c-22,5.4-42.8,14.7-62.7,25.8c-4.4,2.4-7.5,6.3-12,8.6
		c-4.2,2.1-7.1,6.9-12.9,5.9c-0.5-0.1-1.4,0.9-1.9,1.5c-1.7,2.3,0.1,4.4,0.6,6.6c0.5,2.2,2.1,4.6-0.3,6.5c-2.5,2-4.3-0.3-6.2-1.5
		c-1.5-0.9-2.6-2.6-4.8-1.2c-4.1,2.5-8.7,4.1-12.4,7.3c-2.2,1.8-2.7,3.4-1.8,6c3.6,9.7,7,19.4,10.5,29.2c0.6,1.7,1.3,2.7,3.5,2.8
		c6,0.4,12.2,0.6,17.9,2.2c4.5,1.3,9.4,2.2,13.5,5.5c3,2.5,6.6,4.9,11,1.4c17.2-13.7,34.6-27.1,52-40.6c23-17.9,45.9-35.9,68.9-53.8
		C600.9,293.3,611.9,285,623.8,275.8z M164.8,451.2c-1.2-6.9-2.7-13.6-3.5-20.3c-0.5-3.9-2-6.8-4.5-9.7
		c-15.2-17-30.2-34.1-45.3-51.2c-7.8-8.9-8.1-8.9-16.8-1.4c-7.9,6.8-8,6.8-1.9,15.2c13.9,18.9,27.8,37.8,41.7,56.7
		c1.2,1.6,2.3,3.5,4.2,4.2c7.5,3.1,15.1,6,22.7,9C163.7,454.5,165,453.6,164.8,451.2z M803.2,529.2c-1.8-8.7-3.6-17.2-5.3-25.7
		c-0.6-2.8-1.9-2.1-3.4-0.7c-4.8,4.4-9.5,8.8-14.4,13.1c-2.3,2-3.5,4.3-4.3,7.1c-6.4,22.7-12.9,45.4-19.3,68.2
		c-3.4,12.1-3.3,12.3,8.7,15.8c9.1,2.6,9.2,2.7,12.5-6.1c8.2-22.3,16.3-44.7,24.4-67.1C802.6,532.2,802.9,530.6,803.2,529.2z
		 M197.1,408.8c-0.7-22.8-1.3-43.1-2.1-63.4c-0.3-7.5-0.7-7.8-8.2-7.9c-2.8-0.1-5.7,0.1-8.5,0c-3.1-0.1-4.8,0.8-5.3,4.3
		c-0.8,6.1-1.3,12.2-1.6,18.4c-0.8,18.3-0.7,36.7-2.6,54.9c-1.3,12.2,6.3,19.8,10.9,29.1c1.1,2.1,2.9,2,4.1-0.3
		C190.3,432,201.1,421.7,197.1,408.8z M781.8,490.7c-2.2-0.4-3.8-1-5.4-1c-11.4-0.4-22.2-1-32.6,6.9c-16.5,12.7-34.5,23.3-51.4,35.4
		c-10.8,7.8-10.4,4.9-3.5,16.2c5.4,8.8,5.6,8.8,14.5,3.8c20.7-11.8,41.3-23.8,61.9-35.7c2-1.2,4.1-2.3,5.2-4.5
		C774.3,505,777.9,498.1,781.8,490.7z M52.1,439.9c-1.9-0.5-3.1,0.6-3.6,2.7c-0.7,3.1-1.5,6.1-2,9.3c-1.3,8.5-1.2,8.7,7.1,10.7
		c22.8,5.5,45.6,10.9,68.4,16.3c2.8,0.7,5.5,0.9,8.3-0.2c6.4-2.5,12.7-4.9,19.2-6.9c4.6-1.4,3.7-3.4,1.1-5.7
		c-3.8-3.5-7.9-6.7-11.7-10.1c-2.8-2.5-5.8-4.1-9.6-4.6c-12.5-1.7-25-3.8-37.5-5.7C78.8,443.6,65.8,441.1,52.1,439.9z M817.5,502.7
		c-1.2,0.3-1.4,1.3-1.5,2.3c-0.5,3-1,5.9-1.3,8.9c-0.6,6.4-2.2,12.5,0.9,19.1c9.7,21,18.8,42.3,28.2,63.5
		c4.8,10.9,4.9,11.1,15.4,6.3c9.5-4.3,9.8-1.5,5.8-13.2c-5.9-17.2-13-33.9-18.5-51.2c-4.2-13.2-10.2-24.4-22.8-31.1
		c-1.6-0.8-2.9-2.2-4.4-3.3C818.7,503.4,818.1,503.1,817.5,502.7z M678.4,444.5c-7.8,0-7.9,0-9,7c-0.2,1.3-0.4,2.6-0.6,3.9
		c-1.4,8.8-0.4,10.2,8.6,11.7c22.1,3.7,44.3,7.1,66.3,11.5c8,1.6,14.6-0.4,21.5-3.5c1.6-0.7,2.8-1.5,2.4-3.7
		c-2.1-11.2-8.7-19.3-20.7-19.9c-8.5-0.4-16.9-1.7-25.3-2.6C706.9,447.4,692.2,445.9,678.4,444.5z M142,489.4
		c-4.2,0.5-9.2-1.1-13.9,1.7c-21.1,12.7-42.2,25.3-63.3,38.1c-7.8,4.8-7.9,5.2-3.3,13.1c6.4,10.9,3.7,11.8,17,5.1
		c16.2-8.2,31.9-17.4,48.2-25.2c10.2-4.9,17.5-11.7,22.3-22C154.1,489.2,154.6,489.5,142,489.4z M852.2,488.6
		c-5-0.5-9.6,0.7-14.3,0.9c-1.4,0.1-3.9,0.2-2.4,2.3c4.6,6.9,7,15.6,15.4,19.7c20.1,10.1,40.1,20.3,60.1,30.6
		c15.3,7.9,11.4,6.8,19.1-6.1c3.7-6.2,3.3-6.7-3.1-10.3c-20-11.3-40.1-22.4-60.1-33.7C862.1,489.4,857.6,486.4,852.2,488.6z
		 M174.1,530.6c-1.5-7.2-3.1-14.4-4.6-21.5c-0.2-1.1-1-2-2.1-1c-5.1,4.8-12.4,7.3-15.1,14.7c-8.2,22.5-16.4,45-24.8,67.5
		c-4.2,11.2-4.3,11.2,7,15.5c8.7,3.4,9.1,3.3,12.6-5.7c8.5-21.7,17-43.4,25.5-65.1C173.2,533.5,173.6,532.1,174.1,530.6z
		 M813.9,406.4c0-10.2,0.2-22.1-0.1-33.9c-0.3-11-1.3-21.9-1.6-32.9c-0.1-4.3-1.9-5.6-5.8-5.2c-1,0.1-2,0.1-3,0.1
		c-13.1,0.4-13.3,0.7-12.8,14.1c0.7,20.5,2,41,1.6,61.4c-0.2,10.9,4.5,18.7,10.2,26.8c1.5,2.2,2.7,2.1,4-0.2
		C811.3,427.7,818.6,419.5,813.9,406.4z M857.9,473.9c2.5-0.5,4.4-0.8,6.4-1.3c22.9-5.1,45.8-10.3,68.7-15.4
		c10.8-2.4,10.9-2.4,8.5-12.9c-2.4-10.8-0.7-10.4-12.7-8.2c-20.9,3.9-41.6,9.4-62.6,12.7c-11.3,1.8-16.9,9.7-24.1,16.3
		c-1.1,1.1-1.6,2.4,0.3,3.1C847.6,470.3,852.9,472.1,857.9,473.9z M828,442c-0.9,3.3,0.4,4.1,3.5,2.8c4-1.6,8.1-3,12.2-4.5
		c2.3-0.8,4.1-2.1,5.6-4.1c14.5-19.1,29.2-38.1,43.5-57.3c7.5-10,6.6-8.5-1.9-15.5c-8.1-6.6-8.4-6.5-14.9,1.8
		c-10.6,13.7-21.4,27.3-31.8,41.1C836.2,417,825.2,426.3,828,442z M236.6,600.4c-0.4-1.5-0.7-3.7-1.4-5.7
		c-7.3-20.9-15.3-41.6-21.7-62.7c-3.1-10-10.4-14.9-17.7-20.6c-1-0.8-2.5-1.5-2.8,0.1c-1,6.5-5.1,12.7-2.8,19.4
		c8,23.6,16.2,47.2,24.5,70.8c2.9,8.2,3.4,8.3,11.5,5.6c2.7-0.9,5.3-1.9,7.9-3C235.6,603.7,236.9,602.9,236.6,600.4z M218.3,502.8
		c2.4,7.6,3.5,9.2,9.1,12.5c10,6,19.9,12.1,30,17.8c11.7,6.7,22.8,14.4,34.9,20.2c2.7,1.3,4.2,0.9,5.6-1.6c2.1-3.8,4.4-7.5,6.6-11.2
		c1-1.7,0.9-3.1-0.8-4.2c-1.7-1.1-3.1-2.5-4.8-3.5c-15.6-9.3-31.1-18.6-46.7-27.8c-2.1-1.3-4.4-2.3-7-2.3
		C236.3,502.8,227.5,502.8,218.3,502.8z M203.2,441.9c10.2-6.7,20.3-12.9,29.9-19.8c11-7.9,23.8-13.5,31.9-25.3
		c2.6-3.8,5.8-7.3,8.8-10.9c6.5-7.9,6.6-8-1.2-14.8c-9.5-8.2-7.5-8.6-16.1,0.7c-14.9,16-29,32.6-43.9,48.6
		C206.7,426.6,203.4,433.3,203.2,441.9z M548.1,277.2c0,0.3,0.1,0.5,0.1,0.8c0.8-0.1,1.6-0.3,2.4-0.4c9.1-0.4,16.7-6.1,25.7-7.1
		c8.3-0.9,16.8-3.2,24.7-1.9c7.3,1.2,14.5,0.7,21.6,1.5c5.9,0.7,10.6-0.9,14.9-5.1c3.5-3.4,7.9-6.1,11.9-9.1
		c11.6-8.9,23.2-17.9,34.8-26.8c1-0.8,2.8-1.5,1.9-3c-0.8-1.3-2.4-0.4-3.6,0c-0.5,0.2-0.9,0.3-1.4,0.5
		c-21.9,8.3-43.9,16.6-65.8,24.9C592.8,260.1,570.4,268.7,548.1,277.2z M352.7,407c0.4-0.2,0.9-0.6,1.6-0.8
		c6.6-1.9,13.2-3.6,19.8-5.6c8.7-2.6,17.6-4.4,26.2-7.4c2.2-0.8,2.5-1.7,1.8-3.6c-2.8-7.7-5.6-15.3-8.3-23c-0.8-2.3-1.9-2.6-4.1-1.4
		c-5.6,3.2-11.4,6.2-17,9.4c-1,0.5-1.9,1.4-2.5,2.3c-3.5,4.6-7.1,8.9-13.6,9.4c-3.5,0.3-6.8,1.3-10.3,1.9c-2.1,0.4-3,1.2-2,3.4
		c2.2,4.6,4.2,9.3,6.4,13.9C351,406.3,351.4,407.1,352.7,407z M852.8,435.8c13.1-3.2,25.2-7.1,34.2-17.7c7-8.2,15.4-15.2,23.1-22.7
		c6.1-5.9,6.1-6.8,0.4-13.1c-1.2-1.4-2.5-2.6-3.8-4c-5.2-5.8-5.4-5.9-10.4,0.5c-8.8,11.3-17.4,22.7-26.1,34.1
		C864.4,420.4,858.6,428.1,852.8,435.8z M756.1,435.9c0.2-0.2,0.4-0.4,0.6-0.6c-4.7-15.9-9.4-31.9-14-47.8c-0.5-1.8-1.4-3.3-2.7-4.7
		c-3.8-4-7.4-8.1-11.2-12.1c-7.2-7.6-7.4-7.6-14.9-0.6c-1.7,1.6-3.4,3.2-5.2,4.7c-1.9,1.6-1.8,2.9-0.4,5c4.7,7,10.6,12.8,15.9,19.1
		C734.7,411.4,745.5,423.6,756.1,435.9z M188.8,534.8c-0.4,0-0.7,0.1-1.1,0.1c-1.3,5.7-2.3,11.4-3.8,17c-1.2,4.5-1.2,8.7-0.2,13.3
		c2.6,12,4.8,24.1,7.5,36.1c3.6,16,0.9,12.8,15.6,10.9c8-1,8.3-1.5,5.7-9.1c-4.3-13-8.9-25.8-13.3-38.7
		C195.7,554.5,192.2,544.6,188.8,534.8z M226.6,517.9c-0.3,0.3-0.6,0.6-0.9,1c5.4,9.7,8.3,20.7,18.3,27.7
		c11.3,7.9,21.3,17.5,32.6,25.5c2.4,1.7,4.1,1.6,5.9-0.7c2-2.4,4.1-4.8,6.2-7.2c4.6-5.4,4.7-6.3-1.4-10.1
		c-7.6-4.9-15.4-9.3-23.1-13.9C251.8,532.7,239.2,525.3,226.6,517.9z M864.1,475.3c10.1,4,19.4,9.6,30.4,7.7
		c3.6-0.6,7.3-0.7,10.9-0.9c10.6-0.7,21.3-1.3,31.9-2.2c6.6-0.5,7-1.1,7-7.6c0-3-0.2-6-0.2-9c0.1-3.2-0.6-4.8-4.6-4.3
		c-10.9,1.3-21.5,4.3-32.2,6.6C892.9,468.7,878.5,472,864.1,475.3z M831.3,418.9c0.9-1.1,1.9-2.2,2.8-3.4
		c12.8-16.6,25.7-33.2,38.5-49.8c8-10.3,7.9-10.5-3.4-16.2c-7.7-3.9-8.1-3.9-12.4,3.6c-6.4,11.1-12.1,22.7-19.2,33.4
		C831,396.4,831.8,407.6,831.3,418.9z M818,413.9c0.5,0.1,1,0.2,1.5,0.3c3.4-7.9,10-14.2,11.1-23.1c1.9-15.2,3.4-30.4,4.8-45.7
		c0.7-8,0.4-8.1-7.5-9.4c-2.1-0.4-4.3-0.5-6.4-0.8c-5.9-0.7-6.3-0.6-6.1,5.5c0.4,16.6,0.8,33.3,1.4,49.9
		C817,398.4,817.5,406.1,818,413.9z M215.2,526.3c-0.3,1.6-0.5,2.1-0.4,2.5c7.9,22.4,15.7,44.9,23.7,67.3c1.4,4,3.8,5.5,7.9,2.7
		c2.6-1.8,5.4-3.2,8.2-4.7c3-1.6,3.8-3.5,2.3-6.9c-5.9-13.2-13.2-25.8-19.2-38.9C233,538,222.9,534.1,215.2,526.3z M149,524
		c-7.1,4.6-14.9,8.1-19.1,15.6c-7.2,12.7-14.3,25.6-21.3,38.4c-6.9,12.8-7.2,10.4,5.3,18c6.7,4.1,7.2,3.8,10-3.8
		c7.1-19,14-38.1,21-57.1C146.4,531.3,147.7,527.6,149,524z M859.5,448c24.9-5.3,48.5-10.1,72-15.3c6.7-1.5,6.6-2,4.1-8.3
		c-1.2-3.1-2.7-6.1-3.9-9.2c-1-2.5-2.3-2.9-5-2.2c-13,3.7-25.2,9.8-38.1,13.4C876.3,429.9,869,438.9,859.5,448z M757.6,442.1
		c-1-1.4-1.3-1.9-1.7-2.4c-13.9-16.2-27.5-32.5-41.7-48.4c-12.3-13.7-9.2-13.1-20.5,1.3c-1.9,2.4-1.9,4,0.5,6.2
		c11.5,10.8,24.6,19.8,36.2,30.6C737.9,436.4,747,439.4,757.6,442.1z M175,537.6c-0.5,0.6-0.8,0.8-0.9,1.1
		c-8.5,21.5-17,42.9-25.3,64.5c-2.4,6.3-1.8,6.7,5,8.1c2.4,0.5,4.9,0.9,7.3,1.5c4.2,1.1,6.7-0.2,7.6-4.6c2.5-11.4,4.4-22.9,7.8-34
		C180.4,561.8,179.1,550,175,537.6z M865.8,487.8c1,1.9,2.8,2.4,4.3,3.2c17.9,10,35.8,19.9,53.6,30c11,6.2,11,6.2,14.7-5.9
		c2.6-8.6,2.5-9-6.2-12.2c-11.9-4.3-24.1-7.9-35.7-12.7C886.4,486,876.5,485.8,865.8,487.8z M850,513.9c3.2,6.5,5.3,13.6,10.8,18
		c13.5,10.6,27.3,20.8,41.1,30.9c6.7,4.9,6.8,4.7,12.1-1.8c1.1-1.4,2.2-2.9,3.3-4.4c3.9-5.5,4-5.8-1.7-8.8
		C893.8,536.3,871.9,525.2,850,513.9z M813.1,532.9c-1.5,6.5-3.6,12.7-2.1,19.3c3.8,16.4,7.3,32.8,11,49.2c2.5,11,2.5,11,13.7,8.7
		c9.9-2.1,10.1-2.2,6-11.8c-5.8-13.6-11.9-27.1-17.8-40.7C820.2,549.3,816.7,541.1,813.1,532.9z M844.6,523.1
		c-0.3,0.3-0.7,0.6-1,0.9c3.7,10.1,7.5,20.2,11.3,30.3c4.6,12.3,9.1,24.7,14,36.9c2.2,5.4,3.1,5.5,8.1,2.5c2.4-1.5,4.7-3.2,7.1-4.6
		c3.3-1.9,4.7-4.1,2.3-7.6c-0.9-1.4-1.4-3-2.3-4.4c-8.1-13.6-16.4-27-24.5-40.7C855.9,530.3,849.8,527.2,844.6,523.1z M206.5,422.9
		c1.7-1.5,2.6-2.2,3.4-3c9.8-10.9,19.6-21.7,29.3-32.7c6.6-7.5,13.8-14.4,19.6-22.6c1.6-2.3,1.3-3.3-0.9-4.6
		c-3.3-1.9-6.7-3.7-9.8-5.9c-3-2.1-5.1-1.7-6.8,1.4c-0.8,1.4-1.9,2.7-2.8,4.1c-8.6,13.9-16.9,27.9-25.7,41.6
		C208.4,407.6,208.1,414.7,206.5,422.9z M124.2,490.4c-0.1-0.5-0.3-0.9-0.4-1.4c-5.6-0.2-11.3-1.2-16.9,0.9
		c-15.5,5.7-31,11.3-46.4,17.2c-14.2,5.4-11.8,3.8-7.4,16.7c2.6,7.5,3.1,7.6,10.1,3.4c14-8.3,28-16.8,42-25.2
		C111.6,498,117.9,494.2,124.2,490.4z M747.7,482c-2.6-0.6-4-1-5.4-1.3c-20.7-3.5-41.3-6.9-62-10.4c-13-2.2-14.2-1.1-12.6,12
		c0.8,6.9,0.9,7,8,6.9c16.6-0.3,33.3-1.1,49.9-1C733.3,488.2,739.9,485.8,747.7,482z M748.6,449.1c0.2-0.4,0.4-0.8,0.5-1.2
		c-4.2-3.1-7.4-7.7-12.6-9.4c-17.1-5.5-34.3-10.8-51.5-15.9c-6.8-2-7-1.6-9.5,5.2c-1,2.8-1.8,5.7-2.8,8.5c-1,2.7-0.1,4.2,2.6,4.7
		c1.8,0.3,3.6,0.7,5.4,0.9c14.5,1.6,29.1,3.2,43.6,4.7C732.4,447.6,740.5,448.3,748.6,449.1z M749.9,489.9
		c-8.4,0.7-15.4,0.1-22.3,3.2c-14.7,6.6-29.8,12.5-44.7,18.6c-9.1,3.8-9.3,4.2-5.6,13.5c0.4,1.1,0.8,2.2,1.3,3.2
		c2.7,6.5,3.6,6.9,9.6,2.9C708.4,518,728.5,504.4,749.9,489.9z M773.4,522.6c-5.8,4.1-9.7,7.7-12.3,12.7
		c-8.5,16.6-17.2,33.1-25.6,49.6c-3.5,6.8-3.3,7,3.2,10.7c2.6,1.5,5.3,2.7,8,4.1c2.3,1.3,3.8,0.7,4.6-1.7c1.1-3,2.2-5.9,3.1-8.9
		C760.6,567.4,766.8,545.7,773.4,522.6z M137.5,519.1c-20.7,10.9-41.4,21.8-62.1,32.9c-5.6,3-5.7,4.2-1.8,9c2,2.5,4.1,4.8,6.1,7.3
		c1.8,2.3,3.4,2.3,5.8,0.6c9.5-6.4,18.1-14,27.2-21C122.9,540,134.1,533.1,137.5,519.1z M765.7,519.9c-1.1,0.3-1.8,0.3-2.3,0.5
		c-20.3,11.8-40.7,23.5-60.9,35.5c-5.9,3.5-5.7,3.9-1.1,9.2c1,1.1,2,2.3,3,3.4c5.8,6.7,6.4,6.8,13,0.8
		c13.8-12.3,27.5-24.8,41.1-37.2C762.1,528.9,764.2,524.9,765.7,519.9z M804.2,534.9c-8.5,23.7-16.7,46.2-24.7,68.8
		c-2.3,6.4-1.9,6.5,4.5,7.6c2,0.3,3.9,0.6,5.9,0.8c7.6,0.7,7.8,0.8,9.1-7c2.5-15.8,4.5-31.6,7.1-47.4
		C807.4,550.3,807,543.2,804.2,534.9z M132.3,441.7c-1-1.5-1.7-2.6-2.5-3.7c-12.8-17.4-25.7-34.8-38.6-52.1c-6.7-9-6.7-8.9-14-0.2
		c-6.7,8.1-6.7,8,1.5,15c11.5,9.8,22.9,19.8,34.4,29.6C118.6,435,123.6,440.7,132.3,441.7z M198.5,415.5c0.7,0.1,1.4,0.1,2.1,0.2
		c2.8-4.8,6.3-9.2,7.3-15c2.6-15.4,5.8-30.7,8.3-46.1c2.5-15.5,3.2-12.2-10.2-15.1c-7.4-1.6-8.6-0.5-8.3,7.4
		c0.2,8.8,0.7,17.6,0.8,26.4C198.6,387.4,198.5,401.5,198.5,415.5z M121.7,481.4c-10.3-2.4-19.1-4.6-28-6.7
		c-13.8-3.3-27.5-6.6-41.3-9.8c-6.9-1.6-7.9-0.7-8,6.3c0,2.8,0.1,5.7,0,8.5c-0.1,2.9,0.9,3.8,4,4.2c18.1,2,36.3,0.3,54.4,2
		C109.2,486.7,114.8,484.5,121.7,481.4z M166.2,418.4c1.2-25.1,2.5-49.2,3.6-73.2c0.3-6.6-0.9-7.5-7.4-6.5c-2.5,0.4-4.9,1-7.4,1.3
		c-3.4,0.4-5.2,1.8-4.4,5.6c0.3,1.4,0.2,3,0.4,4.5c2.2,14.3,4.3,28.6,6.7,42.9C159.2,401.3,158.9,410.5,166.2,418.4z M129.4,448.6
		c-4.1-3.9-7.9-7.7-13.3-9.6c-16.5-5.9-32.8-12.2-49.1-18.4c-10.2-3.9-10.2-3.9-13.8,6.5c-3.1,9.1-3.1,9.3,6.2,10.8
		C82.7,441.5,106.1,445,129.4,448.6z M786.5,336.4c-2.8,2.3-3.4,6.6-6.2,7.3c-7.3,1.7-5.6,6.9-5.8,11.7c0,1.2,0.1,2.5-0.4,3.4
		c-4.1,6.8-1.5,13.6-0.3,20.3c0.8,4.8,1.8,9.5,2.6,14.2c1.5,9.4,8.3,15.7,13.4,23.1C789,389.6,789.6,363,786.5,336.4z M159.1,420
		c-0.4-5.4-0.9-9.2-2.9-12.8c-8.6-15.4-17.1-30.9-25.7-46.3c-7.6-13.6-6.2-11.2-17.5-5.1c-6.4,3.5-6.6,4.1-1.6,9.9
		c9.3,10.9,18.8,21.6,28.3,32.3C145.8,405,152,411.9,159.1,420z M234.6,451.9c0.1,0.3,0.2,0.6,0.3,0.9c17.7-2.8,35.5-5.5,53.2-8.3
		c7.9-1.3,15.8-2,23.6-4.2c2.4-0.7,3.7-1.7,2.7-4.2c-1.6-3.8-0.6-10-5.5-10.6c-2.8-0.3-6.8,1.6-10.3,2.6c-7.2,2-14.3,4.7-21.6,6.3
		c-10.1,2.1-19.7,6.2-29.9,7.6c-0.9,0.1-1.7,1-2.5,1.6C241.2,446.3,237.9,449.1,234.6,451.9z M379.9,462.5c-5.9,0.9-11.3,0.4-15,3.3
		c-2.7,2.1-0.6,6.7-0.4,10c0.3,6.5-1.1,12.9-1.2,19.3c0,1.5-0.3,3.9,1.7,3.2c3.6-1.2,6.9,0.2,10.3,0c5.2-0.3,10.3-0.3,15.5,0
		c5.6,0.3,11.3-0.1,16.9-0.4c1.6-0.1,1-2.1,0.7-2.1c-4.9,0.4-7.8-2.7-10.4-6.1c-0.2-0.2-1.2,0.3-1.8,0.5c-2.4,0.7-3.2-0.2-2.6-2.5
		c0.7-3.2-0.6-4.4-3.7-3.8c-2.8,0.5-3.3-0.7-2.5-3.1c1-2.8,0-4.2-2.9-4.2c-3,0.1-3.5-1-2.1-3.6c1-1.9,0.7-4-1.7-4.2
		C375.8,468.2,377.7,465.8,379.9,462.5z M389.8,355.8c-0.5-1.6-1.2-4-2.1-6.3c-3.8-9.8-3.9-9.9-12.6-3.9
		c-12.8,8.8-25.5,17.6-38.1,26.5c-1.3,0.9-3.9,1.5-2.1,4c3.4,4.7,6.9,5.2,12.3,2c3.8-2.3,7.6-4.9,11.5-7c3.1-1.7,6.3-3.4,9.7-0.4
		c0.9,0.8,2,0.9,2.7,0.1c4.9-4.6,11.9-5.9,16.7-10.5C388.9,359.3,390.2,358.4,389.8,355.8z M254.3,503.2c7.5,4.5,14.6,8.8,21.7,13
		c9.3,5.4,18.8,10.7,28.1,16.1c2.6,1.5,4.2,0.9,5.2-2c1.2-3.8,2.7-7.5,4.1-11.2c1.2-3.1,0.2-5.2-2.6-6.5c-5.3-2.4-10.8-4.4-15.9-7.1
		c-4.3-2.3-9.1-2.5-13.5-2.3C272.6,503.5,263.8,502.8,254.3,503.2z M366.5,443.1c2.3-0.6,6.1,1,6.9-1.9c0.5-1.9,0.8-2.7,2.4-3.4
		c2.4-1,2.9-2.8,1.1-4.7c-1.9-2.1-1.8-3.3,1.1-4.2c2.4-0.7,3.4-2.1,1.7-4.5c-1.7-2.3-1.2-3.7,1.6-4.1c2.8-0.4,3.7-1.9,2.5-4.5
		c-1-2.2-0.3-3.1,2.1-3c1.8,0.1,4.1-0.3,3.7-2.2c-0.9-4.3,0.5-5.3,4.4-4.8c1.5,0.2,2.2-1.5,1.9-2.9c-0.4-2.3-1.6-0.5-2.5-0.4
		c-3.4,0.5-6.6,1.7-9.8,2.5c-3.5,0.9-6.8,2.1-10.3,3c-6.1,1.6-12.3,3.2-18.4,4.8c-1.4,0.4-0.9,1.3-0.7,2.4
		c2.1,7.8,4.9,15.5,6.1,23.6C360.9,442.4,362.5,444.2,366.5,443.1z M247.6,482.9c6.4,2.3,11.3,6.4,17,6.5
		c15.6,0.3,31.3-0.2,46.9-0.8c8.6-0.3,8.6-0.7,8.7-9.5c0-6.8-0.5-7.3-7-6.3c-17.9,2.6-35.9,5.1-53.8,7.8
		C255.8,481.2,252.1,481,247.6,482.9z M696.3,77.8c-12.5,18-13.3,36.7-7.2,56.3c1.5,4.7,5.3,4,8.4,4c3,0,4.2-2.9,4.5-5.7
		c0.3-2.8-0.6-6.4,0.9-8.2c3-3.7,1.8-7.1,1.1-10.8c-1.5-7.7-3-15.3-4.7-23C698.4,86.4,698.3,82.2,696.3,77.8z M113.2,435.2
		c-0.4-1.2-0.4-1.6-0.6-1.8c-13-11.2-26-22.4-39-33.6c-3.4-2.9-6-2.7-7.9,1.7c-0.9,2.1-2.4,4-3.5,6c-3.4,6.3-3.5,6.9,3.1,9.5
		C81,423.2,96.8,429,113.2,435.2z M757,538.2c-0.4-0.2-0.7-0.4-1.1-0.5c-12.5,11.4-25.1,22.7-37.5,34.2c-5.7,5.3-5.5,5.5,0.6,10.2
		c2,1.5,4,2.9,5.9,4.6c2.9,2.7,5.2,2.3,7-1.1C740.3,569.8,748.6,554,757,538.2z M155.6,400.7c0.7-4-0.3-6.3-0.6-8.8
		c-2.3-14.6-4.6-29.2-7.1-43.8c-1-5.7-1.9-6.1-7.4-4.3c-3,1-5.9,2.4-8.9,3.2c-3.4,1-3.5,2.6-2.3,5.6c2,4.8,4.7,9.2,7.2,13.7
		C142.6,377.4,148.9,388.6,155.6,400.7z M101.1,489.3c-14.2-1.3-28.3-1.9-42.5-1.8c-15.7,0.1-14.2-1.4-11.9,13.9
		c1,6.6,1.7,7.1,8,4.9C70.2,500.7,85.6,495,101.1,489.3z M725,491.7c-14.8,0-29.7-0.3-44.6,0.1c-11.6,0.3-12.1,1.3-9.5,12.8
		c0.1,0.6,0.3,1.3,0.5,1.9c1.5,6,2,6.4,7.8,4.1C694.6,504.4,709.9,498,725,491.7z M809.5,557.1c-0.3,0-0.6,0-0.9,0.1
		c-2.3,16.5-4.8,33.1-6.8,49.6c-0.8,6.2-0.3,6.4,6,6.4c3,0,6-0.1,9-0.3c2.8-0.1,4-1.3,3.7-4.5c-0.5-4.7-1.5-9.2-2.5-13.7
		C815.1,582.2,812.3,569.7,809.5,557.1z M730.9,432.9c-7.9-6.5-15.8-13.2-23.8-19.6c-5-4.1-9.7-8.5-15.4-11.8
		c-2.3-1.4-3.5-1.1-4.7,1.2c-1.9,3.7-3.8,7.4-5.9,11c-1.6,2.7-0.8,4.1,2,5.2C698.8,424.5,714.8,428.9,730.9,432.9z M211.2,396.2
		c0.4,0.2,0.8,0.4,1.2,0.6c8.6-14.1,17.8-27.9,25.7-42.5c1.7-3.2,1.1-5.2-2.5-6.3c-2.7-0.8-5.4-1.8-7.9-3.1
		c-4.5-2.3-6.8-0.5-7.6,3.9C217.1,364.7,214.2,380.5,211.2,396.2z M865,539.5c7.9,13.8,15.2,27.7,24.4,40.6c2,2.7,3.8,2.6,6,0.3
		c2.2-2.3,4.4-4.7,7-6.4c4.2-2.8,3.1-5.2-0.2-7.6c-7.6-5.7-15.1-11.5-22.7-17.1C874.9,545.8,870.7,541.8,865,539.5z M892.6,485.5
		c0,0.3,0,0.5,0,0.8c13.5,4.8,27,9.7,40.5,14.3c8.3,2.8,8.9,2.2,10-6.4c0.2-1.5,0.5-3,0.7-4.4c0.9-6.5,0.3-7.5-6.4-7.1
		C922.5,483.4,907.5,484.5,892.6,485.5z M125.6,542.1c-0.2-0.3-0.5-0.5-0.7-0.8c-11.8,9.4-23.6,18.7-35.3,28.4
		c-4.7,3.9-4.5,4.2,0.2,8.6c1.8,1.7,3.7,3.3,5.6,4.9c4.5,3.7,5.3,3.7,8.2-1.4C111,568.6,118.3,555.3,125.6,542.1z M833.4,387.4
		c0.4,0,0.7,0.1,1.1,0.1c6.8-12.2,13.7-24.3,20.5-36.5c3.6-6.6,3.5-6.7-3.8-9.1c-2.4-0.8-4.8-1.4-7.1-2.3c-3.4-1.3-4.9,0-5.4,3.4
		c-0.6,4.3-1.3,8.5-1.8,12.8C835.7,366.3,834.6,376.8,833.4,387.4z M225.1,460.8c1.2,0,1.8,0.1,2.5,0c27.6-3.5,55.1-6.9,82.6-10.6
		c2.5-0.3,7.1,1.1,6.8-3.5c-0.4-5.4-5.4-3.1-8-2.7c-25.5,3.7-51,7.9-76.4,11.9C229.7,456.3,227.2,457.5,225.1,460.8z M181.5,567.1
		c-0.3,0-0.7,0-1,0c-3,13.9-6,27.8-8.9,41.7c-0.8,3.6,0.5,5.7,4.7,5.5c3-0.2,6-0.1,9,0c3.7,0.2,5.3-1.3,4.7-5
		c-0.6-3.6-1.3-7.2-2-10.7C185.8,588,183.6,577.5,181.5,567.1z M885.4,425.1c13.2-5.2,27.3-9.3,40.5-15.8c1.9-0.9,1.8-2.3,0.9-3.7
		c-2.1-3.6-4.3-7.1-6.4-10.7c-1.2-2-2.6-2.1-4.5-0.8c-3.7,2.4-6.6,5.6-9.6,8.6C899.1,409.9,892.2,417.6,885.4,425.1z M241.8,547.8
		c-0.4,0.3-0.8,0.6-1.1,0.9c6.1,12.1,12,24.4,18.7,36.2c1.9,3.3,4.1,3.4,6.8,1c2.8-2.4,5.6-4.7,8.4-7c1.6-1.3,2-2.4,0.1-3.9
		c-2.4-2-4.6-4.3-7.1-6.3C259.1,561.7,250.5,554.8,241.8,547.8z M415.4,426.5c-1.5-4-3.3-9-5.3-13.9c-1-2.4-3-1.7-4.6-0.5
		c-8,6-13.4,13.7-15.9,23.4c-0.9,3.4,0.5,5.1,4.2,4.5c4.6-0.8,9.2-1.5,13.7-2.5C412.1,436.6,415.6,432,415.4,426.5z M418,465
		c-0.1-4.3-4.8-8.7-8.4-8.2c-5.4,0.8-10.8,1.9-16.2,2.8c-2,0.3-2.7,1.1-1.9,3c3.8,8.4,9.3,15.4,17.4,19.9c2.4,1.3,4.9,0.7,5.7-2
		C416,475.1,417,469.7,418,465z M472.2,446.3c-0.1-3.7-0.1-7.3-1.1-10.9c-0.7-2.5-1.4-3.7-3.9-1.6c-3.8,3.2-7.9,6.1-11.7,9.4
		c-4.7,4.1-4.4,8.3,0.5,12c2.4,1.8,4.7,3.7,7.2,5.4c3.7,2.5,6.2,1.7,7.6-2.5C472.1,454.4,472.3,450.4,472.2,446.3z M406,334.5
		c0.8,2.4,1.7,5.4,2.6,8.4c0.6,2.1,1.5,2,3.6,1.3c5.5-1.9,7.7-7.8,13.5-9.6c2.6-0.8,4.9-3.7,8.4-4.2c2.9-0.5,6.1-2.7,5-6.2
		c-0.9-2.9-3.9-4.4-7.4-3.2c-0.3,0.1-0.6,0.2-1,0.3c-7.3,2.8-14.5,5.6-21.8,8.5C407.1,330.4,406.1,331.8,406,334.5z M290.9,404.3
		c-10.7,8.6-21.2,17-31,26.3c1.6,1.6,2.7,0.9,3.7,0.5c11.7-3.7,23.4-7.4,35.1-11.1c1.9-0.6,3.6-1.6,5.4-2.5c1.1-0.5,2.2-1.3,1.3-2.7
		c-0.7-1.1-1.8-0.5-2.7-0.1c-0.8,0.3-1.5,0.7-2.2,1.1c-3.4,1.8-6.7,3.3-9.8-0.5C287.6,411.7,287.1,408,290.9,404.3z M271.8,492.3
		c6.3,5.8,13.8,5.2,20.6,5.1c7.6-0.1,15.3,0.8,23-0.1c2-0.2,3.6,0.2,3.6-2.5c0-2.4-1.2-3.3-3.4-3.3c-3.7,0-7.3-0.2-11,0
		C293.9,491.8,283.1,491,271.8,492.3z M230.3,534.8c-5.5-10.6-7.9-23.8-22.3-27.3C208.8,522.2,221.2,527.2,230.3,534.8z
		 M434.6,404.4c-3.1-0.8-3.9,0.2-2.6,3.8c4.8,13.5,5.1,13.6,16,4.6c3.3-2.7,2.4-4-1-5.4C443.1,405.9,439.2,404.7,434.6,404.4z
		 M868.8,434.3c-10,4.1-22.4,4.3-27,16.7C854.8,452.2,861.4,442.6,868.8,434.3z M181.4,549.8c1.5-10.4,8.4-20.7,0.9-31.3
		C174.5,528.8,178.1,539.3,181.4,549.8z M819.2,434c7.7-8.2,11.2-19.9,9-30.2C822.6,413.2,815.5,421.7,819.2,434z M168.7,435.3
		c-0.9,5.7-1.3,10.5-1.1,15.3c0.1,2.2,0.6,4,3.1,4.5c2.6,0.6,5.2,1.5,7.3-1.3c1.5-1.9,1.8-3.7,0.6-6
		C176.2,443.3,172.8,439.5,168.7,435.3z M780.9,505.9c0.3,0.2,0.6,0.5,0.9,0.7c3.9-2.4,7.8-4.9,11.8-7.2c2.7-1.6,2.7-3.9,2.1-6.4
		c-0.7-3.1-3-3.5-5.7-3.6c-2.7-0.2-4.5,0.5-5.3,3.3C783.5,497.1,782.2,501.5,780.9,505.9z M144.6,453.7c3.4,4.3,5.8,7.6,8.6,10.7
		c3.9,4.2,4.6,4.1,7.5-0.7c0.5-0.8,1.2-1.6,2-2.2c1-0.8,2.5-1.3,1.8-3c-0.6-1.4-2-1.6-3.3-1.8C156.1,455.7,151,454.8,144.6,453.7z
		 M225.7,485.9c5.9,4.4,21.1,5.9,29.6,3.3C241.8,482.5,241.8,482.5,225.7,485.9z M175.9,526.6c2.6-7.6,7.1-13.5,2.9-20.7
		c-1.1-1.9-2.3-3.5-4.6-3c-2.7,0.7-2.9,2.8-2.3,5.2C173.2,513.9,174.4,519.6,175.9,526.6z M238.2,493.3c10.9,6.3,22.8,2,34.2,3.5
		C261.6,489.6,249.7,493.7,238.2,493.3z M808.2,514.6c1.1-2.5,1.6-3.5,2-4.6c0.8-2.2,1.6-4.4,2.2-6.6c1-3.8-1.4-7.4-5.2-7.9
		c-3.2-0.4-6.1,2.1-5.2,4.7C803.7,504.7,805.8,509,808.2,514.6z M876.1,483.4c-8.7-2.1-16.5-9.4-26.4-4.4
		C857.6,487.3,867,484.6,876.1,483.4z M779.4,407c1.4,9.6,1.4,19.7,10.9,25.5C792.5,421.6,784,415.1,779.4,407z M851.2,452.7
		c-7.7,0.9-14.1,1.2-17.4,7.9c-0.7,1.3-2.9,2.6-1,4.2c1.5,1.3,3.7,2,5.5,0.4C842.3,461.4,846.2,457.4,851.2,452.7z M447.7,475.9
		c1.6,2,0.1,6.1,4.1,6.5c2.3,0.2,8.3-5.8,7.8-7.6c-0.9-3.5-3.7-5.2-7.1-5.1C448.8,469.8,448.5,473,447.7,475.9z M854.1,485.6
		c-6-5.6-12.4-6.7-19.4-3.6c-1.3,0.5-3.9,0-3.4,2.6c0.4,2.2,2.4,2.5,4.3,2.4C841.7,486.6,847.7,486.1,854.1,485.6z M814.8,426.8
		c-2.6,4.4-5.2,8.9-7.7,13.3c-1.2,2.1-0.3,4.1,1.3,5.3c2.2,1.7,2.6-1,3.7-1.9C817.3,438.9,816.2,432.9,814.8,426.8z M268.2,398.6
		c5.4-3.6,10.7-7.2,16.1-10.7c1.9-1.2,2.7-2.3,0.9-4.3c-1.4-1.4-2.3-3.2-4.7-1C275.4,387.3,271.5,392.8,268.2,398.6z M136.4,528.9
		c5.5-5.9,15.1-8,17-17.8C143.6,513.5,139.5,520.7,136.4,528.9z M767.8,360.8c-1.2-5.3-1.6-11-3.6-16.3c-0.6-1.7-1.2-3.2-3.5-2.4
		c-2.1,0.8-1.5,2.3-1.1,3.7c1.5,5.2,3.1,10.5,4.7,15.7c0.3,1,0.4,2.7,2,2.3C767.6,363.6,767.9,362.3,767.8,360.8z M206.6,516.5
		c0.3-0.2,0.6-0.5,0.9-0.7c-1.3-3.7-2.5-7.5-4-11.1c-0.8-1.8-2.6-3-4.9-2.5c-1.6,0.4-3.4,0.7-3.8,2.6c-0.5,2.2,1.2,3.2,2.7,4.3
		C200.5,511.7,203.5,514.1,206.6,516.5z M155.5,493.2c-3.4,6.2-6.4,11.8-9.9,18.2C157.6,506.2,160.7,500.6,155.5,493.2z
		 M242.7,435.4c0.4,0.6,0.7,1.1,1.1,1.7c10.7-2.8,17.1-11.9,24.8-19.2C259.9,423.7,251.3,429.5,242.7,435.4z M843,443.9
		c-5.5,0.9-9.8,3-14.2,4.8c-1.9,0.8-2.6,2.8-1.9,4.6c0.7,2,2.6,0.7,3.9,0.6C837,453.7,839.8,449.2,843,443.9z M825.7,431.3
		c-4.5,3.9-7.5,7.8-6.3,13.5c0.3,1.3-0.5,3.4,1.7,3.5c1.9,0.1,3.7-0.8,3.8-3C825,440.9,826.5,436.5,825.7,431.3z M836.9,514.1
		c-2.9-8.7-12.3-15.8-20.4-15.6C823.4,503.8,829.6,508.5,836.9,514.1z M469.5,306.7c-5.4,2-10.8,4-16.2,6c-2.3,0.9-4.7,1.8-6.9,2.8
		c-1.8,0.8-2.4,2.6-1.5,4.2c1.1,1.8,2.8,0.2,3.9-0.3c1.6-0.7,2.3-2.9,4.2-3.4C459.2,314.4,464,310.2,469.5,306.7z"/>
</g>
</svg>
