<?xml version="1.0" encoding="utf-8"?>
<!-- Generator: Adobe Illustrator 21.0.2, SVG Export Plug-In . SVG Version: 6.00 Build 0)  -->
<svg version="1.1" id="Слой_1" xmlns="http://www.w3.org/2000/svg" xmlns:xlink="http://www.w3.org/1999/xlink" x="0px" y="0px"
	 viewBox="0 0 24.5 46.9" style="enable-background:new 0 0 24.5 46.9;" xml:space="preserve">
<style type="text/css">
	.st0{display:none;}
	.st1{fill: #fff}
</style>
<g>
	<path class="st0" d="M-44.3-13.9c-0.3-0.8-0.8-1.4-1.6-1.6l-3.2-1.2c-1.3,0.9-2.9,1.4-4.6,1.4s-3.3-0.5-4.6-1.4l-3.3,1.2
		c-0.8,0.3-1.3,0.9-1.6,1.6l-7.2,21.6c-0.1,0.4,0.1,0.9,0.5,1l2.2,0.8c0.4,0.2,0.9-0.1,1-0.5l5.8-15l-1.9,16.3
		c-0.1,0.6,0.4,1.2,1,1.2h0.3v0.1l0.9,34.6c0,0.6,0.5,1,1,1h3c0.6,0,1-0.5,1-1l0.8-31.2h2l0.8,31.2c0,0.6,0.5,1,1,1h3
		c0.6,0,1-0.5,1-1l0.9-34.6v-0.1h0.3c0.6,0,1.1-0.5,1-1.2L-46.7-6l5.8,15c0.2,0.4,0.6,0.6,1,0.5l2.2-0.8c0.4-0.2,0.6-0.6,0.5-1
		L-44.3-13.9z"/>
	<circle class="st0" cx="-53.8" cy="-23.8" r="6.3"/>
	<path class="st0" d="M-8.5-13.9c-0.2-0.7-0.8-1.2-1.4-1.5l-2.9-1.2c-1.2,0.7-2.7,1.1-4.2,1.1s-3-0.4-4.2-1.1l-2.9,1.2
		c-0.6,0.3-1.2,0.8-1.4,1.5l-7.9,21.4c-0.2,0.4,0.1,0.9,0.5,1l2,0.8c0.4,0.2,0.9,0,1-0.4l6.3-15.2l-0.8,12.2L-30,24
		c-0.2,0.6,0.2,1.1,0.8,1.1h5l0.5,20.9c0,0.6,0.5,1,1,1h2.8c0.6,0,1-0.4,1-1l0.5-20.9h2.8l0.5,20.9c0,0.6,0.5,1,1,1h2.8
		c0.6,0,1-0.4,1-1l0.5-20.9h5c0.6,0,1-0.6,0.8-1.1L-9.6,5.9l-0.8-12.2l6.3,15.2c0.2,0.4,0.6,0.6,1,0.4l2-0.8c0.4-0.2,0.6-0.6,0.5-1
		L-8.5-13.9z"/>
	<circle class="st0" cx="-17" cy="-23.8" r="6.3"/>
	<path class="st1 custom_fill" d="M24.5,25.7l-4.7-12c-0.2-0.6-0.7-1.2-1.4-1.4l-2.2-1c-1.1,0.7-2.4,1.1-3.9,1.1c-1.4,0-2.7-0.4-3.9-1.1l-2.2,1
		c-0.6,0.3-1.1,0.8-1.4,1.4l-4.7,12c-0.2,0.4,0.1,0.9,0.5,1.1l1.6,0.6c0.4,0.1,0.9-0.1,1-0.5l3.6-9L5.8,28c-0.1,0.5,0.3,0.9,0.8,0.9
		h0.3l0,0l0.7,17.2c0,0.4,0.4,0.8,0.8,0.8h2.1c0.4,0,0.8-0.3,0.8-0.8L12,31.8h0.5l0.7,14.3c0,0.4,0.4,0.8,0.8,0.8h2.1
		c0.4,0,0.8-0.3,0.8-0.8l0.7-17.2l0,0h0.3c0.5,0,0.9-0.4,0.8-0.9l-1-10.1l3.6,9c0.2,0.4,0.6,0.6,1,0.5l1.6-0.6
		C24.5,26.6,24.7,26.1,24.5,25.7z"/>
	<circle class="st1 custom_fill" cx="12.5" cy="5.3" r="5.3"/>
</g>
<text transform="matrix(1 0 0 1 -72.9363 73.5)" style="display:none;enable-background:new    ; font-family:'Arial-BoldMT'; font-size:5px;">Created by Adrien Coquet</text>
<text transform="matrix(1 0 0 1 -72.9363 78.5)" style="display:none;enable-background:new    ; font-family:'Arial-BoldMT'; font-size:5px;">from the Noun Project</text>
</svg>
