<?xml version="1.0" encoding="utf-8"?>
<!-- Generator: Adobe Illustrator 21.0.2, SVG Export Plug-In . SVG Version: 6.00 Build 0)  -->
<svg version="1.1" id="city_x5F_rad" xmlns="http://www.w3.org/2000/svg" xmlns:xlink="http://www.w3.org/1999/xlink" x="0px"
	 y="0px" viewBox="0 0 1216 770.1" style="enable-background:new 0 0 1216 770.1;" xml:space="preserve">
<g>
	<path style="fill:#fff" d="M758.3,554.8c0.8-4,1.5-8,2.3-12.1c0.3,0,0.6,0,1,0.1c0.4,10.8,0.8,21.7,1.1,32.5c0.1,2.8-2,4.9-3.2,7.2
		c-4.7,8.9-10.8,16.8-16.2,25.2c-0.8,1.3-1.6,3.6-3.5,2.8c-2.1-0.9-1.2-3.3-0.7-4.9c1.1-4.2,1.8-8.6,3.7-12.4
		c5.3-10.7,5.4-22.3,5.8-33.7c0.4-12.7,2.7-25.2,4.4-37.7c1.5-10.5,5.8-20.4,9.4-30.4c10.7-29.3,27.3-55.1,47.5-78.7
		c2.4-2.8,5.6-5.3,5.7-9.6c0-0.7,0.8-1.6,1.5-1.9c9.7-3.7,15.8-12,23.4-18.3c15-12.3,30.8-23.3,47.8-32.6c3.1-1.7,3.9-3.3,2.7-6.6
		c-2.3-6.3-4.2-12.7-6.1-19c-2.2-7.6-6.8-12-14.9-13c-12.2-1.6-23.1-6.5-31.9-15.2c-3.1-3-4.8-2.4-7,0.7c-3.5,4.9-7.2,9.6-10.7,14.4
		c-1.8,2.5-2.6,5.6-3.8,8.1c-1.7,3.4-5.4,5.8-4.5,10.4c-10.4,4-12.1,14.7-17.1,22.7c-15,24.2-29.4,48.8-45.1,72.6
		c-4,6.1-8.3,11.9-12.3,18c-1.8,2.6-5.1,4.7-3.6,8.7c0.1,0.2-0.2,0.9-0.3,0.9c-6.7-1-5.4,6.9-10.1,9.1c-5,2.4-8.4,8.3-12.4,12.8
		c-16.6,18.2-32.5,37-50.6,53.8c-0.4,0.3-0.6,0.8-1.2,1.6c4.7,1.1,8.1,3.7,10.3,7.8c1.3,2.4,3.9,2.1,6.2,2.4
		c7.6,1,9.8,2.9,10.9,10.5c0.9,6.6,1.2,13.2,0,19.9c-0.7,3.6-2.7,5.8-6.4,5.7c-7.1-0.1-14.3-0.2-21.4-0.5c-2.5-0.1-5-0.1-7.4-0.2
		c-4.6-0.1-9.8,0.8-13.3-3.6c-1.6-2-3.2-1.1-4.8,0c-4.1,2.8-8.2,5.7-12.4,8.5c-2.6,1.7-2.3,4.1-1.8,6.7c2,9.4,2.4,18.8,0.2,28.2
		c-6.2,27.3-30,47.7-58.7,51.2c-17.9,2.2-33.5-2.8-47.9-13.2c-4.9-3.5-10.6-4.8-16.5-5.2c-3.3-0.2-6.7-0.5-9.8-1.7
		c-6.4-2.3-12.3-3.1-18,1.7c-1.8,1.5-4.5,2.9-7,2.4c-4.8-1.1-6.3,1.8-8.2,5.2c-31,54.3-76.2,90.3-137.2,105.9
		c-22.4,5.7-45.1,8.8-68.3,7.7c-49.6-2.2-94.7-17-134.7-46.9c-32.6-24.4-57.9-54.6-73.4-92.4c-13.7-33.5-20.2-68.7-18-105
		c1.1-18.9,5.8-37.1,12-55c0.5-1.4,0.9-2.8,1.8-5.6c-4.3,3.3-7.9,5.4-10.6,8.3c-6,6.7-14.2,10.3-20.7,16.2c-1,0.9-2.5,2.6-3.8,1
		c-1.1-1.3,0.2-2.9,1.1-4c4.4-5.2,8.8-10.4,13.2-15.6c4.9-5.8,7.5-12.7,10.7-20.1c-2.5,0.8-4.2,1.8-5.9,1.9
		c-3.4,0.1-5.9-1.3-6.1-5.1c-0.5-9-1-18-1.4-26.9c-0.1-1.7,0.2-3.5,2.1-4.1c3.4-1.1,7.1-3.6,10.4-0.8c3,2.5,6.7,3.8,9.5,6.3
		c2.9,2.6,4.3,1.5,6.1-1.3c4-6.3,8.4-12.4,12.5-18.7c9.1-14.2,21.7-25,34.3-35.7c18.7-15.8,39.8-27.9,62.6-36.8
		c0.8-0.3,1.6-0.6,2.3-1c1.2-0.6,2.6-1.3,1.8-3c-0.7-1.5-2.1-0.8-3-0.3c-2.4,1.3-4.7,1.2-7.2,0.4c-6-1.9-11.9,0.8-18,0.1
		c-4.5-0.5-7.5-1.5-8.7-6.4c-2.3-9.7-4-19.4-0.5-29.5c-3.8-0.2-7.2-0.2-10.5-0.6c-2.7-0.4-5.4-1.4-5.8-4.6c-0.4-3.3,2.6-3.7,4.8-4.7
		c12.3-5.6,25.5-5.1,38.3-5.1c63.8-0.3,127.7-0.3,191.5,0c9.9,0,18.8-1.2,26.6-7.5c1.8-1.4,4-2.3,6.1-3.4c2.3-1.2,4.8-2.5,6.6,0.4
		c1.8,3-0.8,4.6-2.8,6c-5.2,3.6-10.5,7-15.9,10.4c-3.9,2.5-7.8,5.2-12.2,6.8c-3.8,1.3-3.3,4.4-3.4,7.4c-0.1,3,0.7,5.1,3.8,6.1
		c22.2,7.8,44.3,15.6,66.4,23.5c2.3,0.8,3.8,0.4,5.1-1.6c0.9-1.4,2.2-2.7,2.7-4.2c5.3-15.1,16.8-20,31.7-19.5c1,0,2,0,3,0.2
		c2.2,0.3,3.3-0.4,2.6-2.7c-1.1-4.2-1.9-8.5-3.4-12.5c-0.9-2.7-3-4.8-6.1-5.4c-4.5-0.9-6.6-5.4-3.9-9.1c1.6-2.2,1.3-3.2-0.2-5.4
		c-3.4-5.2-1.4-10.9,0-16.4c1-3.5-1.9-12.3-4.8-14.3c-2-1.4-3.8-2-6.4-0.6c-6.2,3.4-17.2-1.7-18.6-8.7c-0.8-3.6-1.9-4.5-5.6-4
		c-6.1,0.8-11.7-1.1-15.2-6.6c-3.9-6.1-9.1-9.1-16.3-9.7c-10.6-0.9-20.8-4.9-31.6-4.1c-2.4,0.2-3.9-1.1-4.3-3.3
		c-0.8-4-2.4-6.8-5.8-9.7c-7.6-6.6-5.8-20.9,2.8-26.3c9-5.7,19.6-7.6,29.9-8.8c11.7-1.3,23,0.1,34.2,4.7c13,5.4,27,3.7,40.5,2.5
		c14.6-1.3,29.3-2,43.9-1.4c8.1,0.3,15.7,2.6,22,8.3c2.6,2.3,4.1,5.2,4.9,8.5c1.9,8.4,0.1,10.7-8.4,11.5c-11.5,1.1-22.8,3-33.9,6.1
		c-2.2,0.6-4,1.6-5.4,3.3c-1.7,2-3.3,4.2-5.3,6c-6.2,5.5-9.7,11.3-4.5,19.5c1.5,2.3,1,5.3-0.2,8.2c-1.8,4.2,2.5,14.6,7.4,17.2
		c4.1,2.1,5.2,5.7,5.5,9.4c0.2,3.1,0.9,5.8,1.9,8.6c1.3,3.5,1.4,7,1.6,10.7c0.4,7.3,2.8,14.1,6.1,20.8c2.6,5.2,4.3,10.8,6,16.3
		c18.3,59.2,36.6,118.4,54.9,177.6c1.7,5.5,5,9.1,11,10.2c25.9,4.7,51.4,3.8,76.4-5c5.1-1.8,9.8-4.4,13.5-8.3
		c18.9-20.1,37.8-40.4,54.6-62.4c26.4-34.6,50.5-70.8,70.8-109.4c18.9-35.9,35.1-72.9,48-111.3c1.6-4.9,3.5-9.7,5.4-14.5
		c2.3-5.8,2.9-11.6,0.2-17.4c-1-2.2-1.3-4.3,0.9-6.3c1.9-1.8,1.7-4.2,0.2-6.3c-1.4-1.9-1.8-4.3-0.6-6.1c2-3.2,1-6,0.1-9
		c-2.8-9.2-5.9-18.4-6-28.2c0-3.9,0.9-7.3,4.1-9.7c9.8-7.2,15.6-17.6,22-27.4c3.7-5.7,1-12.2,0.8-18.4c-0.1-1.5-1.6-2.9-3.5-3.1
		c-8.5-1.1-16.9-1-25.3,0.6c-3,0.5-4.8,1.8-4.1,5.4c0.5,2.9-1,5.4-3.8,6.3c-2.7,0.9-4.8-0.6-6-3.2c-0.4-1-0.9-1.6-2.2-1.6
		c-13.5,0.7-27.2-0.4-40.6,3.1c-4.5,1.2-9.9,1.4-9.5,8.5c0.1,1.9-1.9,2.8-3.7,2.1c-2.5-0.9-2.2-3-1.6-5c2.6-8.9,10.6-15.7,20-16.4
		c4.7-0.4,9.4-0.1,14.5-0.1c-1.2-2.6-2.8-2.1-4.2-2.2c-2.1-0.2-4.3-1-4.9-3c-1.4-4.8-4.9-4.7-8.7-4.7c-15.2,0.2-30.1,3.2-45.2,4.5
		c-3.2,0.3-6.3,0.6-9.5,0.7c-5.9,0.1-8.9-2.9-9.5-9.1c-0.6-6.6,2.1-11,7.8-11.7c4.1-0.5,5.1-2.2,5.2-6.1c0.1-7.7,3.3-11.8,11-12.1
		c11.1-0.4,22.2-2.3,33.4-0.6c5.4,0.8,10.6-0.1,15.8-1.5c8.4-2.2,17.2-2.8,24.7-8.6c5.2-4,19.4-2.1,24,3c5.8,6.5,13.4,6.2,20.7,7.3
		c5.6,0.8,11.3-0.2,16.9,1.1c10.8,2.6,18.2,8.4,20.3,20c1.4,7.4,4.2,8.5,11.5,6.2c15.1-4.8,29.7-10.9,45.4-13.6
		c13.3-2.3,19.6,2.5,20.3,16c0.2,3.9,1.3,7,3.5,10.1c7.7,11,9,23.6,7.3,36.4c-0.8,6.2-0.2,10.7,3.9,15.9
		c12.4,15.4,17.2,33.9,19.5,53.2c2.3,18.9-1,37.5-3.3,56.2c-0.4,3.1-2,6.5,3.5,6.6c1.6,0,1.8,1.8,1.8,3.2c-0.1,2.2,0,4.4-0.5,6.5
		c-2.6,10.6-2.1,21.4-2.3,32.2c-0.1,4-1.4,5.3-5.4,4.9c-7.8-0.8-7.8-0.7-9.3,7c-2.9,15.1-7.6,29.5-14.4,43.3
		c-0.8,1.7-2.3,3.2-0.5,5.4c1.8,2.2,3.8,2.8,6.6,2.2c18.4-4.2,37.2-5.7,56-6.3c9-0.3,18,0.6,26.9,1.7c3.9,0.5,4.2,2.6,1.8,5
		c-4.6,4.5-9.8,7.9-16.8,7.4c-17-1.1-33.9,0.3-50.7,3.3c1.8,0,3.6,0.1,5.5,0c1.8-0.1,3.6-0.5,5.5-0.6c48-2.3,92.5,8.5,133.3,34.2
		c35.9,22.6,62.5,53.4,79.4,92.1c17.3,39.9,21.7,81.4,13,124.3c-3.2,15.8-7.8,31.1-14.5,45.6c-24.2,52.9-62.3,92.2-115.5,116.5
		c-30.3,13.8-62,21.3-95.2,21.7c-33.4,0.4-65.5-6.1-96.1-20c-24.1-10.9-45.5-25.7-64.1-44.5c-20.4-20.6-35.7-44.4-46.2-71.7
		c-10.6-27.6-15-55.9-13.5-85.2c0.3-5.3,0.9-10.6,1.7-15.9c0.5-3.4-0.7-4.7-4.1-5.3c-3.5-0.6-4.2,0.8-4.7,3.8
		C758,539.1,757.4,546.8,758.3,554.8z M385.7,631.6c-10.1-3.1-20.6-3.3-31.1-4.1c4,6,8.2,11.3,12.5,16.5c6.4,7.8,12,16.3,19.1,23.6
		c1.8,1.8,2.9,2.4,4.7,0.1c4.2-5.2,8.5-10.2,12.3-15.7c1.7-2.4,1.5-3.6-0.7-5.7C397.1,641.1,390.2,637.6,385.7,631.6
		c4.8,1.3,8.1,5.1,11.7,8.2c7.6,6.4,9.6,6.2,14.4-2c0.3-0.4,0.5-0.8,0.8-1.3c2.1-3.8,1.3-4.3-3-5.2c-6.9-1.5-13.7,1.4-20.5-0.3
		C388,630.7,386.8,631.4,385.7,631.6z M830.8,482.4c9.6,4,63.7,38.1,72.5,43.4c4.4,2.7,8.5,7.2,13.2,7.7c6.8,0.8,13.8-1.3,21.7-2.2
		c-1.9-2.1-2.9-3.4-4.1-4.6c-9.8-9.7-19.5-19.4-29.4-29.1c-7-6.9-13.3-14.7-21.2-20.3c-10.5-7.5-22.4-13.1-34-18.8
		c-2.1-1-3.3-0.8-4.6,1c-4.3,6.1-8.3,12.5-11.8,19.1c-1.2,2.4-0.5,3.5,1.6,4.8c3,1.8,5.9,3.6,8.1,6.4c-3-1.4-6.2-2.5-9-4.2
		c-2.7-1.6-4.2-1.1-5.3,1.7c-2.4,6-4.9,12-7.5,18c-1.5,3.4-0.3,5.1,2.6,6.8c5.4,3.1,11.4,4.8,16.7,7.8c17.4,9.7,36.5,12.9,56,14.6
		c4.7,0.4,9.5,0.3,14.8-1.1c-3.9-2.5-7.4-4.5-10.6-6.8C892.6,520.9,837.7,489.4,830.8,482.4z M992.7,607.6c-0.8,0.5-1.9,0.9-2.5,1.6
		c-5.1,6.6-9.8,13.5-15.2,19.7c-4.3,4.9-5.1,10.5-5.2,16.6c-0.1,8.7-0.2,17.3-0.4,26c-0.4,17-1,33.9-1.5,50.9c-0.1,3.7,1.7,5,5.2,5
		c4.3,0,8.7,0.1,13,0.1c9.7,0,9.7,0,10.5-9.8c2.3-28.2,4.6-56.3,6.9-84.5c0.3-3.9-0.1-7.5-2.4-10.9c-3.1-4.7-14.6-27.8-17.4-32.7
		c2.4-0.6,11.6,19.5,12.5,20.7c2.6,3.9,5,7.8,7.8,12.2c1.5-6.9,0.3-12.1-4.5-16.5C995.3,602.2,994.9,602.1,992.7,607.6z M98.7,461.6
		c-10.8-3.3-11.7,5.8-15.1,11.9c-0.2,0.4-0.4,0.9-0.6,1.4c-4.4,9.7-4.4,9.8,4.8,14.8c24.1,13.1,48.3,26.1,72.5,39.2
		c1.8,1,3.6,1.5,5.7,1.2c7.1-1.1,14.2-1.9,21.3-3c6.5-1,6.8-1.8,3.3-7.3c-0.6-1-1.4-1.9-2.2-2.7c-7.5-6.9-14.8-13.9-22.5-20.6
		c-4.4-3.8-8.2-8.3-13.7-10.7c-11.6-5-23.3-9.9-34.7-15.4C111.1,467.6,104,466.4,98.7,461.6c6.3,1,11.9,4.1,17.7,6.5
		c11.1,4.6,22,9.6,33,14.5c-14-13.4-28.4-26.3-42.8-39.1c-1.1-1-2.8-2.1-4-0.7c-3.1,3.9-6.5,7.8-8.6,12.2c-1.6,3.3,4.1,3.2,4.5,6.2
		C98.5,461.3,98.6,461.5,98.7,461.6z M1037.6,407.6c0.7-5.1,3.8-9.1,6.3-13.5c3-5.3,2.4-6.9-3.3-8.2c-4.2-1-8.5-1.7-12.8-2.4
		c-4.2-0.7-9.3,0.9-12.3-0.2c-6.6-2.3-13-2.2-19.4-2.2c-8.9,0-9.5,0.5-8.3,9.4c2.8,21,6.1,42,9.1,63c0.2,0,0.4,0,0.6,0.1
		c5.4-21.9,10.7-43.7,16.1-65.6c1.9-7.8,3.7-15.6,5.6-23.3c-1.4,12.2-3.4,21.9-4.9,28c-6.8,28.7-9.5,41.7-15.5,64.1
		c-1.6,5.8,0.1,11.2,1.7,17.8c1.3-1.9,1.9-2.7,2.3-3.5c11-21,19.7-36.4,22.1-42c13.3-30.8,34.4-56.9,34.7-56.7
		c0.3,0.2-10.5,19.5-23.9,40.9c-12.7,20.4-22.4,42.4-33.6,63.6c-0.9,1.7-1.2,3.3-0.9,5.3c1.6,9.9,3.1,19.7,4.7,29.6
		c1.1,6.8,1.1,6.8,7.6,3.9c1.8-0.8,3.7-1.6,5.5-2.4c13-5.8,24.6-13.1,28.2-28.4c0-0.2,0.5-0.2,1.2-0.5c-0.5,4.1-2.4,7.6-3.5,11.4
		c4.3-2.9,8.7-5.3,11.6-9.7c7.4-11.4,14.8-22.9,22.5-34.2c5.2-7.5,19.8-31.1,25.8-38c-0.2,2-11,19.4-12.2,21.1
		c-7.4,11-14.9,22.1-22.3,33.2c-3.4,5.1-6.5,10.3-9.8,15.4c18.1-13.2,45.9-35,64.2-47.7c-0.1,0.9-10.7,9.7-11.2,10.1
		c-17.6,13.6-35.3,27.3-53,40.8c-3.9,3-6.9,6.5-9.5,11.6c2.1-0.7,3.5-1,4.8-1.6c15.6-6.6,31.3-13.2,46.9-20
		c12.4-5.4,24.6-11.1,36.9-16.5c4-1.7,3.9-3.8,1.5-6.8c-2.4-3-4.5-6.2-6.9-9.2c-7.6-9.5-5.5-8.2-15.7-2.6c-0.2,0.1-0.5-0.1-0.8-0.2
		c1.1-3.5,6.7-5,5.6-8.6c-1-3.1-4.8-5.3-7.4-7.9c-1.2-1.2-2.5-2.2-3.8-3.3c-6.2-4.9-6.2-4.8-11.8,0.7c-0.6,0.6-1.3,1-2,1.4
		c0.6-2.1,0.7-4.4,2.3-6c2.7-2.6,1.6-4.1-1.1-5.7c-5.2-3-10.3-6-15.3-9.4c-4-2.7-6.1-1.5-8,2.6c-5.3,12.1-7.3,18.4-7.6,21.1
		c-2.1,20.8-26.6,72.9-26.9,72.8c-0.2-0.1,13.5-38.2,21.4-61.8c2.2-6.5,2.1-6.4,2.9-8.8c2.8-8.3,5.7-16.5,8.5-24.7
		c1.3-3.8,0.8-6.5-3.7-7.9c-5.2-1.6-10.4-3.6-15.4-5.9c-4.7-2.1-7.2-0.6-9.6,3.6C1043.6,398.4,1041.6,403.7,1037.6,407.6z
		 M1070.6,542.6c-2.7,1.4-5.3,2.9-8,4.3c24.1-15.2,37.3-23.7,45-28.7c2.5-1.6,5.9-3.8,10.9-7c12.1-8,24.8-14.9,36.4-23.6
		c1.9-1.4,3.7-2.7,2.2-5.7c-2.8-5.5-5-11.2-8.1-16.6c-2-3.6-4-4.4-7.9-2.6c-30.1,13.1-60.2,25.9-90.4,38.8c-2.1,0.9-3.4,2.5-4.8,4.2
		c-6.3,8.3-11.3,17.2-13.9,27.4c-0.9,3.4-2.6,6.4,2.7,8.3c-3.1,0.5-5.8,0.4-6.6,3.5c-0.9,3.2-2.1,6.3-2.9,9.6
		c-0.8,3.5,1.6,6.2,4.9,5.3c8.3-2.4,16.5-5.1,24.7-7.8c1.4-0.4,3.3-1.2,3.2-2.8c0-1.9-2.3-1.5-3.6-1.9c-5-1.4-24-5.7-29-7
		c2.6-1.9,18.8,2.3,20.9,3c7.7,2.4,14.5,4.2,23.1-0.4c2.7-1.4,3.6-1.9,3.6-1.8C1073.3,540.9,1071.9,541.7,1070.6,542.6
		c-4.1,2.7-7.1,5.8-7,6c0.1,0.2,5.1-4,5.4-3.7c0.1,0.1-0.5,0.8-2.1,2.5c5.8-0.6,10.7-4.4,16.2-4.4c0.1,0.4,0.2,0.9,0.4,1.3
		c-3.7,1.4-7.5,2.9-11.8,4.6c13.8,3.8,82.5,23.1,95.5,26.6c-0.1,0.5-56.1-14.9-56.2-14.4c-12.7-3.2-25.4-6.4-38.1-9.7
		c-3.2-0.8-6.1-0.8-9.3-0.1c-9.2,2.2-16.3,8-23.9,13.1c-3.6,2.4-2.9,3.8-0.3,6.3c11.9,11.3,24.5,22,36.1,33.6
		c11.5,11.6,23.6,22.5,35.6,33.6c5.8,5.4,12,10.6,17.8,16c2.3,2.1,3.8,2,5.5-0.6c2.9-4.5,6-8.8,9-13.2c2.2-3.1,4.3-6.2-1.1-9.3
		c7.2,2.7,8.3-2.6,10.3-6.5c1.4-2.7,2.6-5.4,3.8-8.2c4.3-10.1,3.9-10.6-7.4-11.7c-17-1.7-34.1-3.5-51.1-5.2
		c-0.8-0.1-37.7-4.7-37.7-6.4c1.5,0,38.6,4.7,40.1,4.9c18.5,1.8,37.1,3.7,55.6,5.5c5,0.5,7.2-1.5,7.6-6.8c0.3-4.3-2.8-5.4-6.1-5.6
		c-3.6-0.2-6.7-1.9-9.9-3.1c-1.1-0.4-2.1-1.3-1.7-2.7c0.3-1.1,1.4-1.5,2.4-1.5c3.7-0.1,7.3-0.3,10.8,1.4c2.6,1.3,6,3.3,7.7-0.7
		c1.3-3,3.6-7.2-2.3-8.7c-0.8-0.2-1.6-0.8-1.3-1.8c0.3-0.9-100-22.8-99.3-22.4c5.4,3.1,105.5,19.8,105.8,17.5
		c1-8.1,0.7-16.2,0.8-24.3c0.1-7.9-0.5-15.5-1.4-23.3c-0.4-3.4-2.2-4.2-5.2-3.4c-1.9,0.5-3.8,1.1-5.7,1.7
		c-21.9,7.4-43.8,14.9-65.8,22.2c-1.7,0.6-23.1,6.9-25,5.5c0.6-1.9,21.7-6.8,22.9-7.2c24.6-8.3,49.2-16.7,73.8-24.9
		c2.5-0.8,3.8-1.8,2.9-4.6c-1.9-6.2-3.8-12.4-5.6-18.6c-0.7-2.3-1.8-2.8-4.1-1.9c-2.1,0.9-4.4,1.2-6.4,2.6
		c-24.1,17-49.7,31.7-74.3,47.9C1074.5,541.8,1072.7,542.7,1070.6,542.6z M935.7,251.9c-1.1-1.5-2-2.5-2.7-3.6
		c-5-7.1-4.1-12.9,2.8-18.1c2.2-1.6,4.6-2.8,7.1-3.6c8.2-2.8,16.7-4.5,25.4-5.1c3.3-0.2,5.3-1.4,5.8-4.8c3.1-21.6,6.4-43.2,3.3-65.1
		c-2.4-16.5-7.7-32-18.3-45.3c-0.7-0.9-1.2-2.4-2.5-2.2c-1.7,0.1-1.5,2-1.9,3.1c-2.9,8.9-5.9,17.7-10.2,26
		c-18.9,37.4-42.5,71.9-67.4,105.5c-3.2,4.3-3.9,8.2-1.5,12.8c0.9,1.6,1.6,3.3,2.4,4.9c3.3,6.5,7.6,12.4,8.4,20.1
		c0.3,3.1,2.1,6.4,6.5,6.3c2.6-0.1,3.8,1.8,4.3,4.1c0.5,2.2,1.4,4.3,4,4.5c4.2,0.3,6.2,2.7,7.1,6.5c0.7,3,2.3,3.4,5.1,2
		c5.5-2.7,10.8-6,15.9-9.5c5.3-3.6,6.4-7.5,4.1-13.4c-1.3-3.4-3.2-6.6-5-9.7C923.1,258.5,925.1,253.8,935.7,251.9z M863.9,214.5
		c0.5,0.1,0.9,0.1,1.4,0.2c0.9-1.5,1.9-3,2.8-4.6c15.6-26.6,30.2-53.7,44.4-81c7.1-13.6,13.9-27.3,20.2-41.3c1.2-2.6,2-4.8-1.3-6.7
		c-16.8-9.8-34.8-16.3-54.4-19.2c3.6,7.1,3.5,7.6-2.6,13.8c-0.4,0.4-0.8,1.1-0.9,1.6c-1.1,4.1-4.1,6.7-7.5,8.2
		c-6.8,3.2-10.2,8.9-12.9,15.2c-1.6,3.8-4.1,6.4-7.2,9.5c0-2.8,1.4-4.3,2.2-6.1c2.6-6.1,6.5-11.6,8.3-18.1c0.3-1.2,1.1-2.9-0.2-3.7
		c-1.4-0.9-3.1,0-4,1.1c-3.8,4.4-7.5,8.9-7.3,15.3c0.2,5.4-0.8,10.5-3.6,15.3c-4.8,8.2-5.3,17.2-4.7,26.4c0.1,1.3,0.1,2.8,1.5,3.5
		c3,1.3,3.7,4.1,4.4,6.9c0.4,1.8,1.3,3.7,2.7,4c6.8,1.6,6.9,7.6,7,12.2C852.3,184.1,860.6,198.6,863.9,214.5z M487.8,409.1
		c-1.6-5.3-3.1-10.4-4.7-15.5c-4.1-13.4-8.3-26.7-12.5-40.1c-0.8-2.7-2-5.1-5.1-2.1c-11.8,11-23.5,22.1-35.3,33.1
		c-1.8,1.7-2,3.1-0.2,5c3.8,4,7.4,8.1,11.2,12.1c15.4,16.6,27.3,35.6,37.1,55.9c10.2,21.2,16.1,43.7,18.5,67.1c0.3,2.7,1,4.4,4,4.7
		c7.1,0.6,14.3,1.3,21.4,1.9c3,0.3,3.4-1.2,2.6-3.7c-1-3.2-1.9-6.4-2.9-9.6c-8.7-27.8-17.9-55.4-25.7-83.5
		c-1.6-5.9-8.2-10.2-5.6-17.4c0.1-0.3-0.3-1.1-0.6-1.3C486.6,414.3,486.2,411.9,487.8,409.1z M288.9,604.6
		c1.9,9.5,3.6,18.2,5.3,26.8c0.5,2.4,1.9,4.2,3.8,5.7c14.3,11.4,28.6,22.9,42.9,34.3c1.1,0.9,16.4,12.3,17.1,15.1
		c-16.3-13-45.7-35.9-61.1-48.1c-0.4,0.3-0.7,0.6-1.1,0.9c1.4,4.9,0.6,10.4,3.8,14.7c11.6,15.7,23.3,31.3,35.2,46.7
		c4.9,6.4,5.2,6.2,12,2.2c2.7-1.6,5.5-3.2,8.1-4.9c7.2-4.6,7.2-4.6,3.1-11.5c1.1-0.6-6.2-6.7-5.7-6c2.8,4.1,14.1,9.7,17.1,7.1
		c4.7-4,9.2-8.2,13.8-12.3c2.4-2.1,2.3-3.9,0.4-6.4c-10.5-13.3-20.9-26.8-31.4-40.2c-1.5-2-3.7-3.6-6-2.8c-6.2,2.1-8.1-1.7-9.7-6.3
		c-1.1-3.3-3.1-5-6.8-5.5c-3.6-0.5-7.4-1.6-10.8-2.7C309.2,608.7,299.3,607.2,288.9,604.6z M391.2,443.8c0,0,0-0.2,0-0.5
		c0,0,0,0,0,0c-0.2-0.9-1.3-1.9-5.5-7c-0.8-1-1.9-1.9-2.8-2.9c-2.2-2.8-4.1-2.4-6.6-0.1c-14.1,13.2-28.2,26.4-42.4,39.5
		c-3.1,2.9-5.5,6.3-9.2,8.9c-5.9,4.2-12.2,8.6-15.7,15.1c-3.7,6.9-6.1,14.4-9.2,21.5c-1.6,3.6,27.2,5.2,39.2,5.4
		c3.2,0,5.8-0.9,8.3-2.8c7.7-6.1,15.5-12,23.3-18.1c12.4-9.8,24.8-19.6,37.3-29.3c1.2-0.9,2.2-2.1,1.9-2.6
		C407.4,466.9,391.2,444.1,391.2,443.8z M280.8,644.6c2.4-7.3-2.2-15.2-8.8-22.6c-4.1-4.6-6.9-10.2-12-14c-2.6-2-4.1-1.8-5.9,1.1
		c-6,9.8-12.1,19.5-18.3,29.2c-2,3-2.4,6-1.7,9.5c1.7,8.1,3,16.4,4.7,24.5c3.5,16.6,5.6,33.5,10.2,49.8c0.6,2.2,1.1,4.3,3.9,4.3
		c6.8,0.1,13.6,0.4,20.4-0.4c3-0.4,4.2-1.8,4.3-4.9C278.6,696.5,279.7,672.1,280.8,644.6z M220.5,606.2c-0.4-2.6,1.6-6.8-4.1-5.3
		c-11.1,3-22.2,6-33.2,9.1c-3.6,1-6,3.2-7.9,6.4c-3.8,6.6-8.1,13-12.1,19.5c-8.9,14.4-18.5,28.5-26.9,43.2c-1.3,2.2-2.1,4.2,0.4,6.1
		c5.7,4.6,11.6,9,18,12.6c1.4,0.8,2.6,1.2,4-0.2c2.9-3,6.1-5.7,8.8-8.8c13.6-15.1,26.7-30.5,40.6-45.3c7.7-8.2,13.8-16.4,11.8-28.4
		C219.3,612.3,220.2,609.2,220.5,606.2z M1022.7,601.8c-0.1,0-0.1,0-0.2,0c0.6,8.6,1.2,17.3,1.7,25.9c0.1,2.1,0.9,3.7,2.4,5.3
		c6.8,7.5,13.5,15.2,20.3,22.7c11.7,13,23.5,25.9,35.2,38.9c2.5,2.7,4.7,3.1,7.7,0.8c3.7-2.8,7.7-5.3,11.4-8
		c7.4-5.6,7.6-5.8,2.3-13.2c-17.1-23.9-34.4-47.8-51.7-71.6c-1.2-1.6-2.5-3.2-4.4-3.9c-6.4-2.3-12.8-4.8-19.3-6.8
		c-5.1-1.5-6-0.6-5.6,4.5C1022.6,598.1,1022.6,599.9,1022.7,601.8z M990,480.5c2.9-8.1,6.6-15.8,5.3-24.2
		c-3.2-21.9-6.6-43.8-10.1-65.7c-1.4-9-2.5-9.5-11.3-7.9c-1.2,0.2-2.9,0.1-3,1.9c-0.1,1.3,1.2,2.1,2.3,2.3c3.4,0.8,6.1,2.3,6,6.2
		c-0.2,3.6-3.2,5.3-6.1,6.7c-2.7,1.3-5.6,1.9-6.8,5.3c-0.6,1.7-2.6,1.8-3.8,0.8c-4.2-3.5-7.5,0.3-11.1,1.1c-6.3,1.3-3.1,6.2-3.4,9.7
		c-0.1,0.8,0.2,1.6,0.4,2.5c6.7,30,16.3,59,27.4,87.6c0.9,2.4,1.4,6.4,3.9,6.4c3.1,0,3.3-4.1,4.2-6.6c4.6-12.8,7-25.4-0.5-38.3
		c-3.1-5.4-23.3-69.1-23.7-75.7C963.7,402.8,985.9,470.4,990,480.5z M90.9,585.6c0.4,0,0.9,0,1.4-0.1c1.7-0.2,3.6-0.4,4,1.8
		c0.4,2.2-1.6,2.6-3.1,3.2c-3.1,1.3-6.1,2.3-9.6,2.5c-8,0.5-9.1,2.7-5.9,10.1c0.9,2.1,2,2.7,4.2,2.1c2.7-0.7,5.6-1,8.3-1.5
		c26.3-4.9,52.7-9.4,79.2-13.4c2.1-0.3,3.9-1,5.3-2.5c4.9-5.2,9.7-10.5,14.6-15.7c1.9-2,2.1-3.5-0.9-4.8
		c-8.9-3.8-17.7-7.7-26.4-11.8c-3.3-1.5-6.3-1.3-9.7-0.3c-11.2,3.3-22.4,6.3-33.6,9.5c-14.5,4.2-29.3,7.5-43.6,12.6
		c-4,1.4-3.9,3.4-3.2,6.8c0.8,3.9,3.1,4.2,6.2,3.8C82.3,587.5,86.3,585.3,90.9,585.6z M872,238.2c2-0.9,2.9-2.5,4-3.9
		c17.1-22.6,33.2-45.9,47.6-70.2c9.7-16.5,19.8-32.9,25.4-51.4c5.2-17.1,6.6-11.6-7.3-24.2c-2.9-2.7-4.3-2.3-6.1,1.4
		c-5.7,12.4-11.7,24.7-17.9,36.8c-15.6,30.5-32.1,60.6-49.2,90.3c-1,1.7-2.2,3.5-1.6,5.6C868.5,227.8,869.6,233.2,872,238.2z
		 M818.1,598.6c2.3-0.3,3.3-0.3,4.3-0.5c27.7-3.9,55.4-7.8,83-12c4.5-0.7,9.6-0.2,13.4-3.3c5.5-4.6,10.5-9.7,15.8-14.5
		c2.8-2.6,2.4-4-1.2-4.8c-8.1-1.8-16.3-3.4-24.4-5.3c-3.1-0.7-6.1-1.1-9.4-0.5c-12.1,2.2-24.3,4.1-36.4,6.2
		c-15.7,2.7-31.5,5.4-47.2,8.1c-2.1,0.4-4,0.8-3.6,3.7c0.9,6.4,1.7,12.9,2.7,19.3C815.3,597.3,816.7,598.8,818.1,598.6z
		 M952.6,599.3c-6.5,1.6-12.9,3.5-19.4,4.8c-4.6,1-8.2,3.3-11.3,6.8c-11,12.2-22.2,24.3-33.3,36.5c-8.5,9.4-16.9,18.9-25.4,28.2
		c-1.9,2-2,3.3,0.1,5.3c4.9,4.6,10,8.8,15.4,12.7c1.8,1.3,3.1,1.5,4.6-0.4c1.1-1.4,2.6-2.6,3.9-3.9c18.5-19.5,36.4-39.4,55.6-58.2
		c8.8-8.6,10.6-18.7,11.9-29.6C954.8,600.1,954.7,598.9,952.6,599.3z M267.4,494.7c0.3,2.1,0.6,4.4,2.2,5.5c1.9,1.3,3.3-0.8,4.7-1.8
		c6-4.5,11.8-9.2,17.7-13.8c1.9-1.5,3.2-3.2,3.8-5.7c6.9-29,13.7-58,19.2-87.3c0.5-2.6,0.1-3.5-2.2-4.5c-6.5-2.8-13.2-4.6-19.9-6.6
		c-2.8-0.8-4,0.1-4.4,2.9c-0.8,4.9-1.8,9.8-2.7,14.7c-5.6,29.3-9.2,58.9-16.1,87.9C269,489,268.1,491.9,267.4,494.7z M224.3,289.7
		C224.3,289.7,224.3,289.7,224.3,289.7c-17.2,0-34.3,0-51.5-0.1c-3.5,0-5.7,0.8-4.4,4.9c2.2,7.3,4.4,14.7,6.5,22
		c0.9,3.3,2.7,4,5.9,3.3c8.6-2.1,17.2-4.3,25.9-5.5c4-0.6,7.9-2.5,11.9-2.1c5.2,0.5,10.3,0.6,15.4,0.5c14.9-0.5,29.6,1,44.3,3
		c3,0.4,3.8-0.5,4.5-3.4c1.4-5.5-1.7-10.4-1.5-15.7c0.2-6.1-1-6.8-7-6.8C257.6,289.7,240.9,289.7,224.3,289.7z M348.8,523.3
		c1.5,0.2,2.5,0.4,3.4,0.4c9.3,0,18.6-0.1,28,0c15,0.2,29.9,0.6,44.9,1.1c4.2,0.1,5.4-1.4,4.3-5.3c-1.2-4-2.2-8-3.2-12.1
		c-0.6-2.4-1.5-4-4.5-2.8c-1.1,0.5-3,1-3.5-0.5c-0.6-1.7,1.2-2.9,2.5-3.1c3.4-0.5,2.9-2.2,1.9-4.5c-2.2-5-4.2-10.1-6.5-15.1
		c-3.3-7.1-4-7.2-10.4-2.8c-0.5,0.4-1.1,0.8-1.6,1.2c-13.7,10.5-27.5,21-41.1,31.7C358.2,515.1,353,518.1,348.8,523.3z M914.8,587.1
		c-4.5,0.5-7.4,0.6-10.3,1.1c-16.6,2.5-33.2,5-49.8,7.6c-11.2,1.7-22.3,3.7-33.5,5.4c-3.5,0.5-4.6,2-3.3,5.4c2,5.6,3.9,11.3,5.8,17
		c1,3.1,2.7,3.9,6,3.3c13.8-2.5,27.1-7,40.8-9.6c8.7-1.6,16.4-4.7,22.9-11.1C899.7,599.8,906.8,594.1,914.8,587.1z M951.3,624.8
		c-15.5,16.4-29.9,31.7-44.3,46.9c-7,7.4-14.2,14.5-20.6,22.4c-1.9,2.3-2.1,3.7,0.7,5.4c5.2,3.3,10.5,6.4,16,9.3
		c2.6,1.4,4.3,1,6.4-1.3c12.1-13.5,22.7-28.3,34.2-42.3c0.6-0.8,1.3-1.7,1.4-2.6C947.1,650.5,949.1,638.4,951.3,624.8z
		 M1151.9,634.1c-2,1.9-95.4-33.3-96.3-31.5c-0.8,1.8,1.2,2.9,2.1,4.2c10.9,15.3,21.9,30.6,32.9,45.8c5.2,7.2,10.3,14.3,15.6,21.4
		c3.8,5,4.4,5,8.7,0.8c3.4-3.4,6.8-6.8,10.1-10.3c5.2-5.6,5.1-6.1-0.7-11.5c-17.5-16.4-34.9-32.8-52.3-49.2
		c-5.5-5.1-10.9-10.4-19.3-9.7c-1.1,0.1-2.5-0.9-3,0.7c-0.4,1.3,0.9,2.1,1.9,2.6C1054.5,598.8,1148.6,632.7,1151.9,634.1z
		 M300.4,315.6c-0.7,3.9,1.7,4.3,3.8,4.9c11.9,3.3,23.7,6.6,35.2,11c17.4,6.8,33.8,15.6,49.7,25.4c3.6,2.2,7.3,1,7.8-2.9
		c0.4-2.9,2-4.3,4.1-5.7c3.3-2.1,5-5.9,5.3-9.2c0.2-2.7-4.3-2.1-6.6-3.3c-1-0.5-2.2-0.9-3.3-1.2c-20.8-7.5-41.6-15-62.5-22.4
		c-1.8-0.6-3.5-1.4-5.7-0.2c-8.7,4.6-11.2,3.6-14.8-5.5c-1.4-3.5-4.8-3.1-7.4-4.2c-1.5-0.6-2.5,0.7-2.9,2.1
		C302.2,308.3,301.2,312.4,300.4,315.6z M250.9,383c0.2-1.4,0.4-2.6,0.5-3.9c0.4-2.9-0.8-4.5-3.8-4.5c-6.5,0.1-13,0.2-19.5,0.3
		c-2,0-3.1,1-2.8,3.2c0.6,4.6,0.7,9.2,2.6,13.7c3.7,9.1,7.1,18.3,10.7,27.4c0.7,1.9,1.5,3.8,2.7,6.9c3.1-13.8,5.8-26.1,8.5-38.4
		c-0.3,7.7-1.8,15.2-3.2,22.7c-1.2,6.9-4.1,14-3.1,20.5c1.4,8.5,5.9,16.6,9.4,26c1.9-8.9,3.4-16.3,5-23.8
		c3.6-17.3,7.3-34.5,10.9-51.8c0.4-1.9,1.5-4.2-1.1-5.2c-3.6-1.3-7.5-1.7-11.3-0.9c-3.2,0.6-2.4,4-3.6,6
		C252.4,381.8,252.3,382.8,250.9,383z M158.1,531.4c0-0.3-0.1-0.7-0.1-1c-24.3-13.1-48.5-26.2-72.8-39.3c-1.5-0.8-3.1-1.2-4.6-1.9
		c-2.1-1-3.4-0.5-4.2,1.8c-2.4,6.8-4.3,13.6-5.6,20.7c-0.2,1.3-0.4,2.7,1.1,3.5c2.9,1.6,5.7,3.4,8.8,4.7c10.9,4.6,22,8.7,32.7,13.5
		c5.7,2.5,11.1,3.6,17.3,2.4C139.8,533.8,149,532.8,158.1,531.4z M921.8,608.2c-0.2-0.3-0.5-0.6-0.7-0.9
		c-11.7,2.9-23.5,5.8-35.2,8.8c-0.8,0.2-1.5,0.7-2.1,1.2c-13.6,12-27.4,23.7-40.5,36.2c-1.9,1.8-1.6,3.1-0.2,5
		c3.9,5,8,9.8,12.2,14.5c2.6,2.8,4.1,2.6,6.6-0.2c13.5-14.7,27.2-29.2,40.7-43.8C909.1,622.1,915.5,615.2,921.8,608.2z M1007.1,632
		c-0.3,0.2-0.7,0.3-1,0.5c-1.8,20.9-3.7,41.7-5.3,62.6c-0.7,9.1-2.2,18.2-1.9,27.4c0.1,2.2-0.1,4.4,3.4,4.2
		c6.8-0.4,13.6-1.5,20.2-2.8c2.9-0.6,3.5-2.3,3.4-5.1c-0.9-18.6-1.6-37.2-2.4-55.8c-0.1-1.5-0.1-3.2-0.8-4.4
		C1017.5,649.7,1012.3,640.9,1007.1,632z M168.8,594.2c-0.2-0.4-0.4-0.8-0.6-1.3c-0.8,0-1.6-0.1-2.4,0c-21.8,3.7-43.7,7.3-65.4,11.4
		c-5.7,1.1-11.6,0.4-17.1,3c-2.6,1.2-3.3,2.3-2.2,4.8c2.6,6.5,5.7,12.8,9.2,18.8c1.3,2.2,2.5,2.7,5.2,2c16.3-4,32.2-9.6,48.4-14.1
		c1.2-0.4,2.7-0.9,3.5-1.8C154.6,609.6,161.7,601.9,168.8,594.2z M218.8,486.7c-0.4-3.4-0.7-7.1-1.3-10.7
		c-1.6-10.7-1.6-21.6-5.3-31.9c-5.6-15.6-11.3-31.3-17-46.9c-1.4-3.9-3.3-7.6-5.6-11.1c-2.6-4.1-5.6-0.9-8.4-0.3
		c-2.8,0.5-3.1,2.3-2.4,4.9c7.9,30,15.6,60,23.4,89.9c0.7,2.6,2,4.4,4.4,5.7c2.4,1.2,4.6,2.7,6.9,3.9c1.4,0.8,3.4,2.2,4.4,1.8
		C219.9,491,218.3,488.6,218.8,486.7z M191,477.1c0.3-0.3,0.5-0.5,0.8-0.8c-0.7-1.8-1.4-3.7-2.1-5.5c-6.7-16.5-13.3-33-20-49.5
		c-3.1-7.5-5.5-15.3-9.6-22.4c-1.4-2.5-2.6-3-5-1.4c-5.7,3.7-11.5,7.3-17.2,11c-2.6,1.7-3.4,3.6-1.5,6.6c3,5,5.4,10.3,8.1,15.5
		c5.8,11.2,11.6,22.3,23.1,29.2C175.7,464.8,183.2,471.3,191,477.1z M154.4,552.6c-11.2-4.7-21-8.8-30.9-12.8
		c-1.2-0.5-2.6-0.4-3.9-0.2c-15.8,2.5-31.7,4-47.4,7.1c-3.6,0.7-4.7,2.5-4.4,5.9c0.5,5.6,1,11.3,1.4,16.9c0.3,4,2.1,5.4,6.3,4.4
		c3.4-0.8,6.8-1.3,10.2-2.3c12.5-3.5,25-7,37.5-10.5C133.1,558.4,143,555.7,154.4,552.6z M217.6,636c-7.7,8.4-15.5,16.8-23,25.4
		c-10.5,12-21.6,23.5-31.5,36c-2.5,3.2-1.7,4.5,1.5,6.3c5.7,3.2,11.7,5.5,17.6,8.2c2.6,1.2,4,0.7,5.7-1.7
		c10.5-14.6,19.1-30.4,28.6-45.6c0.6-1,0.9-2.2,1.1-3.3C219,653.2,218.6,644.9,217.6,636z M967.4,641.1c-0.4-0.1-0.9-0.3-1.3-0.4
		c-6.1,7.7-12.2,15.3-18.2,23c-0.8,1.1-1.1,2.8-1.4,4.2c-2.5,14.1-5.6,28.1-7.3,42.3c-1.7,13.6-4,10.9,9.4,14.1
		c1.1,0.3,2.3,0.5,3.4,0.7c12.8,2.3,13.1,1.9,13.4-11.3c0.5-18.8,1.3-37.5,1.9-56.3C967.6,652,967.4,646.6,967.4,641.1z
		 M298.8,477.4c0.4,0.4,0.9,0.7,1.3,1.1c7.7-7.3,15.3-14.6,23-22c0.5-0.5,0.6-1.5,0.9-2.3c3.6-8.9,7.1-18,11-26.8
		c1.9-4.1,2.5-7.2-0.9-11.2c-4.2-5-1.8-9.7,4.8-10.1c2.4-0.2,2.3-1,1.8-2.8c-0.6-2.4-1.6-4.3-3.9-5.4c-2.8-1.4-5.6-3-8.4-4.4
		c-9.4-4.8-10.3-4.3-12.6,6c-3.7,17.1-7.6,34.2-11.3,51.2C302.6,459.5,300.7,468.4,298.8,477.4z M1026.1,635.9
		c-1.4,8.6-2.7,17.7,1,24.7c9,16.8,18.7,33.4,29.4,49.2c1.6,2.3,2.9,2.3,4.9,1.3c4.9-2.5,9.9-4.9,14.7-7.4c7-3.7,7.1-4.3,1.7-10.3
		c-7.8-8.7-15.5-17.3-23.3-26C1045,656.9,1035.5,646.4,1026.1,635.9z M284.3,637.7c-0.7,0.2-1.4,0.4-2.1,0.5c0,9.3,0.1,18.6,0,27.9
		c-0.3,17.8-0.8,35.6-1.3,53.4c-0.1,4,1.6,5.6,5.5,4.7c5.9-1.3,11.7-2.7,17.5-3.9c3.9-0.8,5.1-2.5,4.3-6.6
		c-3.7-17.7-7.6-35.5-10.5-53.4C296,650.7,288.7,645.3,284.3,637.7z M174.1,614.1c-0.2-0.4-0.4-0.9-0.7-1.3
		c-6.3,1.9-12.6,3.8-18.8,5.8c-2.7,0.8-5.6,1-7.7,3.3c-11.5,12.2-23.1,24.3-34,37.1c-1.6,1.9-1.3,3.1,0.3,4.6
		c4.9,4.8,9.8,9.5,14.5,14.5c2.4,2.5,4.2,2.2,6-0.5c3.6-5.4,7.2-10.8,10.7-16.2C154.3,645.6,164.2,629.8,174.1,614.1z M936.8,502.3
		c-3.7-7.4-7.5-14.7-10.9-22.2c-1.4-3.1-3.4-5.6-6.1-7.7c-14.8-11.4-29.4-22.9-44.2-34.3c-7.2-5.5-7.2-5.2-13.7,1.3
		c-2.5,2.5-2.3,3.7,0,5.9c9.8,9.3,20,18.2,28.9,28.3C903.4,487.6,920.9,493.4,936.8,502.3z M448.2,434.5c-0.8-0.8-1.6-1.6-2.3-2.6
		c-7.4-11.5-16.6-21.6-25.9-31.6c-1.1-1.2-2.2-4-4.1-2.2c-2.3,2.1,0.8,3.3,1.9,4.6c2.4,3,5.2,5.7,7.6,8.6
		c26.6,32.4,44.8,68.8,50.7,110.7c0.7,5,1,5.1,6.4,3.9c0.7-0.2,0.9,0.1,1.1,0.5c0.8,1.3,1.8,2.1,3.3,1.2c1.6-0.9,1.3-2.5,1.1-4
		c-2.6-18.4-7.1-36.2-14.1-53.4c-9.5-23.2-23.3-43.7-39.8-62.4c-3.1-3.5-6.2-7.1-10.9-9.1C431.7,410.7,441.7,421.4,448.2,434.5z
		 M230.9,645.6c-3.7,7.1-9.4,11.8-9.9,18.5c-1.5,18.4-2.3,36.9-2.4,55.4c0,2.5,0.7,3.8,3.2,4.1c4.8,0.6,9.5,1.5,14.3,1.9
		c11.1,0.9,11.1,0.8,8.8-10.5c-2.6-12.9-5.2-25.8-7.8-38.7C235.2,666.5,233.2,656.8,230.9,645.6z M923.5,42.7
		c-15.6,1.9-31.2,5.6-46.7,10.2c-1.3,0.4-2.7,0.9-2.7,2.5c0.1,2.5,2.3,2.6,4,2.9c19.2,3.8,37.7,9.6,54.7,19.7
		c2.2,1.3,3.6,1.1,4.6-1.5c2.7-7.5,4.8-15.2,6-23.1c0.5-3.4-0.7-5.7-3.9-7.2C934.6,43.7,929.4,43.2,923.5,42.7z M894,556.3
		c0-0.3,0-0.7,0-1c-1.4-0.4-2.8-0.9-4.3-1.2c-13.6-3-27.3-6-40.9-8.8c-10.3-2.1-20.4-6.2-31.4-3.7c-3.5,0.8-4.8,1.9-5.2,5.2
		c-0.7,6-0.3,12-0.6,17.9c-0.1,3.4,1,4.8,4.7,4.2C842.3,564.6,868.1,560.4,894,556.3z M339.5,592.2c4.8,3.1,7.6,8.5,13.5,10
		c10.5,2.7,21,5.4,31.3,8.5c4,1.2,8.3-0.6,11.7,1.5c5.1,3.2,10.9,4,16.4,5.6c8.4,2.4,8.5,2.3,11.2-5.9c0.9-2.8,1.7-5.7,2.7-8.6
		c1.2-3.3,0.1-5-3.5-5.3c-9.9-0.8-19.9-1.7-29.8-2.5c-1-0.1-2.2-0.4-2.8,0.5c-2.4,3.7-4.4,2.1-6.7-0.1c-2.8-2.7-4.8,3-7.6,0.9
		c-0.3-0.2-0.5-0.5-0.6-0.8c-0.8-1.4-2.2-1.3-3.5-1.4C360.9,593.8,350.2,593,339.5,592.2z M211.9,370.7c1.3,6.9-3.6,7.2-7.8,8.2
		c-5.6,1.3-6.3,2.5-4.4,8c1,3,2.3,5.9,3.2,8.9c2.3,7.5,6.1,14.4,10,22.3c-0.8-7.5,0.4-13.8-0.5-20.1c2.3,3,2,6.5,2.3,9.9
		c0.7,7.8-0.7,15.5,2.9,23.5c3.9,8.4,7.3,17,11.9,25.1c1.3,2.3,2,5,4.7,7.4c-2.5-16.9-4.9-32.8-7.2-48.7c-1.3-9.4-2.2-18.8-3.6-28.2
		c-0.6-4.1-2-9.6-5.7-10.1C213.6,376.1,211.8,375.3,211.9,370.7z M177.1,494c-6.2-10.9-12-21.1-17.9-31.3c-0.5-0.8-1.4-1.4-2.3-1.9
		c-14.9-8.4-29.9-16.7-44.8-25.1c-2.3-1.3-3.8-0.5-5.1,1.3c-1.7,2.5,1,3.3,2,4.2c13.1,12,26.5,23.7,39.5,35.8
		C156.7,484.6,165.3,490.8,177.1,494z M462.6,329.3c-0.1-2.3-0.6-5.5-2.4-7.8c-1.9-2.5-3.7-6.2-8.1-5.1c-1.6,0.4-4.2,1.5-4.4-0.1
		c-0.5-3.2-3.5-5.7-2.3-9.2c0.4-1.3,2.9-2.2,1.7-3.6c-1-1.3-3.1-0.5-4.8-0.2c-12.8,2-17.9,12.7-24.2,21.9c-1.2,1.7,0.2,2.7,1.8,3.3
		c10.4,3.6,20.5,7.9,31.2,10.5C456.4,340.3,462.5,335.4,462.6,329.3z M921.2,469.8c-2.9-5.6-5.7-11.3-8.6-16.9
		c-6.2-12-11.3-24.5-18.3-36.1c-1.5-2.6-2.9-2.8-5.1-1c-3.8,3-7.8,5.7-11.5,8.9c-7.6,6.5-7.8,7,0.5,13
		C892.7,448.1,906.9,458.8,921.2,469.8z M301.1,659.9c-0.4,0.1-0.8,0.3-1.2,0.4c1.3,7,2.5,14,4,20.9c2.3,10.7,4,21.6,7,32.1
		c1,3.6,2.9,4.4,6.2,3.1c5.1-2.1,10.1-4.2,15.3-6c3.5-1.2,3.7-2.8,1.9-5.8C324.2,688.9,311.7,675.1,301.1,659.9z M1026.7,665.2
		c0.1,6.8-0.5,13.4,0.2,19.9c1.1,10.4,0.3,21,1.8,31.4c0.6,4.1,1.8,6.2,6.4,4.3c2.4-1,5.1-1.5,7.6-2.4c14.1-5.1,14.1-2.7,6-16.5
		C1041.5,689.6,1034.1,677.4,1026.7,665.2z M1092.3,396.7c6.2,3.5,27.8,19.9,35,21.8c5.3,1.4,10.5,6.6,14.3,11.9
		C1144,433.7,1075.6,387.2,1092.3,396.7z M217.9,670.4c-0.5-0.2-1-0.3-1.5-0.5c-4.4,7-9,13.9-13.2,21c-4.1,6.9-8.9,13.2-12.1,20.6
		c-1.2,2.6-0.6,4,2.1,4.7c4.8,1.3,9.5,2.9,14.4,4.2c6.7,1.8,7.4,1.8,8-5.3C216.7,700.3,217.2,685.3,217.9,670.4z M414.2,373.9
		c2-0.1,3-1,4-1.8c6.8-5.9,13.4-11.9,20.3-17.8c2.9-2.5,1.9-3.5-1-4.6c-6.9-2.6-13.7-5.3-20.5-7.8c-2.2-0.8-4.8-3.5-6.7-0.7
		c-2.3,3.4-6,7.1-4.3,11.5c1,2.6,0.4,3.8-1,5.6c-4.3,5.7-4.3,5.7,1.4,10.4c1.5,1.3,3.1,2.5,4.8,3.6
		C412.2,373.1,413.4,373.5,414.2,373.9z M943.5,671.2c-0.4-0.1-0.8-0.3-1.2-0.4c-4.4,5.4-8.9,10.7-13.2,16.1
		c-5.1,6.4-10.3,12.7-15.2,19.2c-3.8,5.1-3.4,6.2,2.5,8.5c4.2,1.6,8.5,2.9,12.7,4.7c4.2,1.8,6.1,0.4,6.8-3.9
		c0.9-5.6,2.2-11.1,3.1-16.7C940.6,689.5,942,680.4,943.5,671.2z M878.1,618c-5.3,1.2-10.5,2.4-15.8,3.7
		c-10.5,2.5-21.2,4.4-31.5,7.8c-3,1-4.3,2.2-2.4,5.3c2.8,4.5,5.4,9.2,7.9,13.8c1.8,3.2,3.6,3.7,6.6,1.3
		C855.5,640.2,866.6,629.1,878.1,618z M143.6,621.7c-7.3,2-13.2,3.5-19,5.3c-9.1,2.9-18.7,4.6-27.4,9c-2.4,1.2-2.9,2.2-1.3,4.4
		c3.2,4.4,6.5,8.8,9.4,13.4c2.3,3.6,4.6,3.7,7.5,0.9C123.4,644.7,132.9,633.6,143.6,621.7z M116.2,536.9c-7.2-3.1-13-6-19.1-8.1
		c-8.1-2.9-15-8.6-24.1-9.3c-3.1-0.2-3.9,0.6-4.1,3.2c-0.3,4.5-0.9,9-1,13.4c-0.3,8,1.3,9.3,9.4,7.9c8.2-1.4,16.4-2.9,24.6-4.3
		C106.3,539.1,110.8,538.8,116.2,536.9z M772.2,509.2c0.3-0.9,0.6-1.5,0.7-2.1c2.9-9.2,5-18.8,9-27.5c7.3-15.7,16.6-30.4,27.2-44.2
		c4.1-5.3,8.3-10.4,12.5-15.6c1-1.2,1.9-2.4,0.4-3.9c-1.5-1.6-2.5-0.7-3.7,0.5c-1.4,1.5-3,2.7-4.3,4.2
		c-23.9,27.5-41.6,58.5-51.2,93.9c-0.3,1.2-1.4,2.7,0.3,3.5c1.8,0.8,2.8-0.6,3.3-2.1c1.3-3.6,2.6-7.2,4.1-11.5
		C771.7,506.3,770.6,507.8,772.2,509.2z M930.6,477.6c0.6-2.3-0.7-4.1-1.3-5.9c-6.9-20.3-13.9-40.6-20.8-60.9
		c-1.9-5.7-2.2-5.9-7.4-2.7c-3,1.8-6.4,2.7-3.8,8.1c9,18.9,18.3,37.7,27.6,56.4C926,474.8,927.4,477.3,930.6,477.6z M84.3,391
		c0.8-0.5,2-1.2,3-2c2.9-2.5,5.7-5.2,8.6-7.6c17.8-15.1,37.8-26.5,59.1-35.9c3.4-1.5,3.3-3.2,2.3-6.2c-1.2-3.4-3-2.6-5.4-1.8
		c-9.2,3.1-17.7,7.7-26.4,11.8c-1.4,0.7-3.6,1.1-2.9,3.4c1,2.9-1.2,3.4-2.8,4.4c-9.4,6-18.4,12.7-26.8,20c-3.5,3-6.8,6.4-10.1,9.6
		c-0.8,0.8-1.7,1.7-1,3C82.3,390.5,83,391,84.3,391z M946.1,582.7c-9,1.2-16.7,2.2-24.4,3.2c-1.7,0.2-3.2,0.8-4.5,2
		c-8.1,7.1-16.3,14.2-24.4,21.3c-0.7,0.6-2.1,1.2-1.4,3c8.5-2.1,17.1-4,25.6-6.3c3.5-0.9,7.4-0.7,10.2-3.5
		C933.2,596.2,939.1,590,946.1,582.7z M961.1,275.6c-2.8,4-5.4,6.1-8.2,8.3c-3.8,3-10,3.3-11,9.7c0,0.3-0.9,0.7-1.2,0.6
		c-6.2-1.3-7.5,3.6-9.6,7.4c-4.4,8.2-2.6,11.4,6.6,11.4c2.8,0,4.5,0.6,5.3,3.3c0.3,1.1,0.5,2.4,2,2.5c1.6,0.1,2.4-1.1,3-2.3
		c2.5-4.9,5.1-9.7,7.6-14.6c0.3-0.6,0.7-1.5,0.5-1.8c-2.3-3.3,0.2-6.1,0.9-9C958.2,286.5,961,282.3,961.1,275.6z M128.3,537.9
		c0,0.4-0.1,0.8-0.1,1.2c9.5,3.9,19.1,7.8,28.6,11.7c0.9,0.4,2,0.7,2.9,0.4c7.6-2.2,15.2-4.5,24.2-7.1c-7.6-4-13.8-7.4-20.1-10.6
		c-0.7-0.3-1.6-0.3-2.4-0.2C150.3,534.8,139.3,536.4,128.3,537.9z M200.7,504.5c-2-6.5-3.6-11.5-5.1-16.6c-0.6-2.1-1-4.2-2.8-5.7
		c-8.8-7.3-19.1-12-30-18c5.9,10.5,11.1,19.7,16.3,29c0.7,1.3,1.5,2.6,3,3.3C187.9,498.9,193.7,501.4,200.7,504.5z M220.6,591.5
		c0.1-7.5,0-7.6-6.5-6.6c-5.7,0.9-11.5,2-17.2,3c-2.2,0.4-4,1.4-5.3,3.4c-2.6,4.1-5.2,8.1-7.8,12.2c-0.6,0.9-1.8,2-1,3.1
		c0.9,1.3,2.4,0.5,3.7,0.2c9.5-2.7,18.9-5.6,28.4-8C219.3,597.7,221.6,595.6,220.6,591.5z M558.5,524.8c-1.3-0.1-2.5-0.2-3.7-0.3
		c-4.9-0.4-6.6,1.9-5.3,6.6c0.9,3.4,3.5,3.8,6.1,4c9.2,0.8,17.9,3.1,26.5,6.2c1.7,0.6,3.2,1,4.6-0.5c3.5-3.6,7-7.1,10.4-10.7
		c1-1,0.3-3.5-0.2-2.9c-3.8,3.9-7.8,1.9-11.9,1.4c-0.2,0-0.5,0.4-0.7,0.7c-1.7,1.9-3.4,1.9-5-0.2c-1-1.3-2.5-1.8-3.9-1.9
		C569.8,526.5,564.3,524.4,558.5,524.8z M948.2,658.3c14.8-13.5,24.7-28.5,19.2-50.3c-3.6,3.7-6.8,7.1-9.9,10.4
		c-1.4,1.6-3.2,2.8-3.6,5.2C952,635.1,950.1,646.5,948.2,658.3z M873.1,49.6c11.7-2.8,21.9-5.5,32.3-7.6c11.7-2.4,23.6-5.2,35.2,0.9
		c2.2,1.2,2.9,0.2,3-2.1c0.2-6.9-4-11.4-11-11.3c-2.6,0-5.3,0.3-7.9,0.8c-13,2.6-25.1,7.7-37.6,11.9
		C882.5,43.9,878.1,45.7,873.1,49.6z M162.8,552.4c0.3,0.7,0.4,1.2,0.6,1.3c6.4,2.9,12.7,5.7,19.1,8.5c12,5.2,12,5.2,20.3-5.1
		c0.3-0.4,0.7-0.7,1-1.1c0.5-0.6,0.5-1.3-0.2-1.7c-5.7-3-11.1-8.3-17.4-7.9C178.4,547,170.7,550.3,162.8,552.4z M869.6,536.1
		c0.1-0.3,0.3-0.5,0.4-0.8c-2.1-0.9-4.1-2.2-6.2-2.7c-15.1-3.6-30.5-5-45.7-7.5c-3.2-0.5-3,2.3-3.5,4.4c-0.5,2.1-1.3,4.6,1.7,5.3
		c5.3,1.3,10.7,3.3,16.1,3.3C844.8,538,857.2,536.9,869.6,536.1z M1038.8,507c-12.1,3.4-19.8,12.1-29.1,18.5c-0.6,0.4-1.3,1.4-1.2,2
		c0.3,2.9,1,6,4,7c3.3,1.1,7.6,4.1,10.2,0.7C1029.3,526.9,1037,518.9,1038.8,507z M882.3,538.3c9.7,4.4,18.5,8.2,27.2,12.4
		c9,4.2,17.1-0.4,26.8-1C925.5,541,896.7,535.1,882.3,538.3z M243.1,437.2c-6.3,21.2-8.1,35.8,1.8,46.4c1.4-3.4,2.9-6.5,3.9-9.8
		c1.4-4.6,3.7-9.3,2.3-14.1C248.9,452,245.8,444.7,243.1,437.2z M908.7,554.6c0.2-0.7,0.4-1.3,0.6-2c-8.8-3.8-17.5-7.7-26.4-11.4
		c-2.7-1.2-5.2-3-8.4-2.9c-10.9,0.5-21.8,1-32.7,1.6C864,545.6,886.1,551.2,908.7,554.6z M190.4,589.1c-10,0.8-18.3,2.3-23.9,10.7
		c-2.8,4.2-6.9,7.6-10.4,11.3c-1.3,1.4-2.8,2.6-3.3,5.2c7.8-2.3,15.1-4.4,22.3-6.6c0.9-0.3,2-0.8,2.5-1.5
		C181.8,602.2,185.8,596,190.4,589.1z M187.4,459.8c0.3,0,0.6-0.1,0.8-0.1c-0.2-0.8-0.3-1.5-0.5-2.3c-5.4-20.9-10.8-41.8-16.3-62.7
		c-0.5-1.8-0.3-5.1-3.7-3.5c-2.6,1.3-7.1,1.4-5,6.6C171,418.5,179.2,439.2,187.4,459.8z M970.9,630c6.5-6.7,11-13.4,16-19.7
		c1.8-2.3,5.1-4.3,2.2-8.1c-2-2.6-3.7-5.5-5.6-8.2c-0.4-0.6-1.2-0.6-1.8-0.1c-3.9,3.5-8.7,6.5-9.9,12
		C970.3,613.5,970.6,621.1,970.9,630z M947.4,52.6c-1.7,10.1-3.9,18.4-7.2,26.4c-0.6,1.4-1.1,2.9,0.4,4.1c4.3,3.5,8.7,6.9,13.5,10.8
		C956.5,79.3,956.4,66,947.4,52.6z M1020.5,626.1c0.4-0.1,0.7-0.3,1.1-0.4c-0.7-11.6-1.4-23.2-2.3-34.8c-0.2-3.2-3.1-3.9-5.6-3.7
		c-2.4,0.2-4.7,0.7-4.7,4.4c0,5.5-0.8,10.9-1.2,16.4c-0.1,2-0.2,4,1.4,5.6C1013,617.7,1016.8,621.9,1020.5,626.1z M293.9,590.8
		c-0.8,0-1.7-0.1-2.5,0c-1.7,0.4-4.5-1.2-4.7,2c-0.1,2.5,1,4.9,3.8,5.1c3.6,0.2,6.7,1.6,10,2.6c8.2,2.3,16.7,2.9,24.8,5.9
		c2.3,0.8,6.9,2.5,7.8,0c1-2.9-2.6-5.7-5.3-7.7c-0.1-0.1-0.3-0.2-0.5-0.2C316.2,595.8,305.4,592,293.9,590.8z M275.3,412.7
		c-10,17.6-12.5,37.2-16.3,56.5c-0.8,4.1,1.1,7.9,4,12C268.7,458,271.1,435.2,275.3,412.7z M149.1,446.1c0.4-0.4,0.7-0.7,1.1-1.1
		c-5.6-9.3-10.2-19.3-16.5-28.2c-1.2-1.7-2.4-3.7-4.7-1.6c-3.2,2.9-7.7,4.6-8.9,9.3c-0.1,0.3,0.8,1,1.3,1.4
		C130.6,432.6,139.8,439.3,149.1,446.1z M232.3,636.9c0.4,0.1,0.8,0.2,1.2,0.3c6.5-10.2,12.9-20.4,19.4-30.6
		c1.4-2.2,0.6-3.6-1.2-5.1c-1.7-1.4-2.8-0.9-4.2,0.6c-5.3,5.8-10.6,11.4-16,17.2c-1.1,1.1-1.9,2.4-1.6,4
		C230.7,627.8,231.5,632.4,232.3,636.9z M873.1,308.3c-2.9-2.6-5.4-3.2-7.9-3.2c-5.6,0.1-7.9-3.2-9.3-8c-1.7-6.3-3.7-12.4-5.4-18.7
		c-0.8-3-1.8-3.3-3.8-0.8c-2.5,3.1-4.9,6.3-7.6,9.3c-2.2,2.4-1.8,4.1,0.4,6.3C848.6,302.1,859.5,306.7,873.1,308.3z M993.4,495.7
		c-4.1,4.4-8.8,14.7-9.4,19.8c-0.1,1.2,0,2.3,0.7,3.3c3.7,5.4,10.7,6.5,16,2.5c1.4-1,1.9-2.3,1.3-3.9
		C999.3,510.2,997,502.8,993.4,495.7z M281.4,611.7c0.9-5.5,0.5-9.6-6.7-10.7c-3-0.4-6.4-1.1-9.5-1.9c-1.5-0.4-3-1.8-4.5,0.1
		c-1.5,2-0.6,3.7,0.6,5.4c3.1,4.4,6.8,8.2,11.3,11.1c2.5,1.6,4.5,6.1,7.5,4.6C283,619,280.8,614.6,281.4,611.7z M184,500
		c-0.3,0.4-0.5,0.7-0.8,1.1c1.6,3.1,3.4,6,4.8,9.2c2.5,5.8,7.5,9.2,12,13c2.2,1.8,4.7,1.3,7.1,0.5c1-0.3,2.1-1,1.6-2.1
		c-2.1-5-2.9-11.1-7.7-14.1C195.8,504.4,189.8,502.5,184,500z M921.9,583c9.3-0.3,17.1-2,25.1-2.9c3.6-0.4,5-3.6,7.2-5.7
		c0.9-0.8,0.5-2-0.7-2.4c-2.1-0.7-3.4-2.9-5.4-3.5c-3.1-0.9-6.3-4.1-9.7-0.9C933.2,572.3,928,577.2,921.9,583z M156,457.9
		c0.2-0.3,0.4-0.5,0.6-0.8c-0.9-1.4-1.6-3-2.8-4c-11-8.8-22.6-16.9-34.2-24.9c-2.8-2-4.6-0.5-6.2,1.8c-1.9,2.8,0.7,3.5,2.2,4.4
		C129,442.2,142.5,450.1,156,457.9z M168.5,531.9c0,0.3-0.1,0.7-0.1,1c4.9,2.4,10.2,4.3,14.5,7.5c5.6,4.2,10.2,1,15.2-0.6
		c0.5-0.2,1.2-0.8,1.3-1.3c1-2.8-4.9-10.1-8-9.7C183.8,529.8,176.2,530.9,168.5,531.9z M239.3,594.8c-2.9,0.9-7.1,2.1-11.2,3.4
		c-1.9,0.6-2.3,2.2-2,4c0.8,4.3,1.6,8.5,2.3,12.8c0.5,2.9,1.6,3,3.4,1c4.2-4.7,8.4-9.5,12.5-14.2c1.1-1.3,2.8-2.7,1.5-4.8
		C244.7,595,242.7,594.6,239.3,594.8z M1021.3,651.3c1.3-10.8,2.8-21.5-7.2-28.9c-2.2-1.6-3.6-6.3-5.8-5c-2.9,1.6-1.2,6-1.3,9.3
		c0,0.5,0.2,1,0.4,1.4C1011.9,635.8,1016.6,643.6,1021.3,651.3z M931.3,601c0.2,0.4,0.5,0.8,0.7,1.1c5.1-1.3,10.1-3,15.3-3.9
		c6-1,9.7-3.6,9.5-10.2c-0.1-2,1.8-4.6-0.8-5.8c-2.4-1.1-5.4-1-7.5,1.1C942.7,589.1,937,595.1,931.3,601z M948.6,528.4
		c-4.7-11.2-7.7-23.6-21.5-27.9c-3.6-1.1-6.7-3.7-10-5.5c-0.8-0.5-1.8-1.7-3.2-0.1C924.5,507,937.3,516.8,948.6,528.4z M413.2,573.6
		c0-0.2-0.1-0.4-0.1-0.6c-5.4-0.9-10.8-1.8-16.2-2.7c-20.3-3.3-40.7-6.6-61-9.8c-1.2-0.2-2.9-1.2-3.2,0.9c-0.2,1.6,0.1,3.4,2.2,3.9
		c0.8,0.2,1.7,0.2,2.5,0.3c10.9,1.2,21.8,2.4,32.7,3.6C384.5,570.6,398.9,572.1,413.2,573.6z M1038.3,591.6c1-0.2,2.9,0.7,3.8-0.7
		c0.9-1.5-0.8-2.7-1.6-3.8c-2.5-3.5-5.2-6.9-7.6-10.4c-3.8-5.5-5.9-5.5-10.4-0.2c-2.4,2.9-1.5,9.8,1.8,11.4
		C1028.5,589.9,1032.9,591.8,1038.3,591.6z M229.7,402.5c-0.4,0-0.9,0.1-1.3,0.1c2.1,16.7,4.4,33.4,7.6,49.9
		c1.3-5.1,2.2-10.1,3.1-15.2c0.5-2.6,1.8-5.1,0.8-7.8C236.6,420.5,233.2,411.5,229.7,402.5z M327.1,452.9c0.3,0.1,0.6,0.3,0.9,0.4
		c6.3-5.9,12.5-11.9,19-17.6c3.2-2.8,0.4-4.6-0.3-6.9c-0.9-3.1-2.3-0.6-3.3-0.3c-3.8,1.1-4.3-1.4-4.5-5.1
		C334.7,433.8,330.9,443.3,327.1,452.9z M937.1,279.7c3-5.6,6.5-10.1,7.5-15.9c0.5-3.2-0.9-5.7-3.7-6.9c-3.3-1.5-6.6-0.3-9.4,1.6
		c-2.6,1.7-1.6,4.5-0.7,6.8C932.7,269.8,934.8,274.4,937.1,279.7z M874.8,374.4c-1.9-1.3-3.7-1.8-4.3-0.6c-1.8,3.9-5.8,4-8.8,5.9
		c-12.1,7.4-22.7,16.8-33,26.4c-0.7,0.7-2.5,1.2-1.2,2.7c0.8,0.9,2.2,0.9,3.3,0.4c1.2-0.6,2.2-1.5,3.2-2.3
		c5.6-4.7,11.2-9.4,16.7-14.2C858.2,386.1,866.7,380.7,874.8,374.4z M546.7,584.4c-0.1-5.1-3.1-6.9-7.2-4.6
		c-5.4,3-9.8,6.9-12.1,12.7c-0.5,1.2-2.8,2.9-0.3,4.1c2.3,1.1,5.3,3.8,7.6,0.9c3.3-4.2,7.4-7.5,11.2-11.2
		C546.4,585.6,546.6,584.8,546.7,584.4z M1060.1,593c-8.2-7.6-15.7-14.6-23.2-21.6c-0.4-0.3-0.7-0.7-1.1-1c-1-0.9-2.2-1.9-3.5-0.8
		c-1.5,1.3-0.2,2.4,0.6,3.4c3,4,6.6,7.6,8.8,12C1045.6,592.5,1051.8,593.7,1060.1,593z M221.2,656c9.3-11,11.1-20.5,5.5-30
		c-1.8,1.9-4.5,3.5-4.6,6.2C221.7,640,220.2,647.8,221.2,656z M954.8,616c0.4,0.2,0.8,0.3,1.3,0.5c3.8-3.9,7.8-7.7,11.4-11.8
		c2.3-2.7,2.6-6.2,0.9-9.2c-0.8-1.6-10.9,2.2-11.3,4.3C956.2,605.3,955.6,610.7,954.8,616z M849.6,527.4c0.1-0.3,0.2-0.6,0.3-0.9
		c-8.8-3.8-17.7-7.7-26.5-11.5c-2.3-1-4.8-3-5.9,1.6c-0.9,3.6-0.6,5.6,3.7,6.2C830.6,524.1,840.1,525.8,849.6,527.4z M918.8,554.4
		c6.4,4.7,12.8,5.6,19,6.9c3.9,0.8,7.4-1.1,7.8-4.3c0.5-3.5-3.6-4.4-6.6-5.3c-0.2,0-0.3,0-0.5,0
		C932.3,552.6,926.2,553.4,918.8,554.4z M902.8,490.3c-0.6,1.5,0.6,2.2,1.3,3c4.8,5.7,10.5,10.4,15.7,15.7
		c6.7,6.9,13.3,13.9,20.5,20.3c1.4,1.3,2.8,3.9,4.7,1.7c1.3-1.4-1.3-2.7-2.4-3.7c-12-11.8-24-23.5-36.1-35.1
		C905.5,491.2,904.7,489.6,902.8,490.3z M219,462.2c-0.3,0.1-0.5,0.2-0.8,0.4c0.9,7.6,1.7,15.2,2.6,22.7c0.3,2.6,0.7,5.3,1.2,7.9
		c0.4,2,1.8,3.3,3.8,3.5c2.2,0.2,1.8-2,2.3-3.3c1.4-3.5,1-6.8-1-10c-1.1-1.7-1.4-3.6-2.1-5.5C223.2,472.6,221,467.4,219,462.2z
		 M178.2,588.1c9.7,0.4,16.1-3,19.7-11.4c0.6-1.5,2.1-2.9,0.1-4.3c-1.7-1.2-3.6-1.9-5.4-0.1C187.8,577.1,182.7,581.7,178.2,588.1z
		 M873.4,467.7c-4.8-7-10.9-12.9-17.1-18.6c-2.9-2.7-3.7,1.3-5.2,2.6c-1.7,1.4-2,2.8,0.3,4.3C858.3,460.6,865.8,464.1,873.4,467.7z
		 M962.5,267.4c-2.8-2.1-4.8-0.4-6.5,1.8c-1.8,2.2-3.8,3.6-6.8,3.2c-1-0.2-2.2-0.3-2.8,0.6c-2.8,4.3-5.7,8.5-7.2,14
		C949.9,283.1,956.3,275.4,962.5,267.4z M305.2,499c-6.9,7.1-15.7,11.2-15.5,21.9c0,1.6-0.8,3.5,1.5,4.2c2,0.6,3.3-0.6,4-2.2
		C298.7,515.4,302.4,508.1,305.2,499z M949.2,542.4c-3.3-3.2-5.1-8.3-10.2-8.3c-6.3,0-12.6,0.8-18.9,1.3
		C929.1,540.9,939.2,541.2,949.2,542.4z M380.5,369c-24.3-16.9-51-28.4-79.8-34.9C329.2,341.2,355.5,353.7,380.5,369z M969.6,586.1
		c-0.7-1.9,1.6-5.7-2.6-6c-3.5-0.2-7.5,0.1-7.6,5.5c0,2.3-0.7,4.6-1.1,6.9c-0.2,1.3-0.2,2.2,1.6,2.3
		C965.5,595.1,969.5,591.8,969.6,586.1z M337.3,305.3c-0.1,0.4-0.2,0.9-0.3,1.3c24.2,8.6,48.4,17.2,72.6,25.8
		C385.9,322.3,361.7,313.4,337.3,305.3z M356.7,606.1c7,10.3,17.7,9.1,27.4,10.3c0.8,0.1,1.7-0.3,1.7-1.3c0-1-0.8-1.4-1.6-1.6
		C375.2,611,366.4,607.7,356.7,606.1z M333.9,601c6.7,8.1,16,10.8,26.3,12.1C353.2,604.9,344.2,601.6,333.9,601z M152.1,319.1
		c0-3-3.9-11.3-5.1-11.2c-1.8,0.2-6.8,7.3-6.5,10.1c0.3,3.5,2.8,5.2,6.1,5.3C149.4,323.3,151.4,321.7,152.1,319.1z M374.8,590.5
		c0.1-0.6,0.1-1.1,0.2-1.7c-14.5-1.4-29-2.8-43.5-4.2c-0.1,0.7-0.1,1.5-0.2,2.2C345.5,590.5,360.3,589.2,374.8,590.5z M319.1,587.2
		c-0.8-2.9-2.3-4.1-4.5-4.3c-7.9-0.7-15.9-1.4-23.8-2c-1-0.1-2.6-0.6-2.8,1.1c-0.1,1.4,1.3,1.9,2.4,2.1
		C299.7,586,309,587.1,319.1,587.2z M219.2,581.3c-3.8-1.6-6.4-2.7-8.9-3.9c-8.1-3.6-9.6-2.9-13.2,5.2c-1,2.2-0.3,2.8,1.8,2.4
		C205.2,583.9,211.5,582.7,219.2,581.3z M270.7,412.5c5.3-9.8,9.6-19.9,10.4-31c0.1-1.5,0.6-3.2-1.4-3.7c-2-0.4-1.9,1.4-2.2,2.6
		C275.2,391.1,273,401.8,270.7,412.5z M207.4,494.3c-0.3,0.3-0.7,0.6-1,1c0.8,2,1.4,4.1,2.3,6c1.9,4,3,8.4,8.1,10
		c3.4,1.1,4.8,0.8,4.1-3.1C219.5,500.3,212.1,498.8,207.4,494.3z M291.4,630.9c-2.1-9.4-2.9-18.1-6-27.3
		C281.3,614.7,283.7,625.9,291.4,630.9z M999.2,483.3c-2.6,3.4-5.2,6.5-4.5,9.2c2,7.3,5,14.3,7.7,21.4c0.4-0.1,0.8-0.3,1.2-0.4
		C1002.2,503.8,1000.8,494.1,999.2,483.3z M318.5,563.5c1.3-0.4,3.6,1.3,4.2-0.9c0.4-1.2,0.9-4.1-1-4.3c-5.3-0.7-10.6-3.3-15.9-0.2
		c-0.9,0.6-2.4,0.9-2,2.4c0.4,1.3,1.6,1.6,2.7,1.7C310.5,562.8,314.5,563.1,318.5,563.5z M580.6,627.9c-4.2,4.7-10.8,6.3-15.9,10.3
		c-0.6,0.5-0.8,1.6-0.3,2.3c0.7,1,1.8,0.6,2.8,0.4c4.6-1.1,8.8-2.9,12.6-5.8c1.7-1.3,2.7-2.9,2.7-5.1
		C582.4,629.1,582.5,628,580.6,627.9z M919.2,369.2c0.7-0.2,1.3-0.4,2-0.7c-4.7-14.2-8.5-28.7-13.9-42.6c-0.6,0.2-1.1,0.4-1.7,0.5
		C910.1,340.7,914.6,355,919.2,369.2z M1004.1,608.4c0.4-0.2,0.8-0.4,1.2-0.6c0.4-4.1,0.9-8.1,1.3-12.2c0.1-0.5,0-1,0-1.5
		c-0.1-2.3-0.9-3.1-3.1-1.7c-5.7,3.7-6.3,8.1-1.8,12.8C1002.6,606.2,1003.3,607.3,1004.1,608.4z"/>
</g>
</svg>
