<?xml version="1.0" encoding="utf-8"?>
<!-- Generator: Adobe Illustrator 21.0.2, SVG Export Plug-In . SVG Version: 6.00 Build 0)  -->
<svg version="1.1" id="cross" xmlns="http://www.w3.org/2000/svg" xmlns:xlink="http://www.w3.org/1999/xlink" x="0px" y="0px"
	 viewBox="0 0 1685.5 1046" style="enable-background:new 0 0 1685.5 1046;" xml:space="preserve">
<path style="fill:#fff" d="M574.1,301.9c2.8-3.1,6.5-3.5,9.6-4.9c6.7-3.1,8-6.1,5.9-13c-11.3-35.9-22.6-71.8-33.8-107.7c-0.9-2.7-1.5-3-4.7-2.4
	c-7.6,1.5-15.3,4.4-23.2,1c-5.6-2.4-8.8-6.7-9.8-12.4c-0.9-5.2-3.6-6.1-8-5.3c-2.8,0.5-5.6,0.8-8.4,1.2c-4.3,0.7-8.8,0.1-11.9-2.5
	c-5.2-4.5-11.6-6.4-17.3-9.8c-6.3-3.8-12.3-7.9-19-11.1c-8.1-3.8-16.5-6.8-25.3-7c-7.2-0.2-12-3.8-16.9-8c-1.3-1.1-1.3-2.6-0.9-4.2
	c1.7-7.6,7.8-13,15.7-12.9c14.3,0.1,28.6,0.4,42.9,1.2c15.5,0.8,30.9,0.1,46.3-0.6c15.1-0.7,30.2-1.8,45.4-2.7
	c10.6-0.6,21.3-1.6,31.9-1.6c20.3-0.1,40.7-0.6,60.2,6.7c8.8,3.3,15.8,8.3,18.6,18c1.4,5,0.1,7.3-5.3,7c-6-0.4-11.9-1.6-17.8-2.4
	c-11.8-1.6-23.7-3.1-35.5-4.8c-3.2-0.5-5.8,0.4-8.5,1.9c-7.1,3.9-13.2,9-19.5,13.9c-6.7,5.1-13.7,9.4-22.5,9.8
	c0.9,2.2,2.7,2,3.9,2.4c8.7,3.3,12.7,10.7,15.2,18.5c9.3,28.7,18.1,57.5,27,86.3c2.3,7.5,4.7,14.9,6.8,22.5c0.9,3.2,2.3,4.1,5.4,2.6
	c1.8-0.8,3.8-1.2,5.7-1.8c2.3-0.8,4.1,0,5.3,1.7c2.3,3.1,2,7.2,3.6,10.6c0.8,1.8-2.2,2.4-3.9,2.9c-8,2.6-7.8,2.5-5.2,10.8
	c7.2,23.2,14.1,46.5,21.3,69.7c7.8,25.1,15.8,50.2,23.7,75.2c3.8,12.2,7.6,24.5,11.4,36.7c2.1,7,10.5,9.6,16.3,5
	c23.3-18.4,46.7-36.6,69.6-55.3c20-16.3,40.7-31.7,60.8-48c33-26.7,66.8-52.3,99.1-80c20.5-17.5,41.3-34.7,62.5-51.3
	c21.2-16.6,42-33.8,63-50.7c10.2-8.2,20.6-16.2,31-24.3c6.5-5,7.7-8.5,5.4-16.5c-0.6-2-1.6-4,0.6-5.4c3.1-2.1,2.6-4.3,1.4-7.3
	c-2.9-6.9-5.4-14-7.9-21.1c-0.8-2.4-2.1-3.9-4.6-4.7c-5.5-1.9-6.4-5.5-2.8-10.4c4-5.3,3.8-5.7-2.5-7c-6.8-1.4-7.9-4.7-4.5-10.7
	c3.9-6.8,11.5-8.8,16.6-14c0.2-0.2,0.6-0.4,0.9-0.4c13.6,2.9,21.5-8.8,32.6-12.4c5.9-2,10.2-6.8,15.7-9.6c4-2,6.6-17.7,4.1-21.4
	c-0.8-1.3-1.5-0.9-2.4-0.4c-3.1,1.7-5.7,0-7.6-1.9c-2.2-2.1-1.3-4.8,0.4-7.3c0.6-0.9,0.9-2.3,0.8-3.3c-1.1-6.3,2.4-9.5,7.3-12.7
	c13.5-9,28.4-13.6,44.5-14.8c2.3-0.2,4.6-0.5,6.9-1.2c4.4-1.3,7.2,0.3,8.4,4.5c1.3,4.5,2.4,9,3.5,13.5c0.6,2.8,1.8,4.5,5.1,4.2
	c2.6-0.3,5,0.5,7.1,2c2.4,1.6,4.3,3.6,1.2,6.3c-1.8,1.5-1.5,3.1-0.7,4.9c1.7,4,3.2,8,5,12c1.1,2.5,2.1,4.9,0.9,7.7
	c-1,2.5,0.7,3.6,2.2,4.9c4.1,3.7,9.6,6.3,10.4,12.8c0.2,1.8,2.3,1.6,3.7,2c11.8,2.7,14.2,7.6,12.2,20.3c-0.8,5.1-3,9.9-5.1,14.6
	c-0.8,1.8-1.7,3.7-1.4,5.7c1.4,8.3-0.1,16.7,0.4,24.9c0.5,9,3.3,18,9.9,24.9c13.2,13.8,25.6,28.1,31.8,46.6
	c6.5,19.3,5.2,38-6.9,54.7c-4.8,6.6-7,13.3-7,21.1c0,21.6-5.8,42.1-11.7,62.6c-2.6,9-5.4,17.8-7.7,26.8c-1.1,4,1,7.8,2.7,11.3
	c0.5,1.1,1.8,1.7,3,1.2c5-2.1,10.8-1.9,15.4-5.1c2.5-1.7,5.1-0.3,7.7-1c7.6-2,15.3-4,23.1-4.7c10.1-0.9,20.2-2.3,30.4-2.6
	c13.1-0.4,26.1-0.1,39.1,0.7c8.6,0.5,17.2,1.8,25.9,2.2c7.8,0.4,15.6,2.9,23.4,4.6c8.9,2,17.9,3.6,26.5,6.3c3.4,1,7.4,1.2,10.3,4.1
	c1.9,1.9,5.2,1.7,7.7,2.4c10.5,3.1,20.4,7.7,30,12.6c9.9,5,19.8,10.2,29.3,16.1c9.5,5.9,19,11.7,27.6,18.6
	c6.9,5.6,14.6,10.3,20.5,17.3c3.3,4,8.1,6.9,11.8,11c6.4,7,13.6,13.2,19.4,20.9c3.2,4.3,7.5,8.1,10.8,12.6
	c4.9,6.6,10.8,12.7,14.3,20c3.7,7.8,9.7,14.1,12.8,22.5c1.7,4.7,5.6,9.4,7.9,14.4c3.8,8.4,8.6,16.4,11.2,25.4
	c1.6,5.4,4.8,10.5,6.2,16c2,7.8,6,15,7,22.8c1,7.4,4.7,14.1,4.8,21.4c0.1,8.7,3.2,16.9,3.2,25.7c0,5.4,1.6,11,1.6,16.6
	c0.1,9.2,1.7,18.2,0.3,27.5c-0.5,3.1,0.1,6.6,0.1,10c0.1,4.1,0,8.1-1.7,11.9c-1.1,2.7,0.5,5.2,0.1,8.1c-1.5,9.9-3.5,19.8-5.1,29.7
	c-1.4,8.6-3.3,17.1-5.9,25.1c-2.7,8.3-4.2,17-8.8,25c-2.7,4.5-3.2,10.8-6,15.9c-4.3,7.9-6.7,16.7-12.1,24.2
	c-3.1,4.4-4.7,10.1-8.1,14.7c-5.5,7.4-9.5,15.7-15.3,22.9c-3.5,4.3-6.2,9.5-10,13.7c-6.3,6.9-11.3,14.9-18.5,21.2
	c-3.8,3.3-6.6,7.8-10.6,11c-7.7,5.9-13.6,13.8-22,19.1c-4.7,2.9-8.4,7.6-13.2,10.7c-6.7,4.3-12.8,9.5-19.7,13.3
	c-6.6,3.6-12.6,8.4-19.5,11.1c-8.2,3.1-15.8,7.5-23.6,11.1c-68.5,32.2-145.6,37.4-218.2,17c-26.6-7.5-52.7-17.5-76.2-32.1
	c-6.6-4.1-13.8-7.4-20.2-12c-7.7-5.4-15.5-10.6-22.9-16.6c-6.8-5.5-13.3-11.1-20-16.7c-4.7-3.9-8.9-8.7-13.2-13
	c-5.9-5.9-11.4-12-16.7-18.3c-4.3-5.1-8.5-10.1-12.1-15.8c-3.1-4.9-7.6-8.9-10.3-14.1c-4.3-8.1-10.2-15.2-14-23.7
	c-2.2-5-5.7-9.5-8-14.5c-3.7-8.2-7.6-16.3-10.9-24.6c-3.4-8.4-6.6-16.8-9.1-25.5c-1.7-5.9-3.5-11.9-4.8-18c-1.1-5.7-2.9-11.2-3.7-17
	c-0.9-6.2-2.1-12.3-3.3-18.4c-1.3-6.6-0.2-13.5-2.3-20c-0.8-2.5-0.4-5.6-0.2-8.1c0.9-8.5-0.5-17,0.4-25.7c0.6-5.7,0-12,0.9-17.7
	c1.3-8.8,0.8-17.8,3.5-26.7c1.5-5.2,1.4-11.1,3-16.4c2-6.6,2.6-13.4,4.9-20c1.1-3.1,3.8-6.4,2.9-10.8c-0.4-2.1,1.4-5.5,2.5-8
	c2.9-6.8,4.8-14.1,8.1-20.6c4.3-8.6,7.1-17.9,12.4-26c5.5-8.4,9.4-17.8,15.3-25.8c5.1-6.9,9.9-14,15.2-20.8
	c5.3-6.7,10.7-13.3,15.9-20.1c3.4-4.5,8.2-8.1,11.9-12.6c5.7-6.9,13.2-12,19.5-18.5c4-4.2,9.4-7,13.7-10.9
	c6.9-6.1,15.1-10.1,22.2-15.9c4.4-3.6,9.6-6.3,14.7-8.7c3-1.4,5.4-3.8,9-4.7c3.1-0.7,5.5-3.7,3.3-8.5c-4.2-9.2-7.2-19-10.9-28.4
	c-1.8-4.5-3.4-8.8-7.5-12.5c-4.4-3.9-6-10.3-8.2-15.8c-3-7.4-7.1-12.8-15.8-13c-2.8-0.1-4-2-4.9-4.3c-2.3-6.6-4.8-13.1-6.7-19.8
	c-0.7-2.5-3.2-4.9-6.4-3c-16.1,9.8-32.1,19.8-44.4,34.4c-2.4,2.9-2.9,7.3-6.2,9.9c-0.9,0.7-1.9,2.1-2.7,2
	c-7.5-0.7-8.1,6.1-12.5,10.4c5.7,0.2,7.6,2.8,7,7.4c-0.2,1.9,0.7,3.5,2.4,4.7c4.5,3.3,5.8,8,5.5,13.2c-0.2,3.6-0.9,7.2-0.1,10.9
	c0.4,1.9-0.3,3.9-2.5,4.2c-5.9,0.8-9.7,5.1-13.8,8.5c-3,2.5-6,3.8-9.9,3.8c-7,0.1-14.2-1.1-21,2.1c-0.3,0.1-0.8,0.2-1,0.1
	c-5.4-5.1-5.8,1.2-7.8,3.5c-2.5,2.8-4.8,5.8-7.6,8.4c5.7-10.7,14.8-19.1,21-29.4c-0.3-0.3-0.6-0.5-1-0.8
	c-4.1,5.2-8.3,10.4-12.4,15.6c-25.1,31.7-50.2,63.5-75.2,95.3c-20.2,25.6-40.2,51.4-60.3,77.1c-18.4,23.6-36.9,47.2-55.3,70.9
	c-4.7,6-9.5,12-14,18.2c-2.2,3.1-3.7,3.3-6.5,0.3c-9.4-10-19.4-19.3-31.8-25.5c-2.4-1.2-2.8-2.7-1-5.2c8.8-11.9,18.4-23.4,25.7-36.2
	c3.1-5.5,6.6-9.6,10.7-14.2c9.3-10.3,18.3-21.4,25.2-33.4c3.8-6.6,8.9-11.7,13.4-17.4c31.6-40.2,62.7-80.8,94.3-120.9
	c23.8-30.2,47-60.8,70.2-91.5c25.5-33.7,50.9-67.5,76.4-101.3c0.5-0.6,0.9-1.3,1.9-2.7c-16.2,4.2-30.3,10-42.8,20.7
	c-23,19.5-47.6,37.1-70.4,56.8C969,330,946.7,350.2,923,368.9c-3.8,3-8.2,5.4-11.4,8.9c-5.2,5.5-11.8,9-17.5,13.6
	c-28.9,23.4-55.3,49.6-85,71.9c-14.2,10.6-29.1,20-45.3,27.3c-1.4,0.6-2.7,1.1-3.4,2.7c-3.1,7.3-7.3,13-16.4,12.1
	c-1-0.1-2.2,0.7-3.1,1.4c-11.6,9.5-23.4,18.7-34.5,28.8c-4.1,3.7-5.9,9.6-4,15.6c4.2,13.7,8.5,27.3,12.7,41c0.5,1.5,1,2.6,2.4,3.6
	c4.9,3.6,6.7,8.8,4.8,14.3c-0.9,2.5-0.3,4.6,0.3,6.8c1.4,5.1,3.3,10.1,4.7,15.3c0.9,3.2,3.6,2.8,5.6,3.9c2.5,1.4,7.3,0.5,7,5
	c-0.3,4.5-4.7,2.7-7.3,3.2c-9.1,1.8-18.3,3.2-27,6.7c-3.9,1.6-3.9,7-8.5,7.7c6.8-2.1,13.2-5,20.1-6.6c30.7-7.2,58.4-1.4,83.1,18.3
	c14.5,11.5,24.8,25.9,31.1,43.2c2.4,6.4,3.6,13.1,4.8,19.8c0.3,1.5,0.1,4,2.5,3.4c2.3-0.5,2.1-2.7,1.3-4.5c-1.3-2.9-1-5.8,0.4-8.9
	c0.7,4.6,1.6,9.2,2.2,13.8c0.3,2.3-1.7,2.5-3.4,2.8c-1.2,0.2-2.5,0.5-2.3,2c0.1,1.2,1.2,1.5,2.2,1.7c11.5,2.7,23.1,5.1,34.7,7.1
	c11.3,1.9,22.8,2.7,33.7,6.6c1.8,0.6,3.4,1.2,5-0.6c1.2-1.3,3-1.3,4.7-1.3c0.3,0,0.7,0,1,0.1c4.2,1.3,5.1-5,6.5-4.2
	c2.7,1.6,4.1,3.5,7.2,0.7c1.9-1.7,4-1.2,5.1,1.5c0.7,1.8,1.5,3.7,2.5,5.4c2.4,4.3,1.3,6.9-3.6,7.9c-1,0.2-2.4,0.3-2.3,1.5
	c0.4,3.9-3.5,3.7-4.6,5.2c-4.1,5.7-12.1,4-15.9,10c-2.5,3.9-7.6,4.7-12.3,4.1c-4.9-0.6-8.6,0.9-12.2,4c-4,3.5-9.2,3.8-14,2.3
	c-2.2-0.7-3.1,0.5-4.4,1.3c-2.5,1.6-4.4,1.5-5.5-1.6c-1.3-3.7-4.6-6.5-4-10.9c0.3-2.2-1.8-1.6-2.9-1.7c-8.4-1.1-16.8-2-25.7-3
	c3.7,3.5,3.8,3.6,1.6,8.2c-10.7,22-26.8,38.4-48.9,49.3c-19.9,9.8-40.7,12.1-62.2,8.9c-9.8-1.4-18.9-5.2-27.8-9.3
	c-5.4-2.5-10.4-2.3-16.4-1c-5.9,1.3-11.6,4.4-18,3.9c-1.9-0.2-3.9,0.2-5.8,2.9c5.3-1.9,10.5,0.6,15-3.3c2-1.8,4.7-0.8,6.3,1.9
	c2.3,3.9,5,7.5,8.4,10.5c3.2,2.9,3.2,5.9,0.3,8.6c-2.8,2.6-3.3,5.4-2.7,9c0.5,2.9,0.3,6,0.1,9c-0.4,6.1,0.6,11.6,5.8,15.7
	c1.5,1.2,2.4,2.9,1.8,4.9c-1.9,5.8,1.9,8.1,6,10.5c1.4,0.9,4.3,0.6,4,3c-0.2,1.8-2.8,1.2-4.2,2.1c-0.4,0.3-0.7,0.6-1.7,1.3
	c5.4,1,7.8,4.4,8.4,9.2c0.1,0.6,0.5,1.6,0.9,1.7c6.5,1.2,5.8,7.5,7.9,11.6c3.1,6.1,0.4,11-6.4,12c-7,1-12.1,4.2-16.2,10.2
	c-2.9,4.2-8.7,2.9-12.5,1.3c-5.7-2.4-11.5-3.2-17.5-3.2c-3.5,0-6.1-0.9-8.8-3.5c-4.1-3.8-9.4-6-15.4-3.8c-2.3,0.8-7.8-1.7-8.3-4
	c-0.6-2.5,1.3-3.3,3.1-3.6c3.3-0.5,4.8-2.7,4.5-5.6c-0.3-4,2-5,5-5.3c2.6-0.3,5.3-0.2,8-0.3c1,0,2.2-0.1,2.2-1.4c0-1-1-1.4-1.8-1.4
	c-3.8-0.1-5.3-2.4-6.6-5.6c-1.7-4.1-3.7-4.2-7-1.1c-2.7,2.5-5.4,1.7-7.4-0.7c-4.4-5.4-9.2-6.2-15-2c-2.3,1.7-3.9,4.6-7.7,3.2
	c-1.4-0.5-2,1.9-2.8,3.1c-0.8,1.2-1.5,3-3.4,1.9c-1.4-0.8-2.2-2.7-1.3-3.9c3.2-4.2-2.9-7.5-0.7-11.5c0.3-0.5-1-1.1-1.9-1.3
	c-1.3-0.2-2.4,0.3-2.7,1.6c-1.1,5.3-4.5,5.4-9.4,2.8c5.6,9.1-3,5-5.4,7c1.3,0.8,2.3,1.2,3.1,1.9c0.8,0.7,1.3,1.8,0.6,2.6
	c-1,1.1-1.3-0.8-1.7-0.7c-7.2,2.3-15.6,1.2-20.6,9.1c-3.5,5.7-10,8.4-14.9,12.9c-4.8,4.4-9.9,8.6-15.4,12.1
	c-7.2,4.5-14.1,9.4-21.2,14c-7.2,4.6-14.7,8.7-22.2,12.6c-10,5.2-20.1,10.4-31,13.9c-7.7,2.4-15.1,5.6-22.8,8.3
	c-8.8,3.1-17.9,4.9-26.9,7.2c-59.4,15.3-121.4,6.7-179.6-9.8c-5.6-1.6-11.4-4.2-17-6.9c-6.7-3.2-13.4-6.5-20.4-9.1
	c-5.9-2.2-11-5.8-16.6-8.7c-10.2-5.2-19.8-11.6-29-18.4c-9.3-6.9-18.5-14.1-27.4-21.7c-12.3-10.5-23.7-21.8-34-34.1
	c-6.9-8.2-13.9-16.5-19.5-26c-3.1-5.3-7.4-10-10.6-15.3c-4.1-6.8-7.8-13.9-11.4-21c-2.9-5.6-5.5-11.3-8.1-17
	c-3.3-7.4-7-14.7-9.4-22.4c-4.4-13.9-9-27.7-12-42c-1.5-7.4-4-14.7-4.1-22.1c-0.1-8.7-3-16.9-2.3-25.9c0.4-5.1-0.8-11.2-1.4-16.8
	c-0.4-3.6,0.3-7.3,0.1-10.9c-0.5-6.2,0.2-12.3,0.5-18.5c0.3-6.5,1.3-12.8,2.2-19.3c0.9-5.8,1.6-11.6,2.4-17.4
	c1.1-8.3,2.9-16.4,5-24.5c2.2-8.2,4.5-16.4,7.5-24.3c2.5-6.4,4.7-12.8,7.5-19.1c2.2-5.1,4.2-10.2,6.6-15.3
	c4.8-9.9,9.8-19.6,15.2-29.2c5.5-9.8,11.9-18.9,18.7-27.7c7.3-9.4,14.8-18.7,23.1-27.3c5.8-5.9,11.1-12.5,17.3-17.8
	c8.5-7.1,16.2-15.1,25.7-21.1c4.8-3,8.8-7.4,13.8-10.3c10-5.8,19.4-12.6,29.8-18c7.6-3.9,15.4-7.8,23-11.7
	c4.9-2.5,10.4-4.5,15.8-6.4c8-2.8,16-5.8,24.2-8c6.3-1.7,12.7-3.4,19-5.1c6.1-1.6,12.4-2.6,18.5-3.7c6-1,12.3-1.7,18.5-2.2
	c7.4-0.6,14.9-1.7,22.4-2.3c12.1-0.9,24.2-0.3,36.3,0.5c6.2,0.4,12.3,1.4,18.5,1.7c5.2,0.2,10.4,1.9,15.7,2.6
	c8.9,1.2,17.7,3.2,26.4,5.3c8,2,15.9,4.1,23.6,6.9c6.4,2.3,12.7,4.9,19.1,7.2c7.8,2.7,15,7.5,22.6,10.8c5.9,2.6,11.5,5.9,17.4,8.4
	c5,2.1,9.3,6,13.8,9.2c4.4,3.2,9.5,5.2,13.6,9c1.8,1.7,2.7-1,3.7-2c8.1-8.8,13.4-19.5,19.4-29.6c7.3-12.4,15.3-24.4,29-30
	c10-4.1,15.5-12.2,22.1-19.4c3.3-3.5,3.5-8.3,2.3-12.8c-1.5-5.5-3.5-10.8-5.1-16.2c-0.8-2.8-2.3-3.9-5.1-2.9c-1.1,0.4-2.2,0.7-3.4,1
	c-3.7,0.9-7.5,2.5-9.3-3C577.2,303.9,575.4,303.1,574.1,301.9z M1208,533.8L1208,533.8c-4.2-6.3-8.4-12.7-12.7-19
	c-5.5-8-11-15.9-16.6-23.8c-1.9-2.7-3.9-5-7.5-1.7c-7.7,6.9-15.6,13.5-22.6,21.1c-6.4,6.8-6.5,7.2,0.6,13.2c4.6,3.9,8.6,9,15,10.4
	c5.5,4.7,10.8,9.6,16.5,14.1c4.9,3.9,10.3,7.1,14.4,11.9c10.1,8.2,20.2,16.4,31.2,25.2c-0.2-3.9-0.2-6.3-0.5-8.8
	c-0.7-6.9,0.1-14.6-2.8-20.5C1219.2,548,1214.2,540.4,1208,533.8z M1153.9,575.7c1.7,0.2,5.1,0.4,2.4-2.1c-5.7-5.4-6.4-9.7-0.7-15.4
	c1.5-1.5,1.3-4.6,3.4-6.4c3.7-3.3,3.7-7.2,1.5-11.5c-3.7-7.4-10.6-11.3-16.8-15.8c-1.6-1.1-4.4-4.1-6.7-1.5
	c-8.5,9.8-16.4,20-23.5,30.9c-1.7,2.7-0.7,4.4,1.6,5.4c11.9,5.1,22.5,12.7,35,16.6c0.5,2.1,2.4,2.7,4,3.5
	c21.4,11.4,42.9,22.9,64.4,34.3c5.5,2.9,11,5.7,16.9,8.8c-2.3-9.2-4.6-17.5-6.2-25.9c-0.7-3.9-2.1-6.8-5.2-9.2
	c-10.1-7.9-20.1-15.9-30.2-23.8c-4.3-3.4-8.7-6.7-13.1-10c1.4,4,5.1,5.2,7.8,7.6c2.1,1.9,7.4,3.8,0.5,6.5c-0.8,0.3-0.7,0.9-0.8,1.6
	c-0.8,5.1-2.5,6.2-7.6,4.5c-3.5-1.2-5.4-0.1-5.3,3.4c0.2,4.6-0.9,7.2-6.1,5.1c-0.4-0.2-1,0-1.5,0
	C1161.8,582.6,1157.3,580.2,1153.9,575.7z M1439.4,681.4c0.1,0.5,0.3,1.1,0.4,1.6c15.6-2.1,31.3-1,46.6-7.6
	c36.5-15.7,73.6-30.1,110.4-45.1c7.2-2.9,14.3-6.5,21.5-9c4.6-1.6,4.6-2.6,3.1-6.2c-2.5-6-4-12.5-7.2-18.1
	c-3.7-6.6-3.9-15.3-11.8-19.3c-0.8-0.4-0.7-1.5-0.3-2.3c0.6-1.4,0.3-2.6-0.3-3.8c-6.5-12.4-14.5-23.9-22.9-35.1
	c-0.7-0.9-1.8-2.6-3.1-0.8c-1.8,2.4-4.6,3.2-6.9,4.8c-22.9,15.8-45.9,31.4-68.9,47c-29.8,20.2-59.6,40.2-89.4,60.4
	c-8,5.5-8.2,14.4-0.3,20.1c4.1,3,7.4,6.4,8.6,11.2c1.2,5.1,4.3,5.7,8.6,4.7c2.6-0.6,5.1-1.5,7.3-3.1c10.1-7.7,21.3-13.6,31.9-20.5
	c24.3-15.8,48.8-31.2,73.3-46.7c17.3-11,48.1-31.1,65.4-42c1.2-0.7,5.5-1.9,6.5,0c0.8,1.5-17.3,11.1-18.4,11.8
	c-12.9,8.3-25.8,16.5-38.7,24.7c-24.2,15.3-48.4,30.6-72.6,45.9C1468.1,663.3,1453.8,672.4,1439.4,681.4z M253.4,639.4
	c0.1-0.2,0.3-0.4,0.4-0.7c-8.2-9.4-16.3-18.8-24.5-28.2c-1.5-1.8-3.4-3.1-5.4-4.3c-20.8-11.9-41.6-23.8-62.4-35.8
	c-20.9-12-41.8-24.1-62.7-36.2c-2.5-1.5-3.9-0.6-5.3,1.6c-2.5,4.3-5.6,8.3-7.7,12.8c-4,8.6-11.2,15.8-11.1,26.2
	c0,0.6-0.9,1.4-1.6,1.8c-1.9,1.3-2.7,3.3-3.6,5.3c-4.8,10.8-8.3,22.1-11.7,33.5c-0.9,2.9,0,4.3,2.8,5.2c8.1,2.6,16.1,5.4,24.1,8
	c27.2,8.9,54.4,17.8,81.6,26.6c26.9,8.7,53.8,17.4,80.7,26.2c4.2,1.4,8.1,1.6,12.2,0.2c0.8-0.3,1.9-1.5,2.5,0
	c0.6,1.5,0.9,3.4,2.8,1.7c1.4-1.2,2.9-3,1.3-5.2c-0.8-1.1-2.1-2.4-0.6-3.4c3.6-2.5,5-5.3,3.6-9.7c-0.8-2.5,3.8-1.9,3.7-4.6
	c-0.1-3.1-3.9-1.6-4.7-3.8c-2.2-6.3-6.2-10.6-12.6-12.9c-20-7.3-40-14.7-60-22c-23.6-8.7-47.1-17.4-70.7-26.1
	c-15.1-5.6-30.3-11.2-45.4-16.9c-1.4-0.5-14.5-4.9-13.5-7.2c0.7-1.6,13.1,3.2,14.3,3.7c17.6,7.5,35.8,13.5,53.7,20.3
	c21.8,8.2,43.6,16.2,65.5,24.2C217.2,626.3,235.3,632.8,253.4,639.4z M1442,697.9c13.9,1.6,27.7,3.4,41.6,4.8
	c19.2,1.9,38.5,3.2,57.6,5.4c22,2.5,44,4.5,66,6.7c6.5,0.7,12.9,1.4,19.4,2.1c1.1,0.1,19.6,1.7,19.5,3.4c-0.1,1.2-18.4-0.5-19.4-0.4
	c-0.8,0.1-1.7,0-2.5,0c-7.4-0.7-14.9-1.4-22.3-2.1c-14.6-1.4-29.1-2.7-43.7-4.2c-19.2-2.1-38.3-4.4-57.5-6.5
	c-19.7-2.1-39.4-4-59.1-5.9c-5.2-0.5-10.3-0.9-15.1,1.9c-1.2,0.7-2.9,1.2-2,3.3c3.4,7.6,1.3,15.5-1.1,22.5c-1.9,5.9,1.2,7,4.6,8.6
	c1.9,0.9,4.2,1.1,6.3,1.4c6.4,0.9,12.9,1.5,19.3,2.5c14.5,2.1,28.9,4.3,43.3,6.5c8.4,1.2,16.8,2.3,25.2,3.5
	c14.1,2.1,28.2,4.3,42.3,6.4c9.9,1.5,19.7,2.9,29.6,4.3c11.2,1.6,22.4,3,33.6,4.6c3.3,0.5,4.9-0.5,5.7-4.3c2.4-11,2.5-22.2,4.3-33.2
	c0.6-4,0.2-7.5-5.2-8.9c5.2-0.4,5.3-3.7,5.4-7.1c0.5-11.4-1-22.6-1.9-33.9c-0.6-7.2-1.6-8.1-9-7.4c-8.1,0.8-16.2,2-24.4,2.2
	c-10.2,0.2-20.2,1.7-30.4,2.3c-20.1,1.1-40.1,3-60.2,4.6c-11.4,0.9-23,0.9-34.3,2.6C1465,685.3,1454.1,692.9,1442,697.9z
	 M268.8,628.8c0.2-0.2,0.4-0.5,0.6-0.7c-1.8-2.7-3.6-5.4-5.4-8.2c-30.6-48.4-61.2-96.8-91.8-145.3c-1.1-1.8-18.4-24.4-16.2-25.8
	c2.9-1.9,17.8,22.5,18.9,24.3c19.4,30.5,38.7,61,58,91.6c11.3,17.9,22.2,36,33.9,53.6c4.4,6.6,6.6,15.2,15.3,18.3
	c1.3,0.5,1.7,2,1.9,3.3c0.3,1.7,0.6,3.6,3,3c1.8-0.4,4.2-1.7,3.8-3.4c-1.3-5.1,1.4-3.8,4.2-3.2c1.6,0.4,2.9-0.7,3.9-1.8
	c0.7-0.7,0.4-1.6-0.2-2.2c-1.2-1.4-2.7-1-4.2-0.4c-2.2,0.9-4.4,1.9-7.6,3.2c1.2-1.9,1.9-2.9,2.4-3.9c1.5-2.9,6.6-3.3,6.1-6.4
	c-0.4-2.7-3.9-4.8-5.6-7.4c-1.2-1.8-3.4-4-1.4-6.3c2-2.3,4.6-3.7,8-3.3c2.2,0.3,4.8,3.1,6.3,0.7c1.4-2.2-1.5-4.4-2.7-6.5
	c-0.2-0.4-0.5-0.9-0.7-1.3c-14.7-25.8-29.3-51.5-44-77.3c-9.2-16.2-18-32.6-27.5-48.7c-6.7-11.3-12.6-23.1-19.6-34.2
	c-2.7-4.3-5.4-4.1-9-2.1c-6.1,3.5-12.1,7-18.1,10.7c-4.4,2.7-8.8,5.5-12.7,8.8c-2.5,2-2.4,7.5-7.8,5.2c-0.2-0.1-0.8,0.5-1.2,0.8
	c-9.6,7.5-18.9,15.3-27.3,24.1c-2.1,2.3-2.3,3.9-0.2,6.4c13.9,16,27.5,32.1,41.4,48c11.6,13.3,23.1,26.7,35,39.7
	c10.8,11.8,19.5,25.8,35.2,32.6C252.5,618.6,260.5,624.1,268.8,628.8z M1273.4,752.1c-61.6,15.5-122.2,30.7-182.9,45.9
	c-0.2-0.5-25.8,6.8-26,6.3c1.5-2.2,29.6-10.2,31.9-10.8c24.2-6.1,48.3-12.1,72.5-18.3c35.1-8.9,70.3-17.8,105.4-26.8
	c7.3-1.9,7.6-2.4,5.1-9.2c-2.7-7.4-2.7-7.3-9.6-4.4c-2.4,1-5.1,2.8-7.6,1c-2.2-1.6-2.6-4.5-2.5-7.3c0-1.1,0.5-2.3,1.1-3.3
	c1.9-3.2,2.7-6.7,3.5-10.3c0.7-3,0.5-3.9-2.8-3.1c-10.3,2.4-20.7,4.6-31.1,6.8c-25.5,5.3-51.1,10.4-76.6,15.7
	c-25.2,5.2-50.4,10.6-75.6,15.9c-7.7,1.6-8.1,2.1-6.6,9.9c2.6,13.4,6,26.5,10.4,39.5c4.5,13.5,9.7,26.5,16,39.2
	c1.5,3,3.1,3.9,6.3,2.5c7.1-3.2,14.4-6.1,21.5-9.3c32.8-14.7,65.2-30.3,98.4-43.9C1243.6,780,1258.1,766.6,1273.4,752.1z
	 M681.2,644.1c-3.6-2.9-6.7-5.4-9.7-8c-6.9-6-6.3-14.5,1.3-19.5c3.3-2.1,9.6-1.1,8-8.2c-0.1-0.3,0.9-0.9,1.5-1.2
	c3.2-1.6,3.3-3.9,2.3-7.1c-11.5-37.4-22.9-74.8-34.3-112.2c-2.6-8.6-6.3-16.6-11.3-24.2c-5.1-7.7-8.3-16.5-10.2-25.8
	c-3.7-17.9-3.7-36.5-10.7-53.7c-2.1-5.2-3.2-10.9-5.3-16.1c-2.5-6.3-6.2-6.9-10.5-1.8c-6.1,7.2-12.1,14.6-18,22
	c-12.1,15-24.2,30.1-36.2,45.2c-2,2.5-2,4.2,0.7,6.7c7.4,6.9,15.2,13.3,22.1,20.8c8.8,9.6,17.3,19.5,24.9,30
	c6.7,9.1,13.3,18.4,18.9,28.3c6.8,12.3,14.5,24,19.4,37.3c2.9,8.1,6.3,16.1,9.4,24.2c3.8,9.9,6.9,20,9.5,30.2
	c3.6,14.3,5.8,28.9,7.4,43.6c0.3,2.8,1.2,5.5,1,8.2c-0.1,1.7-1.7,3.7,0.9,4.6c2.3,0.8,4.5,0.7,6.4-1.3c2.4-2.5,5.1-4.8,7.7-7.1
	c2.2-1.9,3.3-3.8,2.5-6.9C678.2,649.2,677.1,645.8,681.2,644.1z M1234,788.1c-0.1-0.2-0.3-0.4-0.4-0.6c-2.6,1-5.2,1.9-7.7,3
	c-18.7,8.3-37.3,16.8-56.1,25c-21.1,9.1-41.5,19.7-63,27.8c-5.1,1.9-5.4,3.1-2.5,7.8c5.1,8.2,10.1,16.5,15.6,24.4
	c2.4,3.4,4,8.4,9.6,8.4c0.8,0,1.3,1.2,0.9,2c-1.7,2.8,0.5,4.3,1.9,6c6,7.6,12.7,14.6,19.5,21.4c9.1,9.1,9.1,9.2,16.9-0.9
	c0.2-0.3,0.4-0.5,0.6-0.8c19.8-24.9,39.6-49.7,59.4-74.6c13.3-16.7,26.6-33.3,39.8-50c5.9-7.5,11.8-15,17.7-22.5
	c-11.1,4-21.5,8.7-31.9,13.4c-3.8,1.7-7.7,3.1-10.9,5.9c-6.9,6.3-13.8,12.5-20.7,18.8c-26.1,23.7-52.3,47.5-78.4,71.2
	c-3.2,2.9-21.2,17.7-24.5,20.6c-0.9,0.8,1.2-1.7,0.2-2.8c-1.4-1.5,0,0,0.8-0.7c8.1-7.4,28.2-25.4,36.3-32.8
	c18.5-16.8,36.9-33.6,55.4-50.5C1219.8,801,1226.9,794.6,1234,788.1z M1438,439.3c0.6,5.8-2.9,10.6-3.2,16.1c-0.2,3-1.8,4.1-5.2,3.3
	c-3.9-0.9-3.2-3-2.4-5.5c0.5-1.4,1.1-2.8,1.5-4.2c3.3-13.2,5.6-13.1-10.5-16.8c-3.5-0.8-5.7,0.3-6.7,4c-2.1,7.9-4.5,15.7-6.7,23.5
	c-9,31.3-18,62.6-27,93.9c-6.3,21.9-12.4,43.8-19.3,65.5c-2.7,8.4-0.3,16,0.6,24c0.3,2.6,3.6,0.4,3.5,3.1c-0.1,3.6,0,3.2,3.5,1.8
	c2.8-1.1,4.4-4.4,7.6-4.3c4.5,0.2,8.9,0.8,13.4,1.4c4.9,0.7,8.3-1.3,9.8-6c3.5-11.1,7-22.2,10.4-33.3c6.4-20.5,12.7-41,19-61.5
	c7-22.4,14-44.7,21-67.1c3.3-10.6,6.7-21.2,10.1-32C1451.6,442.2,1445.3,439.6,1438,439.3z M1217.2,692.6c-9-2.5-17.9-4.9-26.9-7.4
	c-19.4-5.4-38.7-10.8-58.1-16.3c-17.7-5.1-35.7-9.1-53.2-15.2c-3.9-1.4-6.3-0.1-7.1,4c-5.3,28.7-6.2,57.5-2.9,86.4
	c0.4,3.4,2,3.4,4.8,3c20.3-2.9,40.1-8,60.1-12c25.6-5.1,51-10.9,76.5-16.3c14.9-3.2,29.9-6.3,44.8-9.6c1.4-0.3,3.6,0.1,3.6-2.5
	c0-2.4-1.9-3-3.7-3.4c-11.8-3-23.1-7.3-35.9-6.7c-26.8,1.2-53.5,3-80.4,2.3c-1,0-2,0.1-3,0.2c-21.2,2.2-42.5,1.3-63.8,2.1
	c-1.2,0-2.6,0.3-2.7-1.4c-0.1-1.7,1.3-1.5,2.5-1.5c23.4-0.8,46.9-1.7,70.3-2.5c14.5-0.5,29-0.5,43.4-1.4
	C1196.3,693.8,1206.7,694.3,1217.2,692.6z M1540.6,501.7c2.2-3.1,1.1-5.1-1.1-6.9c-9.5-7.8-18.6-16-28.6-23.1
	c-4.2-2.9-6.3-2.1-8.5,2c-3.6,6.7-7.6,13.3-11.2,20.1c-17.6,32.9-35.2,65.8-52.6,98.7c-1.7,3.3-4.2,6.3-5,10.7
	c6.3-4.2,10.2-9.8,15.1-14.5c28.8-27.2,56.5-55.6,84.7-83.4c1-1,11.1-11.9,12.5-10.4c1.2,1.3-9.7,11.3-10.5,12.1
	c-10.6,10.6-21.2,21.2-31.8,31.8c-19.8,19.7-39.3,39.9-59.8,58.9c-11.7,10.9-21.6,22.5-28,37.1c-1,2.3-3.2,4.2-3.2,8
	c8.9-5.9,17.2-11.4,25.4-17c32.4-22,64.7-44,97.1-66c11.4-7.8,23-15.4,34.4-23.2c5.9-4.1,5.8-5,1.3-10.4
	c-6.7-8.1-14.2-15.4-21.7-22.8C1546.8,501,1544.5,499,1540.6,501.7z M300.4,397.8c2.7,1.6,2.7,20.1,2.7,21.1
	c0.6,13.6,1.6,27.3,1.8,40.9c0.6,30.5,0.9,60.9,1.2,91.4c0,3.9,0.9,7.5,2.4,11.1c2.8,6.8,5.2,13.6,7.8,20.5
	c2.3,6.1,4.6,12.1,6.9,18.2c1.1-6.9,2.8-13.3,3.5-19.9c1.2-10.2,2.3-20.5,3.6-30.7c2-15.5,4.2-30.9,6.3-46.4
	c2.6-19.4,5.2-38.9,7.5-58.3c1.4-11.4,3.6-22.7,3.8-34.2c0.1-4-1.2-5.8-5.4-5.7c-11.6,0.5-23.3,0.7-34.9,1.1
	c-1.9,0.1-3.6,0.5-4.4,2.6c-1,2.9-2.5,2.3-3.8,0.3c-1.4-2-3.4-2-5.4-1.6c-11.4,2.2-22.8,4.5-34.2,6.9c-3.3,0.7-4.3,2.5-3.1,5.8
	c1.7,4.5,3,9.2,4.7,13.7c11.4,31.1,22.9,62.1,34.3,93.2c2,5.5,4,10.9,6,16.4c0.4-0.1,0.9-0.2,1.3-0.3c-1.7-21.3-1.3-42.6-1.4-63.8
	C301.7,458.8,299.4,420,300.4,397.8z M454.1,550.6c0.2,0.2,0.5,0.3,0.7,0.5c13.2-12,26.3-24,39.5-36c7.7-7.1,15.5-14.2,23.3-21.2
	c1.2-1,12.7-11.6,14.2-9.7c1.2,1.6-11.3,11-12.3,11.9c-4.1,3.9-8.3,7.6-12.5,11.5c-14.6,13.4-29.3,26.7-43.7,40.3
	c-9.5,9-20.1,16.9-28.3,27.4c-6.1,7.9-12.8,15.4-18.9,23.3c-9.3,11.9-19.8,23-28.1,35.7c-1.3,1.9-2.7,3.9,0.1,5.4
	c4.3,2.3,7.7,5.8,11.2,9c2.9,2.6,5.6,2.5,8.8-0.1c32.8-27.5,65.6-54.9,98.4-82.4c16.5-13.8,32.8-27.8,49.3-41.5
	c2.4-2,2.7-3.4,0.7-6.1c-6.8-8.9-14-17.4-21.8-25.4c-3.2-3.3-13.5-1.8-18.5,3.4c4.2-5.1,9.4-13.1,5.7-16c-1.3-1-2.6-2.1-3.8-3.2
	c-2.5-2.5-4.6-2.1-6.6,0.5c-3.6,4.6-7.2,9.2-10.8,13.8C485.3,511.2,469.7,530.9,454.1,550.6z M1345.2,966c0.3,8.3-0.5,16.6,0.4,25
	c0.5,4.3,2.4,5.9,6.8,5.9c10,0.1,19.9-1.5,29.9-1.9c10.1-0.4,10.2-0.6,9.3-11.9c0-0.3-0.2-0.7-0.2-1c-1.5-17.7-3.2-35.4-4.3-53.2
	c-0.6-10.1-2-20.2-2.6-30.3c-0.4-6.6-0.4-13.3-1.1-19.9c-1.4-11.7-2.7-23.5-3.2-35.2c-0.6-16.3-3.4-32.4-3.5-48.8
	c0-2.4-1.2-4.8-2.1-7.1c-0.8-1.9-2.1-3.5-4.5-3.3c-3.7,0.2-5.8-2.3-7.6-4.9c-3.9-5.4-7.9-6.2-14.1-3.4c-2.8,1.3-4.2,3-3.8,5.6
	c0.4,2.5,4.1,5.7-2.5,4.6c-1.9-0.3-1.8,2.8-1.6,4.6c0.5,8,1.4,15.9,1.5,23.9C1342.3,865.2,1343.5,915.6,1345.2,966z M1392.8,771.4
	c0.2,5,0.8,8.3,3.6,11.3c12.2,13.4,24.3,26.9,36.3,40.5c19,21.4,37.8,43,56.8,64.4c12.6,14.2,24.6,28.9,37.9,42.5
	c2.9,3,4.6,3.7,7.6,1c8.8-7.9,17.8-15.6,25.8-24.3c2.8-3.1,2.9-5.2,0-8.3c-20.5-21.4-42-41.9-62.3-63.5c-14-14.9-28.6-29.3-42.9-44
	c-10.9-11.2-21.8-22.4-32.8-33.6c-5-5.1-8.7-4.6-13.1,0.7c-2.8,3.4-5.4,7-10.7,7.4C1395.2,765.7,1393.5,769.2,1392.8,771.4z
	 M59.9,772.8c0.2,0.7,0.4,1.8,0.8,2.9c3.3,10.1,6.8,20.2,11.1,30c3.5,7.8,3.3,7.6,11.3,4.3c28.4-11.5,56.8-22.8,85.3-34.2
	c23.5-9.4,47-18.7,70.5-28.1c4.7-1.9,5.8-8.2,2.1-11.6c-3.1-2.9-2.7-7,1.1-7.8c2.9-0.6,4.2-2.5,6.2-4.3c5.8-5.1,5.8-12.4,8.8-18.5
	c0.7-1.4,0.6-3.1-1.6-3.3c-4.6-0.5-9-1.9-13.8-0.1c-15.7,6-31.5,11.6-47.3,17.4c-31.8,11.8-63.7,23.5-95.5,35.3
	c-12.1,4.5-24.5,8.6-36.3,14C61,769.6,59.5,770.1,59.9,772.8z M1294.4,759.5c-5.1,6.6-10.2,13.1-15.3,19.6
	c-15.5,19.5-31.2,39-46.7,58.5c-20.7,26-41.3,52.1-62.1,78.1c-6.8,8.5-7,8.4,1.6,15.5c0.5,0.4,1,0.9,1.5,1.3
	c7.7,6.4,15.6,12.5,24.2,17.6c1.9,1.2,3.7,2.3,5.5-0.4c8.1-11.6,16.3-23.1,24.5-34.6c16.9-23.9,33.8-47.8,50.8-71.6
	c13.3-18.7,26.8-37.3,40-56.1c4.3-6.1,2.6-8.8-4.6-10.9C1305.3,774.1,1298.4,768.9,1294.4,759.5z M276.9,760.6c0-2.3,0.1-4,0-5.7
	c-0.2-1.8,0-4.2-2-4.7c-2.1-0.5-2.8,1.9-3.7,3.4c-10,17.4-20,34.8-29.9,52.3c-12.5,22-25,44-37.6,65.9c-9.5,16.6-19,33.3-28.6,49.8
	c-2.1,3.7-1.7,5.9,2,8.1c10.3,6.2,20.7,12,31.4,17.4c3.4,1.7,4.8,0.9,6.5-2.3c9.4-17.6,19-35.1,28.6-52.6c17-31,33.9-62,51.1-92.8
	c2.4-4.4,1.4-8.7,1.6-13c0.1-2.1-1.8-4-5-4.4c-4.3-0.6-9.5-2.1-11.1-6.4C278.4,770.8,275.4,765.7,276.9,760.6z M326.9,607
	c7.5-6.9,16.2-10.4,22.8-17.2c2.3-2.4,4.8-5.8,9.3-4.4c4.8,1.6,7.5,0.1,8.5-5c2.5-12.9,5.2-25.7,7.2-38.7c3.3-21,7.4-41.9,11.3-62.8
	c3.3-18,6.8-35.9,9.8-53.9c2-11.8,1.6-11.9-10.3-13.8c-4.3-0.7-6.3,0.9-6.4,5.2c0,3.5-0.1,7-0.3,10.5c-0.2,2.4-2,2.8-4,2.6
	c-2-0.2-2.9-1.1-2.4-3.3c0.3-1.4-0.2-2.9-0.3-4.4c-1.3-13.3-1.3-13.2-14.7-14.2c-3.5-0.3-4.9,0.8-5.3,4.1c-2,14.7-4.1,29.3-6,44
	c-2.3,18.5-3.9,37-6.8,55.4c-2.3,14.8-3.9,29.6-6.1,44.4C330.8,572.1,329.1,589,326.9,607z M544.4,838.5c0.3-0.3,0.7-0.7,1-1
	c-2.1-1.8-4.1-3.7-6.3-5.4c-32.8-26.4-65.6-52.9-98.3-79.3c-10.1-8.2-20.2-16.4-30.3-24.5c-4.1-3.3-8.1-4.5-10.7,1.6
	c-1.3,3.1-3.3,6.5-6.8,7.7c-4,1.4-6.3,4.1-8.2,7.5c-1.4,2.6-3,5.2-5.4,7.1c-2.5,2-1.8,4.1,0,6c1.3,1.3,2.8,2.4,4.2,3.6
	c25.6,21.3,51.2,42.6,76.8,63.9c13.4,11.2,26.8,22.4,40.3,33.6c1.5,1.2,2.8,2.6,5.3,1.9c6.2-1.7,12.5-2.9,19.2-4.4
	c-0.8-1.1-2.5-1.4-2.6-3.2c-0.1-2.4-1.6-1.9-3.2-1.2c-1.4,0.6-3.2,2.6-4.1,0.2c-0.6-1.5,1.5-3.2,3.1-4c0.9-0.5,2.2-0.2,3.4-0.3
	c-3.3-5.4-2.2-8.8,3.2-11.9c2.2-1.3,5.8-1.2,6.3-4.3c0.6-3.2,2-1.7,3.4-1.1C538.5,832.7,541.2,835.9,544.4,838.5z M1257.7,684.3
	c-0.6-4.2-1.8-7.2-4.4-10.4c-3.2-3.9-7.9-8.2-4-14.5c0.7-1.2-0.4-2.5-0.9-3.8c-2.7-6.6-5.6-13.1-7.9-19.9c-1.5-4.3-2.4-9-7.5-11.2
	c-4.6-1.9-8.9-4.4-13.4-6.7c-23.7-12.4-47.4-24.9-71.2-37.3c-11.5-6-23-12-34.5-18c-2.9-1.5-5.1-1.5-7,1.8
	c-6.1,10.9-11.9,22-16.7,33.5c-1.2,2.9,1.1,6.8,4.2,6.9c1.3,0,2.2,0.6,3.2,1.1c38.2,18.8,76.4,37.6,114.6,56.3
	C1227.3,669.5,1242.4,676.8,1257.7,684.3z M613.9,688.2c0-3.2,0.1-6.3,0-9.5c-0.1-5.4-2.2-7.2-7.6-6.4c-5.6,0.8-11.2-0.3-16.6-0.7
	c-5.8-0.4-11.8-0.1-17.7-1c-4.3-0.6-9-2.3-13.6-1.4c-6,1.1-12,0-17.7-0.8c-9.3-1.2-18.7-1.7-27.9-1.7c-32,0.2-63.9,2.6-95.9,2.3
	c-2.7,0-5.3,0.6-7.7,1.7c-2.3,1-3,2.3-1.7,4.6c2.7,4.9,4,10.2,3.5,15.9c-0.3,3.1,1.2,4.4,4.3,4.7c6.9,0.7,13.8,2,20.8,2.6
	c7.8,0.7,15.3,3.5,23,4.1c22.4,1.7,44.8,3.9,67.1,6.6c8,0.9,16,0.1,24,0.1c2.8,0,5.2-1.1,5.4-4.6c0.2-2.7,2.1-3.1,4.3-2.9
	c4.9,0.4,9.9-4,14.7,0.4c0.3,0.3,1.5-0.4,2.3-0.8c1.4-0.6,2.9-0.6,4.4-0.6c9.5,0,18.9-0.9,28.3,1.6c2.8,0.8,4.4-0.8,4.3-3.8
	C613.9,695.2,613.9,691.7,613.9,688.2z M1397.5,787.9c-0.3,0.2-0.6,0.4-0.8,0.6c2.3,9.9,4.4,19.8,7,29.6c2.3,8.8,4.7,17.3,9.9,25.3
	c24.9,38.2,49.1,76.9,73.5,115.5c1.6,2.6,3.1,3,5.6,1.5c11-6.5,21.8-13.5,32.2-21c2.9-2.1,3-4,0.5-6.5c-2.5-2.5-4.8-5.1-7.1-7.7
	c-15.7-17.9-31.4-35.8-47.1-53.7c-18.7-21.2-37.4-42.5-56.1-63.7C1409.1,801.1,1403.3,794.5,1397.5,787.9z M1336.9,797.6
	c-0.4-0.1-0.7-0.2-1.1-0.3c-4.6,9.4-8.8,18.9-13.7,28.1c-4.2,7.8-6.5,15.7-7.3,24.6c-0.7,8.9-1.7,17.9-3.3,26.7
	c-2.6,14.2-3.9,28.6-6.1,42.9c-3.1,19.4-5.3,38.8-7.8,58.3c-0.4,3.4-0.4,7-0.4,10.4c0,2.8,1.6,4.1,4.4,4.4c11.3,1,22.5,2.2,33.8,3.1
	c6.2,0.5,6.8-0.2,6.7-6.6c-0.2-11.3-0.5-22.6-0.7-33.9c-0.7-38.6-2.6-77.2-2.6-115.9C1338.7,825.4,1337.6,811.5,1336.9,797.6z
	 M1435.8,742.1c-0.1,0.3-0.3,0.6-0.4,0.9c6,4.3,12.1,8.7,18.1,13c6.7,4.8,12.8,10.9,20.8,13.6c14.5,4.8,29.2,9.3,43.7,13.9
	c27.1,8.6,54.2,17.1,81.3,25.9c4.3,1.4,9.1,2,12.8,5.3c2,1.7,6.7-0.6,7.8-3.4c4.3-11.4,7.6-23.1,10.6-34.8c1-3.8-0.4-5.7-4.1-6.3
	c-7.1-1-14.1-2.2-21.2-3.2c-8.9-1.3-17.8-2.4-26.7-3.8c-13.1-2-26.2-4.2-39.4-6.1c-25-3.6-50-7.1-75-10.7
	C1454.7,745,1445.3,743.5,1435.8,742.1z M1430.3,758.8c0,2.3,1.1,2.9,1.9,3.7c13.1,13.5,26.2,27,39.3,40.5
	c24.8,25.5,49.6,51.1,74.5,76.6c5.6,5.7,11.4,11.2,17.2,16.7c1.8,1.7,3.9,3.3,6.4,0.5c8.7-9.9,16.5-20.5,23.3-31.8
	c0.8-1.4,1.5-2.8-0.6-3.7c-4.4-1.8-7.5-5.5-11.2-8.3c-32.2-23.4-64.2-47-96.5-70.2c-6.7-4.8-12.6-11.1-20.8-13.7
	c-6.8-2.2-13.6-4.3-20.4-6.4C1439.3,761.3,1435,760.1,1430.3,758.8z M1380.6,796.9c-1.4,5.8,0.3,10.7,0.6,15.6
	c1.3,18.2,2.6,36.5,4,54.7c1.9,23.7,3.9,47.4,5.8,71.1c1.4,16.7,2.8,33.5,4.1,50.2c0.3,3.5,1.5,5,5.4,4.3
	c11.6-2.2,23.1-4.8,34.5-8.1c3.2-0.9,4.7-2.2,4-6c-2.4-12.6-6-24.8-9-37.3c-7.2-29.7-14.2-59.5-21.6-89.1c-1.8-7-1.9-14.8-6-21
	C1395.2,820.2,1388.2,808.9,1380.6,796.9z M1318.8,792.5c-9.1,12.8-17.3,24.5-25.6,36.1c-18.8,26.4-37.8,52.7-56.6,79.2
	c-9.9,13.9-19.8,28-29.7,42c-2.1,2.9-1.7,4.7,1.3,6.9c7.1,5.2,15.2,8.2,22.8,12.2c3.5,1.9,7.2,3.4,10.8,5c1.6,0.7,3,0.8,4.1-1.3
	c4.7-9.5,9.7-18.9,14.3-28.5c13.4-27.5,27-54.9,40.1-82.5c5.8-12.2,13.8-23.4,14.4-37.9C1315.1,813.6,1317.3,803.7,1318.8,792.5z
	 M412.5,649c0.3,0.4,0.5,0.9,0.8,1.3c10.7-2.2,21.4-4.4,32.1-6.7c3.7-0.8,7.4-1.2,10.9-3.3c12.2-7.5,24.6-14.6,36.9-22
	c29.1-17.5,58.9-33.7,87.8-51.6c3-1.8,3.5-3,2-6.1c-5.2-10.7-11.6-20.6-18.1-30.5c-3-4.6-5.4-4.8-9.6-1.1c-2.2,2-4.3,4.1-6.6,6.1
	c-18.4,15.4-36.8,30.7-55.2,46.1c-23.1,19.3-46.3,38.5-69.5,57.8C420.1,642.2,416.3,645.7,412.5,649z M302.9,600.8
	c0-15.4,0-30,0-44.6c0-1.1-0.5-2.3-0.9-3.4c-2.9-7.6-5.8-15.2-8.7-22.8c-9.5-25.7-19-51.4-28.6-77.2c-3.7-10.1-7.4-20.3-11.3-30.4
	c-0.8-2.2-1.5-5-5.2-3.9c-12.6,3.9-24.8,8.7-36.7,14.2c-2.5,1.2-2.9,2.3-1.3,4.9c9,15.3,17.9,30.8,26.7,46.3
	c16.6,29.2,33.1,58.5,49.7,87.7C292,581.2,297.3,590.8,302.9,600.8z M243.1,684.6c0-0.3,0-0.7-0.1-1c-8.9-2.8-17.8-5.5-26.6-8.4
	c-26.4-8.7-52.7-17.5-79.1-26.1c-25.3-8.2-50.7-16.2-76-24.5c-4.1-1.3-5.6-0.2-6.4,3.4c-2.7,11.7-4.6,23.5-5.7,35.5
	c-0.3,2.9,0.6,4.4,4,5c10.1,1.8,20.3,3.2,30.5,4.7c20.2,2.9,40.3,6.5,60.5,9.4c15.1,2.2,30.3,4.1,45.3,6.7
	c6.2,1.1,12.5,2.5,18.9,1.5C220,688.9,231.5,686.7,243.1,684.6z M1242.4,163.6c-0.6,3.4-1.1,6.1-1.5,8.8c-2.5,17-6.3,33.7-13.2,49.5
	c-9.9,22.6-24,42.1-42.7,58.3c-2.1,1.8-2.8,3.4-1.5,6c2.8,5.8,1.3,13,5.6,18.4c0.4,0.6,0.3,1.6,0.4,2.4c0.4,3.8,2.7,5.6,6.2,4.5
	c4.9-1.6,10.2-1.7,14.9-3.3c19.9-6.9,37.4-18,52.8-32.3c1.1-1.1,1.9-2.2,1.8-3.9c-0.6-8.5-0.8-17-1.9-25.4
	c-2.9-23.1-9.2-45.6-14.8-68.1C1247.3,173.5,1246.6,168.3,1242.4,163.6z M1243.8,692.6c4.9,0,9,0.1,13.2,0c1.6,0,4,0.2,4.5-1.4
	c0.6-2.2-2.1-2.1-3.4-2.8c-18.1-8.9-36.2-17.6-54.3-26.5c-37.5-18.4-74.7-37.4-112.6-54.9c-3.1-1.4-4.3-0.8-5.5,2.2
	c-4.6,11.5-8,23.3-11,35.2c-0.8,3,0,4.6,3.1,5.5c16.8,4.8,33.5,9.8,50.3,14.5c23.4,6.5,46.7,13.2,70.2,19.1
	C1213.5,687.4,1228.1,694.9,1243.8,692.6z M1401.6,634.2c0.6,0.4,1.1,0.9,1.7,1.3c3.4-3.8,7-7.5,10.2-11.5
	c3.9-4.7,9.1-8.1,12.1-13.8c13.5-25.8,27.3-51.4,41-77.1c10.9-20.6,21.7-41.2,32.8-61.7c2.4-4.4,1-6.5-2.8-8.6
	c-9.6-5.4-19.4-10.2-29.6-14.3c-5.6-2.3-7-1.9-8.8,3.9c-5.8,18.2-11.6,36.4-17.2,54.7c-8.5,27.3-16.8,54.7-25.3,82
	C1411.1,604.2,1406.3,619.2,1401.6,634.2z M371.4,577.1c-0.3,3.5,0.8,4.2,3.2,3.2c4.3-1.8,8.5-3.9,12.9-5.5
	c5.4-1.9,8.2-5.3,10.1-10.9c14.8-42.8,30-85.4,45.5-127.9c1.9-5.3,0.4-7.2-3.9-8.9c-10.4-4.2-20.9-7.7-31.7-10.6
	c-4.6-1.2-6.5,0.3-7.3,4.6c-1.5,8.2-3,16.3-4.5,24.5c-3.1,16.7-6.5,33.3-9.2,50c-3.4,20.8-7.5,41.5-11.4,62.3
	C373.7,564.6,373.2,571.4,371.4,577.1z M237.7,752c-17.5,6.9-34,13.5-50.5,20c-35.3,13.9-70.8,27.4-105.7,42.1
	c-3.7,1.6-4.3,3-2.6,6.6c5.5,11.2,12.3,21.7,19.1,32.2c1.6,2.4,3.2,2.7,5.3,1.2c3.1-2.2,6.1-4.7,9.3-6.7
	c39.3-24.8,78.7-49.4,118-74.2c3.2-2,7-3.6,9.5-6.3c6.9-7.4,13.2-15.3,20.7-24c-6.6,2.6-12,4.6-17.3,6.8c-1.1,0.5-2.1,1.3-1.6,2.7
	c1.1,2.8-1.1,3.8-2.5,5.4c-0.7,0.8-2.8,1-2,2.3c1.9,2.8-0.5,3.4-2,3.5c-1.8,0.1-2.4-1.7-2.2-3.3c0.2-1.9,0.2-3.4-2.8-3
	C232.8,755.2,236.1,756,237.7,752z M236.8,700.3c-3.9-1.6-7.5-1.9-11.1-2.6c-7.3-1.4-15-3.4-22.2-2.5c-19.3,2.4-38.4,6.2-57.5,9.6
	c-11,1.9-21.9,4-32.8,5.9c-19.7,3.4-39.3,6.7-59,9.9c-3.6,0.6-4.3,2.4-4,5.5c1.4,11.8,3.5,23.4,6.4,34.9c0.9,3.8,2.4,4.8,6.2,3.5
	c25.9-8.3,50.9-18.7,76.4-27.8c23.8-8.5,47.5-17.5,71.2-26.3C219.2,707.1,228,703.7,236.8,700.3z M1342.2,622.7
	c0.6-0.1,1.2-0.2,1.8-0.2c-0.8-8.7,1-17.1,1.3-25.7c0.2-6-1.8-11.8-3.1-17.6c-3.9-17.8-7.4-35.8-11.1-53.7c-3.1-15-6.1-30-9.3-44.9
	c-3.4-16.1-7-32.2-10.4-48.2c-0.7-3.4-2.5-4.9-6-4.2c-11.8,2.4-23.5,4.8-35,8.3c-4.6,1.4-4.6,4.6-3.7,7.7c1.1,3.6,4.1,2.6,6.7,1.5
	c5.1-2.2,6.9,1.1,8.5,4.9c1.5,3.5,3,7.1-2,9.1c-3.5,1.4-3.8,3.7-2.5,6.8c5.2,12.6,10.1,25.4,15.6,37.9c11.8,27,22.5,54.5,33.9,81.6
	C1332,598.2,1337.1,610.5,1342.2,622.7z M1354.8,619.1c0.6-1.5,1.4-3,1.9-4.5c7.8-27.5,15.5-55,23.4-82.5
	c5.3-18.4,10.8-36.7,16.1-55c4.1-14.2,7.9-28.5,11.9-42.7c0.7-2.3,0.4-3.9-2.3-4.4c-12.1-2.5-24.3-4.2-36.5-5
	c-4.7-0.3-6.8,2-6.6,6.6c0.4,7.5-0.7,14.9-1.3,22.4c-1.2,16.1-2.9,32.1-4.4,48.2c-1.9,21.5-3.1,43.2-5.9,64.6
	C1348.9,584.5,1348.5,601.8,1354.8,619.1z M266.2,755.1c-14.5,8.1-27.2,17.5-37.9,30.4c-29.8,36-60.7,71.1-91.2,106.5
	c-2.3,2.6-2.3,4.2,0.2,6.5c8.9,8.1,18,15.8,27.7,22.9c3.2,2.3,4.8,2.2,7-1.4c20.6-34.6,39.9-69.9,60-104.8
	C243.4,795.5,254.6,775.5,266.2,755.1z M301.1,795.7c-1.7,2.7-2.7,4.1-3.6,5.7C280,833.2,262.5,865,245,896.8
	c-8.9,16.2-17.6,32.5-26.5,48.7c-2.1,3.9-1.1,6.2,2.8,7.7c8.1,3,16.1,6.4,24.4,8.7c13.2,3.7,13,3.6,17.1-9.4
	c8.6-26.9,17.4-53.8,26-80.7c5.4-16.8,10.7-33.6,16-50.4c1.6-5.1,3.4-10.1,4.8-15.2c0.5-1.7,0.9-4.7-2.2-4.4
	C303.6,802.2,302.3,800,301.1,795.7z M332.8,766.9c1.7,4,5.6,5.4,5.8,9.4c0.6,10.5,1.4,21.1,2.3,31.6c0.7,8.5,1.5,17-4.2,24.4
	c-1.4,1.8-1.2,4-0.8,6.2c1.6,7.8,2.9,15.7,4.4,23.5c1.4,7.5,2.7,15,4,22.5c0.4,2.2,1.5,5.3,3.9,3.8c5.3-3.4,11.3-1.7,16.8-3
	c5.2-1.2,10.8-3.4,16.7-2.3c4.7,0.9,7.3-2,6.5-6.6c-3.5-19.3-7.1-38.5-10.8-57.8c-3.2-17-6.4-33.9-9.6-50.8
	c-1.1-5.7-7.2-10.2-11.7-7.8C349,764.1,341.9,767.7,332.8,766.9z M440.5,653.5c4-0.1,7,0.2,10,0.6c5.4,0.7,11,0.9,16.6,1.3
	c6,0.4,12.1,0.2,18,1.2c6.1,1,12.4,0.9,18.5,1.4c3.7,0.3,7.4,2.4,11.1,1.3c6.1-1.9,11.7,1.5,17.9,0.7c7.4-0.9,15,1.1,22.6,1.4
	c11.4,0.5,22.6-1.5,33.9-0.6c6.3,0.5,12.6-0.7,18.9-1.1c2.3-0.1,4.4-0.6,4-3.8c-1.7-12.5-3.8-25-7.2-37.2c-0.8-2.7-2-3.7-5-3.2
	c-9.2,1.3-18.3,3.4-27.4,5.3c-17.4,3.6-34.8,7.1-52.2,10.7c-20.5,4.2-41,8.4-61.5,12.6C452,645.4,446.3,648.5,440.5,653.5z
	 M437.2,881.3c-7.8-0.4-8.4,0.5-5.9,6.7c2.6,6.6,5.2,13.3,7.9,19.9c4.7,11.4,9.5,22.6,14.3,34c1.3,3.1,3.1,3.6,6.3,2.2
	c10.2-4.6,19.4-10.9,28.9-16.7c2.6-1.6,5.5-3.2,5.1-7.2c-0.1-1.2,1.3-1.8,2.1-0.9c1.5,1.7,2.9,1,4.1,0.1
	c10.1-7.6,19.4-16.2,28.6-24.8c2.5-2.3,2.3-4.2,0.1-6.7c-6.2-7-14.2-12-20.9-18.5c-1-1-2.4-1.4-3.7-0.9c-3.9,1.5-8.1,1.4-12,2.3
	c-7.9,1.8-15.8,3.5-23.8,4.2c-1.7,0.2-3.4,0.8-4.2,2.4c-0.9,1.7,0.8,2.7,1.7,3.8c7.6,9.5,15.2,18.9,22.8,28.4
	c1,1.3,11.5,13.1,9.4,14.7c-1.6,1.2-10.7-11.5-11.7-12.7c-8.4-10.3-16.9-20.6-25.1-31c-2.7-3.4-5.1-3.9-9-2.2
	C447.2,880.3,441.3,878.9,437.2,881.3z M1233.7,158.9c0.3-2.8-0.4-4.1-1.5-5.1c-2.2-2.1-4.3-4.1-6.4-6.2c-2.6-2.7-4.3-2.3-6.7,0.7
	c-16.7,21.5-35.2,41.2-56.9,57.8c-8.4,6.4-8.4,6.5-5,16.3c4.1,11.8,8.3,23.5,12.4,35.3c1.2,3.5,2.5,5.4,5.7,1.4
	c2.5-3.1,5.3-5.9,8-8.9c20.8-23.6,36.5-50.3,47-79.9C1231.6,166.1,1232.7,162,1233.7,158.9z M1158.3,129c0.3,1.7,0.8,2.1,1.5,2.2
	c5.2,0.6,10,1.6,13.3,6.6c1.9,3,1.8,5.1-1.7,5.7c-3.4,0.7-6.8,0.6-10-1.6c-5.2-3.5-10.4-2.8-14.7,1.4c-0.7,0.7-1.5,1.5-2.4,1.7
	c-2.7,0.5-7.2-1.5-5.8,4.4c0.1,0.4-0.7,0.4-1.2,0.1c-2-1.2-2-0.1-1.4,1.3c2.3,5.6,3.4,11.5,3.8,17.5c0.6,11.6,6.3,21.6,9.6,32.4
	c1.8,5.7,2.5,6,7.4,2.5c15.7-11.1,29-24.9,42.1-38.9c5.9-6.3,11.4-13,17-19.5c1.7-1.9,2.4-4,0.1-6.1c-5.4-4.9-10.9-9.8-16.3-14.8
	c-1.6-1.5-2.9-1.5-4.8-0.2c-4.5,3.2-7.1,2.8-10.6-1.4c-2.9-3.4-5.1-7.2-6.9-11.7c1.6,5.9-0.8,9.9-5.5,12.8
	C1167.6,125.8,1164.6,130.9,1158.3,129z M1346,579.9c0.2,0,0.5-0.1,0.7-0.1c0.9-10,1.6-20.1,2.6-30.1c1.5-15.2,3.1-30.4,4.6-45.6
	c1.4-14.9,2.6-29.8,3.9-44.7c0.8-9.8,1.6-19.6,2.3-29.3c0.2-2.7-0.3-5.1-3.8-5.2c-12.3-0.1-24.6-0.3-36.9,1.6
	c-3.9,0.6-4.2,2.5-3.7,5.9c2.9,18.6,7.3,36.8,11.2,55.1c5.4,25.7,10.7,51.4,16,77.1C1343.9,569.7,1345,574.8,1346,579.9z M375.2,891
	c-0.6,0-1.7-0.2-2.6,0c-7.7,2.1-15.6,2.9-23.4,3.8c-2.9,0.4-2.8,2-2.4,4.3c2.2,11.6,4.2,23.2,6.4,34.8c2.3,12.1,4,24.3,7.2,36.1
	c0.7,2.5,2,3.8,4.6,3.3c12.3-2.2,24.6-3.9,36.7-7.3c2.7-0.7,4-2.1,3.4-5c-0.7-3.4-1.3-6.9-2-10.3c-3.7-18.7-7.3-37.5-11.2-56.2
	c-1.1-5.4-4.4-6.9-9.7-4.8C380,890.7,378,892,375.2,891z M218.7,791.4c-0.7-1.4-1.1-3.1-2.2-4c-1.4-1.1-2.8,0.3-4,1.1
	c-22.6,14.1-45.3,28-67.7,42.3c-13.3,8.5-27.2,16-39.7,25.8c-2.3,1.8-2.7,2.8-0.9,5.1c7.9,9.9,15.8,19.8,24.8,28.7
	c2.4,2.3,4,2.2,6.1-0.5c3.7-4.7,7.5-9.4,11.4-13.9c23.3-27.1,46.6-54.2,70-81.4C217.2,793.7,217.9,792.5,218.7,791.4z M1486,678.9
	c10.4-0.4,20.7-0.7,31-1.7c8.3-0.8,16.6-1.1,24.9-1.7c19.9-1.5,39.8-2.9,59.6-4.8c9.8-0.9,19.6-0.5,29.3-2.5
	c2.5-0.5,3.8-1.2,3.3-4.2c-2.2-12-4.8-23.8-8.2-35.5c-1.5-5.2-3-6.1-7.9-3.6c-6.3,3.1-12.9,5.4-19.3,8.1
	c-20.7,8.6-41.5,17.1-62.3,25.6C1519.6,665.4,1502.8,672.1,1486,678.9z M191.6,693.6c0-0.4,0-0.7-0.1-1.1c-5.7-0.7-11.4-1.3-17-2.1
	c-13.4-2-26.8-4.3-40.3-6.3c-13-1.9-26-3.3-38.9-5.5c-14.1-2.4-28.3-3.9-42.4-6.2c-2.9-0.5-4.6,0.4-4.7,3.5
	c-0.2,12.6-0.8,25.3,0.8,37.9c0.3,2.4,1.3,3.7,3.9,3c6-1.6,12.1-1.4,18.2-2.6c17.6-3.4,35.4-5.7,53.1-8.8c19.1-3.4,38.2-7,57.4-9.8
	C184.9,695,188.2,694.2,191.6,693.6z M1479.8,774.4c-0.2,0.2-0.4,0.5-0.6,0.7c1.3,1,2.6,2,3.9,3c25.9,18.8,51.7,37.5,77.6,56.3
	c10.8,7.8,21.1,16.2,32.7,22.8c2.3,1.3,3.7,1.6,5.2-1c6-10.6,11.7-21.3,16.3-32.6c1.2-2.9,0.6-4.5-2.4-5.8c-7.3-3.2-15-5.5-22.6-8
	C1553.3,797.9,1516.6,786.1,1479.8,774.4z M1311.2,848.4c-1.2,0.1-1,1.4-1.4,2.2c-7.9,16.2-15.6,32.4-23.6,48.5
	c-12,24.5-24.2,48.9-36.4,73.3c-1.5,2.9-1.1,4.6,2,5.7c11.9,4.4,23.8,8.4,36.3,11c3.6,0.7,4.8-0.8,5.2-4c3.4-25.7,7-51.4,10.4-77.1
	C1306.3,888.2,1308.7,868.2,1311.2,848.4z M220.8,601.1c-0.8-1.3-1-1.8-1.4-2.1c-18.8-21.4-37.5-42.8-56.4-64.1
	c-10.9-12.2-21-24.9-32.6-36.5c-3.5-3.5-5.6-2.9-8.4,0.2c-7.8,8.7-14.9,17.9-22,27.2c-2.1,2.8-1.2,4.2,1.5,5.8
	c11.2,6.6,22.2,13.4,33.4,19.9C163.3,568,191.6,584.3,220.8,601.1z M1410.9,844.7c-0.2,0-0.4,0-0.7,0.1c1.1,5,2.2,10,3.5,14.9
	c5.4,21.6,10.9,43.2,16.1,64.8c4.3,17.9,8.4,35.9,13.4,53.7c0.7,2.4,1.6,3.3,4.2,2.4c12-4.2,23.5-9.4,34.8-15.2
	c2.7-1.4,3.1-2.9,1.4-5.5c-8.9-14.1-17.5-28.3-26.4-42.4C1441.9,893.2,1426.4,868.9,1410.9,844.7z M464.6,638.5
	c0.1,0.3,0.1,0.7,0.2,1c12-2.4,23.9-4.8,35.9-7.3c18-3.7,36-7.6,54.1-11.4c14.1-3,28.2-6.1,42.4-9c4.1-0.8,5.2-2.8,3.9-6.7
	c-3.4-10.3-6.8-20.5-11.3-30.4c-3-6.5-3.5-6.8-9.9-3.1c-13.9,7.9-27.6,16-41.4,24C513.8,610,489.2,624.2,464.6,638.5z M526,813.6
	c3.4,0.9,6.3,1.9,8.9,3.9c1.2,1,2.5,1,3.4-0.4c0.8-1.3-0.2-2.1-1.1-2.9c-2.9-2.6-2.8-2.5,0.3-4.5c0.7-0.5,1.2-1.6,1.3-2.6
	c0.9-5.9,2.7-11.6,5.1-17.1c0.5-1,1.3-2.7-0.1-3.1c-6.8-1.6-10.9-7.4-16.7-10.5c-22.4-12.1-44.8-24.3-67.3-36.3
	c-5.4-2.9-10.3-7.1-16.6-7.9c-8.3-1-16.5-3.6-25.6-1.9c37.6,29.6,74.1,60.1,112.2,88.5C529.8,816,526.1,816.9,526,813.6z
	 M402.5,560.2c0.3,0.1,0.7,0.3,1,0.4c6-7.5,12-15.1,18-22.6c13.6-17,27.2-34.1,40.8-51.1c7.8-9.7,15.6-19.4,23.5-29.1
	c1.9-2.3,2.4-3.8-0.7-5.9c-10.4-6.9-21.3-13-32.4-18.6c-3.1-1.6-4.9-0.7-6,2.5c-3.4,9.7-7.1,19.3-10.5,29
	c-8.2,23.2-16.4,46.3-24.6,69.5C408.5,543,405.5,551.6,402.5,560.2z M381.1,763.1c1.3,3.5,2.2,5.6,3,7.8
	c4.5,12.8,10.4,24.7,19.9,34.7c7.5,7.8,13.9,16.6,20.8,24.9c9.9,12.1,19.7,24.3,29.6,36.4c1.5,1.8,3.1,2.2,5.6,2.2
	c5.2,0,9.9-2.7,14.9-2.7c6.4,0,12-3.3,18.3-3.1c0.6,0,1.1-0.6,1.8-0.9c2.1-0.9,2.4-1.9,0.4-3.5c-2.9-2.3-5.6-4.7-8.4-7.1
	c-19.4-16.3-38.8-32.5-58.2-48.7C413.3,790.2,397.8,777.1,381.1,763.1z M311.2,945.7c0,8.2,0,16.3,0,24.5c0,3.1,1.1,4.7,4.4,4.6
	c12-0.1,24-0.1,36-0.1c3.8,0,5.5-1.5,4.7-5.5c-1.2-5.7-2.1-11.4-3.1-17.2c-2.9-16.2-5.6-32.4-8.7-48.5c-1.3-6.9-4.3-8.1-11.1-5.9
	c-5.1,1.6-10.6,1.7-15.9,2.4c-4,0.5-5.2,1.7-5.2,5.3C311.9,918.8,310.7,932.2,311.2,945.7z M401.2,887.3c-6.6-0.5-7.3,0.3-6.1,5.6
	c0.9,4.2,2,8.4,2.8,12.6c3,18.2,6.3,36.3,11.1,54.1c1,3.7,2.3,4.1,5.4,3c11.2-3.6,22.4-7.5,33.1-12.5c3.7-1.7,4.4-3.5,2.8-7.3
	c-7.6-18.1-14.9-36.3-22.3-54.4c-2.3-5.7-4.5-6.4-10.5-4.4C411.7,885.9,405.4,884.9,401.2,887.3z M1265,281.9
	c-8.2,6.8-15.8,12.9-24.2,18c-8.5,5.2-17.6,9.5-26.5,13.8c-5.7,2.7-6.3,4.3-3.5,10.1c3.2,6.8,5.4,14,7.5,21.2c1,3.4-0.3,5.8-3.5,6.5
	c-3.4,0.7-3.4,2.5-2.5,5c5.9,15.4,11.7,30.8,17.6,46.2c0.6,1.6,1,3.6,4,3.8c-5.1-18.2-11.8-35.5-19.3-53.1c2.9,0.4,2.6,2.9,4.6,3.1
	c0.2-3.1,2.6-3.4,4.9-3.6c11.4-1.2,16.7,7.7,23.6,14.5C1256.2,339.6,1265,312.2,1265,281.9z M286.1,895.7c-1.7,1.6-2.4,3.1-2.9,4.7
	c-6.6,20.4-13.2,40.7-20,61c-1.3,3.8-0.3,5.8,3.3,6.5c12.2,2.6,24.3,5.4,36.8,5.9c2.6,0.1,3.5-0.7,3.7-3.3c0.5-5.6,1-11.2,1-16.9
	c0.1-16.1,0.3-32.2,0.5-48.3c0-3.3-0.6-4.9-4.7-4.8C297.7,900.8,290.7,903.2,286.1,895.7z M460.7,736.4
	c25.9,14.7,52.1,28.6,78.9,41.3c-2.1-1.6-4.3-3.2-6.4-4.7c3-0.1,5.6-2.1,7.5-1.7c6.7,1.5,12.1-1.5,18-3.3c2.6-0.8,6.2-1.7,8.3-0.5
	c3.6,2,6.3-3.5,10.6,0.4c4.1,3.7,10.3,6,15.7,8.3c4.1,1.8,4.3,3.2,3.5,6.9c-1.7,7.2-6.4,13.3-7.7,21.1c0.8-0.4,1.2-0.5,1.3-0.7
	c5.8-12,9.8-24.7,13.4-37.5c0.7-2.4-0.6-3.6-3.1-4.1c-6.1-1.1-12.1-2.3-18.1-3.5c-16.3-3.1-32.6-6.3-48.9-9.3
	c-17.1-3.2-34.3-6.3-51.4-9.3C475.1,738.4,468.1,736.4,460.7,736.4z M1337.1,650.2c0.7-2.6-0.5-3.8-0.8-5.2c-0.3-1.5-0.4-3,0.9-4.1
	c0.3-0.3,1-0.5,1.4-0.3c1.9,0.9,0.5,2.3,0.3,3.4c-0.2,1.3,0.1,2.5,1.5,2.8c1.4,0.3,1.4-1.2,1.5-2.1c0.2-5.8,1.4-11.7-0.9-17.3
	c-7.7-18.8-15.5-37.5-23.3-56.3c-8.8-21.2-17.7-42.4-26.6-63.6c-5.6-13.4-11.1-26.8-16.6-40.1c-0.7-1.7-1.3-3.7-3.9-2.5
	c-2.1,1-3.9,2.1-3.1,4.9c0.6,2.1,1.2,4.2,1.9,6.2c11.7,31.4,23.3,62.7,35.1,94.1c7.3,19.3,14.6,38.6,22.1,57.9
	c1.2,3.1,3,5.9,1.9,9.5c-0.5,1.6-0.3,4.1,1.1,4.6C1333.3,643.4,1334.6,646.8,1337.1,650.2z M1223.4,548.1
	c-0.5-18.1,1.8-35.9,3.4-53.7c0.1-1.1-0.2-2.4-0.6-3.4c-3.9-8.1-6.7-16.6-10-25c-1.9-4.9-3.1-5.4-7.8-2.7
	c-8.7,5.2-17.3,10.5-25.4,16.7c-3.4,2.6-7.3,4.8-1,8.4c0.4,0.2,0.6,0.8,0.9,1.2C1194.8,510.2,1210,528.3,1223.4,548.1z M371.6,770.5
	c2.4,13,4.6,24.9,6.9,36.7c2.6,13.9,5.3,27.8,8,41.7c1.8,9.2,3.5,18.3,5.4,27.4c0.6,3,1.4,5.7,5.5,4.1c6.5-2.4,13.6-2.6,20.4-3.5
	c4.4-0.5,4.9-1.7,3.3-5.6c-8.1-19.9-16.1-39.8-24.1-59.7c-2.7-6.6-4.4-13.8-8.1-19.8C384.1,784.5,377.8,778.2,371.6,770.5z
	 M1011,410.4c0.1-1.3-0.1-2.7,0.4-3c6.4-4.2,9.3-11.2,13.9-16.8c9.8-12.2,19.4-24.6,29.1-36.9c1.3-1.7,2.8-3.5,0.4-5.6
	c-4.5-3.8-9.1-7.4-14.9-8.8c-5.6-1.4-9.4,0.5-12.6,5.4c-2,3.1-2.3,7.2-5.4,9.4c-4.7,3.4-7,8.7-10.8,12.9c-5.4,6-8.9,13.8-14.6,19.4
	c-4,4-3.3,7.5-1.2,10.6C999.2,402.6,1004.6,407,1011,410.4z M436,723.2c8,6.8,17.3,7.8,26.3,9.5c13.1,2.4,26.2,4.5,39.2,6.9
	c14,2.6,28,5.6,42.1,7.9c14.4,2.3,28.8,5.2,43.2,7.8c5.2,0.9,10.3,2.4,15.8,2.3c2.9-0.1,4-1.4,4.2-3.8c0.3-2.8-2.1-1.9-3.5-2.2
	c-22-4.7-44.4-6.5-66.6-9.9c-4.1-0.6-100.5-18.1-105.6-19.2c6.4-2.5,103.5,17.4,108.6,17.5c11.6,0.2,23,2.2,34.5,3.9
	c10,1.5,20,2.9,30.1,4.3c1.6,0.2,3.5,0.5,4-1.9c0.5-2.8-1.8-2.3-3.3-2.5c-22.3-2.7-44.6-5.3-66.9-8.1c-21.1-2.6-42.2-5.3-63.4-8.1
	C462.1,726,449.5,723.8,436,723.2z M1275.5,623.9c0.4-0.2,0.8-0.3,1.2-0.5c-14.8-38-29.6-76-44.4-114.1c-2.8,16.3-2.3,32.4-2.1,48.5
	c0,1.7,1,3.1,1.9,4.5c10.8,15.6,21.5,31.3,32.5,46.7C1268.3,614,1271,619.7,1275.5,623.9z M1236.4,167.7
	c-7.2,21.6-18.1,41.3-30.6,60.2c-8.7,13.1-18.6,25.1-29.2,36.6c-2.8,3.1-1.7,8.4,2.3,11.6c3.2,2.6,4.8-0.9,6.5-2.4
	c13.6-12.1,24.3-26.3,32.7-42.4C1228.5,211.3,1234.6,190.2,1236.4,167.7z M399.4,804.8c-0.3,0.2-0.6,0.5-0.9,0.7c0,0.3-0.1,0.7,0,1
	c8.7,21.6,17.3,43.2,26.1,64.8c1.7,4.2,5.4,4.5,8.8,3c6.1-2.7,13-0.9,19-4.4C434.8,848.3,417.1,826.6,399.4,804.8z M1007.2,419.9
	c-3.4-4-7-7-10.9-9.5c-3.9-2.5-7.9-4.9-13-4.5c-3.9,0.3-4.5,3.5-6.6,5.9c-5.3,6.1-10.9,11.7-15.4,18.7c-4.1,6.5-9.5,12.2-13.7,18.8
	c-0.3,0.4-0.6,0.8-1,1.1c-6.2,4.1-7.4,9.7-2.6,15.4c4.6,5.5,10.4,9.6,16.6,13.4c0.2-2.6-4.4-6,1.7-6.8c0.3,0,0.7-0.8,0.6-1.1
	c-1.4-6.9,3.4-3.7,7-4c-3.1-2.5-5.8-4.7-8.4-6.9c-6.9-5.7-7.9-11.2-3.3-18.8c3.6-5.9,8-11.1,13-15.7c5.8-5.4,10.5-5.6,17.1-1.2
	c2.7,1.8,5.1,4.3,8.5,5.1C995.7,425.5,999.8,421.4,1007.2,419.9z M1270.4,266.8c21.7-26,10.8-66.7-16.3-90.9
	C1259.2,206.2,1270.5,234.9,1270.4,266.8z M616.4,117.8c-3-7-6.1-9.1-13.7-8.6c-8.5,0.6-16.9,1.6-25.4,2.3
	c-19.1,1.7-37.7,6.3-56.7,9c-10.4,1.5-14.6,7.7-18,16c1.5,0.6,1.6-1.2,2.7-1.1c9.8,0.6,17.7-5.6,26.9-7.6
	c11.2-2.4,22.2-5.7,33.5-7.8C582.4,117,599.2,117.7,616.4,117.8z M856.6,612.9c-3-4.6-3-4.6,0.8-8.8c4.7-5.3,4.7-5.3-0.7-10
	c-7.2-6.3-8.1-9.4-4.2-17.3c3.1-6.5,7.9-11.9,12.9-17c3.3-3.4,7.3-5.9,12.5-4.5c1.2,0.3,2.4,0,3.2-1c2.4-3,4.8-6,7.2-9
	c0.7-0.9,0.7-1.6-0.1-2.6c-3.5-4.2-11.3-4.6-15.4-0.7c-7.5,7-12.8,15.8-19.2,23.8c-4.9,6-8.8,12.7-14,18.6c-4,4.5-4.2,11-0.5,15.1
	C844,604.8,850,609.3,856.6,612.9z M1235.1,596.2c1.7,10.9,4.6,20.2,8,29.3c0.3,0.7,1,1.4,1.7,1.8c11.5,6.3,23.1,12.4,34.7,18.7
	c2.1,1.1,3.1,0.4,3.4-1.8c0.2-1.7,0.2-3.5-0.8-4.8c-5.5-7-9.4-15.2-17.3-20.1c-1.8-1.1-3.4-2.6-5.1-3.9
	C1251.7,609.3,1243.9,603.1,1235.1,596.2z M648.7,788c-4.6,12.5-9.2,24.9-13.8,37.3c1.9,0.1,4.1-3.1,5.3-1.3
	c2.8,4.5,3.5-0.2,4.7-0.9c1.9,0.9,0.9,2.7,1.8,3.6c0.8,0.8,1.7,1,2.7,0.8c0.6-0.1,1.3-0.3,1.1-1.3c-1-3.6,1.6-3.2,3.4-2.6
	c2,0.6,3.7,1.2,5.7,0.1c1.9-1,2.4,1,2.7,1.9c0.5,1.6-1.7,2.1-2.2,1.8c-3.5-1.6-5.3,1.4-7.8,2.7c9.8,0.9,18.7-4,28.4-4.5
	C667.6,815.5,656.2,804,648.7,788z M1206.9,97.9c-3.3,1-8.7-0.7-8.4,6.3c0.1,1.1-1,2.5-2,3.4c-2.5,2.5-1.9,4.4,0.5,6.6
	c7.1,6.3,14,12.8,21,19.1c1,0.9,1.8,2.1,3.4,1.8c2.4-0.4,7.5-9.6,6.5-11.9c-3.5-7.7-7.2-15.4-13.3-21.5
	C1212.6,99.6,1210.4,97.9,1206.9,97.9z M1200.1,67.8c2.6,3,2.2,6.1,3.5,8c2.4,3.5,0.9,8.7,4.8,11.1c4.2,2.6,7.9,5.8,13.2,6.7
	c4.5,0.7,8.7,3,12.2,6.4c6.3,6.3,6.3,6.2,9-2.2c0.1-0.3,0.2-0.6,0.3-0.9c3.9-12.9-1.2-19-14.8-17.6c-0.5,0-1,0.3-1.5,0.2
	c-7-1.3-14.6-0.3-20.5-5.8C1204.7,71.9,1204.3,68.9,1200.1,67.8z M552.5,859.7c-7.3,2.5-13.9,3.5-20.3,4.3
	c-5.6,0.7-10.9,3.9-16.8,2.4c-0.8-0.2-2.2,0.9-2.8,1.7c-0.7,1,0.4,1.7,1.2,2.3c5.7,4.1,10.8,8.8,16,13.4c1.9,1.7,5.1,2.9,6.8,1.5
	c6.9-5.8,12.5-12.8,17.1-20.6c-3.9,2.5-5.8,7.2-10.4,9C546.6,869.7,548.2,864.6,552.5,859.7z M677.4,781.7c2.1,0.4,4.4-0.9,5.1,1.7
	c0.5,2-1.1,2.5-2.4,3.2c-2.1,1.2-0.8,2.4-0.2,3.7c1.9,4.2,5.1,7.4,8.3,10.5c5.8,5.8,12.3,10.7,20.2,13.4c2,0.7,4.1,0.6,5.2-1.5
	c1.1-2.1,2-4.3,0.7-6.6c-1.3-2.3-3.2-1.7-5.2-0.9c-2.4,0.9-4.8,0.6-4.7-2.4c0.1-4.4-2.2-4.4-5.4-4.2c-2.8,0.2-4.7-1.1-4-4.2
	c0.8-3.5-1.3-4.3-3.8-4.2c-3.7,0.1-4.9-1.4-4-4.9c0.5-2,0.1-4.1-2.1-4.3C682.8,780.9,680.2,777.4,677.4,781.7z M277.6,644.3
	c0.6,0.6,0.4,1.2,0,1.8c-0.8,1.2-0.8,2.2,0.5,2.9c0.8,0.4,1.6,0.5,2.4,0.1c1.2-0.7,1.4-1.9,0.9-3.1c-0.4-1-1.2-2-1.8-2.9
	c-4-6.8-10.2-11-17.1-14.6c-8.2-4.3-16.2-9.2-24.3-13.8c6.2,8.6,13,16.3,19.7,24.1C263.2,644.9,270.6,647,277.6,644.3z
	 M1244.9,631.2c3.5,9.4,5.8,17.9,10.6,25.4c1.6,2.5,3.1,2.8,5.7,1.1c3.7-2.5,7.4-5.1,12.1-5.7c2.3-0.3,6,2.2,6.7-0.7
	c0.8-3.3-3.8-3.5-6-4.7C1264.8,641.5,1255.4,636.7,1244.9,631.2z M536.9,134.8c20.5,10.8,36.1,0.2,52.3-11.1
	C570.4,123.6,553.4,128.1,536.9,134.8z M1401,823.4c0.2-0.1,0.4-0.2,0.6-0.3c-3.2-13-6.4-26-9.5-39.1c-0.8-3.2-1.8-6.6-5.7-6.3
	c-5.3,0.4-8.8,5-7.6,9.4c0.6,2.2,1.8,4.3,3,6.3c2.7,4.4,5.5,8.7,8.3,13C1393.7,812.1,1397.3,817.7,1401,823.4z M1264.3,615.3
	c0.2-0.3,0.4-0.5,0.6-0.8c-11.1-15.9-22.2-31.8-33.2-47.7c-0.3,5.3-0.1,10.1,0.7,14.8c0.6,3.7,0.3,8.1,3.4,10.7
	C1245.1,600.2,1254.8,607.7,1264.3,615.3z M1458.3,764.4c0.1-0.2,0.3-0.5,0.4-0.7c-8.3-6-16.7-11.9-24.9-18c-3.6-2.7-6.8-6-11.8-5.5
	c-1.5,0.2-3.6-1.5-4.4,0.6c-0.9,2.2-1.8,4.8,0,7.1c1.7,2.1,3.6,4.2,6.1,5C1435.1,756.9,1446.7,760.6,1458.3,764.4z M332.4,840.3
	c-2.7,5.3-5.2,9.6-7,14.2c-1.2,3.2,0,6.5,3.4,7.7c3.3,1.2,4.6,2.9,4.3,6.2c-0.1,1.5,0.3,3,1.3,4.2c1.7,2,1.6,3.8-0.1,5.7
	c-0.7,0.8-1.7,2.1-1.5,3c0.8,3.8-0.7,6.3-4.1,8.2c2.5,0.6,4.7,1,6.9,0.9c4.9-0.3,6.2-2.4,5.1-7.2c-1.1-4.9-1.9-9.8-2.7-14.7
	C336.4,859.6,335.1,850.4,332.4,840.3z M429.4,533.2c0.3,0.3,0.7,0.5,1,0.8c0.8-0.8,1.6-1.6,2.3-2.5c16.3-18.9,32.8-37.6,48.4-57
	c3.6-4.5,7.3-9,10.9-13.6c0.9-1.2,2-2.7,0.2-3.8c-1.6-1-2.3,0.6-3.2,1.5c-1.9,2.1-3.9,4-5.7,6.2c-11.2,14-22.4,28.1-33.5,42.1
	C443.1,515.7,436.3,524.5,429.4,533.2z M1318.4,825.2c2.3-4.6,4-8.1,5.7-11.6c4-8.2,8.1-16.3,12.1-24.5c1-2.1,1.3-4.4,0.3-6.7
	c-3.6,2.7-7.3,0.5-11,0.4c-0.4,0-1,1.2-1.3,2c-0.7,1.7-1.5,3.4-1.7,5.2C1321.1,801.2,1319.8,812.5,1318.4,825.2z M307.5,567.9
	c0,12.1,0,25.3,0,38.5c0,1.9,1,3.1,3,3.3c1,0.1,9.1-8.7,8.8-9.7C315.2,588.9,311.1,577.7,307.5,567.9z M1255.5,773.5
	c11.2-5,22.5-9.9,33.7-14.9c1.3-0.6,3.7-0.8,2.7-3.3c-1.9-5-9-6.9-13-3.6C1270.5,758.4,1263.6,766.7,1255.5,773.5z M217.2,693.2
	c5.4,0.8,10.8,1.7,16.2,2.5c7.7,1.2,15.4,2.4,22.6-2c1.5-0.9,3.3-1.5,3.2-3.4c-0.1-1.7-2-2.1-3.3-2.6c-3.4-1.3-6.9-0.8-10.3-0.1
	C236.1,689.4,226.6,691.2,217.2,693.2z M782.3,473.7c29.5-16.5,53.4-39.8,78.2-62.1C834.4,432.3,808.3,453,782.3,473.7z M609,729.4
	c0,4.2,1.4,5.7,5,4.9c1.5-0.3,2.6,0.3,3.8,0.2c5.3-0.5,10.9,3.8,16.1-0.8c1.4-1.2,3.2-1.9,2.8-4.1c-0.4-2.3-2.3-2.6-4.2-2.7
	c-5.9-0.5-12-0.6-17.8-1.8C609.8,724,608.8,725.9,609,729.4z M1462.4,685c-9.8,1.7-19.5,0.5-29.1,1.7c-4.5,0.6-7.8,2.4-10.2,6.1
	c-0.5,0.7-1.4,2.4-0.2,2.5c3.4,0.3,6.6,2.9,10.1,1.6C1442.9,693.1,1452.7,689,1462.4,685z M478.3,663.9c-4.9-1.3-10-1.8-14.8-1.7
	c-10.1,0.2-20-2-30.1-2.2c-6.2-0.1-9.3,2.9-13.7,5.2C439.4,666.6,458.8,663.9,478.3,663.9z M1272.7,504.1c0,0.5-0.1,1,0,1.4
	c3,8.1,6.2,16.1,9,24.3c0.7,2.1,2.6,4.6-1,6.4c-1.8,0.9-0.9,2.7,0.4,3c4.2,1,6.8,2.8,5.7,7.6c-0.3,1.1,1.5,1.3,1.5,1.6
	c-0.3,2.7,5.4,5.5,0,8.2c-1.4,0.7-1,2-0.7,3.1c0.3,0.8,0.3,2.2,1.9,1.4c3.9-1.8,4.5,1.4,5.5,3.7c1.1,2.6,1.6,5.5,3.8,8.1
	C1299.6,567.9,1275.7,505.4,1272.7,504.1z M1204.9,355.2c-2.3,0.9-1.2,2.7-0.6,4.3c6.2,16,12.3,32,18.5,47.9c0.5,1.2,0.8,3,2.6,2.2
	c1.7-0.7,0.8-2.3,0.3-3.5c-6-16.1-11.9-32.1-17.9-48.2C1207.4,356.8,1206.9,355.5,1204.9,355.2z M1373.8,762.5
	c0.1-1.5-0.6-2.8-1.6-3.9c-2.5-2.9-4.9-5.8-7.5-8.6c-1.1-1.2-2.1-3.3-3.7-2.8c-1.9,0.6-2.4,3-3.2,4.7c-0.5,1.2-0.2,2.3,0.5,3.3
	c2.2,3.5,4.6,6.9,6.7,10.4c1.4,2.3,3.1,2.7,5.4,1.8C1372.6,766.6,1374.1,765.3,1373.8,762.5z M260.1,706.6c-2,5.4-3.9,10.3-5.8,15.2
	c-2.4,6-1.5,7.8,4.8,8.9c1,0.2,2,0.3,3,0.4c4.2,0.5,4.8-0.3,4-5.3c-1.8,0.6-1,4.6-4.1,3.1c-3.2-1.6-1-4.8-2-7.2
	c-0.6-1.6,2.2-0.7,3.5-0.6c2,0.1,2.4-0.6,1.7-2.4c-0.4-1.2-1.8-2-1.3-3.5c1.7,0.4,1.9,3.3,4.6,2.4
	C265.7,713.9,263,710.4,260.1,706.6z M1388,664.2c-6.9,3.5-12.2,8.2-18.1,12.1c-1.2,0.8-1.3,1.8,0,2.8c2.4,1.8,4.7,3.7,7,5.6
	c2.4,1.9,3.8,1.1,4.7-1.6C1383.7,677,1385.8,671,1388,664.2z M677.2,703c11.7-3.9,16.7-15.1,26.8-19.4c0.7,2-1.6,3.7,0.9,6
	c1-3.3,2.8-5.9,0.2-8.6c-2.6-2.7-5.1-1.3-7.4,0.7c-1.9,1.6-4.1,2.8-6,4.5C686.1,690.7,681.1,695.9,677.2,703z M1418.2,624.3
	c-0.2-0.2-0.3-0.3-0.5-0.5c-6.1,6.1-12.4,11.9-18.1,18.3c-2.1,2.4-4.5,7-1.1,9.2c2.7,1.7,6.1-2,7.8-4.7
	C1410.5,639.2,1414.2,631.7,1418.2,624.3z M1240.3,497c7,4.6,16.2,3.8,22.7,9.2c6.6,5.6,8.6,14.2,13.6,21.1c-2-7.4-4.6-14.6-7-21.8
	c-1-3.1-3.1-4.5-6.2-4.8C1255.6,499.7,1247.9,498.8,1240.3,497z M694.4,615.8c-0.1,2.1-1.3,3.8-1.7,5.7c-0.4,1.9-0.5,4-0.4,5.9
	c0.1,2,0.6,4,3.4,4.1c5,0.1,13-2.9,13.2-4.9c0-0.3,0-0.7-0.1-1c-0.6-1.7-1-3.9-2.8-4.6c-2.7-1.1-1.9,3-4.1,3.3
	c-0.9-2.9,2.7-6-0.3-8.9c-1.5,1.6-0.2,3.5-1,4.9c-0.7,1.2,0.3,3.6-2,3.4c-1.6-0.2-2.9-1.6-2.9-3.6
	C695.6,618.7,695.5,617.2,694.4,615.8z M1410.1,733.9c-3.8-0.6-3.2-2.8-2.8-5c0.2-0.7,0.1-1.9-0.4-2.3c-4.1-3.9-8.8-7.1-13.6-10
	c-1.3-0.8-3.1,0.1-4,1.2c-1.3,1.6,0.5,2.3,1.3,3.2c2.5,2.6,5.5,4.9,7.6,7.9C1401.1,732.8,1404.7,734.4,1410.1,733.9z M1325.2,749
	c0.3-2.7-1-2.8-3-1.9c-3.6,1.6-7.3,3.3-10.9,4.9c-1.9,0.8-2.3,2-1,3.4c2,2.2,4.3,4.3,7.2,5.1c2.5,0.7,5.2,0.4,6.1-2.7
	C1324.4,754.9,1324.7,751.9,1325.2,749z M1340,764.7c0.5,2.5-0.7,5.3,2.4,5.8c2.8,0.5,3.5-1.9,4.4-3.9c1.7-3.6,3.5-7.1,5.3-10.7
	c0.6-1.3,1.9-2.6,0.4-4c-1.5-1.5-3.4-0.7-4.5,0.3C1343.8,755.5,1340.7,759.6,1340,764.7z M381.4,721.5c1.5,1.1,4.3,1.5,2.6,3.5
	c-4.2,4.8-7.1,10.6-12.9,15.1c3.1,0.7,4.2,2.7,4.1,5.5c0,1,0.3,2.2,1.4,2.4c1.5,0.3,1.9-1.1,2.3-2.2c1.4-4.1,2.7-8.2,4.2-12.2
	c0.9-2.3-0.9-6.7,4.3-6.2c0.8,0.1,0.9-1,0.3-1.4c-2.2-1.7,0.2-4-0.5-5.9C385.3,720.5,383.7,720.9,381.4,721.5z M386.1,582.3
	c-0.2-0.2-0.4-0.4-0.5-0.6c-4.1,1.8-8.2,3.4-12.2,5.4c-4,2-6.3,8.2-4.9,12.3c0.8,2.2,1.6,3.3,3.6,0.8
	C376.7,594.2,381.4,588.3,386.1,582.3z M1391.3,687.3c3.9-1.8,9.8,0.4,12.9-2.9c1.3-1.4-4.1-6-5.8-9.6c-0.1-0.1-0.2-0.3-0.3-0.4
	c-1.2-1.7-2.3-2.4-3.6,0.1c-1.7,3.4-3.7,6.7-5.5,10C1388,686.4,1388.6,687.4,1391.3,687.3z M1301.9,741.2c5,0.6,6.9-4.6,9.9-8.5
	c0.8-1,2.1-2,0.7-3.4c-1.2-1.1-2.5-2.3-4.4-1.1c-3.3,2.1-6.8,4.1-10.1,6.3c-1.2,0.8-2.7,1.8-1.5,3.6
	C1297.6,739.6,1298.2,741.6,1301.9,741.2z M1396.6,743.8c4.8,0.9,5.5-2.1,6.2-4.2c1-2.8-1.7-2.6-3.3-2.9c-3.7-0.8-7.4-1.4-11.2-2.2
	c-1.5-0.3-3.1-0.9-3.8,1c-0.7,1.9-0.2,3.9,1.6,4.7C1390,741.8,1393.9,742.9,1396.6,743.8z M1348.7,608.2c-1.6,0.6-1.5,1.5-1.6,2.3
	c-0.4,6.1,0.1,12.2-1.6,18.3c-0.8,3,1.2,6.1,3.3,8.9C1356.1,627.5,1349.2,618.1,1348.7,608.2z M718.3,673.6c2.2,0.6,3.6-2.7,4.4-0.8
	c1.4,3.3,3.6,1.9,5.3,1.6c5.4-0.9,10.6-3.1,16-0.3c1.1,0.6,2.5-0.1,3-1.2c0.6-1.2-0.7-1.8-1.4-2.2c-3.9-2.4-8-4.5-12.4-1.2
	c-1.4,1.1-2.7,0.8-4.2,0.2C724.7,668,721.5,669.8,718.3,673.6z M743.7,777.8c-5.1-3-9.9-6.5-15.7-7.4c-1.5-0.2-3.1-0.6-4.1,0.9
	c-1,1.7,0,3.2,1,4.5c1,1.4,2.5,2.3,4.1,2.6C733.9,779,738.8,779.3,743.7,777.8z M1326.1,740.4c-0.4-1.9-2-1.6-3.1-1.3
	c-4.7,1.1-9.3,2.1-13.9,3.6c-1.4,0.5-2.6,1.9-3.7,3.1c-0.9,0.9-2,2-1,3.5c1.1,1.6,2.5,1,4,0.4c5.1-2.3,10.2-4.6,15.3-6.9
	C1324.7,742.2,1325.8,741.8,1326.1,740.4z M381.6,777.9c0.4-0.2,0.8-0.4,1.2-0.6c-0.9-5.7-4.5-10.5-6-16c-0.6-2.3-2-5.2-5.3-3.7
	c-3.4,1.6-2.1,4.8-0.7,6.8C374.1,769.1,378,773.4,381.6,777.9z M1383.6,648.9c-4,0-7.9,0-11.9,0c-1.2,0-2.4,0.1-3,1.4
	c-0.7,1.5,0.5,2.4,1.4,3.4c4.2,4.5,10.1,4,15.1-1.4c0.7-0.8,2.1-1.5,1.5-2.8C1386.1,648.2,1384.7,648.4,1383.6,648.9z M404,656
	c-0.5,3.2,2,5,1.2,7.1c-1.4,3.7,1.1,3.4,3.2,3.4c5.5,0,8.8-4.4,13.4-6.6C416.2,655.9,409.5,660.5,404,656z M1353,770.9
	c2.8-1.5,6.9,0.7,9.1-3c0.5-0.9-5.4-9.8-6.3-9.8c-0.8,0-6.3,9.4-6.3,11C1349.5,771.7,1351.6,770.3,1353,770.9z M1281.9,680
	c1.1-3.5,2.9-6.7,2.9-9.9c-0.1-4.4-5-2.1-7.4-3.7c-1.5-1-3.9-0.1-5.2,1.8c-0.2,0.3,0.3,1.4,0.7,1.6
	C1276.7,672.3,1278.6,676.4,1281.9,680z M730.1,808.4c0.9,3.7,3,5.8,4.7,8.1c2.3,3.2,5.7,4.8,9.4,4.8c2.9,0,0.7-4.1,3.5-5
	C741,815.8,736.6,810.9,730.1,808.4z M1236.4,143.8c-1.3-3-2.7-6.5-4.3-10c-0.4-0.8-1-1.1-2-0.6c-3.3,1.8-4.1,6.9-1.5,9.6
	c1.2,1.2,2.4,2.3,3.7,3.4c0.9,0.7,1.7,2,3,1.4C1236.4,147,1236.2,145.6,1236.4,143.8z M357.2,749.4c-3.6,1-7.3,1.7-10.6,3.2
	c-3.3,1.5-6.6,2.6-10,2.8c-5.8,0.3-5.8,0-3.6,5c0.1,0.2,0.5,0.3,0.8,0.4c2.9-3.9,2.9-3.9,6.1-0.3c0.3,0.3,0.8,0.7,1.2,0.6
	c1-0.1,1.5-0.8,1.4-1.7c-0.7-3.2,1.7-3.4,3.8-4C350.2,754.3,354.5,753.9,357.2,749.4z M1327.6,756.8c3.6-1.2,6.2-2.9,8.2-5.4
	c1.4-1.7,1.6-3.8,0.2-5.5c-1.2-1.5-2.9-3-5.1-2.5c-2.1,0.6-2.2,2.7-2.5,4.5C1328.1,750.7,1327.9,753.5,1327.6,756.8z M772.5,835.9
	c-14.6,5.2-29.9,4.1-44.9,4.8C743,842.5,758.1,841.9,772.5,835.9z M1409.5,718.7c0.1-6.6-1.2-8.3-5-7c-2.3,0.8-5.8,1.2-6.1,3.3
	c-0.3,2.2,3,3.5,5,4.9c0.4,0.3,0.8,0.6,1.3,0.8c1.3,0.5,2.3,2.7,3.7,1.5C1409.3,721.4,1409.3,719.4,1409.5,718.7z M1180.7,548.1
	c4.9,3.9,10.3,7.1,14.4,11.9c3.7,2.2,7.5,2,11.4,0.4c1.3-0.5,3-1,2.9-2.3c-0.5-5.3,2.1-4.8,5.5-2.9c0.6-3-3.2-3.1-3-5.3
	c1.4-1.7,2.9,1,4.3-0.3c-0.3-2.4-2.2-4-3.1-6c-1.5-3.4-3-7.2-8.5-2.8c1.4-3,3.6-4.4,3.4-7c0,0,0,0.1,0,0.1c-1.5,0.3-2.7,1.2-3.6,2.4
	c-1,1.3-2.1,3-4,1.4c-1.5-1.3-1.3-3.5-0.1-4.5c4.5-4.1,0.1-6.2-1.4-9.5c-0.6,0.8-1,1.1-1.2,1.5c-0.6,1.8,1.3,4.5-1,5.4
	c-2.5,0.9-3.3-2.1-4.8-3.5c-5.1-4.6-8.8-5.6-12.1-0.6c-3.4,5.1-8.1,2.2-11.9,3.6c-2.5,0.9-3.6,1.4-3.7,3.8
	C1169.6,538.7,1175,543.6,1180.7,548.1z M1011.1,389.2c2.6,0.9,3.4-2.1,4.7-3.7c6.7-8.5,13.2-17,19.8-25.6c0.9-1.1,2.5-2.2,1.5-3.8
	c-0.9-1.6-2.8-1.9-4.4-1.8c-3.7,0.1-6.6,2.1-9.2,4.5c-4.4,3.9-7.8,8.6-11.3,13.2c-2.3,3.2-3.9,6.5-4.3,10.3
	C1008,385.2,1008.3,388.2,1011.1,389.2z"/>
</svg>
