<?xml version="1.0" encoding="utf-8"?>
<!-- Generator: Adobe Illustrator 21.0.2, SVG Export Plug-In . SVG Version: 6.00 Build 0)  -->
<svg version="1.1" id="dirt_freestyle" xmlns="http://www.w3.org/2000/svg" xmlns:xlink="http://www.w3.org/1999/xlink" x="0px"
	 y="0px" viewBox="0 0 1920 1080" style="enable-background:new 0 0 1920 1080;" xml:space="preserve">
<g>
	<path style="fill:#fff" d="M430.6,1058.1c-16.5-0.1-33-0.3-49.4-2c-10.7-1.1-21.5-3-31.9-6c-7.6-2.2-16.1-1.5-22.8-7.1c-2.4-2-6,0.2-9.2-0.9
		c-14.8-4.7-29-10.7-43-17.3c-4-1.9-8.3-3.3-12.5-5c-0.9-0.4-2.1-0.6-2.6-1.3c-3.3-4.9-9.3-5.2-13.7-8.3c-1.9-1.3-4-2.3-5.4-4.2
		c-1.3-1.7-2.8-2-4.9-2.5c-3.6-0.8-6.9-3.2-9.1-6.5c-1-1.5-2-2.6-3.7-3c-4.8-1-8-4.5-11.6-7.3c-6.5-5-13.3-9.8-19.2-15.6
		c-4.9-4.7-9.4-10.5-14.7-13.8c-8.2-5.2-10.3-15.2-18.7-19.6c-1.9-1-2.7-2.9-3.1-4.9c-0.3-1.5-1-3.1-2.5-3.5c-4.4-1.2-6.5-5.2-8-8.4
		c-2.4-5.1-6.6-8.4-9.5-13c-5.3-8.2-10.6-16.4-15.6-24.8c-2.1-3.5-5.5-6.8-6.2-10.6c-1.3-6.4-5.9-10.8-8-16.4
		c-6.5-17-14-33.7-18.7-51.4c-1.9-7.1-2.8-14.7-6.1-21.4c-0.2-0.4-0.3-1-0.3-1.5c1-5.2-2-10-2.1-14.8c0-7.3-3.6-13.8-3.4-20.8
		c0.4-12.3-2.6-24.3-1.8-36.8c0.5-7.4,0.2-15.2,0.7-22.6c0.5-7.6,0.5-15.3,2.2-23c1.5-6.4,2.1-13.3,2.8-20c1-9.1,4.1-17.7,5.7-26.6
		c1.3-7.6,3.9-14.7,6.6-21.8c3.1-8,5.7-16.2,9.1-24.1c2.9-6.8,6.1-13.5,9.4-20.1c4-8,8.3-15.8,12.8-23.6c4.5-7.7,9.6-15,14.5-22.4
		c4.1-6.3,9.1-12.1,13.8-18.1c4.3-5.4,8.9-10.5,13.2-15.9c4.9-6.2,10.8-11.7,16.8-16.8c2.7-2.3,4.4-5.4,7-7.6
		c4.9-4.3,9.8-8.9,15.3-12.4c6.5-4.1,11.9-9.5,18.2-13.8c6.9-4.8,14-9.2,21-13.7c8.6-5.6,17.5-10.8,26.9-14.8
		c6.9-2.9,12.8-8.1,20.8-8.7c2.5-0.2,4.8-3.2,7.4-3.9c8-1.9,15.4-5.6,23.2-8.2c6.8-2.3,13.9-4,20.8-5.8c8-2.2,16.1-5.3,24.7-4.8
		c1.4,0.1,2.6-0.4,3.9-0.8c2.2-0.7,4.5-1.9,6.7-1.7c5.2,0.4,10.2-1.8,15-1.8c7.7-0.1,15.3-2.2,23-0.9c2.4,0.4,4.9-0.6,7.4-0.5
		c13.9,0.3,27.7,1,41.5,2.1c7.6,0.6,14.9,2.9,22.5,2.7c5.8-0.2,11.4,2.2,16.9,3.5c13.2,3,26.4,6.2,39.2,11.1
		c6.8,2.6,13.8,5,20.3,7.9c8.3,3.6,17,6.1,24.7,11.4c5.2,3.5,11.5,5.7,17.1,9.1c8,5,15.9,10.1,23.8,15.4c7,4.7,14,9.5,20.3,14.9
		c10.2,8.8,20.7,17.3,30,27.2c4.8,5.1,8.9,11,14.6,15.4c4.4,3.3,6.3,9.2,10.7,12.9c2.1,1.8,3.5,2.6,6,1.1
		c7.4-4.5,14.9-8.8,22.5-13.1c2.7-1.5,3.3-3.1,2.2-6.1c-4.2-11.1-8.1-22.2-12.1-33.4c-1.6-4.4-4-5.5-8.5-3.9
		c-1.4,0.5-2.7,1.3-4.2,1.7c-4.8,1.4-7,0.2-8.9-4.5c-1.8-4.3,0.3-6.4,4-8.1c12.2-5.6,12.2-5.7,7.8-18.2c-2.5-7.2-4.6-14.6-7.7-21.7
		c-1.1-2.4-2.4-3.3-5-2.3c-14.4,5.8-29.2,4-43.8,1.3c-15-2.7-29.3-7.4-42.5-15.3c-10.7-6.4-15.3-17.5-10.8-29
		c1.4-3.7,4.4-5.7,8.1-6.9c12.8-4,26.1-5.1,39.3-7.1c26-3.8,51.2-10.1,75.9-19.3c19.3-7.2,38.8-14.1,59.2-18.1
		c12.1-2.4,24.2-3.4,35.3,3.8c5.7,3.7,9.4,9,11.4,15.3c1.8,5.6,0.3,8.6-5.2,10.4c-10.6,3.5-21.8,4.7-32.8,6.5
		c-20.1,3.3-38,10.4-53.1,24.6c-5.4,5.1-7.2,11.1-5.2,17.6c3.6,12.3,8.2,24.3,12.3,36.5c0.8,2.4,2.2,3.1,4.5,2.2
		c1.7-0.7,3.4-1.3,5.2-1.9c1.9-0.7,3.7-1.4,5.6-2c2.3-0.8,4.8,0.3,4.5,2.4c-0.7,4.7,9,7.5,2.3,12.8c-3,2.4-6.4,4.2-9.8,6
		c-2.4,1.2-3,2.7-2.1,5.2c2.6,6.9,4.9,13.8,7.6,20.6c2.1,5.2,7.1,6.7,11.9,3.8c33.2-20.5,66.8-40.2,99.8-60.8
		c15.9-9.9,32.1-19.7,47.9-29.7c19.5-12.4,39.8-23.6,59-36.5c13.7-9.2,28.1-17.2,42.2-25.8c3.4-2.1,6.8-4.1,9.6-7
		c3.4-3.5,8.6-3.8,12.8-6.4c21.4-13.6,42.9-26.8,64.5-40c20-12.2,40.2-24.1,60.2-36.4c16.7-10.3,33.2-20.9,49.8-31.5
		c3.9-2.5,6-6.4,5.3-11.1c-0.5-3.4,0.5-5.4,3.3-7c2.5-1.4,3.5-3.3,2.2-6.2c-1.3-2.9-2.1-5.9-6.4-5.8c-10.9,0.2-14.5-5.6-9.8-15.6
		c2.1-4.4-0.6-5.9-3.9-7.5c-6-2.8-9.1-8.3-5.9-12.7c4-5.7,7.9-12,15-14.6c6.4-2.4,12.9-4.6,19.3-6.9c0.6-0.2,1.3-0.5,1.9-0.6
		c6.8-1,6.8-1,5.2-8.2c-0.6-2.9-1.1-5.9-2-8.8c-2.3-7.2-8.4-11.7-15.3-9c-8.4,3.3-16,1.3-24,0.1c-4.9-0.8-9.7-1.1-14.8-0.8
		c-7.7,0.5-13.9-3.1-17.5-10.2c-3.4-6.7-3.1-13.4,1.6-19.2c4.8-5.9,11.7-9.2,18.7-6.2c11,4.7,23.1,3.2,34,7.5c2.1,0.8,2-0.5,2.3-1.9
		c0.7-2.9,1.3-5.9,2.6-8.6c6.1-12.6,25-14.1,34.4-3.8c7.3,7.9,13.1,16.6,17.9,26c1.6,3.1,3.8,3.9,7,3c3.9-1.1,7.3,0,10.1,2.8
		c3.9,3.8,7.8,7.7,11.7,11.6c3.5,3.6,4.4,7.4,2.1,12.3c-3.3,6.7-1.2,10.5,3.2,16.6c8.6,11.9,21.6,11.9,33.8,14.3
		c15,3,30.5,2.6,45.6,5.1c2.6,0.4,5.2,1.1,7.8,1.8c9.5,2.7,13.8,11.4,10.6,20.7c-2.3,6.7-6.2,12.5-11,17.7
		c-26.5,28.8-58.1,50.8-92.5,68.8c-4.1,2.1-3.9,4.5-2,7.6c6,9.9,8.2,21.4,12.8,31.8c1.2,2.8,0.3,5.6-2.3,7.5c-1,0.7-3,1.3-1.2,2.9
		c6.2,5.6,10.3,14.4,19,16.4c9.8,2.3,14.1,8.3,16.4,17.3c1.9,7.6,6.2,15.1,6,22.5c-0.2,7.4,2.8,13.1,4.5,19.5
		c1.1,4.1,3.3,5.7,7.3,3.9c5.4-2.3,9.3-0.2,13.6,3.1c6.6,5.2,11.9,11.1,14.1,19.4c0.7,2.8,2.4,3.7,5.3,2.1
		c7.8-4.2,16.7-4.2,25.1-6.1c8.4-1.9,17-2.8,25.6-3.4c8.1-0.5,16.1-1.5,24.2-1.5c6.8,0,13.6-0.1,20.4-0.1c9.2,0,18.4,0.6,27.6,1.9
		c6.4,0.9,12.8,1.3,19.1,2.6c9.4,1.8,18.9,2.8,28.2,5.5c7.9,2.3,16.1,3.8,23.9,6.6c10.2,3.7,20.6,7.1,30.6,11.5
		c10,4.4,19.6,9.6,29.3,14.7c12.6,6.6,24.4,14.7,35.9,23.1c6.4,4.6,12.6,9.6,18.3,15.3c4.3,4.3,9.1,8.2,13.9,12
		c5.6,4.5,10.2,10,15.3,14.9c5.6,5.3,10.6,11.3,15.6,17.3c4.9,5.9,9.4,12,14.1,18c7.1,9,13.3,18.6,18.9,28.6
		c5.5,9.8,11.3,19.5,15.7,29.9c7.2,16.9,13.6,34.1,18.8,51.8c3.8,13,6.7,26.1,8.8,39.3c2.8,17.8,4.5,35.9,4.7,54
		c0.2,15.8-1.7,31.3-3.5,46.9c-1.3,11.6-3.7,22.9-5.8,34.4c-1.3,7.3-3.3,14.6-5.7,21.6c-1.6,4.7-1.7,9.9-4.6,14.1
		c-4.4,6.4-5.7,14.2-8.9,21.3c-3,6.7-5.8,13.6-8.9,20.3c-5.9,12.5-13.1,24.1-20.5,35.8c-8,12.6-17.4,24-26.9,35.4
		c-14.2,17.1-30.7,31.7-47.9,45.8c-10.4,8.5-21.9,15.3-32.6,23.3c-5.6,4.1-12.3,6.6-18.2,10.4c-11.7,7.6-24.8,11.9-37.5,17
		c-7.8,3.1-15.4,7.2-24.3,8.4c-5.6,0.7-11.2,3.5-16.8,5.3c-9,2.8-18.2,3.7-27.3,5.5c-27.6,5.4-55.7,3.1-83.5,3.5
		c-12.8,0.2-25.6-1.2-38-3.5c-7.6-1.5-15.5-2.1-23.2-4.5c-6.1-2-12.6-3.7-18.9-5.5c-7.8-2.2-15.7-4.6-23.3-8
		c-8.8-3.9-18.1-6.7-26.5-11.3c-11.2-6.1-22.4-12.1-33.4-18.6c-6.5-3.9-11.6-10-19.4-12.4c-3.9-1.2-6.3-6.7-10.6-9.3
		c-7.1-4.2-13.1-9.8-18.5-16.3c-3.6-4.4-8.4-7.8-12.6-11.9c-8.3-8.1-16-16.8-23.3-25.7c-5.7-6.9-10.6-14.4-15.7-21.8
		c-6.9-9.8-13-20-19-30.3c-3.6-6.1-7.2-12.4-9.7-19c-2.7-7.3-6.1-14.4-9-21.6c-3.2-7.7-5.2-15.8-8.2-23.5c-3.8-9.7-5.9-20-8-30.1
		c-1.4-6.9-2.2-14.1-3.4-21c-1.2-7.3-0.8-14.8-2.8-22c-0.2-0.8-0.4-1.6-0.4-2.5c0.4-13-1.3-26-0.5-39.1c0.5-7.6,0.7-15.3,1.6-22.8
		c1-8.3,1.7-16.7,3.8-25c1.4-5.7,2.3-11.6,3.6-17.4c2.3-10.5,5.2-20.7,8.5-31c3.4-10.2,6.5-20.6,11.1-30.2c4.3-8.9,8.3-18,13.1-26.7
		c3.4-6.2,6.7-12.6,10.5-18.5c7.3-11.6,14.2-23.6,23.7-33.8c4.8-5,9.3-10.4,13.3-16c3.7-5.4,9-9.3,13.4-13.8
		c5.7-5.9,11.9-11.5,18.2-16.9c5.1-4.4,10.4-8.7,15.6-13c6.4-5.2,13.4-9.8,20.3-14.4c6.4-4.3,13.3-8,19.6-12.5
		c4.7-3.3,10.5-4,14.9-7.9c2.2-2,3.1-3.3,2.1-6.2c-6.7-18.1-12-36.9-20.2-54.3c-4.6-9.7-9.4-19.3-13.3-29.3c-0.8-2.1-2.5-3-4.9-2.5
		c-2.8,0.6-5.5,1.2-8.3,1.7c-6.5,1.3-12.1-1.6-14.6-7.7c-1.2-3.1-2.5-6.2-3.1-9.5c-0.8-4.5-1.9-7.9-7.6-7.7c-2.7,0.1-3.4-2.8-4.2-5
		c-2.6-7.2-5.2-8-11.4-3.9c-31.9,21.1-59.8,46.6-84.2,76.1c-21.3,25.8-43.4,51-65,76.5c-11.9,14.1-23.6,28.4-35.5,42.6
		c-18.4,21.9-37,43.6-55.4,65.6c-13.6,16.4-27.4,32.7-40.7,49.2c-8.9,11-18.7,21.2-27.2,32.5c-13.5,17.9-28.6,34.5-42.6,52
		c-9.2,11.4-18.8,22.5-28.2,33.7c-3,3.6-6.7,7-0.4,11.2c1.7,1.2,1.8,3.9,1.8,6.1c0,2.6,0.5,5,1.5,7.3c1.4,2.9,1.6,5.7-0.3,8.5
		c-0.6,0.9-1.2,2.5-0.8,3.3c4.2,7.5-3,13.2-2.8,20.1c0,1.5-1.6,2.4-2.7,3.4c-1.1,0.9-2.8,2.1-2.9,3.3c-0.4,8-8.5,10.2-11.8,16
		c-0.2,0.4-0.7,0.8-1.2,0.9c-7.5,1-5.1,5.9-4.1,10.3c7.4,32.7,14.8,65.3,22.1,98c3.4,15.1,3.2,15.5,18.5,17.3
		c7.2,0.9,14.5,1.9,21.9,0.8c5.6-0.9,7.1,0.8,8.9,6.3c2.5,7.6,0.7,13.7-3.2,20.7c-6,10.7-13.3,14.2-25.6,12.5
		c-10-1.4-20.5-0.4-30.7-1.5c-15.1-1.6-30.1-4.2-45.4-3.4c-4.5,0.2-5.7-2.3-6.4-6.4c-2.5-12.9,5-21.8,12-30.9
		c2.1-2.7,5.6-2.5,8.8-2.3c3.2,0.2,6.3,0.6,9.5,0.6c5.5,0,6.4-1,5-6.2c-3.5-13-7.1-26-10.9-39c-5.5-18.9-11.9-37.5-16.2-56.6
		c-2-8.8-5.9-11.3-14.8-10.3c-0.7,0.1-1.5,0.5-2,0.2c-6.1-3.3-12.9,0-19.1-2.2c-3.5-1.3-6.9,0.1-10.4,0.1c-2.1,0-5.3,8.2-4,10.8
		c1.7,3.6,1,6-2.3,8c-1.2,0.7-1.8,2-2.1,3.3c-2,8.8-6.2,16.7-8.8,25.4c-1.6,5.3-4.8,10.5-7.3,15.7c-3.9,7.9-7.9,15.7-12,23.4
		c-1.4,2.6-3.2,5.1-4.8,7.6c-0.7,1.1-2.2,2.2-2.1,3.3c0.4,10.3-9.9,13.5-13.8,21.2c-3.9,7.7-10.8,13.8-15.3,21.2
		c-4.1,6.7-10.6,10.9-15.7,16.5c-1.7,1.9-3.9,3.3-5.2,5.7c-1.2,2.1-3,4.2-5.1,5.4c-3.3,2-5.5,4.9-8.1,7.6c-5,5.2-10.9,9.7-16.7,14.2
		c-6.1,4.8-12.2,9.7-18.8,13.8c-7.7,4.8-14.4,11.1-23.1,14.2c-1.6,0.6-2.7,1.9-4,3c-2.9,2.5-5.7,5.2-9.9,5.3c-0.9,0-2,0.5-2.8,1.1
		c-11.1,8.7-24.6,12.4-37.3,17.5c-11.9,4.7-24.4,8.3-36.9,11.8c-15.7,4.3-31.5,5.7-47.4,8C455,1057.3,442.8,1057.8,430.6,1058.1z
		 M1143.8,292.3c-0.2-0.2-0.3-0.5-0.5-0.7c-0.7,0.4-1.5,0.7-2.1,1.1c-19,12-38.2,23.8-56.9,36.1c-8.4,5.5-18.2,9.1-24.5,17.6
		c-0.8,1.1-2.3,1.3-3.7,1.1c-1.6-0.2-2.9,0.6-4.2,1.3c-27.7,16.7-55.3,33.5-83,50c-26,15.5-52.3,30.7-78.4,46
		c-10.3,6.1-20.5,12.4-30.9,18.4c-2.9,1.6-4,5.7-6.9,6.1c-7.6,1.1-13.4,5.8-19.9,8.9c-13.8,6.6-27.5,13.6-41.2,20.3
		c-6.1,3-6.2,3-3.9,9.7c2.9,8.5,5.9,17,8.9,25.5c13.4,38,26.8,76,40.3,114c2.6,7.5,6.7,8.2,11.7,2.2c17.6-21.3,35.1-42.7,52.6-64
		c23.7-28.8,47.3-57.6,71.1-86.4c19.2-23.2,38.6-46.3,57.8-69.5c19-23,37.8-46.1,56.8-69C1105.7,338,1124.8,315.2,1143.8,292.3z
		 M1459.4,749.6c0.7-2.8-0.7-3.1-3-2.6c-16,3.2-32,6.4-48,9.5c-1.4,0.3-2.4,1-3.4,2c-15.5,15.6-31,31.2-46.4,46.9
		c-15.9,16.2-31.7,32.4-47.4,48.7c-8.8,9.1-18.1,17.7-26.2,27.4c-1.6,1.9-1.8,3.3-0.1,5.2c2.9,3.2,5.5,6.7,8.5,9.8
		c6,6.2,12.1,12.4,18.3,18.4c2.5,2.4,4.8,3.5,8.4,0.2c20.1-18.7,40.6-37,60.9-55.5c18.1-16.4,36-33.1,54.4-49.2
		c8-7,14.4-13.9,16-25.2C1453.1,773.1,1456.7,761.4,1459.4,749.6z M1464.8,892.1c0.1,0,0.2,0,0.3,0c0,28,0,56,0,84
		c0,3.2,0.1,6.2,4.2,6.7c13.4,1.7,26.9,1.5,40.4,0.6c2.9-0.2,4.1-1.7,4.5-4.8c1.4-9.8,0.6-19.6,1.1-29.4c1.2-23.6,2.5-47.2,3.6-70.8
		c0.9-19.1,1.3-38.2,2.8-57.3c0.4-5,1.8-10.4-1.2-15.1c-8.6-13.3-17.3-26.5-25.8-39.8c-1.8-2.9-3.1-2.3-4.7,0.1
		c-7.8,11.8-15.7,23.6-23.5,35.4c-1.2,1.9-1.6,3.9-1.6,6.2C1464.8,835.8,1464.8,864,1464.8,892.1z M1282,682c0,0.4,0,0.7,0,1.1
		c-17,0-34,0-51,0c-6.9,0-7.6,0.8-8,7.7c-0.2,3.3-0.6,6.6-0.7,9.9c-0.4,9.8-0.8,19.6,0.6,29.4c0.6,4.1,2.8,5.8,6.6,4.3
		c5.2-2.1,10.5-1.5,15.8-1.3c31.9,1.2,63.8,2.5,95.7,3.8c18.8,0.7,37.6,1.3,56.4,2.2c3.4,0.2,6.1-0.5,8.8-2.3
		c6.7-4.4,13.4-8.6,20.3-12.7c3.4-2,5.1-4.1,3.3-8c-1-2.2-0.7-4.2,1.9-5.3c4.5-1.9,3.3-3.7,0-5.9c-9.5-6.4-19-12.9-28.3-19.6
		c-3.3-2.3-6.6-3.4-10.6-3.4C1355.9,682.1,1319,682,1282,682z M150.9,706.2c0,8.1,0.4,15.1,0.9,22.1c0.3,4.3,1.7,5.7,6,5.8
		c15.1,0.4,30.3,0.5,45.5,0.6c41.3,0.3,82.6,1.6,123.9,2.3c3,0,5.5-0.9,7.8-2.6c3.5-2.6,6.9-5.2,10.6-7.4c2.9-1.7,3.5-3.4,2.9-6.8
		c-1.5-7.9-3.8-15.8,0.8-23.7c1.6-2.8,0-6.5-2.9-8.8c-8.8-7.2-18.8-10.2-30.2-8.1c-1.6,0.3-3.3,0.6-5,0.6
		c-36,0.1-71.9,2.5-107.9,3.3c-15.5,0.3-31,0.5-46.4,1.7c-3.5,0.3-4.9,1.6-5.4,5C150.8,695.7,151.1,701.5,150.9,706.2z M381.5,633.3
		c-0.4-9.6-3.9-15.9-10.2-21.5c-26.9-24.4-53.3-49.2-80-73.8c-12.6-11.6-25.3-23.1-37.3-35.4c-2.1-2.1-4.9-5.1-8.6-1.9
		c-10.9,9.4-21.1,19.4-30,30.6c-2.6,3.3-1.6,6.5,2.1,8.1c2.6,1.1,4.5,2.8,6.4,4.7c19.5,18.8,38,38.7,57,58.1
		c18.5,19,36.9,38,55.2,57.1c4.7,5,10.9,4.9,16.6,5.2c4.4,0.2,4.7-5,6.7-7.8c4.6-6.2,8-13.4,16.6-15.6
		C380,640.2,380.8,635.6,381.5,633.3z M360.5,748.9c-8.4,2.3-16.9,2.3-23.4,9.4c-17.3,18.9-35.2,37.3-52.9,55.8
		c-15,15.6-30.3,30.9-45,46.7c-6.6,7.1-13.9,13.4-19.7,21.2c-1.8,2.5-1.9,4.4,0,6.6c8.9,10,18.6,19.1,28.8,27.7
		c4.1,3.5,7.2,2.4,9.9-2.4c0.5-1,1.3-1.9,2.1-2.7c35.4-34.8,70.7-69.7,106.1-104.4c6.7-6.5,13.6-12.7,13.5-23.3
		c0-2.8,0.9-5.6,1.6-8.3c0.9-3.7,0.2-6.4-3.2-8.5c-4.3-2.7-7.5-6.2-9-11.5C368.1,751.3,363.7,750.5,360.5,748.9z M1531.8,757.2
		c0.1,0.8,0.1,1.7,0.2,2.5c2.1,11.3,4.2,22.6,6.2,33.8c0.3,1.4,0.9,2.4,1.9,3.4c3.9,4.1,7.8,8.2,11.7,12.3
		c32.6,33.1,65.3,66.1,97.8,99.2c4.1,4.2,8.5,8,12.9,11.8c1.8,1.5,3.3,2,5.3,0.4c10.3-8.8,19.8-18.3,29-28.1c1.3-1.4,2.3-3,0.7-4.9
		c-2.5-3.1-4.8-6.4-7.5-9.3c-14.8-15.8-29.8-31.4-44.6-47.1c-19.8-21.1-39.6-42.3-59.4-63.4c-1.7-1.8-3.2-3.9-5.9-4.4
		c-15.2-2.9-30.4-5.7-45.6-8.6C1532.5,754.3,1531.4,754.8,1531.8,757.2z M1494.6,439.2c-2.4,0-5.3-0.2-8.1,0
		c-3.6,0.3-7.8-0.1-10.7,1.6c-4,2.4-1,7-1.2,10.6c-1.2,21.1-0.6,42.3-1.2,63.4c-1,33.3,0.5,66.6-1.2,99.9c-0.1,2,0.1,4,1.3,5.7
		c6.4,9.5,12.8,19,19.2,28.6c1.5,2.2,2.7,2.6,4.5,0.2c7-9.7,14.2-19.3,21.3-29c1.1-1.5,1.6-3.2,1.6-5.1c0.6-15.5,1.3-30.9,1.7-46.4
		c0.6-20.3-0.1-40.6,0.9-60.9c1-19.9,0.8-39.9,1.8-59.9c0.3-5.5-1.8-8-7.2-7.8C1509.9,440.4,1502.5,438.5,1494.6,439.2z
		 M452.1,884.5c-0.1,0-0.1,0-0.2,0c0-26,0-52,0-78c0-2.3,0-4.6-1.6-6.6c-2.8-3.5-5.3-7.2-8-10.9c-2.5-3.4-4.8-6.9-10-5.2
		c-1.7,0.5-3.6-0.5-5.2-1.4c-5.3-2.8-11.6-1.1-14.5,1.8c-5.3,5.2-10.7,11.2-10.6,20.1c0.6,35,0.7,69.9,1.2,104.9
		c0.3,22-0.7,44,0.7,65.9c0.3,3.8,1.8,5.5,5.4,5.6c13,0.4,26,0.8,38.9-0.7c2.7-0.3,3.6-1.5,4-4.1c0.8-5-0.1-10-0.1-14.9
		C452.1,935.5,452.1,910,452.1,884.5z M1614.9,737.9c12.8,0.2,23.5,0.8,34.1,0.6c37.3-0.7,74.5,2.9,111.8,0.6c3.2-0.2,3.9-1,4.3-3.8
		c1.4-12.6,0.9-25.3,1-37.9c0-4.7-2-6.5-6.7-6.5c-14.3,0-28.6-0.4-42.9-0.7c-39.6-0.8-79.2,0.6-118.8-1.2c-4.4-0.2-8,1-11.6,3.6
		c-9.4,6.8-19,13.5-28.6,20.1c-3.1,2.1-2.9,3.3,0.1,5.3c7.8,5.3,15.5,10.9,23.2,16.4c2.1,1.5,4.3,2.4,6.9,2.7
		C1597.4,738.5,1607.3,737.5,1614.9,737.9z M1542.3,669.9c7.9-1.4,16.2-2.9,24.6-4.3c5.1-0.9,10.2-0.7,14.6-5
		c28.4-27.6,57.2-54.8,85.6-82.4c12-11.7,24.9-22.6,36-35.3c2.1-2.5,2.5-3.6,0.6-6.1c-8-10.5-17.7-19.5-27.2-28.5
		c-3.7-3.5-7.2-2.5-10,1.9c-0.7,1.1-1.7,2.1-2.6,3c-21.2,21.4-42.4,42.9-63.7,64.2c-16,16-32.2,31.8-48.3,47.7
		c-2.5,2.4-5.7,4.6-6.4,8.2c-2.3,11.4-4.1,22.9-6.2,34.4C1538.9,669.7,1540.1,669.9,1542.3,669.9z M473.5,774.6
		c1.9,6.4,1.3,13.8,7.4,19.6c23.7,22.9,46.9,46.4,70.4,69.5c16.4,16.1,32,33.1,49.2,48.3c2.5,2.2,4.2,2.4,6.8,0.3
		c5.1-4.1,9.6-8.8,14.2-13.4c4.9-5,10.2-9.6,14.2-15.4c1.4-2.1,1.6-3.4-0.5-5.5c-5.2-5.2-10.4-10.2-15.7-15.3
		c-21.8-20.8-43.4-41.9-65-62.9c-13.4-13-26.6-26.1-40.2-39c-4-3.8-9.8-4.9-14.9-5.5c-6.4-0.8-11.3,4.7-17.3,6.4
		c-0.8,0.2-1.5,1.4-1.9,2.2c-1.2,2.8-2.7,5.3-5.4,7C473.9,771.8,473.4,772.9,473.5,774.6z M398,578.9c0,8.7,0.1,20.7,0,32.7
		c0,3.4,1.1,6.1,3.1,8.7c1.8,2.4,3.9,1.8,6.3,1c2.7-0.9,2.3-2.7,1.7-4.8c-1.3-4.6,0-8.4,3.1-11.9c8.9-10,8.8-10,21.2-4.6
		c2.2,1,5.1,3.1,7,1.2c2.9-2.9,6.9-4,9.8-6.7c2.2-2.1,3.3-4.2,3.1-7.4c-0.4-8.6-0.6-17.3-1-25.9c-0.9-17.5,0.3-35-1.1-52.4
		c-1.9-23.4-0.1-46.9-1.9-70.4c-0.2-3-1.2-4-4-4.4c-7.8-1.2-15.6-0.6-23.4-0.8c-6-0.1-12,0.3-17.9,1.2c-2.1,0.3-4.1,0.6-4,3.9
		c0.3,10.6-0.5,21.3-0.5,31.9C399.2,505.4,398.2,540.5,398,578.9z M1306,104.2c-1,0.7-0.7,1.6-0.7,2.4c-0.4,11.5-2.1,12.8-12.5,17.7
		c-7.8,3.6-15.7,6.2-23.9,8.3c-1.2,0.3-2.8,0.3-3,2.1c-0.5,3.5,3.3,8.1,6.9,8.2c2.4,0.1,4.7,0,6,2.6c3.9,7.9,9.1,15.4,11.4,23.8
		c3.9,13.9,10.7,26.5,15.7,39.9c1.5,4.1,3.4,5.3,7.8,2.9c25.1-13.3,48.7-28.8,70.1-47.5c10.4-9.1,20.5-18.6,27.6-30.6
		c4.9-8.3,2.6-13.6-6.8-15.7c-9.5-2.1-19.1-2.3-28.7-3.2c-14.1-1.3-28.1-2.8-41.7-7.1c-3.1-1-5-0.7-7.2,2.2
		c-4.2,5.6-9.3,5.7-14.5,0.8C1310.2,108.8,1308.2,106.4,1306,104.2z M1428.8,668.1c2.6,0.7,2.9-0.5,2.2-2.6
		c-0.5-1.3-0.8-2.5-1.3-3.8c-4.1-10.6-4.2-10.7-15.1-7.4c-4.2,1.2-6,0-7.6-3.7c-3.8-8.9-4-8.9,4.6-13.2c1.2-0.6,2.4-1.3,3.6-1.8
		c3.4-1.3,3.9-3.2,2.6-6.6c-6.1-16-12.1-32.1-17.9-48.2c-1.7-4.7-4.2-8.6-7.7-12.1c-12.3-12.2-24.5-24.5-36.6-37
		c-9.6-9.9-19-20.1-29.4-29.2c-1.6-1.4-2.7-2.1-4.6-0.6c-10.7,8.8-20.8,18.2-29.9,28.7c-2.4,2.7-1.8,4.7,0.6,7.2
		c15.5,16.3,30.8,32.7,46.3,49c22.1,23.3,44.7,46.2,66.3,70C1411.7,664.4,1419.7,666.5,1428.8,668.1z M1547.2,623.9
		c2.3-2.1,3.6-3.2,4.8-4.5c27.7-27.6,55.4-55.3,83-83c10.3-10.3,21.3-20.1,30.2-31.9c2.1-2.8,2.2-4.2-0.5-6.4
		c-8.5-7-17.6-13.1-26.9-18.9c-8.9-5.6-8.9-5.4-14.9,2.9c-18.5,25.7-37,51.3-55.5,77c-6,8.3-12.6,16-13.7,27.1
		C1552.5,598.5,1549.6,610.5,1547.2,623.9z M479.9,797.6c-0.5,0.3-1.1,0.7-1.6,1c2,11.4,4.2,22.8,6.1,34.3c1,6.1,2.1,11.8,6,17.1
		c22.1,30.4,43.9,61.1,65.7,91.8c2.3,3.2,4.7,3.7,8.1,1.7c10.9-6.5,21.4-13.4,31.5-21.2c3.1-2.4,2.8-4,0.6-6.8
		c-10.5-13-22.9-24.1-34.6-35.9c-19.3-19.6-39-38.6-58.5-58C495.3,813.7,487.7,805.6,479.9,797.6z M519.9,761.3
		c2.5,2.1,4.5,3.6,6.2,5.3c21.1,20.4,42.1,40.8,63.1,61.1c13.3,12.8,26.6,25.6,39.9,38.5c2.9,2.8,5.9,5.3,9.2,7.6
		c2.5,1.8,4.3,1.4,6.3-1.1c6.1-7.9,11.9-16,17-24.7c7-12,7.1-12.1-4.4-19.8c-28.7-19.1-56.8-38.9-85.1-58.6
		c-3.2-2.2-6.6-3.2-10.5-3.9c-5.3-0.9-10.7-1.6-15.9-2.5c-4.7-0.8-9.9,0-14.1-2.3C528,759.1,524.9,759,519.9,761.3z M1585.9,661.5
		c1,1.2,1.8,0.7,2.5,0.6c13-2.1,25.9-4.3,38.9-6.2c4.9-0.7,9.1-2.8,13.1-5.6c24.1-16.7,48.2-33.3,72.3-49.9
		c5.9-4.1,11.8-8.1,17.7-12.1c3.4-2.3,4.8-4.6,2.3-9c-4.7-8.2-9.7-16.3-15.1-24.1c-8-11.3-6.1-13.6-18.7-1.8
		c-27.9,26.2-55.4,52.8-83,79.3C1605.9,642.2,1595.9,651.9,1585.9,661.5z M397,806.3c-4.6,6.9-8.6,14.1-13.8,20.2
		c-8.7,10-11,21.9-13.1,34.3c-3.4,20.5-7.4,40.9-10.8,61.4c-2.5,14.7-6.2,29.3-7.5,44.2c-0.3,3.4,0.7,4.8,3.9,5.6
		c12.4,3.3,25,5.5,37.7,7.3c4.4,0.6,6.1-0.9,6-5.5c-0.1-3-0.5-6-0.5-9c-0.1-51.3,0.3-102.6-0.9-153.9C398,809.6,398.5,808,397,806.3
		z M527.1,677.1c16.5,0,33.5,0,50.4,0c31.3-0.1,62.7-0.1,94-0.2c7.8,0,15.6-0.8,23.4-1.7c2.5-0.3,4.3-1.2,3.9-4
		c-2.2-13.5-4.1-27-8.6-40c-0.7-2-1.8-3-4.1-2.6c-13.2,2.4-26.5,4.6-39.7,7c-22.8,4.2-45.5,8.3-68.2,12.8c-5.1,1-10.8,0.5-15.4,3.6
		C550.5,660.4,538.5,669,527.1,677.1z M457,809.7c-1.3,2.7-0.9,4.5-0.9,6.3c0.1,27.9,0.1,55.9,0.7,83.8c0.5,22.6,0.2,45.3,0.2,67.9
		c0,2.7,0.2,5.3,0.9,7.9c0.6,2.4,2.1,3.2,4.4,2.9c13.7-2,27.2-4.7,40.4-8.8c1.8-0.6,2.5-1.5,2.1-3.7c-1.5-8.1-2.9-16.3-4.5-24.5
		c-5.5-28.6-10.5-57.2-15.8-85.8c-0.7-3.9-0.4-8.1-2.9-11.5C473.7,832.9,465.5,821.6,457,809.7z M1592.3,742.5
		c11.9,8.3,22.7,16,33.6,23.5c1.7,1.2,3.5,2.4,5.7,2.8c25.2,4.6,50.4,9.3,75.6,14.1c13.6,2.5,27.1,5.2,40.7,7.7
		c3,0.6,5.9,0.9,7.2-3.2c3.8-12.3,5.9-24.9,8.5-37.5c0.6-3.1-0.7-4.7-4-4.9c-4.5-0.2-8.9-0.9-13.4-1c-27.1-0.4-54.3-0.7-81.4-1.1
		c-7-0.1-14-0.5-21-0.5C1627.2,742.5,1610.6,742.5,1592.3,742.5z M1525,609c0.5,0.3,1,0.7,1.5,1c0.4-0.7,0.6-1.5,1.1-2.2
		c7.8-10.8,15.6-21.6,23.4-32.4c1.5-2.1,2.2-4.5,2.5-7c0.9-5.7,2-11.4,3.1-17.1c4.7-23.5,8.9-47,13.3-70.6c1.6-8.3,3.8-16.5,4.6-25
		c0.2-2.2,0.7-4.6-2.1-5.4c-12.8-3.8-25.7-6.9-39-8.3c-2.7-0.3-4.4,0.8-4.6,3.9c-0.2,3.2-0.8,6.3-0.8,9.4
		c-0.2,23.3-1.2,46.6-1.5,69.9c-0.2,13-0.1,26-1,38.9C1524.6,579.1,1525.4,594,1525,609z M1599.2,683.8c1.4,1.5,2.7,1.1,3.8,1.1
		c35,0.4,69.9,0.7,104.9,1.1c2.8,0,5.6,0.4,8.5,0.4c14.6,0.1,29.2,1.3,43.9-0.7c5.1-0.7,5-3.2,4.6-6.7c-1.2-9.8-3-19.4-5.1-29
		c-2.5-11.3-3-11.6-14.7-9.6c-27.4,4.6-54.8,9.3-82.2,13.8c-15.3,2.5-31.3,3.3-43.2,15.4c-0.9,0.9-2.2,1.5-3.3,2.3
		C1610.6,675.8,1605,679.8,1599.2,683.8z M334.3,755.8c-0.2-0.3-0.4-0.7-0.5-1c-7.8,1.6-15.5,3.6-23.3,4.8
		c-5.2,0.8-9.9,2.7-14.2,5.6c-27.6,18.9-55.3,37.7-82.9,56.6c-7.1,4.9-14.5,9.5-21.5,14.5c-2.5,1.8-6.7,3.4-4.1,7.7
		c6.9,11.6,14.2,23,22.6,33.5c1.2,1.6,2.6,1.5,4.7,1.3c4.8-0.5,5.4-4.8,8-7.3c30.6-30.4,59.8-62.1,89.9-93
		C320.1,771.1,327.2,763.4,334.3,755.8z M1403.5,662.7c0.2-0.3,0.4-0.6,0.6-1c-1.5-1.7-2.8-3.6-4.4-5.2
		c-9.2-9.6-18.4-19.2-27.6-28.9c-17.4-18.2-34.6-36.5-52.1-54.6c-10.4-10.8-20-22.4-31.6-31.9c-2.5-2-4.3-2.1-6.2,0.4
		c-7.7,10.3-15.4,20.5-21.7,31.7c-1.7,3-1.5,5.1,1.6,7.1c4.2,2.7,8.1,5.8,12.2,8.7c26.2,18.4,52.2,37,78.3,55.4
		c5.2,3.7,10,8.6,15.7,10.4C1379.7,658.5,1391.7,660.2,1403.5,662.7z M376.4,802.5c-11.6,11.2-22.5,21.6-33.3,32.2
		c-18.8,18.4-37.5,36.9-56.2,55.5c-9.8,9.7-20.3,18.8-28.3,30.1c-1,1.4-2.4,2.4-0.3,4c11.1,8.6,22.5,16.7,35.1,22.8
		c2.9,1.4,7.2,1.5,8-2.3c1.5-7.5,6.6-12.6,10.5-18.5c17.1-26,34.5-51.9,51.9-77.7c4.6-6.8,7.5-13.8,8.3-22
		C373,818.9,374.8,811.3,376.4,802.5z M392.8,607.9c1.6-1.9,1-3.6,1.1-5.2c0.4-17.5,0.4-35,0.8-52.4c0.7-35.6,0.2-71.3,0.2-106.9
		c0-1-0.2-1.8,0.4-2.8c2.8-4.7,2.4-5.8-3-5.2c-14.3,1.5-28.3,4.5-42,8.5c-4.6,1.3-5.6,5.4-2.9,9.3c1.5,2.3,2.2,4.8,2.7,7.4
		c2.6,12.5,5.3,25,7.9,37.6c4.1,19.7,8.1,39.4,12.2,59.1c1.8,8.6,2.5,17.8,6.1,25.6C380.3,591.9,387.1,599.6,392.8,607.9z
		 M1540.4,804.3c1.4,7.9,2.8,15.6,4.1,23.4c1,6.3,2.6,12.2,6.3,17.6c12,17.8,23.5,35.9,35.2,53.9c10.3,15.9,20.7,31.8,31,47.7
		c2.5,3.9,5.3,4.3,9.2,2.1c10.5-5.8,20.2-12.9,30.2-19.5c3.2-2.1,2.7-3.9,0.7-6.8c-4.8-6.9-10.9-12.5-16.7-18.4
		c-32-32.7-64.2-65.3-96.4-97.9C1543.1,805.6,1542.5,804.3,1540.4,804.3z M1590.3,765c0.4,2.8,2.2,3.7,3.4,5
		c8.5,9.1,17.2,18.1,25.7,27.2c20.9,22.2,41.7,44.3,62.6,66.5c4.9,5.2,10.1,10.2,14.5,15.8c3.7,4.8,6.7,5.6,10.6,0.8
		c7.8-9.8,14.9-20,21.5-30.7c1.2-1.9,1.4-3.7-0.4-5.4c-2.6-2.3-5-4.9-7.9-6.9c-21.3-14.5-42-30-63.4-44.4
		c-14.2-9.5-26.4-23.5-45.5-24c-0.2,0-0.3-0.1-0.5-0.1C1604.1,767.5,1597.3,766.3,1590.3,765z M331.9,660.8c-2.3-2.5-3.6-4-5-5.4
		c-29.9-30.8-59.6-61.7-89.6-92.4c-7.8-7.9-14.9-16.6-24.3-22.8c-2.3-1.6-3.8-1.5-5.4,0.6c-2,2.7-4,5.4-5.9,8
		c-5.6,7.7-10.6,15.7-15.3,24c-3.3,5.7-2.2,8.5,4,10.3c2.5,0.7,4.5,2.1,6.6,3.4c12.4,8,24.9,16,37.4,24c20.1,13,40.5,25.6,60.2,39.2
		C305.6,657.5,318.1,658.1,331.9,660.8z M460.2,435.2c-6.9-0.2-8.9,2.4-7.2,8c0.5,1.6,0.8,3.2,0.9,4.9c0.3,9.6,0.9,19.3,0.9,28.9
		c0,34.5,2.5,68.8,2.3,103.3c0,9.1,0,8.8,8.7,6c7.9-2.5,11.3-8.3,12.9-15.6c1.6-7.3,2.4-14.7,3.7-22.1c5.2-27.9,10.4-55.9,15.8-83.8
		c1-5,1.4-10.1,4.6-14.6c2.1-3,0.4-5.8-3.1-6.9C486.5,439.2,472.8,437.2,460.2,435.2z M376.5,611.5c0.6-4.7-1.3-8.1-1.9-11.6
		c-1.2-6.8-1.5-14-5.6-20c-7.1-10.5-14.3-20.9-21.4-31.3c-17.2-25.3-34.6-50.5-51.6-76c-3-4.5-5-4.3-8.9-1.8
		c-10.1,6.2-20,12.6-29.4,19.8c-5.2,3.9-5.5,5.4-0.6,10c10,9.5,20,19,30.1,28.4c24.5,22.8,49,45.5,73.5,68.3
		C365.8,601.8,370.8,606.3,376.5,611.5z M1393.4,743.4c-26.9-1.1-53.8-2.2-80.7-3.3c-14.6-0.6-29.3-1.6-43.9-1.7
		c-13.6-0.1-27.2-2.6-40.9-0.4c-3.5,0.6-4.7,1.6-4,5.1c0.6,3.1,0.7,6.3,1.2,9.4c1.9,10.5,3,21.1,7.1,31.1c1.4,3.4,3.7,4.3,6.7,2.2
		c3.4-2.5,7.3-3.1,11.2-3.8c19-3.5,38-7,56.9-10.5c16-3,31.9-7.2,48.1-8.9C1370.4,760.8,1381.8,752.4,1393.4,743.4z M324.4,741.4
		c-8.4-0.4-15.5-1.2-22.6-1.1c-31.7,0.2-63.3-0.9-94.9-1.3c-2,0-4-0.3-6-0.4c-14.5-0.6-28.9,0.1-43.4,1.2c-3,0.2-4.8,1.3-4.2,4.7
		c1.9,12.5,4.5,24.9,7.8,37.1c0.9,3.6,3,4.5,6.7,3.9c18.4-3.1,36.4-7.8,54.7-11.4c24.6-4.9,49.2-10.2,73.8-15.4
		c1.9-0.4,4.1-0.7,5.7-1.8C309.1,752,316.2,747,324.4,741.4z M324.7,673.7c-3.6-2.3-7.3-4.6-10.9-6.9c-4.3-2.7-8.1-6.6-13.4-7.6
		c-6.7-1.3-13.4-2.6-20.1-3.9c-22-4.2-44.1-8.5-66.2-12.7c-15.7-3-31.4-6-47-9c-3-0.6-5.9-0.7-6.9,2.9c-3.8,13-6.2,26.2-7.6,39.7
		c-0.4,4.4,2.5,6.4,6.7,5.1c1.8-0.6,3.5-1.1,5.3-1.2c32.6-1,65.2-2,97.8-3.1c11.8-0.4,23.7-0.3,35.4-1.3
		C306.8,674.9,315.6,675.5,324.7,673.7z M501.6,583.8c3.4,1.5,5.7-0.5,8.3-3c14.9-15,30-29.7,44.9-44.7
		c13.3-13.5,27.5-26.1,39.7-40.7c1.8-2.2,2-3.3-0.2-5.1c-10.5-8.6-22.1-15.5-33.8-22.2c-2.6-1.5-4.7-0.9-6.5,1.6
		c-2.5,3.6-5.2,6.9-7.6,10.5c-21.1,31.2-42.1,62.4-63.1,93.6c-1,1.5-1.9,3.1-2.4,4.9c-0.6,2.9-0.1,4.4,3.3,4.4
		C489.9,583.1,495.6,583.5,501.6,583.8z M1390.5,678c0.1-0.5,0.2-1,0.4-1.6c-4.5-3.1-8.9-6.3-13.4-9.4c-5.7-4-10.9-8.5-18.3-9.5
		c-8-1.1-15.9-3.2-23.9-4.9c-25.4-5.4-50.8-10.7-76.2-16.1c-5.5-1.2-11.2-2.1-16.5-4c-5.6-2-7.6-1.5-9.4,4c-3.1,9.4-5,19-6.8,28.6
		c-2.5,13.4-2.3,13.9,11.5,13.8c48.1-0.3,96.2-0.6,144.4-0.9C1384.9,678,1387.7,678,1390.5,678z M1446,806.5c-1,0.5-1.5,0.6-1.8,0.9
		c-15.5,14.1-31,28.2-46.5,42.3c-17,15.4-34.2,30.7-51,46.3c-8,7.5-16.7,14.3-23.5,23.1c-1.3,1.7-2.6,3.2-0.3,5
		c10.6,8.3,21.4,16.4,33.3,22.9c2.5,1.3,4.4,0.8,6.1-1.5c2.7-3.8,5.6-7.4,8.3-11.2c19.4-28.2,38.8-56.5,58.1-84.8
		c4.7-7,10.8-13.2,12.8-21.8C1443.1,820.9,1444.4,814.1,1446,806.5z M1399.1,758.4c-4.5,0.8-7.6,1.1-10.6,1.9
		c-7.6,2.1-15.7,2.1-22.8,6.7c-25.5,16.7-51.3,32.9-77,49.2c-9.6,6.1-19.2,11.9-28.8,17.9c-6.3,3.9-6.6,5.2-3,11.5
		c5.6,10,12,19.6,18.6,29c3.1,4.4,5.2,4.6,8.8,1c4.6-4.6,9.2-9.2,13.7-13.8c29.2-29.7,58.4-59.3,87.6-89
		C1389.8,768.4,1394,763.9,1399.1,758.4z M511.6,584.2c0.3,0.5,0.6,1,0.9,1.6c10.6,2,21.2,4.1,31.8,6.1c2.8,0.5,5.1-0.6,7.5-2.1
		c12.5-7.9,25.2-15.6,37.7-23.6c15.2-9.8,31.7-17.7,43.5-32.3c2.5-3.1,2.4-4.8,0.1-7.5c-7.9-9.2-16.7-17.7-25.8-25.7
		c-5.4-4.7-6.5-4.8-11.6,0.2c-18.8,18.7-37.4,37.5-56.2,56.2C530.2,566.2,520.9,575.1,511.6,584.2z M1526.8,815.8
		c-2,3.1-1.6,5.7-1.6,8.1c0.2,20.8-2,41.5-2.5,62.3c-0.6,27.2-2.4,54.5-3.7,81.7c-0.1,2.5,0,5,0.3,7.5c1,6.7,1.7,7.4,8.3,6.4
		c11.2-1.7,22.3-3.7,33.2-6.7c3.7-1,5.2-2.8,4.4-6.8c-3.3-18.2-6.3-36.4-9.6-54.5c-3.5-19.5-8.4-38.8-10.3-58.3
		C1543.9,839.6,1534.5,828.8,1526.8,815.8z M1459.2,812.2c-3.7,5.3-6.9,10.5-10.6,15.3c-3.8,4.8-5.4,10.2-6.5,16
		c-1.7,8.8-3.6,17.6-5.6,26.4c-3.7,16.1-7.5,32.1-11.2,48.1c-3.7,16.2-6.9,32.6-11,48.7c-1.3,5,0.5,6.2,4.4,7.3
		c11.9,3.2,24,5.4,36.1,7.6c3.5,0.6,5-0.6,5.1-4.1c0.2-6.3,0.9-12.6,0.8-18.9c-0.1-25.3-0.5-50.5-0.7-75.8c-0.1-21.5,0-43-0.1-64.5
		C1460,816.4,1460.4,814.5,1459.2,812.2z M1468.1,606.2c1.2-0.8,0.8-1.9,0.8-2.8c0.3-29-0.1-57.9,0.9-86.9
		c0.8-20.8,0.2-41.6,0.2-62.5c0-2.8-0.6-5.6-0.7-8.4c-0.2-4.1-2.4-5-6-4.5c-12.6,1.6-25,3.8-37.3,6.9c-3.6,0.9-5,2.5-3.9,6.4
		c2.5,9,4,18.2,5.1,27.4c0.9,7.5,2.4,14.8,4.9,21.9c10.7,30.8,21.4,61.6,32.1,92.4C1465.4,599.5,1466.1,603.1,1468.1,606.2z
		 M290.1,652.9c0.1-0.3,0.3-0.6,0.4-0.9c-2.2-1.5-4.3-3-6.5-4.4c-18.7-12.2-37.2-24.5-56.1-36.3c-13.9-8.7-27.1-18.7-42-25.9
		c-4.1-2-5.7-1-7.5,2.8c-5.1,10.1-9,20.7-12.9,31.3c-2.8,7.6-2.1,8.7,5.8,10.3c21.5,4.2,43,8.5,64.5,12.7
		C253.9,645.9,272,649.4,290.1,652.9z M367.5,570.8c0.4-0.1,0.8-0.2,1.2-0.4c-2.6-12.3-5.1-24.6-7.7-36.9
		c-3.7-17.9-7.2-35.9-11.2-53.7c-2.1-9.7-3.3-19.7-7.2-29c-1.4-3.5-3.1-3.8-6-2.7c-7,2.7-14,5.3-20.9,8.1c-4.9,2.1-9.7,4.3-14.4,6.9
		c-5.1,2.8-5.2,5.6-0.8,9.4c1.1,1,2,2.2,2.9,3.4c9.7,14.3,19.3,28.7,29,43.1C344.1,536.4,355.8,553.6,367.5,570.8z M289.4,765.2
		c-0.1-0.3-0.2-0.6-0.3-0.9c-5.7,1.1-11.3,2.2-17,3.5c-26.2,5.6-52.3,11.2-78.5,16.8c-8.4,1.8-17,3.1-25.1,6.1
		c-2.7,1-3.7,2.4-2.7,5.2c4.1,12.5,9.5,24.5,15.4,36.3c0.9,1.9,2.2,3,4.4,1.8c3.2-1.7,6.7-3.1,9.7-5.1c16.4-11,32.8-22.2,49.2-33.3
		C259.4,785.5,274.4,775.4,289.4,765.2z M1435.8,846.2c-3.8,5.6-7.6,11.1-11.4,16.7c-15.5,22.7-31.2,45.2-46.5,68
		c-3.8,5.6-8.5,10.7-11.4,17c-1.2,2.5-1,4.3,1.7,5.7c11.5,6.1,23.5,11,35.8,15.4c2.9,1.1,4.4,0,5.2-2.8c1.5-4.9,3.3-9.8,4.5-14.8
		c7-30.7,13.9-61.4,20.7-92.1C1435.2,855.2,1436.7,851,1435.8,846.2z M1360.8,765.6c-10.7,1.9-19.8,3.5-29,5.2
		c-20.4,3.8-40.9,7.5-61.3,11.5c-11.1,2.2-22.4,3.1-33.1,7.4c-2.2,0.9-3.7,1.6-2.8,4.2c4.1,12.7,8.9,25.1,14.8,37.1
		c0.6,1.3,1.4,2.9,3.4,2.1c2.3-0.9,4.5-2,6.6-3.3c22.3-14,44.5-28.1,66.7-42.2C1337.3,780.6,1348.5,773.4,1360.8,765.6z
		 M1354.2,652.2c-1-2.6-2.3-3.3-3.5-4.2c-28.3-19.9-56.7-39.7-85-59.7c-9.8-6.9-9.9-7.2-15.2,3.2c-5.1,9.9-9.5,20.2-13,30.8
		c-1,3.1-0.5,4.6,3.2,5.6c15.9,4.3,32.1,7.3,48.2,10.8c15.1,3.3,30.3,6.2,45.4,9.7C1340.6,649.8,1347,650.8,1354.2,652.2z
		 M483.4,566.8c9.2-13.6,17.9-26,26.1-38.6c13-20.1,27.5-39.2,39.6-59.9c2.6-4.4,2.2-5.4-1.9-7.3c-11.2-5.2-22.5-9.9-34.2-13.8
		c-4.3-1.4-6.6-0.4-7.6,4.1c-1.7,8.5-3.7,16.9-5.3,25.3c-3.8,19.9-7.6,39.8-11.3,59.7C487,546,485.4,555.7,483.4,566.8z
		 M1549.7,851.1c-0.3,0.1-0.5,0.2-0.8,0.4c1.3,7.3,2.5,14.7,3.8,22c4.2,23.4,8.3,46.8,12.7,70.2c1.5,7.8,2.4,15.8,5.2,23.4
		c1.2,3.3,2.3,4.8,6.4,3.4c8.7-3,17.2-6.2,25.6-9.8c13.8-6,13.8-6.6,5.5-19.4c-10.7-16.5-21.3-33-32-49.5
		C1567.3,878.1,1558.5,864.6,1549.7,851.1z M367.7,850.9c-0.2,0-0.5-0.1-0.7-0.1c-11.3,16.8-23,33.4-33.9,50.5
		c-9.7,15.3-21.2,29.4-29.1,45.8c-2,4.2-0.9,5.7,2.6,7.1c8.6,3.5,17,7.7,25.9,10.6c15,4.8,12.7,6.8,16.1-9.1
		c3.6-16.6,6.2-33.3,9.2-50C361.1,887.5,364.4,869.2,367.7,850.9z M1638.5,774.3c0.4,1.8,1.7,2.1,2.6,2.7
		c13.7,9.7,27.3,19.6,41.2,29.1c15.5,10.6,30.3,22.3,46.6,31.7c3.5,2,5.2,1.5,7-1.9c5.3-10,9.5-20.5,13.6-31.1
		c2.7-7.1,2.4-8-5.2-9.8c-21.3-5.3-43-8.8-64.5-12.9C1666.1,779.4,1652.4,776.8,1638.5,774.3z M574.3,643.8c0.2,0.3,0.4,0.5,0.6,0.8
		c26.4-4.9,52.9-9.6,79.3-14.7c9.9-1.9,20.1-2.9,29.6-6.7c2.3-0.9,3.5-2,2.7-4.4c-4.4-12.7-9.6-25.2-15.8-37.2
		c-0.6-1.2-1.4-2.4-3.1-1.5c-3.5,1.9-7.2,3.4-10.5,5.6c-19.8,13.7-39.6,27.6-59.3,41.4C590,632.7,582.2,638.3,574.3,643.8z
		 M489.5,855.3c-0.3,0.1-0.6,0.2-0.9,0.3c1.3,7.2,2.6,14.3,3.9,21.5c3.2,17.6,6.3,35.3,9.8,52.9c2.2,11.1,3.7,22.3,7.2,33.1
		c1.1,3.6,2.6,3.9,5.8,2.8c9.8-3.7,19.7-7.3,29.1-12c11.3-5.6,11.1-4.1,4.5-14.7c-7.3-11.5-15.6-22.4-23.5-33.5
		C513.5,888.9,501.5,872.1,489.5,855.3z M1558.3,563.4c0.3,0.1,0.7,0.2,1,0.3c0.5-0.6,1-1.3,1.5-1.9c11.9-16.4,23.9-32.8,35.8-49.3
		c8.4-11.8,16.6-23.7,24.9-35.6c2.6-3.7,2.1-6.1-2.2-8.2c-10.8-5.2-21.8-10.1-33.1-14c-5.4-1.9-6.8-1-7.9,4.6
		c-5.3,27.6-10.5,55.2-15.8,82.8C1561.1,549.1,1559.7,556.2,1558.3,563.4z M777.1,667.4c-0.2,1.3-0.3,2.1-0.4,3
		c-0.4,8.3,2,10.6,10,9.4c2-0.3,4-0.5,5.9,0.1c4.1,1.3,4.7-0.9,4.1-4.2c-3.5-19.7-7.2-39.3-12.6-58.6c-5-18.1-11.2-35.9-17.4-53.7
		c-4.5-13.1-9.2-26.1-13.7-39.1c-1.3-3.8-3-5.2-6.9-2.6c-3.3,2.2-6.9,4.1-10.5,5.8c-3,1.4-3.5,3.1-1.9,5.9c0.8,1.3,1.1,2.8,1.9,4.1
		c5.3,8.5,9.1,17.6,13.1,26.7c2.3,5.3,3.9,11,6.5,16c4.2,7.9,6.3,16.4,8.9,24.7c4.3,13.6,7,27.8,10,41.9
		C775.8,653.7,776.3,660.8,777.1,667.4z M577.2,768.3c1.2,0.9,2.3,1.8,3.5,2.6c23.3,16,46.6,32.1,70,48c5.5,3.8,11,7.4,17.2,10.1
		c2.7,1.2,3.9,0.7,5-1.7c5.6-11.7,10.6-23.7,14.7-36.1c1-3,0.1-4.5-2.7-5.2c-4.2-0.9-8.5-1.7-12.7-2.4c-19.3-3.5-38.6-7.1-57.9-10.2
		C602,771.5,589.6,770.2,577.2,768.3z M1645.1,651.8c0.1,0.3,0.3,0.6,0.4,1c17.2-2.8,34.3-5.6,51.5-8.4c11.8-1.9,23.6-3.8,35.4-5.8
		c5.6-0.9,11.1-1.9,16.7-3.2c4-0.9,6.5-2.8,4.5-7.7c-3.5-8.6-6.4-17.5-10-26.1c-5.6-13.1-6.5-13.3-18.5-5
		c-20.5,14-40.9,28.1-61.4,42.1C1657.6,643.1,1651.4,647.5,1645.1,651.8z M539.4,742.2c5.3,3.7,10.6,7.4,15.9,11.1
		c0.8,0.5,1.8,1.2,2.7,1.1c10.6-0.8,20.5,3.4,31,4.2c10.4,0.8,21,3.4,31.5,4.5c5.1,0.5,10,2.3,14.9,2.5c4,0.1,7.9,0.8,11.7,0.8
		c6.3,0,12.2,2.2,18.6,2.4c6.5,0.2,13.6,0,20,3.2c3.2,1.6,7.5-0.3,8.4-3.7c1.2-4.5,2-9.1,2.8-13.7c0.5-2.8-0.7-4.3-3.8-4.5
		c-26.6-1.9-53.1-4.3-79.7-5.1c-14.6-0.5-29.2-1.7-43.9-2.6C559.5,741.7,549.5,742.5,539.4,742.2z M1392.3,560.6
		c0-2.3-2.3-5.8-3.6-9.5c-8.5-24.3-17.5-48.5-27.2-72.4c-1-2.4-1.7-4-4.5-2.1c-8.4,5.6-17,11.1-25.4,16.8c-3.6,2.4-2.9,5.3-0.3,7.9
		c8.6,8.8,17.1,17.7,25.9,26.3C1369.1,539.1,1381.2,550.2,1392.3,560.6z M525.3,652.7c0.2,0.3,0.4,0.7,0.5,1
		c6.3-1.2,12.6-2.7,19-3.7c10.4-1.5,20-4.2,29-10.7c29.4-21.4,59.9-41.5,89.1-63.3c1-0.7,3-1.2,2.3-2.8c-1-2.1-2.7-0.5-3.8,0.1
		c-11.9,6.2-24,12.1-35.5,19.2c-18.1,11.2-36.5,21.9-54.8,32.8C555.8,634.6,540.6,643.6,525.3,652.7z M538,598.2
		c-11.6-2.2-21.7-4-31.8-5.9c-1.4-0.3-2.5,0.6-3.6,1.5c-10.1,8.8-18,19.8-27.7,29c-1.8,1.7-2.6,4-0.4,6.2c1.9,1.9,3.8,3.3,7,1.9
		c9.3-4.1,18.1-9.1,26.7-14.4C517.8,610.7,527.3,604.8,538,598.2z M856.3,456.3c63.6-37,127-74.3,190-113c-3.2-2.1-5.1-0.4-7,0.7
		c-23.8,14-47.6,28.1-71.3,42.2c-20.9,12.4-41.8,24.8-62.7,37.2c-15.3,9.1-30.7,18.1-46,27.2C857.4,451.8,854.4,452.7,856.3,456.3z
		 M1524.3,645.5c0.6,0.3,1.2,0.7,1.7,1c3.5-3.8,6.7-7.9,10.4-11.3c3.7-3.4,6-7.3,6.8-12.3c2-11.8,4.3-23.5,6.5-35.3
		c0.1-0.8,0.4-1.7-1.1-2.2c-5.4,7.4-10.6,15.1-16.3,22.4c-4.8,6.3-9.1,12.4-8.2,21C1524.7,634.3,1524.3,639.9,1524.3,645.5z
		 M1562.1,684.9c4.6,0,7.8-0.3,10.9,0.1c12.1,1.6,22.3-1.6,31.7-9.6c6.2-5.3,13.3-9.4,20.9-14.7c-10.8,1.6-20.5,2.6-30,4.7
		c-5.5,1.2-11.8,0-16.4,3.4C1573.3,673.1,1568,678.2,1562.1,684.9z M479.8,834.7c0-2.4,0.1-3.3,0-4.3c-1.7-9.7-4.1-19.2-5-29
		c-0.9-9-5.9-14.8-12.1-20.3c-1.3-1.1-2.5-2.3-4.4-1.6c-1.9,0.7-2.2,2.4-2.2,4.1c0,4,0.2,8,0,12c-0.2,4,0.7,7.5,3.4,10.6
		c1.9,2.1,3.2,4.6,4.9,6.9C469.2,820,474.1,826.8,479.8,834.7z M1465.1,781.5c2.4-0.3,3.5-1.9,4.7-3c4.2-4,8.2-8.3,12.6-12.1
		c9.8-8.4,8.2-6.1,1.9-16c-3.1-4.9-11.4-7.1-17-5.1c-1.8,0.7-2.1,2-2.1,3.5C1465.1,759.7,1465.1,770.4,1465.1,781.5z M552.5,654.2
		c-0.1-0.3-0.2-0.7-0.4-1c-11.9,2.2-23.8,4.5-35.7,6.7c-3.3,0.6-5,3-7,5.2c-3.1,3.3-3.5,8,0,11.4c2.8,2.7,6.7,3.1,10,0.9
		C530.5,669.7,541.5,661.9,552.5,654.2z M1425.2,739.3c0.7,0.3,1.1,0.6,1.6,0.7c10.5,0.5,21-0.5,31.4,0.8c1.9,0.3,3.4-0.7,3.5-2.7
		c0.2-3.8,0.7-7.6-1.1-11.3c-1.7-3.4-3.9-5-7.9-4.4C1441.1,723.9,1431.9,729.2,1425.2,739.3z M378,678.1
		C378,678.1,378,678.1,378,678.1c-1,0-2-0.1-3,0.1c-2.9,0.4-6.6-1.4-7.9,3.1c-1.3,4.6-2.5,9,2.4,12.5c2.3,1.6,4,3.9,5.9,6
		c2.9,3.1,5.7,3.7,9.4,0.7c8.2-6.7,8.3-6.5,4.2-16.7c-0.2-0.6-0.5-1.2-0.6-1.9c-0.5-2.8-2.2-3.9-5-3.7
		C381.7,678.1,379.9,678.1,378,678.1z M1582.6,690.3c-13-1-26.8-5.3-35.5,8.8c-0.6,0.9-1.8,1.5-2.7,2.3c-4.4,3.9-4.5,4.2,0.3,7.5
		c2.3,1.5,4.4,5.1,7.7,2.8C1562.6,704.7,1572.5,697.4,1582.6,690.3z M1575.4,758c0.2-0.4,0.5-0.8,0.7-1.2
		c-4.7-4.8-9.5-9.5-14.3-14.2c-1-0.9-2.4-1-3.8-1.1c-8-0.1-16-0.4-23.9-0.4c-1.9,0-5.1-1.3-5.1,2c-0.1,2.6,0.4,6,4,6.7
		C1547.1,752.6,1561.3,755.3,1575.4,758z M1617.8,765.5c-9.6-6.8-18.5-12.3-26.4-19c-7.3-6.2-15.3-4-24.3-4.6
		c3.8,4,6.7,7.3,9.7,10.3c2.6,2.6,4.6,6.4,8.1,7.2C1595.3,761.8,1605.8,764.2,1617.8,765.5z M698.2,681.4c-8-1.2-15.5-0.8-23.2-0.6
		c-24.6,0.7-49.3,1-73.9,1.2c-25.5,0.2-51,0.1-76.5,0.2c-2.2,0-4.6-0.5-7.3,2.7c7.5-2.6,14.1,2.5,20.5-1.4c0.7-0.4,1.9,0.3,2.9,0.3
		c6.1,0.1,12.3,1.5,18.3,1.2c8.2-0.4,16.3-2.6,24.4,0.4c0.6,0.2,1.3,0.2,2,0c8.2-2.3,16.3-2.3,24.5,0c1,0.3,2.3-0.2,3.4-0.5
		c7-2.1,14-1.3,21-0.5c2.4,0.3,4.5,0.8,6.8-0.3c1.7-0.8,3.5-1.1,5.4-0.6c5.8,1.4,11.9-1.7,17.7,1.3c0.6,0.3,1.6-0.2,2.4-0.5
		c6.2-2.5,12.8-0.9,19.1-1.2C689.6,682.8,693.8,683.8,698.2,681.4z M1519.8,625.8c-1.3,1.5-2.1,2.3-2.8,3.2
		c-5,6.8-10,13.7-15.1,20.5c-5.3,7.1-5.3,7.1,0.1,13.9c1.7,2.2,2.9,2.1,4.8,0.3c3.6-3.5,7.3-6.8,10.9-10.3c1.1-1.1,2-2.3,2-3.9
		C1519.8,641.9,1519.8,634.4,1519.8,625.8z M376.3,828.2c0.3,0.1,0.5,0.2,0.8,0.4c5.4-8.1,10.3-16.6,16.4-24.1
		c5.6-7,4.4-14.4,4.3-23.5c-4.8,4.8-8.7,8.6-12.5,12.3c-1.9,1.9-3.7,3.8-4.2,6.6C379.5,809.4,377.9,818.8,376.3,828.2z
		 M1382.8,416.2c1.6-7.9,0-15.4-2.3-22.3c-6.7-19.6-14.1-39-21.2-58.5c-0.7-2-1.8-4.1-4.2-3.1c-2.7,1.1-0.7,3.2-0.1,4.6
		c6.1,17.4,12.2,34.8,18.4,52.2C1376.5,398.2,1379.6,407.2,1382.8,416.2z M1522.6,779.1c0.3-4.2,0.5-6.7,0.7-9.1
		c0.1-2.6,0.1-5.3,0.2-7.9c0.6-9.7,0.6-9.8-8.8-11.5c-2.1-0.4-4.3-0.4-6.4-0.3c-2.8,0.1-4.9,1.8-6.7,3.9c-1.1,1.2-1.2,2.4-0.1,3.5
		C1508.2,764.4,1514.9,771.3,1522.6,779.1z M1540.3,638.2c-0.4-0.2-0.8-0.4-1.1-0.6c-4.9,4.9-9.8,9.7-14.7,14.6
		c-0.7,0.7-1.1,1.7-0.9,2.7c0.8,4-0.3,7.9-0.3,11.9c0,2.1-0.5,4.8,2.7,4.9c3.2,0.1,7.7,1,8.6-3
		C1537,658.7,1538.5,648.5,1540.3,638.2z M380.8,737c2.3-0.5,6.3,1.4,7.2-2.1c1.2-4.7,3.1-9.6,1.1-14.6c-1.3-3.3-4.4-7.4-7.3-5.9
		c-5,2.6-8.8,7.4-12.1,12.2c-0.3,0.4,0,1.3,0.2,1.9C371.4,735,373.9,737,380.8,737z M1571.1,669.5c-7.2,1.1-13.8,2.1-20.5,3.1
		c-3.1,0.5-6.2,1-9.3,1.6c-3.6,0.7-4.1,3.5-4.2,6.4c0,3.4,2.5,3.3,4.9,3.5c3.1,0.2,6.3,0.5,9.4,0.7c2,0.1,4.2,0.6,5.7-0.9
		C1561.7,679.3,1566.1,674.6,1571.1,669.5z M544.8,751.3c-8.9-7.4-17.9-13.3-29.9-11.4c-2.4,0.4-5-0.2-7.4-0.5
		c-2.2-0.3-4.2,0.1-4.8,2.4c-0.6,2.2,1.6,3.9,2.9,4c4.4,0.3,8.3,2.3,12.6,2.6c7,0.4,13.7,3.2,20.9,2.9
		C540.8,751.2,542.5,752.4,544.8,751.3z M1379.8,662.1c-0.2,0.4-0.4,0.7-0.6,1.1c4.6,3.2,9.6,6,13.6,9.8c6.9,6.6,15.1,4.7,23,4.9
		c1.6,0,2.9-0.9,1.6-2.4c-2.4-2.9-4.5-6.4-8.5-7.3C1399.2,666.1,1389.5,664.1,1379.8,662.1z M1407.9,682.1c-0.1,0.4-0.3,0.7-0.4,1.1
		c10.2,7.1,20.4,14.2,30.6,21.3c1.6,1.1,3.2,1.2,4.5-0.1c1.8-1.9-0.2-3-1.2-4.1c-5-5.3-10.2-10.5-15.3-15.7
		c-1.5-1.5-3.1-2.4-5.3-2.4C1416.5,682.2,1412.2,682.1,1407.9,682.1z M1520.5,798.8c0.5-0.1,1-0.3,1.6-0.4c0-2.4-0.3-4.9,0.1-7.3
		c0.8-5.1-0.9-8.8-4.8-12.2c-4.8-4.3-9.2-9.1-13.8-13.8c-1.5-1.5-3-3.1-4.6-4.6c-0.7-0.7-1.6-1.6-2.6-1c-1.4,1-0.1,2.1,0.5,3
		c1.9,3.1,4,6.1,6,9.2C1508.7,780.8,1514.6,789.8,1520.5,798.8z M633.4,694.9c0.8,1.3,2.1,0.7,3.2,0.9c11.5,1.8,23.2,0.7,34.8,1.8
		c8.4,0.8,16.9,0.9,25.4,1.2c1.9,0.1,3.9-0.1,3.8-2.7c0-2.4-2.1-1.8-3.5-2.4c-7.3-3.1-14.6,0.2-21.8,0.1c-6.6-0.1-13.5-2.4-20,0.8
		c-0.1,0.1-0.3,0-0.5-0.1c-5.6-1.5-11.5,1.3-17.1-1.4C636.4,692.6,634.4,693.2,633.4,694.9z M1538.7,826.7c0.5-0.1,0.9-0.3,1.4-0.4
		c-1.7-8.9-3.4-17.9-5-26.8c-0.6-3.4-3.1-5.4-5.3-7.7c-0.9-0.9-2.6-1.4-2.6,0.3c0.1,5.7-2.6,11.8,0.1,17.1
		C1530.6,815.4,1534.9,820.9,1538.7,826.7z M1555.4,736.8c0.2-0.5,0.4-1,0.6-1.5c-3.6-3.5-7.1-6.9-10.7-10.4
		c-0.8-0.8-1.9-1.9-3.1-1.1c-4.5,3-9.7,5.4-12.8,10.1c-1.2,1.8-0.4,2.9,1.7,2.9C1539.2,736.8,1547.3,736.8,1555.4,736.8z
		 M488.9,590.2c-9.1-0.1-11.1,1.3-11.5,7.9c-0.2,3.1,2.1,5.1,2.9,7.8c0.6,2.5,2,2.8,3.8,0.8c2.5-2.7,5.1-5.2,7.7-7.8
		c2.1-2.2,6.8-3.9,5.6-6.8C496.2,589.2,491.5,590.4,488.9,590.2z M313,755c6.9-1.6,13.8-3.6,20.9-4.6c5.8-0.8,10.4-2.9,13.3-8
		C332.2,736.4,323.3,747.8,313,755z M402.1,752.6C402.1,752.6,402.1,752.6,402.1,752.6c-0.1,1.8-0.2,3.7,0,5.5c0.2,3,2.8,3.9,5,5
		c2,1,3.4-0.2,4.8-1.5c6-5.4,6-5.4,1.4-11.9c-1-1.5-2.1-3-3.3-4.4c-1-1.2-2.2-2.2-3.8-1.5c-1.8,0.7-3.9,1.4-4.1,3.8
		C402,749.3,402.1,750.9,402.1,752.6z M1575.9,736.6c-2.7-3.8-6.6-5.1-9.7-7.5c-4.1-3.1-8.3-6.1-12.5-9c-1.6-1.1-3.5-2.6-5.3-0.6
		c-2.1,2.3,0.3,3.5,1.5,4.9c2.3,2.6,5.2,4.7,7.2,7.5C1562.1,738.5,1568.8,737.1,1575.9,736.6z M379.3,595.4
		c2.3,11.3,0.5,24.4,13.9,30.9c0.3-4,1.8-7.7-0.6-11.3C388.2,608.5,383.7,601.9,379.3,595.4z M398,650.1c0,7.1,0,12.7,0,18.3
		c0,2.2-0.5,5.2,2.9,5.3c3.2,0.1,7.3,1.6,8.6-3.3c0.5-1.9,3.8-4.2,0.1-5.8C403.5,662,400.4,657.2,398,650.1z M849.7,743
		c-1.7,0.1-3.2,0-4.6,0.3c-3.2,0.7-5.1,4.7-3.1,6.7c2.2,2.2,4.7,4.2,7.1,6.2c0.9,0.8,1.9,1.3,3.2,0.6c1.4-0.7,5-9.6,4.5-11.3
		C855.5,741.5,852,743.8,849.7,743z M1413.2,744.2c-13.1-3.4-19.7,7.1-28.9,11.7C1398.2,756,1404.4,753.4,1413.2,744.2z M343.8,674
		c-5.9-11.8-18.1-7.6-27.3-11.1C324.9,668.3,331.9,677.2,343.8,674z M1551.7,689.6c-5.5-1.8-9.5-1.3-13.4-1.2
		c-1.7,0-2.8,0.9-3.1,2.6c-0.5,2.4-0.9,4.9-1.4,7.3c-0.3,1.6,0,2.9,1.6,3.8c1.6,0.9,2.8,0.2,4-0.9
		C1543.2,697.5,1547,694,1551.7,689.6z M799,758.1c-4.9-0.1-10.4,2.8-10.2,5.1c0.1,1.5,8.5,8.3,10.2,8.3c1.8,0,5.3-6.6,5.2-10.5
		C804.2,756.9,800.7,758.7,799,758.1z M1447.8,820.5c10.5-10,14.4-19,11.1-26.1C1451.3,799.9,1449.1,805.1,1447.8,820.5z
		 M1120.6,296.9c-1.4,0-1.8-0.1-2,0c-17.9,10.5-35.8,21.1-53.6,31.7c-0.7,0.4-1.4,0.9-2,1.5c-0.6,0.6-1.1,1.4-0.6,2.2
		c0.6,1,1.4,0.4,2.1,0c1.2-0.6,2.3-1.3,3.4-2c14-8.9,28.1-17.8,42.1-26.7C1113.3,301.5,1116.6,299.4,1120.6,296.9z M452,755.7
		c-0.9-2.9,1.7-7.2-3-8.5c-3-0.8-6,0-7.8,2.9c-1.9,3,0.4,4.6,2.1,6.3c0.7,0.7,1.4,1.5,2.2,2c1.8,1.4,3.1,4.8,5.3,4
		C453.3,761.5,451.3,758.1,452,755.7z M780.3,773.1c0.2-3.5-1.9-5.8-5-4.6c-3.6,1.5-1.8,5.3-2.8,7.9c-0.7,1.8,0.5,2.8,2.2,3.8
		c4.7,2.8,9.9,0.1,14.6,1.7c1.2,0.4,1.5-1.1,1.1-2.1c-0.9-2.3-2.6-2.9-4.8-2C781.4,779.6,779.6,778.3,780.3,773.1z M1519.1,658.5
		c-0.3-0.4-0.7-0.8-1-1.1c-3.1,3.4-6.1,6.9-9.3,10.2c-2.3,2.4-1.7,4.6,0.7,6.3c3.2,2.3,9.3-0.5,9.5-4.5
		C1519.3,665.7,1519.1,662.1,1519.1,658.5z M1356.9,393.3c0.5-0.2,0.9-0.3,1.4-0.5c-6.3-18.1-12.6-36.1-18.9-54.2
		c-0.6,0.2-1.2,0.4-1.8,0.6C1344.1,357.3,1350.5,375.3,1356.9,393.3z M1412.7,751.4c9.2-1.9,17.9-3.6,26.5-5.3
		c-4.3-1.3-8.4-1.3-12.5-2C1420.4,743.1,1416.4,746.1,1412.7,751.4z M383.2,789.3c4-2.3,6-5.6,8.8-8c3.9-3.4,3.8-4-1-6.3
		c-1.9-0.9-4.6-3.1-5.6,0.6C384.3,779.8,384,784.2,383.2,789.3z M1479.3,636.3c2.6,7.1,4.2,14.4,7,21.3c0.4,1,0.6,2.5,2.1,2.5
		c1.3,0,1.7-1.4,2.4-2.3c1.2-1.6,0.8-3.1-0.2-4.6C1486.9,647.6,1483.1,641.9,1479.3,636.3z M1528.5,762.5c-0.5,0.1-0.9,0.2-1.4,0.3
		c1.8,8.7-4.3,19,6.3,26.7C1531.7,780,1530.1,771.3,1528.5,762.5z M380.4,660.6c-2.1,0.1-7.2,5.9-6.4,7.3c2.2,3.7,6.6,1.7,9.8,3.2
		c1.2,0.6,1.8-0.9,1.3-1.9C383.7,666.3,385.1,661.5,380.4,660.6z"/>
</g>
</svg>
