<?xml version="1.0" encoding="utf-8"?>
<!-- Generator: Adobe Illustrator 21.0.2, SVG Export Plug-In . SVG Version: 6.00 Build 0)  -->
<svg version="1.1" id="e-bike" xmlns="http://www.w3.org/2000/svg" xmlns:xlink="http://www.w3.org/1999/xlink" x="0px" y="0px"
	 viewBox="0 0 1266.4 726.7" style="enable-background:new 0 0 1266.4 726.7;" xml:space="preserve">
<g>
	<path style="fill:#fff" d="M1265.3,465.3c-2-2.4-2-4.7-0.3-7.3c1.3-2,1.2-4.2-0.5-5.9c-1.9-1.9-1.2-3.6-0.8-5.9c0.9-4.9-1.5-9.8-0.5-14.7
		c0.1-0.4-0.8-1-1.2-1.5c-1.6-2.4-3.4-4.7-0.5-7.5c1.1-1,0.7-2.8-0.3-3.7c-5.9-5,0.2-14.1-6.5-18.8c-0.2-0.1-0.2-0.7-0.1-1
		c2.7-4-0.4-5.9-2.4-8.9c-3-4.4-1.3-10.5-4.7-15.3c-1.2-1.7-0.4-5.1-3.5-6.6c-0.9-0.5-1.8-2.3-1.7-3.4c0.6-4.4-1-7.3-4.7-9.4
		c-0.7-0.4-1.2-1.7-1.2-2.6c0-5.8-4.7-9.5-7-14.2c-1.3-2.7-3.3-5.7-5-8.4c-2.9-4.5-6.5-8.5-9.3-13.4c-1.5-2.6-6.3-3.5-5.6-8.3
		c-6.6-2.4-8.5-9.3-13-13.7c-3.7-3.5-6.6-8-11.8-9.8c-0.5-0.2-0.7-1.5-0.7-2.2c-0.1-1.3-0.7-2.3-1.8-2.8c-3.6-1.4-7.8-2.1-8.1-7.2
		c0-0.4-1-1-1.6-1c-2.8-0.2-3.9-2.7-5.7-3.9c-4.7-3.1-9.1-6.4-13.7-9.7c-2.6-1.9-5.8-3.8-8.5-5.2c-5.1-2.6-10-7.9-14.5-8.2
		c-7.1-0.5-10-9-17.3-7.1c-0.2,0-0.4-0.5-0.7-0.7c-4.5-4.3-11.7-3-16-7.8c-0.1-0.1-0.3-0.1-0.5,0c-3.3,1.4-6.1,0.8-8.3-2.2
		c-0.6-0.7-2.1-1-3.2-1c-5.1-0.2-9.7-3.9-15.2-2.3c-0.4,0.1-1.1-0.1-1.4-0.5c-2.8-3.2-6.4-1.7-9.6-2.3c-5.4-1-10.5-1.9-16-2.3
		c-3.4-0.2-6.9-1.3-10.8-1.1c-4.6,0.2-9.2-4.1-14-0.1c-3.4-2.5-6.8-1.7-10.3-0.1c-0.9,0.4-2.3,0-3.3-0.4c-6.4-2.1-12.5,1.7-18.8,1.1
		c-5.5-0.6-10.3,1.6-15.2,3.4c-0.5,0.2-1.3-0.2-1.9-0.5c-2.4-1.1-4.4-0.8-6.3,1.2c-2,2-4.4,2.9-7.2,1.3c-1.8-1.1-3.5-0.8-5.1,0.5
		c-1,0.9-1.4,3.2-3.3,2c-1.7-1-1.3-2.9-1.3-4.6c-0.2-9,1.8-17.6,4.4-26c10.3-34.4,10.6-68.6-0.7-102.8c-3.9-11.7-8.1-23.3-19.5-30.2
		c-2.5-1.5-5-3.3-6.9-5.7c-1.1-1.5-1.7-2.6-0.4-4.4c2.5-3.4,1.6-6.2-1.7-8.5c-2.9-2-5.1-4.2-4.2-8.2c0.4-1.8-0.6-3.5-1.3-5.2
		c-1.1-2.4-2.3-4.9-2.8-7.5c-1.2-6.3-5-8.1-10.8-4.7c-0.8,0.5-1.5,1.7-2.4,0.5c-4.5-5.4-11.8-7.4-16-13.2c-3.3-4.6-7.9-6.5-12.5-5.2
		c-5.9,1.7-8,4.1-8.4,10.7c-0.2,2.2-0.6,3.3-2.9,2.4c-3.8-1.6-6.6,0.3-9.6,2.4c-5.2,3.5-9.5,8.4-15.8,10.2c-6,1.7-9.6,7.3-7.2,13
		c1.8,4.3-0.1,5.4-3.3,6.4c-4.5,1.4-8.8,2.9-11,7.7c-1.6,3.4-1.5,5.7,2.5,7c5.1,1.7,5.9,3.9,3.1,8.4c-1.9,3.1-1.7,6.2,1.6,6.8
		c5.7,1.1,4.4,4.2,3.5,7.7c-0.6,2.4-1.5,4.9-1.4,7.3c0.3,5.6-2.8,7.8-7.5,9.6c-25.6,10-51,20.3-76.6,30.3
		c-26.1,10.2-51.8,21.5-77.9,31.5c-13,5-25.6,11.1-38.6,16.3c-13.7,5.5-27.4,11.1-40.9,17.3c-8.6,4-17.7,6.7-26.3,10.6
		c-11.9,5.4-23.8,10.9-35.6,16.7c-7,3.4-14.8,4.7-21.3,9.3c-3.4,2.4-7.5,0.5-9.6-3c-2.7-4.6-0.1-6,3.6-7.4c2.5-1,6.3-1.5,5.2-5.4
		c-1-3.7-4.6-2.4-7.3-2.5c-0.5,0-1,0-1.5,0.2c-5.5,2.1-7.5-0.6-9.1-5.7c-8.4-27.6-17.2-55-25.8-82.5c-3.8-11.9-7.7-23.8-11.4-35.7
		c-0.5-1.8-2.3-4.6,1.3-5.1c2.4-0.4,4.9-0.8,4.6-3.4c-0.3-3.2,1.3-7.6-4.8-9.1c5.8-0.7,9.6-3.1,13.1-6c4.7-3.8,9.3-7.6,13.9-11.4
		c2.7-2.2,5.8-3.7,9.2-1.7c9.5,5.7,18.8,2.1,27.8-0.9c2.7-0.9,6.8-2.5,6.9-6.3c0.1-4.4-3.1-7.2-6.9-9c-0.6-0.3-1.2-0.5-1.8-0.8
		c-4.2-1.7-8.6-2.4-13.2-2.6c-18.7-0.5-37.3,1.1-55.9,1.7c-23.7,0.8-47.2-1.2-70.5-6.2c-8.5-1.8-17.2-2-25.9-1.4
		c-4.5,0.3-7.6,3.1-8.6,7.1c-0.8,3.2,2,5.8,4.7,6.9c6.5,2.8,12,7.2,18.1,10.6c7.5,4.1,14.9,8.6,22.2,12.9c6.4,3.8,12.4,7.1,20.4,7.7
		c-2.6,1.2-4.4,2.7-3.1,4.8c1.3,2.3,1.4,6.5,4.9,6.2c7.8-0.8,13,4.1,19,7.3c2.6,1.4,4,3.7,4.9,6.6c12.2,38.6,24.5,77.2,36.7,115.7
		c2.2,6.8,2.2,7-4.4,9.4c-2.9,1.1-3.4,2.3-2.6,5.2c1.2,4.1,3.3,5.6,7.3,3.9c2.8-1.2,4.4-0.3,4.7,2.9c0.2,1.8,0.5,3.7,1.4,5.3
		c3.6,6.9-0.1,11.2-4.9,15.2c-0.5,0.4-1.1,0.8-1.6,1.2c-10,8.2-21,15.2-30.3,24.3c-1.4,1.3-2.7,2.1-4.9,1.4
		c-6.9-2.2-9.8-10.3-17.1-11.9c-0.5-0.1-0.9-1-1.2-1.6c-2.4-4.6-8.7-4.7-10.9-9.4c-0.1-0.3-1-0.5-1.4-0.4c-3,0.7-4.7-1.2-6.3-3.1
		c-2-2.3-5.3-2.8-7.4-4.4c-5-3.7-10.7-5.9-15.8-9.3c-1-0.6-1.8-1.9-2.9-1.7c-7.3,1.2-11.2-7.6-18.6-6.2c-0.5,0.1-1.4-0.9-1.9-1.5
		c-1.3-1.9-3.1-2.4-5.3-2.1c-1.5,0.2-3.1,0.3-4.3-0.8c-2.6-2.7-5.5-3.4-9.1-2.6c-1.7,0.4-3.2-0.6-4.6-1.7c-1.3-1.1-2.9-1.8-4.6-1.7
		c-5.5,0.3-10.4-3.9-16.1-1.7c-0.6,0.2-1.6-0.4-2.2-0.9c-5.3-3.8-12.4,0.6-17.6-3.7c-0.1-0.1-0.7,0.1-0.9,0.2
		c-2.5,1.7-4.9,1.5-7.5,0c-1.5-0.8-3.3-0.7-4.9-0.3c-6.9,1.8-13.7-2.1-20.7,0c-2,0.6-4.6-0.5-6.7,0.9c-1.4,0.9-2.8,0.7-4.3,0
		c-2.5-1.3-4.8-1-7,0.7c-1.3,1-2.8,1.3-4.3,0.9c-5.3-1.5-10.1,2.4-15.3,1.1c-0.7-0.2-1.7,0.4-2.3,0.8c-5.3,4.1-12.3,2.1-18.2,5
		c-2.7,1.3-6.6,0.6-9.3,3.4c-0.7,0.7-2.2,1.2-3.2,1c-3.3-0.6-5.8,0.5-8,2.9c-1.3,1.4-3,2-4.9,2c-6.4,0-10.8,5.5-16.9,6.3
		c-0.1,0-0.3,0.2-0.4,0.3c-3.9,3.9-10.8,3.4-13.7,9c-0.2,0.4-1.6,0.2-2.4,0.4c-4.7,1.3-9.1,4.2-12.4,7.1c-3,2.6-5.9,4.6-9.4,6.6
		c-4.3,2.5-7.4,6.7-11.9,9.5c-2.5,1.5-4.3,5-7.7,6.4c-1.2,0.5-2.4,1.5-2.7,2.8c-0.5,2.5-2.3,3.7-4.2,4.6c-5.9,2.6-6.9,10.2-13,12.6
		c-0.2,0.1-0.3,0.6-0.4,0.9c-2.6,5.2-8.7,7.9-9.8,14.2c-0.1,0.6-1.3,1-2,1.3c-1.3,0.6-2.4,1.4-2.8,2.7c-1.6,4.8-7.1,7.4-7.1,13.2
		c0,1-1.5,2.1-2.5,3c-4.9,3.9-4.5,11.1-9.4,14.9c-0.2,0.2,0.1,1-0.1,1.4c-2.8,5.8-6.7,11.2-7.6,17.9c0,0.1-0.2,0.2-0.4,0.3
		c-4.6,4-2.9,11-7.1,15.2c-0.1,0.1,0,0.3,0,0.5c-0.1,6.3-4.2,11.8-4.3,18.1c0,0.4-0.7,0.7-1,1.1c-0.6,0.8-3.7,13.6-3.4,14.5
		c1.2,3.1,0.5,5.9-1.3,8.5c-1.1,1.6-1.5,3.3-1.2,5.2c1.2,6.1-3.3,12-0.7,18.2c0.1,0.2-0.1,0.7-0.3,0.9c-1.6,2.3-1.4,4.6-0.7,7.2
		c0.5,2.1,0.6,4.3-0.5,6.3c-1.4,2.4-0.4,4.7,0,7.2c0.7,5.2,0.9,10.5,0.8,15.8c0,2.4-0.3,4.7,0.9,6.7c1.2,2.1,1.4,4.4,1.7,6.7
		c0.6,6-1,12.4,3.1,17.9c0.8,1.1,1.3,2.9,1.1,4.3c-0.7,5.8,4.8,10.5,3,16.6c-0.1,0.5,0.4,1.3,0.8,1.8c4.7,4.6,3.1,11.9,7.4,16.7
		c0.5,0.5,0.6,1.6,0.4,2.4c-0.5,3.2,0.7,5.5,3.2,7.3c1.2,0.8,1.9,2,1.9,3.3c0,5.4,4.9,8.6,6.1,13.8c0.8,3.2,4.8,6.5,5.8,10.7
		c0.6,2.6,4.3,2.8,4.4,5.7c0.2,3,2.2,4.7,4.4,6.3c5,3.6,5.2,11,11.2,13.8c0.1,0,0.2,0.3,0.2,0.5c0.1,3.2,3.2,4.4,4.5,6.5
		c3.2,5.2,7.8,8.3,12.4,11.7c0.7,0.5,1,1.7,1.2,2.6c0.7,2.6,2.5,3.4,4.8,4.8c4.1,2.4,7,6.7,11.1,9.7c2.2,1.6,3.8,4,6.9,5.5
		c4.3,2.1,6.6,7,11.7,9c1.6,0.6,3,3.3,5.6,4.1c5.7,1.7,11.1,5.7,14.9,9.2c4.8,4.5,13,1.9,15.4,9c0.1,0.3,1.7,0.5,2.3,0.2
		c2.9-1.3,5,0.4,6.7,2.1c2.5,2.7,4.7,5.2,8.9,3.2c1-0.5,2.5,0.4,2.9,1.4c1.2,3,3.2,3.5,6,2.6c1.4-0.4,2.7,0,3.6,1.1
		c1.9,2.4,4.8,2.9,7.4,3.8c0,0.5-0.1,1-0.1,1.4c-6.4,0-13-0.9-19.3,0.2c-3.7,0.6-7.8,1.4-11.9,2.3c0,0.1,0,0.1,0,0.2
		c31.1,6.3,62.8,9,94.6,10.5c5.2,0.2,10.5,0.4,15.7,0.6c0.3,0,0.5,0,0.8-0.1c22.7-1.7,45.6-1.6,68.3-3.7c9.5-0.9,22.4-1.4,31.9-1.8
		c0.2-0.5,0.4-1.1,0.7-1.6c-10.1-1.9-23.1-5.4-29.2-6.4c-2.2-0.4-4.6-0.9-4.1-3.9c0.4-2.7,2.8-1.7,4.5-2.3
		c6.1-2.3,12.7-3.9,18.2-6.9c4.3-2.4,10.2-2.6,13.2-7.4c0.2-0.3,1-0.2,1.4-0.2c3.4,0.4,6.2-0.1,7.5-4c0.3-0.8,1.8-1.8,2.8-1.8
		c5.8,0,8.3-6.6,14-6.7c0.5,0,1.3-0.8,1.3-1.3c0.4-3,3-3.9,4.9-4.3c3.4-0.7,5.6-2.4,7.4-5.2c0.7-1.1,1.9-2.4,3-2.5
		c6.3-1.1,7.3-9.4,13.8-10.1c1.8-7.1,11.3-7.6,12.8-15.1c0.1-0.5,1.2-1.1,2-1.3c2.5-0.7,4-2.2,4.3-4.9c0.2-1.6,1.1-2.9,2.6-3.5
		c6.6-2.5,6.4-10.6,11.8-14.3c1.4-0.9,1.4-4,4.2-4.7c1.5-0.4,2.4-2.3,2.5-4.1c0.1-3.5,2.1-5.8,4.8-7.6c1.5-1,2.2-2.4,2.5-4.1
		c1.2-5.9,6.5-9.8,7.8-16.1c0.4-2.2,3.2-4.8,3.8-8c0.4-2.5,1.7-4.7,3.6-6.5c1.3-1.2,1.9-2.7,2.1-4.4c0.9-7.4,5.9-11.4,13.6-11
		c3,0.2,5.8,0.4,7.7,3.4c1,1.6,3.2,2.3,4.8,3.5c7.6,5.1,16,8.7,23.2,15.2c10.1,9.2,25.4,12.2,38.3,0.7c13.2-11.7,26.1-23.8,39-35.8
		c2.2-2,4.4-3.3,7.5-3.1c10.5,0.7,20.9,1.2,31.4,1.8c8.1,0.5,16.3,1.2,24.4,1.3c7,0.1,10.8-3.1,12.2-8.9c2.1-8.8-3.5-15.6-13.3-16.3
		c-13.4-0.9-26.9-2-40.3-3.1c-1.5-0.1-4.3,0.7-3.1-2.7c3.1-8.5,6.7-16.8,9-25.4c2.2-8,8.5-15,5.9-24.2c6.2-17,12.5-34,18.9-51
		c5.1-13.5,10.7-26.8,16.9-39.9c9.4-19.8,20-38.9,30.9-57.8c17.6-30.4,36.9-59.7,55.6-89.5c11.8-18.7,23.8-37,42.8-49.3
		c6.7-4.3,13.3-8.9,20.7-12.1c5.3-2.2,12,1.9,13.1,7.4c0.7,3.8,1.9,7.6,4.6,10.4c2.5,2.5,5.7,0.7,8.6,0.6c2.9-0.1,5.2,1.3,6.6,3.8
		c1.7,3,3.3,6.1,4.9,9.3c1.4,2.8,2.2,6,5.6,7.3c1.3,0.5,1.6,2.1,2,3.3c4.5,13.1,9.1,26.1,13.6,39.2c2.3,6.7,0.5,9.6-6.5,11.4
		c-1.7,0.4-3,1.5-3.5,3.2c-0.5,1.6-1.7,2.8-3.1,3c-4.4,0.6-8.1,1.7-9.8,6.5c-0.5,1.3-2.5,2.2-4.3,1.9c-1.2-0.1-2.7-0.1-3.2,0.9
		c-2.1,4.4-5.1,7.6-10.4,7.9c-0.5,0-1.3,0.8-1.3,1.4c-0.4,5-4,6-7.9,8c-3.6,1.8-6.7,5.9-9.4,9c-2.4,2.7-3.8,6.3-7.8,7.6
		c-1.3,0.4-1.5,2-1.9,3.3c-1.5,5.4-8.6,6.5-9.6,12.3c0,0.1-0.3,0.1-0.5,0.1c-2.5,0.7-3.3,2.3-3.3,4.8c0,4.5-4.3,5.2-6.8,7.7
		c-2.4,2.4,0.1,7.8-4.7,9.4c-2.8,1-2.6,3.6-3.7,5.6c-3.1,5.8-6.4,11.4-8.3,17.8c-0.2,0.6-1.4,0.8-2.1,1.2c-1.3,0.7-2.1,2-1.8,3.3
		c0.8,3.2-1.9,4.9-2.7,7.2c-1.7,4.8-2.9,9.6-5.6,14.3c-1.3,2.2,0.1,6.7-3.4,9.1c-0.5,0.3-0.6,1.6-0.5,2.3c0.6,5.5-3.8,10.4-2.1,16.1
		c0.1,0.3-0.1,0.8-0.3,0.9c-3.7,2.8-1.8,6.5-2.4,9.9c-0.9,5.3-1.5,10.6-2.5,15.8c-0.7,3.6-0.9,6.9-1.2,10.5
		c-0.4,5.4-1.4,10.8-1.7,16.3c-0.1,1.5-0.5,2.8,0,4.3c2.2,6.4-0.9,13.2,1.5,19.8c0.7,1.8-0.6,4.5,1.1,6.5c0.7,0.8,0.8,1.6,0.5,2.7
		c-1.5,6.6,1.9,12.7,2.7,19.1c0.8,6.8,2.5,13.8,4.6,20.6c1.9,5.9,5.4,11.4,5.3,18c0,0.4,0.9,0.8,1.5,1.2c0.8,0.6,1.6,1.5,1.5,2.5
		c-0.9,6.1,6.9,9.5,4.9,15.9c-0.1,0.4,0.6,1.4,1.1,1.6c4.1,1.3,5,4.3,5,8.2c0,1,1.1,2,1.7,2.9c2.8,4.1,4.5,9,9,11.8
		c0.6,0.4,0.8,1.8,0.9,2.7c0.7,6.7,8.8,9.1,9.3,15.9c0,0.1,0.3,0.2,0.4,0.3c6.6,3,7.4,11.6,14.1,14.5c-0.4,6.6,7.3,6.8,9.4,12.1
		c1.2,3,6.3,4.4,8.9,8.4c1.9,3,7.7,3.8,9.3,8.6c0.1,0.4,0.8,0.6,1.2,0.8c4.9,1.7,8,6.7,13.5,7.4c1.5,0.2,1.6,2.1,2.5,2.8
		c4.9,3.8,11,5.9,15.5,10.4c0.3,0.3,1.3,0,2,0c2,0.1,3.6,0.7,4.2,2.8c0.9,3.2,3.3,4,6.2,3.5c2.6-0.4,4.6,0.4,6.1,2.4
		c3.8,4.9,10.6,3.9,15,7.7c0.4,0.3,1.6-0.4,2.4-0.3c1,0.1,2.4,0.1,2.7,0.7c2.3,3.6,5.3,4.7,9.3,3.5c0.8-0.2,2.2,0.3,2.7,0.9
		c2.5,3.1,5.6,3.9,9.5,3c-4.4,3.5-9.5,1.2-14.1,1.7c-10.8,1.2-21.8,0.2-32.7,1c-7.2,0.5-14.3,0.6-21.4,0.9c-1.5,0.1-3.4,0.1-3.3,2.2
		c0.1,1.8,1.8,1.6,3.1,1.7c3.1,0.3,6.3,0.9,9.4,0.9c20.6,0.6,41.1,3.3,61.7,4.3c31.6,1.6,63.1,3.8,94.8,1.6c9.3-0.7,18.6-0.4,27.9-1
		c24.2-1.7,48.3-3.5,72.4-5.2c1.8-0.1,3.6-0.1,3.6-2.3c0-1.9-1.8-2.1-3.4-2.2c-9.5-0.3-19.1-1.2-28.4-0.5c-12.9,1-25.4-1.9-38.5-1.8
		c0.8-1,1.1-1.9,1.6-2c5.4-0.6,10.3-2.4,15.4-4.2c3.3-1.2,7.4-0.1,9.6-4.2c0.5-0.9,1.8-0.4,2.7-0.6c6.3-1.3,11.4-5.5,17.4-7.7
		c0.5-0.2,0.6-1.1,1.1-1.6c0.9-1,2-1.7,3.5-1.5c6.2,0.6,9.3-5.1,14.2-7.1c1.1-0.5,2-2.9,3.5-3.3c4.2-0.9,8-1.8,9.5-6.8
		c0.4-1.4,2.8-2.1,4.8-1.9c1.8,0.3,3.5-0.6,4.1-2.2c1.4-3.7,3.3-6.6,7.9-5.8c2.6-5.5,8-7.6,12.4-11.1c1.9-1.5,1.9-5.8,6.2-5.2
		c1.6-5.6,8.9-7.9,9.9-11.9c1.6-6.2,11.1-5.4,9.3-12.9c0-0.1,0.6-0.3,0.9-0.4c3.6-0.4,4.3-3.1,5.1-5.9c0.6-1.9,0.5-4.6,3.5-4.8
		c3.3-0.3,4-2.4,3.7-5.3c-0.4-2.9,0.8-5,3.5-5.8c3-0.9,3.6-2.9,3.4-5.7c-0.2-2.7,0.6-4.9,3.6-5.8c2.1-0.6,3.7-2.3,3.1-4.5
		c-1.3-4.2,1.4-6,3.8-8.3c3.6-3.5,2.1-9.8,6.6-12.9c0.1-0.1-0.2-0.9-0.4-1.4c-1.3-2.8-0.1-4.9,2.1-6.5c2.2-1.6,3.4-3.4,2.1-6.3
		c-0.9-2.2-0.4-4.2,2.1-5.3c2.3-1,2.7-2.8,1.9-5c-0.3-0.9-1.1-2.2-0.3-2.8c4.1-3.1,1.5-8.1,3.1-11.1c2.6-4.9,1.2-9.8,2.5-14.3
		c1.1-3.9,1.1-7.7,1.9-11.1c1.2-5.3-0.6-11.3,1.5-15.2c3.1-5.6-3.4-11.8,2.3-16.3C1266.6,467.7,1265.9,466,1265.3,465.3z
		 M426.7,62.5c-3.5,0.1-6.9,0-10.4,0c0,0.1,0,0.1,0,0.2c-3,0-5.9,0-8.9,0c-1.2,0-2.5,0-2.8-1.4c-0.3-1.4,0.7-2.2,1.9-2.5
		c6.9-1.8,14-2.6,21-3.1c2.1-0.1,0.7,2.9,1.5,4.4C429.6,61.7,428.1,62.5,426.7,62.5z M433.2,58.4c-1-1.3-1.3-3.1,1.1-3.3
		c8.2-0.6,16.3-3,25.5-1.8c-4.9,4.9-10.1,7.9-14.9,11.5c-1.1,0.8-2.9,1.5-3.7,0.6C439,62.6,435.4,61.2,433.2,58.4z M429.8,379.9
		c3.7,6.9,6.8,14.1,9.6,21.4c1.4,3.7,0.7,5.4-3.3,6.3c-18.2,4.3-36.3,8.7-54.4,13.2C368.4,424,355,427.4,341,431
		c2.1-3.2,4.7-4.3,7-5.9c24-16,48-31.9,71.9-47.9C425.8,373.2,426.3,373.4,429.8,379.9z M334.1,445.7c-0.3-1.4-3-0.8-4.6-1.1
		c-1.7-0.3-3.3-0.7-3.9-2.6c-0.6-1.9,1.2-2.5,2.2-3.5c1.9-1.6,4.1-2.9,6.6-3.5c32.9-8.1,65.9-16.2,98.8-24.2
		c1.3-0.3,2.6-0.4,3.9-0.8c3.8-1,5.7,0.3,6.7,4.3c2,8.2,4,16.5,5.5,24.8c0.6,3.7-0.2,5.4-4.4,5.6c-30.6,1.2-61.1,2.7-91.7,4.1
		c-3.5,0.2-7,0.6-10.3,0.9C339.5,449,335.1,451.6,334.1,445.7z M340.3,459.3c5,4,9.6,8.6,15.4,13.9c-5.7,0.1-9.6-1.4-13.6-2.4
		c-6.7-1.8-13.2-4.3-20.3-3.7c-2.3,0.2-5.2-0.8-4.5-4c0.7-2.9,3.4-3.3,6.1-2.6c2.9,0.7,5.2,0.6,7.7-1.6
		C333.8,456.5,337.7,457.2,340.3,459.3z M410.5,348.9c3.7,4.7,7.2,9.6,10.4,14.6c4.4,6.9,4.5,6.9-2.5,11.6
		c-10.2,6.9-20.5,13.7-30.7,20.5c-17.4,11.6-34.9,23.2-52.3,35c-4.8,3.2-10.3,3.6-14.4,4.9c-3.3,0.4-5.2-0.4-6.4-2.1
		c-1.5-2.1,0.7-3.5,1.8-4.6c10.1-10.4,20.3-20.6,30.4-30.9c16.4-16.5,32.8-33.1,49.2-49.6C403.9,340.6,403.8,340.6,410.5,348.9z
		 M390.8,333.4c3.8-3,5.7-1,8.2,1.6c2.8,2.8,2.2,4.9-0.4,7.5c-20.6,20.6-41.1,41.3-61.6,61.9c-6.6,6.6-13.1,13.2-19.7,19.8
		c-1.4,1.5-2.8,3-5,2.2c-2.9,0.7-4.2-0.8-5-3.1c-0.7-2.4-1.6-4.7-2.2-7.1c-0.6-2.3-1.5-4-4.1-4.4c-2.5-0.3-4.1,1.1-5.4,2.9
		c-0.8,1.1-1,2.5-1.9,3.5c-1.7,1.7-3.9,1.1-5.5-0.1c-1.6-1.1-1.3-3.1-0.3-4.5c0.7-1,1.9-2,3-2.5c12.7-5.7,21.6-16.4,32.3-24.7
		C345.9,368.8,368.3,351,390.8,333.4z M276.3,537.4c5.1,7.3,12,13.1,14.1,21.9c2.2,8.9,4.1,17.8,6.2,26.7c0.9,3.5,0.5,5.5-3.9,5.9
		c-4.2,0.4-8.2,2.1-12.3,3.3c-3.2,0.9-5.3,0-5.5-3.6c-0.7-12.1-1.8-24.2-1.9-36.3C272.9,549.4,277.5,544,276.3,537.4z M278.4,525.8
		c2.7-1.4,4.2,1,4.9,3.4c1.5,5.6,2.9,11.2,4.3,16.8c-0.4,0.2-0.8,0.5-1.2,0.7c-3.2-4.8-6.5-9.5-9.5-14.4
		C275.5,529.9,276,526.9,278.4,525.8z M294.7,565.5c0.5-0.2,0.9-0.3,1.4-0.5c4.5,6.5,9.1,12.9,13.6,19.4c1.2,1.7,1.3,2.6-1.2,3.5
		c-7.9,2.8-8,2.9-9.9-5.2C297.3,577,296,571.3,294.7,565.5z M301,567.8c-10.7-12.9-13.3-28.6-15.7-44.3c-0.1-0.6-1-1-0.3-2
		c1.6,0.3,2.3,1.1,3.1,2c16.6,17.2,33.2,34.5,49.7,51.8c1.2,1.2,3.5,2.2,2.7,4.3c-0.8,2.1-3.2,1.9-5.2,2.3c-6,1.2-11.9,2.5-17.8,3.8
		c-2.6,0.6-4.2,0-5.8-2.4C308.5,578,305,572.6,301,567.8z M291.2,523.7c-3-2.9-1.3-6.6,0.9-7.7c5.7-2.7,9.3-6.8,11.9-12.4
		c1.2-2.6,3.3-1.1,4.9,0.2c5.4,4.7,10.8,9.4,16.1,14.2c14.4,13.1,28.7,26.3,43.3,39.2c4,3.5,8,7,12,10.5c0.7,0.7,1.6,1.2,2.1,1.5
		c-0.6,2.2-2,2.8-3.2,2.9c-10.4,0.6-20,5-30.2,6.4c-2.4,0.3-3.7,0.4-5.6-1.4C325.6,559.9,309,541.3,291.2,523.7z M378.7,316.3
		c1.4,1.5,0.9,2.7-0.4,3.8c-8,6.5-16.5,12.3-24.1,19.3c-0.4-0.5-0.8-0.9-1.2-1.4c6.8-7.4,13.6-14.9,20.5-22.2
		C375.2,314,377.1,314.6,378.7,316.3z M351.7,297.1c6,3.6,11.6,7.7,17.6,11.5c3.7,2.3,3.5,4.5,0.6,7.5
		c-12.2,13.2-23.6,27.4-36.6,39.8c-12.5,12-25.7,23.4-40.7,32.5c-2,1.2-2.9,3.6-5.2,4.4c-0.6-0.3-1.2-0.3-1.4-0.6
		c-0.8-1.4,0.1-2.5,0.8-3.7c4.8-8.4,9.5-16.8,14.4-25.1c12.3-21,24.6-41.9,36.9-62.9C343.1,292.1,343.3,292,351.7,297.1z
		 M317.7,281.5c5.8,2.1,11.5,4.5,17.1,7c4.8,2.1,5.4,4.2,2.6,8.9c-9.6,16.4-19.2,32.7-28.8,49.1c-7.6,12.9-15.1,25.8-22.7,38.7
		c-0.4-0.1-0.7-0.1-1.1-0.2c1.7-8.3,3.5-16.5,5.1-24.8c4.7-23.6,9.4-47.3,14.1-70.9C306.2,278.1,306.9,277.6,317.7,281.5z
		 M268,277.9c0.3-6.6,1.1-7.1,7.5-6.4c7.8,0.9,15.4,2.5,23.1,4.1c3.4,0.7,4.7,2.2,4.3,5.8c-1.5,12.6-4.9,24.8-7.2,37.2
		c-4.5,23.5-9.2,47-14,70.5c-1.4,7-5.1,12.7-10.4,17.4c-0.7-0.2-1.4-0.3-2.2-0.5c0-8.5,0.1-16.9,0-25.4c-0.3-32.5-0.7-65-1.1-97.4
		C268,281.6,267.9,279.8,268,277.9z M252.7,584.6c-1.1-1.4-1.1-2.3-0.3-3.5c0.8-1.2,1.8-2.4,2.6-3.6c4.9-6.9,12-12.3,15.2-20.7
		c0.7,12.7,1.4,25.3,2,38c0.1,1.6-0.8,2.5-2.3,2.8c-4.7,1.1-9.4,2.6-14.3,3.1c-3,0.3-2.1-2.5-1.3-3.9
		C257,592.3,255.5,588.3,252.7,584.6z M238,271c7.4-0.2,7.4-0.2,7.6,7.3c0.1,3.2-0.2,6.4,0.7,9.4c0.4,1.1,0.8,2.3,2.3,2.2
		c1.4-0.1,1.9-1.3,2-2.5c0.5-3.5,0.1-7-0.4-10.4c-1-6.3-0.5-6.8,6-6.8c1.3,0,2.7,0,4,0.2c3.9,0.4,5.9,1.6,5.6,6.6
		c-0.6,11.5-0.6,23,0,34.5c0.8,15.8,0.3,31.6,0.6,47.5c0.3,15.2,0.6,30.3,0.9,45.5c0,2.8,0.6,5.6-4.1,3c-3.4-1.9-8.2-1.7-11.7-0.3
		c-4.5,1.7-9,0.7-13.3,2.1c-2,0.7-3.2,0-3.5-2.2c-0.3-2.3-0.7-4.6-0.8-6.9c-1.1-26.6-2.1-53.2-3.2-79.9c-0.5-13.3-1.3-26.6-1.8-39.9
		C228.7,271.2,228.8,271.2,238,271z M196.7,278c7.9-1.9,15.8-4.1,23.9-5.3c4.4-0.6,5.8,1,5.9,5c0.6,13.8,1.4,27.6,1.9,41.4
		c1.2,30.4,2.3,60.8,3.4,92.4c-5.5-6.4-9-12.5-10.9-19.7c-9.4-35.4-19-70.7-28.8-106C190.9,280.9,192.2,279,196.7,278z M163.4,291.1
		c6.1-3.1,12.4-5.6,18.8-8.1c5.6-2.1,6.5-1.8,8.1,4c3,10.7,5.7,21.5,8.6,32.3c5.9,22,11.9,44,17.8,66c0.3,1.2,0.5,2.5,0.8,3.8
		c-0.2,0.1-0.5,0.2-0.7,0.3c-1.8-2.7-3.7-5.3-5.5-8c-17.1-25.9-34.2-51.8-51.2-77.8C154.7,295.5,154.9,295.5,163.4,291.1z
		 M149.8,298.7c1.6-1.1,3.2-0.6,4.4,1c1.3,1.7,2.7,3.4,3.9,5.2c20.3,30.7,40.5,61.4,60.8,92c3.6,5.4,4,11.7,5.8,17.7
		c-2.5,0.6-3.2-1-4.2-2c-16.6-16.1-33.2-32.2-49.7-48.4c-13.8-13.5-28.1-26.5-41.3-40.6c-1.8-1.9-4-2.9-6.6-2.8
		C129,310.1,140.1,305.3,149.8,298.7z M99,342.2c5.7-6.7,11.8-13,18.1-19.1c1.6-1.6,3.2-3,5.6-2.2c0,0,0,0,0,0
		c21.6,21.1,43.3,42.3,64.9,63.4c9.5,9.3,19,18.6,28.6,27.8c1.7,1.6,2.7,2.9,1.5,5.5c-1.1,2.4-2,4.2-5,3.5c-0.2,0-0.5-0.1-0.5-0.1
		c-1.5,3.8-5.8,4.8-7.8,7.7c-1.1,1.6-1,3.8-3.7,4.2c-1.7,0.2-2.1,1.4-1.7,2.9c0.3,1.4,0.4,2.8-1.1,3.4c-1.7,0.7-2.8-0.6-3.9-1.6
		c-8.8-8.1-17.6-16.2-26.4-24.4c-21.8-20.3-43.5-40.7-65.3-61c-1.6-1.5-3.3-2.7-5.7-2.3C96,346.8,97.1,344.5,99,342.2z M76.4,376.5
		c4.5-8.7,9.7-17,15.4-25c1.3-1.8,2.9-1.9,4.8-1.6c8.4,8,16.9,16,25.3,23.9c22.7,21.2,45.5,42.4,68.2,63.6c1,1,3.1,1.8,2.3,3.4
		c-1,1.9-2.9,0.4-4.5,0.3c-6.8-0.4-12.2-4.1-17.8-7.3c-30.8-17.8-61.6-35.6-92.5-53.4C75.8,379.3,75.5,378.3,76.4,376.5z
		 M63.1,408.8c2.3-7.5,5.3-14.7,8.1-22c1.9-4.8,4.6-5,8.4-2.7c7.6,4.5,15.3,8.9,22.9,13.3c20.7,12,41.5,24,62.2,36.1
		c1.2,0.7,2.4,1.6,3.5,2.4c-0.1,0.3-0.2,0.6-0.4,0.9c-7.9-1.5-15.9-2.9-23.8-4.5c-25.6-5.2-51.2-10.5-76.8-15.8
		C61.3,415.2,61.3,414.9,63.1,408.8z M55.1,445.6c1-7.1,2.7-14.1,3.7-21.2c0.8-5.6,4.1-6.3,8.5-5.4c10.9,2.1,21.9,4.3,32.8,6.5
		c25.4,5.2,50.9,10.4,76.3,15.6c5,1,9.3,3.6,13.1,7c1,0.9,2.5,2.2,1.8,3.8c-0.6,1.3-2.4,0.8-3.7,0.8c-12.5,0-25,0-37.5,0
		c0,0.3,0,0.6,0,0.9c-27.6,0-55.3,0-82.9,0c-1.7,0-3.3,0-5,0C55.4,453.4,54.1,452.2,55.1,445.6z M53.9,461.7
		c-0.1-3.6,1.6-5.2,4.9-5.5c1.8-0.2,3.7-0.3,5.5-0.3c20,0,40,0,59.9,0c0-0.1,0-0.3,0-0.4c21,0,41.9,0,62.9,0c0.7,0,2.2-0.7,1.8,0.6
		c-0.7,2.5,3.2,4.4,0.6,6.9c-1.6,1.6-0.8,3.8-1.1,5.1c-1.2,4.6,1.5,8.4,0.9,12.5c-0.2,1.2-0.6,2.4,0.3,3.3c3.6,3.6,1.1,3.6-2,3.7
		c-30.3,1-60.5,1.8-90.7,3.4c-11.3,0.6-22.6,0.1-33.9,1.5c-6.3,0.7-7.6-0.9-8.4-7.3C53.8,477.3,54,469.5,53.9,461.7z M61.3,521.2
		c-1.9-6.7-3.3-13.6-4.7-20.4c-0.8-4.2,0.8-5.5,4.5-5.8c5.8-0.4,11.6-0.8,17.4-1c23.4-0.8,46.9-1.4,70.3-2.2
		c11.3-0.4,22.6-1.1,33.9-1.6c2.3-0.1,4.6-0.6,8.1,1c-7.3,4.7-12.9,10.3-21,12.3c-32.3,8.1-64.5,16.5-96.7,24.7
		C64,530.5,63.9,530.5,61.3,521.2z M76.7,560.6c-3.2-6.8-6.3-13.6-9.1-20.5c-2.6-6.6-2.4-7.3,4.8-9.2c15.9-4.2,31.9-8.3,47.8-12.4
		c15.6-4,31.2-8.1,46.7-12.1c0.1,0.2,0.1,0.5,0.2,0.7c-26.7,18.1-53.4,36.2-80,54.3c-0.8,0.6-1.7,1-2.5,1.6
		C80.9,565.7,78.7,565,76.7,560.6z M95,589.1c-3.8-5.4-7.5-11-11.3-16.5c-1.8-2.6-1.8-4.7,1.1-6.7c12.5-8.5,25-17.1,37.5-25.7
		c16.5-11.2,33.1-22.3,49.5-33.7c6.6-4.6,14.6-4.1,21-6.8c2.2,0.7,4.4-0.3,5.1,1.8c0.5,1.7-1.2,2.6-2.2,3.6
		c-20.6,20.5-41.3,41-62,61.6c-7.8,7.7-15.4,15.6-23.1,23.4C102,598.8,101.9,598.8,95,589.1z M165.6,642c-1.7,2.8-3.5,3.3-6.5,1.6
		c-19.5-10.6-36.7-24-52.1-40c-3.8-4-0.4-6,1.7-8.1c12.8-12.9,25.7-25.7,38.5-38.5c15.6-15.5,31.1-31.1,46.7-46.6
		c0.9-0.9,1.5-2.3,3.4-2.2c0.8,3.8-2,6.5-3.1,9.6c-0.4,1.1-70.8,107.7-69,108.5c1.4,0.6,70.7-106.3,71.3-107.2c0.6-1,1.1-2,1.7-3
		c0.9-1.5,0-4.6,2.2-4.4c2,0.2,4.5,1.8,5.4,4.1c0.6,1.5,1.7,2.5,2.7,2.6c5,0.4,7.5,6,12.8,6c2.2,0,2.3,2.6,2,4.4
		c-2.3,13.2-4.6,25.9-12.6,37.8c-10.3,15.3-19.1,31.6-28.5,47.5C176.9,623.6,171.2,632.7,165.6,642z M192.2,657.9
		c-7.3-2.6-14.8-5.1-21.8-8.6c-3.2-1.6-4.2-3.6-2.3-6.7c16.2-26.9,32.4-53.8,48.6-80.8c0.1-0.1,0.3-0.1,0.9-0.2
		c-2.8,15.3-5.5,30.5-8.3,45.6c-2.8,15.2-5.7,30.4-8.7,45.6C199.3,659.7,198.7,660.2,192.2,657.9z M238.3,614.1
		c-1.2,15.1-0.4,30.3-0.8,45.4c-0.1,3.8-0.1,7.8-5.8,7.1c-9-1.3-18.1-2.4-26.8-5.3c-3.5-1.2-2.4-3.5-2-5.6
		c3.7-20.1,7.5-40.2,11.2-60.4c2.3-12.8,4.5-25.6,6.9-38.3c1.4-7.4,6.5-13,10.3-19.2c1.4-2.3,3.2,0.5,4.9,0.3
		c3.7-0.4,6.9,2.7,7.6,4.6c1.4,3.5,3.4,4.5,6.4,5.6c3.1,1.1,4,3,1.7,6.1c-3.5,4.6-8,8.3-11.5,12.7c-4.7,5.9-11.9,9.8-14.2,17.7
		c-0.8,2.9-3.6,4.7-6.2,6.3c-5.3,3.3-5,8.4,0.7,11.3c4.6,2.3,9.3,4.5,14,6.5C237.4,610,238.6,611.3,238.3,614.1z M270.3,667.2
		c-8.5,0.9-17,0.7-25.4,0.4c-5.1-0.1-4.5-4.3-4.6-7.3c-0.3-7.5-0.1-15-0.1-22.5c0.2,0,0.4,0,0.6,0c0-7,0.5-14-0.1-21
		c-0.5-5.7,3.4-8,7-8.7c5.6-1.2,11-2.3,16.2-4.8c1.9-0.9,4.6,0.5,7.1-0.5c1.4-0.6,1.4,1.5,1.5,2.5c1.2,18.6,2.7,37.1,3.2,55.8
		C275.9,665.2,274.2,666.8,270.3,667.2z M309.7,660.2c-8.5,2.3-17.1,4-25.9,5.3c-3.6,0.5-4.7-1.5-4.9-4.6
		c-1.1-16.4-2.1-32.8-3.1-48.3c0.3-5.3-1.7-10.6,4.2-13c2.6-1,5.5,0.1,8.3-1.3c2.4-1.1,5.4-0.7,8-2.2c2.4-1.3,3,0.9,3.5,2.8
		c2.6,10.5,5.4,20.9,7.8,31.4c1.9,8.2,4.5,16.3,5.4,24.8C313.3,658.2,312.3,659.5,309.7,660.2z M344.6,646.1
		c-7.6,4.3-15.8,6.8-23.7,10.4c-2.3,1-3.8,0.3-4.5-2.2c-0.9-3.5-2-7-2.9-10.6c-3.6-14.5-7.1-29.1-10.8-43.5
		c-1.1-4.2,0.3-6.1,4.4-6.2c2.2,0,4.2-0.9,5.8-1.6c2.2,0,3.1,1.2,3.9,2.4c9.9,14.4,19.8,28.7,29.7,43.1
		C348.9,641.4,348.7,643.7,344.6,646.1z M378.6,624c-7.4,5.7-14.9,11.1-22.9,16c-2,1.3-3.3,1.2-5-0.8c-2.7-3.1-5.1-6.5-7.5-9.9
		c-7.6-11.1-15.2-22.3-22.7-33.4c-0.8-1.2-2.3-2.3-1.3-3.9c0.8-1.3,2.3-1.8,3.9-1.8c4.6,0,8.9-1.8,13.2-3.2c3.3-1.1,7,0,10-2.3
		c0.8-0.6,1.7,0.7,2.4,1.4c9.7,10,19.4,20,29.1,30.1c1.2,1.3,2.1,3,2.9,4.1C380.8,622.5,379.6,623.2,378.6,624z M405.9,597
		c-5.4,6.8-11.7,12.7-17.9,18.9c-2.5,2.5-4.7,2.7-7.2,0.1c-9.5-9.8-19-19.6-28.6-29.3c-2-2.1-0.6-2.6,1-3.5
		c3.1-1.8,6.8-1.6,10.1-2.2c8.1-1.5,15.9-3.9,24-5.3c1.1-0.2,2.1-0.3,2.8,0.5c5.4,5.5,11.9,9.7,16.8,15.7c0.4,0.5,0.7,1.1,0.9,1.5
		C407.7,595,406.7,596,405.9,597z M422,574.1c-2.1,4.4-5.2,8.1-7.7,12.2c-1.9,2.9-3.8,3.7-6.9,1.5c-4.2-3-8.1-6.3-11.9-9.8
		c-3-2.7-1.1-4.3,1.4-4.8c8.7-1.4,17.2-3.9,25.8-5.8c1.3-0.3,2.3-0.1,2.5,1.6C424.2,570.8,422.9,572.3,422,574.1z M424.3,562.1
		c-7,2.7-14.6,2.7-21.7,4.7c-4.4,1.2-8.9,1.7-13.3,3c-2.1,0.6-3.1-0.2-4.3-1.4c-15.4-13.7-30.8-27.4-46.2-41.2
		c-10.5-9.4-21-18.8-32.7-29.3c11.1,1.9,20.8,3.5,30.4,5.4c3.8,0.7,6.7,3.7,9.9,5.6c26.1,15.9,52.1,32,78.2,48.1
		c1.4,0.8,3.3,1.6,3.1,3.5C427.5,562.1,425.5,561.6,424.3,562.1z M440.9,534.6c-1.8,5.9-4.1,11.6-6.8,17.1c-2.7,5.6-3.4,6-9,2.7
		c-9.6-5.7-19.1-11.5-28.6-17.3c-15.6-9.5-31.2-19.1-46.7-28.7c-0.7-0.4-1.3-0.9-2-1.4l0.5-1c3.6,0.6,7.2,1.1,10.7,1.8
		c24.8,4.7,49.6,9.5,74.5,14.2C444.2,524.1,444.2,524.2,440.9,534.6z M451.5,478.6c-0.2,2.4-0.2,4.7-3.8,4.5
		c-16.8-1-33.7,1-50.3-2.3c-6.9-1.4-14.3-1.1-20.9-4.2c-0.3-0.1-0.7-0.3-1-0.3c-13.4,1.8-18.9-10-27.4-16.6
		c7.1,1.1,14.2,2.1,21.3,3.3c10.5,1.7,21,3.1,31.5,5c3.9,0.7,8,2,12.2,1.4c3.3-0.4,6.1,1.7,9.4,2.2c7.1,1,14.5,0.9,21.3,3.7
		c1.1,0.5,2.6,0.2,3.9,0C450.3,475.1,451.7,475.9,451.5,478.6z M451.6,467.9c0,2-0.2,3.4-3.2,2.8c-7.3-1.6-14.7-2.7-22.1-4
		c-10.2-1.8-20.4-3.6-30.6-5.3c-6.7-1.1-13.3-2.2-20-3.1c-11.8-1.7-23.7-3-35.2-6c11.6-0.7,23.2-1.5,34.8-2.1
		c22.4-1.1,44.8-2.1,67.2-3.1c7.4-0.3,7.3-0.2,8.3,6.9C451.6,458.7,451.7,463.3,451.6,467.9z M492.7,546.8c1.9-2.7,3-5.4,2.3-9
		c-0.4-2.2,0.7-6.5,3.2-6.3c2.6,0.1,5.3,2.5,5.6,6.4C504.4,545.8,500.8,549,492.7,546.8z M511.6,464.7c-0.2,4.2-0.5,8.6-2.2,12.7
		c-0.5,1.2-0.7,2.8-2.6,2.4c-1.6-0.3-1.9-1.7-2-3.1c-0.1-1-0.2-2.1,0-3c1.9-7.1-0.3-14-0.8-21c-0.1-1.7,0.1-3.3,0.4-4.9
		c0.3-1.4,0.7-3.2,0.1-4.4c-3.1-6.4-2.8-13.3-2.9-20.1c0-0.8-0.1-1.8-0.6-2.4c-4.4-5.3-4.3-12.3-5.6-18.3c-1.8-8.6-5.2-16.1-8.5-24
		c-0.6-1.6-1.2-3.1-0.9-4.8c0.2-0.9,0.1-2.5-0.4-2.8c-4.7-3.1-3.9-9.5-7.9-12.9c-0.1-0.1-0.3-0.2-0.3-0.4
		c-0.2-6.8-5.3-11.3-8.5-16.5c-2.8-4.5-3.4-10.7-8.9-13.5c-0.6-0.3-1.2-0.9-1.4-1.4c-1.7-6.5-9.1-9.3-10.5-16.1
		c-0.1-0.6-0.5-1.4-1-1.6c-4.4-1.8-6.1-6-8.8-9.4c-1.5-1.9-1.9-2.7,0-4.3c10.3-8.2,21-15.7,30.8-24.5c2.5-2.3,3.4-0.8,4.4,1.7
		c6.9,19.1,12.8,38.5,18.9,57.9c4,12.7,8.3,25.3,11.5,38.1c2.7,10.5,6.8,20.8,7.4,31.7c0.6,11,0.1,22,0.1,33c0,0,0.1,0,0.1,0
		C511.7,443.4,512.1,454,511.6,464.7z M749,165c-0.1,3.3-1.3,6.3-3.1,8.9c-8.9,12.9-15.8,26.9-23.9,40.2c-2,3.2-4.7,4.9-8.1,6.1
		c-10.3,3.5-20,8.3-30,12.5c-12.9,5.5-20.7,15.7-26.6,27.9c-19.4,40.4-37.7,81.3-54.8,122.7c-2.4,5.8-4,11.1,0.8,17.2
		c-6.5-4.1-9.8,0.1-12.9,3.8c-7.9,9.1-17,16.8-26.8,23.6c-3.1,2.2-6.3,4.4-9.4,6.5c-5.5,3.7-8.9,2.5-10.5-4
		c-1.3-5.5-2.2-11-2.9-16.6c-0.8-6.1-3.7-12.3-0.3-18.5c0.3-0.5-0.2-1.7-0.6-2.3c-7.9-11.3-10.4-24.1-10.6-37.5c0-2.7-0.7-5-3.1-6.4
		c-0.9-0.6-1.8-1.2-1.9-2.1c-0.7-7.7-6.1-14.2-5.6-22.1c0.1-2.3-1.6-3.1-2.3-4.7c-4-8.8-6.6-18.1-9.5-27.2c-2.5-7.8-4.4-15.7-7-23.4
		c-2.6-7.8-1.2-12.5,6.4-15.8c16.5-7.1,33.1-13.9,49.8-20.7c20.2-8.2,40.4-16.3,60.7-24.3c16.7-6.6,33.4-13.2,50.1-19.7
		c15.2-5.9,30.2-12.2,45.7-17.2c10.6-3.4,20.4-8.8,31.3-11C748,159.9,749.1,161.3,749,165z M1205.1,415.6c1.8,6.2,2.9,12.7,4.4,19
		c1,4.1,0,6.1-4.6,6.4c-10.8,0.7-21.6,1.8-32.3,2.6c-30.5,2.3-61,4.6-91.6,6.9c-2.3,0.2-4.6,0-8.4,0c8.8-6.3,16.6-12,24.6-17.3
		c4.8-3.2,10.7-3.7,16.1-5.1c26.1-6.8,52.2-13.6,78.4-20.1C1204.4,404.9,1202.1,405.3,1205.1,415.6z M1063.8,442
		c0-1.7,2.6-1.6,4.1-2c6.7-1.7,13.4-3.3,20.1-5c0.1,0.4,0.3,0.8,0.4,1.3c-5.5,4-10.9,8-16.4,11.9c-1.1,0.8-2.5,1.9-3.5,0.4
		C1067,446.3,1063.8,445,1063.8,442z M1070.6,487.3c4.8,2.8,9.7,5.7,14.5,8.5c-0.1,0.4-0.2,0.7-0.3,1.1c-5.5-1-11-2.1-16.6-3
		c-2.1-0.4-3.4-1.3-3.4-3.5c0-1.6-0.5-3.6,1.3-4.5C1067.9,484.9,1069.2,486.5,1070.6,487.3z M1185.6,371.9c1.8-0.8,2.3,0.9,2.9,1.9
		c4.5,8,8.2,16.4,11.3,25c1.3,3.5-0.7,4.6-3.3,5.3c-11.2,3.1-22.5,6.2-33.7,9.2c-16.1,4.2-32.2,8.3-48.4,12.4
		c-2.7,0.7-5.4,1.2-8,1.8c-0.1-0.2-0.1-0.5-0.2-0.7c23.9-17.1,47.9-34.1,71.7-51.2C1180.3,373.7,1183,373,1185.6,371.9z
		 M1168.9,343.9c4.9,6.3,9.6,12.8,13.8,19.6c1.8,2.9,1.5,4.7-1.6,6.9c-26.6,18.8-53.1,37.8-79.6,56.8c-3.1,2.2-6.5,3.1-10.1,4.1
		c-9,2.3-18,4.7-27,7c-0.4-0.5-0.7-1-1.1-1.5c18.1-17.6,36.2-35.2,54.2-52.9c13.3-13.1,26.4-26.3,39.6-39.5c0.7-0.7,1.4-1.4,2.3-2
		C1164.4,338.9,1165.1,338.9,1168.9,343.9z M1139.6,314.2c7.2,5.7,13.8,12.1,20.1,18.7c0.9,0.9,1.4,2.2,1.8,2.8
		c0.4,1.8-0.4,2.4-1.2,3.1c-21.7,19.7-41.7,41.1-62.4,61.7c-10.7,10.7-21.4,21.5-31.9,32.3c-2.7,2.8-4.5,2.7-6.6-0.7
		c-2-3.4-4.4-6.3-8.6-7.8c-4.2-1.5-5.3-7.7-2.7-11c9.4-11.8,19.5-23.1,29.4-34.6c13.9-16,27.3-32.3,41-48.4
		c4.4-5.2,9-10.2,13.5-15.4C1134.3,312.4,1136.5,311.7,1139.6,314.2z M1059.5,467.9c0,2.3,0.1,3.6,0,4.9c-0.4,3-1.8,4.2-4.7,2.4
		c-3-1.8-7.2-2.7-8.4-5.7c-0.8-2,3.5-3.3,5.6-4.8c1.8-1.3,3.7-3.9,6-2.8C1060.5,463.2,1059.3,466.5,1059.5,467.9z M1048.4,490.2
		c-4.6-0.8-9.1-1.7-13.6-2.6c-1.4-0.3-2.7-0.7-2.4-2.5c0.2-1.6,1.7-1.4,2.8-1.5c2.3-0.2,4.6,0,6.6,0c3.3,0.8,7.1-1.7,9.4,2.2
		c0.6,1.1,1.6,2.3,0.9,3.7C1051.2,491.1,1049.7,490.5,1048.4,490.2z M1045.8,501c-2.1,2.2-4,6.2-7,5.6c-3-0.6-2.2-5-3.3-7.7
		c-0.8-1.8-1-3.8-1.7-5.7c-0.7-2.1,0-2.8,2.1-2.5c2.3,0.4,4.6,0.7,6.8,1.2c2.4,0.6,6.1-0.2,6.9,2.5
		C1050.4,496.9,1047.6,499.1,1045.8,501z M1039.1,430.1c0.2-1.1,0.9-1.5,1.7-0.9c3.6,2.8,7.8,5.1,9.5,9.8c0.6,1.8,0.2,2.9-1.6,3.4
		c-2.7,0.7-5.4,1.5-8.2,2.1c-2.5,0.5-3.8-0.6-3.5-3.7C1037.7,437.5,1038.4,433.8,1039.1,430.1z M1037,413c-2.1-0.5-4.2-0.6-6.7-1
		c3.2-6.8,6.9-13,11.7-18.7c0.9,6.2-1,12.1-1.9,18.1C1039.8,412.9,1038.6,413.3,1037,413z M1054.6,454.9c1.5,0.1,2.6,0.4,2.9,2.1
		c-0.1,0.3-0.1,0.7-0.3,0.9c-4.3,3.3-8.5,6.9-13.4,9.2c-1.7,0.8-3.9-1.1-5-2.5c-1.5-1.8,0.9-2.7,1.8-4
		C1044.2,455.9,1049,454.5,1054.6,454.9z M1072.6,278c6.8,2.3,13.6,4.7,20.1,7.6c11.8,5.3,23.2,11.2,33.9,18.6
		c6.5,4.5,6.7,5.5,1.5,11.6c-17.8,20.9-35.7,41.7-53.6,62.6c-9.2,10.7-18.4,21.5-27.6,32.2c-1.3,1.5-2.6,2.8-4.9,5.3
		c2.6-18.7,4.9-35.5,15-50.8c14.7-22.2,27.7-45.5,41.5-68.3c0.6-1,10.9-18,9.1-18.9c-1.5-0.8-10.5,17-11.2,18
		c-11.9,19.7-23.7,39.4-35.5,59.1c-3.7,6.1-7.4,12.2-11.1,18.3c-0.4-0.1-0.7-0.2-1.1-0.3c4.4-24.9,8.8-49.7,13.3-74.6
		c0.9-5.2,1.8-10.5,2.9-15.7C1066,276.7,1066.9,276.1,1072.6,278z M1027.7,399.5c0-40.8,0-81.6,0.1-122.4c0-7.6,0.1-7.8,7.4-6.8
		c6.9,1,13.8,2.1,20.7,3.5c7.2,1.5,7.6,2.4,6.4,9.4c-2,12.1-4.2,24.3-6.3,36.4c-3.5,19.8-6.8,39.7-10.5,59.5
		c-1.2,6.3-5.7,11.2-8.8,16.7c-2.4,4.3-5.2,8.4-7.8,12.6c-0.4-0.1-0.8-0.3-1.2-0.4C1027.7,405.1,1027.7,402.3,1027.7,399.5z
		 M1027.7,437.1c2.7-3.7,5.7-7,8.7-10.5l0.8,0.5c-0.8,4.3-1.6,8.7-2.3,13c-0.4,2.5-1.2,4.4-4.1,4.8c-1.1,0.1-2.7,0.9-3-0.6
		C1027.3,442,1026.1,439.3,1027.7,437.1z M994.3,270.1c12.2-0.2,9.9-2.1,10.2,9.4c0,1.8,0,3.7,0.2,5.5c0.2,1.8,0.3,4.3,2.6,4.2
		c2.7-0.1,2.5-2.8,2.4-4.7c-0.1-3-0.7-5.9-0.8-8.9c-0.2-6.2,0.2-6.5,6.3-6.5c1.2,0,2.3,0.1,3.5,0c4.2-0.3,6,1.5,6,5.8
		c-0.1,14.2,0,28.3,0,42.5c0,7.2,0,14.3,0,21.5h0c0,21,0,42,0,62.9c0,5.8-0.3,6.1-5.9,5.2c-3-0.5-6-0.4-8.8,0.9
		c-3.9,1.9-7.3-1.5-11.1-1.3c-1.2,0.1-1-2.2-1.1-3.5c-1-11.9-1.9-23.9-2.8-35.8c-1.7-22.7-3.3-45.4-4.9-68.2
		c-0.5-7.8-0.8-15.6-1.3-23.4C988.5,271.7,990.4,270.1,994.3,270.1z M1004.1,511.5c2.2-4.1,4.5-8.1,6.9-12.1
		c1.7-2.7,3.5-3.3,5.4,0.1c1.8,3.2,4,6.1,6,9.1c2.6,4,2.1,5.3-2.8,6.3c-4.1,0.8-8.2,1.2-11.5,1.7c-2.3,0-4,0.4-4.9-1
		C1002,514.1,1003.4,512.8,1004.1,511.5z M1001.2,420.2c2.8-3,7.6-2.1,11.7-2.2c1.2,0,2.3-0.1,3.5,0c4.6,0.6,5.4,2.1,3.2,6.1
		c-0.5,0.9-0.9,1.8-1.4,2.6c-4.8,8.4-7.8,8.6-12.6,0.7C1003.9,424.9,999.9,421.6,1001.2,420.2z M950,281.3c1.8-3.4,6-3.4,9.2-4.5
		c7.3-2.5,14.8-3.7,22.4-4.9c2.5-0.2,3.5,1,4.1,3.3c1.4,6.2,1.2,12.6,1.7,18.9c2.1,26.2,3.7,52.4,5.4,78.7
		c0.7,10.5,1.5,20.9,2.2,31.4c0.1,1.4,1.1,3.2-0.8,4c-2.1,0.8-2.7-1.3-3.8-2.5c-8.5-9.5-11.1-21.8-15.3-33.3
		c-9.9-27.2-15.3-55.5-22.5-83.4C951.9,286.3,948.4,284.3,950,281.3z M994.9,494.9c-0.7,3.4-1.6,6.8-2.4,10.2
		c-0.7,3-2.7,4.4-5.8,4.6c-3.9-0.7-6.7-3.5-9.4-6c-2.5-2.3-7-4.2-6.2-7.6c0.5-2.4,5.4-2.3,8.3-3.3c3.3-1.1,6.6-2.3,10-3.1
		C993.8,488.5,995.8,490.5,994.9,494.9z M956.7,424.8c0.7,2,2.1,3.8-0.7,5.6c-2.4,1.5-4.1,2-6.5-0.2c-5.8-5.4-11.9-10.6-18-15.8
		c-1.4-1.2-2.6-2.5-2.6-4.5c-0.1-12.5,1.2-24.7,4.6-37c4.4,3.1,6.9,6.8,8.5,11.6C946.6,398,951.7,411.4,956.7,424.8z M946.7,435.4
		c-10,6.7-11.7,6.1-15-5.5c-1.2-4.1-2-8.3-2-13.8c6.3,5.4,11.8,10.2,17.3,14.9C949,432.7,949.1,433.8,946.7,435.4z M896.1,46.2
		c1.3-1.5,2.3,0.7,3.5,0.7c4.3,0.1,6.8,2.8,9.3,5.7c2,2.3,4.7,3.6,7.7,4.7c-4.1,2-8.4,1.4-12.6,2.1c-1.6,0.3-2.1-1.3-2.8-2.4
		c-1.4-2.2-2.9-4.5-4.2-6.8C896.3,48.9,894.8,47.6,896.1,46.2z M876,88.6c1.5-6.1,1.1-12.2,0.1-19.7c4,4.4,7.2,4.5,10.2,0.5
		c1.2-1.6,2.7-0.9,3.8,0.3c3.2,3.6,6.2,2.9,8.6-0.6c2.8-4.2,6.2-5.2,11.1-4.2c5.1,1.1,10.4,1.3,15.7,0.9c-2.7,3.3-6.2,4.8-9.4,6.6
		c-12,6.6-24.1,12.9-36.1,19.3c-1.3,0.7-2.7,2.1-4.1,1.1C874.3,91.6,875.6,89.9,876,88.6z M924.7,70.9c3.4-2,5.7-1.6,8.4,1
		c9.7,9.4,8.8,19.8,0,25.8c-3.6,2.4-8,2.5-12.1,2.7c-16.6,0.8-33.2-0.2-50.3,0.9c1-2.3,2.4-2.9,3.7-3.6
		C891.6,89.4,908.4,80.7,924.7,70.9z M865.6,98.2c-2.6,0.3-3-2.3-3.8-3.9c-2-4.4-3.9-8.8-5.6-13.2c-1.6-4.2-4.6-7.2-8-10
		c-1.1-0.9-2.8-1.8-2.3-3.5c0.4-1.5,2.2-1.9,3.7-2.3c5.1-1.3,10.3-2.4,15.5-3.8c2.4-0.6,3.8,0.1,4.7,2.4c2,5.1,3.5,10.4,3.9,16
		c-0.4,4.9-1.1,9.8-3.3,14.4C869.3,96.4,867.8,98,865.6,98.2z M893.3,158.7c-6,0.4-8.5-4.1-11.4-8.1c-0.4-0.5-1.1-1.1-0.5-1.7
		c3.6-3.7,0.6-7.1-0.4-10.6c-1.4-5.1-2.5-10.4-4.4-15.3c-1.8-4.7-4.5-9.2-7-13.6c-2-3.4-1.4-4.4,2.6-4.5c15.6-0.2,31.3-0.6,46.9-0.9
		c4.7-0.1,9.3-0.6,13.7-2.3c3.2-1.2,5.9-2.9,7.7-6c0.6-1.1,1-2.9,2.6-2.7c1.6,0.2,1.8,1.9,2.1,3.1c2.9,9.7,4.9,19.7,6.4,29.7
		c3.8,25.3-1.4,49.7-7.6,74c-1.1,4.5-2,9-2.9,13.3c-2.3-2-4.6-3.8-6.6-6c-2.9-3.3-13.3-4.3-16.2-1.3c-1.3,1.3-1,3-0.5,4.7
		c1.8,5.6,3.4,11.1,5.2,16.7c0.6,1.9,1.5,3.8-0.1,5.8c-1.5-0.7-1.5-2.3-2-3.6c-4-11-7.5-22.1-11.9-32.9c-2.9-7.1-1.2-14.6-3.8-21.7
		c-2.2-6.1-5.5-10.9-9.8-15.4C895,159.1,894,158.6,893.3,158.7z M888.3,313.7c6-5,12.7-9.1,19.1-13.5c2.3-1.6,3.8-1.6,4.9,1.3
		c6.4,18.2,12.8,36.4,19.2,54.6c0.3,0.8,0.3,1.6,0.5,2.5c-0.3,1.4-0.5,2.9-0.9,4.3c-0.6,2.2-1.6,2-3.1,0.5
		c-13.4-13.1-26.9-26.1-40.3-39.2C882.2,318.7,882.4,318.6,888.3,313.7z M861.8,339.5c5-5.5,9.9-11.3,15.6-16.2
		c2.5-2.1,4.1-2.1,6.3,0.1c13.5,13.3,27.1,26.6,40.5,40c2.1,2.1,5.7,3.4,5.2,7.8c-2.6,10.8-3.9,22.2-4.9,33.7
		c-0.3,4-2.6,1.1-3.6,0.2c-8.8-7.6-17.5-15.3-26.3-23c-10.5-9.2-20.9-18.6-31.5-27.6C855.2,347.9,854.9,347.1,861.8,339.5z
		 M840.4,369.8c2.9-5.4,6.5-10.4,10-15.5c2.6-3.8,5-3.7,8.1-0.9c11.3,10,22.7,20,34.1,30c9.4,8.2,18.7,16.5,28.2,24.6
		c2.4,2.1,3.9,4.2,4.2,7.5c0.5,6.1,1.4,12.1,3.2,18.5c-4.9-1.4-8.5-4.2-12.3-6.3c-23.5-13.5-47-27.1-70.4-40.6
		C834.6,380.8,834.5,380.8,840.4,369.8z M822.8,409.8c2.3-7.3,5.2-14.4,8.2-21.5c1.7-4.2,3.9-4.7,7.6-2.5c17.3,10.1,34.6,20,51.9,30
		c11.2,6.5,22.4,13.1,33.6,19.7c0.7,0.4,1.3,0.9,2,1.3c-33.1-5.1-65.6-11.5-98-18.1C821,417.3,820.6,416.6,822.8,409.8z
		 M819.1,423.8c1-3.9,4.4-3.2,7-2.8c7.9,1.3,15.7,2.8,23.6,4.3c25.2,4.8,50.3,9.7,75.5,14.6c1.3,0.3,2.6,0.5,3.9,0.9
		c0.9,0.3,1.8,0.9,2.4,1.6c1.3,1.6-2.3,10.6-4.3,11c-1.1,0.2-2.3,0.2-3.5,0.2c-24,0.4-47.9,0.9-71.9,1.1c-7.5,0.1-14.9,1.5-21.6,0.9
		c-4.4,0-7.9,0-11.4,0c-2.9,0-4.3-1.3-4.2-4.3C815.1,442,816.9,432.9,819.1,423.8z M814.7,489.9c-0.5-8.3-0.9-16.6-1-24.9
		c-0.1-4.5,1.9-6.4,6-6.7c1-0.1,2-0.2,3-0.2c23.5-0.4,46.9-0.9,70.4-1c9.2-0.1,18.3-1.6,27.4-1.1c3.8,0,7.7,0,11.5,0
		c7.1,0,12.5,9.4,8.9,15.6c-1.2,2-1,3.9,0.7,4.7c4.2,2,2.9,5,2.2,8c-0.6,2.9-2.2,4.2-5.2,4.3c-13.8,0.6-27.6,1.4-41.4,2.1
		c-25.6,1.3-51.1,2.6-76.7,4.2C816.4,495.1,815,494,814.7,489.9z M821.3,524.3c-2.1-7-3.5-14.2-4.8-21.4c-0.6-3.6,0.6-5.1,3.8-5.3
		c6.6-0.6,13.3-1.1,19.9-1.4c22.8-1.2,45.5-2.2,68.3-3.3c3.3-0.2,6.7-1.1,9.9-0.7c9.6,0.9,20.5-5.4,28.3,5.1
		c-1.2,2.2-3.9,3.3-6.6,4.1c-35.8,9.9-71.6,19.7-107.4,29.5C824,533.1,823.9,533,821.3,524.3z M834.9,559.1
		c-2.8-5.7-5.2-11.5-7.7-17.4c-2.1-4.9-1.6-6.1,3.5-7.5c23.3-6.5,46.5-13,69.8-19.4c9.6-2.7,19.2-5.4,28.9-8.1
		c0.9-0.3,1.9-0.8,2.9,0c-0.2,1.6-1.7,1.9-2.7,2.6c-26.9,17.9-53.9,35.7-80.8,53.5C839.7,568.7,839.6,568.7,834.9,559.1z
		 M857.2,593.9c-4.2-5.6-8.3-11.3-12.3-17c-3.8-5.5-3.8-6,1.8-9.9c9.9-6.8,19.9-13.3,29.9-19.9c21.5-14.3,43-28.5,64.5-42.8
		c4.9-3.3,10.6-3.4,15.9-5.2c0.3,0.4,0.6,0.8,0.9,1.2c-6,6.4-12,12.7-18,19.1c-13.9,14.8-27.8,29.5-41.8,44.2
		c-9.8,10.4-19.7,20.7-29.7,30.9C862.6,600.5,862.2,600.4,857.2,593.9z M891,626.2c-1.5-0.1-2.4-1.2-3.4-2
		c-6.5-4.7-12.2-10.3-17.8-16c-5-5.1-5.1-6.2-0.1-11.5c7.5-8,15.2-15.9,22.7-23.9c21.3-22.5,42.5-45,63.7-67.5
		c2.5-2.7,4.5-4.1,6.6,0.2c0.1,0.3,0.4,0.6,0.6,0.8c7.3,3.3,10.6,11.7,18.3,14.5c3.5,1.3,3.9,3.2,1.3,5.8
		c-7.7,7.6-14.9,15.7-22.1,23.7c-10,11.1-20.1,22.1-30.1,33.3c-12.2,13.6-24.6,27.2-36.8,40.8C893,625.3,892.2,626,891,626.2z
		 M918.9,645.1c-7.3-4.1-14.3-8.5-21.3-13c-3.2-2.1-3.9-4.1-1.2-7.1c7.5-8.2,14.9-16.6,22.4-24.8c22.4-24.6,44.8-49.1,67.2-73.7
		c0.4-0.5,1-0.8,1.6-1.3c0.6,11.5-5,20.2-10.2,29.2c-12.9,22.5-25.6,45.1-38.4,67.7c-3.9,6.9-8,13.8-11.9,20.8
		C925.1,646.3,923.1,647.4,918.9,645.1z M952.8,659c-7.2-2.2-14-5.3-21-7.9c-4-1.5-4.2-3.7-2.6-6.9c3.3-6.2,6.6-12.3,10.1-18.4
		c14-24.7,28.1-49.4,42.1-74.2c0.4-0.7,0.8-1.4,1.2-2.1c0.3,0.1,0.6,0.2,1,0.3c-3.6,17.1-7.2,34.1-10.7,51.2
		c-3.6,17.4-7,34.9-10.7,52.3C960.7,660.7,959.7,661.1,952.8,659z M991.6,666.8c-7.1-0.9-14.2-1.9-21.2-3.2
		c-6.7-1.2-7.2-2.1-5.9-8.6c3.2-15.7,6.4-31.3,9.6-47c4.3-21,8.9-42,13-63.1c1.3-6.5,5-11.4,8.2-17.4c1.6,2,1.2,3.6,1.2,5
		c0.4,21.5,0.3,43,1.3,64.4c0.9,21,0.3,41.9,1.2,62.9C999.3,666.8,998.5,667.6,991.6,666.8z M1032.3,667c-5.2,0.7-10.3,0.8-15.5,0.9
		c-0.7,0-1.3,0-2,0c-14.9-0.3-13.1,1.9-13.7-13.7c-1.1-27.8-0.8-55.6-1.6-83.5c-0.4-12.7-0.5-25.3-0.8-38c-0.1-4.1,0.8-6.6,5.6-5.3
		c0.5,0.1,1.1,0.3,1.5,0.1c7.2-3.6,15.4,0.9,22.6-2.6c2.7-1.3,2.6,1,2.7,2.6c0.6,9.1,1.1,18.3,1.5,27.4c1.6,31.9,3.2,63.9,4.7,95.8
		c0.2,3.5,0.1,7,0.2,10.5C1037.7,665,1036,666.5,1032.3,667z M1065.4,660.8c-6.3,2-12.9,3.2-19.5,4.2c-4.6,0.7-5.6-1.4-5.8-5
		c-0.4-5.5-0.8-11-1-16.4c-1.1-25.1-2.1-50.2-3.3-75.2c-0.6-12.5-1.3-24.9-1.9-37.4c0-1.1-0.5-2.3,0.9-3.6c4.2,7,9.5,12.9,11.7,21.2
		c8.5,32.7,17.5,65.2,26.4,97.8C1075.9,657.3,1076,657.4,1065.4,660.8z M1100.4,647.3c-5.3,2.7-11.1,4.5-16.5,7
		c-4.4,2-6.2,0.4-7.3-3.9c-3.3-13.1-6.8-26.1-10.4-39.1c-5-18.5-10-36.9-15.1-55.4c-0.4-1.4-0.7-2.9-1-4.3c0.3-0.1,0.6-0.2,0.9-0.3
		c7.6,11.1,15.2,22.2,22.7,33.4c10.4,15.4,21,30.7,31,46.4C1111.1,641.3,1112.9,641.1,1100.4,647.3z M1139.7,621.8
		c-7.2,6-15.1,11-22.8,16.2c-3.4,2.3-4.9-0.3-6.4-2.4c-5.2-7.5-10.3-15.1-15.4-22.7c-15.2-22.7-30.4-45.3-45.6-68
		c-4.4-6.5-5.1-14.2-7-22.2c3.1,0.7,4.2,2.2,5.5,3.5c29.7,28.9,59.4,57.8,89.1,86.8c1.1,1,2.1,2.1,3.1,3.3
		C1141.9,618.2,1141.8,620,1139.7,621.8z M1167.4,593.7c-5.4,6.5-10.9,13-17.2,18.8c-4.8,4.4-5.3,4.5-10.1-0.2
		c-12-11.5-23.9-23.1-35.9-34.7c-19.1-18.6-38.1-37.2-57.2-55.6c-3.1-2.9-4.2-5,0.5-7.2c0.6-0.3,1.2-0.8,1.5-1.3
		c2.5-6.2,9-9.1,12.2-14.6c1.6-2.7,3.1-2.8,5.5-0.7c14,12.5,28.1,24.9,42.2,37.4c16.9,15,33.9,30,50.8,45.1c2.6,2.3,5.1,4.8,7.6,7.2
		c0.8,0.8,1.4,1.8,1.9,2.5C1169,592,1168.1,592.8,1167.4,593.7z M1186.4,566.2c-3.5,6.1-7.4,11.8-11.4,17.6
		c-2.6,3.6-4.7,3.6-7.6,0.9c-5.6-5-11.2-10-16.8-15c-14.2-12.6-28.3-25.2-42.5-37.7c-12.3-10.9-24.7-21.8-37-32.7
		c-0.5-0.4-0.7-1-1.5-2.1c13.2,2.2,25.9,3,37,10.7c9,6.2,18.9,11.1,28.4,16.7c15.9,9.3,31.7,18.7,47.7,27.9
		C1191.3,557.4,1191.4,557.4,1186.4,566.2z M1202.2,530.2c-2.2,6.6-5,13-7.5,19.5c-1.5,3.9-3.8,4.5-7.4,2.5
		c-11.6-6.8-23.3-13.4-35-20.2c-14.8-8.6-29.6-17.2-44.4-25.8c-1.2-0.7-2.4-1.6-3.6-2.4c0.1-0.3,0.2-0.6,0.3-0.9
		c6.5,1.1,12.9,2.1,19.4,3.2c23.7,4.2,47.4,8.5,71.2,12.8C1205.1,520.8,1205.3,520.9,1202.2,530.2z M1211.3,487.7
		c-1.2,8.4-2.4,16.8-4.1,25.1c-1,4.9-3.7,5.1-7.6,4.4c-19-3.4-38-6.6-57.1-10c-14.4-2.5-28.8-5.1-43.3-7.7c-6.1-1.1-10.8-5-16.1-7.8
		c-4.1-2.2-8-4.6-12-6.9c0.1-0.6,0.2-1.1,0.4-1.7c6.3,0,12.6,0,18.9,0c37.3-0.1,74.6-0.2,112-0.3c1.7,0,3.3,0.1,5,0.1
		C1210.8,482.8,1211.8,484.6,1211.3,487.7z M1212.4,473.6c-0.3,4.5-2.1,6.6-6.8,6.3c-5.1-0.3-10.3,0-15.5,0c-26.1,0-52.3,0-78.4,0
		c0,0.3,0,0.7,0,1c-12.5,0-25-0.1-37.5,0.1c-3.9,0.1-5.3-1.3-4.3-5c0.9-3.4,0.3-6.5-0.9-9.7c-2.3-6.4,1.8-12.8,8.5-13.3
		c28-2.1,56.1-4.1,84.1-6.1c14.1-1,28.2-2.1,42.3-2.9c6.9-0.4,7.4,0.3,7.6,7.1C1211.8,458.6,1212.8,466,1212.4,473.6z"/>
</g>
</svg>
