<?xml version="1.0" encoding="utf-8"?>
<!-- Generator: Adobe Illustrator 21.0.2, SVG Export Plug-In . SVG Version: 6.00 Build 0)  -->
<svg version="1.1" id="falt_klapp" xmlns="http://www.w3.org/2000/svg" xmlns:xlink="http://www.w3.org/1999/xlink" x="0px" y="0px"
	 viewBox="0 0 1140 809.8" style="enable-background:new 0 0 1140 809.8;" xml:space="preserve">
<g>
	<path style="fill:#fff" d="M38.7,508.6c-8,2.9-13.7,7.6-20.7,9.3c-1.8,0.4-4,2.4-5.4,0.1c-1.2-2,0.7-3.8,1.9-5.3c5.7-6.9,10.3-14.8,16.3-21.5
		c2.5-2.9,4.8-5.7,5.1-10.3c0.5-7.5,9.1-14.7,16.8-15.5c2-0.2,4-0.3,5.6-1.6c8.5-6.7,17.3-12.9,27.2-18.8
		c-6.4-2.5-11.7-3.6-17.1,1.1c-5.2,4.4-11.7,3-17.7,2.1c-2.9-0.4-3.6-3.6-4.3-6.2c-1.2-5.2-0.7-10.6-2.7-15.7
		c-0.9-2.2-0.3-4.8,1.5-6.5c3.7-3.5,6-7.9,8.4-12.3c1.6-2.9,4.2-4.9,7.1-6.2c13.6-6.1,27.2-11.8,42.7-12.1
		c15.1-0.3,30.1-2.9,45.2-4.2c15.2-1.2,30.5-4.5,45.7-3.3c14.6,1.2,29.1,3,43.7,4.2c5.3,0.4,10.7,0.4,15.9,1.5
		c14,2.8,24.7-3.8,35.3-11.4c3.4-2.4,7-4.5,10.5-6.7c2.6-1.7,5.3-2.7,7.4,0.5c2,3.1-0.3,5-2.5,6.6c-10,7.3-19.9,14.6-30.5,20.9
		c-1,0.6-2.2,0.8-2.8,2.7c8.4,3.7,16.9,7.4,25.3,11.1c17.4,7.6,34.9,15,52.2,22.8c6.2,2.8,13.1,2.6,19.1,5.6
		c2.7,1.3,5.6,2.1,8.2,3.7c3.1,2,6,1.3,8.8-0.7c2.8-2,2-4.6,1.2-7.2c-0.5-1.6-0.8-3.2-1.1-4.9c-0.8-4.6-2-7.8-8.1-6.3
		c-3.9,1-6.9-2.3-7.5-5.8c-0.7-4-0.8-8.4,4.2-10.6c7.2-3.1,7.2-3.2,5.2-11.1c-14.3-56-28.6-112-43-168c-4.6-17.9-9.2-35.8-13.6-53.8
		c-0.8-3.5-1.9-5-6-4.6c-7.9,0.9-15.4-6-15.7-14.9c-0.2-3.7-1.7-3.7-4.2-3.6c-2,0.1-4,0.1-6,0.4c-6.1,1-11.6-0.6-16.4-4.4
		c-4.6-3.6-9.2-7.2-13.7-10.8c-1.5-1.2-2.7-1.7-4.9-1.3c-7,1.2-13.9-0.2-18.9-5.1c-3.2-3.2-6.5-4.8-10.5-5.9
		c-6.6-1.8-7.8-4.1-5.7-10.5c3.8-11.8,12.1-17.2,27.3-17.5c15.9-0.3,31.5,2.3,47.2,4.3c10.9,1.4,21.8,3.3,32.7,4.1
		c10.6,0.8,21.2-1.2,31.9-1.9c19.1-1.3,38.1-4.3,57.3-1.6c9,1.2,15.6,5.4,18.8,14.2c1.7,4.6,0.7,6.7-4,8.4
		c-4.6,1.8-9.5,1.4-14.3,1.8c-10.7,1-21.1,3.1-31.4,5.7c-6.2,1.5-12.4,2.5-18.8,1.9c-1.8-0.2-3.2,0.4-4.6,1.4c-1.9,1.4-4,2.5-5.7,4
		c-7.2,6.3-15.7,9.2-25.1,9.6c-1.5,0.1-3.4-0.5-4.6,1.8c4.8,1.4,9.2,3.6,13.7,5.6c3.5,1.5,5.3,3.9,6.3,7.7
		c8.1,32.3,16.4,64.6,24.7,96.9c11.2,43.9,22.4,87.8,33.6,131.7c0.7,2.9,2,5.1,4.5,7.3c3.8,3.4,4.4,8.8,4.1,13.9
		c-0.1,2.6,0,4.9,1.9,6.9c0.7,0.7,1.3,1.7,1.3,2.6c-0.2,14.6,6,27.9,9,41.8c3.1,14.4,7.5,28.6,11.2,42.9c1.6,6.2,3.3,7.7,9.8,7
		c4.6-0.5,9.4-0.2,13.3-3.5c0.8-0.6,2.3-0.9,3.3-0.6c6.9,1.9,13.9,0.5,20.9,1c23.2,1.7,42.4,11.5,58.5,28.1c1.3,1.3,2.8,2.9,1,4.7
		c-2.2,2.1-4.4,1-6.1-0.8c-7.2-7.6-15.8-13.3-25.2-17.8c-12.1-5.7-24.9-8.5-38.3-8c-1.4,0-3.1-0.4-4,1.3c0.9,2.1,2.8,1.4,4.3,1.5
		c31.1,1.3,54.3,15.3,68.9,42.9c2.2,4.1,3.9,8.5,4.9,13c1.2,4.9,3,6.4,8.3,5.4c13.8-2.8,27.7-4.8,41.3-8.5c4.8-1.3,9.4-1.1,13.7,2.2
		c2.8,2.1,6.5,2,10.1,1.2c5.1-1.1,7.2,0.5,7.6,5.6c0.2,2.7,0.1,5.3,0.2,8c0,1.3-0.3,2.9,1.1,3.6c1.5,0.7,2.4-0.6,3.4-1.4
		c13.6-10.6,25.4-23,35.9-36.6c11-14.2,18.5-30.4,26.3-46.4c14-28.7,26.7-58.2,45.3-84.4c12.2-17.1,27-31.6,43.6-44.4
		c7.8-6.1,16.3-11,24.8-15.9c3.8-2.2,4.9-5.4,3.9-9.3c-1.2-4.5-2.7-8.9-4.3-13.3c-2.3-6.2-8.4-8.4-13.5-11.1
		c-5.3-2.9-8.3-8.2-5.4-13.4c3.1-5.6,4.2-11.9,7.6-17.3c1.1-1.8,0.9-3.8,0.6-5.8c-9-51.3-16.7-102.9-28.1-153.8
		c-1.2-5.3-3.1-10.1-8.9-12.1c-2-0.7-3.3-2.3-3.3-4.6c0-2.8,2-4.4,4.3-4.9c4.8-1,4.7-3.6,3.8-7.6c-3.6-15.9-7-31.9-10.3-47.9
		c-0.7-3.6-2.3-6-5.9-7.2c-2.6-0.8-5.1-2.2-6.5-4.4c-3.8-6.3-10.1-10-15.3-14.8c-5.5-5-4.7-12.4,2-15.5c4.2-1.9,6.8-3.2,7-9.3
		c0.3-9.6,11.6-14,22.1-11.3c9.6,2.5,12.7,10.4,15.7,17.6c1.9,4.6,3.7,4.4,7.1,3.7c1.1-0.2,2.2-0.8,3.3-1c0.9-0.2,2.1-0.7,2.5,0.7
		c0.4,1.2-0.7,1.7-1.5,2.3c-2.7,1.6-6,1.9-8.2,3.8c5.4,8.9,11.5,17.1,17.8,25.2c5.4,6.9,11.6,13.1,18.6,17.9
		c18.6,12.9,33.9,29,48,46.3c16.3,19.9,31.5,40.5,45.5,62c1.6,2.4,4.9,2.2,5.9,4.1c4.1,7.5,10.9,13.8,11.3,23.2c0,1.2,1,2.4,1.6,3.6
		c9.8,17.4,20.6,34.3,29.1,52.4c7.9,16.7,13.8,33.9,14.6,52.6c0.8,19.3-6.1,36.2-16.6,51.9c-8.3,12.5-18.6,23.5-28.5,34.7
		c-6.4,7.3-15.5,11.4-22.4,18.2c-0.7,0.7-1.6,1.2-2.3,1.9c-1.3,1.4-3.6,2.4-2.2,4.9c1.1,2.1,3.1,1.4,4.9,1.1
		c8.6-1.2,17.1-2.5,25.7-3.5c2.3-0.3,5.5-1.7,6.9,0.9c1.5,3-1.7,4.7-3.5,6.5c-2.3,2.3-5,4.3-8.1,6.9c6.2-0.5,11.7-1.3,17.3-1.5
		c30.4-1.3,59.7,3.4,87.4,16.4c29.6,13.9,54.5,33.5,74.1,60.1c18.3,24.9,29.6,52.7,33.8,82.9c5.7,40.9-1.4,79.9-21.9,116.2
		c-10.8,19.2-24.1,36.5-41.1,50.5c-25.5,21.1-53.8,36.4-86.9,42.7c-33.1,6.3-65.3,3.9-97-6.8c-37.9-12.9-68.7-35.6-91.9-68.2
		c-26-36.6-36.5-77.7-33.6-122.3c0.7-9.8,2.6-19.5,4.8-29.1c0.3-1.5,1.4-3.7-0.9-4.2c-2.6-0.5-2.8,2.1-2.7,3.8
		c0.4,15.1-8.3,25.5-18.2,35.2c-1.5,1.4-3.2,3.6-5.6,2.2c-2.1-1.2-1.3-3.5-0.9-5.5c1.6-9.5,3.2-19,4.9-28.5c0.4-2.2,0.3-4.2-0.5-6.3
		c-2.8-7.3-1.1-18.9,8.1-24.6c2.2-1.4,3.1-3.5,3.9-5.6c14.7-34.6,37.8-62.4,67.6-85.1c6.3-4.8,12.8-9,20-12.2
		c1.4-0.6,2.2-1.5,1.8-3.1c-0.4-1.8-1.1-3.3-3.2-4.1c-7.5-2.6-7.4-2.7-2.8-8.7c2.2-2.9,1.3-7-2.3-9.4c-2-1.3-4.3-2.3-4.8-4.8
		c-0.7-3.7-2.1-3.6-5-1.7c-17.1,11.6-33.8,23.8-47.3,39.7c-1.4,1.7-1.9,3.5-2.6,5.6c-1.3,4.4-6.4,7.1-6.5,12.3
		c-12.1,3.7-13.9,15.6-18.5,24.7c-12,23.8-22.6,48.3-36.9,70.8c-8.7,13.7-18.6,26.4-29.9,38c-4.9,5-10.5,9.7-14,15.5
		c-2.8,4.5-5.4,8.7-9.6,11.9c-16.4,12.4-28.3,29.4-45,41.5c-16,11.6-33.1,15.3-52.9,14.3c-21.8-1.1-42.6-6.5-63.8-10
		c-5.9-1-11.5-3.5-17.3-4.7c-5.9-1.3-11.9-0.6-17.8,0.5c-2.9,0.5-5.8,1.4-8.8,2c-4,0.8-7.2,0.8-9-4.4c-1.5-4.4-6.7-4.2-10.4-4.3
		c-5.4-0.1-10.5-2.2-16.1-0.9c-2.1,0.5-2.6,1-3.1,2.7c-2.4,8.9-7.1,11.9-16.1,10.5c-1.6-0.3-3.3-0.5-5-0.3c-9.5,1-18.8,0.6-27.8-2.9
		c-3.7-1.4-4.4,0.9-5.2,3.3c-3.4,9.6-7.4,18.9-12.1,27.9c-11.5,21.7-26.9,40-45.6,55.7c-18.2,15.3-38.7,26.6-61.3,33.8
		c-51.8,16.4-101.4,11.4-149-14.8C66.6,768,42,743.4,23.8,712.2C7.8,684.6,0.3,654.5,0,622.9c-0.2-23.1,4.5-45.7,12.9-67.3
		c6-15.4,13.3-30.2,23.8-43.2C37.3,511.7,37.6,510.7,38.7,508.6z M260.6,660.4c8,6.3,17.3,6,26.6,6.1
		C279.5,658.7,270,659.9,260.6,660.4c-0.6-0.3-1.1-0.9-1.7-0.9c-7.2-1-14.5-0.3-21.6-1.8c-1.8-0.4-1.3,1.2-1,2.4
		c2.5,9.6,12.4,18.2,23.1,19.7c-1.4-4-3-7.8-2.7-12.2C256.9,664.5,256.9,661.4,260.6,660.4z M853.1,357.9c3.1-0.9,3.9-3.1,5.2-4.8
		c7.9-10.1,15.8-20.2,23.3-30.6c12.9-18,25.3-36.5,32.7-57.6c4.9-13.8,8.6-27.7,1.3-42.1c-2-4-4.7-6.9-7.7-10.2
		c-4.8-5.3-7.4-12.5-10.9-19c-0.3-0.6-0.4-1.8-0.1-2.4c1.8-2.9,0.2-5-1.4-7.3c-19.4-28.4-40-55.6-64.6-79.8
		c-15-14.7-30.4-28.7-47.1-41.4c-1.2-0.9-2.4-2.9-4.3-1.6c-1.4,1-0.7,2.8-0.4,4.2c3.2,15.5,6.5,31,9.7,46.5c0.7,3.6,2.6,4.8,6,4
		c1.6-0.4,3.2-0.8,4.9-1.1c2-0.4,3.7,0,4.8,1.9c3,5.2,0.6,10.7-5.4,11.8c-4,0.8-4.7,2.6-3.8,6.3c1.7,6.6,3,13.3,4.5,20
		c4,18.4,8.1,36.8,12.2,55.1c0.4,1.7,0.5,4.2,2.9,4c5.9-0.5,6,4.2,5.5,7.3c-1.5,8.9,5.6,15.5,5.4,23.9c12.3,18.6,15.7,40.5,22.9,61
		c1.2,3.5,0.8,7-2.9,9.1c-1.9,1.1-2.1,2.8-1.7,4.8C846.8,332.7,853.2,344.4,853.1,357.9z M878.7,426.3c2.2-4.7,5.1-6.3,9.9-4.7
		c2.4,0.8,4.9,1.9,7.8-0.5c17.7-15,34.7-30.5,49.1-48.9c20.1-25.7,26.6-53.3,16.3-84.8c-5.8-17.6-14.5-33.6-23.4-49.6
		c-5.3-9.5-11-18.8-16.6-28.1c1.4,6.1,2.7,12.1,2.8,18.2c0.2,7.5,1.7,14.8,3.2,22.1c5.7,27.6,3.1,54.4-8.6,80.1
		c-3.3,7.1-8,13.6-5,22.4c1.3,3.7-0.2,7.8-1.8,11.9c-1.6,4.3-0.6,9.5-0.9,14.3c-0.3,6.6-1.6,7.8-8.3,7.3c-1.8-0.1-3.4-0.3-4.3,1.6
		c-4.6,9.8-13,16.7-19.5,25.1C875,418.8,874.6,419.3,878.7,426.3z M821.1,675.9c0,0,0.7-0.1,1.3-0.3c24.9-5,49.9-10,74.8-14.9
		c2.9-0.6,4.6-2.2,6.1-4.6c3.6-5.8,7.2-11.6,11.3-17.1c2.4-3.2,2.3-5-1.4-6.8c-7-3.4-14-6.9-20.9-10.6c-3.1-1.7-5.8-1.5-9-0.3
		c-12.6,4.7-25.4,9.1-38,13.7c-10.6,3.9-21.2,7.9-31.8,11.8c-1.9,0.7-3.7,1.5-3.2,4.2c1.3,7.7,3.4,15.3,6.3,22.6
		C817.3,675.4,818.5,676.3,821.1,675.9z M947.3,686.9c-2.9-8.5-6.1-18.1-9.6-27.6c-0.8-2.2-2.7-1.3-4.2-0.5
		c-6.9,3.4-13.8,6.7-20.7,10c-2.4,1.2-3.7,3-4.6,5.5c-6.8,20.3-13.9,40.6-20.8,61c-1.2,3.6-3.1,7-3.9,10.8c-0.6,2.9-0.1,4.8,2.7,6.1
		c6.5,3.1,13,5.9,19.8,8.2c2.3,0.8,3.5-0.1,5.1-1.8c2.8-2.9,3.8-6.6,5.6-10c9.6-18.5,19.1-36.9,28.6-55.4
		C946.3,691.6,947.4,690.1,947.3,686.9z M972.1,659c-2.1-0.5-3.1,0.4-3.6,2.4c-0.5,2.3-1,4.6-1.7,6.8c-3.1,10-5.6,20,3.7,28.4
		c0.4,0.3,0.5,0.9,0.7,1.3c11.5,18.3,23,36.6,34.4,55c1.8,2.9,3.8,3.2,6.6,1.7c4.8-2.6,9.9-4.8,14.5-7.9c7.2-4.7,7.2-4.6,3.7-12.6
		c-0.1-0.3-0.3-0.6-0.4-0.9c-9.4-20.1-18.7-40.1-28.1-60.2c-0.8-1.8-1.5-3.9-3.5-4.7C989.6,665.2,980.9,662.1,972.1,659z M906.2,604
		c4.2-0.3,7.1-0.5,10.1-0.7c2.2-0.2,4.1-0.9,3.5-3.7c-1.2-5-1.2-10.2-4.5-14.6c-3.3-4.4-6-9.2-9-13.8c-3.5-5.3-7.2-10.2-13-13.4
		c-5.8-3.2-11.2-7.2-17-10.5c-9.6-5.6-18.3-12.8-28.3-17.8c-2.7-1.3-4.3-0.9-5.9,1.3c-3.2,4.3-6.5,8.5-9.5,12.9
		c-4.9,7.3-4.6,8.7,2.4,14.2c0.3,0.2,0.5,0.4,0.8,0.6c12.5,9.4,24.8,19.2,36.1,29.9C882,598,894.8,600.6,906.2,604z M1087.4,661.9
		c3.3,1,4.7-0.6,5.5-4.1c1.4-6,2.6-12,3.4-18.1c0.4-3.1-0.3-5-3.4-6.2c-6.3-2.4-12.9-3.2-19.4-4.7c-17.4-3.9-34.7-7.8-52-11.7
		c-2-0.4-3.9-1-5.8,0.2c-7,4.2-13.9,8.5-20.8,12.8c-2.6,1.6-2.8,3.3-0.8,5.6c3.6,4.3,7.1,8.8,10.6,13.2c1.9,2.4,4.3,3.6,7.2,3.9
		c6.8,0.7,13.5,1.4,20.3,2.3C1050.5,657.3,1068.8,659.5,1087.4,661.9z M204.6,409c0.6,3.4-2,8.6,5.1,9.3c31.6,3.2,60.4,14.3,86.7,32
		c4,2.7,7.2,2.9,10.5-0.7c2.1-2.4,4.3-2.8,6.9-0.6c1,0.8,2.3,1.4,3.6,1.6c8.3,1.4,16.1,4.3,23.7,7.7c6.5,2.9,11.5,0.6,16.8-2.5
		c1.7-1,2.3-2,0.2-3.2c-4.3-2.5-7.9-6-12.6-8c-21.6-9.2-43.5-17.8-64.5-28.2c-22.3-11-45.2-17.2-70-17c-4.7,0-7,1.3-6.4,6.2
		C204.7,406.5,204.6,407.6,204.6,409z M997.3,597.3c1.3,0,2.7-0.2,4,0c6.1,0.9,10.8-1.2,14.9-6c3.8-4.4,8.4-8.1,12.6-12.2
		c12.7-12.2,25.4-24.5,38.2-36.7c2.4-2.3,2.6-4.4,0.5-6.9c-3.4-3.9-6.5-8.1-10-11.8c-5.8-5.9-4.6-6.9-12.6-0.8
		c-16.6,12.7-32.3,26.8-49.1,39.3c-7.5,5.6-10.5,11.9-11,20.8C983.9,598.2,979.9,597.5,997.3,597.3z M931.7,523.2
		c-0.6,13.6,0.5,26.6-0.6,39.6c-0.2,1.9,0.7,3.2,1.9,4.4c4.8,4.8,9.7,9.6,14.4,14.6c1.8,1.9,2.8,1.5,4.3-0.4
		c3.9-5,7.7-10.1,12.1-14.6c4.7-4.8,5.2-10.2,4.5-16.5c-1.8-15.7-2.8-31.4-4.8-47.1c-0.8-6.7-0.1-13.6-2.4-20.2
		c-1.5-4.5-4.6-3.5-7.6-3.5c-3.6,0-3.6,2.7-3.6,5.3c0,4,0,8,0,12c0,3.1-0.6,6-4.3,6c-4,0-4.1-3.2-4-6.2c0.1-4.1,1.4-8.2,1-12.4
		c-0.1-1.7-0.3-3.2-2.4-3.8c-4.9-1.4-8.3,0.8-8.3,5.9C931.6,498.9,931.7,511.4,931.7,523.2z M59.3,586.4
		c-11.1-0.1-11.1-0.1-12.9,9.2c-0.3,1.8-0.4,3.7-1,5.4c-1.4,4.4,0.1,6.8,4.6,8.1c20.9,6,41.8,12.2,62.7,18.3c1.4,0.4,3,0.8,4.4,0.2
		c9.3-4.1,18.6-8.2,27.8-12.3c2.8-1.2,2.2-2.8,0.3-4.5c-2.7-2.4-5.7-4.7-8.1-7.4c-6.7-7.9-14.3-12.5-25.5-12.7
		C93.6,590.2,75.6,587.8,59.3,586.4z M124.4,640.4c-3.9-0.5-6.7,1.7-9.6,3.6c-14.6,9.9-29.3,19.5-43.7,29.7
		c-16.6,11.7-14.9,8-5,25.4c1.2,2.2,2.7,2.8,5.3,2c4-1.2,7.7-3,11.5-4.7c16.3-7.2,32.5-14.5,48.7-21.7c2-0.9,3.7-2.2,4.7-4.3
		c3.7-7.6,7.6-15.2,11.2-22.8c2.2-4.6,1.6-5.6-3.2-5.9C137.6,641.3,131,641.7,124.4,640.4z M923.9,252c-0.5,0.1-0.7,0.2-0.7,0.2
		c-5.9,24.7-18.7,46.1-33.1,66.6c-10.2,14.4-20.9,28.4-31.9,42.2c-1.4,1.7-3.7,3.3-2.9,6c2,6.5,4.3,12.9,6.5,19.4
		c0.6,1.7,1.6,3.1,3.7,1.5c3.9-3.1,7.8-6.3,11.6-9.5c1.4-1.2,1.7-2.6,0.3-4.3c-5.5-6.3-5.1-13,0.9-19.4c0.9-0.9,1.1-2,1.3-3.2
		c0.6-3.1,2.5-4.8,5.5-5.8c4.6-1.5,9.4-2.4,14.2-2.3c6.6,0.1,10.4-2.6,13.5-8.6c8.1-15.9,12.4-32.6,13.7-50.2
		C927.2,273.6,926.1,262.8,923.9,252z M178.4,693.7c-2.1-8-4.4-17.2-7-26.3c-0.7-2.6-2.6-1.3-4-0.3c-5.3,3.7-10.6,7.5-15.9,11.2
		c-2.3,1.6-3.4,4-4.2,6.6c-5.8,19.3-11.7,38.5-17.6,57.8c-3,9.9-2.6,10.7,7,14.2c11.3,4.1,11.5,4,16.7-7.1
		c7.8-16.7,15.7-33.5,23.6-50.2C177.7,698.1,178.5,696.7,178.4,693.7z M196.6,691.4c0.6,1.8,1.1,3.6,1.7,5.3
		c2.2,5.4,4.4,10.8,6.6,16.2c5.7,13.8,11.2,27.7,17,41.5c2.9,6.9,4.3,7.5,11.3,5.3c3.2-1,6.2-2.4,9.4-3.4c2.8-0.9,3.3-2.1,2.6-5.1
		c-4.8-21.4-11.7-42.3-17.1-63.5c-0.5-1.8-1.1-3.5-2.7-4.7c-6.5-4.6-13-9.2-19.5-13.9c-1.3-0.9-2.6-1.2-3.1,0.7
		C200.7,677,198.7,684.2,196.6,691.4z M346,519.3c1.6,3.7,2,8.7,7.5,7.9c17-2.4,33.9-4.7,50.9-7.1c2.9-0.4,3.9-1.7,3-4.8
		c-1.7-5.7-3.1-11.6-4.5-17.4c-0.5-2.2-1.5-3.9-3.6-5.1c-9.9-5.5-19.7-11.1-29.6-16.7c-3.2-1.8-6.2-2-9.3,0.1
		c-4.7,3.1-10.4,4.6-13.6,9.8c-0.5,0.8-1.9,1.3-3,1.6c-5.7,1.4-5.7,1.3-2.2,6.1c6.2,8.5,11.7,17.4,16.5,26.7
		c0.6,1.1,1.7,2.5,0.6,3.7c-1.3,1.4-2.8,0.4-4.1-0.3C351.8,522.3,348.9,520.8,346,519.3z M74.1,409c5.8,2.2,3.5,9.7,8.4,12.2
		c0.1,0.1,0.1,0.7-0.1,0.9c-2.7,3,0.3,3.1,1.9,3.6c6.7,2,13.5,3.4,20.6,3.6c4.4,0.1,8.8,2,13.3,0.3c10-3.7,20.3-6.4,30.7-8.9
		c2.5-0.6,3.8-1.8,4.1-4.2c0.5-3.3,1.1-6.6,1.4-9.9c0.5-4.1-1.3-5.6-5.5-5.3c-14.8,1.1-29.5,2-44.3,2.6
		C94.4,404.3,84.3,406.5,74.1,409z M1030.2,597.3c6.3,0.7,13.3,0,19.8-5.1c10.3-8.1,22.2-14,32.6-22c2.9-2.2,3-4.3,1.5-7.2
		c-2.8-5.1-5.7-10.1-8.2-15.4c-2-4.2-4.5-4.4-7.8-1.8c-1.3,1-2.6,2-3.9,3.1c-7.7,7.1-15.4,14.2-23,21.4c-8,7.6-15.4,15.6-23.7,22.8
		c-0.9,0.8-2.5,1.6-1.7,3.2c0.6,1.2,2,0.9,3.2,0.9C1022.2,597.4,1025.6,597.3,1030.2,597.3z M986.8,566.1c2-1.3,3.1-1.8,4-2.5
		c10-8,20.1-15.9,30.1-24c7.5-6.1,15-12.2,22.4-18.4c5.4-4.5,5.3-5.9-0.2-10.2c-4.1-3.1-8.5-5.9-12.5-9.1c-3.5-2.8-6.1-2.2-8.9,1
		c-8.2,9.6-16.6,19.1-24.8,28.7c-2.6,3-6.2,5.6-6.9,9.6C988.5,549.1,987.9,557,986.8,566.1z M1010.2,655.9
		c4.8,6.1,9.1,11.5,13.3,16.8c1.1,1.3,2.4,2.4,4,2.8c16.3,4.5,31.9,11.6,48.4,15.5c3,0.7,4.4,0,5.5-2.5c2.4-5.5,4.9-11,7-16.5
		c2.3-5.8,1.6-6.7-4.8-7.6c-19.6-2.6-39.2-5.3-58.8-7.6C1020.3,656.3,1015.7,655.1,1010.2,655.9z M963.2,689.5
		c-0.5,0.1-0.9,0.2-1.4,0.3c-1.4,7-5.4,13.7-3.3,21.2c2.1,7.2,4.8,14.2,7.2,21.3c3.4,9.7,6.8,19.4,10.1,29.2c1,3,2.9,4.1,6.1,3.2
		c5.1-1.5,10.3-2.5,15.4-4.2c6.9-2.3,7.4-3.7,3.8-10c-4.7-8.1-9.6-15.9-14.6-23.8C978.8,714.1,971,701.8,963.2,689.5z M1049.6,600.4
		c-4.6,0.1-8-0.4-11,1.7c-4.5,3.2-9.1,6.2-13.6,9.3c-0.9,0.6-2.4,1-2.1,2.5c0.3,1.3,1.8,1.2,2.9,1.5c7.1,1.7,14.2,3.4,21.3,5
		c13.1,3,26.2,6,39.4,8.8c2.2,0.5,4.6,0.2,6.9,0.5c3,0.4,3.7-1.1,3.9-3.7c0.4-6.3-0.8-12.6-1-18.9c-0.1-3.6-1.5-5.2-5.4-5.5
		C1076.8,600.8,1062.5,602.4,1049.6,600.4z M971.5,556.2c7.9-9,17.6-16.3,17.6-30.1c0.1-11.9,2.1-23.8,3.4-35.7c0.4-4-1-6.3-5.2-6.9
		c-3.9-0.6-7.8-1.6-11.8-2.2c-11.3-1.7-12.1-0.7-10.8,11c1.5,13.5,2.5,27.1,3.9,40.7C969.4,540.7,970.8,548.3,971.5,556.2z
		 M1003.4,670.2c5.4,11.7,10.4,22.3,15.3,33c4.9,10.7,9.6,21.6,15.3,32c2,3.6,3.8,4.4,7.3,1.5c4.7-3.9,9.4-7.9,13.8-12.3
		c2.3-2.3,2.6-4.2,0.5-6.9c-9-11.4-18-22.7-26.5-34.4c-4-5.6-9.2-8.3-15.5-9.9C1010.6,672.6,1007.6,671.5,1003.4,670.2z
		 M867.4,610.3c-17.7,1.8-34.8,3.5-52.1,4.7c-7.7,0.5-7.7,1.2-7.6,8.9c0,3.6,0.1,7.3,0.6,10.9c1.3,10,1.6,10.3,11.5,6.9
		c12.7-4.4,25.4-9,38-13.6c7.7-2.8,15.3-5.5,23-8.3c1.2-0.5,4.3-1.3,1.5-2.9C877.4,614.3,872.7,610.9,867.4,610.3z M906,673.8
		c-0.3-0.3-0.6-0.7-0.9-1c-6,2.9-13.1,3.9-17,10.7c-2.6,4.6-5.6,9-8.6,13.4c-7,10.5-13.9,21-21,31.5c-1.9,2.8-1.5,4.7,1.2,6.6
		c4.4,3,8.5,6.4,12.9,9.4c6.5,4.4,7.5,4.2,10.1-3.2C890.6,718.7,898.3,696.2,906,673.8z M949,692.9c-0.9,1.2-1.4,1.7-1.7,2.3
		c-8.8,16.8-17.7,33.6-26.5,50.4c-2,3.8-4,7.7-5.6,11.7c-1.2,3-1.3,5.9,3.2,6.5c4.1,0.6,8.2,1.7,12.3,2.3c11,1.7,11.1,1.7,13.6-9.2
		c2.9-12.5,4.8-25.2,8.5-37.5C955.5,710,952.9,702,949,692.9z M897.7,664.6c-1.3-1-2.1-0.6-2.9-0.4c-16.5,3.2-33,6.2-49.4,9.7
		c-7.3,1.5-14.8,2.4-21.8,5.1c-3.1,1.2-4.1,3.1-2.5,6.2c2.3,4.4,4.4,8.9,6.9,13.3c3.9,6.8,4.8,7.1,11.7,3.4
		c14.6-7.9,29.5-15.3,44.7-22.1C891.7,676.4,893.9,670.1,897.7,664.6z M414.9,544.9c-2.7,0.9-3.9,2.9-4.9,4.6
		c-4.1,7.4-10.1,9.1-17.6,6.1c-8.8-3.5-16.9,0.3-25.1,2c-2.6,0.5-2.2,2.4-1.6,4.3c1.2,4.1,2.3,8.3,3.6,12.5c1.3,4,1.5,8.6,6.6,10.3
		c1.6,0.5,1.9,2.7,1.7,4.4c-0.3,2.5,0.9,2.7,2.9,2.5c4.1-0.6,8.3-0.8,12.4-1.6c3.6-0.6,4.8,0.4,4.4,4.1c-0.9,8-0.7,8,1.3,12.4
		c0.9-20,5.3-38.7,18.2-55.9c-3.6,1.3-3.9,4.2-6.4,4.4C409.9,550.9,414.9,549.3,414.9,544.9z M195.3,697.2
		c-1.6,5.1-2.7,8.9-4.1,12.7c-2.8,7.5-2.9,14.7-0.1,22.3c2.7,7.3,4.4,15,6.2,22.6c2.8,11.4,3.6,12.1,15.2,10
		c9.8-1.8,10.3-2.8,6.4-12.4c-4.9-11.8-9.6-23.7-14.7-35.5C201.5,710.8,199.5,704.3,195.3,697.2z M244.2,675.8
		c-0.3,0.3-0.5,0.6-0.8,0.9c2.8,6.6,5.6,13.1,8.3,19.7c0.9,2.1,2.3,3.6,4.1,4.9c7.8,5.4,15.5,10.9,23.4,16.2c13.9,9.4,11,8,20.6-3.2
		c4.6-5.4,4.2-6.7-2.4-10.3c-9.2-5-18.4-10.1-27.6-15C261.3,684.6,252.8,680.2,244.2,675.8z M145.2,682.9
		c-6.8,4.8-12.5,8.8-18.1,12.9c-0.7,0.5-1.1,1.6-1.5,2.5c-4.6,9.7-9.5,19.4-13.9,29.3c-7,15.9-8.1,11.5,6.4,20.7
		c5.1,3.3,6.8,2.6,8.7-3.2c4-12.3,8.1-24.6,11.5-37.1C140.4,700.2,144,692.8,145.2,682.9z M231.6,687.2c-0.9,1.7-0.3,2.7-0.1,3.6
		c2.9,10.7,5.8,21.5,8.8,32.2c2.3,8.2,4.7,16.3,7.1,24.4c1.2,4.1,3.6,5.8,7.8,3.2c3-1.9,6-3.5,9.2-5.1c3.1-1.6,3.9-3.6,2.4-6.9
		c-5.2-11.9-10.1-23.9-15.2-35.8c-0.4-1-1.2-2.1-2.1-2.8C243.8,695.8,237.8,691.6,231.6,687.2z M905.4,512.4
		c2.1,25.3,10.5,43.1,23.2,48.6c0-1.8,0-3.5,0-5.1c0-21.6,0.1-43.3,0.1-64.9c0-2-0.1-4-0.3-6c-0.1-1.2-0.4-2.3-1.7-2.8
		c-1.6-0.6-11,2.1-11.1,3.3c-0.3,3.7,2.4,6,4.6,8.4c0.5,0.6,1.5,0.6,2.3,1c3.8,2,4.1,5,2.3,8.4c-0.7,1.3-1.6,2.5-2.6,3.7
		C918.6,511.4,909.5,514.5,905.4,512.4z M253.4,577.1c6.9-1.4,14.4,0.2,19.8-4.6c9.9-8.7,19.3-17.8,28.7-27.1
		c5.4-5.3,5.2-5.6,0.7-11.5c-1.8-2.4-4-4.5-5.7-6.9c-2.7-3.9-4.7-3.1-7.1,0.2c-9,12.4-18.2,24.6-27.3,37
		C259.4,568.5,256.4,572.8,253.4,577.1z M115.5,640.6c-5.8-0.8-10.6-1.4-15.4-2c-2.6-0.3-4.9,0.3-7.3,1.4
		c-10.6,4.8-21.4,9.2-31.9,14.3c-13.9,6.8-12.9,4.8-8,18.5c2.4,6.7,4.1,7.4,10,3.4C80.2,664.6,97.4,652.9,115.5,640.6z M180.4,701.7
		c-0.5,0-0.9,0-1.4-0.1c-5.3,10.9-10.7,21.8-15.8,32.7c-3.4,7.1-6.5,14.2-9.7,21.4c-1.5,3.4-2.1,6.5,3.1,7.2
		c3.6,0.5,7.2,1.5,10.7,2.2c3.4,0.6,5.6-0.2,6.7-4c3-10.7,6.4-21.3,9.5-32c0.7-2.4,2.4-4.6,1.8-7.2
		C183.7,715.1,182,708.4,180.4,701.7z M112.3,588.3c2.2,0,3.8,0.1,5.5,0c1.7-0.1,2.1-1.2,0.9-2.3c-3.7-3.4-6.6-7.8-12-9.3
		c-12.4-3.4-24.5-7.6-36.9-10.9c-14.1-3.7-12.3-6.2-17.8,8.8c-2.6,7.1-2.7,7.1,4.7,8.8c1,0.2,1.9,0.5,2.9,0.6
		C77.4,585.5,95.1,586.9,112.3,588.3z M132.1,679.3c-1.2-2.5-2.7-1-3.9-0.4c-12.9,5.7-25.9,11.4-38.8,17.3c-5,2.3-10.1,4.3-14.7,7.4
		c-2.8,1.9-3.4,3.7-1,6.4c2.3,2.6,4.5,5.4,6.6,8.2c2,2.7,3.9,3.4,7.1,1.4c12.4-7.8,24.2-16.5,36.1-25.1
		C128.2,691.1,129.3,684.6,132.1,679.3z M286.8,524.4c-0.6,0.1-1.3,0.1-1.7,0.5c-24.2,17.6-45.5,38.4-67.1,58.9
		c-0.7,0.7-1.6,1.5-1,2.6c0.8,1.3,2.1,0.6,3.1,0.3c8.4-2.1,16.8-4.3,25.1-6.4c2.4-0.6,4.1-2,5.5-4c11.7-16.2,23.4-32.3,35.2-48.5
		C286.5,526.9,287.5,526.1,286.8,524.4z M155.4,552.1c0.6-0.5,1.2-0.9,1.8-1.4c0.8-6,0.5-11.8-3-17.1c-7.7-11.6-15.3-23.3-23-35
		c-4.5-6.8-5-6.9-12.3-3c-1.5,0.8-3,1.5-4.4,2.4c-6.7,3.8-6.9,4.8-1.3,10.4c6.9,7,14,13.7,20.8,20.8
		C141.3,536.7,148.3,544.5,155.4,552.1z M238.9,609.6c1.7,0,2.2,0,2.7,0c15.9-1.8,31.6-4.8,47.6-5.8c9.7-0.6,19.3-0.2,29-0.6
		c1.9-0.1,4.7,0.6,4.9-2c0.4-4.4,2.9-7.6,5.9-11.8c-3.3,0-5.8-0.2-8.2,0c-21.9,2-43.7,4-65.6,6c-1.1,0.1-2.4,0.5-3.2,1.3
		C247.8,600.8,243.8,604.9,238.9,609.6z M210.1,548.3c5.1-7.3,10.2-13.4,10.6-22.3c0.5-10.8,2-21.5,3.4-32.2
		c1.4-10.6,1.2-11.1-9.2-13c-0.2,0-0.3-0.1-0.5-0.1c-7.1-1.2-6.6-1.1-8.1,5.7c-1.6,7.3-2.1,14.4-0.7,21.7c0.8,4.4,0.6,9,1.2,13.4
		C208.1,530.2,207.4,539.1,210.1,548.3z M48.5,611.7c-3.7-0.5-4.9,1.4-4.8,4.7c0.1,3.7,0.1,7.3,0,11c-0.1,3.3,1.4,4.9,4.7,5.1
		c13.1,0.9,26.2,1.5,39.2,3c6.8,0.8,12.8-0.1,18.7-3.2c1.2-0.7,3.4-0.7,3.1-2.6c-0.2-1.5-2.1-1.3-3.3-1.7c-12-3.5-23.9-7-35.9-10.5
		C63,615.5,55.7,613.6,48.5,611.7z M83.3,524c-1,0.1-1.9,0.9-2.6,1.8c-2,2.4-3.9,5-6,7.3c-2.4,2.6-2.6,4.6,0.1,7.5
		c10.3,11.1,22.2,20.5,32.8,31.3c3.7,3.8,7.8,6.1,12.9,6.6c1.1,0.1,2.4,1.1,3.1-0.3c0.6-1-0.4-1.9-0.9-2.7
		c-4.4-6.6-8.8-13.3-13.3-19.9c-7-10.4-13.6-21.3-23.2-29.7C85.4,525.2,84.8,524.2,83.3,524z M162.3,586.9c-1.3-5.2-1.3-11.1-7-15.6
		c-14.2-11.3-27.9-23.2-41.2-35.6c-6.4-6-13-11.9-19.5-17.9c-1.2-1.1-2.4-2.7-4.3-1.3c-1.8,1.4-1.5,3.1-0.6,4.9
		c1,2.1,2.2,4.1,3.9,5.8c20.1,19.7,40.2,39.3,60.4,59c1.5,1.5,3.1,3,5.2,3.8C161.5,590.9,162.7,590.1,162.3,586.9z M159.5,569.3
		c0.9-7.4-0.9-13.3-6.7-18.3c-6.7-5.7-12.6-12.4-18.9-18.5c-8.5-8.2-16.9-16.5-25.5-24.6c-3.6-3.4-6.3-2.7-10.9,2
		c-3.4,3.5,0.2,5.1,2,6.8c15,14.1,30.2,28.1,46.1,41.2C150.2,561.7,154.2,566.2,159.5,569.3z M884.6,683.2
		c-15.3,6.1-29.9,13.3-44.2,21c-1.1,0.6-2,1.8-3.1,2.5c-2.1,1.4-1.9,2.8-0.5,4.5c4.4,5,8.8,9.9,13.1,15c2.3,2.8,4.3,2.5,6.4-0.2
		C867.1,712.7,875.9,698.1,884.6,683.2z M955.9,715.9c-1.6,6.8-3.2,13.5-4.7,20.3c-1.9,8.3-3.8,16.5-5.3,24.9
		c-1,5.2,0.2,6.3,5.3,6.4c5.2,0,10.3,0,15.4-0.8c6.2-0.9,7.1-1.8,5.2-8C967.5,744.1,962.3,730,955.9,715.9z M317,687.7
		c-0.4-0.5-0.7-1.3-1.3-1.8c-5.1-4.4-9.5-9-17.7-7.8c-9.2,1.3-18.9-0.5-27.9,3.4c-1.3,0.6-3.3,0.7-3.4,2.5c-0.1,1.5,1.7,1.8,2.8,2.5
		c9.5,5.1,19,10.2,28.6,15.2c8.7,4.5,8.8,4.4,14-4.3C313.9,694.3,315.9,691.4,317,687.7z M873.9,594.1c0.1-0.3,0.3-0.5,0.4-0.8
		c-9.3-7.8-18.4-15.7-27.8-23.3c-5.7-4.6-11.1-9.6-17.3-13.4c-2.6-1.6-4.2-1.3-5.4,1.6c-2.1,4.9-4.2,9.8-6.4,14.6
		c-1.7,3.5-0.1,4.7,3.1,5.6c5.9,1.6,11.9,3.3,17.8,5.1C850,586.9,861.9,590.5,873.9,594.1z M864.1,608.2
		c-15.7-9.8-31.5-15.2-47.9-19.3c-2.6-0.6-4,0-4.7,2.8c-1.2,4.5-2.2,9.1-2.7,13.7c-0.6,6.3,0,7.3,6.3,6.9
		C831,611.2,846.9,609.7,864.1,608.2z M895.2,555.5c-9.2-14.9-18.3-29.7-25.1-45.8c-1.2-2.8-3.1-2.5-5.1-0.8
		c-4.6,3.9-9,7.8-13.7,11.5c-3.4,2.7-3.3,4.8,0.1,7.3C865.3,537.9,880.4,546.3,895.2,555.5z M258.8,591.2c0.6,0.8,1.2,0.7,1.9,0.6
		c14.9-1.2,29.8-2.2,44.7-3.7c6.3-0.6,12.6-0.8,18.8-2.4c2.6-0.7,4-2.1,2.6-4.6c-2-3.8-0.3-11.3-6.2-10.9
		c-6.4,0.5-12.9,3.1-19.4,4.7c-8.6,2.1-17.1,4.3-25.6,6.5C268.9,583.1,262.3,584.6,258.8,591.2z M1030.1,678.9c-0.3,0.3-0.6,0.7-1,1
		c3.9,4.9,7.6,9.9,11.6,14.7c5.6,7,10.7,14.4,17.2,20.7c2.3,2.2,4.1,2.4,6.1-0.4c3.4-4.7,6.8-9.4,10.4-14c2.7-3.5,1.7-5.5-2.1-7.1
		C1058.6,687.6,1044.1,684.1,1030.1,678.9z M990.9,534.2c5.2-5.8,9.9-10.9,14.4-16.2c4.8-5.7,9.4-11.5,14.1-17.4
		c2-2.5,1.8-4.2-1.4-5.7c-4.6-2.2-9.3-4.4-14.1-6.2c-7.1-2.7-8.4-2-9.3,5.4c-1.1,9.4-2.1,18.8-3.1,28.2
		C991.2,525.9,990,529.5,990.9,534.2z M1046.8,596.6c0.2,0.4,0.3,0.8,0.5,1.1c2.8,0,5.6-0.2,8.4,0c11.3,1.1,22.6,0.5,33.8,0.6
		c4.3,0,5.5-2.1,4.5-6.1c-1.3-5-2.3-10-4.2-14.8c-2.1-5.4-2.9-6.1-7.8-3.1C1070.1,581.5,1058.5,589.1,1046.8,596.6z M612.2,605.7
		c-0.9-1.5-2-1-2.9-1c-9.6,0-19.3-0.1-28.9,0.1c-3,0.1-5.4-0.5-6.4-3.5c-0.8-2.6-2.7-2.7-4.7-2.5c-4.6,0.5-9.2,1.2-13.8,1.8
		c-2.2,0.3-3.5,1.5-3.9,3.9c-0.6,4.1-1.5,8.2-2,12.3c-0.2,1.4-2.2,3.4,0.3,4.3c1.9,0.7,4,0.3,5.6-1.2c1.8-1.6,3.1-3.4,3.2-6
		c0.1-1.7,0.2-3.3,2-4.2c3.6-1.8,11,0.2,13.3,3.6c1.5,2.3,3.2,4.4,6.4,3.7C591.4,614.3,602,610.7,612.2,605.7z M106.3,573.6
		c-7.3-6.9-14-13.2-20.8-19.5c-3.4-3.2-6.7-6.4-10.3-9.4c-4.8-4.1-6.3-3.8-9.7,1.5c-1.6,2.5-3,5.2-4.6,7.7c-2.1,3.3-1.5,5.3,2.2,6.9
		c9.5,4.1,19.5,6.4,29.4,9.4C96.6,571.4,100.6,573.7,106.3,573.6z M575.2,684.9c20.9-2.5,38.4-12.1,55.3-25.7
		c-4.9-0.8-8.7-0.8-12.3-2.1c-4.1-1.4-7.8,0-10.7,2.5c-6,5.1-12.6,9.2-19.1,13.5C583.5,676.4,578.3,679.3,575.2,684.9z M221.1,548.5
		c-0.3,0.8-0.8,2,0.4,2.5c0.9,0.4,1.6-0.4,2.1-0.9c8.9-8.2,18.8-15.4,27.1-24.3c2.1-2.2,1.4-4.8-0.8-5.1c-4.2-0.6-5.6-3.9-7.8-6.4
		c-2-2.3-3.4-2.8-5.2,0.3c-1.4,2.5-3.3,4.6-4.8,7C226.6,529.8,219.1,537.1,221.1,548.5z M90.2,639.1c-9.7-2.4-18.4-1.4-26.9-2.6
		c-4.7-0.7-9.5-1.5-14.4-0.6c-3.3,0.6-4.6,2.2-4,5.5c0.7,3.6,1.3,7.2,1.9,10.8c0.5,2.9,1.9,3.9,4.9,3.2c4.6-1,8.7-3.2,13-5
		C73,647,81,643.2,90.2,639.1z M121.8,700.7c-0.3-0.2-0.7-0.5-1-0.7c-5.6,3.8-11.2,7.6-16.8,11.5c-4.7,3.4-9.4,6.9-14.1,10.3
		c-2.9,2.1-2.7,4.1,0.1,6.3c2.6,2,5,4.4,7.6,6.4c4.2,3.4,5.8,3.3,8.2-1.3C111.3,722.5,116.5,711.6,121.8,700.7z M279,572.4
		c10.1-2.5,20.3-4.8,30.4-7.5c10-2.6,10.3-3.5,5.3-12.3c-0.9-1.6-1.8-3.2-2.7-4.8c-1.9-3.7-4.1-4.3-7.2-1.3
		c-8.5,8.1-17.2,16.2-25.8,24.3C278.6,571.2,278.1,571.8,279,572.4z M224.2,528.3c4.3-6.1,8.7-12.1,12.7-18.3c1.2-1.8,2-4.7,1.4-6.6
		c-1.2-4,0.8-5.6,3.4-7.8c5.1-4.3,4.8-5.3-1.2-7.6c-2-0.8-4.1-1.3-6.1-2.2c-3.5-1.6-5.4-1-6.2,3.1
		C225.5,501.8,225.1,514.9,224.2,528.3z M186.2,727.6c-3.1,11.5-7.2,21.8-8.8,32.8c-0.8,5.9-0.3,6,6.3,6c2.5,0,5-0.2,7.5,0.1
		c4,0.4,5.1-1.5,4.4-5c-1.2-5.7-2-11.5-3.8-17C190.1,739.2,189.9,733.4,186.2,727.6z M256.9,705.2c-0.4,0.7-0.6,0.9-0.6,0.9
		c4,10.5,7.9,21.1,13.5,30.9c1.5,2.6,3.2,3.1,5.5,1c3-2.7,6-5.2,9.1-7.8c1.8-1.5,2-3,0.3-4.6C276.4,717.5,266.4,711.8,256.9,705.2z
		 M294.5,642.2c0.6,2.2,2.3,2.8,3.7,3.5c6.3,3.3,12.6,6.6,19.1,9.7c8.8,4.2,11.5,2.8,13.3-6.5c1.8-9.4,1.6-9-7.9-9.6
		C313.2,638.7,304.3,643.2,294.5,642.2z M373,657.7c-0.2,1.9-0.1,2.8,2.6,2.7c4.5-0.2,9.1,0.1,13.5,1.1c3.8,0.9,6.3,0.3,7.4-3.4
		c1-3.3,3.7-7.5-2.7-8.8c-1.6-0.3-2.6-1.4-2.8-3.1c-0.2-1.8-1.1-2.7-2.8-3c-3.4-0.7-6.8-1.4-10.2-2.1c-1.8-0.3-2.8,0.5-3.1,2.3
		C374.3,648.2,373.6,652.9,373,657.7z M551.2,685.6c-5.7-3.7-10.5-8.2-15.1-12.9c-1.9-1.9-2.8-1.8-3.5,1.1c-0.8,3.2-3.3,3.6-5,1
		c-2.3-3.5-3.5-2.3-5.6,0.1c-2.2,2.5-5,1.9-5.3-1.3c-0.5-6.1-4.7-5.5-8.3-4.6c-4.7,1.2-9.1,3.4-13.6,5.2
		C513.4,680,532.2,682.8,551.2,685.6z M262.6,645.6c6.8,3.6,10.6,9.4,18.6,9.4c4.3,0,9,0.4,13.5,0.8c5.2,0.4,10.8,2.3,16.5,0.1
		C293.1,643.5,280.6,640.8,262.6,645.6z M390.5,460.9c-6.2,2.6-12.5,5.7-18.5,9.3c-1.2,0.7-0.3,1.7,0.7,2.3c8,4.5,15.9,9,23.9,13.4
		c1.4,0.8,2.9,0.9,2.3-1.4c-1.7-7.1-3.5-14.2-5.4-21.3C393.3,461.9,392.4,460.8,390.5,460.9z M150.7,523.7c0.5-1.1,0.7-1.5,0.7-1.7
		c-2.5-11.4-4.5-22.8-5.7-34.4c-0.2-2.2-1.3-2.9-3.4-2c-1.5,0.6-3.2,1-4.7,1.6c-7.5,2.7-8,3.8-3.8,10.5
		C139,506.3,144.7,514.7,150.7,523.7z M518.8,589.9c-9,0.5-17.2,1-25.5-0.1c-6.9-1-7.8,0-6.9,7c0.2,2,0.3,4,0.3,6
		c0.1,3.2,1.3,4.6,4.7,3.5c4-1.2,8-2.2,12-3.2c2.8-0.7,4.4-2.2,3.8-5.4c-0.8-3.8,1.4-5.1,4.7-5.3
		C514.2,592.2,516.5,592.5,518.8,589.9z M154.5,611.2c-0.4,1.7-0.6,2.5-0.8,3.3c-0.6,1.8-0.1,3.3,1.2,4.5c0.5,0.5,1.3,0.7,1.8,0.1
		c1.1-1.5,2.2-3.7,1.4-5c-3.3-5.3,0.2-6.4,4.1-7.4c1.1-0.3,2.3-1,2.2-2.3c-0.3-2.6-6.9-9.3-9.8-9.7c-4.3-0.6-8.6-0.8-12.9-1.1
		c-2.8-0.2-3.8,0.7-1.9,3.4c2.5,3.7,4.9,7.5,7.3,11.2C148.7,610.7,150.2,613.4,154.5,611.2z M1036.2,601.2c-6-1.6-11.1-1.1-16.1-1.8
		c-7.7-1.2-12.5,2.7-17.1,7.7c-0.8,0.9-2.6,2.3-0.4,3c5,1.5,10.6,4.3,15.4,2.4C1024.2,610,1029.7,605.4,1036.2,601.2z M879,145.7
		c-10.1-18-47.3-59-57.1-63.4C839.2,104.2,858,125.4,879,145.7z M320.9,455.8c-4.2-0.6-6.4,0.4-7.8,2.7c-0.7,1.2-0.6,2.8,0.6,3.6
		c3.4,2.5,5.8,6.1,9,8.9c3.5,3,5.2,1.8,7.3-0.4c2.6-2.7,5-5.3,9.2-5.1c1,0,2.4-0.8,2.4-2.1c0-1.2-1.2-1.5-2.1-1.9
		C333,458.8,326.3,456.9,320.9,455.8z M986.5,543.6c-3.4,3.9-5.8,7.5-9.1,10.2c-7,5.8-6,13.1-4.7,20.6c0.2,1.2,0.6,2.8,2.1,1.8
		c3.5-2.4,8.5-4.1,9.3-8.6C985.3,560.1,987.2,552.4,986.5,543.6z M406,530.2c-1.1-0.3-1.8-0.6-2.3-0.5c-7.1,1-14.2,1.9-21.2,3.1
		c-3.8,0.7-5.9,4.1-8.3,6.8c-0.8,0.9-0.7,2.1,0.5,2.4c5.6,1.2,11.7,3.4,17,0.9C397.3,540.3,401.6,535.3,406,530.2z M107.6,545.9
		c-0.4,0.4-0.7,0.7-1.1,1.1c5.6,8.4,11.8,16.5,16.6,25.4c5.2,9.6,13.7,11.8,21.6,13.2C132.8,572.7,120.2,559.3,107.6,545.9z
		 M225.6,666.9c-0.4,15.3,10.6,21.9,23.1,28.9C243.1,683.4,241.5,669.5,225.6,666.9z M482.9,555.7c0.9,4.6,0.5,10.2,3.6,14.8
		c0.8,1.2,1.6,3.1,3.4,1.9c4.4-2.9,9.2-5.5,11.6-10.6c0.8-1.7,1.3-3.6-1.2-4.5c-4.5-1.7-9-3.5-13.5-5.1
		C484.2,551.1,482.6,552,482.9,555.7z M156.6,627.4c0.8-3.6-2.8-4.3-4.4-6.2c-1.7-2-3.3,0.2-4.7,1.1c-4.1,2.6-8,5.3-12,8
		c-1.8,1.2-3.1,2.6,0,3.7c4.5,1.6,9.1,3.1,13.7,4.5c2.1,0.7,3.7-0.5,4.5-2.2C154.9,633.4,155.7,630.3,156.6,627.4z M187.5,676.3
		c-1.8-4.4-3.5-8.7-5.4-12.9c-0.7-1.7-1-4.6-3.7-3.7c-2.4,0.8-5.3,2.4-4.6,5.7c1.7,7.6,3.8,15.1,5.7,22.7c0.4,1.6,1.6,1.9,2.4,0.5
		C184.2,684.6,186.3,680.6,187.5,676.3z M990.7,629.6c0.9-0.5,1.9-0.9,2.9-1.5c4.4-2.7,8.9-5.2,13.1-8.1c2-1.3,5.9-1.6,5.3-4.2
		c-0.5-2.2-4.3-2-6.6-2c-3-0.1-6-2.9-9-0.3c-3.1,2.7-6.1,5.6-9.2,8.4c-1.3,1.2-1.3,2.7-0.5,4.1C987.6,627.4,988.4,629.1,990.7,629.6
		z M193.6,694.2c-0.2-4.8-2.2-8.1-3.6-11.6c-0.5-1.2-1.7-1.3-2.2-0.1c-1.9,5-6.2,9.5-5.6,15.1c0.5,5.1,2.4,10,3.7,15
		c0.2,0.6,0.6,1.3,1.1,1.5c0.7,0.3,1.2-0.3,1.4-1C190.2,706.5,192,700,193.6,694.2z M969.2,565.7c-0.4-0.2-0.8-0.3-1.3-0.5
		c-5,6.2-10,12.4-14.9,18.6c-1.4,1.7-1.1,3.3,0.5,4.8c1.7,1.5,3.5,2.1,5.4,0.7c3.3-2.5,6.5-5.2,9.7-7.8c0.8-0.7,1.3-1.5,1.3-2.6
		C969.7,574.6,969.5,570.1,969.2,565.7z M170.9,517.4c2.5-10.8,1.6-21.8,1.4-32.7c-0.1-2.5-0.3-5.3-4-5c-3.4,0.3-3.7,2.8-3.5,5.5
		C165.6,496.1,167.4,506.9,170.9,517.4z M225,679.5c-1-10.6-3.6-18.4-13.5-21.2c-1.7-0.5-3.7-2.7-5.1,0.1c-1.1,2.3-2.9,5.2-0.2,7.3
		C212,670.4,218.1,674.5,225,679.5z M916.9,657.2c5.5-1.2,10.5-2.2,15.5-3.3c2.4-0.5,2.5-1.7,0.9-3.4c-3.5-3.8-6.9-7.6-9.7-11.9
		c-1.1-1.8-2.4-1.8-3.1,0.3c-1.9,5.1-3.8,10.3-5.6,15.4C914.1,656.5,915,657.5,916.9,657.2z M268.3,653.6c-3.4-3.4-6.8-7.4-11.3-7.7
		c-7.5-0.6-15.2,0.3-22.8,0.7c-1.2,0.1-2.4,0.8-2.6,2c-0.2,1.8,1.5,1.8,2.6,2.4c3.1,1.9,6.6,0.1,9.7,0.9
		C251.9,654.1,260.1,653,268.3,653.6z M975.4,650.6c-1.7,0.1-4.2,1.2-4.8,3.7c-0.5,2.3,2.4,2.3,4,2.9c6.2,2.4,12.4,4.7,18.6,6.9
		c1.3,0.5,2.9,1.7,3.8-0.4c0.7-1.6-4.5-10.8-6.4-11.1C986,651.9,981.2,651.4,975.4,650.6z M138.6,671c7.6-2.4,13.5-4.6,14.8-12.6
		c0.6-3.7,2.2-7.3,3.3-11c0.5-1.5,1.8-3.1-0.6-4.2c-2-0.9-3.7-0.3-4.6,1.6C147.3,653.2,143.2,661.6,138.6,671z M1020.4,673.1
		c-4.7-6.6-8.5-12.4-13.5-17.2c-2.2-2.1-5.5-2.2-8.5-2.3c-1.9-0.1-2.2,0.8-1.6,2.6c2.7,7.1,6.1,13.3,14.7,14.3
		C1014.2,670.8,1016.7,671.9,1020.4,673.1z M887.2,604c-22.6-8.6-45.8-15.5-69.3-21.6C839.9,593.1,863.9,597.3,887.2,604z
		 M354.1,131.3c-1.1-1.7-2.7-0.9-4-0.7c-7,1.2-14,2.6-21,3.9c-2,0.4-3.9,0.9-3.5,3.7c0.4,3.1,2.5,3,4.8,2.9
		C339.6,141,347.5,137.9,354.1,131.3z M983.4,573.6c-10,5-12.6,11.3-9.3,20.7c0.6,1.7,1.6,2.8,3.5,2.9c1.6,0,3.3-0.2,3.5-2
		C982.1,588.2,983.6,581.1,983.4,573.6z M514,584.4c6,0.6,6.2-1.6,4.6-4.9c-0.5-1-1-2.2-1.1-3.3c-0.4-4.4-2.9-4.2-5.9-2.8
		c-4.4,2.1-6.8,6.2-10,9.6c-1.3,1.3-0.6,2.4,1.1,2.7c5,0.9,9.9,0.9,14.9,0C517,585.5,516.3,585.2,514,584.4z M872.1,407
		c0.5,0.1,1,0.1,1.6,0.2c-2.2-7.7,2.1-12.7,6.4-17.6c0.7-0.8,1.2-1.6,1.8-2.4c0.8-1.3,1.8-2.6,0.3-4c-1.5-1.5-3-1-4.5,0.2
		c-3.4,2.7-6.7,5.4-10.1,8.1c-1.2,0.9-1.7,1.9-1,3.4C868.6,398.9,870.3,403,872.1,407z M1006.4,599.5c-7.2,0-13.3,0-19.4,0
		c-2.1,0-4,0.3-4.3,3c-0.3,2.8,1.3,3.8,3.6,4.4C998.1,609.9,996.9,610.3,1006.4,599.5z M954.9,657.6c0,0,0-0.1,0-0.1c-1,0-2,0-3,0
		c-5.1,0-5.4,0.6-2.9,4.9c1.4,2.4,2.9,4.8,4.3,7.3c1.8,3.2,3.4,2.6,4.9-0.2c1.2-2.2,2.4-4.3,3.5-6.5c0.9-1.7,3.1-3.4,1.8-5.2
		c-1.1-1.5-3.4,0.1-5.1,0C957.2,657.5,956,657.6,954.9,657.6z M949.2,684.8c5-5.4,6.3-10.2,1.2-15.3c-1-1-1.5-2.6-2.3-3.8
		c-2.4-3.2-3.9-7-7.5-9.5C942.1,666,946.5,674.8,949.2,684.8z M798.7,515.8c-4.9,4.5-8.1,10.3-11.7,15.8
		c-5.9,9.1-10.6,18.9-14.3,29.1c-0.4,1.2-1.4,2.9,0.1,3.6c2,0.9,2.2-1.3,2.7-2.6c1.6-3.8,3-7.8,4.7-11.6
		C785.6,538.3,792,527,798.7,515.8z M149.1,670.6c-11.6,1.3-15.6,9.3-18.3,18.7C137.2,683.5,147.9,682.2,149.1,670.6z M541.7,671.3
		c4.6,5.6,10.3,9.1,17.3,10.6C560.2,669.7,553.9,667.1,541.7,671.3z M275,137.7c4.4,6.7,10.2,8.7,17.5,7.2c1.9-0.4,4-0.4,5.9-0.6
		c1.8-0.2,4.1,0.1,3.8-2.7c-0.2-2.3-2.3-2.1-3.9-2C290.7,139.9,283.1,138.8,275,137.7z M195.4,687.2c2.6-6.6,3.8-13.3,5.5-19.8
		c0.4-1.6-0.6-2.5-1.9-3.1c-1.7-0.7-2.5,0.4-3.2,1.6C191.8,672.6,188.3,679.4,195.4,687.2z M286.3,661.3c3.8,3.9,7.7,5.4,12.5,5.1
		c4.6-0.3,9.3-0.1,14-0.2c10.1-0.2,10.1-0.2,12.2-2.4C312.2,663,299.6,662.1,286.3,661.3z M154.1,664.1c5-1.4,8.6-3.1,12-5
		c2.8-1.5,3-3.5,0.5-5.4c-2.4-1.9-4.5-4-6.4-8.1C158.1,652.4,156.2,657.8,154.1,664.1z M120.1,628.8c5.5,3,9.5,3.2,13.6-0.4
		c4.5-4.1,10.6-6.3,14.6-11.2C138.8,620,130.1,624.5,120.1,628.8z M955.7,701.7c2.7-4.9,2.9-10.3,4.2-15.4c0.6-2.5-0.8-4.9-2.9-5.8
		c-2.4-1-2.5,1.9-3.5,3.2C948.6,690.4,954.3,695.8,955.7,701.7z M169,542.9c-6.8-19.3-11.8-39-13.8-59.3
		C155.4,504.4,160.5,524.1,169,542.9z M799.9,433.4c10.7-7.8,20.3-14.8,30.3-22C824.2,410.4,804.8,424.5,799.9,433.4z M932.3,570.5
		c-1.6,3-1.2,5.6,0.5,8.1c2.9,4.4,7.8,6,11.9,8.7c0.8,0.5,1.6,0.3,2.2-0.5c0.5-0.9,0.1-1.6-0.5-2.2
		C941.6,580.1,937.9,574.5,932.3,570.5z M233.8,598.5c-3.9,0-7.5,0-11.1,0c-3.2,0-3.6,1-2.1,3.9c4.3,8.2,4.9,8.4,10.4,0.9
		C232,601.8,233.4,600.5,233.8,598.5z M875.2,610.5c3.3,1.6,6,2.5,8.2,4.2c4,3.1,7.7,1.5,11.6,0.1c0.7-0.3,1.7-0.6,1.7-1.6
		c0-1-0.9-1.3-1.7-1.5C888.8,609.6,882.7,607.7,875.2,610.5z M248.1,596c-4.2,1.8-7.9-1.1-10.5,2.7c-1.9,2.7-3.9,5.3-5.8,8
		c-0.8,1.1-2.6,2.4-1,3.8c1.5,1.4,3.1,0.1,4.3-1.1C239,605.4,243,601.2,248.1,596z M1003.3,650.9c-4.5-5.6-8.5-10.6-12.5-15.5
		c-0.5-0.6-1.2-1.3-2.1-0.8c-0.8,0.5-0.7,1.5-0.4,2.3c1.2,2.9,2.7,5.7,3.8,8.7C993.9,650.6,997.6,651.4,1003.3,650.9z M226.6,656.5
		c-1.3,0.1-2.8,0-3.4,1.5c-0.6,1.8,0,3.5,1.4,4.4c2.9,1.9,6,3.5,9,5.2c1.2,0.6,2.2,0.5,2.2-1.4C235.7,661.8,230.6,656.5,226.6,656.5
		z M211.4,561.2c8.8-4.4,4.7-12.9,6.9-19.3C215.2,547.9,206.8,552,211.4,561.2z"/>
</g>
</svg>
