<?xml version="1.0" encoding="utf-8"?>
<!-- Generator: Adobe Illustrator 21.0.2, SVG Export Plug-In . SVG Version: 6.00 Build 0)  -->
<svg version="1.1" id="fat" xmlns="http://www.w3.org/2000/svg" xmlns:xlink="http://www.w3.org/1999/xlink" x="0px" y="0px"
	 viewBox="0 0 1264.8 734.6" style="enable-background:new 0 0 1264.8 734.6;" xml:space="preserve">
<g>
	<path style="fill:#fff" d="M874.6,20.2c6.4-4.2,9.4-4.5,13.5-1.3c0.9,0.7,2.3,1.5,2,2.7c-1.1,4.8,1.9,8.3,3.6,12.1c1.1,2.4,0.8,4.4-0.2,6.7
		c-2.9,6.5-1.8,10.7,3.4,15.2c1,0.8,2.8,1.4,1.9,3c-0.9,1.8-2.6,1.1-4,0.4c-2.5-1.2-4.9-1.9-7.5-0.5c0.1,0.4,0.1,1,0.2,1
		c10.9,1.5,15.4,10.9,21.2,18.1c6.3,7.9,9.2,17.7,11.8,27.4c10.2,37.6,10.8,76,8.5,114.6c-0.3,4.8,0,9.7-1,14.4
		c-0.2,1.1-0.4,2.5,1,3c1.2,0.5,2.3-0.2,3.1-1c2.4-2.7,4.6-3.9,8.6-2.2c2.4,1,5.9-0.9,8.1-3c2.1-2,4.1-2.5,6.8-1.8
		c3.7,1,7.2,0.6,10.2-2.2c1.5-1.4,3.3-1.6,5.1-0.9c4.3,1.6,8,1,11.6-1.8c1.5-1.2,3.9-1.7,5.1-0.6c3.7,3.3,7.2,1.5,10.6,0
		c2.5-1.1,4.5-1.3,7,0c3.3,1.7,7,1.9,10.4-0.3c2.1-1.3,3.8-1.1,6,0.1c3.2,1.8,6.7,2.7,10.3,0.6c1.9-1.2,3.9-0.7,5.6,0.6
		c3.6,2.6,7.4,3.3,11.6,1.3c2-1,3.9-0.3,5.5,1.2c3.2,3.1,6.8,4,10.7,1.5c1.7-1.1,3.2-0.4,4,0.7c2.4,3.7,6.3,4,9.8,3.8
		c3.6-0.2,6.3,0.8,9.4,2.3c3.1,1.6,5.8,4.5,10.1,2.8c1.2-0.5,2.8,0.8,3.7,2.1c2.3,3.5,5.9,4.4,9.6,4c2.9-0.3,4.6,0.5,6.1,3
		c1.7,2.7,4.1,4.7,7.9,3.1c2.6-1,4.8,0.6,5.9,2.6c2.4,4.2,5.4,6.8,10.5,6.7c2.2,0,3.4,1.5,4.6,3.3c1.8,2.9,4.3,5,8,5.2
		c1.7,0.1,3.7,0.7,4.4,2.1c2.3,4.8,6.2,7.1,11.1,8.5c1.8,0.5,2.7,2.3,3.7,3.9c1.9,2.9,4,5.7,7.9,6.3c1.8,0.3,3.3,1.6,3.6,3.7
		c0.7,4.4,4,6.4,7.6,7.9c2.5,1,4.2,2.3,4.6,5.2c0.4,2.8,2.4,5.2,4.7,6.1c4.3,1.7,6.2,4.6,7.1,8.8c0.3,1.6,1.1,3.8,2.6,4.1
		c5.4,1,6.1,5.3,7.4,9.4c0.7,2.3,1.8,4.4,4.6,5.5c2.3,0.9,3.6,2.6,3.2,5.9c-0.4,3.2,1.2,6.6,4.6,8.2c2.6,1.2,3.7,2.9,3.5,5.9
		c-0.2,3.7,1.4,6.8,4.5,8.9c1.9,1.2,2.6,2.7,2.5,5c-0.2,4.2,1.1,7.8,4.4,10.5c1.7,1.4,2.4,3.2,1.8,5.3c-1.1,4,0,7.2,3.1,9.7
		c2.1,1.7,2.6,3.6,2,6.2c-0.7,3.4-0.1,7,2.2,9.3c2.6,2.6,2.6,5,1.9,8.1c-0.7,3.1-0.7,6.3,1.9,8.9c1.6,1.6,1.8,3.4,0.9,5.5
		c-1.7,3.9-0.9,7.6,1.3,10.9c1.5,2.2,1.7,4.1,0.7,6.5c-1.6,3.5-1.7,7,0.9,10.3c1.4,1.8,1.2,3.7-0.1,5.5c-2.5,3.5-2.2,7.3-0.1,10.7
		c1.3,2.2,1.6,3.9,0.1,5.9c-2.5,3.3-2.2,6.9-0.8,10.4c1.1,2.8,1.2,4.7-1.4,6.9c-2.5,2.1-2.1,5.7-1,8.5c1.3,3.2,1.3,5.7-1.3,8.1
		c-1.3,1.2-2.1,3.1-1.8,4.5c1.3,5.9-2.6,10.5-3.5,15.6c-1.1,5.7-3,10.6-4.9,15.9c-1.8,5.1-2,10.6-6,15c-1.2,1.3-1.5,3.3-0.4,5.5
		c1.2,2.4-0.6,4.6-2.8,6.1c-3.2,2.2-5.3,4.7-4,9.1c0.8,2.5-2,3.6-3.5,4.7c-3.5,2.6-6.3,5.2-5.6,10.2c0.3,2.1-1.1,4.2-3.4,5.1
		c-3.8,1.4-5.2,4.4-5.6,8.1c-0.3,2.6-1,4.2-4.2,5.1c-3.1,0.8-6,3.6-5.4,7.7c0.5,3.1-1.5,4.9-3.6,5.1c-5,0.5-6.6,3.9-7.6,7.8
		c-0.6,2.2-1.6,3.8-3.8,4.1c-4.1,0.7-5.8,3.7-7.1,7c-1.1,2.7-2.8,4.6-5.6,5.1c-3.9,0.7-6.2,3-7.4,6.5c-0.9,2.4-2.2,3.9-5,4
		c-3.3,0.1-5.6,2.2-6.9,5c-1.4,3.3-3.8,4.8-7.2,5.3c-3.4,0.6-6.3,1.8-7.7,5.5c-0.8,2.3-2.9,3.1-5.2,3.2c-3.7,0.2-6.6,1.5-8.5,5.1
		c-1.2,2.3-3.5,3.8-6.3,3c-3.6-1-5.8,0.7-7.6,3.3c-2,2.8-4.3,4.2-8,3.5c-2.9-0.5-5.4,1.1-7.3,3.5c-2,2.6-4.6,3.8-7.9,3
		c-2.8-0.6-5.5,0-7.4,2c-2.5,2.7-5.1,3.8-8.9,2.8c-1.9-0.5-3.9,0.2-6.4,2.1c6.3,0.6,11.9,1.4,17.5,1.5c17.3,0.2,34.7,0.1,52,0.2
		c2.5,0,5,0.4,7.4,0.8c1.2,0.2,3,0.3,2.9,2.1c-0.1,1.6-1.8,1.8-3,2.2c-2.2,0.8-4.6,0.8-6.9,0.8c-19.7,0.1-39.2,2.2-58.7,3.8
		c-7.1,0.6-14.3,0.6-21.4,1c-19.6,1.1-39.3,2.3-58.9,2c-24.8-0.4-49.5-2-74.3-3.5c-18.8-1.1-37.4-3.9-56.3-3.4c-3,0.1-8,0.4-7.9-3
		c0.1-3.7,4.8-2.4,7.9-2.6c16.8-1,33.7,0.8,50.4-1.2c4-0.5,8.2,1,12.4-0.9c-4.1-3.9-7.6-7.6-13.6-6c-1.1,0.3-3-0.4-3.6-1.3
		c-2.6-4.2-6.6-4.5-10.9-4.7c-2.4-0.1-4.6-0.9-5.9-3.2c-1.2-2.3-3.5-3.8-5.6-3.8c-4.7-0.1-7.9-2.4-10.9-5.6
		c-1.4-1.5-3.6-2.2-5.9-2.5c-3.2-0.5-6.2-1.5-7.4-5.1c-0.1-0.4-0.6-1-0.9-1.1c-8.3-1.4-12.2-9.7-19.6-12.5c-2.4-0.9-4.2-2.4-5.6-4.7
		c-1.6-2.8-3.6-5.5-7.4-6c-1.9-0.3-3-2-3.8-3.6c-0.5-0.9-0.4-2.3-1.1-2.7c-6.9-4.9-11.4-12.1-17.9-17.4c-1.7-1.4-3.1-2.7-3.7-5
		c-1.1-3.7-2.8-7.1-6.7-8.6c-1.6-0.6-2.8-1.8-2.9-3.2c-0.4-4.5-3.7-6.9-6.4-9.7c-0.8-0.8-2-1.8-2.1-2.7c-0.5-6.2-4.1-10.3-8.4-14.1
		c-1.1-0.9-1.6-2.1-1-3.6c0.5-1.4,0.2-2.9-0.8-3.7c-7.1-5.7-4.7-16.3-11.6-22.1c-1-0.8-0.6-2.5-1-3.8c-2.7-8.9-5.6-17.8-8.4-26.6
		c0-0.1-0.3-0.3-0.3-0.4c1.7-7.8-4.6-14.5-3.1-22.3c0.1-0.6,0.5-1.5,0.2-1.9c-4.3-7.8-0.8-16.7-3.7-24.7c-0.6-1.6-0.4-3.3,0.4-4.9
		c1.4-2.8,1.7-6.2,0.6-8.8c-1.8-4.3,0.4-8.4-0.2-12c-1.5-8.2,2.2-15.4,2.6-23.2c0.3-7.3,1.9-15.2,5-22.3c1.4-3.2,3.8-6.2,2.1-10.3
		c-0.9-2.2-0.1-4.4,2-6.2c2.7-2.3,3.7-5.4,2.8-8.9c-0.7-2.6,0.2-4.5,2.2-6.1c3-2.3,4.2-5.6,4.1-9.2c-0.1-3,1-5,3.1-6.9
		c2.4-2.2,4.7-4.6,3.7-8.6c-0.5-2,0.9-3.5,2.4-4.6c3.7-2.6,6.1-5.8,5.9-10.7c-0.1-2,1.4-3.3,3.4-4.4c3.1-1.8,6-4.1,5.6-8.5
		c-0.2-2.2,1.3-3.7,3.1-4.8c3.7-2.2,6.7-4.8,7.2-9.5c0.2-1.8,1.7-3.2,3.6-3.7c4-1,6.1-3.8,6.9-7.6c0.5-2.3,1.8-3.6,3.7-4.2
		c4.1-1.4,6.6-4.2,8-8.1c0.8-2.3,2.1-3.6,4.5-4.1c1.1-0.2,2.7-0.5,3.1-1.3c3.9-8,14.1-9.2,18.4-16.8c0.9-1.6,2.8-2.2,4.6-2.9
		c3.4-1.2,6.9-2.2,8.8-6c0.8-1.7,3-2.2,5.2-2.5c7.4-0.9,9.4-4.4,6.7-11.1c-4.5-11.1-8.2-22.6-13.6-33.3c-4-7.8-8.1-15.9-14.9-22
		c-3.1-2.8-6.6-4.6-10.9-3.8c-3.8,0.6-6.4-0.9-7-4.5c-1-6-4.9-9.9-8.9-13.6c-3.3-3.1-7.2-2.8-11.1-0.6
		c-13.1,7.5-23.6,17.9-32.8,29.6c-29,36.8-54.2,76.3-81.1,114.6c-26.2,37.4-51.9,75.1-78.3,112.3c-15.6,22-31.3,44-45.9,66.7
		c-1.3,2.1-2.4,4.3-3.5,6.6c-1.1,2.3-1.2,4.5,1,6.4c0.6,0.5,1.5,1.4,1.4,2c-0.6,6.3,3.6,6.2,8,6.5c23.2,1.9,46.4,4,69.6,6
		c8.3,0.7,12.7,4.2,13.3,10.7c0.6,6.3-4,11.2-11.1,11.4c-7.5,0.1-15-0.3-22.5-0.6c-17.8-0.8-35.6-0.8-53.4-1.4
		c-5.3-0.2-6.8,3.8-8.8,6.8c-8.6,12.6-20.6,18.4-35.6,17.9c-10.6-0.3-21.1,1.3-31.6,1.8c-6.4,0.3-12.8,1-19.3,1.5
		c-2.1,0.1-3.4,0.6-3.3,3.2c0.1,2-0.9,3.9-2.8,5c-0.3,0.2-0.6,0.4-0.7,0.6c-3.6,7.5-7.3,14.8-10.5,22.4c-0.8,2-1,4.2-2.8,5.6
		c-3.3,2.5-4.5,6.1-6.4,9.6c-3.2,5.9-8,11.1-12,16.6c-2.2,3-5.8,5.4-7.3,9.3c-0.6,1.7-1.9,2.7-3.2,3.7c-0.5,0.4-1.5,0.4-1.8,0.9
		c-5,7.8-13,12.7-19.1,19.5c-4.4,4.9-10.5,9.3-16.4,13.1c-1.1,0.7-2.6,0.8-3.6,1.6c-4.8,3.9-8.8,8.8-15.5,9.6
		c-1.2,0.1-1.7,2.3-2.6,2.8c-6.7,3.9-13.6,7.2-20.4,10.8c-2.9,1.5-6.8,1.6-9.3,4.5c-1.5,1.7-3.3,2.8-5.7,2.4c-0.2,0-0.4-0.1-0.5-0.1
		c-8.1,2.7-16.1,5.4-24.2,8.7c22.9,3,45.9,1.8,68.9,2.1c3.3,0,8.6-0.8,8.7,3.1c0.1,3.2-5.3,2.7-8.6,2.8c-20,0.3-39.8,2.5-59.7,3.9
		c-6.6,0.5-13.3,0.5-19.9,0.9c-17.6,1.1-35.2,2.2-52.9,2.1c-27.3-0.1-54.5-2.2-81.8-3.6c-18.9-0.9-37.8-3.8-56.8-3.3
		c-2.4,0.1-6.2,0.5-6.3-2.4c-0.1-3.2,3.8-3,6.3-3.4c1.3-0.2,2.7-0.1,4-0.1c21.1-0.2,42.3,0.7,63.1-1.8c-3.1-4-7.1-6.4-12.9-4.7
		c-1.8,0.5-3.5-0.7-4.7-2.3c-2.3-3.1-5.3-4.4-9.1-3.7c-2.7,0.5-4.7-0.1-6.3-2.7c-2-3.2-5.2-4.7-8.9-3.8c-2.6,0.7-4.5-0.3-5.5-2.2
		c-2-3.9-5-5.5-9.3-5.3c-2.4,0.1-4.1-1-5.1-3.2c-1.7-3.8-4.6-5.8-8.9-5.6c-2.7,0.1-4.2-1.3-5.3-3.7c-1.5-3.4-3.8-6-8.2-5.7
		c-2.8,0.2-4-1.9-4.7-4.3c-1.1-3.7-3.7-5.5-7.4-5.6c-3.3,0-5-1.7-5.4-4.7c-0.5-3.9-3.1-5.9-6.4-6.7c-3.1-0.8-4.8-1.6-5.1-5.4
		c-0.3-3.3-3.3-5.7-6.7-6.5c-3.1-0.7-4.5-2.5-4.8-5.5c-0.3-3.5-2.1-6.3-5.4-7c-3.3-0.6-4-2.8-4.3-5.1c-0.5-3.8-2.1-6.5-5.9-7.7
		c-2.6-0.8-3.7-2.8-3.7-5.3c-0.1-4.2-1.5-7.3-5.4-9.3c-2-1-3.4-2.8-2.7-5.3c1-3.6-1-6.2-3.5-7.4c-3.4-1.7-4.3-4.2-4.7-7.5
		c-0.3-3.3-2.3-6-3.7-8.9c-3-6.4-5.1-13.2-7.8-19.8c-1.6-3.8,0.7-8.9-4.5-11.9c-1.9-1.1-1.2-4.3-0.4-6.5c1.1-2.8,0.5-5.5-1.7-7.2
		c-3.1-2.3-3.1-5.2-2-8c1.3-3.2,0.8-5.7-1-8.4c-1.8-2.7-2.6-5.6-1.1-8.9c1-2.3,1.1-5-1-7c-2.7-2.7-2.1-5.9-0.8-8.8
		c1.4-3,1.4-5.6-0.2-8.5c-1.4-2.5-1.8-5.3,0.2-8c1.6-2.2,1.8-4.8,0.1-7c-2.5-3.4-1.8-6.6,0.3-9.6c1.6-2.3,0.9-4.5,0.9-6.9
		c0.1-8.8,1.9-17.5,3.5-26.2c1.5-8.1,6.6-15.2,5.9-23.8c-0.2-2.7,1-4.8,2.6-6.8c0.5-0.6,1.8-0.9,1.9-1.5c1.1-7.3,5.4-13.3,7.4-20.2
		c0.9-3.3,1.2-6.5,4.1-8.6c2.9-2.1,4.2-4.9,4.6-8.5c0.3-2.9,0.5-5.8,4.4-6.8c1.9-0.5,2.8-3,3.1-5.3c0.5-3.5,1.9-6.6,5.5-8.3
		c3.1-1.4,4.7-4.2,5.2-7.5c0.2-1.6,0.6-3.5,2-3.8c4.9-1.1,6.1-4.7,7.5-8.8c0.9-2.6,2.9-5.1,6.4-5.7c3.1-0.6,4.7-3,5.2-6
		c0.5-3,1.8-4.7,5-5.2c2.7-0.4,4.4-2.3,5.6-5c1.4-3.1,2.9-6.3,7.7-6.4c2.8,0,5.5-2.2,6.4-5.6c0.7-2.7,2.5-4.3,5.5-4
		c2.9,0.2,4.5-1.6,5.9-3.8c2.1-3.3,3.8-6.8,9.2-5.7c2.4,0.5,5.1-2.1,6.4-4.8c1.1-2.3,2.8-3.8,5.5-3.5c3.8,0.4,6.3-1.5,8.5-4.3
		c1.8-2.4,4-3.7,7.3-3.1c3.2,0.6,5.9-1,7.7-3.6c1.7-2.2,3.5-3.3,6.4-2.6c4.1,0.9,6.8-2.1,9.7-4.3c2.1-1.6,3.7-2.8,6.7-2
		c2.9,0.8,6,0.1,8.2-2.5c1.6-1.9,3.6-2.6,5.8-1.9c4.3,1.3,8-0.1,11.1-2.6c2.3-1.8,4.2-2.3,6.8-1c1.1,0.5,3,1.1,3.8,0.6
		c5.4-3.3,11.1-2.9,17-1.9c1.7,0.3,3.5-0.8,4.9-2.1c1.9-1.6,3.9-1.6,5.9-0.2c3.1,2.1,6.4,1.8,9.3,0c2.3-1.4,4.2-1.3,6.6-0.4
		c3.8,1.4,7.6,2.2,11.6,0.4c2-0.9,3.9-0.7,5.6,0.8c0.8,0.6,2,1.6,2.6,1.3c8.6-3.2,16.5,4.3,25.1,1.4c1.6-0.6,3.3,0.3,4.6,1.5
		c1,0.9,2,2.5,3.2,2.2c8.8-2.1,15.2,6.4,23.9,5c1.8-0.3,3.5,0.7,4.7,2.4c2.1,3.1,5.1,4.3,8.7,3.7c2.9-0.4,5,0.3,7,2.6
		c2.3,2.7,5.6,4.3,9.3,4c2.6-0.2,4.4,0.8,5.9,2.9c2,2.8,4.7,4.8,8.4,4.4c2.3-0.2,3.7,1.1,5.2,2.4c0.2,0.2,0.3,0.7,0.5,0.8
		c7.3,4.9,14.5,10.1,22,14.5c2.2,1.3,4.2,2.2,5.6,4.4c4.6,7.6,9.2,8.3,16.2,3c9.6-7.2,18.6-15.1,27.8-22.7c2.9-2.4,3.7-4.7,2.5-8.2
		c-2.1-5.8-3.8-11.7-5.6-17.6c-0.9-3-2.3-4.8-5.7-3.2c-4.9,2.3-4.8-1.8-6.1-4.5c-1.7-3.6,0.5-4.5,3.2-5c4.7-0.8,4.8-3.1,3.5-7.1
		c-10.8-32.6-21.3-65.2-32-97.8c-2.1-6.3-13.6-14.2-20.2-14.2c-5.5,0-7.4-1.5-8.2-7.3c-0.3-2-0.6-3-2.7-3.1
		c-5.9-0.3-10.4-3.4-14.2-7.6c-4.1-4.6-9-7.5-14.8-9.7c-10.6-4-20.5-9.6-31.2-13.4c-0.5-0.2-1-0.4-1.3-0.7c-2.2-1.9-5.7-3.2-4.7-6.9
		c1-3.6,4.4-3.9,7.4-3.9c11.3,0.2,22.7,0.2,33.9,1.1c22.8,1.9,45.6,1.7,68.4,1.6c19.8,0,39.7-0.3,59.4,2.1c5.5,0.7,11,1.3,15.3,5.3
		c1.5,1.4,2.8,2.8,3.6,4.7c1.4,3.1,1.5,5-3,5.7c-7.6,1.1-15.3,1.4-22.8,2.4c-2.2,0.3-4.5,0.3-6.1-1.4c-3.8-3.9-8-2.6-11.4-0.3
		c-9.1,6.1-17.8,12.7-27.2,19.4c3.5,1.4,4.8,3.6,5.2,6.9c0.3,3-0.7,4.8-3.3,5.1c-4.3,0.5-3,3-2.3,5.3c4.7,14.6,9.4,29.2,14.2,43.7
		c6.2,19.2,12.6,38.3,18.7,57.5c1.2,3.7,2.9,4.8,6.5,3.7c1.9-0.6,3.9-0.7,5.9-0.9c1.8-0.2,3.3,0.6,4,2.4c0.8,2-0.4,3.1-2,4
		c-1,0.6-2.1,1.1-3.1,1.6c-6.4,3.3-6.8,6.8-1.4,11.8c0.8,0.8,1.8,1.4,3.6,2.8c-3.8,0.5-6.3,1.4-7.4,4.9c0.5-5.8-2.7-7.5-8.1-8
		c5.6,7.3,7.2,14.9,1.2,22.8c2.2-3,7.2-0.4,8.6-5.8c0.6-2.2,4.8-4.3,7.6-5c4.3-1.1,8.5-3,13.1-2.8c4.2,0.2,7.5-2.5,11.1-3.9
		c18.1-7.4,36.8-13.6,55-20.7c10.6-4.1,21.3-8.2,32-12.1c21.8-7.7,43.1-16.8,64.6-25.4c22.7-9.1,45.3-18.4,68-27.4
		c16.7-6.6,33.5-12.9,50.3-19.3c6.6-2.6,13.2-5.2,19.8-7.8c0.3,0.3,0.6,0.7,0.8,1c-4.5,4.5-8.7,9.2-13.5,13.2
		c-2.6,2.2-2.5,6.3-6.4,7.5c-1.4,0.4,0,3.2,0.4,4.6c1.1,3.3,0.9,5.6-1.7,8.5c-3.1,3.4-4.7,8-7.8,11.6c-0.3,0.4-0.7,1.1-0.6,1.3
		c2.1,3.7-1.3,5.3-3,7.2c-4.8,5.2-8.3,11.6-12.1,17.3c-3.3,4.9-9.1,10-8.2,17.5c0.1,1-0.9,2.1-1.5,3.1c-3.5,5.9-7,11.5-8.4,18.5
		c-0.7,3.5-3.4,6.8-5.7,9.8c-1.8,2.3-2.7,4.9-3.9,7.7c9.1-3.2,13.4-11,17.8-18.2c3.5-5.6,6.5-11.5,11.6-15.8
		c2.2-1.9,4.1-3.7,3.8-7.1c-0.1-1.2,1.7-2.9,3-3.7c3.6-2.4,5.1-5.9,6.5-9.7c3.4-8.9,9.1-16.5,14.7-24.2c1.8-2.5,3.9-5.1,5.4-7.6
		c1.7-2.8,7.1-2.3,6-7.2c-0.1-0.5,0.7-0.3,1.1-0.3c2.5-0.1,13.5-9.9,12.7-11.9c-2.4-5.8,0.6-11.4-0.4-17.1c-0.9-5,8-13.8,12.7-12.5
		c3.3,0.9,4.7,5,5.5,8.5c0.2,0.9-0.1,2,0.1,3c0.4,1.6,1.6,1.5,2.8,1.1c1.5-0.5,2.5-1.4,1.5-2.9c-1.7-2.9-1.9-6-1.7-9.2
		c0.1-1.1,0-2.6,1.3-3c1.6-0.4,1.6,1.3,2.1,2.3c2.1,3.7,1.6,8.1,3,12c1.1,3.1,2.9,3.9,5.1,2c1.5-1.3,6.8,0.3,3.8-5.1
		c-3.7-6.4-4.1-14.3-7.9-20.8c-1.2-2-2.8-3.7-4-5.7c-1.2-1.8,0.4-3.1,0.8-5.5c-3.3,1.3-6.1,2.3-8.9,3.4c3.3,3,2.7,7.3,4.7,10.5
		c0.9,1.4-2,1.7-3.2,0.8c-2.8-2.1-5.3-1.9-8.3-0.6c-2.9,1.3-4.9,0-5.8-3.4c-1.3-5.1,0.5-10.3-0.8-15.4c-0.6-2.3-0.9-4-3.7-4.5
		c-3.8-0.8-4.5-3.5-3.2-6.9c2.2-5.7,2-6.3-3.5-8.3c-1.9-0.7-3.3-1.8-3.5-3.8c-0.3-3.6,2.3-6.8,4.6-7.7c6.9-2.7,13-7.8,21.4-6.4
		c3.4,0.5,8-1.7,9.3-4.7c1.2-2.9,0.2-7.1-3.5-9.5c-4.4-2.7-5.8-7-4.2-11.7c1.5-4.3,5.3-6.2,9.8-6.3c1.3,0,2.7,0.3,3.8-0.6
		c0.5-1.1-0.4-1.9-0.8-2.8c-2.5-6-2-9.1,2-12.6c4.9-4.2,9.3-4.8,14.6-1.6c4.8,3,9.5,5.9,15.2,7.2C871.6,10.5,873.6,15.2,874.6,20.2z
		 M1183.7,430.7c1.5-1.8,0.9-3.8,0.3-5.7c-1.9-6-3.8-12.1-5.9-18c-1.9-5.5-2.4-5.6-7.3-2.5c-15.4,9.6-30.7,19.3-46,29
		c-2.8,1.8-5.6,3.6-8.4,5.4c0.1,0.2,0.2,0.4,0.4,0.6c22-2.9,44.1-5.8,66.1-8.8c0.3,2.2-0.9,2.8-2.9,3c-14.2,1.6-28.4,3.7-42.6,5.1
		c-16.9,1.6-33.2,4.4-46.6,16.2c-2.5,2.2-6,3.3-9,6.4c13.2,0.8,25.6,1.5,38,2.2c12.8,0.7,25.6,1.4,38.3,1.9c9,0.3,18,0.2,26.9,1.2
		c4.6,0.5,6-1.6,5.4-5.8c-0.9-7.3-1.5-14.5-2.9-21.7C1187,435.9,1186.1,433,1183.7,430.7z M759.4,158c-1.6,0.4-3.6,0.8-5.5,1.3
		c-21.5,5.3-42.7,11.7-63.6,19.2c-53.7,19.5-107.4,39.1-161,58.7c-13.9,5.1-27.9,10.1-41.8,15.2c-5.9,2.2-6.8,4.5-4.8,10.3
		c3.1,9.1,6.1,18.3,9.1,27.5c8.9,26.9,17.7,53.8,26.7,80.6c1,2.9,1.4,6.2,4.8,7.8c1.8,0.8,1.6,2.8,1,4.4c-0.5,1.3-1.1,2.6-0.4,3.9
		c5.4,10.9,5.7,24,13.7,33.9c0.7,0.8,0.9,1.9,0.4,2.8c-1.2,2.2-0.4,4.2,0.4,6.2c6.1,16.6,8.4,34.2,13.4,51.2
		c0.5,1.8-0.1,4.2,2.6,4.8c3,0.7,3.6-1.9,4.7-3.5c12.3-18,23.8-36.6,35.6-54.9c11.7-18,22.6-36.5,34.8-54.2
		c3.6-5.2,4.4-11.4,10-16.2c6.4-5.5,11.3-13.9,14.1-22c2.5-7.4,8.4-11.4,12.1-17.5c6.1-10.1,12.4-20.1,18.8-30.1
		c19.5-30.3,39.1-60.4,58.5-90.7c6.9-10.8,13.6-21.7,20.3-32.7C765.4,160.4,763.9,157.8,759.4,158z M924.6,224.9
		c0.4-2.8,0.8-4.8,0.8-6.7c0.5-17.8,1.6-35.5,0.4-53.4c-1.4-21.3-3.6-42.5-10.2-62.9c-3.4-10.6-6.9-21.2-15.3-29.3
		c-3.6-3.5-7-4.1-11.6-1.7c-13.9,7.2-27.4,15.1-40.1,24.3c-6.3,4.6-6.3,3-2.6,10.9c7.9,16.7,17.4,32.6,23.9,50
		c0.8,2.1,1.9,4,0.6,6.6c-1.3,2.4,2.4,8.5,5.2,8.8c7.4,1,10.8,6.5,13.5,12.3c3.2,7.1,4.8,14.8,6.9,22.2c3.6,12.2,9,23.9,14.1,36.8
		c0.2-1.7,0.4-2.2,0.4-2.6c-0.5-4-0.9-7.9-1.5-11.9c-0.3-1.8-0.6-3.6,1-5.1C914,219.6,920.6,220,924.6,224.9z M198.1,450.4
		c1.4,0.1,3.2-0.1,2.9-2.1c-0.4-2.7,1-3,3-3.3c1-0.1,2-1,2-2c0-2.8,1.7-3.6,3.7-5.2c2.7-2.3,4.1-5.8,8.4-5.8c0.3,0,0.6-1.1,0.8-1.7
		c0.3-1.5,0.9-2.6,2.7-2c1.2,0.4,1.6-0.2,1.3-1.2c-1.2-4-1.4-8.2-5.2-11.5c-12.8-10.8-25.2-22.3-38-33.1
		c-15.1-12.8-29.3-26.6-44.8-38.8c-3.2-2.5-4.7-1.3-6.5,0.7c-6.3,6.8-12.7,13.6-18.5,20.9c-2,2.5-1.8,4.4,0.4,6.4
		c3.1,2.8,6.2,5.5,9.2,8.4c23.2,22.2,46.4,44.4,69.5,66.8C191.6,449.4,194.7,449.7,198.1,450.4z M979.2,526.8
		c0.2-0.7,0.2-2.1-0.8-2.7c-4-2.5-7.2-6.5-10.9-8.6c-4.5-2.5-7.3-5.6-9.5-9.6c-2.4-4.4-5-4.2-8.4-1.6c-1.1,0.8-2.1,1.7-3,2.6
		c-9.5,8.8-19.1,17.6-28.6,26.5c-16.9,15.8-33.8,31.6-50.8,47.3c-3,2.8-3.4,4.9-0.6,7.8c5.6,5.9,11.2,11.7,16.6,17.8
		c3.6,4.1,6.4,3.5,10.3,0.1c26.3-22.5,52.7-45,79.2-67.2C976.6,535.9,978,531.8,979.2,526.8z M256.7,414.9c3.1,0,6.3-1.2,7.4,0.6
		c2,3.3,3,0.9,4-0.2c3.6-3.6,2-8,1.7-12.3c-2.1-32.4-4.2-64.7-6.2-97.1c-0.7-11-1-11.2-11.8-11.2c-3.9,0-4.8,1.6-4.9,5
		c-0.1,5.5,0.4,10.9,1.6,16.3c0.4,1.9,0.5,4.6-2,4.9c-2.8,0.4-2.6-2.4-2.8-4.3c-0.4-4.8-0.7-9.6-1-14.4c-0.4-7-1-7.5-8.1-6.7
		c-0.8,0.1-1.7,0.2-2.5,0.1c-5.3-0.6-6.5,2-6.3,6.8c0.5,9.1,0.4,18.3,0.8,27.4c1.1,27.8,1.6,55.6,2.3,83.4c0.1,4.5,0.3,8.5,6.6,7.4
		c2.2-0.4,4,2.9,6.5,0.7c4.4-3.9,10.2-1.1,15.1-2.9c1.2-0.4,3.6,1.5,3.9-1.1C261.2,414.9,258.3,416.5,256.7,414.9z M1005.2,655.6
		c2.7,0,4.3,0,6,0c7.6,0,8.1-0.5,8.4-8.1c0.3-7.1,0.8-14.3,1.3-21.4c1.9-25.9,4-51.7,5.8-77.6c0.8-11.7-4.3-16.8-16.1-16.6
		c-2.8,0-5.7,0-8.5,0c-1.8,0-3.8,0-5-1.7c-2-2.8-3.9-1.7-5.8,0.1c-2.1,2-3.5,4.3-3.6,7.4c-0.2,10.1-0.6,20.3-1.1,30.4
		c-0.4,10.1-1.1,20.3-1.5,30.4c-0.8,16.6-1.5,33.2-2.3,49.8c-0.2,4.3,1.8,6.1,5.9,6.2C994.6,654.7,1000.4,656.1,1005.2,655.6z
		 M97.7,501.2c10,0,20-1.3,29.9-1.5c18.8-0.4,37.6-0.7,56.4-1.1c1,0,2,0,3-0.2c3.6-0.9,5.4-3.7,6.9-6.7c1.1-2.3-0.7-3.2-2.2-4.3
		c-1-0.7-0.9-1.7-0.2-2.6c2.9-3.8-3-8.7,1.4-12.4c-2.3-2.3-2-4.2,0.8-5.9c1-0.7,0.7-2.1,0.3-3.2c-1-3.6-3.7-3.7-6.7-3.5
		c-25.9,1.4-51.8,2.8-77.8,4.2c-9.8,0.5-19.6,1.2-29.4,1.9c-3.1,0.2-6.2,0.4-6.3,4.7c-0.3,9.2,0.2,18.3,1.4,27.4
		c0.4,2.7,1.6,3.5,4.4,3.4C85.7,501,91.7,501.2,97.7,501.2z M1036,527.6c-0.2,2.4,0.7,4.2,2.3,5.9c4.3,4.6,8.6,9.3,12.9,13.9
		c21.2,23.3,42.3,46.5,63.4,69.9c1.9,2.1,3,1.9,4.9,0.4c6.5-5.2,12.7-10.7,19-16.2c4-3.6,3.5-5.9,0.2-9.6
		c-20.6-22.9-41.3-45.7-61.1-69.2c-6.4-7.6-13.7-10.9-22.8-12.4c-2.1-0.3-4.8-0.5-5.2,1.7c-0.9,6.3-6.4,7.7-10.5,10.4
		C1036.9,523.8,1035.6,525.1,1036,527.6z M503.1,467.4c-1,5.1,0.7,8.1,1.9,11.1c0.9,2.3,3.9,0.3,6,1c2.8,0.9,5.9,1,8.8,1.7
		c5.5,1.4,7.3-0.2,6.4-5.8c-1.6-10.4-4-20.6-7.3-30.6c-11.2-34-22.6-67.9-34-101.8c-7.8-23.5-15.6-47.1-23.5-70.6
		c-0.5-1.6-0.5-5.4-3.8-2c-8.5,8.5-17,16.9-25.4,25.4c-0.8,0.8-2,1.5-1,2.9c2.9,4.2,3.9,10,10.1,11.5c1.7,0.4,3,1.8,3,4.1
		c0,3.7,2.4,6.1,5.7,7.3c2.2,0.9,3.7,2.3,3.9,4.7c0.5,4.2,3.8,6.2,6.1,9.1c4.5,5.7,7.1,12.8,11.8,18.4c0.3,0.4-0.2,1.3-0.1,1.9
		c0.3,2.7,1.4,6,3.5,6.8c4.3,1.7,4.3,4.8,4.7,8.3c0.3,2.6,0.9,5.2,2.7,7.3c5.3,6.3,5.3,14.8,8.7,22.1c1.3,2.9,0.5,7,3.3,9.8
		c1.1,1.1,1.6,2.7,1.4,4.1c-0.9,4.9,1.6,8.7,2.8,13c1.8,6.6,2.2,13.8,3.3,20.7c0.3,2-0.7,4.9-0.2,7.2
		C502.9,459.7,505.3,464.2,503.1,467.4z M841.8,450c0,0,0-0.1,0-0.1c-1.7,0-3.4,0.2-5,0c-5.4-0.8-7.4,1.8-7.6,6.9
		c-0.3,7.1-1,14.2-1.2,21.4c-0.2,6.9,0.5,7.3,7.2,7.6c12,0.6,23.9,1.4,35.9,2.2c21.4,1.5,42.8,3.1,64.2,4.6c1.5,0.1,4.5,1.4,4.6-1
		c0-3.3,2.9-7-0.3-9.9c-3.1-2.9-4.4-6.7-6.4-10.2c-1.2-2-5.1-2.8-3.8-5.2c2.1-3.7,0.7-5.8-1.8-8.1c-0.5-0.5-0.8-1.7-0.5-2.3
		c1.4-3-0.5-2.9-2.5-3C897,452,869.4,451,841.8,450z M1190.7,481.8c0-2.6,0-3.9,0-5.3c0-7.5-0.1-7.5-7.5-7.7
		c-11-0.3-22-0.6-32.9-1.2c-23.4-1.2-46.8-2.5-70.3-3.7c-3.7-0.2-12.2,4.5-12.8,7.4c-0.9,4.7,0.2,10-4,13.8
		c-0.3,0.3,0.1,1.3,0.2,1.9c0.9,5.8,3.7,7.9,12.7,8.4c22.6,1.2,45.2,2.1,67.8,3.3c13.5,0.7,26.9,1.2,40.3,2.3
		c3.9,0.3,4.8-1.2,5.1-4.1C1189.8,491.4,1191,486,1190.7,481.8z M220.4,530.1c-1.2-1.9-2.1-5.5-5.6-6.3c-5.3-1.1-8.3-4.8-10.6-8.9
		c-2.9-5.3-5-5.7-9.1-1.1c-16.3,17.8-32.6,35.5-48.9,53.3c-7.2,7.8-14.3,15.8-21.6,23.5c-3.4,3.6-3.5,6.2,0.2,9.9
		c5,4.9,10.3,9.4,15.4,14.2c3.1,2.9,5.1,2.3,7.7-0.7c9.8-11.1,19.7-22.1,29.8-32.9c13.1-13.9,26-28.1,39.1-41.9
		C219,536.9,220.2,534.4,220.4,530.1z M1063.3,446.3c2.4-0.2,4.5-1.7,6.6-3.5c21.4-19,42.8-37.9,64.2-56.9
		c6.2-5.5,12.7-10.8,18.5-16.7c2.6-2.7,2.1-4.7-0.1-7.1c-4.1-4.4-8.1-8.8-11.9-13.4c-4.8-5.8-4.9-6-10.5-0.9
		c-16.4,14.8-32.8,29.7-49.2,44.6c-10.3,9.4-20.7,18.8-31,28.2c-2.9,2.6-4.7,9.8-2.6,10.5c6.6,2.1,8.3,8.2,11.8,12.9
		C1060,445.3,1060.8,446.7,1063.3,446.3z M1035.7,305.3c-0.1-2.2-0.3-4.3-0.3-6.5c0-1.7-0.7-3-2.4-3.3c-8.5-1.5-12.5-1-12.1,8.1
		c0.1,2.8,0.2,5.6,0.5,8.5c0.2,1.9,0.2,3.7-0.5,5.4c-0.5,1.2-0.9,2.8-2.6,2.6c-1.7-0.2-1.5-1.9-1.8-3.1c-1-4.6,1-8.9,1-13.4
		c0.1-8.3-1.6-10-9.9-9.4c-2.7,0.2-3.8,1.3-3.9,4c-0.2,6-0.7,12-1,17.9c-0.9,15.8-1.8,31.6-2.6,47.3c-0.8,15.3-1.4,30.6-2.2,45.9
		c-0.2,4.2,1.3,5.9,5.4,5.4c2-0.3,4-0.4,6-0.6c2.7-0.3,5.3-0.1,7.7,1.3c7.4,4.6,12.3,1.9,12.7-6.9c0.4-9.8,0.8-19.6,1.4-29.4
		C1032.6,354.4,1034.1,329.8,1035.7,305.3z M1048.7,418.6c2-1.7,2.8-2.2,3.6-2.9c18.1-16.5,36.2-32.9,54.2-49.4
		c7.7-7.1,15.4-14.2,23-21.4c1.7-1.6,4.4-3.5,1.2-6c-7-5.5-14.5-10.5-21.2-16.4c-2.8-2.4-5.2-1.7-7.5,1.3
		c-11.9,15.4-24.1,30.6-36,45.9c-3.4,4.3-7.9,8-9.3,13.5C1053.9,394.4,1051.6,405.8,1048.7,418.6z M1072.5,444.1
		c4.6,1.3,8.4,0,12.1-0.6c12.6-1.9,25.4-1.8,36.8-10.2c15.5-11.4,32.4-21,48.8-31.1c3.9-2.4,4.1-4.7,2-8.4
		c-3.2-5.8-7.5-10.8-10-17.1c-3.2-8.1-4.5-8-11.6-2.4c-0.8,0.6-1.6,1.2-2.4,1.9c-21.4,19-42.8,38-64.1,57.1
		C1080.4,436.5,1076,439.4,1072.5,444.1z M1031.9,408.8c0.3,0.1,0.7,0.2,1,0.4c7.3-9.5,14.6-18.9,21.9-28.4c0.5-0.6,0.6-1.5,0.8-2.3
		c5.3-23.4,10.6-46.7,16-70.1c0.7-3.2,0-4.5-3-5.4c-8-2.5-16.6-2.4-24.4-5.8c-4.4-1.9-6.1,0.6-6.4,5.1c-1.5,28.2-3.2,56.4-4.8,84.7
		C1032.5,394.2,1032.3,401.5,1031.9,408.8z M994.9,410.1c0.4-0.1,0.7-0.1,1.1-0.2c0.6-12.6,1.1-25.2,1.8-37.7
		c0.5-9,1.1-17.9,1.6-26.9c0.8-14.8,1.5-29.6,2.1-44.4c0.2-4.1-1.5-6.7-6.3-5.9c-7.2,1.1-14.4,2.3-21.7,3.1
		c-5.3,0.5-6.3,3.1-5.6,7.9c2.6,18.9,4.8,38,7.4,56.9c0.9,6.6,0.2,13.7,3.1,19.6C983.2,392.1,989.3,401,994.9,410.1z M1074.9,497.5
		c-0.1,0.4-0.3,0.8-0.4,1.2c5.3,4,10.6,8,15.9,12c4.1,3.1,7.5,7.3,12.8,8.5c24,5.5,48.1,10.9,72.1,16.5c3.3,0.8,4.8-0.1,5.9-3.3
		c2.8-7.9,4.4-16.1,6.4-24.1c0.8-3.4-0.5-4.6-3.6-4.8c-9.5-0.5-18.9-1.2-28.4-1.7c-16.8-0.9-33.6-1.8-50.4-2.7
		C1095.1,498.5,1085,498,1074.9,497.5z M370.7,573.9c0,0,0.7,0.1,1.3,0c1.6-0.2,3.8-0.1,4.3-1.8c0.5-1.6-1.7-2.2-2.7-3.2
		c-4.9-4.5-9.8-9-14.7-13.5c-15.3-13.8-30.7-27.5-46.1-41.3c-2.6-2.3-5.8-3.6-9.2-2.9c-6.6,1.5-9.4,8.4-15.1,11.4
		c-0.4,0.2-0.4,1.6-0.3,2.3c0.3,3.2,1.2,6.1,3.9,8.4c3.2,2.6,6.3,5.4,9.3,8.2c11.5,10.9,22.9,21.8,34.3,32.7
		c1.8,1.7,3.8,2.1,6.4,1.8C351.4,575.2,360.8,574.7,370.7,573.9z M340.6,455.6c5.8-0.5,11.6-0.9,17.4-1.1
		c22.4-0.8,44.9-1.9,67.3-2.8c3.6-0.1,4.8-1.7,4.1-5.1c-1.6-7.8-3.2-15.6-5.6-23.3c-1.2-3.9-3.2-4.8-7-3.9
		c-12.9,3.1-25.9,6.1-38.9,9c-11.8,2.7-23.7,5.2-35.6,7.9c-4.8,1.1-9.8,3.3-11.4,7.9C328.3,451.9,333.3,456.1,340.6,455.6z
		 M194.5,511.2c-0.1-0.4-0.3-0.7-0.4-1.1c-6.8,1.5-13.6,3-20.4,4.5c-2.9,0.6-5.8,1.2-8.3,3.1c-20.8,15.5-41.7,31-62.6,46.4
		c-2.7,2-3.1,3.8-1.3,6.6c4.1,6.3,8.5,12.3,13.3,18.1c3.9,4.7,3.8,4.9,8.1,0.3c7.4-7.9,14.7-15.9,22-23.9
		C161.4,547.2,178,529.2,194.5,511.2z M317.8,514.2c0.5,1,0.5,1.4,0.7,1.6c20.4,18.6,40.8,37.2,61.3,55.8c1,0.9,1.9,1.5,3.5,1.3
		c6.2-0.8,12.5-1.8,18.7-1.7c4.5,0,6.5-2.5,8.5-5.6c0.9-1.4,1.4-3.1,2.3-4.4c2.4-3.6,1.3-6.1-2.1-8.3
		c-16.5-10.7-32.9-21.5-49.3-32.3c-1.1-0.7-2.4-1.5-3.6-1.6C344.6,517.8,331.4,516.2,317.8,514.2z M1037,535
		c2.6,13.3,2.5,25.2,9.7,36.1c13.5,20.1,25.6,41.3,38,62.1c2.3,3.8,4.3,4.3,7.8,2c5.7-3.7,11.7-7,17.5-10.6c5-3.1,5.2-3.6,1.1-8.1
		c-10.4-11.6-21-23.2-31.5-34.7C1065.7,566.5,1051.8,551.3,1037,535z M278.8,416.2c1.7-1.6,2.5-2.2,3.1-2.9
		c21.4-22.6,42.9-45.2,64.1-67.9c3.6-3.9,7.6-7.5,10.4-12.1c1-1.6,1.1-2.5-0.4-3.7c-6.7-5.1-13.8-9.4-21.1-13.3
		c-1.9-1-3.3-1-4.6,1.1c-2.4,4-5.2,7.8-7.6,11.7c-12.1,19.8-23.7,39.8-36.2,59.2C281.1,396.8,280.2,405.7,278.8,416.2z
		 M1074.6,514.8c-0.2,0.4-0.3,0.8-0.5,1.2c3.4,3.8,6.7,7.8,10.2,11.5c10.1,10.6,19.4,21.9,29.2,32.8c9.5,10.7,19.1,21.3,28.3,32.3
		c1.8,2.1,3,2.5,4.9,0c4.5-5.8,9.1-11.5,13.1-17.6c3.7-5.7,3.7-5.7-1.6-9.8c-15.9-12.1-32.2-23.7-47.5-36.5
		C1099.9,519.5,1087,518.3,1074.6,514.8z M322.7,438.5c6.6-2.1,14.5-2,21.1-7.4c10.9-8.8,22.5-16.6,33.8-24.9
		c7.9-5.8,15.7-11.8,23.7-17.6c3.6-2.6,4.8-5.2,1.8-9.4c-3.6-5-7-10.1-10.9-14.9c-4.2-5.2-4.4-5.4-9-0.4
		c-13.4,14.6-26.6,29.3-39.9,44.1c-7.8,8.7-15.5,17.4-23.3,26.1c-0.8,0.9-2.4,1.8-1.6,3.3C319,438.7,320.5,438.6,322.7,438.5z
		 M985.5,539.8c-4.8,4.7-9.8,9.1-11.5,15.9c-4.1,16.1-8.2,32.3-12.3,48.4c-3.1,12.3-6.1,24.6-9.3,36.8c-1.2,4.5,0.1,6.9,4.8,7.8
		c5.6,1.1,11,2.8,16.5,3.8c6,1.1,6.4,0.4,7.2-5.5c1.1-8.8,0.7-17.6,1.1-26.4C983.1,593.6,984.3,566.7,985.5,539.8z M830.9,506.7
		c-0.1,9.9,1.1,11.6,7.6,10.6c26.2-3.9,52.3-7.8,78.5-11.7c7.8-1.2,16-1.4,22.6-6.8c0.9-0.7,2.4-1,2.1-2.4c-0.3-1.4-1.8-1.2-2.9-1.3
		c-10.4-0.7-20.9-1.4-31.3-2.1c-12.8-0.9-25.5-1.9-38.3-2.7c-11.6-0.8-23.2-1.7-34.8-2.3c-6.2-0.3-6.3,0.2-5.6,6.5
		C829.2,498.7,831.7,502.6,830.9,506.7z M188.2,457.2c-7.5-4.8-14-8.8-22.2-9.6c-8.9-0.9-17.7-2.9-26.6-4.4
		c-17.9-3-35.7-6.1-53.6-9.1c-7.8-1.3-7.8-1.2-9.1,6.8c-0.8,5.1-1.4,10.2-2.1,15.3c-0.8,6.1,0.7,7.6,7,7.2
		c23.2-1.3,46.5-2.5,69.7-3.9C163.2,458.9,175.1,458,188.2,457.2z M182.2,501.3c-1.9-0.9-4-0.5-5.9-0.5c-21.3,0.6-42.6,1.5-63.9,1.8
		c-10.7,0.2-21.3,1-31.9,1.1c-3.2,0-4.2,1.2-3.4,4.2c1.6,6.1,2.8,12.3,4.5,18.4c2,7.2,2.5,7.3,9.8,5.5c17.6-4.2,35.3-8.5,53-12.4
		C158.5,516.5,172.6,514,182.2,501.3z M945.5,503.9c-6.5,0.8-11.8,0.8-16.8,3.8c-21.9,13-43.9,25.7-65.8,38.6
		c-4.6,2.7-9,5.6-13.6,8.3c-2.7,1.6-2.5,3.2-1.2,5.7c2.1,3.8,5.7,6.4,7.5,10.5c5.3,12.1,4.4,12.9,15.3,3.1
		c20.3-18.4,40.3-37.2,60.3-55.9C935.7,513.8,940.8,510.1,945.5,503.9z M258.2,655.7c0,0,0-0.1,0-0.1c3.3,0,6.7-0.1,10,0
		c4.7,0.1,7-1.8,6.7-6.8c-0.6-8.6-0.7-17.3-1.2-25.9c-0.6-10.4-1.3-20.9-1.9-31.3c-0.1-2.5-0.8-3.2-3.7-2.8
		c-6.3,1.1-12.8,1.6-19.2,1.9c-6.3,0.2-7,0.4-6.8,6.6c0.6,17.9,1.4,35.9,2,53.8c0.1,3.7,1.7,5,5.2,4.7
		C252.2,655.5,255.2,655.7,258.2,655.7z M916.3,450.4c0,0.1,0,0.2,0,0.3c2.3,0,4.7,0,7,0c1.4,0,2.7-0.2,2.9-2c0.6-4.5-3.6-11-8-12.1
		c-19.2-4.8-38.5-9.6-57.7-14.4c-5.5-1.4-11-2.6-16.5-4.1c-4-1.1-6.4-0.2-7.6,4.3c-1.5,5.6-2.2,11.4-4.3,16.9
		c-2.5,6.5-1.1,8,5.8,8.3C864.1,448.6,890.2,449.4,916.3,450.4z M226.6,413.4c0-2.4,0-4.3,0-6.1c-0.7-28.4-1.3-56.9-2.1-85.3
		c-0.2-6.3-0.5-12.6-1.1-18.9c-0.5-5.9-1.4-6.7-6.8-5c-5.3,1.7-10.5,2.9-16,3.6c-5,0.6-6,3-4.8,7.9c7.2,28.2,14.1,56.5,21.1,84.8
		C218.7,401.2,220.1,408.1,226.6,413.4z M281.7,587.4c-2.9,0.7-7.5-0.9-7.3,4.6c0.4,12.4,0.8,24.9,1.6,37.3
		c0.4,6.6,0.9,13.3,0.9,19.9c0,3.9,1.5,5.7,5.9,5c7.2-1.2,14.4-2.6,21.4-4.7c7.4-2.1,7.7-2.3,6.2-9.6c-3.4-16.8-7.2-33.5-10.7-50.2
		c-0.7-3.4-2.5-4.1-5.7-3.6C289.9,586.7,285.8,586.2,281.7,587.4z M1029.3,547.9c-0.5,6.9-1,13.3-1.5,19.7
		c-1.2,15.8-2.5,31.5-3.7,47.3c-0.9,11.8-1.5,23.6-2.5,35.4c-0.3,3.6,1.1,4.7,4.5,4.5c5.7-0.4,11.3-1.1,16.8-2.3
		c8.2-1.8,8.5-2.4,7.3-10.7c-3-20.3-5.9-40.5-8.7-60.8C1040,569.2,1039.3,557.3,1029.3,547.9z M273.6,405.9c4-5.3,6.6-10.4,7.1-16.4
		c0.5-5.1,1.6-10.2,2.3-15.3c3.6-23.1,7.1-46.3,10.8-69.4c0.6-3.7-0.8-4.7-3.9-5.4c-6.1-1.4-12.5-1.3-18.6-3.1
		c-5.3-1.5-6.7-0.2-6.4,5.4c0.4,8.3,1.2,16.6,1.8,24.8c1.4,20.1,2.6,40.1,4.4,60.2C271.7,392.9,270.9,399.3,273.6,405.9z
		 M922.4,427.5c-0.3-5.5-0.8-10.2-0.7-14.8c0.1-3.8-1.2-6.5-3.8-9.3c-7.5-8-14.6-16.3-22-24.5c-6.1-6.8-12.3-13.5-18.4-20.3
		c-1.9-2.1-3.4-2.2-5.5,0.2c-4.9,5.7-9,11.9-13.6,17.8c-3,3.9-1.8,6.1,1.7,8.8c19.5,14.4,38.9,29.1,58.3,43.6c1,0.8,2,2.3,3.4,1.4
		C923.1,429.5,922.4,427.9,922.4,427.5z M975.5,540.2c-1.8,1.3-2.8,1.8-3.7,2.6c-12.6,10.6-25.1,21.3-37.7,31.9
		c-13.3,11.3-26.6,22.6-40.1,33.7c-3.5,2.9-3.2,5.1,0.1,7.5c3.2,2.4,6.5,4.7,9.8,6.9c10.8,7.1,10.7,7,18.3-3.2
		c15.8-21.4,31.7-42.8,47.7-64.1C973,551.1,974.6,546.4,975.5,540.2z M185.1,447.4c0.2-1.6-0.9-2-1.5-2.6
		c-11-10.6-22.1-21.2-33.2-31.8c-13.1-12.6-26.1-25.2-39.1-37.8c-4.1-3.9-5.8-3.7-8.9,1.2c-2.8,4.4-5.4,8.8-7.9,13.3
		c-3.5,6.5-3.4,6.5,3.2,10.4c24.6,14.8,49.1,29.7,73.7,44.5C175.7,447.1,180.3,448,185.1,447.4z M219.3,414.3
		c-0.1-5.3-1.9-8.8-4.2-12.1c-10.2-14.4-20.4-28.8-30.7-43.2c-8-11.2-16.2-22.4-24.3-33.6c-2.1-2.9-4.1-3.3-7-1.1
		c-5,3.9-10.1,7.5-15.2,11.3c-2.8,2.1-3.3,4.2-0.1,6.7c2.9,2.3,5.4,5,8.1,7.4c13.9,12.3,27.9,24.7,41.9,37
		C198,395.7,208.2,404.7,219.3,414.3z M205.9,586.3c-0.2-2.4-0.8-4.5-2.1-6.6c-2.1-3.2-4.3-6.4-5.9-9.8c-1.8-4.1-3.4-3.4-5.9-0.6
		c-14.4,15.8-28.9,31.6-43.5,47.3c-2.3,2.5-1.6,3.9,0.9,5.4c6.4,3.8,12.8,7.8,19.2,11.6c5.8,3.4,5.9,3.3,9.6-2.4
		c8.7-13.6,17.4-27.2,26-40.8C205,589.1,206,587.9,205.9,586.3z M241.6,644.6c-0.4-4.6-0.8-11.3-0.9-17.9c-0.1-10.3-0.7-20.6-1-30.9
		c-0.1-3.3-0.7-4.5-4.8-3.8c-4.7,0.8-9.5,2.5-14.5,0.6c-3.5-1.3-6,0.3-6.5,4.5c-2.1,16-4.3,32-6.6,48c-0.5,3.3,0.5,4.9,3.8,5.7
		c7.4,1.8,15,3.3,22.6,3.8C241.7,655.2,241.7,655.1,241.6,644.6z M920.5,403.5c1.3-0.9,1.2-1.7,1.2-2.5c1.3-13.1,2.5-26.1,3.7-39.2
		c0.2-2.1,0.4-4.4-1.2-6.2c-6.8-7.5-13.8-14.9-20.6-22.4c-1.5-1.6-2.8-1.8-4.6-0.3c-6.8,5.7-13.5,11.5-19.8,17.8
		c-2.2,2.2-1.9,3.7,0,5.9c10,11.1,19.8,22.4,29.7,33.6C912.9,394.7,916.7,399.2,920.5,403.5z M214.7,397.4c0.3-0.1,0.5-0.3,0.8-0.4
		c-3-11.9-5.9-23.8-8.9-35.7c-4.3-16.9-8.7-33.9-13-50.8c-1-4.2-2.5-6.1-7.2-3.8c-6.5,3.2-12.8,6.9-19.7,9.5
		c-7.5,2.8-7.5,4.1-2.7,10.9c14.4,20.2,28.8,40.4,43.2,60.6C209.7,390.9,212.3,394.1,214.7,397.4z M306.4,585.4
		c3.2,4.1,5.8,7.4,8.4,10.8c8.7,11.3,17.3,22.7,26.1,34c1.2,1.5,2.2,4.3,5.1,2.3c8-5.7,15.6-11.8,24-16.8c1.8-1,2.1-2.2,0.3-4.3
		c-8.6-10.2-18.7-18.8-28.4-27.8c-1-0.9-2.1-1.6-3.6-1.5C328,582.9,317.6,583.3,306.4,585.4z M924.8,506.8
		c-20.5,3-40.1,5.8-59.6,8.7c-8.7,1.3-17.4,2.8-26.1,4.1c-4.5,0.7-6.4,2.6-4.4,7.4c2.6,6.4,5.3,12.6,6.9,19.5
		c1.9,7.9,2.8,8,10.1,3.8c19.3-11.1,38.5-22.4,57.8-33.7C914.4,513.6,919.6,511.2,924.8,506.8z M970.4,560c-2,0.4-2.4,1.6-3.1,2.5
		c-10.1,13.4-20.1,26.9-30.2,40.3c-6.1,8.1-12,16.3-18,24.6c-1.5,2.1-2.7,4.3,0.8,6c7.8,3.8,15.6,7.5,23.7,10.5
		c3.8,1.4,5.3,0.1,6.3-3.7c4.6-18.2,9.5-36.4,14.2-54.6C966.3,577.2,968.3,568.7,970.4,560z M282.9,389c0.4,0.1,0.7,0.1,1.1,0.2
		c6.3-10.2,12.6-20.4,18.8-30.6c8.1-13.2,16-26.5,24.2-39.6c2.5-4,1.9-6.2-2.5-7.8c-6.7-2.4-13.4-5.1-20.1-7.5
		c-7-2.5-7.4-2.1-8.5,5.1c-2.7,16.9-5.6,33.8-8.4,50.7C285.9,369.3,284.4,379.1,282.9,389z M165.1,444.8c-0.1-1.9-1.2-2.2-2-2.7
		c-7-4.2-14-8.4-20.9-12.6c-15.5-9.4-31-18.9-46.6-28.1c-5.3-3.1-6.1-2.7-8.1,3.1c-2.4,6.9-4.5,13.9-7,20.8c-1.5,4.2-0.5,5.9,4,6.6
		c19,3,38,6.4,57.1,9.5C149.4,442.6,157.2,443.6,165.1,444.8z M921.2,434.9c0.2-0.2,0.4-0.4,0.6-0.6c-4.1-3.1-8.2-6.1-12.3-9.2
		c-16.9-12.7-33.9-25.2-50.8-38.1c-3.8-2.9-5.9-2.3-7.8,1.8c-2.4,5.1-5.1,10.1-7.5,15.2c-4.6,9.8-4,10.7,6.5,13.3
		C873.7,423.2,897.4,429.1,921.2,434.9z M313.5,437.3c1.5-1.4,2.4-2.1,3.2-3c10.2-11.2,20.4-22.4,30.5-33.6c12-13.3,24-26.7,36.1-40
		c2.1-2.4,2.5-4.3,0-6.8c-4.2-4.4-4.5-4.5-9-0.1c-15.7,15.6-31.5,31.1-47.2,46.7c-6.8,6.8-13.6,13.6-20.4,20.5c-1,1-3.3,2.7-1,3.9
		C310.6,427.4,312,431.9,313.5,437.3z M1043.2,569.1c-0.3,0.1-0.5,0.3-0.8,0.4c0.6,4.6,1.2,9.2,1.8,13.8c2.9,20.9,5.8,41.8,8.6,62.8
		c0.4,3,1.7,3.6,4.3,2.8c8.1-2.1,15.8-5.1,23.5-8.3c3.4-1.4,4.2-3.1,2-6.4c-5.3-8.3-10.2-16.8-15.3-25.1
		C1059.4,595.8,1051.3,582.4,1043.2,569.1z M346.9,431.4c0.2,0.4,0.3,0.9,0.5,1.3c7.4-1.6,14.9-3.2,22.3-4.8
		c15-3.2,29.9-6.4,44.9-9.7c7.2-1.6,7.4-1.8,4.3-8.7c-2.7-6.1-6-11.9-8.8-17.9c-1.5-3.3-3.5-3.7-6.2-1.8
		c-5.4,3.9-10.8,7.7-16.2,11.7c-8.3,6.1-16.6,12.1-24.8,18.2C357.6,423.5,352.3,427.5,346.9,431.4z M158.4,519.9
		c-0.2-0.3-0.4-0.7-0.6-1c-12.5,2.8-25,5.7-37.4,8.5c-9.7,2.2-19.5,4.3-29.2,6.6c-6.3,1.6-6.7,2.4-4.1,8.2c2.7,6.1,5.7,12,8.4,18.1
		c1.6,3.6,3.2,4.3,6.6,1.7c12.7-9.7,25.7-19,38.5-28.5C146.6,529,152.5,524.4,158.4,519.9z M1108,523.9c5.1,4,10.1,8,15.3,11.9
		c11.9,9.1,23.9,18.2,35.9,27.1c5.2,3.9,6.3,3.5,9.3-2.4c2.8-5.7,5.5-11.4,8.4-17c1.6-3.1,1.4-4.7-2.4-5.6
		C1152.5,532.4,1130.5,527.7,1108,523.9z M973,373.8c0.8-9.3-1.1-17.9-2.2-26.6c-1.7-13.5-3.5-27-5.3-40.5c-0.8-5.8-1.6-6.4-7-4.6
		c-5.2,1.7-10.3,3.7-15.5,5.5c-3.2,1.1-4.1,2.9-2.6,6.1c5.4,11.4,8.7,23.7,16,34.3C962.3,356.4,967.5,365.2,973,373.8z
		 M1059.2,373.3c0.3,0.2,0.7,0.3,1,0.5c3.4-4.4,6.9-8.8,10.3-13.2c9.4-12.1,18.8-24.2,28.1-36.4c3.9-5.1,3.9-7-1.2-8.7
		c-6.3-2.1-12.1-5.1-17.9-8.3c-3-1.7-5.2-1.1-6.1,2.9c-2.6,12.4-5.5,24.7-8.3,37C1063.1,355.8,1061.1,364.6,1059.2,373.3z
		 M212.2,592.9c0.4-2.4-0.5-3.7-2.3-4.3c-1.9-0.7-2.7,0.8-3.5,2.1c-5.1,8.2-10.2,16.3-15.4,24.5c-3.9,6.2-7.8,12.4-11.6,18.6
		c-1.4,2.3-2.3,4.5,1.2,6.1c6.5,3,13.1,5.6,19.9,7.9c3,1,4.5,0.1,4.9-2.9C207.7,627.3,210,609.9,212.2,592.9z M301.4,588.6
		c4.2,18,8.4,36,12.6,54c0.8,3.2,3.1,3,5.5,1.9c6.1-2.7,12.1-5.6,18.2-8.3c2.9-1.3,2.5-3,0.9-5.1c-5.6-7.4-11.2-14.9-16.8-22.3
		c-5.2-6.9-10.6-13.7-15.9-20.5c-0.8-1-1.6-2.4-3.1-2.1C301.3,586.4,301.4,587.5,301.4,588.6z M358.1,579.9
		C358.1,579.9,358.1,579.9,358.1,579.9c-3,0.2-5.9,0.6-8.9,0.9c-1.4,0.2-3.4-0.3-3.9,1.5c-0.4,1.4,1.1,2.3,2,3.2
		c8.3,7.7,16.6,15.3,24.9,23.1c2.5,2.3,4.1,1.7,6.1-0.6c3.4-3.8,5.5-8.7,9.9-11.8c7.5-5.2,7.4-6.9,1.1-13.3
		c-3.3-3.4-6.3-5.6-11.7-4.5C371.3,579.7,364.6,579.5,358.1,579.9z M929.7,366.7c-0.3,0.1-0.6,0.1-0.9,0.2
		c-0.9,8.8-1.6,17.5-2.8,26.3c-1.4,10.5-0.3,19.8,8.9,26.6c1,0.8,1.7,2,2.6,3c4,4.4,8,8.9,12.1,13.3c1.8,2,4.2,2.2,6.3,0.8
		c2.2-1.5,0.3-3.3-0.3-4.9c-2.1-5.4-4.4-10.8-6.5-16.2C942.7,399.4,936.2,383,929.7,366.7z M365.6,519.6c1.8,3,3.9,3.7,5.7,4.8
		c13.4,8.9,27,17.7,40.4,26.6c3.4,2.2,5.5,2.2,6.9-2.2c1.7-5.4,3.9-10.6,5.7-15.9c1.8-5.2,1.1-6.2-4.2-6.8
		c-4.3-0.5-8.7-0.5-12.9-1.4c-3.9-0.8-7.9,1.8-11,0.3C386.6,520.4,376.2,522.3,365.6,519.6z M358.9,465.3c1.3,2.1,3.2,2.4,4.7,3.2
		c7.4,4.1,15.3,7.6,22.2,12.4c6.7,4.7,13.3,7.2,21.7,6c6.9-1,13.9,0,20.9-1.1c4.7-0.8,3.5-4.5,4-7.4c0.5-2.8-1.2-4.8-3.8-4.9
		c-3.3-0.1-6.5-1.4-9.7-1.3c-10,0.4-19.7-2.1-29.5-3.1C379.4,468.2,369.3,467.1,358.9,465.3z M291.9,536.9c-1,0.9-0.8,1.8-0.6,2.6
		c1.8,8.5,3.5,17,5.5,25.4c1,4.3,0.8,9,3.7,12.8c1.1,1.5,2.1,3.1,4.4,2.7c8.4-1.8,17-1.4,25.5-2.7c1.2-0.2,2.6-0.2,3.1-1.4
		c0.6-1.3-0.8-2-1.6-2.8c-9.1-8.5-18.2-17.1-27.3-25.6C300.3,544.1,296.4,540,291.9,536.9z M340.7,458.6c7.7,0.9,15,1.7,22.4,2.5
		c7.3,0.9,14.7,1.8,22,2.7c6.8,0.8,13.7,1.4,20.6,2.3c7,0.9,14,1.5,20.9,2.9c4,0.8,5.3-0.2,5.1-4c-0.1-2-0.3-4-0.4-6
		c-0.2-3.6-1.8-5.4-5.7-5.1c-5.5,0.4-11,0.7-16.4,0.9c-21.8,0.7-43.6,1.4-65.4,2.2C342.8,457,341.7,456.6,340.7,458.6z M270.7,574.2
		c0-1.2-0.2-2.4,0-3.5c1.2-5.8-2.4-10.2-5.7-13.7c-2.7-2.9-6.6,1.5-10,2.2c-1.6,0.3-3.1,1.1-4.7,1.8c-9.7,4.4-9.9,4.7-8.8,15.5
		c0.2,1.8,0.2,3.7,0.2,5.5c0.1,3.4,1.6,4.7,5.2,3.9c4.3-0.9,8.7-1.6,13.1-1.5C270.5,584.5,270.9,584.3,270.7,574.2z M384.1,485.5
		c-0.3-1.7-1.5-2.1-2.5-2.7c-9.6-5.7-19.4-10.9-29.6-15.4c-4.7-2.1-9.5-3.8-14.7-4.4c-1.7-0.2-3.1-0.4-3.8,1.3
		c-1.8,4.7-4.5,6.6-9.6,4.4c-1.2-0.5-3.3,0-4,1.5c-0.9,1.9,1.2,2.6,2.2,3.3c3.8,2.7,7.5,5.3,12.4,5.9c12.7,1.5,25.4,3.5,38.1,5
		C376.6,484.8,380.3,486.1,384.1,485.5z M861.3,67.3c-0.5,0.2-1.2,0.4-1.7,0.8c-7.7,6-13.8,13.4-18.6,21.9c-0.8,1.5-0.5,3.1,0.5,4.2
		c1.4,1.6,2.8,0.1,3.9-0.6c6.4-4.2,12.7-8.6,19.1-12.7c7.3-4.7,15-8.5,22.7-12.4c1.2-0.6,3.9-1.1,1.2-3.3c-2.8-2.4-9.5-2.6-12.7-0.7
		c-4.3,2.4-7.9,8.1-13.8,3C861.8,67.3,861.6,67.3,861.3,67.3z M289.9,408.5c0.2,0.1,0.4,0.3,0.7,0.4c4-3.5,8-7,11.9-10.6
		c17.8-17,35.6-34.1,53.4-51.1c2.6-2.5,5.8-4.5,8-7.5c1.3-1.7,1-2.7-0.5-4.2c-2.5-2.4-3.9-1.1-5.7,0.8c-14.2,15.1-28.6,30-42.8,45.1
		C306.5,390.4,298.3,399.5,289.9,408.5z M273,570.9c0,1.7-0.1,3.3,0,5c0.4,3.5,0.4,7.4,5.7,6.7c5.2-0.6,10.5-1.4,15.7-1.9
		c2.7-0.3,2.8-1.7,2.2-3.8c-0.9-2.8-3.1-4.7-4.8-6.9c-4.1-5.4-8.3-10.8-12.5-16.1c-0.7-0.8-1.6-2-2.9-1.2c-1.3,0.8-0.9,2-0.4,3.1
		c0.9,2,1.2,4.1-0.5,5.5C272.3,564,272.8,567.5,273,570.9z M526.7,562.5c-9.9-5.6-18.3-10.4-26.9-15.1c-5.6-3.1-7-2.4-8.6,3.8
		c-1.1,4.3,0.9,9.3-4.5,13.7C500.6,564,512.9,563.3,526.7,562.5z M451.5,69.2c-6.2-0.8-11,0.1-15.7,0.7c-12.4,1.5-24.6,3.6-36.7,6.7
		c-1.7,0.4-3.5,0.8-3.3,3c0.2,2.4,2.3,2,3.9,2c6,0,11.9,0.4,17.9-0.7c2.3-0.4,4.1-0.8,2.2-3.7c-0.6-0.9-0.6-2,0.4-2.6
		c1-0.6,2.1-0.2,2.6,0.7c1.5,2.9,5,3.3,6.8,5.6c1.5,2,2.9,1.7,4.6,0.4C439.6,77.6,445,73.8,451.5,69.2z M1102.3,445
		c-0.1-0.4-0.2-0.8-0.3-1.2c-11.3,1.4-22.7,2.7-34,4.4c-3,0.5-5.5,2.7-6,6c-0.4,3.1,2.4,4.7,4.3,5.5c3.7,1.6,8.1,2.9,12,0.5
		C1086.5,455.3,1094.4,450.1,1102.3,445z M293.6,568.3c0.4-0.1,0.8-0.3,1.2-0.4c-2.5-11.8-4.8-23.7-7.6-35.4
		c-1.1-4.6-6-6.1-10.4-3.9c-1.2,0.6-2.6,0.9-4.1,1.4c5.6,4.8,7.9,10.6,6.9,17.7c-0.2,1.4-0.2,2.6,0.7,3.8
		C284.8,557.1,289.2,562.7,293.6,568.3z M1053.3,388.3c-0.4-0.2-0.8-0.4-1.2-0.6c-5.9,7.5-11.7,15.1-17.6,22.6
		c-5.4,6.8-4.9,9.3,2.8,13.1c4.4,2.2,7,1.3,8.2-3.4C1048.4,409.6,1050.8,398.9,1053.3,388.3z M926.3,413.3c-0.4,0.1-0.8,0.3-1.2,0.4
		c0.5,6.7,1,13.4,1.6,20.1c0.1,1.4,1,2.7,2.3,3.1c5.9,1.6,11.9,3.2,17.9,4.4c1.7,0.4,3.8-0.6,1.8-2.9
		C941.3,430,933.8,421.7,926.3,413.3z M853.8,61.7c-0.3,0.1-0.7,0.3-1.2,0.5c-6.9,3.6-13.7,7.1-20.6,10.8c-2.2,1.2-4,2.8-2.4,5.6
		c2,3.4,4.2,6.8,8.2,8.2c0.3,0.1,0.9-0.4,1.2-0.7c5-7.2,10.1-14.3,16.8-20.2c0.9-0.8,1-2.1,0.3-3.2C855.6,61.9,855,61.4,853.8,61.7z
		 M518.1,496.1c2.7,0.7,3.6-0.6,3.7-3.1c0-1-0.1-2.1,1.1-2.5c1.1-0.3,2.9,0.4,2.5-1.9c-0.4-2-1.9-2.6-3.6-2.8
		c-5.1-0.7-10.2-1.2-15.2-2.1c-3.6-0.6-4.6,1.5-4.4,4.2c0.2,3.5,2.6,6.8,1,10.6c-0.5,1.3,1.3,1.7,2.4,1.8c2,0.3,3.9,0.5,5.9,0.8
		c2.6,0.4,4.4,0,3.9-3.2C515.1,495.8,516.3,495.6,518.1,496.1z M540.7,555.7c1.2,0,2.3,0.1,3.5,0c4.4-0.4,5.6-2.6,3.1-6.3
		c-3.9-5.8-9.6-8.7-16.6-8.5c-3.8,0.1-6.4,2.4-7.4,5.7c-1,3.3,2.2,4.5,4.5,5.7C531.8,554.6,536.1,555.8,540.7,555.7z M1093.9,517.3
		c0.1-0.2,0.1-0.5,0.2-0.7c-8.1-6.1-16.2-12.1-24.3-18.2c-2.7-2-5.7-1.5-8.6-1.2c-1.3,0.1-2.3,1.5-1.4,2.5c4,4.5,6.7,10.8,12.9,12.7
		C1079.6,514.6,1086.8,515.7,1093.9,517.3z M979.1,410.7c0.2-0.1,0.3-0.2,0.5-0.3c-0.3-2.6-0.6-5.3-1-7.9
		c-1.6-9.4-1.2-19.1-7.4-27.4c-5.4-7.2-9.5-15.3-14.2-23c-0.2,0.1-0.5,0.3-0.7,0.4C963.8,372,971.4,391.4,979.1,410.7z M233.2,537.4
		c0.6-1.9-0.2-3.1-1.7-4.2c-3.6-2.6-8.2-0.7-9.4,4.5c-1,4.3-1.4,8.8-2,13.2c-0.2,1.3-0.6,2.9,0.6,3.7c1.4,1,2.9,0,4.1-0.8
		C230.7,549.9,235.1,545.2,233.2,537.4z M980,390.2c-0.3,0.2-0.7,0.4-1,0.6c0.4,3.9,0.7,7.9,1.4,11.8c0.6,3.9,0.3,8,1.7,11.8
		c1.4,3.7,4.9,5,8,4.3c2-0.4,5.1-3.2,3.5-6.1C989.4,405,984.6,397.6,980,390.2z M218.5,541c-6,6.3-11.1,11.6-16.1,17
		c-3.5,3.8-3.1,4.6,2,5.8c1.9,0.4,3.3,0.2,4-1.8c0.7-2.4,2.4-3.3,4.8-3.7c1.5-0.2,3.2-0.7,3.6-2.2
		C217.9,551.5,218.8,546.9,218.5,541z M922.4,350.3c0.2-0.1,0.5-0.2,0.7-0.3c-2.9-7.4-5.7-14.8-8.7-22.2c-0.6-1.5-1.2-3.6-3.2-3.2
		c-2.4,0.5-4.6,2.1-6.1,4.1c-1.3,1.7,0.6,3.1,1.6,4.2C911.9,338.8,917.2,344.5,922.4,350.3z M496.1,538.2c-0.4,1.9,0.6,3.3,2.4,4.3
		c3.5,2,6.9,4.1,10.4,6c1.2,0.7,2.5,2.1,4,0.6c0.4-0.4,0.6-1.3,0.4-1.8c-0.5-1.8-1.9-2.1-3.6-1.9c-1.2,0.1-2.7,0.2-2.1-1.6
		c0.7-2.1,3-4.7-0.4-5.8c-2.6-0.8-3.7-3.3-6.1-3.9C498,533.4,495.7,534.1,496.1,538.2z M174.1,511.3c0.2,0.4,0.3,0.7,0.5,1.1
		c6.9-1.7,13.8-3.3,20.7-5.1c2.4-0.6,5-0.5,1.5-4.4c-3.5-3.8-6.5-2.5-9.3-1C182.7,504.6,178.5,508.2,174.1,511.3z M971.4,499.7
		c-1.3,0.3-2.5,0.3-3.1,0.9c-0.8,0.8,0,1.9,0.6,2.6c2.9,3.4,5.5,7.1,9.6,9.1c1.4,0.7,3.2,3,4.4,0.2c0.9-2,2.9-4.9,0.1-6.7
		C979.4,503.3,975.2,501.6,971.4,499.7z M1055.5,472c-0.3-1.9-0.5-4.1-1.1-6.1c-1-3.4-3.1-3.5-5.6-1.4c-1.8,1.6-2.8,11.4-1.3,13.3
		c0.3,0.4,0.7,0.7,1.1,0.8C1050.8,479.1,1055.5,474.7,1055.5,472z M1037.8,555.3c-0.9-8.6-1.8-15.7-3.5-22.7
		c-0.3-1.2-1.2-2.7-2.7-2.5c-1.7,0.2-1.4,2-1.6,3.2C1028.5,541.5,1032.3,547.9,1037.8,555.3z M410.3,301.1
		c10.5-8,20.6-16.5,29.4-26.4C429,282.6,418.7,290.8,410.3,301.1z M1002.7,510.3c-3.2,1.9-6,1.5-9.1,0c-4.3-2.1-5.1-1.4-4.7,3.4
		c0.4,3.5,4.9,5.9,8.2,3.9C999.9,515.9,1001.4,513.2,1002.7,510.3z"/>
	<path d="M800.6,116.4c-6.4,2.6-12.8,5.2-19.2,7.9c-16.7,7-33.9,13.1-50.6,20.2c-16.2,6.8-32.6,13.5-48.7,20.6
		c-11.1,4.9-22.5,9.1-34,13c-19.1,6.5-37.3,15.3-56.2,22.2c-21.3,7.7-42.4,15.8-63.5,23.9c-7.8,3-15.3,6.5-22.9,9.8
		c-0.5,0.2-1,0.8-1.3,0.7c-7.3-2.8-12.6,3.6-19.2,4c-0.8,0-1.6-0.1-2.7-0.2c0.2-2.3,1.7-3.1,3.3-3.3c23.4-3.3,44.3-14.1,65.9-22.6
		c29.2-11.6,58.4-23.3,87.7-34.8c38.4-15.1,77-29.9,115.4-45.1c12.7-5,25.6-9.6,37.9-15.5c2.5-1.2,5-2.6,7.9-2.1
		C800.3,115.5,800.5,115.9,800.6,116.4z"/>
</g>
</svg>
