<?xml version="1.0" encoding="utf-8"?>
<!-- Generator: Adobe Illustrator 21.0.2, SVG Export Plug-In . SVG Version: 6.00 Build 0)  -->
<svg version="1.1" id="fitness" xmlns="http://www.w3.org/2000/svg" xmlns:xlink="http://www.w3.org/1999/xlink" x="0px" y="0px"
	 viewBox="0 0 1847.5 1080" style="enable-background:new 0 0 1847.5 1080;" xml:space="preserve">
<path style="fill:#fff" d="M393.5,1080c-16.3,0-32.7,0-49,0c-11.5-1.8-23.1-2.6-34.6-4.5c-85.9-14.7-158.8-53.9-216.5-119
	C31.2,886.3-0.3,803.8,0,709.5c0.1-30,3.7-59.2,12.1-88.2c17.2-59.8,45.8-112.8,89.8-157.1c34.3-34.6,73.6-61.8,118.7-80.5
	c56.3-23.3,114.6-32.1,175.1-26.6c36.4,3.4,71.6,12.1,105.4,26.1c4,1.7,6.5,0.9,8.9-2.5c3.8-5.5,6.5-11.7,11.4-16.3
	c1-0.9,0.5-1.7-0.1-2.6c-3.2-5.3-0.8-9.7,5.5-9.8c1.3,0,2.3-0.3,3-1.4c2.3-3.7,6.3-6.1,8.6-9.5c7.1-10.4,11.8-22.3,18.8-32.9
	c3.3-5,4.6-11.4,7.9-16.5c12.1-19,26.4-36.1,46.5-47.2c3.9-2.2,5.3-4.6,3.6-8.8c-0.6-1.4-1-2.8-1.3-4.3c-1-4.2-2.9-5.3-7.2-3.4
	c-6,2.7-10.7-0.1-11.2-6.1c-0.4-5.2,3.5-6.6,7.4-7.9c6.8-2.2,6.9-2.4,4.7-9.1c-6.8-20.7-13.5-41.5-20.5-62.2
	c-4-11.8-7.2-24-12.7-35.2c-4.3-8.8-10.7-15.2-20.4-17.8c-2.2-0.6-3.8-0.8-5.4,1.8c-2.6,4.3-8,3.7-10-0.8c-0.7-1.6-1.5-2.9-3-3.8
	c-2.3-1.4-2.8-3.3-2.5-5.9c0.7-5.5,0-6.3-5.5-5.7c-11.9,1.4-22.6-0.7-30.9-10c-1.8-2-4.3-2.6-6.7-2.9c-26.8-4.2-49.3-17.8-71.2-32.5
	c-4.1-2.8-4.8-7.1-4.2-11.6c0.6-4.2,4.2-5.4,7.6-6.2c2.7-0.6,5.6-1,8.4-1.1c9.5-0.4,19,0.9,28.3,2.6c42.5,7.6,85.3,6.2,128.1,3.7
	c27.1-1.6,54.2-4,81.4-3.3c11.1,0.3,21.9,2.6,31.8,7.7c5,2.6,10,5.4,13,10.6c2.5,4.3,0.9,6.9-4,7.4c-6.8,0.6-13.6,1.7-20.3,2.1
	c-9.4,0.6-18.8,2.1-28.3,1.6c-1-0.1-2.1-0.3-2.8-0.9c-2.5-2.3-5.5-1.8-8.5-1.8c-8.3,0-14.2,5.3-20.5,9.6
	c-13.8,9.5-27.3,19.3-45.3,18.8c-1.8-0.1-4.2,0.2-4.5,3c-0.3,2.3,0.3,4.2,2.5,5.5c13.7,8.5,21.6,21.1,26.4,36.3
	c9,28.4,18.6,56.7,28,85c0.6,1.7,0.9,3.7,3.3,3.8c5,0.3,5.9,4.9,5.2,7.6c-1.5,5.9,1.8,10.3,3,15.3c1.1,4.7,4.3,5.9,8.7,5.2
	c8.2-1.4,16.6-2.4,24.9-1.8c16,1.2,31.5-2,47.2-3.7c26.5-2.8,52.9-6.7,79.3-10.2c46.6-6.1,93.1-12.8,139.7-18.5
	c33.6-4.1,67-9,100.5-13.5c51.7-6.9,103.4-13.8,155-20.7c13.7-1.8,14.9-3.9,9.7-16.8c-3.3-8.2-5.2-16.4-2.7-25.3
	c1.8-6.4-0.2-12.5-2.1-18.6c-0.7-2.4-2.4-3.4-4.9-3.3c-3.8,0.1-6.9-1.1-8.3-5c-1.5-3.9,0.5-6.3,3.3-8.6c2.5-2,2.9-4.6,2.2-7.7
	c-0.8-3.1-3-4.1-5.9-4.4c-0.7-0.1-1.3-0.2-2-0.3c-3.2-0.8-5.3-2.7-6-5.9c-0.7-3.3,1-5.4,3.5-7.1c1.5-1,2.9-2.1,4.2-3.5
	c8-8.2,17.9-12.9,29.2-10.5c6.7,1.4,12.1,0.1,17.6-2.6c2.4-1.2,6.5-1.5,6.4-4.6c-0.1-3-3.8-4.3-6.5-5.6c-6.7-3.2-7.4-6.7-2-12.1
	c6.2-6.1,14-9.2,22.5-9.4c9.6-0.3,19.3-1.6,28.9-0.4c1.5,0.2,3,0.1,4.3-0.9c7-5.2,15-7.7,23.3-9.8c4.7,0,9.3,0,14,0
	c3.4,2.3,7.1,4.1,11,5.8c6.5,2.8,12.9,6.3,11.1,15.4c-0.4,2.2,1.5,3.2,2.9,4.3c10.5,9,21.1,17.9,31.5,27c3.3,2.8,6.9,5.7,7.7,10.2
	c0.9,4.7,3.7,7.6,7.3,10.2c5,3.7,6,8.8,2.7,12.4c-3.1,3.4-8.7,2.6-12.7-1.8c-0.8-0.9-1.5-1.8-2.2-2.7c-2.5-3.2-5.9-5.3-9.4-7.3
	c-1.3-0.7-2.9-1.3-3.4,0.4c-1.8,6.8-6.4,13-4.5,20.6c2.2,8.6,4.2,17.2,5.4,25.9c4.1,29,3.6,58.1,2,87.3c-2,36.1-5.8,72-14,107.3
	c-0.6,2.8-0.9,5.1,1.8,7.1c1.7,1.3,3.1,3.9,2,5.7c-1.9,3-0.7,5.4,0,8.1c2.3,7.8,4.6,15.6,7,23.5c2.2,7.1,2.2,7.2,9.6,5.2
	c50.2-13.8,101.2-17,152.5-8.3c84.2,14.2,156.7,51,214.1,115.2c70.7,79.2,101.5,171.8,92.1,277.6c-4.8,53.9-22.1,103.7-49.7,150.1
	c-27.5,46.3-63.9,84.2-108.3,114.6c-61.9,42.4-130.7,62.9-205.2,65.4c-29.1,1-57.8-3.3-86.2-9.6c-61.5-13.6-116-41.2-163.1-82.9
	c-49.8-44.2-85.1-97.9-105.2-161.6c-4.4-14-8.4-28.1-10.6-42.6c-4.3-27.9-7.9-55.7-5.6-84.1c3.8-45.3,13.9-89,32.8-130.5
	c23.7-52.1,58.8-95.4,102.2-132.2c14.9-12.7,31.4-23.1,48.2-33c3.2-1.9,4.2-3.8,2.7-7.3c-1.5-3.5-2.3-7.4-3.8-10.8
	c-7.1-16-8.9-34-19.4-48.7c-4.8-6.7-6.4-7.2-11.9-1.2c-20,21.9-39.9,43.8-60.1,65.6c-40.8,44.2-81.5,88.5-121.8,133.1
	c-47.7,52.7-95.8,105.2-143.7,157.8c-10.8,11.8-21.3,23.9-31.8,35.9c-1.5,1.8-3.1,3.3-2.4,6.5c1.7,7.6,6.9,13.3,9.9,20.3
	c2.9,6.6,4.3,13.5,6.3,20.2c1.3,4.4,2.7,5.7,6.8,5.7c19.2,0,38.3,0.1,57.5,0.2c5.2,0,10.3-0.1,15.5,0.6c8.6,1.1,14,5.6,16.4,13.9
	c0.6,1.9,1,4.2,3.6,4c2.5-0.2,2.2-2.5,2.5-4.3c0.6-4,3.3-5.8,7-5.7c3.9,0.1,6,2.3,6.1,6.4c0.3,9,0.8,18,1.1,26.9
	c0.2,6.2-1.6,8.4-7.5,9.8c-1.9,0.5-3.9,0.7-5.9,0.8c-16.2,0.6-32.4,1.4-48.7,1.5c-4.3,0-9.1,0.5-13-2.4c-3.6-2.7-2-6.7-2.6-10.2
	c-0.3-1.6-0.7-3-2.6-3.1c-11.1-0.7-22.3-1.4-33.4-0.4c-3.3,0.3-5.1,2.3-4.5,5.9c0.5,2.8-0.3,5.2-2.1,7.4c-1.7,2.1-2.7,4.6-2.8,7.4
	c-0.1,1.9-0.6,3.6-2,5c-2.3,2.3-3.9,5-4.1,8.3c-0.2,2-1.4,3.3-3,4.4c-2,1.4-3.3,3.2-4.2,5.5c-1,2.8-2.8,4.9-5.3,6.4
	c-1.7,1.1-3,2.5-4,4.3c-3.3,5.9-9.2,9-14.3,12.6c-5.9,4.1-12,8.3-19,11.2c-5.9,2.5-12.1,4.8-18,6.4c-6.2,1.7-13,4.3-20,2.8
	c-1.2-0.3-2.6,0.6-3.9,0.7c-5.9,0.6-11.8,1.9-17.6,1.5c-7-0.5-13.6,2-20.7,1.3c-3.3-0.3-7,1.4-10.6,0c-1.3-0.5-2.7,0-3.8,0.7
	c-2.5,1.5-5,1.7-7.7,0.9c-1.9-0.5-4-0.6-5.9,0.1c-5.9,2.3-12.5-1.6-18.2,2.1c-0.3,0.2-1-0.2-1.4-0.2c-6.7-1-13.5-0.1-20.1,0.4
	c-7.5,0.5-15.1,0.3-22.6,1c-5.5,0.5-11.6-0.4-15.5,5.5c-14,21-29.9,40.3-48.1,58c-51.8,50.3-112.9,82.4-183.7,96.3
	C423.9,1076.4,408.6,1078,393.5,1080z M1764.5,567C1764.5,567,1764.5,567,1764.5,567c-0.3-0.1-0.5-0.3-0.7-0.4
	C1764,566.7,1764.3,566.8,1764.5,567z M670.5,329c0.9,3-0.2,4.8-3.2,5.7c-2.9,0.9-5.7,1.8-8.6,2.7c-1.1,0.4-2.3,0.9-2,2.4
	c0.4,1.8,1.9,1.6,3.2,1.2c1.6-0.4,3.1-1.1,4.7-1.5c3.3-0.8,6.8-3.8,9.7,0.8c0.6,1,1.8,0.4,2.2-0.8
	C678.4,334.8,675.6,330.1,670.5,329c1.4-5.4,1-10.5-2.5-15.1c-1.4-1.9-3.1-3.7-5.8-2.9c-2.6,0.8-4.1,2.8-4.5,5.5
	c-0.2,1.6-0.2,3.3-0.2,5c0,3.4,0.7,7-2.5,9.7c-0.7,0.6-0.8,1.5-0.3,2.3c0.6,0.9,1.6,1.1,2.6,0.8c2.5-0.9,3.7-2.9,3.7-5.4
	c0.1-2.8-0.3-5.6-0.3-8.4c0-2-0.1-4.4,2.5-4.7c2.4-0.3,3.3,1.8,4.1,3.7c0.9,2.1,0.3,4.2-0.4,6.3C666.2,328.7,667.6,329.6,670.5,329z
	 M327.5,822c1.2-1.8,2.5-3.5,3.7-5.3c5.6-8.8,4.9-10.4-5.6-12.1c-0.2,0-0.3-0.1-0.5-0.1c-1.6-0.4-2.7,0.3-3,1.8
	c-0.7,3.6-2.1,7.1-1.5,10.7c0.5,2.7,3.9,2.1,5.6,3.5C326.7,820.9,327.1,821.5,327.5,822c-1.6-0.4-3.2-0.8-4.8-1.2
	c-1.9-0.4-3.4,0-3.8,2.1c-1.2,5.7-2.4,11.3-3.6,17c0.3,0.1,0.7,0.2,1,0.3C320,834.1,323.7,828.1,327.5,822z M678.5,356
	c-2.5,0.7-3.1,1.9-0.9,3.7c1.1,0.9,2.5,1.6,3.5,2.7c1.8,2,2.5,4.3,1.5,6.9c-0.5,1.3-1.4,2.4-2.9,2.4c-2.7-0.1-3.2-2.6-4.3-4.4
	c-1.8-2.9-2.8-6.6-6.4-8c-1.8-0.7-4.4-1.5-5.2,1c-0.9,2.9,1.8,2.4,3.5,2.6c4.6,0.8,5.6,5,7,8.4c1.4,3.4-2.2,2.8-3.8,3.8
	c-0.7,0.5-1.4,1-1.1,2c0.3,1.1,1.2,1.5,2.3,1.5c2.6,0,4.8-1.3,7.2-2.1c7.8-2.5,9.2-5.7,6.2-13.4C683.7,359.9,681.6,357.5,678.5,356
	c3.4-1.3,3.9-3.2,1.4-5.9c-0.9-0.9-2.4-2.1-2.3-3c1-7.2-3.3-3.5-5.9-2.9c-1.9,0.4-3.8,1.2-5.6,2c-2.1,0.9-6.3,0.7-5.5,3.6
	c0.9,3.3,4.2,0.6,6.3,0.1C673.4,348.1,676.5,349.7,678.5,356z M54.5,810.9 M643.6,582.1c-2.5-4.5-5.6-5.4-10.2-2.5
	c-2.6,1.7-5.6,2.9-8.3,4.6c-35.3,22.6-70.7,45.2-106,67.8c-4,2.6-7.9,5.2-12.2,8c2,1.2,3.4,0.6,4.8,0.3c36.8-7.5,73.7-15,110.5-22.7
	c11.8-2.5,23.9-4,35.3-8.6c3.4-1.3,4-3,2.3-6c-0.8-1.5-2.7-2.6-1.5-5.1c3.5,2.1,8.6,2.1,6.9,0.7c-3.1-2.5-5.1-5.5-7-8.7
	c-0.9-5-4.5-9-5.2-13.8C652.1,589.6,647.8,586,643.6,582.1z M330.5,822c-3.6,5.4-7.1,10.9-10.6,16.3c-3.6,5.6-7,11-8.3,17.9
	c-5.9,30.7-12.6,61.3-18.6,92.1c-3.9,20.1-9.2,39.9-11.6,60.3c-0.4,3.4,0.6,4.9,3.7,5.8c15,4.7,30.5,7.1,46,9.2
	c3.5,0.5,5.5-0.9,5.8-4.4c0.5-5.8,1.1-11.6,1.3-17.4c0.6-18,0.9-36,1.5-54c1.1-36.5,2.4-72.9,3.6-109.4c0.2-6.2-4.4-12.7-10.2-15
	C332.1,823.2,331.3,822.5,330.5,822c2.6-0.4,6,2.1,7.6-1.4c1.9-4.1,4.2-4.3,7.8-2.1c1,0.6,3.4,2.1,4-0.6c0.6-2.3,3-5.6-0.4-7
	c-3.3-1.3-5.9-3.3-8.9-5.6c-0.1,2.6,2.8,3.6,2.2,6.3c-4.4-2.8-5.9,0.4-7.7,3.2C333.6,817.3,332,819.7,330.5,822z M1250.9,252.9
	c-0.2-0.9-0.2-1.4-0.4-1.9c-5.2-15.5-10.4-31-15.6-46.4c-0.9-2.6-2.7-3.4-5.5-2.9c-12.9,2.2-25.8,2.5-38.8,2.5
	c-5.8,0-11.6-1.4-17.4-0.6c-63.6,8.3-127.2,16.6-190.8,24.9c-71.4,9.2-142.7,18.8-214,28.7c-30.5,4.2-61.1,8.2-91.6,12.2
	c-9.7,1.3-13,6.5-9.9,15.7c1.2,3.5,2.5,6.9,3.6,10.4c22.6,70.6,46.5,140.8,71.1,210.8c2.5,7.2,3.8,15.3,8,21.4
	c3.5,5.2,7.2,9.1,4.8,15.6c-0.2,0.6,0.4,1.6,0.6,2.4c4.9,14.5,9.7,29.1,14.6,43.6c0.6,1.9,1.3,3.8,3.3,4.7c3.5,1.6,4.3,5.3,3.5,8.1
	c-1.1,4.1,0,7.5,1.2,11.1c2,5.9,2.7,12.3,8.4,16.5c2,1.5,2.3,4.5,1.2,7c-1.3,2.7-0.8,5.1,0.1,7.7c3.9,11.4,7.8,22.7,11.5,34.1
	c1.4,4.3,2.4,8.1,8.2,5.5c0.5-0.2,1.4,0,1.9,0.2c6.7,2.7,14-0.1,21,2.5c3,1.1,7.1,0.2,10.1,3c0.9,0.8,2.6,1.2,3.7,1
	c3.7-0.7,6.3,0.9,9.1,3c4.9,3.5,8.6,3,12.3-1.2c25.9-28.9,51.8-57.8,77.7-86.8c2.2-2.5,4-5.1,4.9-8.5c0.7-3,2.8-5.7,6.4-6.3
	c2.5-0.4,4-2.3,5.5-4c7.6-8.2,14.6-17.1,22.9-24.4c8.1-7.1,9.5-20,21.2-23.7c23.2-25.8,46.4-51.5,69.4-77.4
	c34-38.2,68-76.4,102-114.7c14.9-16.8,29.4-34.1,44.8-50.5c9-9.6,16.9-20.1,25.5-30C1248.9,262.2,1248.8,257,1250.9,252.9z
	 M630.9,290.7c-2,0.4-2.8,2.1-3.7,3.6c-5.8,9.7-11.5,19.5-17.3,29.2c-16.8,27.6-33.7,55.2-50.5,82.8c-1.7,2.7-3.1,4.9,0.8,7.3
	c17.7,10.8,33.6,23.9,48.9,37.9c54.6,49.8,90.8,110.5,109.7,181.8c4.5,17.1,7.5,34.5,9.7,52c0.7,5.5,2.6,6.4,7.7,4
	c3.7-1.8,6.3-4.8,9.2-7.6c1.7-1.6,2-3.1,1.1-5.3c-3.5-9.2-6.8-18.4-10.2-27.7c-0.9-2.5-2.3-4.6-5.3-4.3c-2.1,0.2-3.9,0.4-4.6-2.4
	c-0.6-2.5-1.7-4.7,1.4-6.4c2.6-1.5,2.6-3.9,1.7-6.5c-1.6-4.6-2.9-9.2-4.3-13.8c-0.4-1.1-0.7-2.5,0.8-3c1.6-0.5,2.1,0.9,2.3,2
	c0.4,2.8,1.6,5.4,2,8.2c0.6,3.7-0.7,9.6,6.6,8.2c0.4-0.1,1,0.4,1.3,0.7c1.4,1.7,2.9,3.1,5,1.5c2.1-1.6,0.9-3.7,0.3-5.5
	c-3.5-11.1-6.9-22.3-10.7-33.3c-27.4-79-51.5-159.1-77.5-238.6c-6.5-19.9-13.2-39.8-19.9-59.7C634.4,293.7,634,291.2,630.9,290.7z
	 M331.9,674.3c3.3,0.9,3.6-1.4,3-4c-0.7-3.4-2.1-6.7-2.6-10.1c-2.1-12.8-8.6-22.4-18.1-31.5c-47.1-45-93.5-90.7-140.2-136.2
	c-2.9-2.8-6-5.3-9-7.9c-1.5-1.3-3-1.9-4.8-0.3c-12.7,11.1-24.5,23.1-35.3,36.1c-1.2,1.4-1.8,2.8-0.3,4.4c3,3.1,5.2,6.9,8.3,9.9
	c19,18.2,37.9,36.6,56.8,54.9c30.2,29.2,60.3,58.4,90.5,87.7c2.2,2.2,4.6,3.6,7.7,4.4c8.9,2.1,17.8,4.3,26.7,6.7
	c2.9,0.8,4.4,0.6,4.8-2.7c0.4-2.6,1.5-4.9,4.8-4.5c3.4,0.4,4.4-1.4,4.6-4.3C328.9,675.1,328.6,672.8,331.9,674.3z M1454.1,752.1
	c0.6-4.1-0.9-6-5.2-5.8c-8.8,0.4-17.7,0.1-26.4,1c-7.6,0.8-14.4,3.4-20.3,9.3c-39.9,40.2-80.3,79.9-120.3,120
	c-12.6,12.6-25.9,24.5-37.5,38.1c-2.2,2.6-2.3,4.4-0.1,6.8c11.1,12.3,22.9,23.7,35.8,34.1c2.1,1.7,3.4,1.5,5.5-0.4
	c10.1-9.7,19.6-19.9,29.4-30c42.3-43.9,84.7-87.7,127.1-131.6c1.4-1.4,3.1-2.9,3.6-4.7C1448.9,776.8,1452.3,764.6,1454.1,752.1z
	 M1286.8,693c-29.3,0-58.6-0.1-88,0c-8.8,0-17.7-0.3-26.5,0.4c-3.2,0.3-4.6,1.6-4.9,4.9c-1.6,15.3-0.1,30.6,0.4,45.9
	c0.1,4.2,1.5,7,6.6,6.3c3.1-0.4,6.3,0.3,9.5,0.2c23.3-0.6,46.6-1.3,69.9-1.9c49.8-1.3,99.5-2.7,149.3-4c3.3-0.1,6.2-0.8,9-2.5
	c10.3-6.2,17.7-15.6,26.6-23.3c3.1-2.7,2.7-4.2-0.8-6.1c-10.9-5.8-21.6-11.8-32.3-18c-3.5-2-6.9-2.9-10.9-2.9
	C1358.8,692.4,1322.8,692.1,1286.8,693z M391.4,525c-0.4,0-0.7,0-1.1,0c0-33.3,0-66.6,0-99.9c0-3.5-0.7-6.9-1-10.4
	c-0.2-2.5-1.9-3.3-4.1-3.4c-4.6-0.3-9.3-0.6-13.9-1c-2.8-0.2-4.2,0.7-5.6,3.5c-2.5,4.9-2.2,9.6-1.2,14.5c0.9,4.4,0.2,8.6-0.4,12.9
	c-0.2,1.6-1.1,2.8-2.9,2.9c-1.9,0.1-2.8-1.2-3-2.8c-0.6-4.4-2.1-8.8-0.5-13.3c1.1-3.2,1-6.6,0.6-9.9c-0.7-6.2-2.7-7.9-9-7.7
	c-3,0.1-6,0.4-9,0.7c-8.6,0.8-8.8,0.8-8.6,9.4c0.5,27.8,1.3,55.6,1.9,83.4c0.8,37.8,1.5,75.6,2.4,113.4c0.2,7.5-1,15.7,1.6,22.3
	c4.5,11.1,10.8,21.8,21.1,29.1c2,1.4,4.2,1.7,6,0c3.3-3.2,6.9-6.1,9.3-10.3c4.6-8.1,9.5-16,14.6-23.9c2.2-3.4,3.1-6.8,3.1-10.8
	C391.3,590.6,391.4,557.8,391.4,525z M1454.7,902c-1.3,28.7-0.9,57.3-1.8,86c-0.3,9.8-0.5,19.6,0.2,29.5c0.3,5.1,2.6,7,7.5,7.1
	c12,0.2,24,0.8,36-0.4c14.8-1.4,15-1.4,14.6-16.4c-1.1-38-2.5-75.9-3.7-113.9c-0.9-27.8-1.5-55.6-2.5-83.4c-0.2-5.4,0.9-11.3-2-16.2
	c-6.6-11.2-13.7-22.1-20.6-33.1c-1.4-2.2-2.7-2.6-4.7-0.6c-5.6,5.7-11.4,11.2-16.8,17.1c-3.7,4.1-6.3,8.7-6.3,14.8
	C1454.8,829,1454.7,865.5,1454.7,902z M399.7,683.5c0.7-0.1,1.4-0.3,2.1-0.4c12.4-1.8,24.4-5.4,36.6-7.8c4.3-0.8,7.6-2.8,10.7-5.8
	c30.9-29.7,62-59.1,92.8-88.8c19.1-18.4,39.1-35.8,57-55.3c2.4-2.7,2.3-4.2,0.2-6.6c-8.6-9.7-17.8-18.9-27.6-27.5
	c-11.2-9.8-11.3-9.8-21.5,1c-31.9,33.6-63.5,67.5-95.9,100.6c-19.3,19.8-37,40.6-51,64.5c-4,6.9-5.3,14.3-7.1,21.7
	C395.3,681.8,396.7,683.5,399.7,683.5z M309.8,709.4c-3.8-2.1-3.7-2.1-5-4c-5.6-8-13.3-13-23.1-13.1c-30-0.3-60-0.1-90-0.2
	c-30.5-0.1-60.9-0.5-91.4-0.6c-13,0-26-0.5-39,0.4c-4.2,0.3-5.6,2-6,6.1c-1,12.7-0.4,25.3,0.3,37.9c0.7,13.5-1.6,13.2,14.7,13.8
	c13.1,0.5,26.3-0.3,39.5-0.6c34.1-0.7,68.3-0.9,102.4-1.3c10.8-0.1,21.7-0.1,32.5-0.1c2.9,0,5.1-0.5,6.3-3.6
	c8.1-20.5,24.6-29.7,45.1-33.4C300.6,709.8,305.3,709.8,309.8,709.4z M1509,750.4c-3.2,0.1-2.3,2.2-1.8,3.9
	c1.6,6.1,3.5,12.2,4.9,18.3c1.1,4.7,3.5,8.4,6.9,11.9c38.1,39.4,76.1,78.9,114.2,118.2c14.6,15,28.4,30.8,44.2,44.8
	c3.1,2.7,5.1,2.6,8,0c11.3-10.2,22-20.8,32.1-32.1c2.6-3,2.9-5-0.1-7.9c-2.4-2.3-4.2-5.1-6.7-7.3c-48.2-42.8-96.4-85.6-144.4-128.5
	c-8.1-7.3-16-14.3-27.8-15.1c-4.9-0.3-9.8-2-14.7-3C1518.8,752.4,1513.9,751.4,1509,750.4z M1505.3,422.9c0-4.1-0.1-7.2,0-10.4
	c0.1-3.8-1.6-5.4-5.4-5.4c-3.2,0-6.3-0.2-9.5-0.6c-8.7-1.3-11,2.4-11,10.8c0,6.3,2.3,12.4,0.5,18.8c-0.6,1.9-0.3,4.2-3.1,4.3
	c-2.8,0.1-2.9-2.2-3.4-4.2c-1.2-5.3-0.5-10.5-0.3-15.8c0.5-11.9-1.3-13.5-13.1-13.1c-12.6,0.5-13.3,1.2-12.5,14
	c1.6,29.1,3.4,58.2,5,87.2c2.2,38.7,4.5,77.4,6.2,116.2c0.7,15.4,2.2,30.2,13.1,42.2c0.3,0.4,0.6,0.8,0.8,1.3
	c1.8,3.4,3.5,3.4,5.6,0.1c5.4-8.4,10.9-16.8,16.4-25.1c1.2-1.9,1.7-3.9,1.8-6.1c0.6-13,1.3-25.9,1.8-38.9
	c0.8-20.8,1.5-41.6,2.3-62.4C1502.1,497.8,1503.7,459.9,1505.3,422.9z M1518.2,680.6c7-1.5,14.5-3.2,22-4.8c2.2-0.5,4-1.6,5.6-3.1
	c13.7-12.4,27.5-24.8,41.2-37.1c28.3-25.5,56.8-51,85-76.7c14.9-13.6,30.5-26.3,44.3-41.1c2.2-2.3,2.4-3.7,0.2-6.2
	c-9.3-10.3-19.2-19.9-29.5-29.1c-8.7-7.8-9.4-7.7-17.3,1.2c-48.9,55.5-97.8,111-146.6,166.5c-1,1.1-2,2.2-2.4,3.7
	c-1.9,7.9-3.7,15.9-5.6,23.8C1514.6,680.1,1515.5,681,1518.2,680.6z M1760.9,740c8.5,0.2,16.9,1.3,25.4,0.3c4-0.5,5.6-2.4,5.6-6.1
	c0.3-14.8,0.8-29.6-0.5-44.4c-0.4-4.2-1.9-5.7-6.2-5.5c-26.5,1-52.8,3.5-79.2,5.3c-46.8,3.1-93.6,6.6-140.5,9.9
	c-2.8,0.2-5.8,0.2-8.2,1.7c-8.8,5.4-17.5,10.9-26.3,16.3c-2.7,1.6-2.1,2.8,0.2,4.2c5.3,3.1,10.6,6.3,15.8,9.6
	c2.1,1.3,4.3,1.5,6.7,1.6c25.6,0.9,51.2,2,76.9,2.9C1674.1,737.1,1717.5,738.5,1760.9,740z M1432.1,690.7c4.4,0.3,4.1-1.3,2.8-3.2
	c-2.3-3.5-4.7-6.9-7.1-10.3c-23.1-33.1-44.7-67.1-63.3-103c-1.8-3.4-3.3-6.9-6.1-9.7c-14.1-14.2-27.9-28.7-42.1-42.8
	c-12.3-12.2-23.6-25.4-36.7-36.8c-1.8-1.6-3.2-2.9-5.5-0.8c-13,11.5-25.3,23.6-36.3,37.1c-1.5,1.8-1.6,3.1,0.4,5
	c25.9,23.5,51.7,47.1,77.6,70.6c30.8,28,61.8,55.8,92.3,84.3C1415.6,688.1,1424.7,688.3,1432.1,690.7z M303.2,817
	c-2.1,1.9-4.1,0.7-6-0.3c-4.1-2.3-8-4.5-13-4.7c-3.2-0.1-6.7-2.3-7.6-5c-2-5.9-7.7-7.9-11-12.4c-3.9-5.2-4.4-4.9-9.2-0.3
	c-26.1,24.9-52.4,49.8-78.4,74.8c-15.2,14.7-31.3,28.4-45.4,44.3c-2,2.2-2,3.6-0.1,5.9c10.7,12.6,22.9,23.6,35.5,34.4
	c1.4,1.2,2.7,2.2,4.3,0.4c3-3.3,6.9-5.6,10-8.9c28-29.7,56.1-59.3,84.1-88.9C278.6,843.2,290.9,830.1,303.2,817z M597.2,908.1
	c-0.8-1-1.2-1.5-1.7-2c-51.4-46.4-102.9-92.8-154.3-139.3c-1.8-1.6-3.6-2.9-6-3.4c-8.6-1.8-17.3-3.6-25.9-5.4
	c-2.9-0.6-4.7-0.1-3.9,3.5c2.1,8.9,4.1,17.8,6.1,26.8c0.5,2,1.8,3.5,3.1,5c33.2,35.8,66.3,71.6,99.5,107.4c4.2,4.5,7.6,9.6,15.5,9.5
	c7.2-0.1,14.5,0.5,21.6-0.2c6.2-0.6,12.4,0.4,18.6-0.4c3.4-0.5,7.3,1.2,10.9-0.7c0.8-0.4,2.1-0.4,2.9,0
	C588.2,910.6,592.4,909.3,597.2,908.1z M1304.3,276.4c1.5,6.7,3.1,12.8,7.3,16c2.7,2.1,5.1,3.9,6.4,6.8c2.7,6.3,7.1,12.6,7.2,19
	c0.1,8.1,4.6,14.5,5.4,21.9c1.1,11.5,5.8,21.8,9.1,32.5c2,6.6,2.2,6.6,8.8,4.3c10.3-3.5,10.4-3.6,8.4-13.9c-0.7-3.7-1-7.9-3.4-10.9
	c-1.6-2-1.6-2.9-1.1-5.3c1-5.3,2.8-11.1-3.2-15.4c-3.4-2.5-3.8-7.7-1.1-9.6c2.8-2,5.8-4.7,9.2-4.6c4.7,0.1,5.3-2.5,6.1-6
	c2.7-11.9,3.5-24,5.2-36c0.2-1.3,0.6-3.6,1-3.6c3.7-0.2,2.3-2.4,1.6-3.9c-1-2-0.8-3.9-0.5-5.8c5.1-38.4,6.8-76.9,5.4-115.6
	c-0.3-7.1-0.4-14.4-2-22.4c-1.4,6.7-2.4,12.5-3.9,18.1c-10.2,39-32.4,70-63.5,95.1c-8.7,7-8.6,7.1-4.9,17.8c0.1,0.4,0,0.9,0,1.7
	c-2.4-1.1-3.4-4-6.3-3.9c0,2.4,1.2,4.3,2,6.3c0.8,1.8,3.4,2.5,3,4.9c-0.9,5.8,2.2,9.4,6.7,12.3c1.8,1.2,3.4,2.7,4.2,4.8
	c0.5,1.3,0.3,2.3-1.1,2.9c-1.3,0.5-1.7-0.4-2.2-1.4C1307.2,280.7,1307.1,278.5,1304.3,276.4z M1549.8,672.2c0.2,0.3,0.4,0.7,0.6,1
	c19.6-4.4,39.2-9,58.9-13.3c5.7-1.2,10.6-3.5,15.4-6.7c28.5-19.3,57.2-38.4,85.7-57.8c13.2-9,27-17.1,39.4-27.3
	c3.4-2.8,3.2-5,1.2-8.4c-6.4-10.5-12.9-21-20.4-30.8c-9-11.7-8.8-11.8-19.8-1.9c-44.5,40.1-89.1,80.2-133.6,120.3
	C1568,655.7,1558.9,664,1549.8,672.2z M1522.1,646.7c0.3,0.1,0.5,0.3,0.8,0.4c14.3-16.2,28.6-32.4,42.9-48.7
	c26.5-30.1,53-60.2,79.5-90.3c7.6-8.6,15.3-17.1,22.8-25.9c7.5-8.8,7.4-9.3-1.8-15.9c-0.7-0.5-1.3-1-2-1.5
	c-10.2-7.3-20.8-13.8-31.6-20.1c-4-2.3-6.9-2.7-9.4,1.8c-1.6,2.9-3.9,5.4-5.7,8.2c-26.9,42.1-53.7,84.2-80.6,126.3
	c-1.1,1.7-2,3.4-2.4,5.4C1530.5,606.6,1526.3,626.6,1522.1,646.7z M1555.2,735.5c2.4,1.6,3.5,2.4,4.6,3.1
	c14.7,8.9,29.4,17.7,44,26.7c3.6,2.2,7.4,3.6,11.6,4.4c32.7,6.2,65.4,12.6,98.1,18.7c20.6,3.8,41,8.6,61.9,11.4
	c3.9,0.5,5.3-0.8,6.2-4.3c3.4-13.2,6.5-26.5,8.3-40.1c1.3-10.1,0.5-11.2-9.7-12c-0.2,0-0.3,0-0.5,0c-43.8-1.7-87.5-3.3-131.3-4.9
	c-26.1-1-52.2-1.9-78.4-2.8C1565.6,735.3,1561.1,735.5,1555.2,735.5z M1499.9,634.4c1.5-2,2.1-2.7,2.6-3.5
	c8.8-13.7,17.5-27.6,26.5-41.2c2.7-4.1,4.2-8.5,5.2-13.3c5.7-28.7,11.8-57.4,17.5-86.2c4.4-22.4,9.8-44.6,13.1-67.2
	c0.6-4.1-0.8-5.7-4.5-6.7c-13.6-3.6-27.3-6.2-41.2-7.8c-9.3-1.1-11,0.4-11.3,9.6c-1.7,43.6-3.4,87.2-5.1,130.8
	c-0.8,20.3-1.9,40.6-2.6,60.9C1499.7,617.5,1499.9,625.3,1499.9,634.4z M1565.4,695.6c0.1,0.4,0.2,0.7,0.4,1.1
	c2-0.1,3.9-0.1,5.9-0.3c12.6-0.9,25.2-1.8,37.8-2.7c20.8-1.4,41.5-2.8,62.3-4.3c27.6-1.9,55.1-3.7,82.7-5.9
	c10.3-0.8,20.6-0.5,30.8-2.9c4.1-0.9,5.4-3,4.8-7.1c-1.9-12.7-3.8-25.4-7.5-37.7c-4-13.5-0.9-12.7-16.1-9.4
	c-41,8.8-81.8,18.6-122.7,27.7c-15,3.3-29.6,6.7-42.1,16.6C1590.1,680,1577.5,687.5,1565.4,695.6z M443.7,765.9
	c10.4,9.4,20.1,18.3,29.8,27.1c41.7,37.6,83.4,75.2,125.2,112.8c5.2,4.7,12,3.9,16.3-1.9c6.5-8.9,12.6-18,18.2-27.5
	c6.9-11.8,8.7-8.9-4.2-17.4c-39.5-26.3-79.3-52.3-119-78.4c-2.5-1.7-5.2-2.8-8.2-3.4C482.7,773.3,463.8,768.7,443.7,765.9z
	 M1515.6,785.5c3,11.7,5.9,22.8,8.5,34c1.1,4.5,2.9,8.4,5.4,12.2c23,35.3,45.8,70.8,68.8,106c9.7,14.8,18.5,30.1,29.2,44.1
	c2.2,2.9,3.9,3.2,6.9,1.4c11.7-7,23.2-14.3,34.1-22.7c9.7-7.5,9.9-7.5,1.1-16.6c-49.8-51.7-99.5-103.5-149.3-155.2
	C1519.2,787.6,1518.3,786.1,1515.6,785.5z M450.4,695.6c0.1,0.3,0.3,0.6,0.4,0.8c11.6-0.5,23.2-1,34.9-1.4
	c44.1-1.5,88.2-2.9,132.3-4.4c15.3-0.5,30.6-1.2,45.9-2c9.3-0.5,9.5-1,8.2-10.1c-0.2-1.5-0.4-3-0.7-4.4c-2.2-12.4-3.8-25-7.3-37.2
	c-0.7-2.4-1.3-4.6-4.5-4.1c-4.1,0.6-8.3,1-12.3,1.8c-38.5,7.9-77,15.7-115.4,23.8c-17.6,3.7-35.8,5.5-50.8,17.5
	C471.5,683.4,460.6,689.1,450.4,695.6z M1558.2,760.7c0.3,1.8,1.4,2.4,2.2,3.1c45.2,40.2,90.3,80.5,135.6,120.6
	c7.7,6.8,14.9,14.3,23.6,20c3.9,2.5,5.8,1.4,8.2-1.7c9.2-12.3,17.7-25,25.3-38.4c1.8-3.2,1.4-5.1-1.7-6.9c-3.6-2.1-6.8-4.8-10.4-6.9
	c-39.7-24.1-79.6-48.1-119.2-72.3c-8.5-5.2-17.2-9.2-27.1-10.7C1582.5,765.7,1570.5,763.1,1558.2,760.7z M1456,642.2
	c0.3-0.1,0.7-0.2,1-0.4c0-3.5,0.2-6.9,0-10.4c-2.2-37.9-4.5-75.8-6.6-113.6c-1.5-26.6-2.7-53.2-4.4-79.8c-0.5-8-0.4-16-1.9-23.9
	c-0.7-3.7-2.3-5.3-6.1-4.6c-4.7,0.9-9.6,1.4-14.3,2.3c-8.6,1.7-17.1,3.3-25.8,6.3c1.8,1.9,3.6,2.9,4.3,4.9c0.9,2.1,2.7,3.2,4.7,4.2
	c5.2,2.6,6.1,7.2,2.7,11.9c-2.6,3.6-6.6,4.9-10.5,6.4c-6.5,2.6-6.5,2.6-4.8,9.5c10.9,46,21.9,92,32.8,138c1.2,5.3,3.2,10,6.2,14.5
	C1441.1,619,1448.5,630.6,1456,642.2z M449.8,671.8c0.8,0.4,1.1,0.8,1.3,0.7c24.2-4.8,49.4-6.6,69.2-24c1.2-1.1,2.8-1.8,4.2-2.7
	c33.8-21.6,67.6-43.3,101.4-65c10.2-6.6,9.9-6.6,6.3-16.4c-3-8.5-5.6-17-14.3-21.7c-1.1-0.6-1.7-2-2.5-3.1c-2.5-3.5-5-7.1-7.5-10.6
	c-1.2-1.8-2.5-3.3-4.9-1.7c-2.7,1.9-5.6,3.6-8,5.8c-13.6,12.8-27.1,25.7-40.6,38.6c-32.6,31.2-65.3,62.4-97.9,93.5
	C454.4,667.4,452.1,669.5,449.8,671.8z M1408,685.2c-0.6-3.1-2.3-4-3.6-5.1c-41.9-38.1-83.7-76.2-125.8-114.1
	c-13.8-12.5-27-25.7-41.8-37.1c-2.5-1.9-3.9-1.7-5.7,0.7c-9.9,13.2-19,26.9-26.8,41.5c-2.2,4.1-1.4,6.2,2.9,7.6
	c2.3,0.7,4.3,1.7,6.3,2.9c54.7,31.8,109.4,63.5,164.2,95.3C1386.9,682,1397.6,682,1408,685.2z M316.6,821.6c0.2-2.2,0.1-2.4-1.3-3.4
	c-3.8-2.7-8.2-2.3-11.4,1.2c-35.7,37.8-71.4,75.5-107,113.4c-6.7,7.1-14,13.8-19.9,21.7c-2.5,3.3-1.6,5.1,1.3,7.3
	c11.5,8.8,23.8,16.5,36.3,23.8c2.3,1.3,4.6,3.5,7,3.6c3.1,0.1,2.7-4,4-6.1c26.1-40.8,51.7-82,78.3-122.5
	C312,848.4,313.5,835,316.6,821.6z M258.8,787.1c-0.5-0.8-1-1.8-1.6-2.8c-2.2-3.4-4.2-6.8-5.7-10.5c-2.2-5.6-2.3-5.5-7.1-2.5
	c-35.8,22.5-71.8,44.8-107.5,67.4c-12.6,8-25.8,15.1-37.7,24.4c-3.3,2.5-3.4,4.6-1.5,8c7.3,12.7,15.7,24.7,24.7,36.3
	c3.3,4.2,5.6,5.2,9.8,1.4c1.8-1.6,4-3,5.8-4.7c13.5-12.9,27-25.7,40.5-38.6c25.7-24.5,51.4-48.9,77.1-73.4
	C256.9,790.8,258.7,789.7,258.8,787.1z M1508.7,803.1c-1.7,2.2-1.2,3.8-1.2,5.2c0.6,21.5,1.3,42.9,2,64.4c1.1,37,2,73.9,3.4,110.9
	c0.4,11.4-0.1,23,1.9,34.3c0.6,3.6,2.2,4.3,5.4,3.9c12.9-1.6,25.7-4.2,38.2-7.7c14.4-4.1,13.1-1.4,9.4-16.2
	c-13.3-53.6-27.7-107.1-41-160.7C1523.6,824.2,1515.2,814.7,1508.7,803.1z M394.8,623.8c5.1-8.2,10-16,15-23.8c2.2-3.4,3.7-7,4.5-11
	c11.3-53.6,24.6-106.7,35.1-160.5c1-5.3-0.7-6-4.4-7c-12.7-3.3-25.6-6.1-38.6-8.1c-13.2-2-13.6-1.8-13.5,11.9
	c0.1,16.8,0.5,33.6,0.6,50.5c0.2,47.1,0.2,94.3,0.4,141.4C393.8,619.2,393.3,621.2,394.8,623.8z M1274.6,72.3
	c-12.2-1-21.3,5.3-30.7,10.5c-3.8,2.1-4.4,5-2.9,8.8c2.8,7.1,6.7,13.4,12.7,18.2c1.8,1.4,3.9,2.7,4.7,5c2.3,6.6,5.1,12.9,6.8,19.7
	c3.4,13.6,7,27.1,10.6,40.6c1.9,7.3,2.7,7.7,9.4,4.6c5-2.3,9.6-5.3,14.2-8.4c23-15.7,42.4-34.8,56.5-59.1c2.2-3.8,2.2-7.2,0.9-11.4
	c-2.2-7.2-7.6-10-13.8-12.9c-5.2-2.4-8.9-2.1-12.3,1.9c-2.3,2.7-4.6,2.9-7.4,1.1c-2-1.3-4.1-1.9-6.6-1.2c-3.6,0.9-7-0.2-10-2
	c-5-3.1-10.1-6-14.5-9.7C1286.8,73.6,1281.2,70.6,1274.6,72.3z M280.4,689.7c0.1-0.4,0.3-0.8,0.4-1.3c-7.5-3.9-13.9-9.8-22.3-11.7
	c-37.6-8.8-75.3-17.5-112.9-26.1c-24.5-5.6-48.9-11.8-73.5-16.8c-5-1-6.9,0.7-8.1,5.3c-3,11.8-5.2,23.7-6.4,35.9
	c-1.3,13.8-1.4,13.8,12.5,13.9c68.5,0.3,136.9,0.6,205.4,0.9C277.1,689.7,278.7,689.7,280.4,689.7z M1451.4,793.8
	c-3.2,5.3-7,9.9-8.5,15.8c-14,57.1-28,114.1-41.9,171.2c-2.2,9-4.2,18.1-6.2,27.2c-0.9,4.2,0.7,6.3,5.1,7.4
	c14.6,3.5,29.4,5.8,44.3,7.6c5,0.6,6-1,6-5.3c0.2-16.8,0.7-33.6,0.9-50.4c0.5-56.1,0.9-112.2,1.2-168.4
	C1452.3,797.4,1452.9,795.6,1451.4,793.8z M324,635.6c0.4-0.2,0.8-0.4,1.2-0.6c-1.8-6.9-2.4-14.1-6.5-20.6
	c-18.9-29.6-37.4-59.5-56.4-89.1c-15.8-24.6-30.3-50.1-47.6-73.8c-1.8-2.4-3.1-3-5.7-1.6c-14.4,7.8-27.6,17.4-40.6,27.3
	c-1.5,1.1-2.4,2.5-0.8,4.2c2.5,2.7,4.1,6,6.8,8.6c41.5,40.4,82.9,80.9,124.4,121.4C307.2,619.5,315.7,627.5,324,635.6z
	 M1393.2,689.9c0.1-0.4,0.3-0.9,0.4-1.3c-5.2-3.1-9.9-7-16.1-8.4c-24.8-5.7-49.6-11.7-74.4-17.4c-40.2-9.2-80.1-19.6-120.6-27.8
	c-3.1-0.6-4.7,0-5.5,3.1c-3.5,13.2-7.2,26.3-8.1,40.1c-0.8,12.4-0.9,12.6,11.6,12.6c35.6-0.2,71.3,0.1,106.9-0.5
	c32.5-0.6,64.9-0.3,97.4-0.3C1387.6,689.9,1390.4,689.9,1393.2,689.9z M333.1,632.5c1.4-3.9,0.5-7.5,0.4-11.1
	c-0.7-37.3-1.5-74.6-2.4-111.9c-0.4-16.6-1.3-33.3-1.5-49.9c-0.1-13.9-1.7-27.9,0.4-41.8c0.2-1.5-0.5-2.4-1.5-3.5
	c-2.5-2.5-5.4-2.3-8.4-1.8c-12.4,1.9-24.6,4.3-36.7,7.6c-12.1,3.3-12.1,3.3-8.9,15.6c15.9,59.7,31.8,119.4,47.7,179
	C324.2,621.6,329,626.8,333.1,632.5z M1401.8,747.7c-1-0.1-1.5-0.3-1.9-0.3c-27.6,0.9-55.2,1.9-82.9,2.6
	c-44.3,1.2-88.5,2.2-132.8,3.3c-3.2,0.1-6.3,0.7-9.4,0.7c-5.1,0.1-5.9,2.7-5.1,7.2c2.5,14.4,5.5,28.8,9.4,42.9
	c1.2,4.3,2.8,6,7.3,4.1c2.6-1,5.6-1,8.3-1.7c63.3-17.1,126.6-34.2,189.9-51.4C1390.4,753.7,1396.7,752.9,1401.8,747.7z
	 M368.7,1025.3c0,0.1,0,0.2,0,0.3c7,0,14,0.2,21-0.1c6.9-0.3,7.8-1.3,7.6-8.1c-0.6-17.1-1.4-34.3-2.2-51.4
	c-0.6-13.1-1.3-26.3-1.9-39.4c-0.4-8.3-2.4-9.8-10.6-8.6c-6.8,0.9-13.6,1.8-20.4,1.9c-8.9,0.2-15.1-10.7-10.7-18.3
	c2-3.4,2.4-6.8,0.9-10.5c-0.7-1.7-2.1-3.6-1-5.2c2.8-4.1,3.2-9,5.3-13.3c4.8-10.2,8.3-20.9,12.6-31.3c3.5-8.5,2.7-9.2-6.1-11
	c-2.1-0.4-4.3-0.8-6.4-1.2c-7.1-1.3-10.8,1.6-11,8.7c-1,33.1-2,66.3-3.1,99.4c-0.5,15.8-1.5,31.6-1.6,47.4
	c-0.1,11.6-1.4,23.3-0.6,34.9c0.3,4.1,2.2,5.7,5.9,5.7C353.7,1025.3,361.2,1025.3,368.7,1025.3z M1401,753.3
	c-4.3,0.4-7.3,2.4-10.4,4.3c-53,31.7-106.1,63.4-159.1,95.2c-7.4,4.4-15.1,8.4-21.8,14c-1.8,1.5-2.8,2.6-1.5,4.9
	c8.4,14.1,17.4,27.6,27.9,40.2c1.7,2,3.2,2.5,5.4,0.5c3.6-3.4,7.6-6.4,11.2-10c48.5-48.1,96.9-96.3,145.3-144.5
	C1398.9,756.7,1400.5,755.9,1401,753.3z M1443.9,795.9c-2.3,0.8-3.4,2.5-4.7,3.9c-41.2,42.6-82.5,85.2-123.5,128
	c-9.1,9.5-19,18.2-26.7,29c-2.3,3.2-1.6,4.7,1.3,6.8c9.9,7.4,20.2,14,30.9,20.2c12.6,7.2,12.6,7.2,19.7-4.9
	c32.9-56.5,65.8-113.1,98.8-169.7C1442,805.2,1443.3,800.8,1443.9,795.9z M278,678.6c-2-2.1-2.8-3.1-3.8-4
	c-37.4-36.3-74.8-72.6-112.1-109c-12.5-12.2-25.6-23.8-37.2-36.9c-2.2-2.5-5.1-2.5-7.6,0.7c-7.9,10.1-15.3,20.6-21.5,31.8
	c-7.3,13.2-9.6,10.3,5.2,19.1c51.2,30.5,102.8,60.3,154.1,90.6C261.9,675.1,269.1,676.9,278,678.6z M153.6,750.1c0,0.6,0,1.2,0,1.9
	c-30,0-59.9,0-89.9,0c-4.9,0-6.4,1.5-5.6,6.4c2.1,13,4.6,25.9,8.1,38.6c3,11,3.3,11.2,14.8,8.4c52.9-12.8,105.8-25.5,158.7-38.3
	c8.6-2.1,8.2-2.1,8.7-10.7c0.3-5.3-1.5-6.4-6.4-6.4C212.5,750.2,183,750.1,153.6,750.1z M1383,759.4c-0.2-0.4-0.3-0.8-0.5-1.1
	c-1.9,0.4-3.8,0.8-5.6,1.3c-50.3,13.7-100.6,27.2-150.9,41.1c-13.1,3.6-26.6,6.3-39.3,11.4c-3.7,1.5-4.2,3.4-2.9,6.9
	c4.3,11.6,8.8,23,14,34.2c6.1,12.9,6.7,13,18.9,5.7c52.8-31.5,105.5-63,158.3-94.6C1377.8,762.6,1380.4,761,1383,759.4z M1439,816.4
	c-0.3-0.1-0.6-0.2-0.8-0.3c-0.8,1.4-1.7,2.8-2.5,4.3c-26.6,45.8-53.3,91.5-79.9,137.3c-5.7,9.8-11.8,19.3-16.6,29.6
	c-1.7,3.8-0.8,5.7,2.8,7.4c11.4,5.5,23.3,10,35.3,13.9c13.5,4.4,13.5,4.4,16.9-9.4c6.8-27.8,13.6-55.6,20.4-83.4
	C1422.8,882.7,1430.9,849.6,1439,816.4z M1371.1,676.5c0.1-0.2,0.3-0.5,0.4-0.7c-1-0.6-1.9-1.3-2.9-1.8c-44.6-26-89.2-52-133.9-77.8
	c-9.8-5.6-19.1-12.2-29.7-16.4c-3.5-1.4-5.1-0.6-6.7,2.6c-5.8,11.5-11.2,23-15.3,35.2c-4.5,13.5-4.2,13.9,9.6,17.1
	c24,5.5,48,11.2,72,16.8C1300.1,659.8,1335.6,668.1,1371.1,676.5z M317.2,608c0.3-0.1,0.5-0.3,0.8-0.4c-0.1-0.5-0.1-1-0.2-1.4
	c-13.3-50-26.6-100.1-40.1-150.1c-2.5-9.1-4.4-18.5-7.9-27.3c-1.4-3.5-3.1-4-6.4-2.9c-12,4.1-23.9,8.5-35.2,14.2
	c-12.5,6.3-14.4,3.1-5.3,17.8c22.1,35.9,44.8,71.4,67.2,107C299.1,579.3,308.1,593.7,317.2,608z M251.5,672.6
	c0.1-0.3,0.2-0.6,0.3-0.8c-1.1-0.7-2.1-1.5-3.2-2.1c-40.8-23.9-81.6-47.8-122.5-71.6c-11.2-6.5-22-13.8-33.9-19.1
	c-3.5-1.6-5.4-0.8-7,2.7c-5.5,11.6-10.5,23.4-14.5,35.6c-4.2,12.7-6.5,11.5,8.5,15.1c50.9,12.4,102.1,23.9,153.2,35.8
	C238.7,669.7,245.1,671.1,251.5,672.6z M1529.8,836c-0.3,0.1-0.6,0.2-1,0.3c0.3,1.3,0.5,2.5,0.8,3.8c10.6,41,21,82,31.7,122.9
	c3.6,13.8,6.3,27.9,11.5,41.4c1.7,4.3,3.8,4.5,7.6,3.2c11.5-4,22.8-8.5,33.7-13.9c13.2-6.6,13.2-6.5,5.1-19.1
	c-19.5-30.2-39-60.5-58.5-90.7C1550.5,867.8,1540.1,851.9,1529.8,836z M241.6,770.3c-0.2-0.3-0.3-0.7-0.5-1c-1,0.2-1.9,0.3-2.9,0.6
	c-36.9,8.9-73.8,17.7-110.7,26.8c-17.3,4.3-34.8,7.7-51.7,13.3c-4.3,1.4-4.8,3.4-3.3,7.4c4.4,11.5,9,22.9,14.6,33.9
	c6.1,12.1,6,12.2,17.5,4.9c37.2-23.4,74.5-46.7,111.7-70.1C224.8,780.9,233.2,775.6,241.6,770.3z M405.3,1024
	c16-1.9,31.9-4.9,47.4-9.2c2.8-0.8,3.5-2.3,3.1-5.2c-2-12.5-5-24.8-7.6-37.1c-3.4-16-6.7-31.9-10.1-47.8c-0.5-2.1-0.1-5.5-3.2-5.5
	c-4.5,0-8.9-3-13.7-0.5c-1.8,1-3.9,0.1-5.8-0.6c-1.9-0.8-3.9-0.9-5.8,0c-2.9,1.3-5.7,0.9-8.7-0.1c-4.5-1.5-6.2,0-5.9,4.7
	c1.3,25.2,2.6,50.5,4,75.7c0.4,7.3,1.1,14.6,1.7,21.9C400.8,1023.1,402.2,1024.5,405.3,1024z M1618,772.4c-0.2,0.3-0.3,0.5-0.5,0.8
	c0.7,0.4,1.3,0.9,2,1.3c30.9,18.7,61.9,37.4,92.8,56.1c12.1,7.3,24.2,14.7,36.4,21.8c8.1,4.7,8.6,4.4,12.5-3.8
	c5.1-10.7,9.6-21.6,13.6-32.8c4.3-12,4.3-12.2-8.3-14.7c-18-3.6-36-7-53.9-10.5C1681.1,784.6,1649.6,778.5,1618,772.4z
	 M1536.9,574.9c0.3,0.1,0.7,0.2,1,0.4c0.7-1.1,1.5-2.1,2.2-3.2c16.2-25.4,32.5-50.8,48.6-76.3c10.8-17.2,22.4-33.9,32.3-51.7
	c2.1-3.8,1-5.2-2.4-6.7c-12.6-5.4-25-11-38-15.3c-11.2-3.7-11.4-3.7-13.9,8.1c-7.4,35.4-14.7,70.8-22,106.2
	C1542.1,549.2,1539.5,562.1,1536.9,574.9z M309.3,857.4c-2.7,1.8-3.5,3.8-4.6,5.6c-18.4,28.9-36.9,57.8-55.1,86.9
	c-7.4,11.8-15.5,23.3-22,35.7c-2.2,4.3-1.2,6.6,2.9,8.6c11.3,5.4,22.9,9.9,34.7,14c11.7,4.1,12.3,3.7,14.8-8.6
	c2.3-11.2,4.6-22.5,6.9-33.8C294.3,930,301.7,894.2,309.3,857.4z M1626.5,654.7c2.5,1.5,4,0.5,5.6,0.1
	c34.4-7.9,68.8-15.7,103.2-23.7c12.5-2.9,25.1-5.1,37.3-9.2c4.6-1.6,4.9-3.9,3.5-7.9c-4.4-11.9-9.3-23.5-14.7-35
	c-5.3-11.1-5.7-11.1-16.2-4.1c-28.9,19.4-57.8,38.8-86.7,58.3C1647.9,640.2,1637.5,647.3,1626.5,654.7z M458.2,708.6
	c0.6,1.3,1.7,1.1,2.6,1.3c16.8,2.7,33.6,5.3,50.4,7.9c41.8,6.5,84,10.6,125.6,18c10.8,1.9,21.7,3.7,32.5,5.6
	c2.8,0.5,5.7,0.8,5.7-3.3c0.2-11.2,0.2-22.3,0.4-33.5c0-2.2-0.8-2.6-3.2-3c-5.4-0.8-10.7,1.6-15.7,0.5c-7.1-1.6-13.8,0.5-20.6,0.8
	c-6.8,0.3-13.6-0.3-20.5,0.7c-4.1,0.6-8.9,1.7-13.2,0.7c-6.8-1.5-13.4,0.6-20.2,0.5c-8.2-0.1-16.6,0.9-24.9,0.5
	c-1.7-0.1-3.3,0.2-4.9,0.8c-1.9,0.7-3.9,0.8-5.9,0.3c-6.5-1.6-13.3-0.4-19.6,0.3c-6.3,0.7-12.7,0.1-19,0.8c-8.7,1-17.7-0.6-26.6,1.1
	c-1.1,0.2-2.3-0.2-3.4-0.5c-6.1-1.3-12.4,1.3-18.5-0.5C458.9,707.6,458.5,708.3,458.2,708.6z M515.8,780.4c-0.1,0.3-0.2,0.5-0.4,0.8
	c0.7,0.5,1.3,1,2,1.4c29,19.2,58,38.4,87.1,57.5c10.4,6.8,20.6,14.1,31.6,20.1c4,2.2,5.8,1.1,7.6-2.7c5.6-11.4,10.4-23.1,14.6-35
	c4-11.4,3.7-11.9-8.1-14.4c-18.6-3.9-37.1-7.7-55.7-11.6C568.2,791.2,542,785.8,515.8,780.4z M415,797.1c-1.5,1.4-1,2.4-0.8,3.4
	c3.3,16,6.6,31.9,10.1,47.9c0.8,3.9,0.7,8.1,3,11.5c10.5,15.8,21.1,31.6,31.8,47.2c2.1,3.1,5.5,5.5,9.4,4.3
	c3.7-1.1,7.1-0.8,10.7-0.6c5.2,0.3,10.8,0.8,15.6,0.1c8.5-1.1,16.7,0.5,25.4-0.5C485.1,872.5,450.1,834.8,415,797.1z M536.8,400.8
	c5.5-12.8,13.4-23.6,20.5-34.9c20.6-32.7,40.2-66,60.2-99.1c2.8-4.6,2.9-9.9,2.5-15c-0.3-3.4-2.1-5.3-5.8-3
	c-3.6,2.4-7.4,4.5-10.9,7.1c-15.3,11.7-27.2,26.1-36.2,43.3c-7.1,13.5-15.6,26.3-22.6,39.9c-1.5,2.9-3.1,5.5-0.2,8.6
	c1.6,1.7,1.2,4.4-0.5,5.4c-6.3,3.6-6.5,10.9-10.3,16c-1.4,1.8-2,3.7-0.1,5.9c1.2,1.3,0.6,2.9-1.4,2.2c-3.6-1.4-4.5,1.3-5.5,3.4
	c-1.3,2.7-2.3,5.4-4.7,7.5c-2.4,2-1.2,3.7,1.2,4.9C527.4,395.2,532.2,397.1,536.8,400.8z M467.7,918.9c0.4,0.9,0.6,1.6,0.9,2.1
	c14.3,21.2,28.7,42.5,42.9,63.8c2.6,3.9,5.3,4.3,9.1,1.9c6.6-4.1,13.3-8.3,20.3-11.8c6.6-3.3,12.4-7.6,18.1-12.2
	c2.8-2.3,3.1-4.7,0.8-7.7c-9.1-12.2-19.7-22.9-30.3-33.7c-3.1-3.2-7.6-4.8-12.4-2.6c-1.4,0.7-2.9,1-4.4,0.5
	c-6.8-2.1-13.8-0.2-20.7-0.5C484.3,918.2,476.2,918.6,467.7,918.9z M417.1,586.8c8-10.4,15.4-21.2,22.8-31.9
	c14.9-21.7,28.5-44.2,43.2-66c3.4-5,4.4-9.1,1.6-14.5c-2-4-7.6-7.4-11.9-6.6c-2.9,0.5-5.6-0.7-6-3.7c-0.4-3-2.1-4.3-4.1-5.8
	c-1.6-1.2-3.2-2.4-4.7-3.7c-3.4-3-5.7-7-5-11.3c0.6-4,3.7-6.5,8.4-6.2c0.8,0,1.9-0.8,2.3-1.6c1.5-2.6,3.6-4.3,7.8-5.1
	c-5.5-1.9-9.5-3.3-13.6-4.7c-2.3-0.8-3.8-0.1-4.4,2.4c-1.1,4.2-2.6,8.3-3.6,12.5c-6.5,28.6-12.8,57.2-19.2,85.7
	C426.1,546.3,421.6,566.6,417.1,586.8z M1360,117.6c-0.9,0.7-1.2,0.8-1.4,1c-0.6,0.8-1.1,1.6-1.7,2.5c-18.1,26-40,47.6-68.3,62.4
	c-1.9,1-3.8,2-5.7,3.1c-1.4,0.8-3.9,13-2.7,13.4c5,1.7,4.4,6.6,6.3,10.1c0.9,1.7,1.6,3.2-1.5,3.9c-3.4,0.8-1.7,3.5-1,5.3
	c0.9,2.2,1.3,6.2,4.8,4.7c2.6-1,2.5,0.2,2.9,1.5c0.5,1.7,0.7,3.6,1.1,5.4c1.2,4.8,3,5.6,6.8,2.4c21.6-18,40.3-38.4,51.6-64.6
	C1358.2,152.6,1361.9,135.9,1360,117.6z M442.6,918.4c-4.1-0.3-2.9,2.5-2.5,4.6c2.1,10.4,4.2,20.9,6.7,31.2
	c4.2,17.8,6.8,36,12.4,53.5c1.2,3.8,2.8,4.5,6.5,3.3c13.4-4.7,26.6-9.7,39.2-16.1c6.7-3.4,6.7-3.3,3.5-9.9c-0.4-0.7-0.7-1.5-1.2-2.2
	c-13.7-20.3-27.4-40.6-41-60.9c-1.3-2-3-2.3-5.2-2.9C454.8,917.5,448.7,919.4,442.6,918.4z M431.5,612.9c0.3,0.3,0.6,0.6,1,0.9
	c0.8-1.1,1.5-2.2,2.5-3.1c27.8-29.4,55.6-58.8,83.3-88.3c12.1-12.9,24.8-25.1,36-38.8c2.7-3.3,2.3-5.3-0.9-7.8
	c-6.6-5.1-13.5-9.7-20.4-14.4c-3.7-2.6-5.7-2.1-8.1,2c-17,29.1-34.9,57.6-52.9,85.9C458.5,570.5,445,591.7,431.5,612.9z M735.2,871
	c-1,0.1-3.7,0.7-2.8-3.3c1-4.3-0.9-6.3-5-6.6c-3-0.2-4-1.6-3.3-4.7c0.9-3.6-0.6-5.9-4.4-6.3c-3.7-0.4-4.6-2-2.8-5.3
	c1.6-2.7,0.7-4.9-2.1-6.1c-2.8-1.2-4.3,0.5-5.2,3c-7.4,20.9-16.1,41.2-27.9,60.2c-0.8,1.2-1.9,2.6-0.6,4.1c1.1,1.3,2.9,1.1,4.2,0.6
	c3.7-1.6,7.3-1.5,11.2-0.8c1.5,0.3,3.2-0.5,4.8-0.9c1.5-0.4,2.8-0.9,4.4-0.4c6.9,2.2,13.8-2.1,20.8,0c0.4,0.1,1-0.2,1.4-0.5
	c2.2-1.2,4.4-1.1,6.8-0.5c2.3,0.6,4.6,0.4,6.8-0.5c1.5-0.7,3.1-1.2,4.8-0.6c6.5,2.3,13.2,0.1,19.6-0.3c7.1-0.4,14.4-0.2,21.5-1.8
	c1-0.2,2.1,0,2.4-1.1c0.3-1.1-0.3-1.9-1.2-2.6c-2.5-1.9-4.7-0.7-6.8,0.8c-1.6,1.2-3.5,2.2-4.3-0.6c-1.6-5.7-4.8-6.1-9.4-3.5
	c-1.5,0.8-3.3,0.8-3.3-1.4c0.1-6.3-3.5-6.3-8-4.8c-2.2,0.7-3.5,0.5-3.7-2.2c-0.2-4.4-2.6-6.3-7-5.3c-3.1,0.7-4.4-0.3-4.2-3.5
	C742.2,872.1,740.5,870.3,735.2,871z M1355.4,557.5c0.6-2-0.7-3.6-1.4-5.2c-5.8-13.5-11.2-27-16.2-40.8
	c-6.4-17.9-12.8-35.7-19.2-53.6c-0.8-2.3-1.4-5.4-5-3.1c-11,6.9-21.5,14.5-31.6,22.7c-1.3,1.1-1.9,2.2-0.6,3.8
	c2.3,2.8,4.3,5.9,6.8,8.5c21,21.6,42.1,43,63.2,64.5C1352.7,555.5,1353.6,557,1355.4,557.5z M396.9,818.8c-0.4,0.1-0.9,0.1-1.3,0.2
	c-0.2,3.2-1.4,5.9-3.6,8.1c-1,1-1.1,2.3-1,3.7c0.5,12.3,0.9,24.6,1.5,36.9c0.3,5.2-1.7,11.5,5.9,13.5c0.5,4.9,2.4,10.3,1,14.7
	c-0.9,2.8-3.2,5.4-3.6,9c-0.5,4.9,0.8,6.6,5.7,5.8c1.9-0.3,3.7-1.7,5.8-0.9c6.9,2.7,14-0.3,21.1,1.1c4.9,0.9,6.2-1.6,5.2-6.9
	c-2.8-13.7-5.5-27.4-8.4-41.1c-0.3-1.3-0.6-2.7-1.3-3.7C415,845.5,405.9,832.1,396.9,818.8z M1424,590.5c0-0.5,0-1-0.1-1.5
	c-10.3-43.4-20.7-86.7-31-130.1c-0.9-3.8-0.9-8.5-7.1-6.9c-0.4,0.1-1.1-0.2-1.3-0.6c-2.2-4.7-4.4-2.3-7.4-0.6
	c-6.6,3.9-9,9.4-6.3,16.5c12,31.9,24.2,63.8,36.1,95.8C1410.7,573.6,1417.8,581.8,1424,590.5z M502.5,771.1c2.1,3.5,4.9,5,8.3,5.7
	c27.1,5.6,54.1,11.4,81.1,16.9c22,4.5,43.9,9.7,66,13.3c5,0.8,5.8,0.6,7.7-8.7c1.1-5-2.5-5-5.6-5.4c-44.7-6.2-89.3-12.5-134-18.7
	C518.3,773.1,510.4,772.1,502.5,771.1z M1123.9,464.3c8.1-9.6,19.6-16.1,14.6-30.4c-0.1-0.2,0-0.3,0-0.5c0-2.3,1-2.6,2.7-1.3
	c2.2,1.6,3.8,5,6.8,4.5c3-0.6,4.2-4.1,6.3-6.1c1.3-1.2,2.5-2.7,3.8-4c2.4-2.2,3.1-4.7,2.6-8.1c-1.2-7.6-1.8-15.2-3-22.8
	c-0.6-3.6,0.2-7.5-1.5-11.2c-3.4,2.4-5.1,5.8-7.9,8.1c-5.7,4.6-6.5,10.4-5.2,17.1c0.4,2.2,1.7,5.5-0.3,6.6c-2.2,1.2-3.8-2-5.3-3.6
	c-2.7-2.9-4.7-3-7.2,0.2c-2.7,3.4-5.7,6.5-8.6,9.7c-1.4,1.6-2.1,3.3-2.1,5.4C1120.2,439.8,1122,451.4,1123.9,464.3z M317.8,764.3
	c-0.2-7.2-0.2-7.2-7.1-8.9c-0.3-0.1-0.7-0.2-0.9-0.3c-5.3-3-10.6-1.1-14.3,2.1c-9.8,8.5-18.9,17.8-28.3,26.8
	c-1.1,1.1-2.2,2.4-0.9,3.9c3.5,4.1,7.5,7.6,13.2,8.1c5.3,0.4,10,1.4,13.4,6.2c2.9,4,7.3,3.4,9.5-1.1c1.2-2.5,2-5.3,2.7-8
	c2.2-8,6.1-15.1,10.8-21.8C317.4,768.9,319.2,766.9,317.8,764.3z M535,918.4c-1-0.2-2.2-0.6-2.7,0.5c-0.5,1.1,0.6,1.8,1.2,2.5
	c9.8,10.4,18.8,21.6,29.3,31.4c2.3,2.1,4,2.4,6.4,0.3c11.8-10.3,22.8-21.5,33.1-33.2c0.7-0.8,2.1-1.7,1.4-2.9
	c-0.8-1.4-2.5-0.9-3.6-0.4c-6,2.5-12.9,1.6-18.4,0.9c-7.1-0.8-13.9,1-20.9,0.4C552.4,917.2,543.6,917.6,535,918.4z M1518.1,700.4
	c0.2,0.3,0.3,0.6,0.5,0.9c12.2-1.2,24.5-2.3,36.7-3.4c2.4-0.2,4.4-1.2,6.4-2.5c11.4-7.7,22.9-15.4,34.3-23.1c4.3-2.9,8.6-6,13.3-9.2
	c-1-0.3-1.4-0.5-1.6-0.5c-20.3,4.6-40.5,9.2-60.8,13.7c-1.7,0.4-3.2,0.9-4.5,2.1C1534.3,685.7,1526.2,693.1,1518.1,700.4z
	 M1114.4,430.8c-8.1,9.2-15.5,17.7-23.2,26c-2.9,3.1-4,6.4-3.5,10.4c1.2,9.4,2.4,18.8,3.7,28.2c0.1,1.1-0.2,2.7,1.3,2.8
	c0.7,0.1,1.7-0.9,2.4-1.6c7.4-8.2,14.6-16.4,22-24.5c2.3-2.5,2.3-5.4,1.6-8.4c-0.5-2.3-1.6-2.9-3.3-1c-2.6,2.8-5,5.8-7.6,8.6
	c-1,1-1.8,3.8-3.7,2c-1.5-1.3,0.4-3,1.4-4.3c3-3.6,6-7.1,9.2-10.5c2.6-2.8,2.8-5.8,2.1-9.3c-0.6-2.7-1.6-3.7-3.8-1.2
	c-2.5,2.9-5,5.8-7.7,8.5c-0.8,0.8-1.8,2.7-3.2,1.3c-1.2-1.2,0.2-2.5,1-3.5c2.9-3.4,5.8-6.9,8.9-10.1
	C1115.6,440.6,1116.1,436.4,1114.4,430.8z M1084.1,465.4c-7.4,7.5-14.1,13.6-14.6,23.5c-0.2,3.1-1,6.2-1.6,9.3
	c-0.2,0.9-0.1,2.3-1.4,2.3c-0.6,0-1.4-0.8-1.9-1.4c-0.8-0.9-1.5-1.8-2.1-2.8c-1.9-3.1-3.9-3.1-6.2-0.3c-3,3.6-6.1,7-9.3,10.4
	c-1.8,2-2.2,3.9-0.5,6.2c4.6,5.9,9,11.9,13.6,17.9c1,1.3,2.5,2.3,3.8,0.9c4.5-5,11.1-9,12.4-15.9
	C1079.3,499.5,1081.4,483.1,1084.1,465.4z M1498.1,676.5c5.1-6.1,8.9-11.4,13.5-15.9c5.9-5.8,8.4-12.8,9.8-20.7
	c2.9-16,6.4-31.8,9.7-47.8c-1.8,1.2-3,2.8-4,4.4c-6.4,10.1-12.6,20.4-19.4,30.2c-5.9,8.4-10.2,16.9-9.6,27.5
	C1498.3,661.2,1498.1,668.1,1498.1,676.5z M1191.6,345.2c-9.1,9.6-18.3,18.5-25.4,29.2c-6.2,9.5-3.9,13.7,7.3,14.1
	c3.9,0.1,4.5,1.9,2.4,4.6c-2.8,3.7-5.7,7.4-9,10.7c-3.1,3.1-3.9,6.5-2.6,10.5c0.3,1-0.1,2.7,1.4,2.8c0.7,0.1,1.7-0.9,2.4-1.6
	c6.2-6.1,11.7-12.7,17.1-19.6c4.4-5.6,8.5-11.6,10.3-18.7c0.8-3.3,0.6-6.5-2.5-8.5c-2.3-1.5-4.8-0.4-7.2,0.3c-1.1,0.3-2.4,1-3.2-0.3
	c-0.8-1.2,0.1-2.3,0.8-3.2c2.1-2.6,4-5.4,6.4-7.7C1193.5,354.3,1193.6,350.3,1191.6,345.2z M1042.7,527.2c-3.5,3.8-6.5,7.1-9.6,10.3
	c-1,1-1.8,3.8-3.6,2c-1.4-1.3,0.5-3,1.6-4.2c2.9-3.4,6-6.7,9-10c1.9-2.1,2.7-4.5,2.4-7.3c-0.1-1.3,0.3-2.9-1.3-3.4
	c-1.3-0.4-2,0.9-2.8,1.8c-6.9,7.7-13.8,15.4-20.7,23c-1.8,2-2.3,4.2-2.3,6.8c0.2,10.2,2.1,20.2,3.3,30.2c0.1,1.1-0.2,2.7,1.2,2.9
	c0.7,0.1,1.7-0.8,2.4-1.5c7.4-8.1,14.8-16.2,22.2-24.3c2.1-2.2,2-4.8,1.6-7.5c-0.4-2.5-1.5-3.4-3.6-1.2c-2.7,2.9-5.3,5.9-8.1,8.8
	c-0.8,0.9-1.7,2.8-3.1,1.7c-1.6-1.2-0.3-2.8,0.6-3.9c2.8-3.3,5.6-6.6,8.7-9.6C1044.8,537.7,1045,533.1,1042.7,527.2z M421.3,850.8
	c1.1-1.8,0.8-2.7,0.5-3.7c-2.7-12.7-6.2-25.3-7.9-38.1c-1.7-12.9-6.8-23.4-16.6-31.8c-0.1-0.1-0.2-0.3-0.3-0.4
	c-1.2-1.2-1.9-3.2-4.4-1.8c-2.1,1.1-3.7,1.7-4.1,4.7c-1.3,11,6.9,20.1,5.7,30.9c0,0.1,0.1,0.3,0.2,0.4
	C403.3,824.2,412.1,837.3,421.3,850.8z M973.7,587c-9,9.7-18.5,18.2-25.3,28.9c-6,9.5-4.2,13,6.9,14c3.9,0.4,4.7,1.8,2.3,5.1
	c-2.7,3.6-5.5,7.1-8.7,10.3c-3.1,3-3.3,6.2-2.3,10c0.7,2.8,1.9,2.9,3.7,1c2.5-2.7,4.6-5.7,7.2-8.2c7.1-6.7,12.9-14.3,17.5-22.9
	c1.6-3,2.7-6.1,2.4-9.6c-0.4-4.7-2.8-6.5-7.4-5.5c-1,0.2-1.9,0.6-2.9,0.8c-0.8,0.1-1.8,0.2-2.3-0.3c-1-0.8-0.4-1.9,0.2-2.7
	c2-2.7,3.8-5.6,6.2-7.8C974.9,596.7,975.6,592.7,973.7,587z M267.5,747.1c4.8-0.7,10.4,1.4,14.8-2.2c6.9-5.6,16.5-7.6,21-16.8
	c1.8-3.7,2.1-6.6,0.6-9.7c-1.4-2.7-4-3.8-7.4-3.3c-7.9,1.2-15.1,4-21.9,8c-8.2,4.7-14.3,11.3-18.3,19.9c-1.4,2.9-0.9,4.4,2.6,4.1
	C261.7,747,264.5,747.1,267.5,747.1z M485.6,760.5c4.8,3.7,8.9,7.9,15.3,8.7c31.7,4.2,63.3,8.8,94.9,13.3c7.9,1.1,15.8,2.1,23.8,3.1
	c1.1,0.1,2.5,0.6,3.2-0.5c0.8-1.2-0.5-2.1-0.9-3.1c-1.5-3.5-4.9-4.8-7.8-3.9c-5.7,1.6-10.6,0.3-15.5-2.4c-0.7-0.4-1.6-0.2-2.5-0.3
	c-25.7-3.5-51.4-7.1-77.1-10.6C507.9,763.2,496.8,761.9,485.6,760.5z M978.2,591.3c2.2-0.2,2.9-2,4.2-3c1-0.8,1.6-2.5,3.2-2.1
	c1.6,0.4,1.3,2.2,1.5,3.4c0.9,6.1,1.7,12.2,2.6,18.3c0.3,2.1,0.9,4.1,3.3,1.7c6.9-7,14.7-13.7,10.3-25.3c-0.2-0.5-0.1-1-0.2-1.5
	c-2.1-9.2-2.1-17.6,6.5-24.1c3.9-2.9,3.1-7.1,1-11.7c-10.6,11.6-20.9,22.6-31.1,33.9C976.6,584,977.5,587.7,978.2,591.3z
	 M1598.4,765.9c0.1-0.5,0.2-0.9,0.3-1.4c-14.4-8.7-29-17-43-26.1c-9.1-6-18.7-3.4-28.6-4.1c0.6,1,0.6,1.4,0.9,1.6
	c1.6,1.5,3.2,3,4.8,4.3c10.6,8.8,19.7,20,35.4,20.2c3.8,0.1,7.5,1.4,11.3,2.1C1585.8,763.7,1592.1,764.8,1598.4,765.9z M622.8,41.5
	c-22.9,1-45.4,3.9-67.5,9.6c-4.6,1.2-8.8,3.6-12.5,6.9c7.8,5.7,12.9,5.4,20-0.8c2.7-2.4,9.5-2.2,12.2,0.6c2,2,4.1,2.7,7.1,2.7
	C598.8,60.7,610,49.5,622.8,41.5z M1161,647 M423.3,696.8c5.3,0,9.5-0.2,13.8,0.1c5.2,0.3,9.6-1.3,13.9-4.2
	c11.2-7.5,22.6-14.6,34-21.9c1.3-0.8,2.9-1.4,3.9-3.6c-14.3,3-27.9,5.9-41.5,8.8c-1.1,0.2-2.4,0.6-3.2,1.3
	C437.3,683.6,430.6,689.9,423.3,696.8z M444.6,699c0,0.7,0,1.3,0,2c74.7-1.2,149.4-3.5,224-7.3c0-0.8-0.1-1.6-0.1-2.3
	C593.9,693.9,519.2,696.5,444.6,699z M429.6,867.9c-0.3,0.2-0.7,0.3-1,0.5c2.9,13.6,5.7,27.2,8.6,40.8c0.5,2.2,2.4,2.9,4.3,2.2
	c3.7-1.4,7.3-1.5,11.1-0.2c1.5,0.5,3.6,0.5,4.5-1.2c0.8-1.5-0.8-2.7-1.6-3.9c-4.1-6.1-8.2-12.1-12.3-18.2
	C438.8,881.1,434.2,874.5,429.6,867.9z M1545.4,755.8c0.2-0.4,0.4-0.9,0.6-1.3c-6-5.2-12.4-10-17.8-15.7c-5-5.3-11-5.4-17.3-5.3
	c-3.5,0.1-5.4,2.2-5.4,5.3c0,3.2-1.4,7.8,3.2,8.9C1520.8,750.7,1533.1,753.1,1545.4,755.8z M1495.3,646.2
	c-4.8,7.3-8.9,14.5-13.9,20.9c-4.2,5.5-4.9,10.1,0.1,15.2c1.9,1.9,2.3,5.9,5.9,5c3.5-0.9,5.6-4.1,6.8-7.4c0.8-2.1,0.8-4.6,0.9-6.9
	c0.4-6.5,0.7-12.9,0.9-19.4C1496.1,651.4,1496.7,649.1,1495.3,646.2z M285.6,758.4c-9.5,2.2-19.3,4.5-29.2,6.9
	c-2.5,0.6-2.4,2.4-1.9,4.3c1.1,4.8,3.7,8.8,6.6,12.7c1.1,1.5,2.3,1.9,3.7,0.5c7.5-7.3,15.1-14.5,22.5-21.8c0.4-0.4,0.8-1.2,0.7-1.7
	C287.9,758.2,286.9,758.4,285.6,758.4z M1433,610.8c0.8,18.4,14.9,46.2,26.3,53.3c-1.1-5.6,0.4-11.3-2.4-15.9
	C1449.3,635.5,1441,623.2,1433,610.8z M1552.4,701.2c-0.1-0.3-0.2-0.6-0.3-0.8c-11.8,1.2-23.7,2.5-35.5,3.8
	c-1.3,0.1-2.6,0.7-3.7,1.3c-2.5,1.5-3.4,3.2-0.2,5.1c3.5,2,6.9,4,10.3,6.1c1.7,1,3.4,1.1,5.2,0
	C1536.2,711.5,1544.3,706.3,1552.4,701.2z M1415.6,745.1c13.6-1.4,25.2-6.1,37-10.2c2.4-0.9,2.4-7.5,0.5-10.1
	c-2.2-3.1-4.5-1.7-6.9-0.3c-8.4,5-16.8,10-25.2,15C1419.1,740.7,1417.1,741.6,1415.6,745.1z M437.6,677.8
	c-9.2,2.1-19.4,4.4-29.5,6.7c-2.1,0.5-4.4,1.1-4.3,4c0.1,3,2.1,4.4,4.8,4.8c1.3,0.2,2.7-0.1,3.4,1.5c2.3,5,6.3,3.7,8.9,1.3
	C426.9,690.2,432.2,683.6,437.6,677.8z M829.4,827.2c-7.4,0-13.7,2.5-18.1,6.9c-1.6,1.6-3.9,3.2-2.6,5.9c1.2,2.6,3.8,3.1,6.4,2.9
	c5.7-0.4,11.2-1.6,16.4-4c3.5-1.6,9.4-3.1,8.5-7C838.9,827.8,832.9,827.5,829.4,827.2z M1455.3,778.9c1.2-0.4,1.6-0.4,1.7-0.6
	c5.4-9.5,10.7-19,16-28.6c0.5-0.9,0.5-1.9-0.4-2.7c-3.2-3.2-13.6-0.5-15,3.8C1454.6,759.8,1456.1,769.2,1455.3,778.9z M113.5,901.3
	c-1.1-4.2-3.9-6.1-6.6-8.3c-5.5-4.3-10.5-8.9-10.2-17c0.1-2.6-1.7-5.8-4-6.6c-3.5-1.1-4.8-3.8-6.8-6.1c-1.7-2-4.1-5.1-6.3-3.6
	c-2.3,1.6,0.9,4.3,1.7,6.5c0.3,0.9,0.8,1.9,1.5,2.6c4.4,4.7,7.2,10.3,9.6,16.2C96.1,894.3,103.6,898.9,113.5,901.3z M1195.1,193
	c-11.3-5.1-20.4-11.6-30.9-15.2c-4-1.4-8.6,0.1-13.6,2c8.9,4.5,16.9,8.4,24.8,12.7C1181.4,195.8,1187.4,195.1,1195.1,193z
	 M1215.2,190c-8.5-4.3-16.7-7.9-24.4-12.4c-6.4-3.7-12.6-2.6-20.1-0.9c7.5,4,14.3,7.5,20.8,11.2
	C1198.8,192.1,1206.3,193.3,1215.2,190z M1503.6,790.7c2-12.5,0.2-22.6-9.8-29.9c-2-1.4-3.4-3.6-5.1-5.4c-1.2-1.3-2.3-3.1-4.5-1.2
	c-1.7,1.4-1.9,2.9-0.7,4.8C1490.1,769.2,1496.6,779.6,1503.6,790.7z M1799,763.4c1-0.5,1.2-1.5,1.4-2.5c1.9-11.8,3.5-23.7,2.8-35.7
	c-0.3-5.6-3.9-10.2-7.3-15.4c-1.2,3.5-0.8,5.9,0.1,8.2c3,7.5,3.8,14.9-1.2,22.1c-0.8,1.1-1.3,3.3-0.8,4.3c2.8,5.2,1.1,11,3,16.3
	C1797.3,761.7,1797.5,763,1799,763.4z M785.4,827.6c-0.1-9.2-9.1-18.3-18.4-18.8c-3.5-0.2-3.7,1.7-2.5,4.1
	c3.5,6.9,7.8,13.2,13.8,18.1c1.5,1.3,3.4,2.4,5.5,1.4C785.7,831.3,785.3,829.2,785.4,827.6z M1537.8,679.5
	c-5.1-0.1-8.6,1.1-12.1,1.8c-13.1,2.7-13.1,2.7-15.1,15.9c0,0.2-0.1,0.3-0.1,0.5c-0.1,1.3-0.9,2.7,0.7,3.6c1.4,0.7,2.6,0,3.6-0.9
	C1522.2,693.7,1529.6,687,1537.8,679.5z M433.9,726c4.1,5.2,9.3,7.4,15.4,7.8c5.5,0.3,10.9,1.1,16.4,1.7c14.7,1.5,29.4,2.9,44.1,4.4
	c0-0.2,0.1-0.5,0.1-0.7C484.5,734.8,459.2,730.4,433.9,726z M488.3,766.8c-6-6.4-12.9-8.5-20.6-8.6c-6-0.1-2.4,4.9-4,7.1
	c-1.2,1.6,0.6,1.5,1.3,1.6c11.4,2.5,22.9,4.9,34.9,7.5c-5.3-7.4-13.5-5.4-19.9-8.3C482.6,766.3,485.1,766.5,488.3,766.8z
	 M1520.2,817c0.3-0.1,0.5-0.2,0.8-0.3c-3-11.8-6-23.6-9-35.4c-0.4-1.7-1.7-2.8-3-3.9c-1.2-1.1-2.4-0.9-2.4,0.8
	c0.2,6.4-1.6,13.3,1.3,19.1C1511.3,804.2,1516.1,810.5,1520.2,817z M1429.4,693.2c-1.6,0.2-4.2-0.8-4.9,0.7
	c-0.9,2.1,1.8,3.1,3.2,4.4c4.5,4.2,9,8.4,13.6,12.5c1.2,1.1,2.2,2.9,4.2,1.5c1.7-1.3,2.4-3.2,1.9-5.3
	C1445.6,699.1,1438.1,693.3,1429.4,693.2z M1517.1,659.2c-0.4-0.2-0.8-0.3-1.2-0.5c-5.9,7.2-11.9,14.3-17.7,21.6
	c-1,1.3-2.2,2.9-0.3,4.3c2.1,1.5,13.6-2.9,14.4-5.6C1514,672.4,1515.5,665.8,1517.1,659.2z M681.7,382.8c3.3-0.2,5.9,0.8,7.5,3.8
	c1.5,2.9,1.7,5.8-0.2,8.5c-2.3,3.3-5.9,4-9.7,4c-1.2,0-3.1-0.7-3,1.5c0.1,1.9,1.4,3.3,3.3,2.9c5.5-1.3,11-2.6,16.1-5.1
	c1.1-0.5,2.3-2,0.6-2.5c-4.1-1.1-2.8-4.3-3.3-6.8c-0.8-4.4-2.6-8.7-7.3-9.9c-4.6-1.2-9.2,0-13.2,2.9c-1.1,0.9-1.9,2.1-1.1,3.5
	c1.1,2,2.2,0.4,3.2-0.2C676.9,384,679.1,383,681.7,382.8z M261,761.8c11.4-2.7,22-5.2,32.6-7.8c2.3-0.6,4.1-1.9,5-4
	C283.8,746.2,272.2,752.1,261,761.8z M87.8,860.8c-1-2.7-1.6-5.7-4.1-7.3c-7.5-4.9-9-13.3-12.3-20.6c-0.4-0.9-1.7-2.8,1.1-2.5
	c1.8,0.2,0.9-0.9,0.7-1.4c-2.6-6.2-6.8-11.1-12.9-14.7c-0.7,3,0.1,5.4,1.7,6.6c7.2,5.5,8.3,14.2,11.9,21.6c0.5,1,2,2.9,0.2,3.4
	c-4,1.3-1.2,3.2-0.5,4.4C76.8,855.6,82.4,858,87.8,860.8z M701.3,416.7c-0.5-4.9-1.6-9.5-6-12.5c-1.2-0.8-2.6-1-3.5,0.3
	c-0.9,1.4,0.4,2.1,1.4,2.7c2.7,1.5,4.3,3.7,4.7,6.7c0.3,2.1-0.2,4.2-2.3,5c-2.2,0.9-3.4-0.8-4.3-2.4c-1.3-2.3-2.5-4.7-3.8-7
	c-1.3-2.1-3.1-3.4-5.7-3.3c-1.1,0-2.1,0.3-2.3,1.5c-0.2,1.2,0.6,1.9,1.7,2c4.7,0.5,5.8,4.3,7.6,7.7c1.5,2.7,0.4,3.9-2.3,4.5
	c-1.2,0.3-3.5-0.5-2.8,2.2c0.6,2.2,2.3,2.3,4,1.7c3.3-1,6.6-2.2,9.9-3.3C700.3,421.6,701.5,419.6,701.3,416.7z M1496.7,693.8
	c0,1-0.1,2,0,3c0.5,3.2,1.8,5.8,5.5,6c3.7,0.2,5.3-2,6-5.3c0.6-3.3,1.5-6.5,2.2-9.7c0.2-0.9,0.6-1.9-0.8-2.5
	C1505.1,683.4,1496.7,688.9,1496.7,693.8z M427.6,737.2c10.4,7.3,18.6,17.6,33.5,16C450.2,746.6,442.8,735.1,427.6,737.2z
	 M1369.8,99.7c-4.4,5.2-6.4,8.7-5.9,11.6c2.2,13.5,1.5,26.9-1.7,40.2C1368.1,135.2,1371.1,118.4,1369.8,99.7z M408,734.8
	c10.1,7,17.2,17.3,30.7,15C429.5,743.8,422.7,733,408,734.8z M1503.1,765.7c0-4.3,0-9,0-13.6c0-1.9-1.1-3.1-2.9-3.6
	c-3.4-0.9-6.8-1.2-10.2,0.3c-2.3,1-2.9,2.2-0.9,4C1493.7,757,1498.3,761.3,1503.1,765.7z M1446,667.6c-3.4-13.8-15.5-14.3-25.2-19.2
	C1424.4,661.8,1436.3,662.5,1446,667.6z M1411.5,632.4c2.2,9.4,8.9,12.7,16,15.3c2.5,0.9,6.2,3.9,7.5,1.8c1.6-2.5-2.1-5.4-3.9-7.9
	c-0.5-0.8-1.5-1.4-2.4-1.7C1423.3,637.4,1417.8,635.1,1411.5,632.4z M43.7,699c0.4,5.1-0.9,9.4,1.5,13.3c0.8,1.3,1.4,3.5,3.6,2.6
	c1.8-0.8,0.8-2.6,0.6-4c-0.9-6.8-1.8-13.5,3-19.5c1.4-1.7,1.6-4.5,0.2-6.2c-2.2-2.8-2-5.8-2.1-9c-0.1-1.5-0.5-2.9-0.9-4.4
	c-0.2-0.8-0.8-1.6-1.8-1.3c-0.5,0.1-0.9,0.9-1,1.5c-0.9,3.2,0,5.9,1.1,9.2c2.5,7.4-0.3,15.1-0.3,23.2
	C44.7,703.2,44.9,701.2,43.7,699z M748.5,698.4c-6.4,2.8-11.6,6.9-16.3,11.9c-1.3,1.4-1.5,3.3-1.4,5.2c0.1,1.9-0.9,4.6,1.6,5.1
	c2.6,0.5,4.2-2,4.8-4.1c0.6-2.2,1.4-4.3,3.5-5.1C746.6,709.1,747.2,703.7,748.5,698.4z M338,672.2c0.4,0.2,0.8,0.4,1.1,0.6
	c1.1-4.5,3-6,6.8-3c1.3,1.1,3.4,0.8,4.7-0.3c1.8-1.5-0.1-3-0.7-4.4c-2.2-4.9-6.6-7.8-10.3-11.2c-1.4-1.3-2.6-0.8-2.5,1.1
	C337.2,660.8,337.6,666.5,338,672.2z M273.6,750.5c-0.1-0.4-0.2-0.7-0.3-1.1c-5.4,0-10.8,0-16.2,0c-1.9,0-3.2,1-3.4,2.9
	c-0.3,3.1-1.6,6.2-0.3,9.3c0.4,0.9,1.5,0.5,2.2,0C261.7,758,267.7,754.2,273.6,750.5z M1541.3,731.6c0.1-0.4,0.2-0.7,0.2-1.1
	c-4.5-2.8-9-5.5-13.6-8.3c-3.2-1.9-5.3,0.8-7.6,2.1c-1,0.6-2.2,1.5-1.5,2.8c1.2,2.3,3,4.2,5.7,4.3
	C1530.1,731.7,1535.7,731.6,1541.3,731.6z M1794.9,763.9c-2.3,9.9-3.3,18.9-7.3,27.1c-0.2-1.1-0.4-2.2-0.8-4.1
	c-1.4,6.6-5.1,12.2-0.5,19.1c3.9-9.8,4.9-19.6,7.7-29.2c2.5,2,1,4.7,2.3,6.8C1798.1,777.1,1798.9,771,1794.9,763.9z M284.2,746.3
	c6.5,0.5,11.5,0.6,16.6,0c2.8-0.3,6.5-8.1,5.3-10.7c-0.7-1.6-1.9-1.7-3.2-0.9C297,738.3,291.2,742,284.2,746.3z M773.9,854.5
	c-0.1-0.5-0.1-1.1-0.4-1.4c-4.6-4.1-9-8.4-13.8-12.1c-1.7-1.3-2.5,2.1-4.2,2.6c-1.3,0.4-1,1.6-0.3,2.4c4.1,4.4,8.3,8.7,13.9,11.1
	C771.6,858.3,773.2,857.1,773.9,854.5z M60.1,643.4c2.9-9,2.8-10.9-0.5-15.5c-2.5,8.2-4.2,16.3-5.9,24.4c-0.2,1.1-0.1,2.6-1.4,3
	c-1.4,0.4-0.9-2.1-2.4-1.9c-1.2,4.8-2,9.6,1.8,14.5c2.5-9.7,3.2-19.1,6.2-28.1C59.9,640.7,59.2,642.4,60.1,643.4z M767.4,786.5
	c5.2,4.4,10.6,5,16.1,4.6c1.9-0.1,3-1.6,2.6-3.6c-0.4-2.5-0.2-5.4-2.6-7.2c-0.3-0.2-1.1-0.1-1.4,0.2
	C778.2,784.1,773.1,785.2,767.4,786.5z M353.9,818.8c-0.5,7.6-0.2,7.9,6.2,9.4c3.9,0.9,7.7,1.2,11.6,0c-2-6.1-6.4-8.8-11.9-6.9
	C357.1,822.3,355.5,821.4,353.9,818.8z M1461.1,654.6c-0.2,8.9,0.5,15.8,7.2,20.4c1.3,0.9,2.2,3,4.1,1.3c1.5-1.3,0.8-3.1-0.1-4.5
	C1468.8,666.5,1465.3,661.1,1461.1,654.6z M595.6,29c4.8,3.3,9,6.2,13.3,9.1c1.9,1.3,4,1.7,6.2,1.6c1,0,2.2,0.1,2.6-1
	c0.5-1.2-0.6-1.8-1.4-2.3c-4-2.7-8-5.3-12.1-7.9C601.6,27,598.9,27,595.6,29z M1289.4,273c-1.2,3-0.3,4.8,0.4,6.6
	c0.8,2.2,1.7,4.3,2.5,6.5c3.5,10.2,6.8,20.5,10.3,30.6c0.4,1.2,0.7,3.7,2.6,2.9c1.7-0.7,0.5-2.7,0.1-4c-3.5-9.7-7.1-19.3-10.7-29
	C1293,282.4,1291.4,278.1,1289.4,273z M45.7,750.1c-0.1,6.5,2.5,11.4,6.5,15.6c1,1.1,2.5,2.7,3.5,0.4c1-2.5-0.1-7.3-0.8-7.4
	c-4.6-0.4-3.4-3.9-3.7-6.2c-1-6.4-1.6-12.9-2.3-19.4c-0.5,5.3,0,10.6,0.3,15.9c0.1,1.2,1.1,2.9-0.8,3.4
	C47,752.9,47.2,750.7,45.7,750.1z M407,784.5c0.3-0.2,0.7-0.3,1-0.5c-0.8-3.7-1.6-7.3-2.5-11c-1.3-5.5-2.8-6.5-8.1-5.4
	c-2.7,0.6-3.9,2-1.7,4.4C399.4,776.2,403.2,780.3,407,784.5z M386.8,840.2c-0.4,9.3-0.9,18-1.1,26.7c0,1.7-1.2,4.7,1.9,4.7
	c3.1,0,2.5-3,2.5-5.1c-0.3-7.6-0.6-15.2-1-22.8C389.1,842.6,389.2,841.3,386.8,840.2z M1509.7,711.3c-1.7-0.1-2.1,0.5-2.2,1.4
	c-0.5,3.2,3.9,10.3,7.1,11.1c3,0.7,4.8-1.7,7-3c0.8-0.5,1.1-1.6,0.3-2.1C1517.6,716.1,1513.4,713.6,1509.7,711.3z M1433.6,708.1
	c0.2-0.3,0.4-0.5,0.6-0.8c-3.7-3.4-7.7-6.6-11.1-10.4c-4.2-4.5-9-4.8-15.5-3.3C1416.8,698.8,1425.2,703.5,1433.6,708.1z M583.3,30.2
	c6.4,4.2,10.8,12.7,21.7,9.7C597.5,35.6,592.7,28,583.3,30.2z M1429.9,617.2c-0.3-13.4-5.9-22.9-13.6-31.4
	C1420.1,596.1,1424.2,606.2,1429.9,617.2z M1782.1,828.8c5.8-7.8,2.9-15.5,0.6-24.2C1776.6,813.4,1781.8,821.1,1782.1,828.8z
	 M1798.1,699.4c0.6-1,0.9-1.3,0.9-1.5c0.3-7.2-3.7-14.5,1.1-21.5c0.4-0.6-0.1-2-0.5-2.8c-2-4.3-4.8-8.2-8.6-12.2
	c0.1,1.5,0.2,2.1,0.2,2.7c-0.2,6.8,5.8,11.6,5.5,18.6C1796.5,687.9,1797.6,693.3,1798.1,699.4z M434.3,731.3
	c-4.4-3.3-8.2-7.2-14-7.8c-1.9-0.2-3.8-0.1-4.3,2.2c-0.4,2.1,0.8,3.6,2.8,4C423.9,731,429.1,731.5,434.3,731.3z M749.5,660
	c-1.4-3.9-3.9-6.1-6.3-8.2c-0.8-0.7-2.1-1.5-3.1-0.6c-0.8,0.7-0.2,1.9,0.1,2.8c1.7,4.7,3.3,9.4,5.2,14c1.2,2.9,1.6,6.1,4.1,8.9
	c-0.3-5.1,0.3-9.8-3.7-13.4c-0.9-0.8-0.8-2.5,0.1-3.7C746.8,658.4,747.8,659.5,749.5,660z M297.9,692.8c1.6,2.8,4,4.1,5.9,5.9
	c1.6,1.5,3.2,3.1,5.6,1.7c2.9-1.7,2.1-4.9,1.8-7.2c-0.2-2.4-3-1-4.6-1C304,692.2,301.2,691.8,297.9,692.8z M866.2,783.9
	c5.4,0.9,11.9,2.5,17.9,0.3c4.9-1.8,9.7-2.2,14.6-2.2c4.6-0.1,9.3,0,13.9,0C896.8,781,881.1,779.3,866.2,783.9z M1754.7,559.5
	c-0.2,0-0.4,0-0.5,0c0.1,0.1,0.1,0.2,0.2,0.2C1754.5,559.7,1754.6,559.6,1754.7,559.5z M68.7,846.3 M653,595.9
	c-1-6.4-5.3-10-9.4-13.9c0,1-0.2,2,0.1,2.9c2.9,8.9,7.4,17.2,11.3,25.7c1.1,2.3,2.6,0.9,3.3-0.9C657.4,604.8,653.8,600.8,653,595.9z
	 M1769.3,581c-0.3-0.2-0.6-0.2-0.9,0C1768.7,581,1769,581,1769.3,581z M1784.5,621c-0.1-0.4-0.3-0.7-0.4-1.1c0,0-0.3,0-0.3,0
	C1784,620.3,1784.2,620.6,1784.5,621C1784.5,621,1784.5,621,1784.5,621z M53.6,808.1c-0.1,0.3-0.1,0.6-0.1,0.9
	C53.6,808.7,53.6,808.5,53.6,808.1z M1788.5,625c0.4,0,0.8,0.1,1.3,0.1C1789.4,625.1,1788.9,625,1788.5,625z M1765.4,577
	c0,0,0.5,0.1,0.5,0.1l0.4-0.1C1766,577,1765.7,577,1765.4,577z M1784.5,621C1784.5,621,1784.5,621,1784.5,621
	C1784.5,621,1784.5,621,1784.5,621z M1782.5,622L1782.5,622L1782.5,622z M1781.4,622C1781.4,622,1781.5,622,1781.4,622
	c0.4,0,0.7,0,1.1,0C1782.5,622,1781.8,622,1781.4,622z"/>
</svg>
