<?xml version="1.0" encoding="iso-8859-1"?>
<!-- Generator: Adobe Illustrator 19.0.0, SVG Export Plug-In . SVG Version: 6.00 Build 0)  -->
<svg xmlns="http://www.w3.org/2000/svg" xmlns:xlink="http://www.w3.org/1999/xlink" version="1.1" id="Capa_1" x="0px" y="0px" viewBox="0 0 463 463" style="enable-background:new 0 0 463 463;" xml:space="preserve" width="512px" height="512px">
<g>
	<path d="M383.393,142.564c-6.774-6.753-16.049-10.107-25.432-9.199c-9.392,0.907-17.805,5.907-23.083,13.718l-28.38,41.994   l8.659-122.081c1.104-15.569-8.578-29.663-23.021-33.51c-9.243-2.462-18.948-0.732-26.625,4.747   c-3.715,2.651-6.745,6.021-8.967,9.854V31.5c0-17.369-14.131-31.5-31.5-31.5s-31.5,14.131-31.5,31.5v12.297   c-1.889-4.74-4.926-8.974-8.935-12.36c-6.428-5.43-14.587-8.03-22.969-7.325c-8.384,0.706-15.991,4.635-21.42,11.063   c-5.43,6.428-8.031,14.585-7.325,22.969l3.985,47.304l-3.842-16.302c-3.581-15.193-17.005-25.762-31.952-25.141   c-9.557,0.4-18.306,4.94-24.005,12.456c-5.701,7.519-7.73,17.093-5.568,26.269l34.866,147.947c0.014,0.058,0.028,0.116,0.043,0.174   c6.531,25.023,14.13,42.423,20.237,56.405c6.319,14.469,10.885,24.922,10.885,36.244v32c0,7.023,3.101,13.332,8,17.641V439.5   c0,12.958,10.542,23.5,23.5,23.5h104c12.958,0,23.5-10.542,23.5-23.5v-46.359c4.899-4.31,8-10.619,8-17.641v-71.019l82.032-121.385   C395.318,170.163,393.978,153.117,383.393,142.564z M267.341,62.712c0.349-4.925,2.858-9.397,6.884-12.271   c4.083-2.914,9.072-3.787,14.05-2.462c7.381,1.967,12.505,9.686,11.919,17.955l-2.315,32.641l-32.901-2.559L267.341,62.712z    M157.636,173.137l-5.28-62.683l32.901-2.559l4.884,57.982C178.642,167.82,167.804,170.243,157.636,173.137z M208.545,94.975   c0.166,0.011,0.331,0.025,0.5,0.025h32c0.169,0,0.334-0.014,0.5-0.025v65.601c-11.474,0.531-22.481,1.418-33,2.667V94.975z    M225.045,15c9.098,0,16.5,7.402,16.5,16.5v48.525c-0.166-0.011-0.331-0.025-0.5-0.025h-32c-0.169,0-0.334,0.014-0.5,0.025V31.5   C208.545,22.402,215.947,15,225.045,15z M162.9,39.06c9.074-0.759,17.063,5.991,17.827,15.057l3.271,38.831l-32.901,2.559   l-3.253-38.62C147.08,47.82,153.834,39.823,162.9,39.06z M89.035,85.525c3.03-3.997,7.534-6.316,12.68-6.532   c7.611-0.337,14.822,5.524,16.725,13.595l6.488,27.53l-31.993,8.11l-6.82-28.938C84.982,94.483,86.046,89.466,89.035,85.525z    M273.045,448h-104c-4.687,0-8.5-3.813-8.5-8.5V431h121v8.5C281.545,444.187,277.732,448,273.045,448z M281.545,416h-121v-17.013   c0.167,0.004,0.332,0.013,0.5,0.013h120c0.168,0,0.333-0.009,0.5-0.013V416z M374.149,174.697l-83.318,123.288   c-0.838,1.24-1.286,2.703-1.286,4.2V375.5c0,4.687-3.813,8.5-8.5,8.5h-120c-4.687,0-8.5-3.813-8.5-8.5v-32   c0-14.454-5.357-26.719-12.139-42.247c-5.889-13.485-13.218-30.264-19.447-54.104L96.375,142.83l31.993-8.11l10.506,44.582   c-4.475,1.686-8.799,3.476-12.954,5.38c-3.766,1.726-5.419,6.177-3.693,9.943c1.262,2.753,3.98,4.377,6.822,4.377   c1.045,0,2.108-0.22,3.121-0.684c34.367-15.751,80.965-23.615,138.402-23.326c0.96,0.004,1.787,0.008,2.473,0.008   c4.142,0,7.5-3.358,7.5-7.5s-3.358-7.5-7.5-7.5c-0.666,0-1.469-0.004-2.401-0.008c-3.44-0.017-6.839-0.002-10.206,0.038   l3.479-49.051l32.901,2.559l-5.917,83.422c-0.409,5.768,2.989,10.911,8.454,12.798c5.464,1.887,11.312-0.063,14.549-4.854   l33.402-49.424c2.765-4.091,7.174-6.71,12.097-7.186c4.993-0.486,9.751,1.255,13.399,4.892   C378.213,158.581,378.792,167.828,374.149,174.697z" fill="#FFFFFF"/>
	<path d="M294.653,226.1C294.652,226.1,294.652,226.1,294.653,226.1c-4.942-1.546-9.402-4.347-12.897-8.1   c-3.171-3.404-5.518-7.604-6.786-12.146c-3.048-10.915-12.697-18.301-23.499-17.952c-23.95,0.765-68.534,4.235-98.044,18.88   c-12.922,6.414-19.593,20.885-16.221,35.194l0.232,0.982c0.014,0.06,0.029,0.12,0.045,0.18   c5.874,22.394,12.581,37.751,18.502,51.31c4.477,10.251,8.706,19.934,11.212,30.181C169.843,335.446,179.265,343,190.11,343h58.935   c12.958,0,23.5-10.542,23.5-23.5v-17.316c0-4.909,1.453-9.652,4.201-13.718l26.405-39.072c2.938-4.347,3.698-9.191,2.142-13.64   C303.713,231.241,299.835,227.722,294.653,226.1z M290.723,240.995l-26.405,39.071c-4.431,6.556-6.773,14.204-6.773,22.118V319.5   c0,4.687-3.813,8.5-8.5,8.5H190.11c-3.913,0-7.343-2.852-8.342-6.935c-2.813-11.502-7.293-21.76-12.04-32.628   c-5.691-13.031-12.14-27.798-17.713-49.015l-0.21-0.889c-1.736-7.367,1.751-15.069,8.29-18.314   c26.965-13.383,69.124-16.599,91.855-17.325c4.53-0.134,7.571,3.408,8.572,6.994c1.911,6.843,5.458,13.184,10.258,18.335   c5.266,5.653,11.972,9.869,19.392,12.191c0.313,0.098,0.552,0.203,0.727,0.295C290.853,240.793,290.795,240.888,290.723,240.995z" fill="#FFFFFF"/>
</g>
<g>
</g>
<g>
</g>
<g>
</g>
<g>
</g>
<g>
</g>
<g>
</g>
<g>
</g>
<g>
</g>
<g>
</g>
<g>
</g>
<g>
</g>
<g>
</g>
<g>
</g>
<g>
</g>
<g>
</g>
</svg>
