<?xml version="1.0" encoding="iso-8859-1"?>
<!-- Generator: Adobe Illustrator 19.1.0, SVG Export Plug-In . SVG Version: 6.00 Build 0)  -->
<svg xmlns="http://www.w3.org/2000/svg" xmlns:xlink="http://www.w3.org/1999/xlink" version="1.1" id="Capa_1" x="0px" y="0px" viewBox="0 0 63 63" style="enable-background:new 0 0 63 63;" xml:space="preserve" width="512px" height="512px">
<g>
	<g id="group-21svg">
		<path id="path-1_13_" d="M30.027,52.615c-0.079,0-0.158-0.006-0.238-0.019L4.148,48.492c-0.458-0.073-0.857-0.355-1.08-0.763    C1.062,44.047,0,39.87,0,35.652C0,21.72,11.335,10.385,25.267,10.385c8.594,0,16.522,4.309,21.207,11.527    c0.216,0.334,0.292,0.741,0.209,1.13s-0.318,0.73-0.652,0.946c-0.366,0.237-9.083,5.804-19.244,5.804    c-2.646,0-5.173-0.385-7.526-1.146c-0.187,0.254-0.351,0.583-0.322,0.936c0.037,0.445,0.459,1.652,3.587,3.241    c7.075,3.595,14.39,7.312,8.855,18.937C31.129,52.287,30.598,52.615,30.027,52.615z M5.365,45.649l23.767,3.803    c3.308-7.769-0.536-10.18-7.965-13.955c-3.314-1.683-5.071-3.607-5.222-5.715c-0.173-2.44,1.838-3.924,2.068-4.085    c0.405-0.285,0.923-0.351,1.385-0.179c2.271,0.846,4.757,1.274,7.389,1.274c7.076,0,13.55-3.061,16.266-4.54    c-4.202-5.58-10.741-8.867-17.786-8.867C12.988,13.385,3,23.374,3,35.652C3,39.126,3.816,42.567,5.365,45.649z" fill="#FFFFFF"/>
		<path id="path-2_11_" d="M38.644,37.412c-0.101,0-0.201-0.01-0.299-0.03l-9.939-2.022c-0.674-0.137-1.168-0.715-1.199-1.402    c-0.032-0.686,0.408-1.306,1.066-1.505l20.069-6.03c0.39-0.118,0.808-0.071,1.163,0.127l12.726,7.106    c0.586,0.327,0.884,1.004,0.728,1.657c-0.155,0.653-0.727,1.124-1.396,1.151l-22.857,0.947    C38.685,37.411,38.664,37.412,38.644,37.412z M34.851,33.61l3.913,0.796l17.369-0.719l-7.536-4.208L34.851,33.61z" fill="#FFFFFF"/>
	</g>
</g>
<g>
</g>
<g>
</g>
<g>
</g>
<g>
</g>
<g>
</g>
<g>
</g>
<g>
</g>
<g>
</g>
<g>
</g>
<g>
</g>
<g>
</g>
<g>
</g>
<g>
</g>
<g>
</g>
<g>
</g>
</svg>
