<?xml version="1.0" encoding="utf-8"?>
<!-- Generator: Adobe Illustrator 21.0.2, SVG Export Plug-In . SVG Version: 6.00 Build 0)  -->
<svg version="1.1" id="kinder" xmlns="http://www.w3.org/2000/svg" xmlns:xlink="http://www.w3.org/1999/xlink" x="0px" y="0px"
	 viewBox="0 0 1841 1076.5" style="enable-background:new 0 0 1841 1076.5;" xml:space="preserve">
<g>
	<path style="fill:#fff" d="M84.5,641.9c-2.9,5.2-6.1,8.7-7.7,13.3c-0.5,1.5-1.5,2.6-2.8,3.4c-7.2,4.3-14.1,9.9-22.2,11.9c-6.3,1.6-12.5,2.8-18.2,5.9
		c-8.3,4.4-16.6,8.9-25.5,12c-1.5,0.5-2.8,0.9-4.4,0.8c-1.5-0.1-3.1-0.2-3.6-2.1c-0.5-1.7,0.6-3.1,1.9-3.8
		c13.1-7.1,25.6-15.5,39.8-20.5c3.1-1.1,4.1-2.8,5-5.8c2.2-7.4,5.3-14.6,8.2-21.8c4.9-12.3,10.4-24.4,16.6-36.1c1.7-3.3,1.7-5-2.8-5
		c-6.1,0-7.7-2.1-8-8.3c-0.6-13.5,0.4-26.8,4.1-39.9c1.7-5.9,3.9-7.6,10.3-7.8c8.9-0.3,16.8,2.3,23.7,7.5c3.9,2.9,6.5,2.7,9.3-1.2
		c11.4-15.7,25.2-29.2,39.3-42.4c14.6-13.6,29.9-26.3,46.7-37.1c3.3-2.2,6.5-4.6,10.2-6.2c1.7-0.8,2.5-2.2,2-4.1
		c-0.5-2-2.1-1.9-3.6-1.6c-3,0.7-4.1-0.7-5-3.6c-1.9-5.8-5.4-11.1-4-18.9c-2.2,2.4-1.6,4-1.8,5.3c-0.4,2.7-1.7,4.5-4.5,5.3
		c-3.2,1-6.8,2-8.5-1.3c-2.6-5-6.7-4.7-11.1-4.6c-7.7,0.2-10.9-2.8-11.3-10.9c-0.4-7.1-0.1-14.1-1.6-21.3c-2-9.6,5.2-17.3,15.1-17.9
		c3.7-0.2,7.3-0.2,11-0.1c3.2,0,4.9-0.7,3.1-4.4c-1.2-2.7-1.8-5.7-2.8-8.5c-1.1-3.2-3.4-4.9-6.7-5c-4-0.1-8-0.3-12,0
		c-13,1-25.9-1.5-38.8-2.1c-3.2-0.2-6.6-1.1-9.6-2.4c-2.9-1.3-5-3.8-4.8-7.5c0.2-3.9,2.6-6.3,5.8-7.3c7.4-2.4,15.2-2.9,22.9-3.8
		c3.1-0.4,6.3,0,9.5-0.1c102.1-4.1,204.2-0.9,306.3-1.9c11.4-0.1,22.7,2.5,34.3,2.1c10.2-0.4,19.9-3.1,29.9-4.6
		c5.6-0.9,11.1-1.9,16.7-2.6c2.3-0.3,4.6-0.4,6.8-1.2c4.6-1.7,8.7,0,12.1,2.6c4.9,3.8,3.6,10.2-3.1,13.9
		c-9.5,5.2-19.9,8.4-30.4,10.9c-5.8,1.4-11.3,3.6-17.2,4.7c-4.5,0.8-9.2,1.5-13.7,2.4c-5.9,1.2-5.8,1-5.9,8.9c0,5.2,3.9,7,7,6.4
		c8.1-1.6,15.7,0.6,23.2,1.9c12.3,2,24.9,2,37.2,5.1c6,1.5,12.5,0.5,18.8,1.4c15.4,2.2,30.9,2.9,46.1,6.2c5.6,1.2,10.2,4.6,14.8,7.9
		c14.8,10.6,29.9,20.8,44.3,31.9c11.9,9.2,24.6,17.3,36.3,26.6c7,5.6,15.8,8.8,24,12.6c2.5,1.1,4.7,2.2,6.4,4.5
		c1.8,2.5,4,5.7,7.7,3.3c3.3-2.1,4.5-6,3.4-9.6c-2.3-8.1-5.4-16-7.8-24.2c-0.9-3-2.2-3.5-5-3.2c-5.1,0.5-9.8,0.5-13.1-4.8
		c-3.5-5.6-1.9-12.3,4.2-14.9c0.8-0.3,1.6-0.6,2.3-0.9c6.7-2.9,6.3-2.8,3.7-9.8c-4.3-11.5-8.2-23.1-11.9-34.8
		c-2.9-9.3-6.8-18.3-9.6-27.6c-1-3.3-1.3-6.4-1.4-9.7c0-2.2-0.3-3.8-3-2.3c-4.6,2.7-9.6,2-14.6,2c-3,0-5.9,0.1-8.8,1.4
		c-6.8,3.2-13-0.7-19.3-2.2c-10.5-2.5-18.9-9.4-28.1-14.6c-4.1-2.3-7.9-5.2-13.2-2.8c-2.7,1.2-5.4-0.9-8.2-1.5
		c-9.1-2-17.8-4.8-25-11.4c-2.7-2.5-7.2-1.5-10.8-2.9c-6.8-2.6-13.8-4.4-20.2-8.2c-5.7-3.4-6.4-8.6-6.4-14.1
		c0-13.3,6.1-22.1,17.9-29c13.4-7.9,27.7-8.9,42.1-9.8c19.6-1.2,39.2,1.1,58.9,1.6c19.8,0.5,39.5-2.5,59-6.3c15-2.9,29.9-6,45-8
		c17.6-2.3,35.4-3.8,53.1-0.4c16,3.1,28.2,12,37.8,24.7c3.4,4.5,1.6,11.4-3.6,14c-12.3,6.1-25.3,10.4-38.7,13.7
		c-7.1,1.8-14.1,3-21.3,4.2c-8.3,1.4-15.8,0.6-23.5-1.7c-4.3-1.3-5.8,2.6-7.8,4.9c-9.3,10.5-17.1,22.4-28.8,30.7
		c-2.6,1.8-2.1,3.8-0.6,6c5.8,8.2,7.5,18.1,10.7,27.3c1.1,3.3,2.6,6.4,3.7,9.7c4.3,12.2,8.5,24.4,12.7,36.6c1,3,2.4,5.1,6,4.8
		c1.2-0.1,2.7,0.1,3.1,1.2c1.8,4.9,5.8,10.9,4.3,14.6c-2.5,6,0.1,10.2,1.7,14.6c7.6,20.7,14.6,41.7,21.5,62.6
		c6.6,19.7,13.7,39.2,20.5,58.8c7.4,21,14.7,42,22,63.1c2.4,7.1,6.4,10.1,14,10.1c9.8,0,19.7,0.5,29.5-0.2c15.5-1.1,30.9-3.7,45.9-8
		c11-3.2,22.2-5.8,33.4-7.9c4.1-0.8,7.8-2.7,11.6-4.4c9.5-4.3,16-11.9,22.7-19.5c10.8-12,22.2-23.5,33.4-35.1
		c13.8-14.2,26.9-29,39.7-44.1c9.4-11.1,18.6-22.5,27.6-34c11.1-14.1,21.5-28.7,31.9-43.3c10.1-14,19.9-28.2,29-42.8
		c8.4-13.5,17.3-26.7,25.1-40.4c7.7-13.6,16.1-26.8,23.2-40.7c5.6-10.9,12-21.5,17.7-32.4c5.4-10.4,12.1-20.1,16.9-30.9
		c1.7-3.7,1.3-7.4,0.2-11.2c-0.5-1.6-1.2-2.4-2.8-3c-6.1-2.5-7.2-7.5-3-12.7c2.4-3.1,2.8-6.1,0-9.3c-3-3.5-2.3-7.7-0.6-11.2
		c2.2-4.6,2.2-8.7,0.5-13.3c-8.4-22.1-16-44.6-26-66c-1.3-2.8-2.2-5.9-3.4-8.8c-0.5-1.4-0.5-2.5,0.3-3.8c1.5-2.6,2.8-5.3,4.4-7.8
		c3.2-5.1,3.3-5.8-2.4-6.9c-6.2-1.2-11-5.1-16.8-7c-6.2-2-11.7-1.8-17.5,0c-1.6,0.5-3.2,1.1-4.8,1.1c-9.5,0-18.7,1.8-28,3.7
		c-11.4,2.2-21.9-4.7-23.7-16.4c-0.9-5.7-1.4-11.6,1.2-17.2c0.8-1.6,1-3.1,0.2-4.7c-2.2-4.5-1.9-9.4-1.7-14.2
		c0.3-7.9,7.7-14.4,15.7-15.4c9.8-1.3,19.7-1.5,29.5-3.3c6.4-1.2,13.1-0.8,19.7-2.3c2.3-0.5,3.7-0.8,3.5-3.5
		c-0.2-2.5,1.3-3.5,3.7-3.7c7.7-0.6,13.2-4.3,19.3-9.3c6.7-5.5,15.2-11.5,25.8-7.2c3.1,1.3,6.7,0.9,10.1,2.1
		c3.4,1.2,5.7,3.2,7.4,6.1c1.9,3.2,2.4,7.1,4.7,10.3c1.5,2.1,0.7,4.9-2.2,7c4.1,0,8.1-0.1,12.2,0c12.7,0.2,22.9,4.6,28.4,16.9
		c0.7,1.5,2,2.6,3.1,3.9c1.4,1.7,3.7,3.1,4,4.9c1.6,9.1,8.6,8.1,14.8,8.3c9.7,0.3,19.4-0.6,29,0.3c10,0.9,20.1,1.1,29.7,4.9
		c0.5,0.2,0.9,0.4,1.4,0.5c19.4,1.7,27.9,15.1,32.8,31.5c2.9,9.6,3.5,19.5,2.5,29.8c-0.9,9.6-1.9,19.1-3.9,28.4
		c-1.6,7.4-4.8,14.5-3.5,22.3c2.4,14.2,2,28.6,1.7,42.9c-0.4,16.3-2.4,32.5-1.9,48.9c0.1,4.4,0.8,6.7,5.9,6.8
		c6.7,0.1,8.7,3.4,10.3,9.9c2.3,9.1,1.9,18.1,1.8,27.2c-0.1,6.9-2.4,13.7-3,20.5c-0.6,6.8-2.4,13.3-4.1,19.8
		c-1.3,5.3-3.3,10.5-6.4,15c-1.6,2.3-3.6,4.4-6.9,4.4c-1.2,0-2.3,0.2-3.1,1.3c-1.3,1.9,0.6,13.8,2.4,15.7c3.5,3.6,5.9,6.6,3.7,12.9
		c-1.4,4.2-4.7,10.4,0.8,15.9c2.5,2.5,3.8,4,7.2,2.9c12.3-4,25.2-4.9,37.6-8.5c5.2-1.5,10.9-1.2,16.2-1.8
		c11.2-1.2,22.4-3.2,33.8-1.9c4.2,0.5,5.1,1.9,3,5.4c-2.5,4.1-5.3,8-8,12c0.9,0.9,2.2,0.6,3.3,0.5c13.1-0.9,26.2,1.1,39.2,1.8
		c6.2,0.3,12.7,1.6,19,2.8c6.8,1.3,13.6,2.4,20.4,3.8c9.8,2,19.1,5.1,28.6,8c18.1,5.7,35.4,13.3,52,22.3
		c14.5,7.8,28.4,16.9,41.6,26.9c13.6,10.3,26.6,21.4,38.3,33.8c17.7,18.9,33.5,39.3,46.4,62c12.3,21.6,22,44.3,29.8,67.8
		c3.7,11.4,6,23.3,8.4,35.1c2.3,10.9,1.9,22,3.7,32.7c1.6,9.5,1.3,18.9,1.4,28.3c0.1,9.5,0.2,19.1-1.2,28.8
		c-1.5,9.9-2.9,19.9-4.3,29.9c-1,7.3-3.4,14.5-5.5,21.6c-3.5,12.1-7.2,24.1-12.1,35.8c-7.9,18.7-16.9,36.9-28,53.8
		c-7.5,11.4-15.7,22.2-24.6,32.6c-7.4,8.7-15.1,16.8-23.3,24.7c-11.5,11.2-24.4,20.8-37.1,30.7c-13,10-27.4,17.7-41.5,25.3
		c-14.9,8-31,14.7-47.6,19.2c-10.2,2.8-20.2,6.5-30.6,8.3c-9.7,1.7-19.5,3.4-29.3,4.7c-10.4,1.3-20.8,2.1-31.2,2.5
		c-17.8,0.6-35.7,0-53.2-3.1c-13.3-2.3-26.7-4.4-39.8-8.3c-14.4-4.3-28.3-9.9-42.4-14.9c-11-3.9-20.9-10.1-31.1-15.3
		c-11.9-6-22.9-13.8-33.7-21.9c-19.1-14.2-35.4-31.3-51.5-48.5c-10.7-11.4-19.9-24.2-28.1-37.7c-8.1-13.2-15.2-26.9-21.9-40.8
		c-3.8-7.8-8.2-15.6-10.8-23.8c-3.2-10.1-7.5-20-8.6-30.8c-0.9-8.5-3.3-16.8-5.1-25.2c-0.1-0.6-0.5-1.4-0.9-1.6
		c-1.4-0.4-2,0.8-2.6,1.8c-3.3,4.9-7.8,8.7-11.9,12.7c-0.8,0.8-1.6,2-2.9,1.4c-1.3-0.5-1.2-1.9-1.4-3c-4.1-23.6-5.9-47.4-5.2-71.4
		c0.1-3.5,0.4-7-2.7-9.7c-1.2-1-1.1-2.7-1.1-4.2c0-4.5,0-9,0-13.5c0-2.1,0.2-4.2,2-5.4c6.6-4.2,6.1-11.3,6.9-17.6
		c1-7.2,3-14.2,4.4-21.4c2.1-11,5.7-21.7,9.5-32.3c4.5-12.9,10.1-25.2,15.8-37.5c9.4-20.2,21.8-38.4,34.9-56.2
		c0.4-0.5,0.7-1.2,1.3-1.5c3.4-2.4,4-4.6,1.1-8.3c-3.3-4.3-2.5-8.4,2.3-12.7c3-2.7,6.6-6.1,11.4-2.5c2.5,1.9,4.5,0.9,6.5-1.2
		c4.9-5,9.7-10.1,15-14.7c8-6.9,16.3-13.5,24.5-20.2c1.5-1.3,2.7-2.9,0.3-3.8c-14.9-5.7-25.5-17.1-36.4-28c-2.6-2.6-5-5.7-8.9-1.5
		c-0.7,0.7-2.5,0.6-3.8,0.6c-4.8-0.1-6.6,2.3-4.2,6.3c2.5,4.2-0.2,6.5-2.5,9c-0.8,0.9-2.4,1.3-3.1,0.1c-2.5-4.4-3.5-0.6-4.6,0.9
		c-8.2,11.9-16.1,23.9-24.5,35.7c-9.2,13-18.3,25.9-28.2,38.4c-7.3,9.2-14.2,18.8-21.5,28c-1.9,2.4-4.2,4.3-6.1,6.6
		c-1.9,2.2-4.9,4.1-2,8c1.6,2.1-1.3,3.7-2.6,5.4c-1.2,1.5-2.4,2.1-4.1,0.5c-1.7-1.6-3.1-0.3-4.3,0.9c-1.3,1.4-3,2.3-2.3,5
		c1.8,6.4-0.6,9.2-7,8.6c-2.3-0.2-3.4,0.8-4.7,2.1c-13.9,14.3-29.2,27.3-43.4,41.3c-12.4,12.2-26.4,22.8-39.1,34.7
		c-11.7,10.9-24.2,20.9-35.1,32.6c-1,1.1-2.4,2-1.5,3.8c1.9,3.9-1.1,5.8-3.2,8.1c-0.7,0.8-1.5,1-2.7,0.6c-5.1-1.8-7-0.2-6.9,5.7
		c0,2.4-5,7.6-7.3,7c-3.9-1.1-3.9,0.9-2.8,3.2c4.4,9.4,6.2,19.6,8.3,29.6c0.6,2.7,0.6,5.6,0.5,8.4c-0.1,3.1,1,4.6,4.3,4.6
		c9.7-0.1,19.3,0,29,0.1c3.5,0,6.6-2,10.2-2.2c7.4-0.3,13,2.4,17.1,8.3c2.4,3.5,5.4,3.6,8.6,2c2.9-1.5,4.9-1.5,6.9,1.3
		c1.1,1.6,3,2.6,4.7,2c1.6-0.5,0.7-2.6,0.9-4.1c0.3-2.2-0.5-5,3-5.4c3.5-0.4,3.3,2.4,4,4.5c0.7,2.3,1.9,4.3,4.8,4.3
		c3.2-0.1,3.8,2,3.8,4.6c0,8.8,0,17.7,0,26.5c0,0.7,0.1,1.7-0.2,1.9c-4.1,2.4-6.7,6-9.4,9.7c-0.4,0.6-2,0.5-2.7,1.7
		c-1.6,2.6-3.1,2.2-5,0c-2.4-2.9-4.5-2.4-5.8,1.1c-1.3,3.3-3,3.5-4.8,0.7c-2.2-3.3-4.2-2.7-6.1,0c-1.3,1.9-3.2,2.9-4.3,0.9
		c-1.7-3-3.3-1.2-4.8-0.5c-2.9,1.3-5.4,2.1-7.9-0.9c-1.5-1.8-3.1-1.1-4.5,0.7c-2,2.6-3.9,2.5-4.8-0.9c-0.4-1.7-1-2.7-2.9-2.8
		c-1.8-0.1-2.6,0.8-3.2,2.4c-1.4,3.7-3.3,1.9-4.5,0c-2.2-3.5-4.1-3.1-6.4-0.3c-0.4,0.5-0.9,1-1.5,1.3c-1.5,0.6-10.5-5.4-10.5-7.1
		c0-2.6-0.7-4.4-3.5-5.3c-2.7-0.9-3.2-3.6-3.6-6.1c-0.3-1.4,0.3-3-0.9-4.2c-2,0.5-2.2,2.2-2.5,3.5c-5.8,24.8-19,45.2-37.6,62.1
		c-12.5,11.4-27.1,19.9-43,25.2c-6.2,2.1-12.7,4.7-19.7,4.4c-3.4-0.1-6.7,1.6-9.8,3.4c-3.7,2.1-7.4,2.6-11.6-0.1
		c-4.5-3-10.2-2.1-15.4-3.3c-17.2-4-33.9-9.2-48.4-19.6c-5.3-3.8-11.1-4.6-17.1-6.2c-8.9-2.3-18.5,0.4-26.7-4.7
		c-0.3-0.2-0.7-0.4-0.9-0.3c-6.5,3.3-12.2-1.7-18.3-1.6c-4.7,0.1-9.3,0.4-13.6-2.2c-1.4-0.8-2.6-0.8-4.2-0.3c-3.5,1.1-6.9,1-9.9-1.6
		c-2.6-2.3-5.7-2.4-8.4-1.1c-2.5,1.2-4.4,1.1-6.5-0.4c-3.4-2.3-7.1-2.7-11-2.1c-0.8,0.1-1.8,0.5-2.5,0.2c-7-3.5-7.3,2.7-8.9,6.3
		c-7,16.5-15.1,32.4-24.9,47.5c-16.7,25.7-37.5,47.7-59.7,68.5c-7.1,6.6-15.4,11.9-23.3,17.7c-10.5,7.8-21.8,14.5-33,21.1
		c-12.5,7.3-25.7,13-39.1,18.3c-11.7,4.6-23.5,9.3-35.8,11.9c-11.6,2.5-23.3,4.8-35.1,6.6c-8.7,1.4-17.5,0.9-26.1,2.9
		c-7,1.6-14.3,0.4-21.4,0.7c-13,0.5-25.7-1.9-38.6-3.3c-8.3-0.9-16.5-1.6-24.6-3.7c-11.8-3-23.8-5.8-35.4-9.5
		c-19.9-6.4-38.7-15.5-57.3-25c-13.1-6.7-24.9-15.5-37-23.9c-19.7-13.6-35.7-30.8-51.9-47.9c-11.3-12-20.2-25.8-28.9-39.7
		c-11.2-17.7-20.7-36.3-28-55.9c-4.1-11.1-7.5-22.5-10.5-34c-2.7-10.2-3.9-20.7-6.6-30.9c-1.2-4.5-0.9-9.4-1.7-14.2
		c-2.8-17.3-3-34.8-2-52.2c0.8-14,2.8-28,5.3-41.8c3.1-16.9,6.9-33.7,14-49.5C84.3,644.4,84.3,643.7,84.5,641.9z M154.2,614.9
		c-10.5,16.6-18.7,34.4-25.2,52.9c-3.8,10.8-7.1,21.8-9,33c-1.6,9.9-2.4,20-3.8,29.9c-2.9,19.5-1.2,38.7,1,58.6
		c0.3-0.9,0.4-1.2,0.5-1.5c2.2-6.2-0.7-12.1-0.9-18.1c-0.4-8.8,0-17.7-0.1-26.5c0-3.2,1-5.9,2.7-8.4c4.3,7.9,4.7,16.1,4.2,24.5
		c-0.2,3.3,0.9,7.2-3.8,8.7c-1.1,0.3-0.8,1.7-0.7,2.7c0.6,5.1,1.3,10.2,1.9,15.2c0.7-3.4,0.9-6.8,1.3-10.2c0.1-1.1,0.3-2.7,1.8-2.5
		c1.4,0.1,1.3,1.7,1.5,2.8c0.5,3.5,2.3,6.7,1.9,6.5c-1.5-0.7-9.1,22.2-14.3,21.6c-6.4-0.8-10.1-37-5-73c1.4-9.7,4.4-21.3,10.5-44.5
		c10-38.1,15.1-57.3,22-66.5c17.5-23.4,46.8-36.8,47.7-35.6c0.1,0.2-0.3,0.7-0.6,1.1C185.6,589,165.1,597.6,154.2,614.9z
		 M1261.3,121.5c-1.2,5.5,1,10.6,2.6,15.5c4.3,12.9,9.3,25.5,13.9,38.2c3,8.3,5,17.1,15.5,19.7c3.1,0.8,3.4,4.1,3,7.1
		c-0.7,4.4,1.4,6.5,5.7,6.9c6.9,0.6,9.4,5.9,5.4,11.5c-1.1,1.6-1.4,2.8-0.5,4.5c7.9,15.6,10.9,33,18.4,48.8
		c5.5,11.5,8.3,24.1,13.4,35.8c0.4,0.9,0.4,2.1,1.6,2.3c1.2,0.2,1.7-0.9,2.2-1.8c3.4-5.5,6.9-11,10.3-16.5
		c10.4-16.6,19.9-33.7,28.7-51.2c9-17.8,16.1-36.6,23.4-55.3c5-12.8,7.1-25.9,5.3-39.5c-1.7-12.7-0.7-25.5-2.6-38.2
		c-1.5-9.5-3-18.9-6.4-27.9c-2.6-7-10.3-7.9-16.3-3.6c-6.2,4.4-11,10.4-17.5,14.6c-3.9,2.5-8.6,5.4-10.1,9.2
		c-2,5.1-6.4,7.8-9.6,10.6c-8.2,7.1-18.6,11.1-28.5,15.8c-1.2,0.6-2.5,1.5-3.8,0.9c-6.3-3-13.5-3.2-19.9-6c-6.1-2.6-7.3-2-9.6,4.2
		c-1.3,3.5-3.3,4.9-6.8,3c-1.5-0.8-3.1-0.9-4.8-0.4C1268.8,131.5,1262.3,127.1,1261.3,121.5z M164.1,853.8
		c5.8,11.9,11.6,23.9,19.1,34.9c2.1,3,4.8,2.7,7.5,1.4c8.4-4,16.8-7.8,24.9-12.2c16.5-9,33.4-17,50.3-25.1c7-3.3,13.6-6.8,17.7-13.8
		c3.4-5.9,7.2-11.5,11.1-17.7c-11.8,2.4-22.8,4.3-33.7,6.9c-6.4,1.5-13,2.4-19.4,3.8c-7.4,1.5-14.6,4-22,4.9c-3.7,0.5-6.2,1-7.3,1.2
		c-22.1,3.3-53.3,19.6-54.1,18c-0.2-0.3,1.3-1.2,1.2-2.7c-0.2-1.6-2.2-3-2.4-2.8c0,0,0,0.1,0,0.2c0.4,1,39-12.6,62.7-18.7
		c4.5-1.2,8.7-2.1,8.7-2.1c7.8,0,15.1-3.1,22.7-4.3c7.5-1.1,15.3-2.2,22.6-4.7c7.2-2.4,14.9-2.4,22.1-5c2.7-1,4.7-2.5,6.1-4.8
		c8.4-12.9,16.2-26.2,25.2-38.7c2.4-3.3,1.4-4.9-1.9-6.4c-12.4-5.6-24.7-11.3-37.1-16.9c-3.1-1.4-6.4-1.3-9.2-0.1
		c-16.3,7-33.2,12.2-49.8,18.3c-13.2,4.8-26.4,9.5-39.6,14c-13.1,4.5-26.2,8.9-38.8,14.5c-2.7,1.2-4.5,2.8-3.6,6.1
		c3.1,10.8,5.8,21.7,9.2,32.4C157.8,838.9,163.2,851.8,164.1,853.8z M1676.9,573.1c6.5-4.6,2.7-7.7-0.8-10.5
		c-10.4-8.3-21.1-16-32.7-22.5c-1.1-0.6-2.8-1.8-3.5-0.2c-2.1,4.4-6.4,6.6-9.4,10c-8.1,9.4-15.6,19.3-24.1,28.3
		c-7.8,8.2-15,16.9-22.8,25.1c-0.9,1-1.8,2-1.8,3.5c-0.1,8.1-3.2,16-2.1,24.2c0.2,1.7-0.1,3.7-0.8,5.4c-1.6,4.1-1,8.2-1,12.4
		c0,2.9,1.3,3.3,3.3,1.4c7-6.8,15.2-12.2,22.7-18.3c10.1-8.3,20.4-16.3,30.7-24.4c21.5-16.8,32-25.5,38.6-31.1
		c18.5-15.9,27.5-25.6,28.1-25.1c0.6,0.6-11.7,16.2-28.6,31.4c-8.4,7.5-17.7,14.2-28.4,23c-6.1,5-12.5,9.7-18.7,14.5
		c-4.5,3.5-9,7-13.3,10.6c-4.4,3.6-9,7.3-13.5,10.7c-6.7,5.1-12.8,11.1-20.1,15.5c-1.9,1.1-2.8,3.2-2.6,5.6c0.8,9.3-2,18.5-1.4,27.8
		c0.1,1.3-0.3,2.6-0.7,3.9c-2.1,6.9-1.3,8.1,6,8.8c12,1.1,23.9,1,35.9,1c2.1,0,3.9-0.4,5.4-1.9c15.3-15.4,31.1-30.3,47-45.1
		c13.3-12.3,24.9-26.4,39.1-37.7c3.3-2.6,5.5-6.9,8.4-10.2c1.8-2.1,0.5-4.3-1.2-6.2c-4.3-5.1-8.1-10.5-12.8-15.3
		C1695.1,580.6,1690.4,569.9,1676.9,573.1z M817,662.9c-5.1-15.4-10-30.3-15.1-45.1c-5.8-17.3-11.9-34.4-17.7-51.7
		c-5.2-15.4-9.9-30.9-16.1-46c-2.1-5.1-5.5-6-10.4-3.3c-4.2,2.3-7.7,5.7-11.8,8.1c-20,11.9-38.7,25.7-58.4,37.8
		c-3,1.8-8.3,2.4-8.4,6c-0.1,3.1,3.3,6.3,5.2,9.4c8.6,13.7,15.4,28.3,21.8,43.1c4.8,11.1,8.4,22.7,12.2,34.2
		c1.4,4.3,3.6,5.8,8.2,5.7c16-0.3,32.1-1.2,47.9,0.4C788.5,662.9,802.3,662.1,817,662.9z M460.2,412.8c5.7,1.2,10.8,3.6,16.1,4.8
		c17.2,3.9,33.7,10.1,49.6,17.3c30.4,13.7,58.5,31.3,83.7,53.2c14.9,12.9,28.9,27,41.3,42.5c7.7,9.6,8,9.4,18.3,2.3
		c7.1-4.9,14.6-9.3,22.2-13.1c9.1-4.5,17.8-9.6,26.5-14.6c1.4-0.8,2.5-1.8,0.7-3.5c-7.4-6.7-13.1-14.9-21.2-20.8
		c-9.4-6.8-18.5-13.9-27.7-20.9c-7.5-5.7-15-11.4-22.4-17.2c-5.7-4.4-11.6-8.7-17.1-13.4c-4.2-3.7-8.7-7.1-13.4-10
		c-1.9-1.2-3-3.7-5.7-3.7c-13.8,0.1-27.3-3.7-41.1-3.4c-1.2,0-2.3,0-3.5-0.2c-10.7-2-21.5-3.6-32.4-3.6c-1.8,0-3.7,0.1-5.5-0.3
		c-10.6-2-21.4-2.8-32.2-2.9c-2.9,0-5.6-0.7-8.4-1.2c-4.7-0.9-9.6-2.2-13.7,1.8C470.5,409.5,466.9,413.9,460.2,412.8z M1275.8,798.4
		c1.8,4.2,2,9.7,3.4,15c2.2,8.1,4.4,16.2,8,23.9c0.8,1.7,1.4,3.7,4.3,3.1c9.9-1.9,19.8-3.8,29.7-5.3c10.9-1.7,21.9-3.6,32.6-5.8
		c11.2-2.3,22.5-3.7,33.6-6.2c11.4-2.5,23.1-4.2,34.6-6.2c2.1-0.4,3.5-1.8,4.6-3.5c8.8-12.9,17.5-25.8,26.3-38.6
		c3.3-4.9,3-5.7-2.4-8.4c-11.5-5.6-22.9-11.3-34.3-17.2c-6.9-3.6-13.3-5.6-21.1-1.5c-6.5,3.4-13.9,5.2-20.7,8
		c-10.8,4.4-22,8-32.9,12.1c-9.7,3.7-19.3,7.7-29,11.4c-11.6,4.4-23.3,8.4-34.3,14C1276,794.3,1275.7,795.6,1275.8,798.4z
		 M1509.1,866.9c-0.3-0.7-0.5-1.2-0.7-1.6c-4-11.5-8.2-23-12-34.6c-1.4-4.4-3.1-8.7-4.7-13.1c-0.8-2.3-0.7-5.6-2.3-7
		c-2.6-2.3-4.6,1.3-6.8,2.3c-12.8,5.8-25.7,11.4-38.1,18.1c-1.9,1-3.1,2.2-3.8,4.3c-2,6.5-4.1,12.9-6.2,19.3
		c-3.3,10-6.6,20.1-9.8,30.1c-4.6,14.4-9.3,28.7-13.8,43.2c-3.6,11.5-8.4,22.6-10.4,34.5c-0.3,2.1,0,3.2,1.7,4.1
		c4.5,2.4,9,4.8,13.7,7.1c8.5,4.1,17.7,6.5,26.4,9.9c1,0.4,2.2,1.6,2.7-0.3c0.8-3.4,3.7-5.4,5.3-8.3c12.4-22.3,24.8-44.6,36.9-67.1
		c6-11.2,11.8-22.6,18.4-33.6C1507.1,871.9,1508,869.3,1509.1,866.9z M320.5,724c6.2,0.4,12.2,0,18.1-2c1.9-0.7,2.9-1.3,2.3-3.4
		c-1.4-5.1-2.8-10.2-3.9-15.4c-2.4-10.5-6.3-20.5-7.8-31.2c-0.2-1.7-1.2-2.6-2.5-3.4c-6.8-4.1-13.6-8.2-20.4-12.3
		c-12.1-7.3-24.4-14.1-36.1-22c-11.5-7.8-23.7-14.5-35.4-21.9c-8.8-5.7-17-12.7-27.4-15.8c-0.6-0.2-1.2-0.7-1.5-1.2
		c-2.6-3.7-4.7-2-6.5,0.6c-6.8,9.8-14.6,18.8-20.6,29.1c-3.7,6.3-3.8,6,1.3,11c7,6.8,14.9,12.4,22.4,18.6c9,7.5,18.1,14.9,26.7,22.9
		c4.6,4.3,9.5,8.3,14.4,12.3c11.4,9.2,22.5,18.9,33.5,28.6c5.3,4.7,10.6,7.7,18.1,7.4C303.7,725.6,311.9,722.3,320.5,724z
		 M1536.2,855.7c-0.2,2.3,0.5,3.9,1.5,5.5c9.9,15.4,19.8,30.9,29.8,46.3c7.7,12,15.4,24,23.1,36c6.5,10.2,13.1,20.3,19.5,30.5
		c1,1.6,1.4,1.4,3,0.9c12.6-4.5,23.8-11.7,35.3-18.1c6.3-3.5,6-3.9,2.9-11c-0.2-0.5-0.4-0.9-0.5-1.4c-1.4-10.9-8.3-19.7-12.1-29.7
		c-4.3-11.3-10-22-15-33c-7-15.5-14-31.2-21-46.7c-0.9-2-2.3-3.2-4.7-4c-16.1-5-32-10.3-48-15.5c-2.2-0.7-3.6-0.6-4.7,2.5
		c-2.3,6.4-3.3,13.1-5,19.7C1538.9,843.8,1537.6,849.9,1536.2,855.7z M314.1,986.9c2.7,0.8,3.1-1.6,4-2.9c3.6-5.6,6.3-11.6,9.2-17.5
		c6.6-13.7,13.3-27.4,19.9-41.2c8.5-17.8,17-35.6,25.9-53.2c1.7-3.4,4.5-6.9,3.7-11c-0.9-4.2-2.7-8.1-4.2-12.2
		c-4-10.8-8.1-21.7-12-32.5c-1.3-3.7-3.4-3.9-6.5-2.1c-8.8,5.3-18.1,9.7-27.5,14.1c-3.4,1.6-5.6,3.9-7.1,7.8
		c-2.1,5.6-3.9,11.2-6,16.8c-4.6,12.4-9.2,24.7-13.7,37.2c-5.2,14.4-10.2,28.9-15.6,43.3c-4,10.7-8.2,21.3-11.3,32.3
		c-0.7,2.5-0.1,3.8,2.3,5.1c9.8,5.3,20.1,9.4,30.4,13.6C308.4,985.4,311.3,986,314.1,986.9z M1744.5,815.7c1,0,2-0.1,3,0
		c4.4,0.8,6.3-0.3,7.8-5.3c1.9-6.5,3.3-13.1,4.5-19.7c1.1-6.1,2.8-12.3,1.9-18.7c-0.3-2.1-0.6-3.9-3.4-3.9c-6.1-0.1-11.8-2.7-17.7-4
		c-7.1-1.5-14.1-3.2-21.1-4.7c-6.6-1.5-13.2-2.7-19.7-4.3c-8.6-2.2-17.3-4.5-25.9-6.2c-12.3-2.4-24.3-5.6-36.4-8.6
		c-4.6-1.2-9.1-0.9-12.7,2c-10.5,8.7-22.1,15.9-33.1,23.8c-3.3,2.3-2,2.8-0.4,4.9c5.2,7,11.1,13.4,16,20.6c2.2,3.3,3.8,8.3,7.9,9
		c4.7,0.9,9.4,2.6,14.1,2.3c8.4-0.5,16.4,2,24.7,2.5c15.2,1,30.4,2.8,45.5,4.9c6.7,1,13.6,1,20.2,2.2
		C1727.8,813.8,1736.1,815.2,1744.5,815.7z M1513.1,531.6c0,2.8,0.2,5.7,0,8.5c-0.3,3.3-2.4,5.1-5.7,5c-2.5,0-6.2,1-6.3-2.9
		c-0.2-7.2-3.4-14.1-0.8-21.6c1.4-3.9,1.8-9.2-1.8-12.2c-3.2-2.7-7.6-1.2-11.4,0.4c-1.6,0.7-4.2,0.3-4.1,2.8
		c0.1,5.1-2.1,9.7-2.1,14.7c0.1,34,0,68-0.1,101.9c0,4.5-0.1,9-0.8,13.4c-0.7,4.3-0.5,8.5,3.2,12c7.8,7.5,15.3,15.4,23,22.9
		c4.9,4.7,5.4,4.6,9.6-0.6c6-7.7,12.4-15.1,18.8-22.5c3-3.5,5.6-7.4,9.1-10.5c2.2-2,2.6-4.8,1.9-7.4c-1.2-4.7-0.8-9.6-1.5-14.4
		c-2.9-18-4.8-36.1-6.7-54.2c-1.5-14.1-4-28.2-3.8-42.5c0-0.7,0-1.3,0-2c-1-12.4-4.5-15.6-15.6-15.5c-3.4,0-4.7,1.5-5.5,4.3
		c-0.7,2.5-1.1,5.1-0.3,7.4C1513.3,523.1,1513.1,527.3,1513.1,531.6z M409.5,851.6c-0.3,3.5,1.3,6.3,2.9,9
		c13,21.6,26.1,43.1,38.9,64.8c8.5,14.2,15.9,29.1,25.1,42.8c8.6,12.7,4,13.7,19.2,6.2c0.3-0.1,0.6-0.2,0.9-0.4
		c8.5-4.6,17-9.1,25.4-13.9c2.2-1.3,5.6-2.7,3.2-6.5c-4.4-6.8-6.8-14.6-10.6-21.8c-8.4-15.8-15.9-32.1-24.4-47.9
		c-6.1-11.2-12.4-22.4-17.3-34.2c-3.5-8.4-9.1-15.2-17.4-16.9c-6.3-1.3-13-2-19.6-2.8c-4.7-0.6-8.9-1.1-13.1-3.1
		c-3.5-1.6-6.7-1.3-7.9,3C412.9,837.2,411.3,844.4,409.5,851.6z M441.3,661.5c9.3-6.6,17.5-13.2,25.5-20.1
		c7-6.1,14.6-11.4,21.6-17.6c7-6.3,15.3-11.1,22.2-17.5c8.3-7.6,17.5-14.2,26-21.5c3.5-3,5.8-7,9.8-9.3c3-1.8,4-3.7,0.6-6.3
		c-6.5-4.8-12.7-10-19.3-14.6c-5-3.5-10.5-6.4-15.6-9.7c-2-1.3-3.3-0.9-4.7,0.8c-6.7,8.1-13.4,16.2-19.7,24.6
		c-12.2,16.1-25.2,31.6-37.9,47.3c-1.9,2.3-3.1,5-4.1,7.8c-3,7.7-1.3,15.8-3,23.6C441.8,652.7,439.9,656.5,441.3,661.5z
		 M477.8,981.2c-22.4-40.3-46.3-79.2-70.3-118.2c-3,11.2-5.6,22.1-8.4,32.9c-0.7,2.9-2.9,6-1.4,9.5c7.5,18,13.4,36.6,20.2,54.9
		c4,10.8,8.1,21.6,12.2,32.4c1,2.7,2.8,2.9,5.6,2.1c8.7-2.5,17.6-4.3,26.2-6.9C467.7,986.2,473.9,984.7,477.8,981.2z M1618.6,807.7
		c3.9,2.4,6,6.5,8.8,10.1c5.1,6.4,10.3,12.8,15.1,19.5c2,2.8,4.5,4.3,7.5,5.3c13.6,4.4,27.4,8.2,40.9,13
		c10.9,3.8,22.2,6.2,32.7,11.3c5.2,2.5,8.3,1.2,10.9-3.2c6.6-11.4,11-23.8,16.1-35.9c0.9-2.1,0.8-4.9-2-5.2
		c-2.9-0.3-5.3-1.8-8.1-2.2c-9.6-1.5-19.4-2.3-29-3.7c-14.6-2.1-29.2-3.3-43.8-5.5c-6.5-1-13-0.3-19.3-1.7
		c-8.9-1.9-18.1-1.8-27.1-3.3C1620.6,806.2,1619.7,806.1,1618.6,807.7z M264,964.4c1.2,0.3,1.6-0.1,2-0.7c1.7-2.8,4-5.5,5.1-8.5
		c5.6-14.6,11-29.2,16.4-43.9c5.8-16,11.4-32.1,17.1-48.1c2.9-8.1,6.4-16,8.5-24.3c0.3-1,1.5-2.2,0.2-3.1c-1.1-0.8-2.2,0.1-3.2,0.6
		c-7.7,3.8-15.6,7.4-23.2,11.3c-2.4,1.2-5.1,2.1-6.8,4.8c-9.6,15.1-19.5,30.1-29.2,45.2c-7.6,11.8-16.1,23.1-22.6,35.6
		c-1.8,3.4-1.3,5.4,1.5,7.5c7.7,6,15,12.5,23.6,17.3C257,960.2,260.6,962.4,264,964.4z M1625.6,703.7c4.8,0.3,8.9,0.4,13,0.9
		c15.4,1.7,31,5,44.6-6.7c2-1.7,4.6-3.2,6.9-4.8c16.3-11.1,33.2-21.5,49.3-32.9c5.5-3.9,4.4-6.8,2.5-10.9
		c-4.2-8.8-8.5-17.5-13.7-25.9c-6.3-10.2-6-10.4-15.5-3.4c-0.3,0.2-0.5,0.4-0.8,0.6c-12.3,12.3-25.1,24-37.7,36
		c-12.8,12.1-24.6,25.3-37.7,37.1C1633,696.8,1629.6,700,1625.6,703.7z M1636,735.3c14.4,3,27.6,7.3,41.2,9.7
		c7.8,1.4,15.4,3.9,23.1,5.4c7.2,1.4,14.3,3.2,21.5,4.5c11.7,2.2,23,7.1,35.2,6.9c2.4,0,2.8,1.7,3.9,3.7c1.4-5.1,2.4-9.5,2.6-14.2
		c0.5-11-3.1-21.7-2.1-32.8c0.2-2.2-0.8-4.1-3.3-4.1c-4-0.1-7.9-1.3-11.8-1.4c-23.8-0.4-47.5-2.3-71.4-2.1c-2.3,0-4.4,0.2-6.2,1.5
		C1658.2,719.9,1647.5,727.4,1636,735.3z M1549.7,634.8c8.5-7.5,14.4-16.2,21.5-23.8c2.8-2.9,7.1-6,7-10.5
		c-0.1-7.2,1.6-14.2,1.9-21.3c0.4-8,1.1-15.9,2-23.8c0.6-5.7,0.7-11.5,2.2-17.2c1.6-6.3,2.1-12.7,1.3-19.2c-0.4-2.9-1.6-4-4.8-4.5
		c-7.3-1.1-14.5-3.1-21.8-4.4c-6-1.1-12-2-18.1-2.8c-3.2-0.4-4.4,1.2-4.1,4.5c0.5,6.2,1.1,12.5,1.3,18.6c0.6,14.1,3.5,27.9,3.9,42
		c0.2,5.2,1.1,10.5,2.1,15.7c1.9,10.1,1.7,20.4,3.4,30.5C1548.5,623.8,1548.9,628.9,1549.7,634.8z M568.3,920.7
		c-0.5-0.7-0.7-1.3-1.2-1.7c-4.5-4.4-6.4-10.5-10.6-15.3c-5.3-6.1-10.1-12.9-15-19.4c-5.6-7.5-11.8-14.5-17-22.4
		c-2.4-3.6-5.4-5.1-9.8-2.7c-3.7,2.1-7,1.1-9.8-2.2c-2.8-3.3-5.2-6.9-7.1-10.8c-2.8-5.9-9-9.4-14.6-7.6c-3.6,1.2-6,0.1-8.7-1.7
		c-0.9-0.6-1.8-2-3-1.1c-1.4,1.2,0,2.4,0.5,3.5c15.8,30.6,31.8,61.2,47.4,91.9c3.4,6.7,7.3,12.9,11.6,19.1c0.9,1.3,1.9,2.2,3.7,0.8
		c11.1-8.5,21.8-17.3,31.3-27.6C567,922.8,567.6,921.7,568.3,920.7z M379.7,868.4c-5.7,11.8-11.2,22.8-16.4,34
		c-13.2,27.9-27.6,55.1-39.4,83.6c-1,2.5-0.2,3.1,1.7,4.1c3.4,1.8,7.1,1.5,10.6,2.5c9.6,2.9,19.4,3.6,29.3,4.4
		c1.6,0.1,3.6,0.4,4.5-1.3c1.6-3.1,3.7-6.2,4.1-9.5c1.5-12,5.5-23.4,7.7-35.2c2.2-11.8,5.8-23.3,8.4-35c1-4.3,2.2-8.5,1.7-13.1
		c-0.4-3.9-2.7-6.7-3.7-10.2C386,884.6,382.7,876.8,379.7,868.4z M1525.6,899.5c1.7,4.2,3.3,8.9,4.9,13.6
		c7,20.2,14.8,40.1,21.5,60.4c1.9,5.7,6.2,10.3,6.5,16.5c0.1,1.9,1.5,1.9,2.9,1.4c1.2-0.5,2.5-1,3.8-1.2c11.8-2.5,23.4-5.8,34.8-9.8
		c4.2-1.5,4.6-3.6,3-7.3c-4-9.6-10.5-17.6-15.9-26.4c-10.7-17.4-21.8-34.5-32.8-51.7c-5.9-9.2-12-18.2-18.1-27.2
		c-0.5-0.8-1.1-1.9-2.3-1.6c-1.2,0.3-0.9,1.6-1.1,2.5c-0.9,4-2.1,8-2.6,12C1529.3,886.9,1527.5,892.9,1525.6,899.5z M1442.7,716.2
		c-0.7-0.9-1.2-1.5-1.7-2.1c-6.4-7.8-15.9-12.2-22.3-20.1c-3.5-4.4-7.1-9.4-11.7-12.2c-12.9-7.7-20.8-20.7-32.9-29.3
		c-9.9-7.1-16.8-17.8-26.6-25.4c-8-6.2-14.7-14-22-21c-1.2-1.1-2.4-3.8-4.3-1.2c-5,7-9.6,14.2-14.4,21.4c-1.3,1.9-0.5,3.4,0.9,4.9
		c8,8.2,16.5,15.9,25.4,23.1c9.5,7.5,18.5,15.5,27.8,23.3c5.8,4.8,11.7,9.7,17.5,14.7c9.6,8.4,19.6,16.3,29.2,24.7
		c2.9,2.6,5.9,4.1,9.4,3c6.2-1.9,12.5-1.6,18.8-1.7C1438.2,718.1,1440.3,717.4,1442.7,716.2z M325.5,657.1
		c-2.2-4.9-3.7-10.8-4.7-16.8c-0.7-3.7-2.2-6.7-5-9.2c-14.9-13.5-27.7-28.9-41.5-43.5c-9.2-9.7-18-19.7-27.6-28.9
		c-2-1.9-3.4-2.5-5.9-0.5c-8.2,6.2-16.2,12.6-23.5,19.9c-10.3,10.3-10.3,10.1,1.9,18.6c18.8,13.2,39.1,24.1,58.2,36.8
		c14.3,9.5,29.4,17.9,44.2,26.8c1,0.6,2.2,1.2,3.3,0.6C325.8,660.1,325.4,658.9,325.5,657.1z M278.3,744.7c-6.7-3-12.4-5.2-17.8-8
		c-3.7-1.9-7.3-2.6-11.4-2.5c-16.2,0.1-32.3,2.5-48.4,3.5c-12.5,0.8-25.1,2.1-37.7,1.7c-5.5-0.2-10.7,1.9-16.2,1.7
		c-2.9-0.1-3.8,2-4.1,4.6c-1.1,14.3,1.3,28.4,2.7,42.6c0.1,1.3,0.5,1.8,2.2,1.5c7.9-1.2,15.2-4,22.6-6.6
		c15.2-5.4,30.5-10.6,45.8-15.9c13.8-4.8,27.5-9.6,41.2-14.5C263.9,750.3,270.6,747.6,278.3,744.7z M421,646.5
		c7.1-7.1,12-15.4,18.4-22.5c2.1-2.4,3.6-4.7,3.2-8c-0.8-6.6,1.6-12.8,2.4-19.2c1.4-12.4,3.4-24.8,4.7-37.3c0.1-1.3,0.4-2.6,0.7-3.9
		c1.1-5.3,2.8-10.6,3-15.9c0.2-4.8,1-9.2,3.8-13.1c1.6-2.2,1.1-3.5-1.2-5.2c-4.5-3.4-9.9-3.4-14.9-5c-8.7-2.9-18.1-2.3-26.8-4.9
		c-2.5-0.7-4.5,0-3.4,3.3c1.1,3.4,0.9,6.9,0.9,10.4c0,16,0,32,0.1,48c0,2.2,0,4.4,0.4,6.5c2.6,12.2,2.5,24.6,4.3,36.9
		C418,626.4,418.8,636.5,421,646.5z M279.7,727.1c-2.2-3-4.8-5.4-7.5-7.6c-9.3-7.6-18.7-15.1-27.7-22.9c-5.6-4.9-11.3-9.7-16.9-14.5
		c-4.2-3.6-8.3-7.5-12.7-10.9c-5.9-4.5-11.6-9.3-17.3-14.1c-6.3-5.3-12.5-10.7-19.6-14.8c-6.5-3.7-6.6-3.5-10.3,3.2
		c-0.3,0.6-0.8,1.1-1,1.7c-5.2,10.6-9.6,21.4-12.9,32.8c-0.4,1.4-0.8,2.6,0.8,3.5c3.3,1.9,6.5,4.3,10.1,5.4
		c9.9,3.1,18.9,8.1,28.3,12.1c20.4,8.7,40.4,18.3,60.5,27.7c1.4,0.7,2.6,0.6,3.7-0.2c2.1-1.5,4.4-1.4,6.7-1.4
		C268.9,727.1,274,727.1,279.7,727.1z M1404,719.5c-1.6-1.4-3.1-2.6-4.6-3.9c-7.1-6.1-14.3-12.3-21.4-18.4
		c-5.3-4.5-10.8-8.7-16-13.3c-8.1-7.1-16.4-13.9-24.8-20.7c-10.6-8.6-20.4-18.3-32-25.7c-3.1-2-4.1-1.6-5.5,1.2
		c-6.1,12.5-11.6,25.3-16.2,38.4c-0.4,1.2-0.7,2.9,0.6,2.9c5.1,0.2,7.7,4.7,11.9,6.5c6.8,3,13.5,6.2,20.3,9.4
		c13.7,6.5,27.2,13.6,40.8,20.3c5.2,2.5,10.6,6.6,15.9,6.5C1383.2,722.5,1393.9,722.9,1404,719.5z M1436,836.1
		c-0.4-0.2-0.8-0.5-1.1-0.7c-7.9,3.8-15.7,7.7-23.6,11.5c-1,0.5-1.9,1.1-2.5,2.2c-7.6,11.9-15.5,23.6-22.8,35.6
		c-9.2,15.3-20.3,29.3-28.8,45.1c-1.9,3.5-1.6,5.1,1,7.4c8.9,8,18.9,14.5,28.9,21c4.3,2.8,9.6,1.4,10.9-3.4
		c2.7-10.2,6.2-20.2,9.4-30.2c4.5-13.8,8.6-27.8,13-41.6C1425.5,867.3,1430.8,851.8,1436,836.1z M1612,835.3c-3.4,0-3.1,1.6-2.1,3.9
		c6,13.3,11.9,26.7,17.9,40c5,11.1,9.9,22.1,15,33.1c5,11,9.2,22.4,15.7,32.8c2,3.2,3.2,2.7,5.7,0.9c10.9-7.9,20.6-17.2,30.2-26.6
		c1.2-1.2,2.6-2.8,1.2-4.3c-2.3-2.5-3.1-5.8-5-8.4c-8.2-10.8-16.8-21.3-25.2-31.9c-4.3-5.5-9-10.8-12.4-16.7
		c-6.5-11.3-16.8-16.5-28.6-19.2C1620.1,837.9,1616.1,836.2,1612,835.3z M1325.2,838.7c-3.9,0.8-8.6,1.7-13.2,2.6
		c-5.3,1-10.5,2.4-15.6,4.3c-4.7,1.8-5.6,1.9-3.1,6.5c0.9,1.8,1.8,3.6,2.6,5.4c4.5,10,10.1,19.5,16.1,28.7c1.4,2.1,3.1,2.7,5,1.2
		c3.3-2.4,7.3-3.1,10.8-4.8c23.7-11.5,47.3-23.1,70.9-34.7c4.1-2,8.5-3.7,11-8.1c2.4-4.2,5-8.2,7.5-12.4c0.8-1.3,3-2.6,1.7-4.2
		c-1.4-1.7-3.7-0.7-5.6-0.4c-9.7,1.7-19.2,4.4-29.1,5.4c-7.5,0.7-15,2.3-22.4,3.9c-7.9,1.7-15.9,3-23.8,4.7
		C1333.9,837.6,1330.2,839.6,1325.2,838.7z M1510.8,874c-10.4,18.9-20.4,37.2-30.4,55.5c-5,9.2-9.9,18.4-14.8,27.6
		c-4.3,8.2-9.4,15.9-12.6,24.7c-1.6,4.4,0.5,5.2,3.2,5.8c10.3,2.3,20.6,4.3,31,6.2c2.7,0.5,5.6,0.2,8.5,0.3c1.2,0.1,2.8,0.2,2.9-1.3
		c0.2-3.8,3.4-6.5,3.9-10.1c1.3-9.3,4.3-18.3,5.9-27.5c2.4-14.1,6.3-27.9,9.8-41.8c2.5-10,1.9-18.8-1.8-27.7
		C1514.8,882.1,1514,877.9,1510.8,874z M334.4,369.2c0,0.5,0,0.9,0,1.4c1.8,0.3,3.7,0.1,5.3,0.9c1.9,0.9,5.3,1,4.8,4.1
		c-0.5,3.2-3.5,2.4-5.7,2.5c-4.7,0.1-9-2.1-13.5-2.9c-4.4-0.8-9-3.1-12.9-2.2c-4.4,1-7.5,1.1-10.8-2c-1.1-1-3-1.3-4.6-1.7
		c-11.4-3.1-23.1-1.9-34.7-2c-1,0-2.2,0-2.9,0.5c-5,4.1-11.4,3.4-16.6,4.9c10.6,3.3,22,4.4,32.7,10.2c10.7,5.8,20,12.7,26.5,22.4
		c5,7.5,9.5,9.5,18.2,7c17.3-4.9,35.4-4.8,53.1-6.9c5.5-0.7,6.9-2.5,6.3-7.3c-0.2-1.6,0-3.4-0.6-4.9c-1.5-4.3-1.6-8.3,0-12.6
		c2-5.2-1.3-9.5-6.9-10c-2.6-0.2-5.3-0.7-7.9-0.9C354.2,368.7,344.3,369.2,334.4,369.2z M1398.4,741.8c-1.4-1.9-2.6-2.6-4-2.5
		c-8.4,1-16.4-1.3-24.6-2.2c-9.6-1-19.1,1.1-29.1-1.3c-6.9-1.7-14.8-1.8-22.2-2.1c-14.7-0.7-29.2,3.2-43.9,4
		c-2.6,0.1-2.7,1.9-2.7,3.9c0,8.3,0.3,16.7-0.1,25c-0.3,6.1,1.1,11.8,2.1,17.7c0.2,1.3,0.7,2.7,2.1,1.9c3-1.5,6.3-0.5,9.3-1.6
		c13.3-4.9,26.6-9.8,39.8-15.1c18.1-7.3,36.4-13.9,54.7-20.7C1385.9,746.6,1392,744.2,1398.4,741.8z M1644.6,523.9
		c1.1,0.2,1.3,1,1.8,1.4c59,45.7,96.6,74.7,126.2,118.3c16.3,23.9,36.9,54.1,27,79.5c-4.1,10.6-17.4,30.3-18.1,29.9
		c-0.1,0,0.1-0.4,0.1-0.7c0.2-4.6,5.8-9.2,6.5-16.1c0.7,10.2,1.7-13.9-2.3-35.4c-4-21.2-7.5-31.4-8.7-34.6
		c-9.4-24.1-23.8-39.8-33.5-49.7c-58.6-60-152.1-118.2-152.1-118.1c0,0,0,0,0,0c1.8,0.5,10.1-2.1,10.6-0.1
		C1603.1,502.1,1633.3,522,1644.6,523.9z M1316.7,472.2c7-1.2,12.4-6.4,18.4-10.3c0.3-0.2,0.6-0.9,0.6-1.3c0.1-7.4,0.8-15-3.2-21.9
		c-1.9-3.2-2.6-7.9-8.5-5.6c-1.4,0.6-3.8-0.9-4.6-3.1c-0.6-1.7-0.9-3.7-1.9-5c-2.5-3.3-0.9-5.4,1.8-6.8c3.5-1.7,3.5-3.8,2.2-6.9
		c-1.7-4.2-3.4-8.2-4.6-12.6c-1.1-4.3-2.8-8.4-8.3-9.3c-1.4-0.2-2.9-1.3-4-2.8c-2.7-3.9-4.4-3.8-6.8,0.3
		c-8.2,13.7-18.3,26-27.9,38.6c-5.7,7.5-5.9,7.3,0.8,14.1c1.2,1.2,2.3,2.4,3.5,3.5c8.8,8.6,17,17.9,27.9,23.9
		C1306.5,469.4,1311.1,471.3,1316.7,472.2z M1358.6,358.6c0-3.3,0-6.6,0-9.9c0-1.9,0.4-4,2.6-4.3c3.9-0.5,7.4-2.7,11.6-2.4
		c5.2,0.4,11.2-3.8,12.5-8c1.5-4.8-0.1-7.7-6.4-11.8c-4.1-2.7-4.6-7.7-1.1-10.9c0.7-0.6,1.8-1.1,1.3-2.4c-2-5.1-1.5-10.7-3.8-15.8
		c-1.5-3.3,0.5-5.5,3.6-6.5c9.1-3,17.8-7.1,27.6-7.7c1.8-0.1,2.7-1.1,2.8-2.8c0.4-4.8,1.3-9.6,1.3-14.4c0.1-21.2,0.1-42.3,0-63.5
		c0-1.1,0.4-2.5-0.9-3.5c-6.7,19.9-15.1,38.6-24.4,56.9c-11.9,23.4-25.7,45.7-39.8,67.8c-1.4,2.2-2,4.3-1,6.6
		C1349.2,336.7,1351.8,348.4,1358.6,358.6z M1455,693.2c0.4-1.7-0.7-2.8-1.6-4c-10-12.6-19-26-26.7-40.2c-1.5-2.8-3.2-5.7-6.2-7.5
		c-18.3-11.1-36.4-22.4-54.7-33.4c-9.2-5.6-18.7-10.8-27.9-16.5c-3.7-2.3-5.5,0.1-7.5,2.3c-2.4,2.6-0.3,4,1.4,5.7
		c9.7,9.7,20.4,18.3,30.8,27.2c4.5,3.9,8,9,12.7,12.6c10.8,8.2,20.5,17.8,30.5,26.9c2.7,2.4,5.1,5.3,7.9,7.6
		c12.1,10,23.7,20.5,34.8,31.7c1,1,2.1,3.2,3.4,2.1c1.8-1.6,4.5-5.4,3.9-6.1C1453.6,698.7,1454.3,696.1,1455,693.2z M1475.5,645.7
		c0-3.7,0-6,0-8.3c0-22.5,0-45,0.1-67.5c0-3.5,0.3-7,0.6-10.5c1.4-14.4,2.2-28.7-0.4-43.1c-1-5.6-3.8-5.7-7.5-4.9
		c-5,1.1-9.7,3.2-14.9,3.4c-1.2,0.1-2.2,1-2.2,2.3c0,1.8,1.3,1.9,2.8,2c1.9,0.2,4.4-0.3,5.6,1.6c2.5,4.2,5.5,7.9,8.4,11.7
		c5.5,7.1-3.2,12.4-4.2,19c-0.4,2.6-3.3,5.1-3.1,8.5c0.1,1.7-0.8,2.7-2.5,3.2c-2.4,0.7-4.8,1.3-7,2.4c-3.5,1.7-5.5,0.5-6.1-3
		c-0.5-2.6-1.4-3.7-4-2.4c-0.8,0.4-1.6,0.6-2.4,0.1c-1.1-0.7-1.5-3.3-3.4-1.9c-1.6,1.2,0.3,2.7,0.3,4.1c0,2,0,4.1,0.5,6
		c3.1,11.7,4.9,23.6,6.9,35.4c0.8,5,1.6,10.5,5.2,14.3C1456.7,627.4,1465.3,636.4,1475.5,645.7z M240.2,728.3
		c-0.7-0.4-1.2-0.8-1.7-1.1c-22.2-10.2-44.4-20.4-66.7-30.5c-5.5-2.5-11.5-3.8-17.3-5.7c-3.6-1.2-4.3,1-5.2,3.3
		c-1,2.8-0.8,5.8-1.6,8.7c-2.6,8.9-3,18.2-4,27.4c-0.1,1.3-0.2,3.5,1.1,3.4c3.9-0.2,7.5,3,11,2c10.6-2.8,21.4-1.4,32.1-2.4
		c12.9-1.2,26-3.4,39.2-2.6C231.6,731.3,235.9,730.8,240.2,728.3z M315.9,625c1.4-3.4-0.9-5.6-1.4-8.1c-1.5-8.3-3.2-16.6-5.7-24.6
		c-3.3-10.5-5.9-21.2-8.5-32c-2.2-9.3-5.6-18.2-9-27.2c-0.5-1.3-1.3-2-2.6-1.7c-2.4,0.6-5,0.8-7.1,2.1c-8.7,5.4-18.2,9.4-26.8,15.1
		c-3.5,2.3-4,4.4-1.5,7.7c6.5,8.4,13.3,16.5,20.8,24.1c4.2,4.3,8.5,8.5,12.3,13.1C295.4,604.7,306.8,613.5,315.9,625z M1401,852.5
		c-4,2.4-8.4,2.9-12.2,4.8c-16.1,8.1-32.2,16-48.3,24c-6.7,3.3-13.2,6.9-19.1,11.5c-1.7,1.3-2.8,2.4-0.9,4.9
		c6.9,8.9,13.9,17.8,22,25.7c5.6,5.5,5.4,5.3,11,0c7.8-7.3,13.4-16.4,18.9-25.3c6-9.7,12.3-19.1,18.4-28.7
		C1394.2,863.8,1397.6,858.1,1401,852.5z M1417.3,633.8c-0.3-3.1-1.2-4.6-2.2-6.2c-4-6.7-7.9-13.4-11.8-20.2
		c-9.5-16.9-16.7-34.9-26.6-51.6c-1.4-2.4-2-2.6-4.3-1.1c-10.7,7.2-19.5,16.5-29.4,24.7c-1.1,0.9-1.9,2.3-2.9,3.4
		c-0.6,0.7-0.9,1.4-0.1,2.1c2.8,2.5,5.4,5.5,8.6,7.5c14.6,9.1,29.4,17.9,44.1,26.8C1400.7,624,1408.7,628.7,1417.3,633.8z
		 M272.2,854.8c-9.4,4.6-18,8.7-26.5,13c-11.5,5.7-23.1,11.4-34.5,17.4c-6.3,3.2-12.3,6.9-18.4,10.5c-2.6,1.5-2.6,3.6-0.6,5.8
		c1.8,2,3.7,3.9,5.2,6c6.1,8.1,12.8,15.6,20.5,22.3c1.6,1.4,2.7,1.4,4-0.3c3-3.7,6.6-6.8,9.2-10.9c11.5-18,23.6-35.7,35.3-53.6
		C268.3,861.9,271.3,859.5,272.2,854.8z M532.2,673.3c9.8-0.8,19.9-1.6,30.1-2.4c9.1-0.7,18-3.3,27.1-2.8c8.3,0.4,15.7-1.9,22.9-5.4
		c2.2-1.1,2.8-2.3,1.7-4.7c-5.7-12.2-12-24-19.8-35c-0.9-1.3-1.9-2.5-3.6-1.4c-5.4,3.1-11.2,5.8-16,9.9c-5.6,4.9-11.2,9.7-16.4,15
		C549.3,655.2,540.9,664.3,532.2,673.3z M448.1,613.6c7.2-11.5,15.8-20.3,23.1-30.1c10-13.5,21.6-25.8,29.9-40.6
		c1.6-2.8,1.6-3.6-1.3-5.1c-10.7-5.5-21.9-9.9-33.2-14.2c-4.1-1.6-5.7-0.6-6.6,3.8c-0.8,3.9-1,7.9-2,11.6c-3,11.2-2.6,23-5.4,34.1
		c-1.7,6.5-1.6,13.1-2.4,19.5C449.4,599.2,446.8,605.5,448.1,613.6z M1523.9,907.9c-0.9,3.1-1.7,4.8-1.8,6.6
		c0,6.9-2.6,13.3-4.2,19.8c-3,12-5,24.2-8.4,36.1c-1.8,6.3-2.1,12.8-3.3,19.1c-0.9,5.1-0.3,6,4.9,6.4c11.9,0.9,23.5-1.4,35.3-2.1
		c4.3-0.3,5.4-3.1,4.7-7.1c-1.7-8.8-5.6-16.9-8.4-25.3C1536.9,943.9,1530.5,926.5,1523.9,907.9z M623,827.7
		c-44-10.6-89.3-13.9-134-20.9c1,5,4.8,8.8,7.9,11.8c4.8,4.7,6.6,15.1,17.1,11.8c0.4-0.1,1,0.3,1.3,0.6c2.9,3.4,6.9,3,10.7,2.7
		c8.6-0.5,17.1,1.8,25.7,0.2c5.6-1,11.2,1,16.9,1c15.3,0.1,30.7,0,46,0.2C619.6,835.3,623.2,834.3,623,827.7z M374.5,992.4
		c-1.4,3.8-0.3,5.3,3,6c1.6,0.3,3.2,0.6,4.9,0.7c12.7,0.7,25.2-0.7,37.8-2c2.1-0.2,2.8-0.6,2.8-3.3c0-6.6-2.7-12.4-4.7-18.2
		c-6.4-18.9-13.7-37.5-20.7-56.2c-0.4-1.1,0.4-3.2-1.8-2.9c-1.4,0.2-2,1.7-2.1,3.1c-0.1,7.2-3.3,13.7-4.5,20.7
		c-2.9,17-9.4,33.3-10.4,50.7C378.7,994.8,377.3,995.5,374.5,992.4z M536.3,856.5c-2.3,0-4.5-0.1-6.7,0c-2.1,0.1-3.3,0.7-1.5,3
		c8.1,10.4,16.2,20.8,24,31.5c5.8,7.9,12.1,15.2,18.9,22.3c2.3,2.4,3.2,2.7,5.1,0.2c7.8-10.1,15.6-20.1,22.3-30.9
		c2.1-3.3,1.1-4.7-1.8-6c-5.1-2.3-10.3-4.6-15.5-6.6c-7.1-2.7-14-7-22.2-4.7c-3.3,0.9-5.3-1-6.6-3.9c-0.8-1.8-2.2-2.6-4.1-3.3
		C544.3,856.8,540.3,856,536.3,856.5z M1728.4,874.4c-24.8-11.8-51.7-17.1-77.3-26.7c3.3,5.3,6.5,10.5,10.6,14.9
		c3.9,4.3,7.2,9.1,10.9,13.5c8.6,10.2,15.1,22.2,25.8,30.7c4.7,3.8,4.9,3.9,8.6-1.2C1714.1,895.5,1722.6,886.4,1728.4,874.4z
		 M1680.4,705c0.1,0.4,0.2,0.8,0.4,1.1c3,0,6-0.2,9,0c21.5,1.8,43,2.8,64.6,1.9c3.1-0.1,4.6-0.2,4.4-4.4c-0.4-7.6-3.5-14.4-5-21.7
		c-1.1-5-2.9-9.8-4.5-14.7c-0.5-1.5-1.5-4.1-3.2-2.8c-4.5,3.3-10.3,3.1-14.8,6.9c-5.5,4.6-11.7,8.3-17.7,12.3
		C1702.6,690.8,1691.5,697.8,1680.4,705z M1584.3,595.8c11.4-12.9,22.7-25.8,34.1-38.6c4.7-5.3,9-10.9,12.9-16.9
		c2.7-4.2,1.5-6-2.4-7.9c-10.8-5.1-22-9.2-33.1-13.6c-2.3-0.9-3.5-0.4-4.1,2.5c-0.6,3.1-0.7,6.3-1.3,9.3c-2,10.2-3.9,20.4-3.6,30.9
		c0,1.3,0,2.7-0.3,4c-2.2,8.2-1.9,16.7-3,25C1583.2,592.2,1583.2,594.1,1584.3,595.8z M302.6,547.8c1.4,7.9,2.7,15.6,5,22.9
		c4.7,15.1,8.1,30.5,12,45.8c2.6,10.4,5.3,20.4,14.3,27.3c1.5,1.2,2.7,3,3.7,4.7c1.8,3,4.4,5.1,7.6,7.7c0.1-2.2,0.3-3.6,0.3-5.1
		c0-12.3-0.1-24.6,0.1-36.9c0.1-4.3-1.4-7.6-3.8-11c-7-9.6-13.9-19.4-20.8-29.1C314.8,565.4,308.7,556.6,302.6,547.8z M1357.5,721.3
		c-2.9-1.5-4.5-2.4-6.1-3.2c-8.3-4-16.7-7.9-24.9-12.1c-13.3-6.7-26.8-12.8-40.6-18.5c-3.9-1.6-6-0.5-6.9,3.7
		c-1.4,6.9-2.8,13.9-4.6,20.7c-1.4,5.4-1.1,18.6,4.5,13.2c-3,0.4,4,1.7,5.8,1.4C1289.3,726,1351.4,722.9,1357.5,721.3z M386,602.1
		c1.4-5.6-0.7-9.8-0.9-14.3c-0.7-11.8-0.2-23.6-0.4-35.5c0-2.7,1-6-4.2-3.6c-2.1,1-6.7,1.7-7.5-1.5c-1-3.9-3.1-7.7-2.5-12
		c0.9-6-0.4-11.9-0.1-17.9c0.1-2.2-0.3-4.7-2.6-5.5c-4.8-1.6-9.5-0.5-14,1.6c-3.1,1.4-1.4,4.4-2,6.7c-0.2,0.6-0.2,1.3-0.3,2
		c-1.8,9.4-0.5,18.9-0.8,28.4c0,1.6,0.9,2.8,1.7,4.1c4.8,6.9,9.6,13.9,14.5,20.8C373.1,584.1,379.4,592.8,386,602.1z M229,381.9
		c10.6,14.9,21,29.6,31.5,44.2c1.3,1.8,2.7,2.5,5.1,1.7c10-3.4,20-6.7,30.1-9.7c2.8-0.9,2.4-1.8,1.3-3.8
		c-4.6-8.8-12.1-14.7-20.1-20.1c-8.5-5.7-18.2-8.6-28.1-10.3C242.5,382.7,236.1,379.8,229,381.9z M481.4,797.2
		c1.1,2.5,2.4,3.3,4,3.8c10.1,3.2,20.8,3.8,31.1,5.2c17.3,2.3,34.6,5,51.9,7.2c14.3,1.8,28.5,4.5,42.8,5.7c3,0.3,6.4-0.9,8.7,0.3
		c6.3,3.3,6.5-1.4,7.4-4.9c0.6-2.6,1.1-5.1,1.9-7.7c0.7-2.3,0.4-4-3-4.1c-9.6-0.5-19.3-1.1-28.9-1.4c-32.9-0.9-65.9,0.6-98.8-2.1
		C493.1,798.8,487.4,800,481.4,797.2z M569.8,591.9c0.3-0.8,0.7-1.5,1-2.3c-3.7-3-7.5-6-11.2-9.1c-3.5-3-7.3-3-10.5,0
		c-6.3,5.9-13.4,10.7-19.9,16.3c-10.8,9.3-22.1,17.8-33.2,26.7c-8.1,6.5-16.4,12.8-24.4,19.4c-3.9,3.3-7.7,6.9-11.5,10.5
		C497,633.4,533.7,613.2,569.8,591.9z M1405.6,375.2c1.4-4.2-2.3-6.8-4.7-9.3c-1.3-1.4-4,2.1-4.8,3.8c-2.9,6-7.9,8.3-13.9,10
		c-8.2,2.3-9,4.8-5.2,12.2c1.1,2.2,2.4,4.3,3.9,6.3c3.9,5.1,3.7,8.5,0,13.7c-1,1.3-0.9,2.8-0.9,4.3c-0.1,3.1-0.3,6.3-0.7,9.4
		c-0.4,3.4,0.3,6.9,2.1,10.1c1,1.8,2.1,2.5,4,1.4c5.9-3.2,12.2-5,18.5-7.3c3.7-1.4,3.7-4,3.2-7.3c-0.9-5.3-4.7-8.2-8.6-11.3
		c-8.2-6.3-7.5-15,1.4-20.1c1.3-0.8,3.1-1.2,3.3-2.8C1403.7,384.1,1406,380.1,1405.6,375.2z M1379.3,72.2
		c-5.9-3.3-12.3-2.2-18.2-3.1c-12.4-1.9-24.9-0.4-37.4-0.9c-4.4-0.2-7.2,0.8-8.7,5.4c-0.8,2.6-2.9,4.8-4.6,7.1
		c-4.4,5.8-3.8,7.6,3.3,9.1c1.8,0.4,3.6,0.2,5.5,0.3c5.1,0.2,10.2,0.3,15.3,1.4c3.9,0.8,7.5,2.6,11.3,2.9c6.8,0.7,11.3-3.9,16-7.8
		C1367.5,82,1373.1,77.3,1379.3,72.2z M694.2,860.1c5,0,7.7,5.3,12.6,4.1c7.7-2,14.3,6.4,22.2,2.1c0.7-0.4,2.1,0.6,3.2,1.1
		c3.5,1.7,6.8,3.2,10.8,0.9c1.5-0.9,3.7-0.5,5.1,0.9c2,1.9,4.5,2.2,7,1.9c4.9-0.4,9.4,1.6,14.1,2.2c6.4,0.8,12.9,0.3,19.1,3.4
		c2.3,1.1,3.4-1.2,1.7-3.1c-4.2-4.7-7.6-10-11.4-15.1c-1.5-2-3.1-2.2-5.6-1.3c-6.3,2.2-13,1.9-19.2,0.5c-4.5-1-8.7-1.3-13.3-1.4
		c-13.7-0.4-27.1,3.3-40.8,2.1C698,858.3,696.1,857.8,694.2,860.1z M471.7,786.3c1.7,2.5,2.8,4.3,4.8,4.1c7.9-0.9,15.6,1.8,23.3,1.5
		c29.3-0.8,58.4,3.3,87.7,2.1c6.5-0.3,13-0.1,19.5,0c3.5,0,6.9,0.2,10.3,1.4c3.8,1.3,7.9,0.5,11.9,0.4c1.3,0,2.2-0.8,2.1-2.2
		c-0.1-1.7-1.4-1.6-2.6-1.6c-2.2,0-4.5,0.5-6.5-0.1c-11.1-3.4-22.8-1.5-34.1-3.1c-12.2-1.8-24.6-3.6-37.2-2.4
		c-2.8,0.3-5.6-0.3-8.4-0.5c-6.9-0.6-13.9-2.2-20.4,1.8c-1.3,0.8-3.1,0.9-4.4,0.2c-4.1-2-8.8-1.2-13-3.1c-2-0.9-5.1-1.4-6.8-0.4
		c-4.4,2.7-9,1.7-13.6,1.9C480.3,786.4,476.4,786.3,471.7,786.3z M1661.4,712c-4.2-1.6-7.3-2.7-10.7-2.7c-9,0-18,0-27-0.1
		c-1.8,0-3.8,0-5.2,1.4c-5.4,5.3-10.8,10.7-16.7,16.6c8,2.8,15.3,4.5,22.8,5.7c2.4,0.4,4.9,1.5,7.6-0.4
		C1641.5,725.7,1651.1,719.2,1661.4,712z M1487,804.4c-0.5-4.4-2.2-8.1-5.1-11.6c-3.4-4.2-6.8-8.6-9.1-13.5
		c-2.2-4.6-6.4-6.2-10.2-6.6c-3.7-0.4-3.2,4.2-3.9,7c-0.1,0.3-0.3,0.6-0.4,0.9c-2.6,9.4-6.6,18.3-8.7,27.9c-0.5,2.4-0.2,3.8,2.5,3
		C1463.4,807.8,1475.4,807.5,1487,804.4z M1576.1,612.8c-9.8,8-15.8,18.2-24.3,26.1c-1.3,1.2-0.9,3.1-1,4.8
		c-0.8,8.5,2.8,16.7,2.1,25.3c-0.2,3.1,1.6,2.3,3,1c2.3-2.2,5.1-3.8,7.4-5.8c3.3-2.8,8.4-5.1,8.9-9.6c0.9-7.4,3.4-14.6,2.4-22.2
		c-0.4-3,0-5.9,1.2-8.8C1577,620.3,1576.6,617,1576.1,612.8z M1598.7,826.6c-2.3-7.2-6.6-12.9-9.1-19.5c-1.7-4.6-4.3-6.2-8.9-6
		c-7.3,0.3-14.4-1.5-21.5-2.9c-6-1.2-8.7-0.4-10.8,5.9c-1.6,4.9-0.8,6.1,6,8.1c0.5,0.1,0.9,0.4,1.4,0.5
		C1569.9,817.3,1584.1,821.8,1598.7,826.6z M1549.7,670.9c-3-6.5-1.8-13.4-2.3-20.2c-0.1-1.3-0.2-3-1.8-3.2c-1.4-0.2-2.2,1.3-3,2.3
		c-7.4,8.9-14.8,17.9-22.1,26.9c-6.7,8.2-6.6,8.2,0.9,15.5c1.9,1.8,3,2.2,5.3,0.3c6.4-5.3,13-10.3,19.7-15.2
		C1548.7,675.6,1549.7,673.7,1549.7,670.9z M453.7,411.5c-2.4-3.5-6.1-5.2-7-8.9c-0.8-3.2-2.7-3.3-5.2-3.3c-5,0.1-10,0.1-14.9-0.1
		c-6.1-0.2-9.2-5.2-7-10.7c0.9-2.2,2.8-3.1,4.7-4.3c2.9-1.9,3.2-4.1,0.4-6.3c-2.9-2.2-5.8-4.5-8.9-6.4c-4.2-2.6-7.8-0.6-7.8,4.3
		c0,8.7,0.1,17.3,0,26c0,3.5,1.2,5.4,4.9,5.1C426.5,405.9,439.5,410.4,453.7,411.5z M1601.1,732c-4-1-6.8,1.1-9.4,3.6
		c-2.8,2.6-5.5,5.3-8.2,8.1c-7.4,7.6-7.1,7.5-1.1,16.1c2.8,4.1,5.3,3.4,8.6,1.2c5-3.5,10.1-6.6,14.9-10.3c4.7-3.6,9.6-7,14.6-10.2
		c0.9-0.6,2.1-1.4,1.7-2.7c-0.2-0.6-1.2-1.1-1.9-1.3C1613.9,734.9,1607.5,733.5,1601.1,732z M351.4,617.4
		c-3.5,9.1-2.4,18.3-2.8,27.4c-0.4,9.3-0.7,18.4,8.5,24.2c0.1,0.1,0.2,0.3,0.3,0.4c1.9,3.6,4.2,3.8,7,0.8c0.9-0.9,2-1.7,3.2-2.3
		c1.9-1.1,2.1-2,0.6-3.8c-2.3-2.6-3.8-5.4-0.5-8.7c1.3-1.3,0.6-3-0.2-4.6c-1.6-3.2-3.7-5.9-6.4-8.2c-2.9-2.5-2.9-5.8-0.5-7.8
		c2.5-2.1,1.2-3.3,0.1-4.8C357.8,625.8,354.7,621.8,351.4,617.4z M453.5,801.6c2,5.8,5.3,10.6,7.7,15.8c2.5,5.4,9.9,9.7,15.7,8.4
		c3-0.7,5.4-0.5,7.9,1.2c1.5,1,3.2,1.7,4.9,2.4c2.7,1.1,5.2-0.7,6.8-1.9c1.5-1.1-0.9-3.3-2-4.8c-3.2-4.2-6.5-8.2-9.5-12.5
		c-1.9-2.8-4.3-4.9-7.4-5.4C469.8,803.4,461.8,802.6,453.5,801.6z M1596.6,802.7c-1,0.3-2.5-0.5-2.8,0.7c-0.3,1.6,0,3.3,0.8,4.8
		c2.8,5.2,5.9,10.4,8.3,15.8c1.5,3.3,3.9,4.8,7,5.8c7,2.3,14.1,4.5,21.1,6.7c1.3,0.4,2.7,1.1,3.6-0.4c0.7-1.2-0.7-2-1.3-2.9
		c-4.8-6.6-9.3-13.6-14.6-19.8c-2.7-3.2-4.6-8.1-9.4-8.8C1605,803.8,1600.6,804.8,1596.6,802.7z M394.6,838.9
		c-5,7.3-7.4,14.8-11.2,21.6c-0.8,1.4-0.9,3.1-0.2,4.4c4.7,9.3,5.9,19.9,11.8,29.3c3-13,5.9-25.6,8.7-38.2c0.1-0.4,0.1-1-0.1-1.4
		C400.7,849.6,397.8,844.6,394.6,838.9z M702.4,835.2c8.4-3,16.5-6.9,25.1-8.6c7.4-1.5,11-5.6,13.8-11.6c0.5-1.1,1.8-2.9-0.7-2.9
		c-8.6,0-17.1-6.6-25.7,0.1c-1.3,1-2.9,0.2-4.4,0.2c-2.2-0.1-3.5,0.7-3.7,3C706.3,821.9,702.5,827.7,702.4,835.2z M1614.6,708.5
		c-14-2-26.8-1.7-39.4-0.8c-5.2,0.4-1,7.1-3.2,10.3c-0.9,1.4-0.3,2.5,1.1,3.3c0.3,0.2,0.6,0.3,0.9,0.4c6.3,1.3,12.5,2.7,18.8,3.9
		c1.7,0.3,3.3,0,4.7-1C1603.6,720.3,1608.4,714.7,1614.6,708.5z M348.7,700.5C348.7,700.5,348.7,700.5,348.7,700.5
		c0,4.8,0,9.6,0.1,14.4c0,1.6-0.6,3.8,1.4,4.4c2.1,0.6,3.6-0.9,4.6-2.9c1-1.9,2.4-4.2,4.3-4.6c6.8-1.7,11.7-6.5,17.5-9.8
		c0.9-0.5,2.3-0.8,1.7-2.5c-0.8-2-11.4-8.4-13.5-7.4c-3.9,1.8-5.9-0.6-8.1-2.9c-1.3-1.3-2.4-2.8-3.6-4.1c-1-1.1-1.9-2.9-3.4-2.4
		c-1.8,0.5-0.9,2.6-1,4C348.6,691.2,348.7,695.9,348.7,700.5z M1523.7,839.9c4.5-8.7,8.5-16.8,12.8-24.8c1.4-2.6,0.8-3.7-1.9-4.5
		c-4.9-1.4-10.6-0.3-14.7-1.6c-5.6-1.8-11.3,0.1-17-2C1509.7,817.9,1516.6,828.7,1523.7,839.9z M432.5,797.4c-0.8,0.2-1.6,0.2-2,0.6
		c-2.7,2.9-6.7,4.2-9.2,7.7c-3.1,4.4-3.3,5,1.8,6.5c1.7,0.5,3.5,1.1,5.1,1.8c8.2,3.8,17.7,3.3,25.4,8.5c1,0.7,2.7,0.8,3.8-0.2
		c1.2-1.1-0.1-2.1-0.6-3.1c-1.2-2.7-1.9-6-3.8-8c-3.3-3.5-3.3-9.6-9.1-11.3C440.2,798.8,436,800,432.5,797.4z M1512.7,860.5
		c1.9-3.8,3.3-7.4,5.4-10.4c3.2-4.7,1.8-8.5-1-12.7c-6-9.1-11.8-18.3-17.7-27.5c-0.9-1.4-1-3.3-3.5-2.2c-2.1,1-1.6,2.4-1.1,4.1
		c2.6,10.4,7.1,20.2,10.4,30.4C1507.3,848.2,1509.1,854.4,1512.7,860.5z M380.1,856.1c3.8-7.6,7.1-14.2,10.3-20.8
		c0.6-1.3,0.6-2.7-0.1-3.8c-2.1-3.5-3.7-9-6.7-10c-4.4-1.4-8.7-3.9-13.5-4.2c-2.8-0.2-4,0.5-2.8,3.7
		C371.5,832.2,375.6,843.5,380.1,856.1z M1570.7,663.3c-3.2,2.7-6.1,5.2-9.5,7.3c-4.2,2.6-7,6.5-6.6,12.4c0.3,5.5,2.2,10.6,2.4,16.1
		c0.2,4.7,4.9,2.5,7.7,2.9c2.5,0.3,4.7-0.2,4.7-3.5c0.1-4-0.5-8.2,0.6-11.9C1572.3,678.9,1570.5,671.2,1570.7,663.3z M205.2,411.7
		c-2.1,1.5-2,4.9-4.9,5.5c-5.6,1.1-5.1,5.2-4,8.9c0.7,2.6,1.1,5.1,1.6,7.8c1,5.7,1.8,11.6,6.3,16.2c1.7-2.6,0.8-5,0.1-7
		c-1.2-3.3-0.4-5.3,2.6-6.9c3.3-1.7,6.3-3.2,9.4,0.2c2.4,2.5,5,4.9,7.4,7.4c1.1,1.1,2,2.6,3.6,1.1c1.5-1.4,0-2.3-0.7-3.3
		C219.5,431.5,212.4,421.6,205.2,411.7z M325.3,757.5c1.6-2.8,4.3-4.3,4.6-7.9c0.5-6.3,1.3-12.7,7.6-16.5c1.1-0.6,2.6-1.7,1.8-3.1
		c-0.8-1.4-2.4-0.7-3.6-0.3c-8.9,3-17.8,6-26.7,9c-3.6,1.2-3.6,3.1-0.9,5.2c4.6,3.7,9.3,7.3,14,10.9
		C323.1,755.6,324,756.5,325.3,757.5z M553.1,645.8c-0.4-0.4-0.8-0.9-1.3-1.3c-1,0.5-2.1,0.9-3.1,1.5c-10.6,6.2-21.1,12.3-31.6,18.5
		c-2.6,1.5-5.4,2.6-7.5,4.9c-2.5,2.8-2.2,6.2,1.3,10.1c2.4,2.6,3.7-0.3,5.4-1.1c6.1-2.9,11-7.3,15.7-12.1
		C538.9,659.3,546.1,652.6,553.1,645.8z M440.3,630.1c-6.8,8.4-12.9,15.8-18.8,23.2c-0.4,0.5-0.5,1.7-0.3,2.4
		c1.4,3.7,1.4,7.5,1.7,11.3c0.1,1.7,0.7,3.3,2.8,3.6c3.8,0.5,9-3.5,9.8-7.3C437.8,652.9,438.1,642.2,440.3,630.1z M332.5,787.6
		c0.6-2.1-1.4-3.4-1.4-5.3c0-1.2-0.1-2.4-1.6-2.8c-1.6-0.4-2.3,0.9-3,2c-6.2,9.5-12,19.3-18.9,28.4c-0.7,0.9-1.3,2.2-0.6,3.2
		c0.7,1,2.3,0.9,3.2,0.4c2.6-1.4,5.3-1.6,8.1-1.7c2.4-0.1,4.8-1.2,6-3.2C328.4,802.2,329.6,794.5,332.5,787.6z M350.6,578.9
		c0,5.5-0.4,10.2,2.9,14.4c9.8,12.7,18.6,26.1,27.7,39.3c1.3,1.9,2.6,4,4.9,5.2c2.1-6.9-1.2-11.6-4.7-16.4
		C371.2,607.5,361.2,593.5,350.6,578.9z M568.6,860.6c10.3,2.5,19.3,7.4,29.3,9.9c5.5,1.3,7.7,0.2,9.9-4.2c2-4.1,1-6.7-3.4-7.7
		c-2.1-0.5-4.3-0.5-6.4,0.3c-1.4,0.6-2.7,1-4.3,0.1c-5.5-3.2-11.6-2.2-17.5-2.5C573.3,856.4,570.8,857.2,568.6,860.6z M287.4,841.5
		c2.2-0.5,4.1-0.5,5.3-1.3c5.7-4.1,12.4-6.4,18.7-9.2c5.8-2.6,7.4-7.1,9.6-11.8c0.9-2,1.1-3.3-2.3-2.7c-4.4,0.8-8.7,1.9-13.1,2.7
		c-2.9,0.5-4.9,1.7-6.6,4.5C295.6,829.7,291.6,835.2,287.4,841.5z M345.3,580.2c0.4-9.4,0.3-9.3-5.4-16.5c-2.7-3.4-5-7-7.5-10.5
		c-7-9.7-14-19.2-20.8-29c-1.7-2.5-3.4-0.9-4.7-0.3c-1.7,0.9-0.3,2.3,0.5,3.3C320.2,544.7,331.8,563,345.3,580.2z M1599.9,799.1
		c1.9,0,3,0,4.2,0c2.5-0.1,2.9-1,1.3-3c-5.8-7.5-11.3-15.1-17.2-22.5c-1.3-1.7-2.9-4.3-5.7-2c-2.1,1.8-3.6,3.8-1.7,6.9
		c2.2,3.7,4.2,7.5,5.6,11.6C1588.9,797,1593.7,799.5,1599.9,799.1z M1524.1,849.2c-2.7,5.2-5.4,10.6-8.3,15.8
		c-1,1.9-1.2,3.8-0.5,5.8c2.5,6.5,5,13,7.5,19.5c2.3-7,2.9-14.1,5.1-20.7C1530.6,861.8,1529.7,855.3,1524.1,849.2z M246.3,433.9
		c0-1.3-0.9-2.1-1.5-3c-8.7-12.3-17.2-24.7-26.3-36.8c-2.8-3.7-5-7.9-8.7-10.8c-1.2-0.9-2.4-2.5-3.9-1.5c-1.9,1.4,0.2,2.7,0.9,3.7
		c4.6,6.7,9.2,13.4,13.9,20c6.9,9.9,13.9,19.8,20.8,29.6c0.6,0.9,1.1,2.4,2.6,1.8C245.4,436.4,246.3,435.4,246.3,433.9z
		 M446.7,704.9c3.1,3.2,6.6,4,9.8,2.2c10.1-5.8,20.9-9.9,31.3-14.9c1.1-0.5,3-0.7,2.7-2.5c-0.3-1.5-1.7-2.5-3.1-3
		c-4.1-1.4-7.9-0.5-11.5,1.5C466.3,693.7,456.7,699.2,446.7,704.9z M346.7,543.7c-0.5-8.5-0.9-17-1.7-25.5c-0.3-2.8-2.5-4.3-5.5-3.6
		c-2.9,0.7-5.9,1.1-8.7,2.1c-1.6,0.6-4.7,1.1-2.4,4.5C333.8,529,339.1,536.8,346.7,543.7z M757.9,295.1c-6.4,1.3-13.3,3.2-20,5.5
		c-1.6,0.6-2,1.3-1.5,3c1.2,3.3,2.1,6.6,3.3,9.9c1.4,3.8,3.7,4.4,6.7,1.4c4.9-5,10.3-9.5,14-15.5c0.7-1.1,2.4-1.9,1.7-3.3
		C761.5,294.6,759.7,295.4,757.9,295.1z M1528.4,698.5c3.7-2.1,6.2-0.3,8.6,1.3c4.2,2.7,8.9,2.4,13.5,2c0.9-0.1,1.3-0.9,1.3-1.8
		c-0.2-5.1-0.2-10.3-0.6-15.4c-0.2-3.3-1.8-4.6-4.8-2.3c-3.8,2.9-7.7,5.7-11.2,8.9C1533,693.3,1529.1,693.6,1528.4,698.5z
		 M1584.8,797.5c-2.9-6-5.5-11.5-8.2-17c-0.5-1-0.7-2.8-2.7-1.8c-3.3,1.8-7.3,2.5-9.4,6.5c-0.8,1.4-2.5,4.7-5.8,2.2
		c-0.5-0.4-2.9,1.3-1.3,2.5c4.5,3.4-1.5,2.1-1.5,3.2C1565.1,796,1574.7,795.4,1584.8,797.5z M1410.9,741c-0.1,0.3-0.2,0.7-0.2,1
		c15.4,7.7,30.9,15.3,47,23.3c-0.8-3.1-2.6-4.1-4.1-5.3c-5-4.1-10.2-7.8-14.9-12.2c-5-4.7-10.2-7.7-17.3-6.9
		C1417.9,741.3,1414.4,741,1410.9,741z M1222.8,360.8c1.1,0,2.4-0.4,2.3-1.4c-0.5-5.4,5.7-6.6,6.9-11.1c1.3-4.9,5.7-8.1,8.1-12.4
		c1.3-2.4,3-4.9,1.5-7.9c-0.5-1-1-2.3-2.5-1.9c-1.2,0.4-1.2,1.5-1,2.5c0.5,2.5,0.2,3.7-3,3.2c-2.5-0.4-4,1.6-3.8,4.1
		c0.1,2.3-0.2,3.4-2.9,3.2c-1.6-0.2-3.1,1.4-3.5,2.5c-1.7,4.6-5,8.1-6.9,12.5C1217,356.4,1220.3,360.8,1222.8,360.8z M1481.5,658
		c-1.7,0-1.7,1.2-2,2.1c-1.7,5.1,0.1,10.9,4.9,14c6.1,4,12.4,7.6,18.6,11.3c1.2,0.7,2.9,1.6,4.1,0.2c1.5-1.7-0.4-2.7-1.4-3.7
		c-7.4-7.5-14.8-14.9-22.2-22.2C1482.9,659.1,1482.1,658.5,1481.5,658z M1570.2,751.3c0.3-2.7,2.4-3.5,4.1-5
		c5.5-4.8,10.5-10,15.7-15.1c1.1-1.1,0.9-2.6-0.6-2.4c-5.7,0.6-10.6-1.8-15.8-3.3c-1.3-0.4-2.5,0.2-2.6,1.6c-0.2,3-0.5,6-0.2,8.9
		c0.2,2.2-4,5.3,1.3,6.7c0.6,0.1,0.4,1.8-0.4,2.1C1568.4,746.3,1569.5,748.7,1570.2,751.3z M1188.4,405.2c-0.8,1.8,1.5,3.2,0.4,4.8
		c-0.6,0.8-0.9,3.1-2.6,1c-0.4-0.5,0.5-2.1-1-1.4c-0.6,0.2-1.3,1.6-1,2c1.6,3-0.4,5.4-1.4,7.8c-0.8,2-1.2,3.8,1,5.5
		c2.2-2.9,4.1-5.8,5.6-9.1c2.3-5,6.2-9,9.3-13.5c2.1-3.1,6.2-5.1,6.4-9.1c0.1-1.8-1.3-3.4,2-3c1.4,0.2,2.4-1.3,2-2.8
		c-0.4-1.4-1.8-1.4-2.9-1.1c-3.8,0.9-8.2,0.9-8.3,6.5c0,1-0.5,2-1.6,2.4c-5.9,2.1-4.6,6.9-4.5,11.4
		C1190.2,407.3,1190.3,404.4,1188.4,405.2z M1254,141.8c-1.7,1.8-3.3,3.1-2.2,5.8c5.8,15.5,11.4,31.1,17.1,46.6
		c0.7,1.8,1.3,4.5,3.9,3.4c2.5-1.1,0.5-3.2,0-4.7C1266.6,176,1260.3,159.1,1254,141.8z M1415.7,839.2c6.8-3.1,12.4-6,18.2-8.1
		c5.5-2,5.2-7.2,7.4-11.1c0.3-0.5,0-1.3-0.7-1.6c-1.3-0.6-13.4,2-14.2,3.5C1423,827.2,1418.9,832.2,1415.7,839.2z M387.9,667.9
		c-4.9,5.2-8.2,11.3-14.1,14.8c-2.5,1.5-1.3,3.7,0.5,4.8c3.2,2,3.8,7.9,9.3,6.3c0.4-0.1,0.7-0.7,1.1-1c1.7-1.4,1.9-3.4,1.9-5.4
		c-0.1-4,0.1-7.9,1.5-11.8C388.9,673.4,388.7,670.8,387.9,667.9z M1382.1,727.4c8.8,6,18.5,8.8,29.2,7.6c2.7-0.3,6.7,0.2,6.9-3.1
		c0.1-2.7-3.7-3.7-6.4-4.6c-0.8-0.2-1.6-0.2-2.5-0.2C1400.1,727.1,1391,726.5,1382.1,727.4z M327,644.8c-0.1,5.2,3.7,8.8,3.4,12.9
		c-0.4,7.6,5.4,10.1,9.9,13.6c0.9,0.7,2.8,1.3,3.1-0.8c0.6-4,2-8.1-1.8-11.6C336.9,654.7,332.4,650,327,644.8z M406.2,847.2
		c0-3.1,1.2-5.5,1.9-7.9c0.8-2.5,0.1-5.2,1.3-7.8c1.8-3.6,0.6-6-3.4-7.7c-4.4-2-5.8,0.8-7.1,3.6C396,833.4,398.4,840,406.2,847.2z
		 M263.8,732.8c9.7,2.9,17.7,13.5,30.1,6.3c-1.9-1.9-3.7-3.6-5.4-5.3c-2.2-2.4-5-4.1-8-3C275.1,732.9,269.5,732.1,263.8,732.8z
		 M1452,785.1c-0.2-0.1-0.3-0.3-0.5-0.4c-6.3,9.1-12.6,18.1-18.8,27.2c-0.7,1.1-1.4,2.7,0.6,3.2c4.5,1.2,10.8-3,12.1-7.8
		C1447.5,799.8,1449.8,792.5,1452,785.1z M1197.3,516c-14.6,19.3-31.3,37.1-44.8,57.3C1169.6,555.9,1183.5,536,1197.3,516z
		 M343.6,710.6c0-8.3-0.3-16.5,0.1-24.7c0.2-5.2-1.1-9-6.1-11.2c-1-0.4-1.6-2.1-2.9-1c-1,0.8-0.7,2.1-0.3,3.2
		C338.4,687.9,340.6,699.4,343.6,710.6z M1317.5,322.6c1.8-4.9,3.5-9.2,0.7-14c-3-5.1-3.9-10.9-5.6-16.4c-0.4-1.4-0.6-2.9-2.7-3.6
		c0.5,2.8-4.5,3.4-2.5,6.2C1313,303.1,1310.6,314.1,1317.5,322.6z M351.3,810.9c-3-0.9-4.8-0.9-6.5-0.4c-3.7,0.9-7.3,2.1-11.1,2.7
		c-6.5,1.1-8.9,3.8-8.7,10.9C333.4,819.9,341.8,815.7,351.3,810.9z M1440,744.1c5.1,3.3,9.1,6.8,13.1,10.5c1.6,1.4,3.4,2.6,5.2,3.8
		c0.8,0.6,2,1.9,2.8,0.1c0.6-1.2,0-2.4-1.4-2.6c-6.1-0.6-5.2-4.7-3.7-8.3c1.7-3.9-0.3-5-3.3-5C1448.8,742.6,1444.8,742.3,1440,744.1
		z M1538.2,821.9c-4.1,6.4-5.9,12.3-9.1,17.4c-2.6,4.1-1.3,6.8,0.9,10c0.6,0.8,1,1.9,2.2,1.7c1.2-0.2,1.3-1.4,1.3-2.4
		c0.1-4.2,2-8,2.6-12C1536.6,832.2,1538.7,828,1538.2,821.9z M1472.1,813.1c-1.7-1.4-2.7-1.1-3.9-0.8c-4.5,1.1-8.9,2.3-13.5,2.9
		c-6.9,1-9.2,3.2-10.1,10.9C1453.5,821.2,1462.5,817.2,1472.1,813.1z M321.2,729.2c-4.9,0.4-9.7-0.8-14.5-0.8c-4.8,0-9,2.9-14.5,2.5
		C302,737.7,304.5,737.6,321.2,729.2z M1262.2,201.4c0.4-0.2,0.8-0.3,1.2-0.5c-3.8-16.8-17.9-53.6-21.9-55.9
		C1248.5,164.1,1255.3,182.8,1262.2,201.4z M1563.1,707c-2,1.1-5.7-1.5-5.8,2.8c-0.2,5.6,3.7,10.7,7.7,9.7c5.1-1.3,2-6.6,2.9-9.9
		C1569,705.6,1564.6,708.3,1563.1,707z M1459,636c-0.3,0.3-0.6,0.6-1,1c5.5,7.9,11,15.8,17.1,24.6c0.5-4.1,1.6-7.7-0.4-10
		C1470,645.9,1465,640.4,1459,636z M387.6,784.1c2.3,3.2,6.4,6.2,6.1,8.9c-0.5,3.7,1.1,2.6,2.7,2.7c1.3,0.1,2.7,0.2,4,0
		c1.4-0.2,4,0.9,3.9-1.6c-0.1-1.9,0.1-4.8-2.3-5.6C397.2,786.9,392.4,785.6,387.6,784.1z M344.6,806.7c-0.6-2.1-0.6-3.5-1.3-4.6
		c-1.9-2.7-4-6-7.3-6.3c-3.1-0.2-1.3,4.2-3.2,5.8c-0.5,0.4-0.5,1.2-0.8,1.8c-0.8,1.4-1.5,2.8-0.1,4c1.2,1,2.9,1.3,4.2,0.4
		C338.5,806.3,341.3,806.3,344.6,806.7z M1381.7,733.3c-8-4.8-27.3-5.6-38.2-1.3C1356.2,730.1,1368.6,734.1,1381.7,733.3z M1445,728
		c-3.5,1.2-6.5,1.6-8.8,3.1c-2.1,1.4-6.8,0.2-6.2,3.6c0.7,3.8,5.1,1.8,7.8,2.1c3.4,0.3,8.2,1,6-5.5
		C1443.5,730.6,1444.4,729.5,1445,728z M311.4,753.5c-11.6-11.6-12.1-11.8-19.7-7.6C298.3,748.6,304.3,752.3,311.4,753.5z
		 M1433.4,584.5c0.3-0.1,0.5-0.1,0.8-0.2c0.1-0.6,0.3-1.2,0.2-1.8c-1.3-7.1-2.7-14.2-4.1-21.3c-0.3-1.4-1.3-1.9-2.6-1.6
		c-1.7,0.4-2,1.7-1.6,3.1c0.8,2.9,1.8,5.7,2.7,8.5C1430.3,575.6,1431.8,580,1433.4,584.5z"/>
	<path d="M1668.2,535.6c4.5,0.1,6.7,2.8,9,4.5c15.5,11.3,29.2,24.7,42.2,38.7c6.4,6.9,11.6,14.8,17.3,22.2c0.7,0.9,1.6,2.2,0.3,3
		c-1.3,0.9-2.2-0.4-2.7-1.4c-9.9-16-23.4-28.7-36.5-41.9c-7.5-7.6-16.1-13.7-24.7-19.9C1671.4,539.6,1669.7,538.3,1668.2,535.6z"/>
	<path d="M1759.5,639.9c0,0.7-0.3,1.3-1,1.6c-0.8,0.3-1.3-0.2-1.7-0.7c-0.5-0.8-1.1-1.7-1.5-2.6c-3.8-8.3-7.8-16.5-13.1-23.9
		c-0.6-0.9-1.8-2-0.4-3c1-0.7,2,0.3,2.5,1.1c5.5,8.6,10.6,17.4,15,26.6C1759.4,639.2,1759.4,639.6,1759.5,639.9z"/>
	<path d="M124.8,738.7c-3.4-3.6-3.5-8.1-2.8-12.4c0.7-4.1,2-8,1.9-12.2c0-1.1,0.2-2.6,1.6-2.7c1.6-0.1,1.4,1.5,1.8,2.6
		c0.1,0.3,0.3,0.7,0.2,1C124.8,722.6,126.1,730.7,124.8,738.7z"/>
</g>
</svg>
