<?xml version="1.0" encoding="utf-8"?>
<!-- Generator: Adobe Illustrator 21.0.2, SVG Export Plug-In . SVG Version: 6.00 Build 0)  -->
<svg version="1.1" id="Слой_1" xmlns="http://www.w3.org/2000/svg" xmlns:xlink="http://www.w3.org/1999/xlink" x="0px" y="0px"
	 viewBox="0 0 1264.3 743.5" style="enable-background:new 0 0 1264.3 743.5;" xml:space="preserve">
<g>
	<path style="fill:#fff" d="M320.7,728.5c6.5,0.6,13,1.8,19.5,1.6c12.3-0.5,24.5,2,36.9,0.6c7.2-0.8,14.6,0.4,21.9,0.7c1.3,0.1,3,0.2,2.9,2
		c-0.1,1.7-1.8,1.8-3.1,1.8c-10.2,0.1-20.2,1.4-30.4,2.1c-17.4,1.3-34.8,2.5-52.2,3.8c-10.3,0.7-20.6,0.4-30.9,0.9
		c-14.4,0.8-28.9,2-43.4,1.2c-23.8-1.3-47.5-2.1-71.3-3.6c-18.4-1.1-36.8-3.8-55.3-3.4c-0.8,0-1.7,0-2.5-0.1c-2-0.2-4.7-0.3-4.8-2.6
		c-0.1-2.9,2.9-1.8,4.7-2.3c4.1-1.1,8.3-0.1,12.4,0c15,0.3,29.9-1.4,44.9-2.2c5.7-0.3,11.3-1.4,17.1,0.1c-6.6-2.9-13.5-4.9-20.2-7.4
		c-25.2-9.2-48.2-22.2-69.4-38.4c-11.5-8.8-21.8-19-31.5-29.6c-12.8-14.1-23.8-29.6-33.1-46.1c-9-15.9-16-32.8-21.2-50.3
		c-4.5-15-8.1-30.3-8.7-46c-0.1-2.1-0.6-4.3-1.3-6.3c-2.2-5.9-1.9-11.9-0.8-17.9c1.1-6.2,0.5-12.5,0.8-18.7
		c0.8-17.2,3.8-34.1,8.5-50.4c5.7-19.4,13.2-38.1,23.4-55.8c8.5-14.7,18-28.7,29.1-41.4c13.6-15.5,28.7-29.3,45.9-41.1
		c12.9-8.8,26.2-16.9,40.4-23.2c11.2-5,22.7-9.4,34.7-12.4c10.3-2.6,20.5-5.5,31.1-6.8c12.2-1.4,24.4-2.3,36.7-2.5
		c11.3-0.2,22.5,0.7,33.6,2.1c12.5,1.5,24.9,4,37,7.8c14.5,4.6,28.6,9.8,42.1,16.8c11.9,6.2,23.7,12.7,34.3,21.2
		c2.8,2.3,5.9,4.3,8.8,6.5c1.7,1.2,3.2,0.6,4.6-0.5c9.5-7.4,17.6-16.2,26.6-24c5.4-4.7,9.1-11,15.3-14.8c1.6-1,1.9-2.6,2.1-4.3
		c0.7-5.6-1.1-10.9-2.7-16.1c-0.8-2.7-2.5-2.6-4.7-1.9c-3.2,1.2-5.6,1-6.7-3.1c-1.1-4-0.8-6.5,3.6-7.3c4.8-0.9,4.9-3.5,3.6-7.6
		c-11.4-35.2-22.6-70.4-33.9-105.6c-3.7-11.6-12.1-17.3-24.4-16.4c-5.2,0.4-5.9-3.5-6.6-6.5c-0.6-2.8-1.8-3.5-4.1-3.9
		c-2.5-0.4-4.9-1.3-6.8-3c-13.5-12-31.1-16.2-46.5-24.7c-1.5-0.8-3.1-1.3-4.6-2c-5.7-2.6-8.1-6.1-7.1-10.5c0.9-4.5,4-6.4,10.3-6.5
		c10.9-0.2,21.6,1.3,32.3,2.6c27.2,3.2,54.4,3.6,81.8,1.9c16.3-1,32.6-1.9,48.9,0.6c6.6,1,13.1,2.6,18,7.8c1.5,1.6,2.6,3.4,3.1,5.6
		c0.6,2.6-0.3,4.3-3,4.6c-6.8,0.7-13.6,1.6-20.4,2.1c-4.3,0.3-8.3,0.1-12.2-2.8c-3.3-2.5-7.8-0.6-11.2,1.6
		c-3.7,2.5-7.1,5.6-10.6,8.3c-5.9,4.5-11.5,9.4-19.3,13.1c4.9,1.5,7.4,4,7.1,8.4c-0.3,3.2-2.1,5.4-5.2,4.1c-4.9-1.9-3.5,1.7-3.1,3.4
		c1,4.2,2.4,8.3,3.7,12.4c10.9,33.9,21.9,67.9,32.6,101.8c1,3.2,2.4,3.9,5.4,3.1c2.6-0.6,5.3-0.9,7.9-1.2c2.5-0.3,4.4,0.5,4.7,3.2
		c0.3,2.2-0.5,3.9-3.1,4.2c-0.8,0.1-1.5,0.6-2.3,1c-2.7,1.4-6.7,1.4-4.5,6.7c2.4,5.7,4,7.4,9.3,5.8c11.1-3.2,21.6-7.8,32.1-12.5
		c21.4-9.5,43.6-17,65.3-26.1c11.5-4.8,23.6-8.4,34.9-13.5c16.2-7.4,32.9-13.4,49.3-20.2c17.1-7.2,34.4-14.3,51.7-21.2
		c18.4-7.3,36.5-15.4,54.9-22.5c11.3-4.3,22.2-9.7,33.7-13.6c2.7-0.9,5-2.4,4.8-5.6c-0.2-3.5,0.3-6.9,0.9-10.3
		c0.5-2.6,0.6-4.9-3.4-5.7c-3.6-0.8-4.1-4.3-2.2-7.7c2.6-4.7,2.1-6-3-8.1c-4.4-1.8-5-5-1.8-8.5c3.3-3.5,7.4-5.6,11.9-7.1
		c3.4-1.2,6.9-2.4,10.3-3.5c-0.3-0.6-0.3-1-0.5-1.2c-4.2-2.8-6.9-6.4-5.7-11.7c1.1-4.7,5.2-7.7,11.4-8.2c3-0.3,6-0.1,9-0.4
		c2.3-0.2,3.7-0.8,2.3-3.8c-3-6.7-2.2-10,2.6-14.1c4.5-3.8,9.8-4.1,15.2-0.4c5.4,3.6,11.9,5.9,15.2,12.4c1.1,2.2,3.8,3,6.5,3.1
		c9.7,0.5,16.5,7.3,24.4,11.7c1.8,1,2.6,3.1,1.1,5.2c-1.8,2.5-1.1,4.3,1.5,5.6c0.1,0.1,0.4,0.2,0.4,0.3c1.5,6.2,8,8.9,10.1,14.6
		c1.4,3.8,3.9,6.1,7.3,7.7c9,4.3,17.9,8.6,25.7,15.1c11.6,9.8,17.1,22.2,18.1,37c0.9,14-2.4,27.2-8.4,39.7
		c-6.4,13.2-13.2,26.2-19.6,39.4c-7.3,14.9-9.2,30.9-8,47.2c0.3,4.8,1.5,5.3,6,3.9c12.8-4.2,25.9-6.9,39.2-9
		c16.9-2.7,33.9-2.8,50.7-2.1c15.6,0.7,31.2,2.9,46.5,7c14.8,3.9,29.2,8.8,43.1,15c10.6,4.7,20.9,10.2,30.6,16.7
		c15.2,10.2,29.8,21.1,42.6,34.3c7.7,8,14.8,16.5,21.6,25.2c12.4,15.8,22.3,32.9,30.2,51.2c5.2,11.8,9.4,24,12.5,36.7
		c2.4,9.5,4.3,19,5.9,28.6c1.4,8.1,1.8,16.1,2.1,24.3c0.2,5.9,0.2,11.8,0.1,17.8c-0.2,11.9-1.2,23.6-3.3,35.2
		c-4.2,23.5-11.2,46.1-21.6,67.6c-4.8,10-11.2,19-16.7,28.6c-5.2,9.1-12.2,16.8-18.3,25.1c-4.4,6.1-10.5,10.9-15.7,16.5
		c-7.4,8.1-16.1,14.8-24.6,21.6c-6.5,5.2-13.7,9.3-20.6,13.8c-19,12.4-39.9,20.7-61.5,27.3c-0.4,0.1-0.8,0.5-1.2,0.8
		c0.1,0.2,0.2,0.5,0.3,0.5c12.1-0.1,23.9,3.3,36.1,2.5c13.9-0.9,27.9,1.3,41.9,0.8c1.8-0.1,4.3-0.1,4.3,2.2c0,2.3-2.5,1.6-4,1.7
		c-14.6,1-29.1,2.1-43.7,3c-22.4,1.4-44.8,2.5-67.3,3.9c-27,1.7-53.9,1.1-80.8-0.6c-13.9-0.9-27.9-1.2-41.9-2.3
		c-11.8-0.9-23.5-1.9-35.3-2.7c-6.1-0.4-12.3,0.4-18.4-0.8c-2-0.4-5.3,0.4-5.4-2.2c-0.1-2.9,3.2-2.2,5.2-2.3
		c12.3-0.7,24.6,0.5,36.9-0.9c8.7-1,17.6-1.4,26.3-2.1c1.3-0.1,3-0.3,3-2c0.1-1.7-1.7-1.2-2.7-1.5c-15.8-4.9-30.8-11.7-45.2-19.7
		c-20.1-11.2-38.5-24.9-54.7-41.4c-13.4-13.6-25.5-28.4-35.4-44.6c-10.6-17.4-19.3-35.7-25.5-55.4c-5.1-16.1-8.5-32.4-10.8-49
		c-2.2-15.4-2-30.9-1.1-46.4c0.8-12.9,3-25.6,5.7-38.2c3.3-15.4,8.5-30.2,14.8-44.6c4.5-10.2,8.9-20.4,14.7-29.8
		c6.4-10.4,13.8-20.2,21.4-29.8c6.5-8.3,14-15.8,21.8-23.1c13.1-12.3,27-23.6,42.8-32.4c10.8-6,11.1-5.8,6.9-17.4
		c-4.6-12.8-9.5-25.6-14.3-38.4c-1.2-3.3-2.6-6.2-5.7-8.4c-2.9-2.1-3.6-6.2-5.1-9.6c-3.2-7.4-4.6-8.4-12.4-7
		c-4.3,0.8-6.7-0.6-7.8-4.8c-1.2-4.7-2.5-9.3-3.7-14c-1.8-7.1-5.4-9-11.5-5.2c-21.1,13.3-39.9,28.9-51.2,52.1
		c-4,8.1-9.9,15.2-14.1,23.2c-4,7.5-10.6,13.2-14.8,20.7c-6.4,11.3-12.8,22.8-20.5,33.3c-7.2,9.8-13.4,20.2-19.9,30.5
		c-9.2,14.7-19,29-27.6,44c-7.9,13.8-17.9,26.5-24.8,40.9c-5.1,10.6-11.5,20.2-18.6,29.4c-1.3,1.7-2.3,3.6-2.4,5.9
		c-0.1,1.2-0.7,3.1-1.7,3.5c-4.1,1.8-4.7,6.2-7.1,9.2c-6.4,7.8-9.5,17.8-15.9,25.6c-1.7,2-0.3,3.8,0.8,5.4
		c3.8,6.1,6.8,12.7,8.1,19.8c0.8,4,2.8,5.4,6.8,5.5c15.3,0.2,30.6,0.8,45.9,0.1c6.9-0.3,11,2.7,12.8,8.2c2.8,8.2-2.4,15.8-11.1,15.9
		c-15.5,0.2-30.9-1.3-46.5-1.1c-5.6,0.1-8,1.6-9.7,7.1c-11.7,38.2-58.9,56.1-93.9,35.6c-5.5-3.2-10.7-3.7-16.3-3.2
		c-5.7,0.5-11.4,1.5-17.2,1.6c-4.9,0.1-7,3.5-8.8,7.5c-5.5,12.3-11.7,24.1-18.9,35.6c-5.8,9.1-12.4,17.5-18.9,26
		c-6.9,8.9-14.9,17-23.4,24.5c-9.1,8-18.4,15.8-28.6,22.3c-9.7,6.1-19.4,12-29.8,17C349.3,718,335.2,723.6,320.7,728.5z
		 M382.9,638.3c-13.3-13-26.7-25.9-39.9-39c-2.1-2.1-4.5-3.2-7.1-2.6c-7.2,1.7-14.5,1.8-21.7,3.5c-4.3,1-3.3,2.3-1.5,4.7
		c13.2,18.3,26.5,36.7,39.6,55.1c2.1,2.9,4.1,3.3,7.1,1.5c7.7-4.6,14.9-10.1,22-15.5C384.6,643.5,385.5,641.4,382.9,638.3
		c2.6-0.7,5.1,2.4,7.9-0.4c6.9-6.9,14-13.7,20.2-21.3c1.6-2,1.9-3.7-0.1-5.6c-7-6.6-13.9-13.3-20.9-19.9c-1.5-1.4-3.1-1.2-5-0.9
		c-7.1,1.2-14.2,2.2-21.3,3.1c-6.8,0.9-13.6,1.7-20.4,2.5c-0.3,0.4-0.5,0.8-0.8,1.3c1.7,1.3,3.5,2.5,5,3.9
		c11.5,11.1,22.9,22.2,34.3,33.4C406.4,650,384.8,636.4,382.9,638.3z M311.9,354.3c-0.8,1.8-5.2,10.6-6.2,12.2
		c-5,8.2-10,16.5-15.3,24.6c-4,6.1-4.3,12.9-5.5,21.1c4.7-4.5,8.3-7.8,11.7-11.3c3.7-3.7,6.7-8.8,10.4-11.6
		c5.8-4.4,10.8-9.3,16-14.2c7.8-7.3,14.9-15.3,22.7-22.3c8.6-7.7,16.2-16.2,24.8-23.8c4.1-3.7,3.3-8.1-1.3-11.1
		c-6.7-4.4-13.5-8.5-20.2-12.9c-2.4-1.5-4-1.3-5.8,1.2c-4.6,6.6-9.2,13.1-13,20.1c-1.4,2.6-23,37.2-25.8,38.7
		c0.3-0.9,20.8-33.8,21.3-34.6c5.4-8.8,10.6-17.6,15.4-26.8c0.9-1.7,0.5-2.6-0.9-3.1c-9.8-4.1-19.3-8.9-29.8-11.4
		c-1.6-0.4-2.9-0.6-3.4,1.6c-1,4.9-2.3,9.7-3.2,14.6c-3.2,18-6.4,36-9.6,54c-1.7,9.4-4.1,18.7-5.1,29.3c2.6-2.5,3.6-4.9,5-7.1
		C298.6,374.7,305.9,360.2,311.9,354.3z M1050.5,577.8c4.8,17.3,7.3,39.7,11.2,57.2c3.1,14.1,5.1,28.4,8.8,42.4
		c0.8,3.2,2.2,4.1,5.3,2.9c7.9-2.9,16.1-5.4,23.6-9.4c5.7-3,5.8-2.9,2.9-8.9c-1.2-2.4-2.3-4.8-3.8-7c-14.8-23.3-29.7-46.5-44.6-69.8
		c-0.8-1.3-1.5-2.6-3.1-3.1c-3.9-9.1-10-16.9-15.8-25.2c-1,13.4-1,26.5-1,39.6c0,5.8-0.2,11.7-0.4,17.5c-0.5,23.3-0.9,46.6-1.5,69.9
		c-0.1,4.6,2,5.6,5.8,4.8c7-1.3,14.1-2.5,21.1-4c8.8-2,8.8-2.1,8-10.9c-0.2-1.7-0.3-3.3-0.6-4.9c-4-21.4-8.3-42.8-11.9-64.3
		C1053.1,597.3,1050,585.6,1050.5,577.8z M835.8,578.3c1-2.2,2.6-3.7,4.7-5c24.4-15.3,48.7-30.7,73.1-46c1-0.6,2.3-1,2.6-2.8
		c-15.6,3.1-31,5.9-46.3,9.1c-16.1,3.4-32.4,5.8-48.4,9.9c-3.8,1-4.2,2.6-3.1,6c2.8,8.2,6.1,16.2,9.5,24.2
		C829.7,577.7,831.9,579.2,835.8,578.3c-1.4,2.1-4,3.6-1.8,7.2c4.9,8.1,9.9,16.2,15.6,23.8c2.4,3.2,4.1,3.3,7,0.4
		c16.3-16.3,32.9-32.5,49.4-48.7c12.7-12.5,25.4-24.9,38.1-37.4c1.3-1.3,3.2-2.4,3.2-5.4c-8.7,2.3-17.9,1.7-25.6,6.4
		c-20.8,12.8-41.3,26.1-62,39.2C851.8,568.7,843.8,573.5,835.8,578.3z M396.7,408.5c1.1-2,3-3.1,4.7-4.4c8-5.9,16-12,24.2-17.7
		c3.3-2.3,3.4-4.4,1.3-7.4c-4.9-7.5-9.9-15-15.6-22c-2.6-3.2-4.2-3.3-7-0.6c-8.5,8.5-16.8,17-24.9,25.8
		c-17.1,18.6-34.9,36.6-52,55.2c-3.5,3.8-8.2,6.5-11,12c15.2-3.3,29.9-5,42.1-15.2c7.9-6.5,48.5-35.3,57.9-39.8
		c-3.7,5.2-41.8,30.3-46.8,33.9c-5.8,4.2-11.6,8.3-17.5,12.5c1.9,0.5,3.4,0.3,4.8,0c20.3-4.5,40.6-9.1,60.8-13.7
		c8.3-1.9,16.7-3.1,24.6-6.3c2.1-0.9,3.4-1.6,2.5-4.3c-3.3-9.5-7.5-18.5-12.1-27.3c-1.2-2.2-2.7-2.7-4.9-1.3
		c-3.3,2.2-6.6,4.5-10,6.5C410.6,398.9,404.5,405,396.7,408.5z M69.1,591c1-1.8,20.1-15.5,21.7-16.7c13.1-9.2,26.1-18.3,39.2-27.5
		c8.2-5.8,16.5-11.6,25.9-18.2c-8.4,0.7-14.8,3-21.3,4.7c-23.7,6-47.8,9.8-71.1,17.4c-4.5,1.5-4.4,3.2-3.1,6.7
		c3.1,8.6,7.5,16.5,11.4,24.7c1.4,3,3.2,2.9,5.5,1.3c1.4-1,3.1-1.3,4.8-1.2c-0.4,1.7-1.5,3-3,3.8c-3.5,1.6-3.4,3.8-1.4,6.7
		c4.2,6,8.2,12.2,12.4,18.1c6.3,8.6,6.7,8.9,14.1,1.2c10.3-10.8,21-21.3,31.1-32.4c12.7-13.9,26.1-27,39.2-40.5
		c2.8-2.9,5.3-6,8.1-8.8c1.7-1.7,1.1-3.2,0.3-4.9c-0.7-1.7-1.6-2.9-3.7-2.5c-7.5,1.3-15.2,2.4-21.6,6.8
		c-16.5,11.5-32.8,23.3-49.4,34.6C101.1,569.1,77.1,587.5,69.1,591z M311.9,517.3c1.6-0.1,2.8,0.4,4,1.6
		c7.2,6.9,14.4,13.8,21.8,20.6c15.5,14.4,31.1,28.6,46.6,42.9c1.2,1.1,2.2,2.2,4.3,1.9c12.1-1.8,24.4-2.3,36.5-4.7
		c2-0.4,5.1,1.8,5.6-1.1c0.5-2.6-3-3.5-4.9-5c-0.5-0.4-1.1-0.7-1.7-1c-8.4-5.5-85-51.2-93.5-56.7c3.3-0.1,73.8,41.9,76.3,43.4
		c8.5,5.2,17,10.4,25.6,15.6c2.5,1.5,4.7,1.5,6-1.6c3.5-8.6,7.5-17.1,10.1-26.1c0.9-3.1,0.2-4.7-3.1-5.2c-1.3-0.2-3.6,0-3-2.2
		c0.5-1.5,2.5-1,4-0.9c1.3,0.1,2,3.1,3.6,0.8c1.2-1.8,2-4,1.4-6.2c-0.6-2.2-2.6-1.7-4.2-1.8c-6.3-0.4-12.6-0.8-18.9-1.1
		c-3.4-0.2-6.8-0.1-10.3,0.2c-3.4,0.3-7-2.3-10.9-2.8c-17.6-2.3-35.1-6-53-6.4c-7.3-0.2-14.8-0.8-21.7-2.4
		c-7.7-1.8-15.6-4.7-22.7-8.8c-1.5-0.9-3-2.2-5.4-1.4c2.2,3.3,11.6,9.1,12.5,13.1c-2.7-0.4-9.3-7.1-11.1-8.7c-4.2-3.9-4.8-3.8-6,1.7
		c-0.3,1.5-0.9,2.8-2,3.9c-3.3,3.2-6.6,6.5-10,9.7c-1,0.9-2.5,1.7-2,3.2c1.6,5.4,1.6,11.3,6.4,15.8c14.2,13.2,28,26.9,41.9,40.5
		c2.9,2.8,6,3.1,9.6,2.6c5-0.7,10.1-1.6,15.1-2.1c6.6-0.7,13-2.4,19.6-2.4c2.9,0,4.3-1.7,1.4-4.4c-5.1-4.6-10.1-9.2-15.1-13.8
		C352,555.8,339,544.1,326.5,532C321.5,527.2,315.6,523.3,311.9,517.3z M167.9,657.3c-0.8,2.5-1.1,5.5-2.6,7.5
		c-3.4,4.4-0.6,6.3,2.7,7.7c6.3,2.7,12.7,5.1,19.1,7.5c9.8,3.6,10,3.6,11.9-7c3.1-17.2,5.9-34.4,8.8-51.7
		c1.7-10.4,3.3-20.8,4.9-31.2c-2.7,2.6-4.6,5.5-6.4,8.4c-10,15.7-34.4,56.4-45.3,71.5c0.2-3,16.9-29.9,18.4-32.3
		c10.7-16.9,21.4-33.7,32.2-50.5c1.3-2,2.2-4.1,2.6-6.4c1.4-8.5,2.8-17.1,4.3-25.6c0.4-2.5-0.5-3.9-2.8-4.4c-2.3-0.5-4.5-1.2-6.9-1
		c-2.1,0.2-4.5-0.1-5.6-1.6c-3.8-5.4-10.2-8.2-13.8-13.6c-2.6-3.9-4.5-4.1-7.9-0.5c-26.2,27.9-53.1,55.1-79.1,83.2
		c-3.2,3.5-2.5,5.3,0.2,8.1c6,6.2,12.5,12,18.9,17.8c2.9,2.6,4.9,2.2,7.6-0.2c5.9-5.2,77.6-96.6,78.4-96.1
		c0.2,0.1-72,92.6-76.2,98.3c-1.8,2.5-2.1,4.1,0.6,6.1c7.6,5.8,15.9,10.4,24,15.3c2.2,1.3,3.9,1.2,5.5-1.1
		C163.4,662.7,165.7,660,167.9,657.3z M1134.6,395.4c-2.6,2.8-6.6,7.1-11.6,12.1c-8.2,8.2-14.4,13.8-18.8,17.9
		c-8.9,8.4-17.7,16.9-27.6,26.4c8.8-1.5,16.3-2.3,23.5-4c4.9-1.2,10.3-0.7,14.7-3.9c3.9-2.9,7.9-5.6,11.9-8.2
		c21.7-14.3,43.3-28.6,65-42.8c2.7-1.8,3-3.5,1.6-6.2c-4.4-8.5-9.6-16.4-15.2-24c-1.7-2.4-3.7-3.1-6.4-2.2c0.3-2,2.1-3.8,0.1-6
		c-7.1-8-14-16.1-22.3-22.9c-0.8-0.7-1.5-1-2.2-1c-0.7,0-1.1,0.4-2,1.1c-1.6,1.1-2.2,1.4-2.7,1.7c-1.6,1.2-10.9,9.5-23.2,21.2
		c7-7.8,14.4-15.3,22-22.4c3.2-3,3.6-4.9-0.1-7.7c-7.4-5.5-14.7-10.9-22.6-15.6c-3-1.8-4.6-1.7-6.9,1.4
		c-17.6,23.8-33.9,48.6-51.2,72.7c-1.5,2.1-3.4,4.2-4,6.9c-2.2,10.7-4.3,21.4-6.5,32.1c0.4,0.2,0.7,0.5,1.1,0.7
		c7.7-7.7,18.8-18.8,32.2-32.1c57.5-57.5,60.3-60.6,60.5-60.4c1.1,1.1-56,59.7-60.8,63.4c-0.2,0.1-1.4,1-2.9,2.5
		c-2.8,2.7-3.9,5.2-26.1,26.4c-9,8.6-9.7,17.2-1.4,26.3c1.1,1.2,2.2,2.5,3.2,3.8c0.8,1.1,1.7,2.6,3,2.3c5.9-1.2,12.2-0.3,17.2-5.2
		c16.3-15.9,28.5-29.3,47.6-45.7C1128.4,400,1132.3,397.1,1134.6,395.4z M135.8,446.3c6.7,0.9,13.4,1.8,20.1,2.8
		c0.1-0.2,0.2-0.5,0.3-0.7c-15.8-9.6-31.5-19.2-48.1-29.3c2.3-0.5,3.2,0.3,4.1,0.9c13.1,7.9,26.7,15.2,39.3,23.8
		c10.5,7.2,22.1,9,34.3,10.9c-2-4.9-8.9-10.2-12.2-14.4c3.5,0.7,7.6,5.8,9,7.6c5.4,7.5,13.4,9.3,21.7,10.6c3.8,0.6,6.4-0.8,7.1-4.5
		c0.7-3.7,3.1-6.2,5.6-8.6c5.9-5.8,6.4-14,0.3-19.8c-11.3-11-23-21.7-34.5-32.4c-15.7-14.6-31.4-29.3-47.1-43.9
		c-0.4-0.4-9.2-8.8-8-9.5c6,5.6,20.4,18.9,26.5,24.5c17.7,16.4,35.4,32.8,53.1,49.1c2.4,2.3,4.9,4.6,7.3,6.8
		c0.6,0.6,1.3,1.3,2.1,0.8c0.4-0.2,0.8-1.2,0.6-1.6c-2.6-7.5-2.4-15.8-7.2-22.6c-9.3-13.4-18.3-27-27.6-40.4
		c-10.3-14.9-20.9-29.7-31.2-44.6c-2-2.9-3.6-2.9-6.5-1.2c-8.2,4.9-15.6,10.8-23.1,16.5c-2.4,1.9-2.3,3.2-0.3,5.6
		c3.2,3.9,13.4,13.4,16.4,17.6c-4.1-3-14.5-12.1-18.3-15.2c-2.9-2.3-4.6-2.4-7.1,0.1c-6.8,6.6-13.2,13.6-19.5,20.7
		c-2.3,2.6-2.8,4.7,0.7,6.8c1.7,1,83.2,78.6,84.2,81.1c-2.5-1-84.4-77.6-86-79c-2.4-2.2-4.3-2-6.4,1c-4.5,6.6-9,13.2-12.8,20.3
		c-3.6,6.8-3.6,6.8,2,11.4c0.2,0.1,49,28.8,49.1,29.4c-1.6,0.8-51.8-28.3-53-29c-2.5-1.5-3.9-0.7-5.1,1.8c-4,8.8-7.4,17.8-10.2,27.1
		c-0.8,2.7,0.1,3.9,2.9,4.5c15.9,3,31.7,6.1,47.5,9.3c9.9,2,31.7,5.5,41.5,8.6c-3.2,0.2-17.9-3-21.1-3.5
		c-22.7-3.6-45.1-8.7-67.9-11.7c-4.1-0.5-5.5,0.9-6.1,4.4c-1.4,8-3,16-4.2,24.1c-0.9,6.5,0.2,7.7,6.8,7.9
		c5.5,0.2,138.5,3.5,143.9,3.5c-6,1.2-139.5-2.2-145.4-1.7c-5.1,0.5-6,2.9-6.3,6.9c-0.6,8.4,1,16.6,0.8,24.9
		c-0.1,4.7,1.7,6.5,6.5,6.3c20.3-0.9,40.6-0.8,60.9-1.7c18.9-0.8,37.9-1,56.9-1.1c4.5,0,6.7-1.3,7.2-5.9c1.1-9.7,5.4-18.1,11.7-25.5
		c3.7-4.3,3.3-4.6-1.6-7.4c-6.4-3.6-12.5-7.8-19.1-12.1c2.2-0.9,3.3,0.2,4.3,0.7c6.7,3.6,12.6,8.4,19.5,11.7c1.1,0.5,2.9,1.5,3,0.5
		c0.4-4.4,3.3-3.2,6-3.5c2.4-0.3,3.1-3.1,1.7-4.7c-1.6-1.8-4.5-2.2-7-1.8c-2.7,0.5,1.3,2.7-1,4c-4.2-5.4-10.2-7.5-16.9-8.1
		c-8.6-0.8-17.1-2.2-25.5-4.4C148.3,449.5,141.7,449.4,135.8,446.3z M535.8,412.2c0.6,1.5,1,2.6,1.4,3.7c2.9,8.7,6.3,17.2,8.4,26
		c1.2,5,3.5,8.6,6.4,12.5c3.5,4.6,7.7,5,12.6,5c3.7,0,7.2,1,10.7,2.2c9.9,3.2,10,3.2,15.6-5.7c8.6-13.6,17.2-27.1,25.5-40.8
		c8.5-14,16.8-28.1,25.2-42.2c1.1-1.8,1.9-3.2,0.7-5.4c-1.6-3.1-0.2-5.2,3.1-5.8c1.9-0.3,3.6-0.7,4.6-2.5
		c4.9-8.7,9.8-17.4,14.7-26.1c0.8-1.4,1.7-3,0.5-4.6c-2.3-3.1,0-4.9,2.2-5.8c3.5-1.4,5.7-4,7.5-7c5.9-9.6,11.7-19.3,17.6-28.9
		c7.2-11.6,14.5-23.1,21.6-34.7c13.2-21.4,26.1-43,39.5-64.3c9.7-15.5,17.1-32.4,28.8-46.7c1-1.3,1.4-2.7,0.8-4.2
		c-1-2.2-2.6-0.5-3.9-0.3c-1.8,0.3-3.6,0.5-5.3,1.1c-16.5,6.1-33,12.3-49.6,18.3c-29.9,10.8-59.7,21.9-89.2,34
		c-41.3,17-84.1,30-124.9,48.1c-4.8,2.1-10.3,3.4-15.5,5.3c-9.3,3.4-11.1,6.9-8.1,16.4c2.8,8.7,6.3,17.1,8.7,25.9
		c4.1,14.7,9.6,28.9,13.8,43.5c2.8,9.8,6.8,19.3,9.3,29.2c0.4,1.6,1.1,2.8,2.9,3c3.5,0.4,3.1,2.7,2.7,5.2c-0.3,1.8-1.6,3.4-1.2,5.3
		c2.1,9.7,6.1,18.8,9.4,28.1C534.1,404.3,540.5,406.8,535.8,412.2z M229.7,422.6c0.2-14.7-2.7-61.2-2.9-76
		c-0.1-14.8-0.8-29.6-0.9-44.4c0-5.7-1.1-11.3-1-16.9c0.1-2.4-1.3-2.8-3.3-2.5c-10.3,1.3-20.3,3.6-30.2,6.7c-2.7,0.9-2.7,2.4-2.3,5
		c1.1,8,3.6,15.5,5.6,23.3c6.6,26.2,12.9,52.4,19.4,78.5c0.5,2.1,1.1,4.3,2.3,6c6.3,9.2,12.8,18.2,19.2,27.3
		c2.2,3.1,5.5,3.9,8.3,2.3c4.9-2.7,9.9-3.1,15-2.5c4.9,0.5,7.3-1.7,9.4-5.5c1.1-2,1.4-4,1.4-6.2c-0.2-8-0.4-16-0.8-24
		c-1.1-24-1.3-47.9-2.4-71.9c-0.5-10-0.4-20-1-30c-0.7-10.8-1.5-11.3-12.1-10.6c-3.5,0.2-4.7,1.8-4.5,5.1c0.1,2.2,0.1,4.3,0,6.5
		c-0.1,2.3-1.3,3.8-3.8,3.7c-2.3-0.1-3.2-1.8-3.2-3.7c0-2.3,0.3-4.6,0.5-7c0.3-3-0.6-4.9-4.1-4.5c-1.7,0.2-3.3,0.1-5,0.2
		c-3.6,0.1-5.1,1.7-5.5,5.5c-0.7,5.5,0,10.9,0.1,16.4c0.1,13.3-0.4,26.7,0.4,40C229.2,359.2,232.4,427.3,229.7,422.6z M925.4,68.9
		c3.2,9.9,1.2,18.2-4.4,25.7c-5.3,7.1-12.4,12.3-20,16.6c-10.4,5.9-21.1,11.4-31.7,17.1c-2.2,1.2-5,2.3-3.4,5.6
		c4.5,9.3,6.4,19.6,10.3,29.1c0.6,1.4,1.4,3.5,2.7,3.4c4.5-0.4,6.4,3.9,9.6,5.1c6.1,2.1,7,6.9,8.4,11.8c1.8,6.3,2.5,12.7,3.3,19.2
		c0.9,7.4,4.9,14.4,7.8,21.5c1.3,3.3,7.8,5.9,10.5,3.8c4.1-3.3,6.6-2.1,8.9,2.2c1.5-4.2,1.1-8.1,1.7-11.9c2.5-15.9,9.9-29.9,17.1-44
		c6.8-13.1,14.3-26,17.1-40.9C969.6,100.4,954.6,79.5,925.4,68.9z M236.8,602.4c1.3,9.2,1,30,1.6,39.2c1,14.9-0.3,29.9,1.4,44.8
		c0.4,3.5,1.6,4.7,4.9,4.6c5.8-0.1,11.7,0.4,17.5-0.1c16.9-1.5,14.9,1.2,14.4-15.9c-0.5-20.3-1.9-40.6-2.7-60.8
		c-0.3-7.3-1.3-8.2-8.5-6.4c-0.8,0.2-1.5,0.7-2.4,0.8c-6.4,1.1-12.6,3.1-19.2,0.3c-1.8-0.8-4.4-5.2-6.5,0c-0.2,0.5-1,0.1-1.1-0.4
		c-0.8-3.6-3.2-2-5.1-1.4c-2,0.6-3.1-0.2-4-1.9c-1-1.9-2.2-3.7-3.2-5.6c-1.9-3.4-1.3-6,2.5-7.6c3.8-1.6,7.4-3.4,5.9-8.8
		c-0.4-1.3,0.7-2.5,1.8-3.4c1.8-1.4,2.2-3.2,1.9-5.3c-0.5-5.3-1.9-10.5-0.6-15.9c0.2-0.8,0.1-1.8-0.9-2.1c-0.9-0.3-1.6,0.4-2,1.1
		c-2,3.2-4.2,6.4-6,9.8c-3.4,6.3-9.1,11.5-10.4,18.6c-5.5,31.3-11.4,62.6-15.5,94.1c-0.4,3.1,0.5,4.3,3.2,4.9
		c8,1.7,15.9,3.6,24.1,4.4c8.1,0.8,9.1,0.2,9.1-7.8c0.1-18.8-0.1-37.7-0.3-56.5C236.8,621.3,234.8,606.2,236.8,602.4z M991.8,635.6
		c0,20.9,0.1,35.4-0.1,49.9c0,3.6,1.8,4.4,4.5,4.4c7.2,0.2,14.3,0.5,21.5,0.3c12.9-0.3,11.3,1.8,11.9-11.8
		c1.4-32.3,1.6-64.6,2.4-96.8c0.1-3,0.5-6,0.4-9c-0.3-9.6,2.6-19.3-4.3-28.3c-3.5-4.5-5.9-8-12.2-6c-2,0.6-4.4,0.5-6.5,0.1
		c-7.3-1.4-11.4,2.2-14.7,8.1c-1.8,3.3-1.9,6.8-1.8,10.1C993.3,585.1,991,613.6,991.8,635.6z M963.6,515.3
		c-5.7,0.7-10.1,1.6-13.9,5.4c-13.9,14.1-28.4,27.7-42.3,41.7c-16.6,16.7-33.8,32.6-49.9,49.7c-2.1,2.2-2.6,3.9-0.5,6.4
		c6.3,7.6,13.2,14.6,20.7,20.9c1.6,1.4,3.3,2.1,4.7,0.1c1.8-2.5,4.5-3.9,6.7-6c29.9-28.7,59.8-57.4,89.8-86.1c4.4-4.2,4-10,5.5-15.2
		c0.3-1.1-0.7-1.8-1.7-2.2c-5.8-2.1-9.3-6.8-13.3-11C967.6,517.3,965.8,515,963.6,515.3z M1055.2,516.8c-0.2,0.1-2.3-1.2-3.1,1
		c-1.5,4-4.7,6.7-7.7,9.5c-1.1,1-2.7,1.9-2.4,3.6c1.1,6,0.7,12.3,5.7,17.1c6.3,6.1,12.2,12.7,18.4,19c23.8,24.6,48.6,48.3,71.3,74
		c2.1,2.3,4.3,3.5,7.3,1c7.7-6.7,15.1-13.6,21.6-21.4c1.6-1.9,1.8-3.2,0-5.1c-3.6-3.7-7-7.6-10.6-11.3
		c-23.5-24.2-47.4-48.2-70.5-72.8C1077.1,522.7,1068.6,516.1,1055.2,516.8z M428.4,299.5c-3.8-0.9-5.3-0.7-5.9,0.5
		c-1.1,2.6,1.7,2.9,2.8,3.9c10.8,10.1,20.3,21.5,29,33.4c9.8,13.4,18.1,27.7,25.2,42.8c7.9,16.8,13.5,34.1,17.5,52.2
		c2.2,9.9,3.8,19.8,5.1,29.8c0.3,2.1,0,5,2.9,5.8c2.8,0.8,4.1-1.4,5.8-2.9c4.2-3.6,7.1-8.1,10.4-12.3c1.4-1.8,2.3-2.8,1.5-5
		c-2.2-6.4-4.4-12.8-6.4-19.2c-5.4-17.2-10.6-34.5-15.9-51.7c-2.8-9-6.5-17.8-9.3-26.7c-2.4-7.7-4.7-15.6-6.8-23.5
		c-3.1-11.9-7.3-23.5-11.1-35.2c-2.4-7.3-4.6-14.6-7.2-21.8c-1.8-4.9-5.4-6.5-8.1-3.3c-2.5,2.9-5.6,4.7-8.3,7.2
		c-7.1,6.7-14,13.6-21.1,20.3C426.6,295.7,426.2,297.3,428.4,299.5z M1145.5,468.5c0-0.1,0-0.3,0-0.4c-19.2,0-38.3,0.3-57.5-0.1
		c-8.8-0.2-14.4,5.2-20.7,9.7c-1,0.7-1.3,1.9-1.4,3.1c-0.4,4-0.8,7.9-1.4,11.9c-0.3,1.9,0.3,3.2,1.8,4.3c5.8,4.2,11.3,8.4,19.3,7.5
		c6.2-0.7,12.6-0.2,19,0c35.4,0.7,70.9,2.1,106.3,1.9c5.1,0,6.5-2.2,6.5-6.5c0.1-7.8,0-15.7,0.3-23.5c0.2-4.8-0.9-7.6-6.5-7.2
		c-3.4,0.3-7-0.6-10.4-0.6C1182.4,468.4,1164,468.5,1145.5,468.5z M915.8,504.4c9.8,0,19.7-0.3,29.5,0.1c3.8,0.2,6.9-0.5,9.7-2.7
		c1.6-1.3,4.1-2,2.8-5c-1-2.5-1.9-5-5.6-4.2c-2.3,0.5-4.2-0.7-5.9-2.1c-6-5.2-6.3-6.6-2.7-14.5c2.1-4.5-0.7-10.2-5.3-10.2
		c-41.3,0.2-82.6-1.8-123.9-1.2c-3.9,0.1-5.4,1.5-5.4,5.3c0,8.8-0.2,17.7-0.1,26.5c0.1,6.3,0.6,6.9,6.9,6.9
		C849.2,503,882.5,504,915.8,504.4z M996.9,363.5c0,21.7,0,37.2,0,52.7c0,5.6,4.3,12.6,8.3,12.9c5.8,0.4,11.6,0.3,17.3,2.1
		c1,0.3,2.1-0.2,2.7-1c2.8-3.8,6.5-7.2,6.7-12.5c1.3-41.6,2.7-83.2,3.9-124.8c0.3-11.6,0-11.5-11.4-12.2c-4.3-0.3-5.5,1.6-4.9,5.3
		c0.4,2.4,0.2,4.6-0.3,6.9c-0.4,1.9-1.2,3.7-3.4,3.6c-2.5,0-3.3-1.9-3.7-4c-0.4-2.2,0.2-4.3,0.6-6.4c0.7-3.7-0.3-5.6-4.6-5.7
		c-10.2-0.2-10.3-0.4-10.2,9.9C997.9,316.8,996.2,343.2,996.9,363.5z M1034.6,415c2-0.7,2.8-2.4,3.8-3.8c7.7-11,15.3-22,22.9-33
		c13.9-19.9,27.8-39.8,41.8-59.7c2.5-3.5,5.2-6.9,7-10.9c0.7-1.5,1.4-2.8-0.6-3.8c-9.6-4.9-19.4-9.5-29.8-12.8
		c-0.7-0.2-1.5-0.5-2.1-0.1c-0.6,0.3-0.8,1.1-0.8,1.4c-1.4,7.2-2.2,10.8-2.1,10.9c0.3,6.8-1.9,13.7-3.3,20.4
		c-1.6,7.6-3.3,15.1-5.1,22.7c-3.6,15.3-7.5,30.5-11.8,45.6c2.7-17.2,6.8-34.1,11.3-50.9c2.3-8.6,4.4-17.3,6-26.1
		c0.8-4.3,1.4-8.6,1.8-12.9c0.3-3,1.9-9.6,0.1-12.2c-0.4-0.6-1.2-1-2.3-1.3c-9.1-2.6-18.4-4.6-27.8-5.9c-4.2-0.6-5.2,1.2-5.7,5.2
		c-2.1,16.3-0.7,32.6-1.6,48.9C1034.9,362.6,1035.1,388.7,1034.6,415z M313,447.9c1.3,0,2.1-0.8,2.9-1.7
		c17.2-18.3,34.5-36.5,51.6-54.9c6.6-7,13.3-13.9,19.8-21.1c5.3-5.9,11.2-11.3,16.4-17.4c1.6-1.8,1.4-3.2-0.2-4.7
		c-4-4-7.9-8.1-11.9-12.1c-2.2-2.3-4-1.8-6.2,0.5c-7.1,7.3-14.8,13.9-21.6,21.4c-7.3,8-15.8,14.7-22.5,23.5
		c-4.1,5.4-10.6,9-15.7,13.8c-4.6,4.4-8.5,9.6-13.3,13.7c-9.7,8.3-17.6,18.4-27.6,26.4c-1,0.8-2.5,1.4-1.7,3.2
		c0.8,1.7,9.9,3.3,11.4,2.1c5.7-4.6,13.9-2.4,16.2,4.5C311.2,446.3,311.3,447.8,313,447.9z M1053.8,581.3c17,27,35,53.4,51.2,81
		c1.8,3,3.9,4.3,7.3,2.1c6.4-4.2,13.1-8,19.3-12.3c7.9-5.5,7.9-7,1.1-14.1c-0.1-0.1-0.2-0.2-0.4-0.3c-12.9-13.2-25.9-26.3-38.8-39.5
		c-18.1-18.5-36.1-37.2-54.1-55.7c-1.1-1.1-1.8-2.8-3.7-2.6C1031.9,551.8,1050.4,575.9,1053.8,581.3z M994.5,414.5
		c0.1-10.9,1.2-21.7,1.2-32.5c0.2-28.1,0.1-56.3,0.2-84.4c0-4-0.5-7.9-0.9-11.9c-0.4-4-2.4-4.6-5.7-4.1c-8.9,1.2-17.7,2.9-26.5,5
		c-3,0.7-4,2.3-3.8,5.3c0.3,3.8,0.7,7.6,1.4,11.4c4,21.3,9,42.4,11.5,63.8C974,385.9,983.7,400.2,994.5,414.5z M1099.1,506.7
		c0-0.1,0-0.2,0-0.2c-4.2,0-8.3,0-12.5,0c-1,0-2.2,0.1-2.5,1.2c-0.3,1.1,0.7,1.8,1.5,2.3c2.8,2,5.6,4.3,8.6,6
		c6.6,3.7,11.9,9.2,20.1,10.6c30,5.1,59.4,13.4,89.5,18.3c4.4,0.7,5.8-0.2,6.6-3.9c1.5-6.7,3.3-13.3,4.4-20
		c2.1-13.7,4.2-11.8-10.3-12.3C1169.3,507.3,1134.2,507.2,1099.1,506.7z M330.2,456.3c0.9,1.5,2.2,1.5,3.2,1.9
		c7.8,3.3,16.1,2.8,24.4,2.9c14.5,0.3,28.9,0.7,43.4,1c8.6,0.2,17.3-0.4,25.7,0.8c9.5,1.3,18.8,1.6,27.8,1.3
		c1.7-2.1-2.7-1.4-0.9-3.1c2.3-2.3,1-4.7,0.7-7.1c-1.2-8.3-3.4-16.3-5.4-24.4c-1.2-5.1-3.3-7.2-8.6-5.3c-2.5,0.9-5.3,0.8-7.9,1.3
		c-25.7,5.6-51.3,11.6-77.1,16.8C345.4,444.6,338,450.6,330.2,456.3z M945.8,506.4c-8.9-0.2-17-0.9-25.1-0.9
		c-32,0.1-64-1.3-95.9-1.3c-3.9,0-7.6,0.6-11.4,1c-2.8,0.3-3.7,1.8-3.4,4.4c0.9,10,3,19.8,5.6,29.4c0.5,1.9,1.3,2.8,3.5,2.3
		c3.4-0.8,6.9-1.1,10.3-1.8c24.7-4.9,49.2-10.4,74-14.6C919,522.5,933,517.3,945.8,506.4z M1085.4,466.2c9.3,0,17.3,0,25.2,0
		c33.8,0,67.6,0,101.3,0.1c3.8,0,5.3-0.9,4.9-5.1c-0.7-7.3-1.9-14.5-3.5-21.6c-2.8-12.1-1.2-10.2-13.1-8.3
		c-27.9,4.5-55.6,10-83.5,15.1c-2.2,0.4-4.2,0.9-6,2.2C1102.7,454.1,1094.2,459,1085.4,466.2z M893,463.3c14,0,28,0,42,0
		c1.1,0,2.5,0.6,3.2-0.6c0.7-1.2-0.4-2.2-1.2-3c-6.1-6.2-12.8-11.9-21.4-14.1c-12.1-3.1-24.4-5.2-36.6-7.7
		c-18.7-3.9-37.2-9.1-56.1-11.9c-3.7-0.6-5.6,0.3-6.5,4c-2.2,8.9-4.3,17.8-5.6,26.9c-0.6,4.4,0.7,5.5,4.9,5.5
		C841.4,462.1,867.1,463.8,893,463.3z M272.3,415.3c0.3,0.2,0.6,0.3,0.9,0.5c4.2-6.9,8.5-13.8,12.7-20.7c0.6-1.1,0.8-2.5,1-3.8
		c5.4-29.9,10.7-59.9,16.1-89.8c0.7-3.8,0.5-7.6,0.7-11.4c0.1-1.8-0.5-2.8-2.3-3.2c-9.7-2.3-19.5-4.3-29.5-5.2c-2-0.2-3.7,0.2-4,2.7
		c-0.3,3.1-0.9,6.3-0.8,9.4c1.2,30.1,2.4,60.2,3.7,90.2C271.4,394.4,271.9,404.8,272.3,415.3z M1078.3,520.5
		c0.4,2.1,1.6,2.8,2.5,3.8c15,15.4,29.9,30.8,44.9,46.2c13.6,13.9,27.4,27.7,40.8,41.8c3.3,3.5,5,3,7.4-0.6
		c4.4-6.6,9.2-13.1,13.7-19.7c4.1-6.2,4-6.2-1.7-10.6c-1.3-1-2.4-2.3-3.8-3.2c-23.1-15.7-46.3-31.4-69.4-47.1
		c-2.5-1.7-4.6-3.9-7.6-4.6C1096.3,524.5,1087.6,522.6,1078.3,520.5z M163.7,509.2c-6.5,0-13,0.7-19.4,0.9
		c-20.5,0.6-41,0.5-61.4,1.4c-10,0.4-20,0.2-29.9,1.6c-2.8,0.4-3.6,1.5-3.1,4.3c1.5,9.4,4,18.6,6.4,27.7c0.8,2.8,2.3,3.8,5.1,3.1
		c4.2-0.9,8.5-1.6,12.7-2.5c26-5.5,51.7-13,77.9-17.9c10.2-1.9,17.4-8.6,25.3-14.3c1-0.7,1.6-1.8,1.3-3c-0.5-1.8-2.1-1.3-3.3-1.3
		C171.3,509.2,167.5,509.2,163.7,509.2z M990.9,553.1c-2,2.7-3.7,4.8-5,7.1c-3.1,5.6-8.2,10.2-9.7,16.8c-4.2,18.5-8.4,37-12.6,55.5
		c-3.4,14.9-7.2,29.7-9.8,44.8c-0.6,3.5,0.6,4.9,3.7,5.6c6.8,1.5,13.6,3.3,20.5,4.4c11.6,1.9,11.7,1.7,11.9-10.3
		c0.4-30.1,0.7-60.2,1-90.3C991,575.7,990.9,564.8,990.9,553.1z M979.6,549.6c-2.6,2.5-5.1,4.8-7.6,7.2
		c-15.3,14.6-30.8,28.9-45.7,43.9c-13.5,13.5-28.3,25.7-40.8,40.3c-2.1,2.4-2,3.9,0.5,5.6c5.3,3.8,10.3,7.9,15.8,11.3
		c11.4,7.1,11.5,7,19.1-4.2c13.4-19.8,26.7-39.8,40-59.6C970.1,580.5,979.8,567.3,979.6,549.6z M924.8,445.9
		c3.4,0.7,3.3-0.8,2.2-3.3c-2.9-6.8-4.5-13.9-5.5-21.2c-0.2-1.4-0.7-2.5-1.7-3.5c-17-17.1-34-34.2-51-51.3
		c-3.4-3.4-6.3-7.3-10.6-9.7c-2.3-1.3-3.5-1.1-5,0.8c-6,7.8-11.6,15.8-16.7,24.3c-1.7,2.9-0.8,4.4,1.7,6.1
		c27.2,18.5,54.4,37.1,81.6,55.7C921.4,444.9,922.9,445.8,924.8,445.9z M920.7,415.2c-0.5-16.1,1.4-31.4,3.7-46.6
		c0.3-1.7-0.8-2.8-1.9-3.9c-12.1-11.6-22.9-24.6-35.3-36c-2.2-2-3.5-1.7-5.4-0.1c-7.8,6.5-14.7,13.9-21.8,21.2
		c-1.6,1.7-1.5,2.9,0.2,4.6c3.7,3.8,7.3,7.7,10.9,11.6c12.7,13.4,26.4,25.8,38.8,39.5C913,408.9,915.9,412.6,920.7,415.2z
		 M914.7,67.6c0.2-3.8-1.3-5.3-3.7-6.2c-6.7-2.4-13.2-5.2-20.7-5.2c-3.6,0-5.6,0.3-6.6,4c-0.8,2.8-2.7,5-5.9,3
		c-2.8-1.7-4.3-0.7-5.6,1.7c-1.9,3.6-5.1,3.9-8.6,3.3c-2.6-0.5-5.5-1.2-7.3-3c-5.8-5.8-11.3-3.5-17,0.1c-3.4,2.1-4.3,4.7-0.8,6.9
		c5.4,3.4,7.4,8.7,9.8,14c2,4.6,2.5,9.7,5.2,14c1.2,2,2.1,4,2.2,6.7c0.1,5.3,1.9,6.4,7,5c3.8-1.1,7.7-2.3,11.3-3.9
		c12.8-5.5,25.1-11.7,33.3-23.6C911,78.9,913.7,73,914.7,67.6z M294.6,602.9c-4.9,0.9-9.7,1.8-14.6,2.5c-3.2,0.5-4.3,2.1-4.1,5.4
		c1.2,17.4,1.5,34.9,2.2,52.3c0.3,7.1,0.4,14.3,1.6,21.4c0.5,3.4,1.4,4.6,5,4c8.5-1.5,16.9-3.4,25.4-5.5c4.5-1.1,5.3-3.3,4.6-7.5
		c-4-22.8-9.7-45.2-14.3-67.9C299.7,604.6,298.6,602.1,294.6,602.9z M209.7,392c0.3-0.1,0.5-0.3,0.8-0.4c-0.1-0.6-0.1-1.3-0.3-1.9
		c-4.3-17.1-8.5-34.2-12.8-51.3c-3.6-14.4-6.4-28.9-11-43c-0.6-2-0.9-4-3.9-2.9c-9.5,3.5-18.8,7.6-27.7,12.5c-2.2,1.2-2.6,2.8-1.2,5
		c2,3.2,3.9,6.6,6,9.7c12.6,18.3,25.3,36.6,38,54.9C201.6,380.5,205.6,386.2,209.7,392z M972.7,582.2c-0.3-0.1-0.6-0.3-0.9-0.4
		c-0.6,0.8-1.2,1.5-1.8,2.3c-11.6,17.3-23.4,34.5-34.7,51.9c-5.7,8.8-12.2,17.1-17,26.4c-1.3,2.5-1.6,3.9,1.4,5.4
		c8.1,3.9,16.2,7.9,24.6,11c3.7,1.4,5.6,1.1,6.8-3.3c4.8-17.5,8.6-35.3,12.6-53C966.7,609.1,969.7,595.6,972.7,582.2z M357.6,466.1
		c1,1.1,1.2,1.5,1.6,1.7c13.1,6.3,25.6,13.6,37.5,22c1.9,1.3,4,1.5,6.2,1.5c4.3,0.1,8.9-0.6,12.9,0.5c12.2,3.3,24.8,2.7,37.1,4.6
		c2.9,0.5,4-0.6,4-3.4c-0.1-6.5-0.1-13-0.1-19.5c0-2.3-0.9-3-3.2-3.3c-13.7-1.6-27.6-1.3-41.3-2.3c-14.1-0.9-28.3-0.9-42.5-1.8
		C366.1,465.9,362.1,465.8,357.6,466.1z M912.9,443.1c0.2-0.3,0.3-0.5,0.5-0.8c-1.1-0.9-2.2-1.9-3.4-2.7
		c-9.8-6.6-19.5-13.2-29.3-19.9c-14.5-9.8-29-19.5-43.4-29.3c-3-2-4.4-1.4-6.1,1.7c-4.5,8.4-8,17.2-11.2,26.1
		c-1,2.9,0.2,3.6,2.5,4.6c9.1,4,19,4.9,28.5,7C871.6,434.3,892.2,438.7,912.9,443.1z M1113.1,528.4c9,6.2,16.7,11.7,24.5,16.9
		c17.2,11.7,34.5,23.2,51.7,34.9c2.7,1.8,4.3,1.6,5.8-1.4c4.2-8.3,7.8-16.9,11.2-25.6c1.2-3,0.5-4.2-2.7-5.3
		c-12.4-4.2-25.3-5.9-37.9-8.7C1148.7,535.4,1131.6,532.2,1113.1,528.4z M1119.2,443.2c0.1,0.3,0.2,0.6,0.3,1
		c8.7-1.6,17.5-3,26.2-4.9c20-4.3,40.4-6.9,60.3-11.8c2.4-0.6,4.2-1.2,3.2-4.2c-3-9.6-7-18.7-11.1-27.8c-0.8-1.8-1.9-2.4-3.9-1.2
		c-3.7,2.3-7.7,4.1-11.3,6.4c-17.3,11.3-34.5,22.7-51.7,34.2C1127.2,437.6,1123.2,440.4,1119.2,443.2z M305.1,602.1
		c-3.3-0.9-3.8,1-3.1,4.4c1.7,7.6,3.1,15.3,4.9,23c3.6,15.4,6.3,31,10.6,46.2c1.1,3.9,1.7,4.5,5.2,3.2c8.7-3,16.9-7,25.2-11
		c3.3-1.6,4.4-3.4,2.1-6.9c-12.9-19.4-27.1-37.9-40.5-57C308.6,602.7,307.6,601.5,305.1,602.1z M930,373.4c-1.8,0-1.8,1.3-2,2.4
		c-2,14.5-3.9,29-2.5,43.7c0.1,1.3-0.2,2.7,1,3.7c7.7,6.2,13.8,13.9,20.8,20.7c3.5,3.3,5.8-1.5,8.7-2.4c2.4-0.7,1.9-2.7,1.2-4.5
		c-7.6-19.5-15.2-39-22.8-58.6C933.7,376.2,932,374.6,930,373.4z M971,379.9c1-2.5,0.7-3.9,0.4-5.4c-2.3-13.1-4.5-26.2-7.1-39.3
		c-2.6-13.4-3.7-27.1-7.6-40.2c-1.9-6.4-2.2-6.4-8.6-4c-2.2,0.8-5.4,1-4.8,4.7c1.4,8.7,2.1,17.6,5,26c4.7,13.9,9.6,27.7,14.9,41.4
		C965.3,368.4,966.5,374.4,971,379.9z M291.6,548.1c-0.6,0.3-1.1,0.7-1.7,1c2,9.5,4.3,19,6,28.6c1.2,7,6,11.7,9.9,17
		c0.7,1,1.9,1.4,3.1,1c8.1-2.5,16.7-2,23.7-4.2C319.1,577.3,305.3,562.7,291.6,548.1z M316.2,479.1c-0.1,0.4-0.1,0.8-0.2,1.3
		c22.8,5.3,46.2,6.2,69.4,8.3c-0.5-1.3-1.1-1.9-1.8-2.3c-11.7-8.2-24.6-14-37.6-19.7c-4.5-2-9.7-0.4-14.6-0.2
		c-2.4,0.1-2.5,2.3-3.1,4c-3.1,8.2-3.1,8.2-11.4,8.3C316.7,478.6,316.5,478.9,316.2,479.1z M924.6,364c1.5-3.5,1.5-6.6,0.4-9.6
		c-5.2-13.8-10.5-27.6-15.6-41.5c-1-2.7-2.2-2.8-4.3-1.3c-4.6,3.3-9.2,6.5-13.9,9.6c-3,2-3,3.7-0.7,6.4c6.4,7.6,13.5,14.6,20.4,21.8
		C915.3,354.2,919.8,358.9,924.6,364z M276.5,558.9c-0.6,2.5-1.2,4.1-1.3,5.7c-1,10.8,0.2,21.6,0.8,32.4c0.1,1.6,0.9,2.4,2.5,2.4
		c5.6,0.2,11.1-0.4,16.4-2.1c1.5-0.5,2.4-1.3,2-2.9c-0.8-3.9-0.4-8.2-2.7-11.6C288.8,575,283.4,566.9,276.5,558.9z M398.6,588.7
		c-2.2-0.4-4-0.6-5.2,0.8c-0.9,1,0.2,1.9,0.9,2.5c6.8,5.3,12.2,12.2,19.5,17c1.2,0.8,2.2,1.9,3.3,0.2c4.8-7.4,9.6-14.7,14.2-22.2
		c0.9-1.5,0.3-3.1-1.5-2.2c-3.7,1.7-7.5,0.5-11.3,1.2C411.8,587.4,404.9,587.9,398.6,588.7z M201.7,471.7
		c-11.2,7.7-17.3,18-18.7,31.1c-0.1,1.4-0.3,3.1,1.4,3.9c1.5,0.7,2.9,0.1,4.2-0.8c4.2-3,8.4-5.9,12.6-8.9c1-0.7,2.2-1.5,1.7-2.7
		C200.4,487,202.2,479.6,201.7,471.7z M1053.8,395.1c-0.4-0.2-0.8-0.4-1.2-0.6c-5,7.1-9.7,14.5-15.2,21.3
		c-4.6,5.8-3.3,12.2-3.2,18.5c0,1.6,1.6,4,3.1,2.2c3-3.4,8-5.5,9.3-10.1C1049.4,416.1,1051.5,405.6,1053.8,395.1z M919.5,67.4
		c-1.2,23-15.4,36.1-34.5,45.3c-6.3,3-12.9,5.3-19.7,7.2c-2,0.5-4.2,0.7-3.2,3.7c1.1,3.4,3.3,2,5.2,1c10.5-5.4,21.1-10.6,31.3-16.6
		c6.1-3.6,11.7-7.6,16.7-12.6C923.4,87.1,925.1,76.6,919.5,67.4z M396.5,65.9c8,0.6,15,0.4,21.9-0.7c1.5-0.2,3.1-0.6,2.9-2.7
		c-0.1-1.3-0.7-2.8,1.1-3.4c1.6-0.5,2.1,1.5,3.1,1.9c3.3,1.4,5.4,6.6,9.3,4.8c6.3-3,11.8-7.6,17.3-12.6
		C444.4,51.7,404.8,60.6,396.5,65.9z M1105.7,449.7c-9.1,1.6-18.1,2.4-26.9,3.9c-7.6,1.3-11,7.1-15.8,11.8
		c6.4,0.5,13.1,2.6,18.6-0.2C1090.1,461,1097.7,455,1105.7,449.7z M213.1,542.5c0.7-5.7-2.7-10.2-9.1-12.7c-1.2-0.4-3.5-0.6-1.9-2.2
		c3.2-3.1,0.3-7.2,3.1-10.2c-7.2-0.8-10.8,3.7-14.7,7.8c-1.8,1.9-1.7,3.4-0.2,5.2c4.4,5.1,9,9.9,16.4,10.2
		C208.9,540.8,211.1,541,213.1,542.5z M496.3,546.9c-2.5,8-5,15.6-7.4,23.1c-1,3.1,0.3,4.1,3.2,3.5c5-1.1,10-1.4,15.1-1.5
		c1.2,0,2.4,0.1,3.2-0.9c0.9-1.3-0.3-2.2-1-3C503.8,561.9,499.5,554.9,496.3,546.9z M977.1,393c0.4,3.7,0.6,6,1,8.2
		c1.8,10.4,6.6,19.8,10.4,29.5c0.8,2,2.7,2.3,4.6,2.3c1.1,0,2.2-0.5,2.1-1.6c-0.4-4.2,1.1-8.7-1.4-12.6
		C988.6,410.5,983.2,402.4,977.1,393z M292.1,576c0.3-1.8,0.6-2.4,0.5-3c-1.8-8.6-3.5-17.3-5.4-25.9c-0.8-3.6-3.3-5.8-6.5-7.8
		c-1,4.9-1.9,9.2-2.8,13.6c-0.3,1.3-0.6,2.6,0.3,3.8C282.6,562.9,287.1,569.1,292.1,576z M1064.4,506.2
		c6.7,10.5,21.8,17.3,32.9,14.8c-6.2-5-12.6-8.6-18.6-12.8C1074.2,504.9,1069.5,505.6,1064.4,506.2z M237.8,574
		c5.5-4.3,10.9-7.1,14.5-12.3c0.9-1.3,1.2-3.1,1.7-4.6c0.3-0.8,0.3-2-0.6-2.2c-3.5-0.9-7.2-3.3-10.5-2c-3,1.1-5.5,3.8-5.8,7.9
		C236.9,564.9,237.4,568.8,237.8,574z M217.8,574.5c5.5-4.6,8.5-10.5,11.8-16.2c1.4-2.4,6.8-4.9,1.4-8.7c-0.1,0,0.1-0.6,0.3-0.7
		c0.5-0.2,1.5,0.1,1.3-1c-0.2-0.8-0.9-0.7-1.6-0.8c-4.5-0.4-8.3,2.2-9.3,5.6C219.7,559.8,219.1,567.2,217.8,574.5z M928.2,427.2
		c0.3,7,2.2,13.3,5.5,19.1c1.8,3.1,8,3.6,10.7,1.4c1.4-1.1,2.1-2.2,0.6-3.7C939.4,438.4,933.8,432.8,928.2,427.2z M272.4,574.3
		c-7.2,4.8-6.7,4.7-4.5,12.1c0.9,3.1,1.5,7.7-1.9,10.8c-1.6,1.4-3,4-1.5,5.1c1.9,1.4,4.4-1.4,6.9-1.3c1.4,0.1,2.1-1.1,2-2.4
		C272.2,590.8,273.3,582.8,272.4,574.3z M931.5,518.5c6.9-0.1,12.4-2.4,18-3.1c4.5-0.6,6.8-3.8,9.7-6.4c1.4-1.3,0.6-2.5-1.1-2.6
		c-3.3-0.2-6.8-0.6-9.7,1.2C942.9,510.8,937.7,514.5,931.5,518.5z M405.9,524.2c-5-3.2-10.6-3.5-16-4.3c-14.7-2-29.4-4.1-44.1-6.2
		c-1.1-0.2-2-0.2-2.4,1c-0.5,1.6,0.8,1.5,1.7,1.6c1.8,0.3,3.6,0.6,5.4,0.8c12.2,1.3,24.4,2.5,36.6,4
		C393.4,521.9,399.6,523.2,405.9,524.2z M202.5,509.7c-5.7,0-10.6-0.4-15.5,0.1c-3.2,0.4-4.4,2.9-3.6,6.4c0.8,3.4,2.7,3.2,5.6,2.9
		C195.1,518.4,198.4,514.2,202.5,509.7z M979.3,564.5c0.3,0.1,0.6,0.2,0.8,0.3c3.4-5.1,6.8-10.2,10.2-15.3c1.7-2.6,2.4-6.1-0.1-7.5
		c-2.8-1.5-4.7,2-6.4,4.2c-0.3,0.4-0.2,1-0.4,1.4C982.1,553.3,980.7,558.9,979.3,564.5z M1012.1,448c-2.3-4.5-5.5-8.9-8.9-13.2
		c-0.9-1.2-2.3-2.6-3.5-0.6c-1,1.5-2.3,3.5,0,5.2c0.7,0.5,2.7,0.4,2.2,1.4c-3.2,5.9,4.2,6,5.2,9.6c0.3,0.9,1.8,1.4,3.1,0.8
		C1011.2,450.7,1011.9,449.8,1012.1,448z M228.3,432.4c3-10.4-4.4-16-9.8-23.5C218.7,420.9,221.4,427,228.3,432.4z M992.9,516.3
		c-0.1,3.2,1.2,4.3,4.3,2.8c3.4-1.6,6-4.3,8.2-7.1c2-2.4,0.2-4.3-2.1-4.7C997.6,506.3,992.9,510.6,992.9,516.3z M907.9,89.8
		c-12.8,14-29.5,21.1-46.9,26.9C879.6,112.7,896.6,106.2,907.9,89.8z M1043.8,468.5c-3.4-0.2-5.3,2.1-5.6,6.3
		c-0.2,2.9,1.4,4.3,3.8,4.9c1.6,0.4,8.5-5.6,8.1-7.2C1049.3,469.2,1045.9,469.5,1043.8,468.5z M1030.9,453.7c-0.7-1.6,1-4.3-1.2-5.2
		c-2.1-0.9-3.3,1.7-4.5,3.1c-1.8,2.2-5.5,3.8-2.8,7.8c1.3,2,2.7,2.5,5,2C1032.2,460.5,1030.2,456.7,1030.9,453.7z M1026.8,514.6
		c-0.2-2.3,0.5-5-2.7-5.1c-3.5-0.1-6.7,2.1-7,5.1c-0.3,3,2.8,6.4,5.6,6.6C1026.7,521.5,1025.9,517,1026.8,514.6z M338.8,447.6
		c-0.1-0.2-0.2-0.4-0.3-0.6c-6.3,1.4-12.6,2.8-18.8,4.3c-1.1,0.3-3.5,1.2-1.9,2c3,1.4,6.6,4.1,9.9,2.3
		C331.7,453.6,335.1,450.3,338.8,447.6z"/>
	<path d="M1147.5,384.1c-4.7,4.5-9,8.8-15.5,14.6c-5.4,4.8-10.1,8.6-13.4,11.3c2-1.9,18.3-18,20.3-20c2.3-2.3,4.7-4.6,7-6.9
		c12.1-11.8,14.7-14.8,20.1-19.3c4.2-3.6,10.4-8.5,10.7-8.1c0.4,0.5-5,5.3-5.6,5.8c-2.7,2.5-5.4,5.2-8.1,7.7c-4,3.8-8,7.6-11.9,11.5
		C1149.8,381.8,1148.6,382.9,1147.5,384.1z"/>
</g>
</svg>
