<?xml version="1.0" encoding="iso-8859-1"?>
<!-- Generator: Adobe Illustrator 18.0.0, SVG Export Plug-In . SVG Version: 6.00 Build 0)  -->
<!DOCTYPE svg PUBLIC "-//W3C//DTD SVG 1.1//EN" "http://www.w3.org/Graphics/SVG/1.1/DTD/svg11.dtd">
<svg xmlns="http://www.w3.org/2000/svg" xmlns:xlink="http://www.w3.org/1999/xlink" version="1.1" id="Capa_1" x="0px" y="0px" viewBox="0 0 369.004 369.004" style="enable-background:new 0 0 369.004 369.004;" xml:space="preserve" width="512px" height="512px">
<path d="M361.398,258.224l-78.301-36.331c-0.381-28.971-4.997-77.152-29.388-103.968c-26.799-29.46-71.729-33.432-112.145-33.432  c-28.983,0-56.848,8.699-80.58,25.157c-23.182,16.076-40.879,38.395-51.18,64.544l0,0c-1.215,3.085,0.087,6.591,3.021,8.134l0,0  c6.382,3.357,10.739,9.546,11.958,16.459l-15.638-1.813c-3.436-0.398-6.582,1.964-7.158,5.376l0,0  C0.669,210.169,0,218.145,0,226.056v0c0,3.111,2.204,5.785,5.257,6.38l5.167,1.006c43.126,8.401,87.265,12.661,131.191,12.66  c12.585,0,25.184-0.363,37.769-1.059l31.691,15.024l0.205,0.093c37.207,16.08,77.483,24.351,117.918,24.35  c9.156,0,18.327-0.425,27.465-1.279c5.982-0.559,11.079-4.896,12.13-10.812C369.849,266.475,366.869,260.762,361.398,258.224z   M244.092,126.672c21.725,23.883,25.533,70.363,25.984,94.058c-17.584,3.417-35.334,6.123-53.167,8.129  c-0.618-50.622-12.073-89.963-34.079-116.972c-4.53-5.56-9.079-10.017-13.349-13.585  C198.364,100.28,225.986,106.767,244.092,126.672z M13.927,210.615l16.763,1.944c3.566,0.414,6.792-2.142,7.206-5.708l0,0  c1.467-12.658-4.02-25.172-13.951-32.786c9.565-21.641,24.849-40.141,44.448-53.733c14.154-9.815,29.933-16.568,46.553-20.062  c-3.592,3.205-7.337,7.037-11.068,11.617C81.815,138.965,70.36,178.44,69.796,229.248c-19.02-2.04-37.949-4.883-56.684-8.527  C13.251,217.348,13.523,213.972,13.927,210.615z M82.782,230.509c0.282-33.514,5.948-78.76,30.511-109.588  c13.639-17.118,27.431-22.601,29.733-23.425c0.219,0,0.439,0.001,0.659,0.002c2.317,0.83,16.1,6.317,29.729,23.423  c24.485,30.731,30.194,75.792,30.509,109.273c-20.724,1.927-41.535,2.907-62.308,2.908  C122.009,233.103,102.361,232.228,82.782,230.509z M355.881,270.249c-47.425,4.505-95.603-3.095-139.339-21.977l-10.932-5.183  c23.57-2.209,47.027-5.628,70.198-10.249C275.808,232.841,355.977,270.24,355.881,270.249z" fill="#FFFFFF"/>
<g>
</g>
<g>
</g>
<g>
</g>
<g>
</g>
<g>
</g>
<g>
</g>
<g>
</g>
<g>
</g>
<g>
</g>
<g>
</g>
<g>
</g>
<g>
</g>
<g>
</g>
<g>
</g>
<g>
</g>
</svg>
