<?xml version="1.0" encoding="utf-8"?>
<!-- Generator: Adobe Illustrator 21.0.2, SVG Export Plug-In . SVG Version: 6.00 Build 0)  -->
<svg version="1.1" id="Capa_1" xmlns="http://www.w3.org/2000/svg" xmlns:xlink="http://www.w3.org/1999/xlink" x="0px" y="0px"
	 viewBox="0 0 22.8 22.8" style="enable-background:new 0 0 22.8 22.8;" xml:space="preserve">
<style type="text/css">
	.st0{fill:#FFFFFF;}
</style>
<g>
	<path class="st0" d="M20.7,6.9c0.1-0.5,0-1.1-0.5-1.5l-1.9-1.9c-0.6-0.6-1.5-0.6-2.1-0.2h-2.2c0.1-0.4,0.3-1.2,0.3-1.2
		c0,0,0,0,0-0.1c0-0.1-0.2-0.2-0.3-0.2c-0.3,0-1.7,0-3,0c-2.9,0-2.9,0-2.9,0.3c0,0,0,0,0,0.1l0,0.2c0.1,0.5,0.2,0.8,0.2,1H6.8
		c-0.6-0.4-1.3-0.4-1.9,0c0,0,0,0,0,0c-0.1,0-0.6,0.5-1.4,1.3L2.8,5.4C2.5,5.7,2.4,6,2.3,6.4C1.1,8.5,0,11.6,0,16.3
		c0,0.1,0.1,0.3,0.3,0.3H3c0.1,0,0.3-0.1,0.3-0.3c0-3.9,0.9-6.4,1.7-8l1.1,5.2l-0.2,4.4c0,0,0,0.1,0,0.1l1,1.9c0,0,0.1,0.1,0.1,0.1
		c0.1,0,1.6,1,4.2,1c1.5,0,3.1-0.3,4.7-1c0.1,0,0.1-0.1,0.1-0.1l1-1.9c0,0,0-0.1,0-0.1l-0.2-4.5l1.1-5c0.8,1.6,1.7,4.1,1.7,8
		c0,0.1,0.1,0.3,0.3,0.3h2.7c0.1,0,0.3-0.1,0.3-0.3C22.8,12,21.8,9,20.7,6.9z M2.7,16.1H0.5c0-4,0.9-6.9,1.9-8.8
		c0.1,0.2,0.2,0.4,0.4,0.5c0.4,0.4,1.1,0.6,1.6,0.4C3.6,9.8,2.8,12.3,2.7,16.1z M17.5,7.6l-1.2,5.6c0,0,0,0,0,0.1l0.2,4.5l-0.9,1.8
		c-1.5,0.6-3,0.9-4.4,0.9c-2.2,0-3.6-0.8-3.9-0.9l-0.9-1.8l0.2-4.4c0,0,0,0,0-0.1L5.3,7.6l1.7-1.7c0.6-0.6,0.6-1.4,0.2-2.1h1.5
		c0.1,0,0.1,0,0.2-0.1S9,3.5,9,3.5c0-0.1-0.2-0.8-0.2-1.2c1,0,4,0,5.1,0c-0.1,0.4-0.3,1.1-0.3,1.2c0,0.1,0,0.2,0,0.2
		c0,0.1,0.1,0.1,0.2,0.1h2c-0.4,0.6-0.3,1.5,0.2,2.1l1.6,1.6C17.5,7.5,17.5,7.5,17.5,7.6z M20.1,16.1c0-3.9-0.9-6.4-1.8-8
		c0.6,0.4,1.5,0.3,2-0.3c0.1-0.1,0.1-0.2,0.2-0.2c0.9,1.9,1.7,4.7,1.8,8.5L20.1,16.1L20.1,16.1z"/>
</g>
</svg>
