<?xml version="1.0" encoding="utf-8"?>
<!-- Generator: Adobe Illustrator 21.0.2, SVG Export Plug-In . SVG Version: 6.00 Build 0)  -->
<svg version="1.1" id="Слой_1" xmlns="http://www.w3.org/2000/svg" xmlns:xlink="http://www.w3.org/1999/xlink" x="0px" y="0px"
	 viewBox="0 0 61.3 88.8" style="enable-background:new 0 0 61.3 88.8;" xml:space="preserve">
<style type="text/css">
	.st0{fill:#FFFFFF;}
</style>
<path class="st0" d="M0.7,72.8C0.3,75.5,0,77.2,0,77.2s4.9,3.6,12.7,2.4l0.5-4.3c-0.8,0.1-1.5,0.1-2.2,0.1C6.4,75.3,3,74,0.7,72.8z"
	/>
<path class="st0" d="M17.2,27.4c-1.9,1.1-5.9,3.7-8.3,7.6c-2.3,3.8-6,24.9-7.8,35.7c2.4,1.3,6.7,3.1,12.3,2.5l2.8-26.7
	c0.1-0.5,0.5-1,1.1-0.9c0.5,0.1,0.9,0.5,0.9,1.1l-2.4,22.7C14.9,78.4,14,87,14,87s5.2,1.7,15.7,1.8V39l-11.7-7.8L17.2,27.4z"/>
<path class="st0" d="M60.6,72.8c-2.3,1.2-5.8,2.5-10.2,2.5c-0.7,0-1.5-0.1-2.2-0.1l0.4,4.3c7.8,1.2,12.7-2.4,12.7-2.4
	S61.1,75.5,60.6,72.8z"/>
<path class="st0" d="M41.6,30.1c0,0,1.5-6.5,1.7-8.7C45.5-1,30.7,0,30.7,0S15.8-1,18,21.4c0.2,2.2,1.7,8.7,1.7,8.7L30,36.9
	L19.7,16.2c0,0,2.7-6.7,11-7.8c8.3,1.2,11,7.8,11,7.8L31.3,36.9L41.6,30.1z"/>
<path class="st0" d="M44.1,45.5c0.6-0.1,1,0.3,1.1,0.9L48,73.2c5.7,0.6,10-1.1,12.3-2.5c-1.8-10.8-5.5-31.9-7.8-35.7
	c-2.4-3.9-6.4-6.5-8.3-7.6l-0.8,3.9L31.7,39v49.8C42.2,88.7,47.3,87,47.3,87s-0.9-8.6-1.8-17.6l-2.4-22.7
	C43.2,46.1,43.6,45.6,44.1,45.5z M34.6,68.8c-0.8,0-1.5-0.7-1.5-1.5s0.7-1.5,1.5-1.5c0.8,0,1.5,0.7,1.5,1.5S35.4,68.8,34.6,68.8z
	 M34.6,55.9c-0.8,0-1.5-0.7-1.5-1.5c0-0.8,0.7-1.5,1.5-1.5c0.8,0,1.5,0.7,1.5,1.5C36.1,55.3,35.4,55.9,34.6,55.9z M34.6,43
	c-0.8,0-1.5-0.7-1.5-1.5s0.7-1.5,1.5-1.5c0.8,0,1.5,0.7,1.5,1.5C36.1,42.4,35.4,43,34.6,43z"/>
</svg>
