<?xml version="1.0" encoding="utf-8"?>
<!-- Generator: Adobe Illustrator 21.0.2, SVG Export Plug-In . SVG Version: 6.00 Build 0)  -->
<svg version="1.1" id="rennrad" xmlns="http://www.w3.org/2000/svg" xmlns:xlink="http://www.w3.org/1999/xlink" x="0px" y="0px"
	 viewBox="0 0 1063.2 640.5" style="enable-background:new 0 0 1063.2 640.5;" xml:space="preserve">
<g>
	<path style="fill:#fff" d="M262.6,635.9c26.3,2.1,51.8,0.4,77.2,3.1c-72.7,0-145.4,3.1-218.2,0.5c5,0,10,0,15,0c-9.7-1.5-19.5-0.4-29.1-3
		c20.4,0,40.8,0,61.2,0c-8.2-2.7-16.3-5.4-24.4-8c-14.8-4.8-28.6-12-41.7-20.2c-30-18.5-53.9-43.3-71.9-73.6
		C15.7,509.3,6,481.8,2,452.4c-4.9-35.9-0.7-70.8,11.5-104.7c5.8-16,13.5-31.2,23-45.3c20.2-29.9,45.9-53.6,77.8-70.8
		C135,220.4,157,212.7,180,209c31.8-5.2,63.6-4,95,5.1c21.5,6.3,41.3,15.9,60,27.8c3,1.9,4.3,1.5,6.4-1.1
		c11.2-13.2,22.4-26.4,33.9-39.4c3.3-3.7,4-7,2.6-11.7c-4.1-13.4-7.7-26.9-11.4-40.4c-0.8-2.7-1.3-5.3-5.1-4.3
		c-1.9,0.4-3.2-0.8-3.7-2.6c-0.6-2.1,0.4-3.8,2.4-4.3c4.1-1.2,3.8-3.6,2.8-6.9c-7.3-24.9-14.5-49.9-21.5-74.9c-2-7-5.6-11.5-13-12.8
		c-1.8-0.3-4.2-0.6-4.9-2.2c-2.4-5.2-6.7-4.1-10.6-3.6c-7.2,0.9-13.6-0.3-18.7-5.9c-1.7-1.8-3.9-2.5-6.3-2.4c-2,0-4.1-0.2-5.7-1.5
		c-4.2-3.6-8.6-6.7-14.3-7.3c-1.4-0.1-2.6-1.3-2.8-2.6c-1-5-5-5.1-8.8-5.5c-2.7-0.2-5.4-0.3-6.7-3.4c-2.3-5.4-0.3-8.7,6.1-8.7
		c8.2,0,16.3,0.6,24.5,1c29.1,1.6,58.2,1.3,87.4,0c14.5-0.6,28.9-2,43.4-1.4c4.7,0.2,9.3,1,13.5,3.2c2.7,1.4,4.6,3.7,3.8,6.9
		c-0.9,3.2-2.8,5.5-6.8,5.3c-4.8-0.2-9.4-0.2-13.7,3.1c-2.6,2-6.8,1.5-10.2,0.4c-8-2.7-15.3-1.9-22.2,2.9
		c-7,4.8-13.7,10.1-22.8,10.7c-3.3,0.2-3.6,2.7-1.6,4.5c6.6,5.9,7.8,14.1,10,21.9c6.4,22.4,12.9,44.8,19.1,67.3c1,3.6,4.7,5,5.2,8.8
		c0.6,4.9,1.5,9.7,3.1,14.5c2.6,8.1,5.1,10.2,13.5,10.5c3.7,0.2,7.3-0.4,10.9-1.2c62.2-12.5,124.6-24.1,187-35.4
		c26.4-4.8,52.9-8.6,79.1-14.3c3.9-0.8,7.7-2.1,11.7-2.8c3.5-0.6,4.5-2.1,3.2-5.5c-1.7-4.4-3-8.8-4.5-13.3c-1-2.9-1.4-5.7,1.2-8.3
		c2.3-2.3,1.4-4.4-1.7-4.9c-3.7-0.7-5-3.3-5.2-6.4c-0.2-3.4,1.9-5.3,5-6.7c8.8-4,18.3-4.1,27.6-5.4c11.5-1.6,22.9-4.5,34.3-6.7
		c2.6-0.5,4.7-1.5,6.5-3.3c4.4-4.5,10.2-5.4,16-5.7c2.4-0.1,4.8,0.3,5.1,3.5c0.2,2.2,1.8,2.4,3.6,2.7c13,1.9,25.9,0.7,38.8-0.6
		c3.5-0.3,6.9-1,10.4-1.5c8.3-1.3,13.7-6.3,15.9-14c1.9-6.7,5.5-9.2,12.4-10.7c7.1-1.6,13.2-1.8,19.7,1.4c5.3,2.7,7,7.7,9.1,12.5
		c1,2.2-0.6,3.8-2,5.2c-5.1,5.2-7.1,10.6-4,18c3.3,8,0.4,16.5,0.3,24.7c-0.1,11.2,0.8,22.3,2.9,33.2c0.5,2.9,2.5,5,4.5,7.1
		c1.4,1.6,2.2,3.7,0.8,5.5c-1.7,2.1-3.4,0-4.7-0.9c-7-5.1-14.9-8.6-21.2-14.9c-5.8-5.8-8.2-12.8-9.8-20.3c-0.8-3.8,2-6.8,4.6-9
		c5.3-4.3,3.2-9.7,2.5-14.7c-0.4-2.9-2.4-2.3-4.5-1c-8.3,5.1-13.1,12.2-13.3,22c-0.4,15.4-7.7,28-16.6,39.8
		c-10.9,14.5-25.6,23.5-42.1,30c-0.9,0.4-1.9,0.7-2.8,1.1c-7.1,3.2-8.7,8.4-4.8,15.2c3,5.1,6,10.2,4.5,16.7
		c-0.6,2.5,1.9,2.9,3.7,3.1c5.4,0.6,7.5,3.2,6.9,8.7c-0.4,4.1,2.2,5.9,6,5c19.7-4.3,39.7-4.9,59.6-4c15.6,0.7,31,4.2,46.1,8.6
		c37.8,10.9,70.2,30.7,97.4,59c29.7,30.8,48.9,67.2,57.2,109.1c7.1,35.5,5.4,70.9-5,105.7c-12.1,40.4-34.6,74.2-66.1,101.6
		c-25.7,22.3-55.4,38-88.9,45.7c-0.8,0.2-1.5,0.5-3.5,1.1c26.9,1.9,52.8,0.3,78.8,2.8c-1.8,1-3.6,0.5-5.3,0.5
		c-14.5,0.1-29,0.6-43.5,0c-14.7-0.6-29.2,2.7-43.9,2.1c-27.1-1.1-54.3-0.7-81.4-0.2c-15.5,0.3-30.9,0.1-46.4,0.1c0-0.6,0-1.2,0-1.8
		c9.3,0,18.7,0,28,0c-13-1.6-26.2-0.1-39.2-3c17.1,0,34.2,0,51.4,0c0.1-0.3,0.1-0.6,0.2-0.9c-1.6-0.4-3.1-0.9-4.7-1.3
		c-22.8-5.8-43.9-15.4-63.7-28.1c-33-21.2-58.5-49.2-76.2-84.1c-13.7-26.9-21.2-55.4-23.5-85.5c-2.3-29.3,2-57.5,11-85.1
		c5.3-16.4,13.1-31.7,22.4-46.2c18-28.3,41.4-51.1,70.1-68.4c4.4-2.6,5.3-5.2,3.1-9.7c-2.5-5.3-4-10.9-5.4-16.6
		c-1.2-5.2-3.6-6.7-8.6-4.6c-8.3,3.4-14.9,9.3-21.4,15.4c-18.5,17.6-34.7,37.3-51.4,56.6c-32.3,37.3-63.9,75.1-94.7,113.6
		c-8.4,10.5-16.6,21.3-25.1,31.7c-2,2.5-2.5,4.9-0.7,7.2c4.5,5.6,7.1,12.1,9.3,18.7c2.1,6.5,3,13.4,3.3,20.2
		c0.3,7.7-0.9,15.5-3.5,22.6c-2.3,6.5-4.9,13-9.4,18.7c-4,5-8.3,9.6-12.9,14c-3.2,3-6.8,5.4-10.6,7c-3.6,1.6-3.4,3.1-2.5,6
		c3.6,12.1,7.2,24.3,10.6,36.5c1.6,5.6-0.7,11-5.4,13.8c-6.9,4.2-14.6,1.2-17-6.9c-3.3-11-6.4-22.1-9.6-33.1
		c-2.4-8.3-3.7-9.1-12-7.7c-7.2,1.1-14.4,0.7-21.7,1c-9.4,0.3-18.7,0.6-28.1,0.9c-3.9,0.1-7.9,0.9-11.8,0.4c-4.1-0.6-6.6,0.7-8.8,4
		c-11.2,16.3-24,31-39.2,43.7c-25.7,21.6-54.6,37.1-87.3,45.3C266.9,634.8,265.2,635.3,262.6,635.9z M671.7,138.2
		c-8.9,0.3-15.2,0.6-21.6,1.1c-32.7,2.3-65.2,6.7-97.6,11.7c-35.7,5.5-71.3,11.9-106.7,18.8c-13.2,2.6-26.6,4.7-38.6,11.5
		c-7,4-8.1,6-5.9,13.8c10.6,37,21,74,32.5,110.7c1.6,5,3,9.7,4,14.9c1.4,7.8,4.3,15.4,6.6,23c0.4,1.2,0.7,2.8,1.7,3.5
		c4.7,3.5,5.7,8.8,7.2,13.9c3.2,10.9,6.5,21.7,9.5,32.6c1.2,4.3,3.9,5.3,7.8,5.1c7.8-0.4,15.3,1.4,22.2,4.6c7.7,3.5,7.5,3.7,13-2.9
		c13.6-16.4,27.2-32.8,40.8-49.3c1.3-1.5,3.1-2.9,2.9-5.1c-0.2-3.4,1.3-4.9,4.5-5.4c1.8-0.2,2.7-1.8,3.8-3.1
		c3.2-3.9,6.4-7.7,9.5-11.6c3.4-4.4,8.2-7.9,8.7-14.1c0.1-1.3,1.4-2.5,2.8-2.5c3.1,0.1,4.3-2.3,5.8-4.1c4.2-5,8.2-10.1,12.3-15.1
		c35.2-42.6,70.5-85.2,105.7-127.8c6.5-7.8,5.9-11-2.4-16.9C690.6,139.1,680.2,137.2,671.7,138.2z M1025.8,380.1
		c-0.1-0.3-0.3-1.1-0.5-1.9c-4.2-17.1-10.5-33.4-19.6-48.4c-6.7-11.1-3.7-12.6-17.1-4.3c-41.4,25.6-82.5,51.5-123.7,77.2
		c-3.1,1.9-7.3,3.4-8.8,6.2c-1.4,2.6,3,5.5,3.7,8.7c1,4.8,3.4,4.8,7.5,3.8c42.1-10,84.3-19.7,126.4-29.7c9.7-2.3,19.5-4,29-7.4
		C1024.4,383.6,1026.1,383,1025.8,380.1z M885.2,604c0.4,0,0.6,0,0.7-0.1c20.9-4.5,40.3-12.7,58.4-24c1.5-0.9,1.8-2.2,0.9-3.8
		c-1-1.9-1.7-4-2.8-5.8c-28.1-43.5-56.3-87-84.5-130.4c-0.6-0.9-0.9-2.3-2.3-2.5c-4-0.6-9.3,5.3-8.4,9.2
		c9.1,41,18.1,81.9,27.4,122.9c2.4,10.5,3.9,21.3,7.6,31.5C882.9,602.7,883.2,604.3,885.2,604z M834.2,439.7
		c0.6-2.7-1.2-3.8-2.7-5.1c-2.2-1.9-3.7,0.2-5.2,1.2c-35.9,23.7-71.8,47.3-107.6,71.1c-8.3,5.5-16.9,10.7-24.8,16.8
		c-3.4,2.6-3.1,4.6-0.8,7.7c10.9,14.9,23.7,27.9,38.5,39c7.6,5.7,7.8,5.8,13.5-2.1c28.7-40.3,57.3-80.7,86-121
		C832.8,444.9,834.1,442.5,834.2,439.7z M657.3,421.2c-0.2,7.9,0.2,16.4,1.4,24.8c1.4,10.3,1.9,10.6,12.2,8.5
		c17.6-3.5,35.3-7,52.9-10.5c32.8-6.6,65.6-13.3,98.4-19.9c1.7-0.3,3.5-0.4,3.8-2.6c0.3-2.2,0.4-4.3-1.7-5.9c-1.8-1.3-3.7-2-5.9-2.3
		c-42.2-7.2-84.3-14.5-126.5-21.5c-9.2-1.5-18.2-3.7-27.6-4.2c-3.1-0.2-4.4,1.1-5,4.1C657.6,401.3,657.2,411,657.3,421.2z
		 M216,238.3c-7.7,0.2-15.3,0-22.9,1.2c-2.4,0.4-3.4,1.2-3.8,3.7c-1.2,7,0.2,14,0.6,20.9c1.7,29.2,3.8,58.5,5.7,87.7
		c0.7,10.1,1.4,20.3,2,30.4c0.1,1.7,0.3,3.4,1.9,4.3c2,1.1,2.9-1.2,4.2-1.4c3.5-0.6,6.8-1.5,10.7-0.3c3.4,1,9.1,1.8,11,0.6
		c3.6-2.3,7.4-6.3,7.8-11.6c1-11.8,1.9-23.5,2.9-35.3c1.6-20.1,3.4-40.1,4.6-60.2c0.7-11.4,2.4-22.8,2.1-34.3
		c-0.1-3.5-1.4-4-4.3-4.4C231,238.3,223.5,238.4,216,238.3z M844.4,608.2c8.9,0.3,17.7-0.3,26.4-1.6c9-1.3,9.1-1.6,7.1-10.8
		c-3.6-16.4-7.3-32.8-10.9-49.2c-7.5-33.8-15-67.6-22.6-101.4c-0.5-2.1-0.5-4.5-3.6-4.6c-2.7-0.1-3.6,2.1-4.6,3.9
		c-0.5,1-0.6,2.2-0.8,3.4c-6.6,38.9-13.3,77.8-19.7,116.7c-2,12.1-4.7,24.2-5.6,36.5c-0.3,3.9,1.4,4.5,4.4,4.9
		C824.5,607.4,834.4,608.5,844.4,608.2z M824.4,426.3c-0.8,0.1-2,0.3-3.1,0.5c-42.9,8.6-85.8,17.2-128.6,26
		c-9.4,1.9-19.1,2.9-28.2,6.3c-2.3,0.9-3.1,2-2.5,4.5c4.8,19.9,12.6,38.6,23.3,56c1.5,2.4,3.2,2.7,5.9,1.6c4.6-1.8,8.4-4.7,12.4-7.3
		c33.5-22,67-44.1,100.5-66.2c7.5-5,15-9.9,22.5-14.9c1.4-0.9,2.8-1.9,1.9-4C827.7,427.1,826.9,425.7,824.4,426.3z M829,408.7
		c0-1.8-1.1-3.1-2.1-4.5c-25.4-38.7-50.8-77.4-76.3-116.1c-3.6-5.4-6.9-10.9-10.9-16.1c-2.6-3.3-4.5-2.8-7.3-0.6
		c-14.9,11.2-28,24.1-39.1,39.1c-4.6,6.1-4.5,6.1,1.1,11.1c0.6,0.6,1.3,1,2,1.5c40.3,28.3,80.7,56.6,121,85c2,1.4,4,3.1,6.4,3.7
		C826.6,412.5,828.6,411.7,829,408.7z M998.1,528.5c0.3-1.3-0.4-1.9-1-2.4c-1.9-1.6-3.8-3.3-5.8-4.7
		c-42.7-29.1-85.4-58.1-128.1-87.1c-1.2-0.8-2.6-2.9-4.3-1.2c-1.7,1.7-0.3,3.3,0.7,4.9c26.5,41,53,82,79.6,122.9
		c2.8,4.3,5.1,9,8.8,12.7c1.7,1.7,2.7,2.3,4.9,0.7c17.1-12,31.6-26.6,43.7-43.5C997.2,529.9,997.8,529,998.1,528.5z M847.4,401.9
		c0.5-2.4,1-4,1.3-5.6c6.8-37.7,13.6-75.3,20.3-113c2.4-13.3,4.5-26.6,6.8-39.8c0.7-4-1.1-5.4-4.7-5.8c-17.7-2.4-35.5-3.1-53.2-0.4
		c-11,1.7-11,1.5-8.5,12.5c10.2,44.6,20.3,89.3,30.5,133.9C841.2,389.9,842.7,396,847.4,401.9z M850.1,402.7
		c-0.2,0.8-0.5,1.8,0.4,2.2c1.3,0.7,1.6-0.7,2.2-1.4c0.3-0.4,0.5-0.8,0.8-1.2c23.8-35.5,47.8-71,71.5-106.6
		c5.8-8.7,12.3-17,17.1-26.4c1.8-3.5,0.9-4.9-2-6.6c-15.7-9.3-32.3-16.4-50-21.1c-10.5-2.7-10.5-2.7-12.5,8.3
		c-6.3,34.9-12.6,69.7-18.9,104.6C855.8,370.6,853,386.7,850.1,402.7z M861,427.9c0.5,3,2.3,3.5,3.6,4.4
		c11.8,8.1,23.7,16.1,35.6,24.1c23.8,16.2,47.6,32.5,71.6,48.5c8.7,5.8,16.9,12.4,26.3,17.2c3.2,1.7,4.3,0.5,5.8-2
		c9.2-15.6,16.5-32,21.1-49.5c2.8-10.5,2.4-11.1-8.4-13.1c-41-7.9-82.1-15.8-123.1-23.6C882.7,431.9,872.1,430,861,427.9z
		 M141.7,419.8c2,0.1,3.1-1.4,4.3-2.5c7.3-6.4,16-9.2,25.6-10.1c3.2-0.3,8,1.8,7.4-4.6c0-0.3,0.9-1,1.5-1.1c3.1-0.8,2.9-3.4,3.1-5.6
		c0.2-2.6-2.4-2.4-3.9-3c-30.6-12.8-61.2-25.6-91.8-38.2c-10.6-4.4-21.3-8.5-31.9-12.9c-3.8-1.6-5.3,0.1-6.8,3.3
		c-5.6,12.5-10,25.4-12.7,38.8c-1.7,8.2-1.5,8.4,6.4,10.9c0.6,0.2,1.3,0.3,1.9,0.5c25.6,6.6,51.3,13.1,76.9,19.7
		C128.4,416.5,135.1,418.1,141.7,419.8z M863.3,424.8c0,0.3-0.1,0.5-0.1,0.8c0.8,0.2,1.5,0.4,2.3,0.5c36.6,7,73.2,14,109.9,21
		c14.7,2.8,29.4,5.7,44.1,8.5c8.3,1.5,8.6,1,9.7-7.2c2.3-16.9,2.2-33.8,0-50.8c-1.4-10.4-2.1-11.1-12.3-8.8c-0.5,0.1-1,0.3-1.4,0.4
		c-14.7,3.5-29.5,6.9-44.2,10.4C935.2,408,899.2,416.4,863.3,424.8z M855.1,404.7c0.2,0.2,0.4,0.5,0.6,0.7c1.3-0.7,2.6-1.4,3.8-2.2
		c32.8-20.5,65.5-40.9,98.3-61.5c11.7-7.3,23.2-14.9,34.9-22.3c3.9-2.5,3.8-4.7,1.1-8.2c-11.1-14.3-23.5-27.2-38.1-38
		c-8.4-6.2-8.3-6.2-14.1,2.4c-16.4,24.5-32.9,48.9-49.3,73.4C879.8,367.6,867.5,386.2,855.1,404.7z M832.1,451.7
		c-2,0.4-2.3,1.7-3,2.5c-22,30.8-44,61.5-65.8,92.4c-6.6,9.4-14,18.3-19.4,28.5c-1.1,2.1-1,3.2,1,4.5c17.8,11.1,36.9,19.2,57.4,23.9
		c2.3,0.5,3.4,0,3.9-2.4c0.4-1.8,1.4-3.4,1.7-5.2c7-41.4,14-82.7,21-124.1C830.1,465.3,831,458.6,832.1,451.7z M814.4,410.1
		c0.1-0.3,0.2-0.5,0.2-0.8c-0.5-0.4-1-0.9-1.5-1.2c-33.4-23.5-66.7-47-100.1-70.3c-7.5-5.2-14.7-10.8-22.7-15.3
		c-3.3-1.9-4.6-0.9-6.2,1.8c-8.8,15.2-16.2,31-20.6,48c-3,11.9-3.1,11.8,9.3,13.9c32.7,5.5,65.3,11.1,97.9,16.7
		C785.2,405.2,799.8,407.7,814.4,410.1z M338.2,404.6c18.9-1,37-6,55.2-10.5c3.6-0.9,4.1-3.2,3.5-6.4c-2.7-13.2-6.5-26.2-12.1-38.5
		c-4-8.8-4.1-8.9-13-5.3c-41.1,16.9-82.1,34-123.2,51c-4.7,1.9-4.6,2-1.2,5.4c0.2,0.2,0.6,0.6,0.6,0.8c-0.8,5.5,2.5,4.4,6,4.4
		c2.9,0,5.9-0.1,8.9-0.1c12,0.1,24,1,35.9,0.1C311.9,404.6,325,405.6,338.2,404.6z M192,486.9c-0.1-2-1.8-1.7-2.9-2.2
		c-4.6-2-10.5-1-14.3-3.7c-4.1-2.9-8.5-4.9-12.8-7.3c-3.1-1.8-4.7-1.2-7,1.4c-16.5,18.9-33.4,37.6-49.8,56.5
		c-5.5,6.4-11.7,12.2-16.3,19.5c-1.6,2.5-1.6,3.9,0.5,5.8c10.6,9.6,20.7,19.7,34,25.9c7.5,3.5,7.6,3.9,11.9-3.2
		c18.4-30.1,36.8-60.2,55.2-90.3C191,488.5,191.5,487.6,192,486.9z M378.4,336.2c-0.5-1-1-2.2-1.6-3.3
		c-5.9-10.7-12.7-20.8-20.9-29.8c-9.8-10.8-6.3-12.2-18.7-1.5c-26,22.3-51.4,45.4-77.5,67.6c-6.8,5.8-10.1,12.9-13.2,20.6
		c-0.3,0.8-0.8,1.6-0.2,2.3c0.7,0.8,1.5,0.3,2.3,0c1.4-0.5,2.8-1.1,4.2-1.7c30.5-12.6,61-25.1,91.4-37.7
		c10.4-4.3,20.8-8.9,31.2-13.4C376.5,338.8,378.1,338.3,378.4,336.2z M85,294.3c-1.8,0.4-2.6,1.6-3.4,2.5c-9,9.7-17,20.1-23.6,31.5
		c-5.2,8.9-5.2,9,4.6,13c33.5,13.9,67,27.9,100.5,41.8c7.4,3.1,14.8,6.1,22.1,9.1c2.2,0.9,4.6,1.1,3.5-2.2
		c-1.7-4.8-3.1-9.7-7.4-13.3c-29.9-25.9-59.7-52-89.6-78C89.7,296.9,87.1,295.6,85,294.3z M253.1,443.3c0.9,1.6,1,2.1,1.4,2.4
		c25.1,29.4,50.1,58.7,75.2,88.1c2.2,2.6,5.1,3.3,8.5,3c4.1-0.3,8.2-0.3,12.3-0.1c6.8,0.3,13.1,0.2,16.6-7.2c1.8-3.7,4.5-7,6.6-10.6
		c6.2-10.1,6.2-10.2-4-16.6c-27.3-17.2-55-33.9-81.9-51.7C276.9,443.6,265.5,444.7,253.1,443.3z M213.7,488.6
		c-1-2.3-0.2-5.6-3.3-6.8c-4.3-1.7-13.5,1.8-16,5.8c-14,22.9-28,45.7-42,68.6c-5.2,8.5-10.5,17-15.6,25.6c-3.5,5.9-3.1,6.8,3.1,9.6
		c12.2,5.5,24.8,9.6,37.8,12.8c5.1,1.3,7.5-0.1,8.7-4.8c0.2-1,0.6-1.9,0.9-2.9c4.8-19.7,9.5-39.5,14.5-59.2c0.8-3.2-1.4-7,0.4-9.2
		c3.6-4.3,3.6-9.6,5.1-14.4C209.8,505.6,211.6,497.1,213.7,488.6z M194.9,384.6c0-3.5,0.2-6.3,0-9.1c-0.5-6.8-1.2-13.6-1.6-20.4
		c-1.8-28.2-3.4-56.5-5.4-84.7c-0.6-8.4-0.7-16.9-2.2-25.3c-0.6-3.4-1.9-4.3-5.3-3.6c-13.1,2.8-25.8,6.5-38,12
		c-8.8,3.9-8.8,4-4.8,13.1c15.4,35.1,30.9,70.1,46.1,105.2C185.9,377.1,189.4,380.9,194.9,384.6z M236.3,369.7
		c0.5,0.2,1,0.4,1.4,0.6c7.5-9.7,14.9-19.5,22.6-29c4.4-5.5,8.4-11.1,10.9-17.7c2.3-6.2,5.1-12.3,7.5-18.5
		c5.8-14.9,12.8-29.3,17.9-44.4c0.8-2.4,0.3-3.5-1.9-4.6c-14.2-6.9-29-11.7-44.4-14.7c-2.6-0.5-3.5,0.2-4,2.8
		c-2,9.7-1.9,19.5-2.7,29.3c-1.7,20.4-3.2,40.8-4.8,61.2C238,346.2,237.1,357.9,236.3,369.7z M84.3,550.4c1.8-1.7,4.1-3.5,5.9-5.5
		c9.7-11,19.4-22,29.1-33c11-12.5,22-25,33.2-37.4c2.7-3,2.6-4.9-0.8-7c-3.6-2.2-6.7-5.1-8.8-8.7c-2.3-4.2-4.6-4.4-8.7-1.8
		C110,472,85.6,486.8,61.3,501.7c-2.1,1.3-3.9,3.1-6,4.4c-2.2,1.4-2.2,2.9-1,5c7.5,13.4,16.2,26,26.7,37.3
		C81.8,549.2,82.5,550.2,84.3,550.4z M32.4,420.6c0.2,8.6,0.1,14.7,0.9,20.9c1.1,7.9,0.9,8.1,9.1,7.6c11.6-0.8,23.2-1.9,34.8-3
		c18.2-1.7,36.4-3.4,54.6-5.1c2.7-0.2,4.3-1.4,4.4-4.3c0.2-3.2,0.9-6.4,2.5-9.1c2.6-4.4,1.2-5.8-3.4-6.9
		c-22.1-5.4-44.2-11.2-66.3-16.8c-10.2-2.6-20.4-4.9-30.5-7.3c-3.5-0.8-4.8,0.7-5.1,4.1C33,408.1,32.1,415.6,32.4,420.6z
		 M327.9,536.6c-0.4-2-1.9-3.2-3-4.6c-23.8-27.8-47.7-55.5-71.6-83.3c-3.1-3.6-7.1-2.9-8.9,1.8c-0.5,1.4-0.6,2.8-2.6,3.1
		c-4,0.6-3.1,2.1-1.5,5c2.9,5.1,5.2,10.5,3.1,16.9c-1.4,4.1-2.7,8.9-0.4,13c8.2,14.8,16.8,29.5,25.2,44.3c0.8,1.4,1.6,3,3.6,3.1
		c8.4,0.2,16.8,0.5,25.1,0.6C307.2,536.7,317.3,536.6,327.9,536.6z M88.1,290.5c1.7,2.9,3.8,5.1,6.2,7.2
		c26.6,23.2,53.2,46.3,79.8,69.5c1.2,1,2.6,3.1,4.1,2.1c2-1.3,0.1-3.3-0.5-4.9c-11.3-25.9-22.6-51.9-34.1-77.7
		c-3.6-8-6.6-16.3-11-24c-1.7-3-3.3-2.9-6-1.4c-13.2,7.3-25.2,16.1-36.1,26.5C89.6,288.6,89,289.5,88.1,290.5z M131.9,443.6
		c-24.7,2.2-48.6,4.4-72.4,6.6c-6.6,0.6-13.2,1.4-19.8,2.2c-3.9,0.5-4.9,2.7-4.1,6.6c3,13.5,6.9,26.7,12.6,39.4
		c2.7,6.1,2.6,6.1,8.6,3.3c0.8-0.4,1.4-0.8,2.1-1.3c25.1-15.4,50.2-30.9,75.4-46.2c3.1-1.9,3.8-3.9,2.9-7.4
		C136.2,443,133.6,443.6,131.9,443.6z M427.7,366.5c0.5-0.2,1-0.4,1.4-0.6C413.7,313,398.3,260.1,382.5,206
		c-12,14.8-23.1,28.5-34.3,42.2c-2,2.4,0.2,3.1,1.5,4.2c13.3,11.3,26,23.2,36.7,37.1c15.4,20,26.7,42,35.1,65.7
		C422.9,359.1,423.7,363.9,427.7,366.5z M235.3,541.5c-6.1-1.1-6.1-1.1-4.6,5c1,3.9,2,7.7,2.9,11.6c3.2,13.1,6.3,26.2,9.7,39.3
		c2.2,8.4,2.6,8.6,10.9,6.9c13.4-2.8,26.3-7.1,38.8-12.7c3-1.3,3.7-2.6,2.2-5.6c-7.3-14.8-16.1-28.7-24.2-43.1
		c-0.6-1.1-1.4-1.5-2.8-1.5C257.3,541.6,246.3,541.5,235.3,541.5z M282.7,421.6c0.9,0.7,1.1,1,1.4,1c36.5,9.8,73.6,16.9,111.2,21.1
		c3.1,0.3,3.6-1,4-3.5c1.4-9.1,0.6-18.3,0.7-27.4c0.1-4.3-1.9-5.3-6-4.9c-6.5,0.7-13,1.5-19.5,1.2c-12.2-0.6-24.5-0.4-36.4,1.1
		C319.7,412.5,301.6,417.5,282.7,421.6z M214.6,608.2c7.8,0,14.4-0.4,21.1-0.9c4.7-0.4,6.8-1.5,5.6-6.5c-4.7-19.2-9.4-38.5-14-57.7
		c-0.5-2-1.8-2.8-3.7-2.7c-5.4,0.3-10.6-0.9-15.8-2.1c-2.4-0.5-3.7-0.2-4.4,2.4c-4.7,20.1-9.5,40.2-14.4,60.2
		c-1.1,4.4,0.9,5.7,4.7,6.1C201.1,607.7,208.4,608.5,214.6,608.2z M836.1,379.5c-0.2-1.3-0.3-2.6-0.6-3.9
		c-8.4-36.8-16.7-73.7-25.2-110.5c-1.6-7.1-3-14.3-5.2-21.3c-1.2-3.7-2.9-4.1-6.2-3.1c-5.1,1.6-10.3,2.8-15.4,4.3
		c-6.4,2-6.7,2.5-4.3,8.7c7.9,20.5,16.2,40.9,25.1,61C813.9,336.7,824.1,358.4,836.1,379.5z M286.9,447.3c0.6,0.5,1.2,1,1.9,1.4
		c19.7,12.4,39.3,24.9,59.2,37.1c9.7,6,19.1,12.8,29.3,18c3,1.5,4.4,1.1,5.6-1.9c3.6-8.6,7.2-17.2,9.8-26.1c1-3.5,0.1-4.7-3.4-5.4
		c-9.4-1.9-18.8-4.2-28.2-6.3C336.5,458.7,311.9,452.8,286.9,447.3z M776.9,76.5c0.1-3.6-1.5-3.8-3.6-3.3c-4.2,0.9-8.3,0.5-12.2-1.1
		c-1.7-0.7-3.6-0.8-5.4-0.5c-11.9,2.3-23.8,4.6-35.7,7c-3.6,0.7-5.2,2.6-3.7,6.4c1.4,3.5,1.7,7.6,6.6,8.4c0.7,0.1,1.3,1.4,1.7,2.3
		c3.7,8,7.8,15.7,8.2,24.9c0.1,3.7,1.7,7.4,2.8,11.1c0.5,1.6,0.6,4.2,2.6,4.5c2,0.3,2.7-2.2,3.8-3.5c13.1-16.2,22.1-35,33.3-52.4
		C776.1,78.9,776.6,77.2,776.9,76.5z M273.7,542.8c9.1,13.9,15.6,28.7,24.9,41.9c2,2.8,3.5,2.5,6.1,1.1c12.4-6.9,24-14.9,34.4-24.5
		c5.8-5.3,5.9-5.2,1.1-11.4c-3.3-4.2-6.5-8.4-12.8-8.1c-13.3,0.6-26.5,0.2-39.8,0C283.3,541.7,278.6,540.4,273.7,542.8z
		 M261.5,364.2c0.6-0.5,1.3-1,1.8-1.5c20.7-18.1,41.3-36.1,62-54.2c5-4.4,10.1-8.7,15-13.2c2.8-2.6,4.3-5.3,0.1-8.4
		c-3.6-2.6-6.9-5.7-10.2-8.8c-2.6-2.4-4.3-1.9-6.4,0.9c-6.8,9.2-14,18.2-20.9,27.4C288.8,325.3,274.5,344.1,261.5,364.2z
		 M778.2,130.1c14.3-6.1,25.4-14.8,32.5-27.8c7.4-13.4,6.2-20.2-4-31.5c-1.3-1.5-2.9-2.2-4.8-2.2c-3.3,0-6.7,0.1-10,0
		c-2.8-0.1-4.2,1.1-4.5,4c-1.2,11.1-3.7,22-5.8,32.9C780.2,113.3,778.5,121.1,778.2,130.1z M777,107.2c-4,5.8-7.8,11.7-12.4,16.9
		c-6,6.7-11.9,13.4-18.1,19.9c-2.8,3-3.6,5.7-1.9,9.8c3.1,7.4,5.5,15,8.1,22.5c3.1,8.8,5.2,17.8,9,26.4c3.9-2.6,7.4-5.4,11.9-3.4
		c1.5-6-1.2-11.4-1.8-17.1c-0.5-5,1.2-9.9-0.2-14.9c-0.5-1.8-0.6-3.1-3-2.9c-5.8,0.4-8.7-3.3-10.5-8.1c-0.7-2-1.1-4.2-1.9-6.2
		c-2.8-7.9-1.2-11.6,6.8-14.7c2.5-1,5-1.8,7.5-2.8c1.8-0.7,3.2-1.9,3.5-3.9C774.9,121.5,775.9,114.3,777,107.2z M237.7,488.5
		c1,2.9-0.5,4.8-2.1,6.8c-3.8,4.6-3.8,10.5-5.5,15.8c-0.3,0.9,0.4,1.4,0.9,2.1c5.3,6.6,5.3,12,0.4,18.4c-0.6,0.8-1.2,1.8-0.7,2.8
		c0.5,0.9,1.5,0.2,2.3,0.3c9.3,0.4,18.7,0.8,28,1.3c1.5,0.1,3.1,0.7,4.2-0.8c1.1-1.6-0.4-2.8-1.1-4c-7.5-13.3-15.1-26.6-22.6-39.9
		C240.8,490.1,240.3,488.8,237.7,488.5z M831.1,406.1c0.2-0.1,0.5-0.2,0.7-0.4c-0.8-1.5-1.6-3.1-2.5-4.6
		c-8.7-14.6-17.4-29.1-26.1-43.8c-18-30.5-36-61.1-53.1-92.2c-1.2-2.2-2.2-4.2-5.2-2.2c-2.3,1.6-5.4,2.5-2.8,6.4
		c1,1.5,1.5,3.3,2.5,4.8c20.9,31.9,41.8,63.8,62.7,95.7C815.2,382,823.2,394,831.1,406.1z M276,320c1.6-0.1,2.2-1.5,3-2.5
		c11.2-13.9,22.3-27.8,33.5-41.7c5.5-6.9,5.6-7-2.4-11.6c-8.8-5-8-7.9-13.5,4.5c-6.8,15.4-13,31.1-19.3,46.6
		C276.7,316.8,275.4,318.2,276,320z M440.1,535.6c1.9-0.2,3.6-0.6,5.4-1.2c0.9-0.3,2.2-0.4,2-1.7c-0.2-1.3-1.5-1.3-2.4-0.9
		c-2.4,1.1-3.7,0.2-4.5-2.1c-0.4-1.2-1.6-1.8-2.9-1.2c-2.7,1.1-4,0.3-4.3-2.6c-0.1-0.9-1-1.4-1.9-1.3c-2.7,0.3-4.5-0.1-4.8-3.3
		c-0.1-1.2-1.5-1.7-2.7-1.7c-2.3,0-3.1-1-3.2-3.3c-0.1-3.8-4-1.9-5.8-3.4c-1.4-1.1-2,0.4-2.5,1.4c-3.3,6.3-6.6,12.6-9.9,19
		c-0.6,1.2-1.3,2.7,1.2,2.6c5.4-0.1,10.8-0.2,16.2-0.2C426.7,535.5,433.4,535.6,440.1,535.6z M171.1,440
		c-10.3-1.3-17.8,5.6-26.2,10.5c-1.7,1-1.7,2.2-0.8,3.8c3,4.7,6.8,8.6,11.5,11.6c1.8,1.2,3.2,1.1,4.7-0.7
		c5.1-5.9,10.4-11.6,15.4-17.6c1.1-1.3,3.9-2.7,2.1-4.9C176.4,440.9,174.6,438.7,171.1,440z M186.1,458.1c-0.6-2.8-0.7-5-1.5-7
		c-0.9-2.4-5.8-3.2-7.5-1.2c-4.8,5.3-9.5,10.7-14.2,16.1c-0.9,1-2.7,2.4-0.5,3.6c3.6,2,7.5,4.3,11.7,3.4c2.7-0.6,4.8-0.7,7,0.8
		c2.7,1.8,3.9,0.7,4.1-2.3C185.5,466.9,181,461.9,186.1,458.1z M318,411.3c-21.1,0-43.1,0-65.2,0c0,0.5-0.1,1.1-0.1,1.6
		c4.7,1.5,9.4,3.1,14.1,4.6c3.8,1.2,7.5,3.3,11.6,2.5C292,417.1,305.5,414,318,411.3z M172.1,430.3c-7.4-1.9-13.5-3.6-19.6-5.1
		c-7.9-2-9.3-1.1-11.5,6.9c-2.2,7.6-1.6,8.3,6.3,7.3c1.6-0.2,3.3-0.4,5-0.3C159.8,439.3,165.4,435.3,172.1,430.3z M172.7,427.8
		c2.7-4,0.3-8.4,2.6-12.3c1.7-2.9,0.4-4.4-2.8-4.3c-7.6,0.2-14.7,2.2-21,6.6c-1.2,0.8-3.1,1.4-2.8,3.1c0.3,1.4,2.2,1.3,3.4,1.6
		C159.1,424.4,166.2,426.1,172.7,427.8z M371.7,16.7c-13.8,0.1-27.4,0.8-40.6,4.4c-3.1,0.9-6,2.2-7.7,5.6c2.7,0.9,4.6,0.1,6.2-1.5
		c1.4-1.4,3.2-2.7,4.9-1.9c4,1.9,8.5,1.1,12.5,2.5c4,1.4,7.6,0.6,11-1.1C362.8,22.5,367.2,19.4,371.7,16.7z M344.8,541.8
		c-0.7,0.1-1.4,0-2,0.3c-1.3,0.5-3.4-0.2-4,1.3c-0.6,1.6,1.1,2.6,2.1,3.6c6.1,6.7,6.1,6.7,12.1,0.1c0.6-0.6,1.1-1.2,1.7-1.8
		c0.6-0.7,1.8-1.4,1-2.4c-0.5-0.7-1.7-1.1-2.6-1.1C350.3,541.6,347.5,543.2,344.8,541.8z M367.3,402.9c1.9,0.5,2.9,1.1,3.8,0.9
		c8-1.3,16.1-0.9,24.1-0.9c2.1,0,3.7-0.7,3.6-3.1c-0.1-2.3-1.4-3.1-3.7-2.7C386,398.3,377.3,400.8,367.3,402.9z M741.8,143.7
		c7.5-8.3,15-16.7,22.4-25.1c0.9-1,3.4-2.3,1.2-4c-2.2-1.7-3.2,0.8-4.1,2.2c-5.2,7.5-10.8,14.8-16.9,21.6
		C743.2,139.9,741.5,141.1,741.8,143.7z M218.8,497.8c2.1-3.4,5.6-5.1,6.6-8.6c0.5-1.6,2.7-3.2,1-4.9c-1.7-1.7-4-1.1-6.1-0.3
		c-2.8,1.1-4.3,3-3.5,6.2C217.5,492.8,218.1,495.3,218.8,497.8z"/>
</g>
</svg>
