<?xml version="1.0" encoding="iso-8859-1"?>
<!-- Generator: Adobe Illustrator 19.0.0, SVG Export Plug-In . SVG Version: 6.00 Build 0)  -->
<svg xmlns="http://www.w3.org/2000/svg" xmlns:xlink="http://www.w3.org/1999/xlink" version="1.1" id="Layer_1" x="0px" y="0px" viewBox="0 0 512 512" style="enable-background:new 0 0 512 512;" xml:space="preserve" width="512px" height="512px">
<g>
	<g>
		<path d="M495.996,246.948L431.657,6.828c-1.317-4.913-6.37-7.829-11.275-6.511L337.53,22.516    c-0.946-0.725-2.049-1.278-3.276-1.597L275.296,5.573c-4.894-1.275-9.902,1.639-11.212,6.528l-50.545,188.635L54.794,292.389    c-37.366,21.572-50.21,69.526-28.633,106.898c10.47,18.135,27.298,30.928,47.384,36.019c6.206,1.573,12.489,2.351,18.733,2.351    c13.943,0,27.704-3.878,40.02-11.438c0,0,78.995-48.649,137.856-84.833l-30.792,53.333c-21.57,37.364-8.717,85.316,28.653,106.892    C279.933,508.49,293.072,512,306.341,512c6.923,0,13.885-0.956,20.721-2.888c19.916-5.625,36.37-18.849,46.33-37.234    l115.72-213.552l0.375-0.101c2.358-0.632,4.37-2.175,5.59-4.289C496.298,251.82,496.63,249.307,495.996,246.948z M122.653,410.533    c-13.545,8.318-29.379,10.779-44.583,6.923c-15.227-3.861-27.999-13.584-35.963-27.377c-7.993-13.844-10.117-29.971-5.984-45.409    c4.134-15.439,14.035-28.343,27.877-36.335l6.821-3.938l58.8,101.845C125.171,408.983,122.652,410.535,122.653,410.533z     M261.607,323.403c0.03,0.508,0.125,0.997,0.234,1.478c-39.483,24.27-88.452,54.414-116.533,71.702L86.769,295.19l139.28-80.414    c2.115-1.221,3.657-3.231,4.289-5.59l49.167-183.489l23.412,6.094l-15.936,4.27c-2.358,0.632-4.37,2.175-5.59,4.29    c-1.221,2.115-1.553,4.628-0.919,6.986l45.351,169.262C297.802,223.202,256.963,246.037,261.607,323.403z M330.588,234.388    l0.425,1.586l-41.522,71.919c-3.123,1.918-6.4,3.93-9.81,6.025C278.998,268.86,296.093,242.134,330.588,234.388z M357.202,463.104    c-7.575,13.978-20.055,24.024-35.147,28.288c-15.112,4.269-31.038,2.237-44.833-5.729c-28.577-16.499-38.409-53.167-21.914-81.737    l3.938-6.822l101.855,58.805L357.202,463.104z M369.877,439.714l-101.423-58.556l80.414-139.28    c1.221-2.115,1.553-4.628,0.919-6.986L300.64,51.464l115.615-30.978l42.874,160.012c-13.032,5.393-37.462,18.642-47.325,44.95    c-9.497,25.333-2.913,55.441,19.565,89.488c1.07,1.622,2.57,2.786,4.247,3.459L369.877,439.714z M474.808,246.069l-30.098,55.545    c-17.374-27.419-22.683-50.828-15.703-69.592c6.853-18.422,24.343-28.76,34.946-33.523l12.234,45.659    C475.651,244.728,475.186,245.37,474.808,246.069z" fill="#FFFFFF"/>
	</g>
</g>
<g>
</g>
<g>
</g>
<g>
</g>
<g>
</g>
<g>
</g>
<g>
</g>
<g>
</g>
<g>
</g>
<g>
</g>
<g>
</g>
<g>
</g>
<g>
</g>
<g>
</g>
<g>
</g>
<g>
</g>
</svg>
