<?xml version="1.0" encoding="utf-8"?>
<!-- Generator: Adobe Illustrator 21.0.2, SVG Export Plug-In . SVG Version: 6.00 Build 0)  -->
<svg version="1.1" id="trekking" xmlns="http://www.w3.org/2000/svg" xmlns:xlink="http://www.w3.org/1999/xlink" x="0px" y="0px"
	 viewBox="0 0 1266 748.5" style="enable-background:new 0 0 1266 748.5;" xml:space="preserve">
<g>
	<path style="fill:#fff" d="M957.3,737.8c-55.1-11.6-106-40.6-140.8-87.9c-11.4-15.4-21.4-32.3-28.4-50.1c-6.2-15.7-12.2-31.5-14.8-48.3
		c-1.6-10.3-4.4-20.4-3.9-31c0-0.8-0.4-1.6-0.4-2.4c-0.2-4.1-1.7-4.1-4.8-2c-2.5,1.7-5.1,5.2-8.2,3.3c-2.8-1.7-1.2-5.6-1.3-8.5
		c-0.3-6.1,0-12.3-1-18.4c-0.7-4.4-0.8-9,1.9-13.5c1.8-2.9,1.3-7.1,1.8-10.7c5.6-38.3,19-73.6,39.9-106.3
		c25.3-39.5,58.8-69.8,100.1-91.7c6.6-3.5,6.6-3.5,3.9-10.7c-0.7-1.9-1.6-3.7-2-5.7c-2.5-12.9-13.1-20.4-19.9-30.4
		c-1.9-2.8-5.2-3.5-8.5-3c-2.8,0.5-4.5-0.8-5.4-3.3c-1.7-4.7-3.5-9.3-4.1-14.4c-0.4-3.7-3.1-6.5-5.5-8.8c-2.2-2.1-5.2-0.6-7.5,1.7
		c-9.3,9.3-18.3,19-26.6,29.1c-30.4,36.9-58.6,75.6-88.1,113.2c-25.9,33-51.4,66.4-76.1,100.3c-13.1,18-26.1,36.2-39.3,54.2
		c-2.3,3.1-2.4,5.5,0,8.3c5.8,6.9,9.2,15,11.7,23.5c1.7,5.7,1.8,5.7-3.3,9.7c8.1,0.6,15.2,1.3,22.5,1.6c10.6,0.5,21.3,0.7,32,1
		c7.7,0.3,12.4,4.3,12.5,10.8c0.1,6.5-4.3,11.2-12,11.4c-9,0.2-18-0.4-27-0.6c-8.7-0.2-17.3,0.1-26.5,1.1c3.4,1.5,2.4,3.8,1.8,6.1
		c-6.7,25-23.1,41.3-46.9,49.7c-24,8.4-47,4.9-68.1-9.4c-2.5-1.7-4.6-3.2-8.1-2.5c-8,1.5-16.2,3.5-24.2,2.9
		c-6.9-0.5-7.2,3.4-9.2,7.4c-8.2,16.2-17.9,31.3-29.2,45.7C362.8,763.4,189,778.8,89.3,692.8c-15.1-13-28.9-27.2-40.6-43.5
		c-5.9-8.2-11-16.9-16.4-25.4c-5.5-8.5-8.9-18.1-13-27.3c-4.7-10.2-8.4-20.9-11.1-31.7c-2.6-10.5-5.3-21.1-5.8-32.1
		c-0.2-4.7-1.3-9.4-1.5-14.2c-0.6-12-1.3-23.9-0.1-35.9c0.5-5.2,1-10.5,1.6-15.7c0.8-7.1,2.6-14.2,3.9-21.2c1-5.7,3.3-11,4.5-16.7
		c1.3-6.1,3.9-11.9,6.3-17.7c1.1-2.7,0.4-3.1-2-3.3c-11.6-1.2-12.1-1.5-5.9-12c11.2-19.1,21.4-38.8,36-55.7c1.6-1.9,3-3.4,0.5-5.8
		c-1.9-1.8-1.1-3.5,1.7-3.4c5.4,0.3,8.8-2.8,12.2-6.4c14.4-15.4,30.2-29.1,48.2-40.2c2.2-1.3,3.4-2.7,1.7-5.2
		c-0.8-1.2-1.1-2.5,0.3-3.5c1.2-0.9,2.3-0.3,3.1,0.6c2.8,3.1,5.3,1.4,8-0.1c17.3-9.7,35.3-18.1,54.5-23.5
		c28.3-7.8,56.9-12.7,86.4-10.9c35.6,2.2,69.9,9.9,101.9,26.2c2.6,1.3,4.4,3.1,7.4-1c2.7-3.6,8.4-5.5,14-4.1
		c5.3,1.3,6.4,5.1,6.9,9.7c0.8,6.9,0.9,7,8.4,13.5c0.7-1,0.5-2.2,1.9-3.3c6.8-5.2,13.5-10.6,19.2-16.9c8-8.9,15.7-17.9,23.6-26.8
		c3.1-3.5,3.9-7.3,2.6-11.6c-1.8-6.1-4-12-5.8-18.1c-0.9-3.1-2.7-4.1-5.6-2.9c-4.4,1.8-5.3-1-6.5-4.3c-1.4-3.8,0.8-4.9,3.5-5.6
		c4.7-1.1,5.3-3.5,3.9-8c-8.9-27.1-17.5-54.2-26.2-81.3c-3.3-10.2-11.6-15.9-22.3-14.9c-3,0.3-5-0.1-6.4-3.2
		c-1.5-3.3-4.6-5.2-7.6-7.4c-15.4-11.1-33.1-18.2-48.8-28.8c-7.2-4.9-8.5-8.2-4.9-13.4c2.6-3.8,6.8-4.3,10.8-3.9
		c9.8,0.9,19.5,2.6,29.3,3.3c19.9,1.3,39.9,1.6,59.9,1.1c19.9-0.5,39.8-4.1,59.8-1.6c8.8,1.1,17.5,2.8,24.2,9.5
		c5.4,5.4,4,9.3-2.6,12.7c-14,7.3-27.9,3.9-41.8,0.8c-3.2-0.7-5.6-0.5-8.4,1.1c-7,4.2-13.4,9.3-20.8,12.9c-3,1.5-2.7,4.1,0.9,5.7
		c2.9,1.3,3.8,3.2,4,6.1c0.5,5.1-0.5,6.3-5.6,5c-2.1-0.5-2.3,0.5-2.5,1.9c-0.3,2.2,0.4,4.3,1,6.4c8.8,27.6,17.6,55.2,26.3,82.9
		c1.2,3.9,3,5.6,7.2,4.3c2.3-0.8,4.9-0.9,7.4-1.1c2-0.2,3.6,0.3,4.2,2.6c0.5,2-0.4,3.2-2.1,4c-0.4,0.2-0.9,0.4-1.3,0.7
		c-2.7,1.8-7.7,1.9-7.9,5.2c-0.2,4.7,1.6,9.5,4.2,13.6c2,3.1,5.2,3.1,8.5,2.1c16.2-4.6,32.4-9.1,48.6-13.6
		c68.5-19.2,137.1-38.2,205.1-58.8c30.3-9.2,60.7-17.9,91.1-26.7c4.8-1.4,6.4-3.7,5.9-8.6c-0.4-4.1,0.3-8.3,0.3-12.4
		c0-3-0.6-5.3-4.3-6.2c-4-0.9-4.7-3.5-2.5-7.2c2.8-5,2.2-6.5-3.3-8.7c-3.9-1.6-4.4-4.3-2.3-7.9c2.5-4.4,6.6-5.8,10.9-7
		c5.2-1.4,9.9-5.5,16.1-2.7c1.7,0.8,3.9-1.1,4.4-3.7c1.3-6.4,3.2-7.3,8.3-4c1.9,1.2,3.1,0.1,4.5-0.6c0.7-0.4,1.6-0.9,1.3-1.8
		c-0.6-1.5-2.1-2.1-3.5-2.5c-0.6-0.2-1.3-0.2-2,0c-5.8,1.4-10.3-1.1-14.5-4.7c-8.9-7.6-8.8-8.5,1.3-14.7c5-3.1,9.7-2.9,15.2-0.8
		c6.7,2.5,13.8,5,21.8,3c-1.4-3.2-4.3-3.9-6.7-5c-6.6-3.1-7.3-8.6-1.5-13.1c2.9-2.3,5.6-4.7,9.1-6.2c7.9-3.4,16.7,0.4,19.4,8.5
		c1.1,3.3,2.5,6,6.1,7.3c1.5,0.5,2.9,1.8,3.9,3.1c3.3,4.1,6.4,8.2,12.6,7.4c0.8-0.1,2,0.8,2.5,1.5c3.3,5.3,9.2,9.2,10.4,15.4
		c0.9,4.7,5.6,10-0.2,14.9c-1.4,1.2-0.5,3,0.4,4.6c4.6,8,7.1,16.9,10.7,25.3c3.9,8.9,3.3,18.7,1.8,28.1c-3,18.6-9.8,36.3-13.9,54.7
		c-1.5,6.7-3.4,13.2-3.6,20.1c-0.1,3.4,0.8,4.4,4.4,3.4c7.9-2.2,15.8-4,24.1-3.5c3,0.2,4.2,0.8,4.4,4.3c0.4,8.7-0.4,17.2-2.4,25.7
		c-0.9,4.1-0.3,8.6-0.4,12.9c-0.1,2.2-0.2,4.6-3.1,4.9c-2.8,0.2-3-2.2-3.3-4.1c-0.8-4.6-1.5-9.2-2.3-14.3c-3.5,4.4-6.6,8.6-11,11.6
		c-1.4,1-1.3,2.2,0.6,3.4c2.6,1.7,3.6,4.2,1.3,7.1c-1.8,2.3-0.1,4.5,0.8,6.5c1.1,2.2,3.3,1,4.9,0.5c29.9-8.9,60.4-11.6,91.4-10
		c5.9,0.3,11.9-0.6,17.9,0.7c1.3,0.3,2.9,0.3,3,2.1c0.1,1.8-1.3,2.7-2.8,2.9c-4.3,0.6-8.6,0.8-12.9,1.4c-2.7,0.4-6.8,0.5-6.6,3.8
		c0.1,2.4,4.2,1.5,6.5,1.9c15.4,2.2,30.9,4.3,45.7,9.2c3.9,1.3,8,2.2,11.9,3.8c15.7,6.1,30.9,13,45.5,21.8c16,9.6,30.4,21.1,44,33.6
		c7.7,7.2,14.6,15.5,21.3,23.9c5.9,7.5,11.8,15,16.7,23.1c5.9,9.6,11.9,19.2,16.1,29.9c2.6,6.5,5.2,13.1,7.7,19.6
		c4.1,10.7,7.5,21.7,9.6,33c2.7,14.6,4.8,29.3,4.3,44.3c-0.2,5,0.2,10.1-0.2,15.2c-0.8,11.9-2.2,23.6-3.9,35.3
		c-1.5,10.2-4.9,19.8-7.5,29.6c-1.7,6.3-4,12.6-6.9,18.6c-2.1,4.4-3.7,9-5.8,13.5c-4.9,10.3-10.2,20.3-16.6,29.7
		c-2.8,4.1-5.4,8.3-8.5,12.3C1156.6,726.7,1050.9,757.4,957.3,737.8z M1209.7,610.1c-10.9,16.3-22.6,32.1-36.8,45.7
		c-0.5,0.5-0.6,1.2,0.4,1.8c3.7-2.1,6.3-5.5,9.2-8.7c10.7-11.6,20.6-23.9,28.3-37.9c3.9-4.8,6.4-10.5,9.1-16
		c20.6-42.1,28.1-86.4,21.8-133c-4.6-33.7-16.7-64.6-35.5-92.9c-0.8-1.2-1.2-3.2-3.4-2.9c-0.8,1.5,0.3,2.2,0.9,3.1
		c8.2,12.2,15.5,24.9,21,38.5c21.4,52.4,23,105.5,4.7,159.1C1224.3,582,1217.1,596.1,1209.7,610.1z M395.6,667
		c-1.1,0.7-2.3,1.4-3.3,2.2c-14.5,11.9-30.1,22-47.2,29.8c-53.6,24.2-108.6,27.8-164.6,10c-42.3-13.5-77.6-37.7-105.6-72.4
		c-0.8-1-1.3-2.8-3.3-2.4c-0.4,2,1.1,3.1,2.1,4.3c9.2,11.5,19.5,21.8,30.9,31.1c41.8,34.2,89.8,51.6,143.7,52.2
		c32.7,0.4,64.3-6.1,94.3-19.3c19.7-8.7,38-19.9,54.1-34.4c15.8-12.5,28.2-28,40.1-44.8c-2.3-0.1-2.7,1-3.3,1.7
		C422.5,640.4,409.6,654.2,395.6,667z M524.7,463.1c0,0.8,0,1.7,0.2,2.5c0.3,1.5-0.8,3.9,1.1,4.4c2.1,0.6,3.6-1.1,4.4-3.2
		c0.4-0.9,0.9-2.3,2-1.4c3.7,2.8,7-0.5,10.4-0.5c1.7,0,3.5-0.6,3.2-2.9c-0.3-2-0.9-4.5-3.3-4.4c-3.9,0.2-7.9,0.1-11.8,0.5
		C527.3,458.5,528.2,463.4,524.7,463.1c-0.9-3.2-1.6-6.4-2.6-9.6c-10.9-33.9-21.9-67.8-32.7-101.7c-10.7-33.5-21.3-66.9-32-100.4
		c-0.6-2-0.6-4.8-3.1-5.2c-2.5-0.4-3.6,2.2-4.8,3.8c-8.6,11.7-18.2,22.5-27.9,33.3c-8.6,9.6-8.6,9.4,0.5,17.9
		c43.8,41,71.2,90.9,81.3,150c1.8,10.6,6.3,21.6,0.2,32.5c4.9-5.8,12-9.1,16.7-15c-2.4,0-3.9,1.6-5.6,2.7c-1.1,0.8-2.1,2.6-3.8,1.3
		c-1.7-1.2-2.4-3-2.5-5.2c-0.1-2.2,1.3-2.8,3-3.4C515.7,462.6,520.2,462.8,524.7,463.1z M542.2,442.3c2,5.9,3.6,11.7,5.9,17.2
		c2,4.8,5.5,4.5,9.4,4.3c10.3-0.5,20.3,1.2,29.7,5.5c2.9,1.3,4.4,0.7,6.2-1.8c6.3-9,12.7-17.9,19.2-26.8
		c6.5-8.9,12.4-18.3,19.7-26.4c7.1-7.9,8.4-19.9,18.6-25.3c0.1-0.1,0.2-0.3,0.3-0.4c3.7-5.1,7.5-10.2,11.2-15.3
		c2.3-3.2,5.4-6.3,6.4-10c0.9-3.5,2.2-5.5,5.4-6.9c1.1-0.5,1.9-1.8,2.7-2.8c22.2-29.5,44.5-59.1,66.7-88.6
		c27.4-36.3,54.8-72.5,82-109c4-5.4,9.2-10.2,11.2-17c1.6-5.7-1.3-8.3-6.9-6.8c-15.9,4.2-31.9,8.4-47.8,12.7
		c-55.4,15.3-111,29.9-166.7,44.1c-44.6,11.3-89.2,22.1-133.9,33.1c-7,1.7-8.5,4.9-6.3,11.7c9.3,28.5,18.6,57,27.8,85.5
		c7.2,22.2,13.4,44.7,21.7,66.5c2.7,7.1,4.1,14.4,6.4,21.4c2.3,7.1,4.5,14.3,6.8,21.4c0.4,1.3,0.6,2.9,1.5,3.7
		C542.8,435.2,545.2,438,542.2,442.3z M271.1,432c0.5,0.1,1.1,0.3,1.6,0.4c5.1-6.8,10.9-13.1,13.1-21.9
		c5.9-23.8,12.1-47.4,18.1-71.2c3.1-12.3,6.1-24.6,9.1-36.9c0.7-2.7,1-5.3-2.5-6.6c-9.5-3.4-19.3-5-29.2-6.8
		c-2.2-0.4-4.1,2.2-6.2,0.5c-3.8-3-8.2-2.3-12.5-2.5c-3.5-0.2-4.9,1.6-4.7,4.9c0.1,2,0.2,4,0.6,5.9c0.9,4.5-4.6,3-5.4,5.8
		c-2.1-1.3-1.7-3.5-1.5-5.4c0.3-2.8,0.9-5.6,0.7-8.4c-0.1-1.6-0.3-2.9-2.1-3.5c-8.1-2.7-14.4,1.6-14.6,10.1
		c-0.4,23.1,0.2,46.3-0.8,69.5c-0.8,18.3,0.1,36.7-0.4,55c-0.2,6.4,2.2,11.2,5.7,16c1.3,1.8,2.5,2.5,5,1.9c4.6-1.1,9.2-1.2,13.7,0.8
		c6.1,2.7,9.3,0.7,9.6-6.1c1-23.6,2-47.2,2.9-70.9c0.8-20.8,1.5-41.6,2.2-62.4c0.1-2.5,0-5.1,3-7C274.8,339.6,273,385.8,271.1,432z
		 M986.3,543.6c0.5-4.8-0.8-7-4.3-7.4c-2.1-0.2-4.1-0.7-5.3-2.5c-2.8-4.1-6.3-3.9-10.5-2.6c-5.1,1.6-10.3,2.5-15.5,3.7
		c-2,0.5-3.6,1.5-5,3c-26.9,30.8-53.8,61.7-80.8,92.5c-2.2,2.6-2.5,4.8,0,7.4c6.5,6.8,13.7,12.7,20.5,19.1c3.4,3.2,5.7,2.5,8.7-0.5
		c13.5-13.7,27.2-27.4,40.9-40.9c14.8-14.6,29.6-29.2,44.4-43.8c1.7-1.7,3.2-3.4,3.5-5.8C984.1,557.9,985.3,550,986.3,543.6z
		 M1023.2,703.1c3.6-0.2,7.9-0.2,12.2-0.6c8.2-0.9,8.3-1,8.3-9.4c0-35-0.5-70,0.4-105c0.3-11.4-1.6-20.8-9.5-28.9
		c-0.7-0.7-1.3-1.5-1.8-2.4c-3.6-6-8.4-9.7-15.7-9.6c-2.5,0-4.3,0-5.8,2.5c-4.2,7-8.6,13.9-13,20.8c-0.9,1.5-1.6,3-1.3,4.7
		c1,5.3,0.6,10.6,1,15.9c1.6,24.7,3.3,49.5,4.9,74.2c0.7,10.5,1.6,20.9,2.3,31.4c0.3,4.6,2.3,7,7.3,6.5
		C1015.8,702.9,1019.1,703.1,1023.2,703.1z M1061.3,528.4c-3.9-0.2-9.4,3.4-9.1,6.3c1,9.6,3.1,19,6,28.1c0.2,0.7,1,1.3,1.7,1.8
		c13,11.5,25.9,22.9,38.9,34.3c10.2,9,20.3,18.2,30.6,27c8.2,7,15.7,14.7,24.5,21c2.6,1.9,4,1.3,5.9-0.6
		c5.4-5.4,10.8-10.8,15.8-16.7c7.4-8.8,7.6-7.2-0.4-15.3c-10.2-10.4-21.1-20.3-31.5-30.6c-16-15.8-31.8-31.7-47.7-47.5
		c-1.7-1.7-3.4-3.6-6.2-4C1080.1,531.1,1070.4,529.7,1061.3,528.4z M903.7,522.1c0-0.3,0-0.7,0-1c9.5,0,19.1-0.8,28.4,0.2
		c12.2,1.4,19.1-7.2,27.6-12.9c2.2-1.5,0.6-4.4-0.1-6.4c-0.5-1.5-1.9-0.7-2.9-0.2c-5.8,2.7-6.2,2.4-7.4-4.1
		c-0.6-3.3-0.7-6.3,1.2-9.1c2.4-3.6,0.6-5.5-2.2-7.8c-6.6-5.3-13.9-6-22-5.4c-26.7,2.1-53.4,3.8-80.1,5.7
		c-10.1,0.7-20.2,1.4-30.3,2.1c-4.7,0.3-7,2.4-6.9,7.6c0.2,9,0.9,17.9,1.6,26.9c0.3,3.8,1.8,4.4,5.3,4.4
		C845.2,522,874.4,522.1,903.7,522.1z M1203.5,468.3c-8.1-0.7-17.4,0.7-26.7,0.8c-25.3,0.4-50.6,0.8-75.9,1.2c-2.2,0-4.3,0-6.2,1.4
		c-8.2,6.5-16.6,12.8-24.8,19.3c-3,2.4-3.5,4.6,0.3,7c6.9,4.3,13.7,8.8,20.5,13.3c2.5,1.6,5.1,2,8,1.9c22.8-1.2,45.5-2.2,68.3-3.4
		c17.6-0.9,35.2-2,52.8-2.8c3.6-0.2,5.7-1.4,5.7-5.3c0.1-9.8,0.5-19.6-0.9-29.4c-0.4-2.9-1.7-4-4.5-4
		C1215.1,468.4,1209.9,468.3,1203.5,468.3z M1052.9,447.8c-0.2,7,4,10.9,10.1,9.9c5.4-1,10.7-2.3,16.2-3.2c4.5-0.8,7.9-3,10.9-6.3
		c10.9-12.3,22-24.5,33.1-36.7c15.4-17,30.9-34,46.5-50.8c4.3-4.7,4.7-4.9,0-9.3c-6.4-6.1-13-11.9-19.4-18c-3.1-3-5.5-3-8.7,0.4
		c-12,13.1-24.3,25.9-36.6,38.7c-15.4,16.1-30.8,32.2-46.2,48.3c-1.4,1.4-2.6,2.9-2.9,5.1C1054.9,433.4,1053.8,441,1052.9,447.8z
		 M992.6,324.4c0.7,30.5,1.4,60.9,2,91.4c0,2.1,0.5,3.9,1.8,5.6c2.6,3.3,5.2,6.5,7.5,10c3,4.7,6.7,7.9,12.4,8.7
		c2.6,0.4,4.3,0.3,5.8-2.2c3.2-5.2,6.8-10.3,10.2-15.4c2.4-3.6,4.3-7.2,4-12c-0.9-15.3-1.2-30.6-2.3-45.9
		c-1.6-22.4-2.8-44.8-3.6-67.3c-0.4-11-0.8-11.4-11.6-11.3c-4.7,0-5.9,2.1-5.2,6.2c0.6,3.1,1.5,6.2,1.9,9.3c0.3,2.2,0.8,5.3-2.1,5.9
		c-3,0.6-4.1-2.3-4.8-4.7c-0.3-1.1-0.2-2.3-0.2-3.5c-0.1-3-0.1-6-0.1-9c0-2.7-1.1-4.1-4-3.5c-1.3,0.2-2.6,0.4-4,0.4
		c-7.5,0.5-9.3,2.2-8.5,9.4C993.1,305.8,992.5,315.1,992.6,324.4z M166.8,510.9c5.5,0,11,0,16.5,0c1.5,0,3.6,0.5,4.3-0.7
		c3.1-5.4,8.7-9.5,9.4-16.1c0.3-3.2,1.2-6.2,2.4-9.1c1.9-4.5,0.4-7.2-4.5-7.7c-4-0.4-8-0.7-12-0.9c-39.1-1.2-78.2-2.9-117.2-5.1
		c-5.7-0.3-11.3-0.4-17-0.5c-4,0-6.8,0.7-7.2,5.9c-0.7,8.3-0.6,16.6-0.6,25c0,6.6,0.3,7,7.1,7.3c10.2,0.4,20.3,0.5,30.5,0.6
		C107.8,510.1,137.3,509.8,166.8,510.9z M289.2,455.7c0.5-0.8,0.8-1.2,1-1.7c0.5-1.9,1-3.9,1.5-5.8c1.1-4.3,2.6-4.9,6.3-2.3
		c3.2,2.2,5.9,4.9,6.6,9c0.6,3.3,2.6,4.3,5.8,4c2.2-0.2,3.5-1.7,5-3c13-11.7,25.9-23.5,38.8-35.2c18.3-16.5,36.7-32.9,54.9-49.5
		c4.7-4.2,4.6-5.7,0.5-10.4c-5.5-6.2-11.3-12.2-17.4-17.9c-3.4-3.2-5.7-3-8.7,0.1c-6.5,6.7-13.2,13.2-19.8,19.8
		c-26.1,26.4-54,50.9-77.2,80.1c-2.8,3.5-3.6,6.2,0,9.4C287.3,453.1,288,454.3,289.2,455.7z M346.5,538.3c-0.1,0.3-0.2,0.6-0.3,1
		c7.2,5.1,14.4,10.2,21.6,15.2c19.2,13.2,38.4,26.4,57.7,39.6c0.9,0.6,2.4,1.4,1.6,2.7c-0.9,1.5-2,0.1-2.9-0.5
		c-19.5-13.4-38.9-26.9-58.5-40.2c-15-10.2-28.6-23.2-48-25.1c-1.9-0.2-4.3-2.1-5.5-0.1c-1.1,2,0.1,4.5,1.5,6.5
		c0.5,0.7,1.1,1.2,1.7,1.8c10.3,10.2,20.5,20.4,31,30.4c12.3,11.8,24.5,23.7,36.3,36.1c1.1,1.2,2.3,2.3,3.8,1.9
		c3.5-1,7.4-0.3,10.7-1.4c7.1-2.3,14.7-3,21.9-3.6c9-0.8,13.5-5.2,17.1-12.2c3.5-6.8,6.6-13.8,9.2-21c1.9-5.2,1.1-6.7-4.4-8.1
		c-18.1-4.5-36.2-9.1-54.3-13.5C373.4,544.5,360,541.5,346.5,538.3z M181.9,541.4c-2.7-0.8-4.7,0.9-6.8,2.8
		c-24.4,21.9-48.8,43.7-73.2,65.5c-4,3.5-7.9,7.1-11.8,10.8c-2.9,2.8-3.5,5.8-0.3,9.1c5.3,5.3,9.9,11.3,15.6,16.2
		c7.2,6.2,6.1,7.5,14.2-0.4c20-19.5,39.8-39.2,59.7-58.9c8.2-8.1,16.3-16.2,24.4-24.3c2.2-2.2,4-3.8-0.4-6.1
		c-4.1-2.1-7.8-5.3-10.3-9.3C190.5,542.5,186.8,541.3,181.9,541.4z M929.8,92.8c0.9-10.2-3.5-17.5-11.7-22.9c-1.5-1-3.3-2.3-5-1
		c-3.5,2.7-6.6,1.3-9.5-0.8c-2.8-2-4.5-1.8-5.4,1.7c-0.4,1.6-0.8,3.7-2.8,3.6c-5.3-0.2-11.5,1.2-15.4-3.2
		c-8.1-8.9-16.2-7.1-24.9-1.5c-0.1,0.1-0.3,0.1-0.4,0.2c-6.8,3.3-7.4,6.2-2.1,11.7c4.1,4.3,7.2,9,9.1,14.7
		c5.3,15.5,11,30.7,16.3,46.2c1.2,3.6,2.8,4.3,6.1,2.5c6.2-3.3,12.7-5.9,18.7-9.6C918.2,124.8,928.4,111.5,929.8,92.8z M944.9,401.3
		c0.9-3.1-0.5-4.2-1.8-5.3c-5.4-4.6-11.1-9-16.2-13.9c-14.2-13.7-29.4-26.4-44.1-39.6c-2.7-2.4-4.8-2.1-7.3,0.4
		c-6.2,6.1-12.1,12.3-17.8,18.9c-4.6,5.4-4.7,6.4,0.1,11.6c0.7,0.7,1.5,1.3,2.2,2c10.1,9.6,20.2,19.3,30.3,28.9
		c7.9,7.6,15.9,15.2,23.7,22.8c2.6,2.5,5.2,3,8.6,1.7c5.6-2.1,11.3-3.9,17-5.7c2-0.7,3.6-1.5,3.7-4
		C943.9,412.7,944.5,406.5,944.9,401.3z M246.2,704.2c0-0.1,0-0.1,0-0.2c3.5,0,7,0.1,10.5,0c6.6-0.1,7.7-0.8,7.6-7.5
		c-0.1-19.6-0.4-39.3-0.6-58.9c0-3-1.3-3.4-4-3.5c-6.3-0.3-12.6-1-18.9-1.5c-3.1-0.2-4.7-2.2-5.7-4.8c-1.1-2.7,1.1-3.8,2.5-5.4
		c1.5-1.6,4.1-2.7,3.3-5.6c-1.2-4.6,1.6-8.8,3.4-12c3.2-5.7,7.2-11.3,11.3-16.6c5.5-7.3,9.2-14.9,7.7-24.3c-0.3-1.9-0.5-4.2-2.8-4.1
		c-5.3,0.3-11,0.7-15.3,3.7c-2.7,1.8-5,3.1-8,2.7c-2.7-0.3-3.4,0.9-3.6,3.4c-0.9,14.9-1.8,29.9-2.8,44.8
		c-0.9,13.8-1.9,27.5-2.8,41.3c-0.8,13.6-1.3,27.3-2.3,40.9c-0.4,5,1.7,7,6.4,7.1C236.9,703.7,241.5,704,246.2,704.2z M231.2,567.7
		c0.4-1.5-0.7-2.5-2.3-2.9c-1.7-0.5-3.7-1.7-5,0.4c-4.3,7.1-10.3,12.9-12.3,21.5c-4.5,19.8-9.7,39.5-14.3,59.3
		c-3.4,14.6-8,28.9-10.6,43.7c-0.7,3.7,0.7,5.1,4,5.9c8.7,2.2,17.5,4.3,26.3,6c4,0.8,5.6-0.7,5.9-4.4c0.5-6.6,1.2-13.3,1.6-19.9
		c1.1-17.6,2.2-35.2,3.2-52.8C228.9,605.6,230,586.8,231.2,567.7z M224.2,444.3c0.1-1.4-0.6-2.1-1.3-2.8
		c-5.8-6.1-11.7-12.2-17.4-18.5c-14.3-15.8-29.1-31.3-43.6-46.9c-7.3-7.8-14.4-15.7-21.6-23.5c-5.5-6-11.2-11.9-16.8-17.8
		c-2.5-2.7-4.8-2.7-7.7-0.2c-6.7,6-13.1,12.3-19.6,18.6c-3.2,3.1-2.5,4.7,0.8,7.2c34.6,26.3,69.9,51.7,106.7,74.8
		c5.5,3.5,11.1,6.7,16.8,9.9C222,446,223.6,446.7,224.2,444.3z M314.1,465.2c12-1.7,23.6-3.9,34.2-10.8c16.9-11,34.5-20.9,51.7-31.2
		c10.7-6.4,21.4-12.9,32-19.4c2.6-1.6,3.9-3.3,2.1-6.5c-4.7-8.1-9.5-16-14.7-23.8c-2.3-3.4-4.3-4.3-7.8-1.1
		c-26.9,24.3-54,48.5-81,72.8c-5.9,5.3-11.8,10.8-17.7,16.2c-0.8,0.8-1.9,1.6-1.4,3C311.9,465.6,313.1,465.3,314.1,465.2z
		 M190.9,474.4c-7.3-4.4-13.3-10.9-21.7-13.1c-23.7-6.2-47.4-12.3-71-18.5c-14-3.7-28-7.3-42.1-11c-3-0.8-5.6-0.8-6.7,3
		c-2.7,9.8-4.8,19.7-6.5,29.8c-0.4,2.6,0.5,3.5,3.2,3.7c19.1,0.9,38.2,1.9,57.3,2.8c18.8,0.9,37.6,2,56.3,2.7
		C170.1,474.1,180.5,473.9,190.9,474.4z M214.5,564.4c0.6-1.7,0.1-2.9-1.6-3.7c-2.1-1-3.8-0.8-5.4,0.9c-6,6-12,12-18,18
		c-14.5,14.4-29.1,28.8-43.6,43.2c-9,8.9-18,17.8-26.9,26.8c-4,4-3.9,5.2,0.6,8.7c5,3.9,10.1,7.6,15.4,11c10.8,7,10.8,6.8,18-3.8
		c17.6-26.1,34.9-52.3,53-78.1C211.1,580.2,212.5,572.3,214.5,564.4z M1056.7,417.9c2.7-0.4,3.6-2,4.7-3.1
		c15.7-16.3,31.3-32.7,46.9-49.1c10.3-10.8,20.6-21.8,30.8-32.7c4.2-4.5,4.2-5.7-1.1-9.2c-5.8-3.9-11.7-7.8-17.8-11.1
		c-10-5.5-7.7-6-14.2,3.2c-12.9,18.4-25.1,37.3-37.5,56.1c-2.7,4-6.4,7.9-7.3,12.4C1059.1,395.3,1058.2,406.4,1056.7,417.9z
		 M1039.2,412.5c5.1-8,9.6-14.9,14.1-21.9c2.7-4.3,6-7.9,6.5-13.6c1.4-15.2,3.6-30.3,5.5-45.5c1.4-11.4,2.7-22.8,4.1-34.1
		c0.5-3.7-0.9-5.5-4.6-6.2c-8.3-1.6-16.6-3.5-25.1-4.1c-6.4-0.5-7.1,0-6.9,6.3c0.6,14.3,1.4,28.6,2,42.8c0.7,17.1,1,34.2,2.3,51.3
		C1037.7,395.4,1037,403.4,1039.2,412.5z M232.7,423.1c0-22.8,0-45.6,0-68.4c0-19.8,1.3-39.6,0.8-59.4c-0.2-8-0.4-8.4-8.1-7.2
		c-8.1,1.3-16.1,2.9-24.1,4.1c-4.2,0.6-5.1,2.4-4.3,6.5c6.8,32.1,13.7,64.1,19.8,96.3C218.9,406.3,224.6,415,232.7,423.1z
		 M1094.3,450.9c5.5-1.2,11-2.8,16.6-3.5c10.2-1.3,19.1-4.9,26.7-12c4.6-4.3,9.9-7.9,14.8-11.9c13.8-11.3,28.3-21.5,41.8-33.2
		c2.8-2.5,2.2-3.9,0.8-6.1c-4.5-7.2-9.6-14-14.8-20.7c-4.6-5.9-4.7-5.9-9.9-0.3c-17.9,19.5-35.7,39.1-53.6,58.6
		c-7.7,8.5-15.4,17-23.1,25.5c-0.8,0.8-2,1.5-1.5,2.9C1092.4,451.1,1093.5,450.9,1094.3,450.9z M1100.2,515.8
		c-0.1,0.4-0.1,0.8-0.2,1.2c6.5,4.2,13.3,8.1,19.5,12.8c5.5,4.1,11.4,5.8,18,6.4c9.4,0.9,18.8,2.3,28.2,3.5c16,2.1,32,4.2,48,6.3
		c3,0.4,5.7,0.4,6.5-3.4c2-9.6,4-19.2,4.7-29c0.2-2.8-0.7-4.1-3.5-4.1c-4.2,0-8.3-0.1-12.5,0.1c-30.6,1.6-61.1,3.3-91.7,5
		C1111.6,514.7,1105.9,515.3,1100.2,515.8z M174.2,541.8c-7.9-1.6-14.9-1.3-21.9-1.8c-3-0.2-5.4,0.4-8,2
		c-13.5,8.1-27.1,16-40.7,24.1c-11.3,6.7-22.6,13.4-33.8,20.2c-5.8,3.6-6,4.6-2.5,10.3c4.1,6.7,8.4,13.2,12.7,19.7
		c3.7,5.5,4.6,5.7,9.6,1.3c14.4-12.6,28.7-25.4,42.9-38.2C146.2,567.1,159.8,554.7,174.2,541.8z M1099.9,467.9
		c11.8,0.4,22.4-0.5,33-0.7c26.4-0.6,52.9-0.8,79.3-1.3c2.3,0,4.6-0.4,7-0.5c3.9-0.1,4.8-2.1,3.9-5.6c-1.9-8.1-3.5-16.3-5.5-24.3
		c-1.8-7.4-2-7.7-9.5-6.1c-26.4,5.5-52.7,11.1-79,16.8c-1.3,0.3-2.6,0.8-3.6,1.6C1117.3,454.2,1109.1,460.7,1099.9,467.9z
		 M1062.1,569.9c-2.6,0.8-2.3,2.8-1.9,4.5c1.2,5.2,2.8,10.3,3.6,15.6c0.7,5,2.8,9,6,12.8c6.8,8.1,13.2,16.7,19.4,25.2
		c10.1,13.8,20.8,27.2,30.5,41.3c2.3,3.4,4.8,3.8,8.4,1.6c7-4.3,13.6-9,20-14.1c6-4.8,5.9-6.3,0.1-11.3
		c-7.1-6.2-14.2-12.5-21.3-18.8c-20.8-18.4-41.6-36.8-62.4-55.2C1063.7,570.9,1062.9,570.4,1062.1,569.9z M185.9,462.8
		c1.2,0,2.3,0.3,2.9-0.8c0.7-1.1-0.2-1.9-0.8-2.6c-1.2-1.4-2.4-2.8-3.7-4.1c-8.8-9-18.2-17.7-26.5-27.2
		c-20.4-23.3-44.6-42.4-68.1-62.3c-1.4-1.2-2.8-2-4.2-0.2c-5.8,7.3-11.3,14.8-15.6,23.2c-0.7,1.4-0.4,2.2,1.1,3.2
		c7.7,4.9,15.4,9.9,23,14.9c25.2,16.6,50.4,33.1,75.3,50C174.6,460.5,180.5,461.1,185.9,462.8z M1002.5,694.1
		c-1.4-23.4-2.6-46-4-68.5c-0.9-14.8-1.9-29.5-2.9-44.3c-0.1-1.1,0.1-2.6-1.3-2.9c-1.2-0.3-1.5,1.1-2,1.9
		c-9.3,11.8-14.9,25-15.4,40.2c0,1.5-0.4,3-0.6,4.4c-3.3,22.2-6.5,44.4-9.9,66.6c-0.6,4,0.3,6.2,4.7,6.9c7.4,1.3,14.7,2.9,22.2,3.5
		C1002.6,702.8,1002.6,702.8,1002.5,694.1z M981.9,573.3c-2.7,0.8-3.7,2.1-4.9,3.3c-20.7,20.7-41.5,41.4-62.2,62.2
		c-6.3,6.4-12.6,12.9-18.9,19.2c-3,3-3.2,5.4,0.9,7.7c5.8,3.3,11.3,7.1,17,10.5c10.6,6.2,10.6,6.1,17.2-4.2
		c14.4-22.6,28.5-45.4,43.4-67.7C980.8,594.7,979.3,584,981.9,573.3z M938.2,524.3c-0.1-0.4-0.3-0.8-0.4-1.1c-2,0-4,0-5.9,0
		c-13.3,0.3-26.6,0.8-39.9,0.9c-23,0.2-45.9,0.2-68.9,0.2c-2.5,0-4.9,0.2-7.4,0.6c-2.9,0.6-3.9,1.7-3.4,4.7
		c1.5,9.4,3.8,18.6,6.5,27.7c0.9,3.1,2.1,4.1,5.7,3.2c26.4-6.1,52.9-11.7,79.4-17.8c5-1.1,10.4-1,14.8-4.1
		C925.2,534.1,931.7,529.1,938.2,524.3z M1097.2,533.4c6.5,6.5,13,12.8,19.1,19.1c9.5,9.9,19.5,19.4,29.1,29.2
		c11.3,11.6,23,22.7,34.4,34c3.5,3.4,4.8,2.8,7-0.4c4.8-7.2,9.9-14.2,13.8-22c3.2-6.5,3.3-6.5-2.9-10.6
		c-21.1-13.7-42.3-27.2-63.3-41c-4.3-2.8-8.5-4.9-13.6-5.4C1112.8,535.6,1105,534.4,1097.2,533.4z M942.6,537
		c-5.5,1.2-10.9,2.6-16.5,3.5c-5.8,0.9-10.6,3.4-15.2,6.9c-13.3,10-26.8,19.7-40.2,29.6c-9.6,7.1-19.2,14.4-28.8,21.5
		c-3,2.2-3.5,4.4-1.2,7.5c5,6.8,9.7,13.9,14.8,20.8c4.2,5.6,4.9,5.6,9.7,0.3c9.3-10.4,18.2-21.3,27.5-31.7
		C909.7,576.5,925.7,556.7,942.6,537z M1047.5,577.3c-1.2,2.3-0.7,4.1-0.7,5.9c-0.1,27-0.1,53.9-0.1,80.9c0,10.5,0.1,21,0,31.5
		c-0.1,4.3,1.4,5.4,5.7,4.6c7.9-1.5,15.6-3.4,23.3-5.6c7.2-2,7.8-2.9,6.3-10.2c-5.9-27.1-11.9-54.3-17.8-81.4
		c-0.6-2.9-1.2-5.8-3.1-8.3C1056.6,589.2,1052.3,583.5,1047.5,577.3z M991.6,414.8c0.6-23.7-0.6-47-1-70.3
		c-0.3-16.1-0.6-32.3-1-48.4c0-1.6-0.4-3.3-0.7-4.9c-0.4-2.3-1.8-3-4-2.6c-9,1.7-18,3.4-26.7,6.3c-1.5,0.5-2.9,1.1-2.7,3
		c1.2,9.4-0.2,19.2,2.9,28.2c8.9,26.7,18.4,53.2,27.6,79.7C987.1,409.2,988.9,412.2,991.6,414.8z M367.8,609.9
		c3.2,1.7,5.1-1.3,7.6-1c1.5,0.2,3.7,0.9,4.5-1.1c0.8-1.9-1.2-2.9-2.3-4c-20-19.7-40-39.4-60-59.1c-1-1-1.8-2.9-3.5-2.1
		c-1.3,0.6-0.9,2.3-1.2,3.6c-1.3,7.2-4.2,10.1-11.2,11c-1.6,0.2-3.2,0.8-4.8,1.2c-3.8,1-4.9,2.6-1.8,6c14.1,15.7,28.1,31.6,42,47.5
		c2.3,2.6,4.6,3.1,7.9,2.1C352.6,611.8,360.7,612.7,367.8,609.9z M892,439.7c5.7-1.5,12.5-3.4,19-6.7c3.6-1.9,3.1-2.8,0.7-5.1
		c-10-9.5-19.8-19.2-29.8-28.7c-8.8-8.4-17.7-16.6-26.5-25c-3.2-3.1-5.7-2.6-8.1,1c-4.6,6.9-8.8,14.1-13.1,21.2
		c-2.7,4.5-2.3,6.8,2.1,9.6c16.7,10.6,33.2,21.5,49.8,32.3C887.6,439.2,889,440.1,892,439.7z M163.1,457c0.1-0.3,0.3-0.7,0.4-1
		c-1.3-0.9-2.5-1.9-3.9-2.8c-15.8-10.5-31.7-20.9-47.5-31.4c-12.7-8.3-25.3-16.6-38-24.9c-6-3.9-7.5-3.6-10.6,3
		c-3.4,7.4-6.6,14.9-9.8,22.4c-2.3,5.6-2,5.8,3.8,7.3c27.7,7.1,55.4,14.4,83.1,21.5C148.1,453.1,155.6,455.1,163.1,457z
		 M290.5,406.3c0.8-1,1.3-1.5,1.7-2c14-20.9,28.1-41.8,42.1-62.6c4.8-7.2,9.7-14.4,14.3-21.7c3.7-5.9,3.4-6.6-2.7-9.8
		c-7.1-3.7-14.5-6.8-21.9-9.7c-6.6-2.6-6.8-2.5-8.6,4.5c-8.1,31.4-16.2,62.9-24.3,94.4C290.5,401.3,289.3,403.4,290.5,406.3z
		 M214.6,399.9c0.9-1,0.4-1.8,0.3-2.6c-4.3-20.5-8.5-41.1-12.8-61.6c-2.3-11.1-4.5-22.2-6.9-33.2c-1.6-7.4-2.7-8.1-9.8-5.9
		c-7,2.1-13.8,4.9-20.5,7.9c-7,3.2-7.3,4-3.4,10.6c10.1,17.4,20.5,34.7,30.4,52.2C198.6,378.8,206.2,389.5,214.6,399.9z M266,680.3
		c0.3,0,0.6,0,0.9,0c0,6.3,0,12.7,0,19c0,2.3,0.3,4.3,3.6,4c9.9-1,19.8-2.6,29.5-5.2c2.9-0.8,3.8-2.3,3.2-5.1
		c-0.8-4.2-1.7-8.5-2.5-12.7c-3-15.9-6-31.7-8.9-47.6c-0.5-2.6-1-4.1-4.4-3.7c-5.7,0.7-11.2,2.6-16.7,2.9c-5.9,0.3-4.7,3.4-4.7,6.5
		C266,652.4,266,666.4,266,680.3z M89.6,540.4c-8.6-0.7-15.9-1.6-23.4,0.4c-5,1.3-8.6-1.2-10.9-5.8c-2.4-4.8-2.5-11.2,0.2-13.7
		c3.8-3.5,8.6-3.1,12.6-0.9c5.2,2.9,10.6,3.6,16.3,3.8c6.1,0.2,12.3,0.7,18.4,1.4c9.9,1.2,19.9,1.1,29.8,3.7
		c11.8,3.1,23.9-1.1,35.2-4.6c6.3-2,11.8-6.7,17.7-10.2c-1.5-1.1-2.6-1.2-3.8-1.3c-20.8-0.3-41.6-0.6-62.4-1
		c-16-0.3-32,0.2-47.9-0.8c-8-0.5-16-0.1-24-0.1c-4.4,0-6.3,2.1-5.4,6.7c1.7,8.5,3.3,17,4.7,25.5c0.6,3.8,2,5.2,5.9,4.3
		C64.5,545.5,76.4,543.1,89.6,540.4z M340.2,483c5.5,3.3,11.2,5.4,16.9,7.6c9.6,3.8,18.8,8.8,29.2,10.1c19.6,2.5,39.3,4.7,59,7
		c14.4,1.7,14.4,1.7,14.2-12.9c-0.2-11.9-0.8-12.6-12.6-12.6c-33.8,0-67.6,0-101.4,0.1C343.7,482.3,342.1,481.9,340.2,483z
		 M344.9,459c0.6,0.5,0.8,0.7,0.9,0.6c33.7-6.3,67.4-12.5,101-18.8c3.3-0.6,4.1-2.4,3-5.4c-2.7-7.3-5.2-14.8-8.1-22
		c-4-9.9-4.4-9.8-13.7-4.2c-20.1,12.1-40.3,24.1-60.4,36.1C360.1,449.9,352.6,454.4,344.9,459z M332.8,466.6c1,0.5,1.5,1,2.1,1
		c10.3,0.7,20.6,1.4,31,1.9c10,0.5,20.1,0.2,30.1,1.2c7.4,0.7,14.8,1,22.1,1.6c11.1,0.9,22.3,1.2,33.4,2.2c5,0.5,6.4-0.7,5.7-5.8
		c-0.7-5.3-1.6-10.5-2.9-15.7c-2.7-11.3-0.6-10.5-13.2-8.3c-34.1,5.9-68,12.5-102,18.8C336.9,463.8,334.9,464.8,332.8,466.6z
		 M208.4,589.7c-0.3-0.1-0.5-0.2-0.8-0.3c-0.9,1.1-1.8,2.2-2.7,3.4c-12.5,18.4-25,36.9-37.5,55.4c-5.7,8.4-11.2,16.9-16.8,25.4
		c-2.1,3.2-1.2,5,2.1,6.6c7.4,3.7,15,7.2,22.8,10.2c6.3,2.4,7.2,2,9.2-4.5c0.3-1,0.5-1.9,0.8-2.9c6.9-27.8,13.8-55.5,20.7-83.3
		C207,596.3,207.6,593,208.4,589.7z M310.3,625.5c2.6,4.4,5.1,8.5,7.6,12.6c7.7,12.7,15.3,25.4,23.1,38c3.5,5.7,4.3,5.8,9.8,2.4
		c7.1-4.3,14.2-8.7,21.2-13.2c4.7-3.1,4.9-4.4,1.2-8.7c-9.8-11.3-19.7-22.5-29.6-33.8c-2.2-2.6-5.3-3.4-8.1-2.6
		C327.4,622.9,318.6,621.8,310.3,625.5z M933.2,472.8c0.1-0.4,0.2-0.8,0.3-1.1c-6.3-4.2-12.7-8.4-19-12.7c-1.9-1.3-3.9-2.7-6.2-3.1
		c-17.6-2.8-35.2-5.5-52.3,2.8c-1.6,0.8-3.5,1.2-5.2,1.7c-12.1,3.6-24.3,7.2-36.4,10.6c-4.3,1.2-4.2,4.6-4,7.6
		c0.2,3.4,3.4,2.3,5.6,2.3c2.3-0.1,4.6-0.6,6.9-0.8c28.4-1.8,56.8-3.5,85.2-5.3C916.4,474.3,924.8,473.4,933.2,472.8z M143.3,539.6
		c-3.1-0.2-4.7-0.4-6.2-0.3c-8.4,0.5-16.6,1.5-25.1,1.4c-20.2-0.3-39.6,6.2-59.2,10.1c-3.3,0.7-3.6,2.7-2.7,5.6
		c2.7,8.7,6,17.3,9.8,25.6c2.7,5.8,3.6,6,8.7,2.2c0.9-0.7,1.9-1.3,2.9-1.9c11.6-6.9,23.2-13.7,34.8-20.6
		C118.2,554.6,130.2,547.5,143.3,539.6z M945.9,395.2c1.5-4.3,0.4-7.7-0.9-11.1c-3.8-10.1-7.7-20.2-11.3-30.4
		c-4.3-12.3-8.7-24.3-17.9-34.2c-2.9-3.1-5-3.9-8.4-1.4c-6.7,4.9-13.6,9.6-20.2,14.6c-5.8,4.3-5.7,5-0.2,10
		c11.2,10.2,22.4,20.4,33.7,30.4C928.8,380.4,937.1,387.5,945.9,395.2z M910.1,545.2c-0.1-0.4-0.2-0.8-0.3-1.2
		c-10.4,2.2-20.7,4.4-31.1,6.7c-17,3.8-34.1,7.6-51.1,11.6c-6,1.4-6.6,2.7-4.3,8.4c3,7.7,6.3,15.4,10.2,22.7c3,5.6,3.3,5.8,8.4,2.1
		c8.9-6.4,17.8-12.9,26.6-19.4C882.3,565.8,896.2,555.5,910.1,545.2z M976.9,604.2c-1.2,1.8-2,3.1-2.9,4.5
		c-10.6,16.5-21.3,33-31.8,49.6c-4.2,6.6-8.2,13.3-12.3,20c-2.2,3.6-1.6,5.8,2.6,7.5c7.3,3,14.6,5.7,22,8c7.3,2.3,8.6,1.5,9.8-6.2
		C968.6,660,972.7,632.4,976.9,604.2z M301.7,625.8c-5.5-0.1-8,2.9-7,8.3c1.4,7.9,2.8,15.7,4.3,23.6c2,11,4,21.9,6.2,32.9
		c0.7,3.6,1.9,6.2,6.9,4.3c7.8-2.9,15.7-5.5,23.3-8.8c6.7-3,6.7-3,3-9.2c-9.3-15.4-18.8-30.6-27.7-46.1
		C308.5,626.7,305.6,625.8,301.7,625.8z M1068.1,604.3c-0.3,0.2-0.6,0.4-1,0.6c2.3,10.7,4.5,21.4,6.9,32.1
		c3.7,16.7,7.6,33.4,11.3,50.1c0.8,3.5,2.4,3.7,5.3,2.5c7.9-3.1,15.7-6.4,23.1-10.5c6.8-3.7,7.2-4.5,2.6-10.7
		c-6.7-9.1-13.6-18.1-20.4-27.1C1086.7,629,1077.4,616.7,1068.1,604.3z M1062.3,375.1c2.3-0.3,2.7-1.5,3.3-2.4
		c8-12,16-24.1,23.9-36.2c5.6-8.5,11.5-16.7,16.4-25.6c1.9-3.4,1.1-5.3-2.4-6.9c-7.5-3.3-15.1-6.1-22.9-8.6
		c-6.8-2.2-7.7-1.8-8.8,5.4c-2.2,15.4-4.1,30.9-6.1,46.4C1064.6,356.4,1063.4,365.5,1062.3,375.1z M1135.6,538.3
		c-0.1,0.3-0.3,0.6-0.4,0.8c1,0.8,2,1.7,3,2.4c12.4,8.1,24.8,16.1,37.2,24.1c8.1,5.2,16.3,10.3,24.4,15.5c3.8,2.4,6.2,2.1,8.2-2.6
		c3.5-8,6.2-16.1,8.9-24.3c1-3,0.2-4.9-3-5.5c-1.6-0.3-3.2-0.9-4.9-1.1C1184.7,544.5,1160.1,541.4,1135.6,538.3z M1133,441.5
		c0.1,0.4,0.3,0.9,0.4,1.3c25.5-5.5,51-11.1,76.5-16.6c3.6-0.8,4-2.7,2.8-5.9c-3-8.1-6.8-15.9-10.8-23.6c-2.6-5.1-4.2-5.7-8.8-2.1
		C1173,410.2,1153,425.9,1133,441.5z M356.2,617.6c-3.5-1-5.8,1-8.5,1.1c-3.6,0.2-3.2,1.9-1.3,4c10.1,11.2,20.3,22.5,30.3,33.8
		c1.9,2.2,3.7,2.3,6,0.4c7.7-6.4,15.1-13.1,21.8-20.6c2-2.2,2.3-4.2-0.1-6.5c-5.2-4.9-10.3-10-15.4-15c-0.9-0.9-1.7-1.9-3.3-1.7
		c-5.9,0.6-11.7,0.8-17.5,2.2C364,616.5,359.6,616.4,356.2,617.6z M216.3,431.1c0.3-0.2,0.5-0.5,0.8-0.7c-0.5-0.8-1.1-1.7-1.6-2.5
		c-22.2-33.4-45.6-66-68.3-99c-2.5-3.6-4.2-9.6-8-10.2c-3.7-0.6-7.5,4.3-11.1,6.8c-4.9,3.4-5.1,4.3-1.1,8.9
		c5.5,6.3,11.1,12.4,16.8,18.5c18.1,19.5,36.1,39.1,54.2,58.6C204,418.1,210.1,424.6,216.3,431.1z M886.4,441.4
		c-6-3.9-11-7.3-16.1-10.6c-12.2-7.8-24.3-15.6-36.5-23.3c-2.8-1.8-4.5-1.5-6,2c-3.3,8-6.5,16-9,24.3c-1.9,6.1-1.3,7.1,5.1,8.2
		c9.2,1.5,18.6,2.1,27.6,4.2C863.5,449,874.4,445.8,886.4,441.4z M320.4,520.7c7,4.7,12.5,11.5,21,13.6c31.3,7.7,62.7,15.4,94,23
		c14,3.4,14,3.4,17.3-10.8c0.1-0.3,0.1-0.7,0.2-1c1-3-0.2-4.2-3.3-4.4c-12.8-0.9-25.5-1.8-38.3-3.1c-19-2-37.9-4.1-56.4-9.1
		c-6.9-1.9-13.7-4-20.4-6.7C330.1,520.5,325.3,520.5,320.4,520.7z M322.3,617.6c5,0.3,8.2-2,11.9-1.8c2.2,0.1,1.6-1.6,0.6-2.7
		c-2.7-3.1-5.5-6.2-8.3-9.3c-11.6-13.2-23.2-26.5-34.9-39.8c-0.7-0.8-2-2.5-2.7-1.7c-2.2,2.5-6.3,4.1-6,8c0.4,5.4,0.8,11.2,3.4,15.9
		c5.9,10.6,12.4,20.9,18.6,31.3c1.3,2.2,2.9,2.7,5.4,2.1C314.8,618.6,319.2,618.1,322.3,617.6z M892,183.9c3.3-2.8,5.9-5.1,8.5-7.4
		c27.9-24.9,39.8-56.2,37.8-93.2c-0.3-5-1.2-10-5.4-13.5c-1.1-0.9-2.2-3.2-4.1-1.5c-1.5,1.4,0.1,2.7,0.9,3.9
		c8.7,14.4,8.2,29.4,1.8,44c-8.3,19-23.5,31.1-42.6,38.4c-4.7,1.8-5.1,3.8-3.4,8.1C888.2,169.4,891.2,175.9,892,183.9z M942,90.5
		c0,1.3,0,2.7,0,4c0.2,21.6-5.9,41.4-17.2,59.6c-7.3,11.7-16.2,21.9-27.5,30.1c-3.9,2.9-3.7,4.9-0.3,8.4c3.1,3.2,6.4,1.8,9.8,1.2
		c2.3-0.4,5.5-1.1,5.6,2.1c0,5.1,2.9,9.1,3.9,13.8c1.2,5.8,3.7,11.3,3.1,17.6c1.6-2.2,2.3-4.6,4.6-5.8c2.5-1.4,2.6-3.6,2.1-6
		c-3.8-18.4-1.7-36.4,2.7-54.4c3.6-14.7,9.1-29,12-43.8C942.5,108.4,944.6,99.5,942,90.5z M106.5,371c-0.5,0.4-0.9,0.8-1.4,1.2
		c7.8,7.5,15.2,15.3,23.4,22.3c10.2,8.6,21,16.4,31.6,24.4c16.1,12.1,32.8,23.3,50,33.9c2,1.2,4.7,4.7,7.1,0.6
		c1.9-3.2,1.8-6-2.5-8.3c-8.3-4.5-16.3-9.7-24.3-14.8C161.7,411.6,134,391.5,106.5,371z M220.7,430.4c-0.2-4.7,0-9.5-2.3-13.4
		c-7.2-12.5-13.5-25.6-22.5-37.1c-15.7-20-31.5-40-47.4-59.9c-1.4-1.8-2.6-5.9-4.9-4.3c-3,2.1,0.8,4.6,2.1,6.5
		c11.5,16.7,23.2,33.3,34.7,50C193.9,391.6,207.3,411,220.7,430.4z M295.1,403.7c3.8-0.9,4.8-2.8,6-4.3
		c14.1-16.5,28.1-33.1,42.2-49.6c6.5-7.6,13.1-15.1,19.5-22.7c1.2-1.4,3.7-3.4,2.5-4.9c-2.3-3-5.9-5.1-9.6-6
		c-2.7-0.6-3.5,2.6-4.7,4.4c-14,20.7-27.9,41.4-41.9,62.1C304.7,389.3,300.3,395.9,295.1,403.7z M269.4,626c1.3,1,2.9,1.2,3.9,0.6
		c3.9-2.3,8.4-2,12.5-2.9c3.9-0.8,4-2.4,3.5-5.3c-1-5.7-1.8-11.5-3-17.2c-1.6-7.5-1.5-15.6-7-22c-1.6-1.9-2.5-2.6-3.6,0.2
		c-2.7,7-5.5,13.9-8.1,20.9c-0.8,2-1,4.7,1,5.4c5.1,1.9,4.2,6.8,4.6,10C273.3,618.9,272.5,623.3,269.4,626z M1159.7,669.4
		c-46.1,34.7-97.4,52.9-155.6,49c-58-4-107.4-27.1-148.5-68.2c10.7,13.4,23.8,24,37.9,33.2c34.6,22.6,72.8,35.5,114.1,37.2
		C1064.7,722.9,1115.7,705.9,1159.7,669.4z M152.9,417.5c-0.4,2.2,0.7,3,1.6,3.9c13.4,13.7,26.7,27.5,40.2,41.1
		c6.7,6.8,9.5,6.3,15.1-0.9c2.6-3.3,1.9-4.8-1.5-6.9c-12.3-7.4-24.3-15.1-35.9-23.6C166.2,426.6,159.7,422.2,152.9,417.5z
		 M455.2,479.9c-44.1-3.2-88.3-6.6-133.9-7.3c6.1,5.7,11.6,7.5,18.4,7.4C378.2,479.8,416.7,479.9,455.2,479.9z M65.2,626.1
		c-48.4-75.3-55.1-153.6-16.6-235.2c-21.1,38.4-29,79.5-25.6,122.7C26.3,555,40.7,592.5,65.2,626.1z M858.7,450.1
		c-0.1-0.2-0.1-0.5-0.2-0.7c-11.7-1.7-23.3-3.4-35-5c-6.9-1-7.9-0.2-9.4,6.7c-0.6,3.1-1.1,6.2-1.7,9.3c-0.5,2.7,0.5,3.3,2.9,2.6
		C829.7,458.7,844.2,454.4,858.7,450.1z M1040.1,436.8c3-2.9,5.6-5.3,7.9-7.8c2.1-2.3,5.5-3.9,6-7.2c1.7-11,2.9-22,4.3-33
		c-4.7,5.6-8.2,11.6-12.3,17.2c-4.8,6.4-8.7,12.9-7.1,21.4C1039.5,430.4,1039.7,433.3,1040.1,436.8z M390.2,613.1
		c5.5,5.2,10.5,9.8,15.3,14.6c2.7,2.6,4.7,2.1,7-0.7c4.6-5.7,9-11.5,12.9-17.7c0.6-0.9,1.8-1.9,0.7-3c-1-1-2.1,0-3.2,0.4
		c-4.5,1.7-9.3,2.1-14,2.6C402.8,609.9,396.8,610.2,390.2,613.1z M1118.9,448.2c-7.6,1.6-15.1,4-22.8,4.4
		c-10.6,0.7-14.6,9-21.5,15.6c4.8,0,8.6,0.2,12.3-0.1c3.3-0.2,7,1,9.8-1C1104.5,461.5,1112.2,455.9,1118.9,448.2z M934.3,457.9
		c1.4,0,3.4,0.4,4.3-1.3c1-1.9-1-3-2-4.1c-2.9-3-5.9-5.8-8.8-8.8c-1.8-1.9-3.2-2.1-4.6,0.4c-1.1,1.9-2.9,2.5-4.6,1.1
		c-5.4-4.5-10.7-1.7-16,0c-1.4,0.4-2.9,1.5-1.1,2.7c3.7,2.4,6.9,6,11.4,6.9C919.9,456,927,456.8,934.3,457.9z M1148.8,311.7
		c-28.1-21.2-59.7-34.5-94.5-39.3c-37.4-5.2-93,0-101.6,8.7C1023,260.7,1088.2,271.4,1148.8,311.7z M454.3,536.8
		c-1.9-2.4-4.3-2.2-6.5-2.4c-16.2-1.9-32.4-3.8-48.5-5.8c-8.4-1-16.8-2-25.3-3c-1.6-0.2-3.3-0.2-3.4,1.8c-0.2,1.8,1.6,1.8,2.8,2.2
		c0.6,0.2,1.3,0.2,2,0.3c20,3.6,40.2,5.1,60.4,6.8C441.8,537.2,447.9,536.8,454.3,536.8z M489.7,567.1c-3.3,7.2-3.7,15.1-8.1,21.5
		c-1.2,1.7-1.7,3.5-0.4,5c1.2,1.4,3.3,1.7,5.1,0.9c4.8-2,10-1.7,15-2.1c1.3-0.1,2.8,0.4,3.5-1.1c0.6-1.3-0.5-2.2-1.3-3
		C497.9,581.9,493.1,574.9,489.7,567.1z M1122.3,534.1c-7.9-5.1-14.9-8.9-21.1-13.8c-6.5-5.1-12.9-4.6-20.2-2.4
		c3.2,3.5,6.2,6.7,9.3,10c1.3,1.3,2.5,2.7,4.5,3C1103.4,531.8,1112.1,532.9,1122.3,534.1z M335.4,385.4c0.2,0.2,0.4,0.4,0.6,0.6
		c0.9-0.7,1.9-1.4,2.7-2.2c14.3-14.2,28.6-28.4,42.9-42.6c0.7-0.7,1.2-1.6,1.8-2.4c1.6-2.4-0.1-3.7-1.6-5c-1.9-1.7-2.9-0.1-4,1.2
		c-2.5,3.1-5,6.2-7.6,9.2C358.6,358,347,371.7,335.4,385.4z M402.6,332.3c40.4,39.2,63.6,86.7,70.6,142.4
		C477.4,438.2,432.6,347.8,402.6,332.3z M929.7,108.7c-0.9,1.5-1.9,3.1-2.8,4.6c-5.4,9.9-12.9,17.6-22.5,23.6
		c-6.1,3.8-12.3,7.2-19,9.8c-1.9,0.7-5.3,1.1-3.7,4.5c1.5,3.2,4,1,6.1,0.4c2.6-0.7,4.7-2.3,7.1-3.3C912.3,140.4,925,128,929.7,108.7
		z M183.1,358.7c-0.3-3.4-1.7-5-2.8-6.9c-5.2-8.9-10.4-17.8-15.7-26.6c-2.5-4.1-5.1-8.2-7.6-12.3c-2.5-4.1-5.6-2.2-8.1-0.5
		c-3,2.1,0.3,3.7,1.3,5.1c2.4,3.4,5.2,6.5,7.8,9.8C166.2,337.6,174.3,347.7,183.1,358.7z M795.7,478.4
		C785,514.1,813.4,611,841.1,632.9C807.7,586.7,792.1,535.4,795.7,478.4z M795.9,471.4c7.9-58.1,33.3-106.9,76.9-146.3
		C827.7,363.7,802.3,412.6,795.9,471.4z M948.5,438c0.2,1.7,0.4,3.1,0.6,4.4c1.9,9.8,1.9,9.8,10.8,5.7c7.7-3.5,7.4-3.5,4.7-11.4
		c-1.6-4.6-3.8-5.6-8-3.5c-1.6,0.8-3.5,1-5.3,1.5C949.3,435,948,436,948.5,438z M361.7,497.1c-10.5-4.5-21.1-9-31.6-13.7
		c-2.1-0.9-2.6-0.4-3.4,1.7c-1.2,3.4-2.2,7.1-6.4,8.5C334.3,493.4,347.7,497.7,361.7,497.1z M918.2,458.6
		c6.6,4.4,12.3,7.8,17.5,11.8c4,3.1,8.1,2.1,12.3,1.5c1-0.2,1.8-0.6,1.9-1.8c0.5-3.8-2.6-8.3-6.4-8.7
		C935.5,460.6,927.6,458.7,918.2,458.6z M1047.3,557.5c-1.6,12.7,4.4,26.5,14.3,32.7c-1.4-6.4-3.2-12.5-4-18.7
		C1056.8,564.8,1053.2,560.7,1047.3,557.5z M1087.6,529.5c0.2-0.4,0.4-0.7,0.7-1.1c-3.2-3-6.3-6.2-9.6-9.1c-5-4.4-16.9-2.1-20.2,3.6
		c-1,1.8-0.3,2.5,1.3,2.8C1069,527,1078.3,528.3,1087.6,529.5z M447.1,51.9c-22.4,0.9-42.5,6.1-49.7,12.8c3.7-0.5,7.2-0.8,10.6-1.6
		c3-0.8,7.1-0.1,8.8-2.8c2.3-3.8,5.3-3.2,7.4-1.5c5.2,4.2,9.1,1.1,13.3-1.4C440.3,55.8,443.2,54.2,447.1,51.9z M948,460.3
		c0.1-8.6-3.3-15.4-3.9-22.6c-0.1-0.8-1.2-1-2.1-0.7c-4.3,1.3-8.9,1.9-13.2,4C935.1,447.3,941,453.3,948,460.3z M205.8,542.1
		c0,0.1,0,0.1,0,0.2c-2.7,0-5.3,0-8,0c-1.5,0-3.1,0.6-1.8,2.3c3.4,4.7,7.9,8,13.1,10.4c0.5,0.2,1.4,0,1.8-0.4c2.5-2.2,5-4.4,7.2-6.9
		c2.2-2.5,1.3-4.3-1.9-4.7C212.8,542.5,209.3,542.3,205.8,542.1z M203.6,275.4c42-7.3,83.2-4.5,123.5,9.9
		C286.8,269.6,245.7,266.6,203.6,275.4z M924.3,538.4c6.6-1.4,13.3-2.5,19.9-4.2c5.4-1.4,7.3-6.3,10.5-10.2
		C940.3,520.3,933.8,532.2,924.3,538.4z M1092,471.2c-6.2,0-11.5-0.1-16.8,0c-5.3,0.2-7.7,3.5-6.5,8.6c0.6,2.6,1.1,5.2,0.6,8.6
		C1077.3,482.4,1084.4,477,1092,471.2z M203.8,532.7c0,0.2,0,0.3,0,0.5c2.8,0,5.7,0,8.5,0c1.2,0,3.1,1.1,3.5-0.7
		c0.4-1.7-1-3.3-2.6-3.8c-2.2-0.8-4.4-1.5-5.9-3.4c-4.6-5.7-4.9-5.7-10.4-0.7c-1.5,1.3-3,2.6-4.5,3.9c-0.9,0.8-2.2,1.4-1.9,2.7
		c0.4,1.7,2.2,1.4,3.4,1.4C197.2,532.8,200.5,532.7,203.8,532.7z M296,490.9c-3.5-3.4-7.1-6-6.8-11.8c0.2-3.5-2.2-8.1-6.4-7.2
		c-4.7,1-8.9,1.5-13.3,0c-0.8-0.3-1.9-0.5-2,0.6c-0.2,1.3,0.9,1.6,2,1.7c7.3,0.8,9.2,2.5,10.9,9c0.2,0.9,0.8,1.9,1.5,2.5
		C285.8,489.1,291.3,488.8,296,490.9z M981.6,590.1c0.4,0.2,0.9,0.3,1.3,0.5c3.7-5.7,7.5-11.3,10.9-17.2c1.8-3.1,0.8-6.5,0-9.8
		c-0.4-1.7-1.6-1.6-2.6-0.7c-2.3,2.1-5.4,3.8-6.1,7.1C983.7,576.7,982.7,583.4,981.6,590.1z M289,595.5c-0.4,0.1-0.9,0.2-1.3,0.3
		c1.2,6.6,2.2,13.3,3.5,19.9c1.2,6.4,3.1,7.4,9.4,5.5c2.3-0.7,2.9-1.9,1.6-4C297.8,609.9,293.4,602.7,289,595.5z M1043.9,568.6
		c1.5-8.8,1.4-15.9-6.1-20.9c-2.5-1.7-4.7-2-7.4-1.4c-1.9,0.4-2.1,1.3-1,2.8C1034,555.3,1038.6,561.5,1043.9,568.6z M1052.6,428.3
		c-4.2,4-7.7,7.3-11,10.7c-1.8,1.8-2.3,4.3-0.8,6.4c1.7,2.4,3.5,5,6.8,5.4c1.5,0.2,2.6-0.8,2.8-2.2
		C1051.1,441.9,1052.6,435.5,1052.6,428.3z M1083,455.7c-7.3,1.6-13.6,3.1-19.9,4.4c-2.9,0.6-3.4,2-2.7,4.6
		c1.4,5.1,8.6,6.4,12.8,2.1C1076.4,463.4,1079.3,459.8,1083,455.7z M1036,422.1c-4.1,4.1-6.2,9-9.3,13.2c-0.8,1.1-2.3,2.6-0.8,3.9
		c2.4,2,5.2,3.8,8.5,3.4c1.8-0.2,2.9-1.7,3-3.5C1037.6,433.6,1037.9,428,1036,422.1z M129.9,304.7c-9.2,0.6-50.2,35.6-52.7,44.9
		C93,332.5,110.2,317.2,129.9,304.7z M1090.1,513.2c-6.2-3.9-11.6-7.4-17.2-10.8c-1.2-0.7-2.6-2.7-4.2-0.4c-1.3,1.9-0.9,3.3,0.6,5.3
		C1074.5,514,1081.2,515.3,1090.1,513.2z M198,277c-23.4,3.2-44.4,12.6-64.3,24.8C154.2,291.1,175.5,282.5,198,277z M163.8,530.6
		c6.6,1.6,12.6,1.2,18.5,1.3c2,0,3.2-0.7,2.9-2.9c-0.3-1.7,0.1-4.4-2.5-4C176.5,525.9,169.9,525.8,163.8,530.6z M985.8,564
		c9-4.8,8.6-11.9,7.1-19.4c-0.3-1.4-0.9-2.6-2.5-2.7c-1.4-0.1-1.5,1.1-1.6,2C987.8,550.5,986.9,557,985.8,564z M977.9,507.1
		c-0.9,0.9-3.9,0.1-2.8,2.6c2,4.5,5,8.4,9.3,10.8c1.9,1,4.9,1.4,5.1-2.4C989.6,515.7,980.4,507,977.9,507.1z M947.7,420.3
		c2.4-0.8,4.4-1.5,6.4-2.1c1.2-0.4,2-0.9,2.2-2.3c0.3-2.8-4.4-11.7-7.4-13.4C948.4,408.3,947.2,413.9,947.7,420.3z M558.1,565.2
		c3.1,0,6,0.1,8.4-1.7c1-0.8,2.5-1.5,2-3.1c-0.3-1.3-1.8-1.4-2.9-1.7c-5.1-1.2-9.9,0.2-14.6,1.8c-2.4,0.8-1.3,2.3,0.1,3.2
		C553.3,565.2,555.8,565,558.1,565.2z M259,557.1c-1.2-0.9-2.4-1.4-2.5-2.1c-1.6-6.9-6.9-3.3-10.7-3.8c-1-0.1-1.8,0.4-2.1,1.6
		c-1.4,4.9,1,7.5,6.1,6.4C252.7,558.6,255.6,557.9,259,557.1z M469.7,544.5c-4.6,17.6-11.1,34.5-18.1,51.2
		C461.3,580,466.2,562.5,469.7,544.5z M219.5,555.2c-0.9,3.3,0.9,3.8,2.8,4.1c2.1,0.4,7.1-4.3,6.6-6.8c-0.5-2.8-2.4-7.4-4.1-7.1
		C219.3,546.3,221.1,552.3,219.5,555.2z M1054.8,559.4c-1.5-6.5-3-12.9-4.5-19.3c-0.2-1-0.2-2.6-1.7-2.6c-1.4,0-1.6,1.5-1.7,2.6
		C1046.6,547.8,1045.2,555.7,1054.8,559.4z M963.6,523.2c-5.1-0.9-7.3,3.1-10.1,6.1c-0.4,0.4-0.7,1.3-0.5,1.8c0.3,1,1.3,0.8,2.1,0.6
		c4.2-1,8.4-1.9,12.6-3c1.1-0.3,2.4-0.7,2.2-2.2c-0.1-1.4-0.9-2.6-2.3-2.9C966.3,523.3,964.9,523.3,963.6,523.2z M997.5,566.5
		c3.3-3.2,10.9-16.1,12-20.1C998.6,552,995.4,557.4,997.5,566.5z M995.5,423.7c-2.2,6.2,0,10.8,2.2,15.2c1.7,3.4,4.6,0.8,6.5,0
		c2.9-1.1,0.3-2.8-0.3-3.8C1001.4,431.5,998.7,427.9,995.5,423.7z M327.8,531.2c0.2-0.4,0.4-0.8,0.5-1.3c-4-2.8-8-5.7-12-8.5
		c-1.3-0.9-2.4-2.5-4.3-1.6c-1.5,0.7-1.1,2.2-1.2,3.5c-0.1,2,0.6,3.6,2.7,4.2C318.3,528.7,323.1,529.9,327.8,531.2z M50.6,387.9
		c6.9-11,14.4-21.6,21.3-32.5C63.1,365.2,55.5,375.7,50.6,387.9z"/>
</g>
</svg>
