<?xml version="1.0" encoding="iso-8859-1"?>
<!-- Generator: Adobe Illustrator 19.0.0, SVG Export Plug-In . SVG Version: 6.00 Build 0)  -->
<svg xmlns="http://www.w3.org/2000/svg" xmlns:xlink="http://www.w3.org/1999/xlink" version="1.1" id="Layer_1" x="0px" y="0px" viewBox="0 0 511.908 511.908" style="enable-background:new 0 0 511.908 511.908;" xml:space="preserve" width="512px" height="512px">
<g>
	<g>
		<path d="M511.794,307.954l-32.427-229.44c-0.747-5.227-5.227-9.173-10.56-9.173H43.313c-5.333,0-9.813,3.947-10.56,9.173    L0.113,308.061c-0.853,5.867,3.2,11.2,9.067,12.053c161.707,22.72,189.867,111.147,190.933,114.773    c1.28,4.587,5.44,7.68,10.24,7.68h91.2c4.693,0,8.853-3.093,10.24-7.68c1.067-3.733,29.333-92.16,190.933-114.88    C508.594,319.154,512.647,313.821,511.794,307.954z M52.593,90.674h406.933l4.587,32H48.007L52.593,90.674z M22.833,300.595    l22.08-156.587h148.48l-65.387,189.547C101.127,319.688,66.673,307.741,22.833,300.595z M294.3,421.341h-76.373    c-6.4-14.827-25.067-48.107-71.04-76.907l69.12-200.427h80l69.227,200.427C319.367,373.234,300.7,406.514,294.3,421.341z     M384.113,333.874l-65.6-189.867h148.693l22.293,156.8C445.447,307.954,410.993,320.008,384.113,333.874z" fill="#FFFFFF"/>
	</g>
</g>
<g>
</g>
<g>
</g>
<g>
</g>
<g>
</g>
<g>
</g>
<g>
</g>
<g>
</g>
<g>
</g>
<g>
</g>
<g>
</g>
<g>
</g>
<g>
</g>
<g>
</g>
<g>
</g>
<g>
</g>
</svg>
