<?xml version="1.0" encoding="iso-8859-1"?>
<!-- Generator: Adobe Illustrator 19.0.0, SVG Export Plug-In . SVG Version: 6.00 Build 0)  -->
<svg xmlns="http://www.w3.org/2000/svg" xmlns:xlink="http://www.w3.org/1999/xlink" version="1.1" id="Layer_1" x="0px" y="0px" viewBox="0 0 511.994 511.994" style="enable-background:new 0 0 511.994 511.994;" xml:space="preserve" width="512px" height="512px">
<g transform="translate(1 1)">
	<g>
		<g>
			<path d="M416.742,107.382c-0.913-2.921-3.187-7.214-7.391-12.345c-6.537-7.977-16.106-15.789-29.22-22.942     c-14.974-8.168-33.79-15.033-56.866-20.257V28.869v-5.41c0-8.276-5.905-14.932-13.907-16.422     c-35.45-10.715-73.278-10.715-108.72,0c-8.002,1.49-13.907,8.147-13.907,16.422v5.41v22.969     c-23.077,5.224-41.892,12.089-56.866,20.257c-13.115,7.153-22.683,14.965-29.22,22.942c-4.204,5.131-6.479,9.424-7.391,12.345     c-0.658,2.107-0.475,4.386,0.512,6.361l14.242,28.493c12.49,24.971,18.991,52.507,18.991,80.434v262.724     c0,14.142,11.458,25.6,25.6,25.6h204.8c14.142,0,25.6-11.458,25.6-25.6V222.669c0-27.927,6.501-55.463,18.99-80.432     l14.243-28.495C417.217,111.768,417.4,109.488,416.742,107.382z M254.997,67.26c-19.916,0-38.287-3.592-51.2-9.454V42.019     c14.466,5.253,32.333,8.175,51.2,8.175c18.865,0,36.73-2.922,51.195-8.173c0.002,6.787,0.004,13.415,0.004,15.786     C293.283,63.668,274.912,67.26,254.997,67.26z M304.907,23.521l0.979,0.219c-13.045,5.873-31.238,9.387-50.889,9.387     c-19.652,0-37.845-3.514-50.89-9.387c0.382-0.085,0.98-0.218,0.98-0.218C237.613,13.582,272.373,13.582,304.907,23.521z      M144.063,485.394V222.669c0-30.578-7.118-60.727-20.793-88.067l-12.347-24.701c0.757-1.229,1.722-2.584,2.92-4.047     c5.117-6.245,12.971-12.656,24.192-18.776c13.102-7.147,29.771-13.299,50.4-18.117c14.094,8.634,34.977,14.08,58.027,15.163     v409.803h-93.867C147.88,493.927,144.063,490.11,144.063,485.394z M386.722,134.604c-13.673,27.338-20.792,57.487-20.792,88.065     v262.724c0,4.716-3.817,8.533-8.533,8.533H263.53V84.124c23.05-1.084,43.934-6.529,58.027-15.163     c20.629,4.818,37.298,10.971,50.4,18.117c11.221,6.121,19.075,12.532,24.192,18.776c1.199,1.463,2.163,2.818,2.92,4.047     L386.722,134.604z" fill="#FFFFFF"/>
			<path d="M322.574,371.104c-1.857-4.332-6.873-6.338-11.205-4.482c-4.332,1.857-6.338,6.873-4.482,11.205l25.6,59.733     c1.857,4.332,6.873,6.338,11.205,4.482s6.338-6.873,4.482-11.205L322.574,371.104z" fill="#FFFFFF"/>
			<path d="M198.625,366.622c-4.332-1.856-9.348,0.15-11.205,4.482l-25.6,59.733c-1.857,4.332,0.15,9.348,4.482,11.205     c4.332,1.856,9.348-0.15,11.205-4.482l25.6-59.733C204.963,373.495,202.957,368.479,198.625,366.622z" fill="#FFFFFF"/>
		</g>
	</g>
</g>
<g>
</g>
<g>
</g>
<g>
</g>
<g>
</g>
<g>
</g>
<g>
</g>
<g>
</g>
<g>
</g>
<g>
</g>
<g>
</g>
<g>
</g>
<g>
</g>
<g>
</g>
<g>
</g>
<g>
</g>
</svg>
