<?xml version="1.0" encoding="iso-8859-1"?>
<!-- Generator: Adobe Illustrator 19.0.0, SVG Export Plug-In . SVG Version: 6.00 Build 0)  -->
<svg xmlns="http://www.w3.org/2000/svg" xmlns:xlink="http://www.w3.org/1999/xlink" version="1.1" id="Layer_1" x="0px" y="0px" viewBox="0 0 377.634 377.634" style="enable-background:new 0 0 377.634 377.634;" xml:space="preserve" width="512px" height="512px">
<g id="XMLID_808_">
	<g>
		<path d="M312.09,102.896l-31.563-55.898c-7.896-15.51-23.585-25.132-41.006-25.132h-9.531l-4.864-11.324l-0.166-0.365    C222.005,3.995,215.669,0,208.818,0h-40c-6.851,0-13.187,3.995-16.141,10.176l-5.03,11.688h-9.531    c-17.421,0-33.109,9.623-41.006,25.132l-31.563,55.897c-2.356,4.173-2.825,9.168-1.285,13.706    c1.541,4.538,4.953,8.216,9.361,10.091l26.163,11.133c2.1,0.894,4.319,1.346,6.597,1.346c5.501,0,10.666-2.691,13.815-7.198    l4.869-6.964v9.286c0,11.892-1.785,23.676-5.305,35.03c-1.757,4.286-14.255,35.537-14.255,56.79    c0,48.033,8.054,107.938,12.855,139.374c1.075,7.039,7.027,12.147,14.153,12.147h32.297c7.433,0,13.703-5.804,14.276-13.213    c2.873-37.148,6.387-70.215,9.699-92.832c3.315,22.624,6.847,55.693,9.754,92.848c0.581,7.4,6.852,13.197,14.274,13.197h32.31    c7.11,0,13.061-5.096,14.148-12.118c3.017-19.468,12.857-87.201,12.857-141.433c0-19.82-12.096-49.599-14.271-54.794    c-3.514-11.344-5.295-23.116-5.295-34.997v-9.286l4.868,6.962c3.15,4.508,8.315,7.199,13.816,7.199    c2.277,0,4.497-0.453,6.598-1.346l26.16-11.132c4.41-1.876,7.822-5.554,9.363-10.092    C314.914,112.063,314.445,107.067,312.09,102.896z M172.296,249.531c-1.986,9.608-4.029,23.078-6.072,40.036    c-3.109,25.806-5.486,53.438-6.66,68.07h-22.158c-4.757-31.885-11.896-87.145-11.896-131.521c0-2.672,0.291-5.67,0.783-8.836    l37.894-24.485l14.498,37.539C175.195,235.516,173.601,243.219,172.296,249.531z M158.947,172.367l-25.027,16.171    c1.744-5.063,3.384-9.317,4.484-11.959l0.313-0.855c4.215-13.421,6.351-27.359,6.351-41.429v-15.477h9.25    c2.481,0,4.5,2.019,4.5,4.5v45.5C158.818,170.006,158.87,171.189,158.947,172.367z M240.247,357.637h-22.183    c-1.186-14.627-3.583-42.256-6.702-68.068c-2.05-16.956-4.092-30.423-6.07-40.029c-1.363-6.612-2.923-14.182-6.32-19.254    l14.479-37.49l38.144,24.646c0.341,2.388,0.539,4.634,0.539,6.645C252.134,273.102,243.81,333.884,240.247,357.637z     M238.919,175.725l0.333,0.904c1.123,2.654,2.808,6.935,4.591,11.992l-25.154-16.253c0.077-1.179,0.129-2.361,0.129-3.549v-45.5    c0-2.481,2.019-4.5,4.5-4.5h9.25v15.477C232.568,148.365,234.705,162.303,238.919,175.725z M272.366,118.422l-19.432-27.794    c-2.074-3.082-5.494-4.91-9.219-4.91c-6.146,0-11.147,4.996-11.147,11.137v1.963h-9.25c-13.51,0-24.5,10.991-24.5,24.5v45.5    c0,4.359-0.821,8.623-2.44,12.672l-7.56,19.572l-7.517-19.463l-0.043-0.11c-1.619-4.05-2.44-8.313-2.44-12.672v-45.5    c0-13.509-10.99-24.5-24.5-24.5h-9.25v-1.963c0-6.141-5.001-11.137-11.147-11.137c-3.725,0-7.145,1.829-9.219,4.91l-19.432,27.794    l-20.578-8.756l29.945-53.034l0.228-0.428c4.443-8.845,13.353-14.339,23.251-14.339h22.707L170.216,20h37.205l9.393,21.865h22.707    c9.898,0,18.808,5.495,23.251,14.339l30.173,53.462L272.366,118.422z" fill="#FFFFFF"/>
	</g>
</g>
<g>
</g>
<g>
</g>
<g>
</g>
<g>
</g>
<g>
</g>
<g>
</g>
<g>
</g>
<g>
</g>
<g>
</g>
<g>
</g>
<g>
</g>
<g>
</g>
<g>
</g>
<g>
</g>
<g>
</g>
</svg>
