<?xml version="1.0" encoding="utf-8"?>
<!-- Generator: Adobe Illustrator 21.0.2, SVG Export Plug-In . SVG Version: 6.00 Build 0)  -->
<svg version="1.1" id="Слой_1" xmlns="http://www.w3.org/2000/svg" xmlns:xlink="http://www.w3.org/1999/xlink" x="0px" y="0px"
	 viewBox="0 0 32.9 77.1" style="enable-background:new 0 0 32.9 77.1;" xml:space="preserve">
<style type="text/css">
	.st0{display:none; fill:#fff}
	.st1{fill: #aaa}
	
</style>
<g>
	<path class="st0" d="M-10.8,16.2c-0.3-0.8-0.8-1.4-1.6-1.6l-3.2-1.2c-1.3,0.9-2.9,1.4-4.6,1.4s-3.3-0.5-4.6-1.4l-3.3,1.2
		c-0.8,0.3-1.3,0.9-1.6,1.6l-7.2,21.6c-0.1,0.4,0.1,0.9,0.5,1l2.2,0.8c0.4,0.2,0.9-0.1,1-0.5l5.8-15l-1.9,16.3
		c-0.1,0.6,0.4,1.2,1,1.2h0.3v0.1l0.9,34.6c0,0.6,0.5,1,1,1h3c0.6,0,1-0.5,1-1l0.8-31.2h2l0.8,31.2c0,0.6,0.5,1,1,1h3
		c0.6,0,1-0.5,1-1l0.9-34.6v-0.1h0.3c0.6,0,1.1-0.5,1-1.2l-1.9-16.3l5.8,15c0.2,0.4,0.6,0.6,1,0.5l2.2-0.8c0.4-0.2,0.6-0.6,0.5-1
		L-10.8,16.2z"/>
	<circle class="st0" cx="-20.3" cy="6.3" r="6.3"/>
	<path class="st1 custom_fill" d="M25,16.2c-0.2-0.7-0.8-1.2-1.4-1.5l-2.9-1.2c-1.2,0.7-2.7,1.1-4.2,1.1s-3-0.4-4.2-1.1l-2.9,1.2C8.8,15,8.2,15.5,8,16.2
		L0.1,37.6c-0.2,0.4,0.1,0.9,0.5,1l2,0.8c0.4,0.2,0.9,0,1-0.4l6.3-15.2L9.1,36L3.5,54.1c-0.2,0.6,0.2,1.1,0.8,1.1h5l0.5,20.9
		c0,0.6,0.5,1,1,1h2.8c0.6,0,1-0.4,1-1l0.5-20.9h2.8l0.5,20.9c0,0.6,0.5,1,1,1h2.8c0.6,0,1-0.4,1-1l0.5-20.9h5c0.6,0,1-0.6,0.8-1.1
		L23.9,36l-0.8-12.2L29.4,39c0.2,0.4,0.6,0.6,1,0.4l2-0.8c0.4-0.2,0.6-0.6,0.5-1L25,16.2z"/>
	<circle class="st1 custom_fill" cx="16.5" cy="6.3" r="6.3"/>
	<path class="st0" d="M58,55.8l-4.7-12c-0.2-0.6-0.7-1.2-1.4-1.4l-2.2-1c-1.1,0.7-2.4,1.1-3.9,1.1c-1.4,0-2.7-0.4-3.9-1.1l-2.2,1
		c-0.6,0.3-1.1,0.8-1.4,1.4l-4.7,12c-0.2,0.4,0.1,0.9,0.5,1.1l1.6,0.6c0.4,0.1,0.9-0.1,1-0.5l3.6-9l-1,10.1
		c-0.1,0.5,0.3,0.9,0.8,0.9h0.3l0,0l0.7,17.2c0,0.4,0.4,0.8,0.8,0.8H44c0.4,0,0.8-0.3,0.8-0.8l0.7-14.3H46l0.7,14.3
		c0,0.4,0.4,0.8,0.8,0.8h2.1c0.4,0,0.8-0.3,0.8-0.8L51.1,59l0,0h0.3c0.5,0,0.9-0.4,0.8-0.9l-1-10.1l3.6,9c0.2,0.4,0.6,0.6,1,0.5
		l1.6-0.6C58,56.7,58.2,56.2,58,55.8z"/>
	<circle class="st0" cx="46" cy="35.4" r="5.3"/>
</g>
<text transform="matrix(1 0 0 1 -39.4363 103.6)" style="display:none;enable-background:new    ; font-family:'Arial-BoldMT'; font-size:5px;">Created by Adrien Coquet</text>
<text transform="matrix(1 0 0 1 -39.4363 108.6)" style="display:none;enable-background:new    ; font-family:'Arial-BoldMT'; font-size:5px;">from the Noun Project</text>
</svg>
